%TF.GenerationSoftware,KiCad,Pcbnew,8.0.4*%
%TF.CreationDate,2024-08-23T16:04:37+02:00*%
%TF.ProjectId,MCU Powerboard,4d435520-506f-4776-9572-626f6172642e,rev?*%
%TF.SameCoordinates,Original*%
%TF.FileFunction,Drillmap*%
%TF.FilePolarity,Positive*%
%FSLAX45Y45*%
G04 Gerber Fmt 4.5, Leading zero omitted, Abs format (unit mm)*
G04 Created by KiCad (PCBNEW 8.0.4) date 2024-08-23 16:04:37*
%MOMM*%
%LPD*%
G01*
G04 APERTURE LIST*
%ADD10C,0.200000*%
G04 APERTURE END LIST*
D10*
X8500000Y-6500000D02*
X21200000Y-6500000D01*
X21200000Y-12500000D01*
X8500000Y-12500000D01*
X8500000Y-6500000D01*
X8750777Y-12821484D02*
X8750777Y-12621484D01*
X8750777Y-12621484D02*
X8798396Y-12621484D01*
X8798396Y-12621484D02*
X8826967Y-12631008D01*
X8826967Y-12631008D02*
X8846015Y-12650055D01*
X8846015Y-12650055D02*
X8855539Y-12669103D01*
X8855539Y-12669103D02*
X8865063Y-12707198D01*
X8865063Y-12707198D02*
X8865063Y-12735769D01*
X8865063Y-12735769D02*
X8855539Y-12773865D01*
X8855539Y-12773865D02*
X8846015Y-12792912D01*
X8846015Y-12792912D02*
X8826967Y-12811960D01*
X8826967Y-12811960D02*
X8798396Y-12821484D01*
X8798396Y-12821484D02*
X8750777Y-12821484D01*
X8950777Y-12821484D02*
X8950777Y-12688150D01*
X8950777Y-12726246D02*
X8960301Y-12707198D01*
X8960301Y-12707198D02*
X8969824Y-12697674D01*
X8969824Y-12697674D02*
X8988872Y-12688150D01*
X8988872Y-12688150D02*
X9007920Y-12688150D01*
X9074586Y-12821484D02*
X9074586Y-12688150D01*
X9074586Y-12621484D02*
X9065063Y-12631008D01*
X9065063Y-12631008D02*
X9074586Y-12640531D01*
X9074586Y-12640531D02*
X9084110Y-12631008D01*
X9084110Y-12631008D02*
X9074586Y-12621484D01*
X9074586Y-12621484D02*
X9074586Y-12640531D01*
X9198396Y-12821484D02*
X9179348Y-12811960D01*
X9179348Y-12811960D02*
X9169824Y-12792912D01*
X9169824Y-12792912D02*
X9169824Y-12621484D01*
X9303158Y-12821484D02*
X9284110Y-12811960D01*
X9284110Y-12811960D02*
X9274586Y-12792912D01*
X9274586Y-12792912D02*
X9274586Y-12621484D01*
X9531729Y-12821484D02*
X9531729Y-12621484D01*
X9531729Y-12621484D02*
X9598396Y-12764341D01*
X9598396Y-12764341D02*
X9665063Y-12621484D01*
X9665063Y-12621484D02*
X9665063Y-12821484D01*
X9846015Y-12821484D02*
X9846015Y-12716722D01*
X9846015Y-12716722D02*
X9836491Y-12697674D01*
X9836491Y-12697674D02*
X9817444Y-12688150D01*
X9817444Y-12688150D02*
X9779348Y-12688150D01*
X9779348Y-12688150D02*
X9760301Y-12697674D01*
X9846015Y-12811960D02*
X9826967Y-12821484D01*
X9826967Y-12821484D02*
X9779348Y-12821484D01*
X9779348Y-12821484D02*
X9760301Y-12811960D01*
X9760301Y-12811960D02*
X9750777Y-12792912D01*
X9750777Y-12792912D02*
X9750777Y-12773865D01*
X9750777Y-12773865D02*
X9760301Y-12754817D01*
X9760301Y-12754817D02*
X9779348Y-12745293D01*
X9779348Y-12745293D02*
X9826967Y-12745293D01*
X9826967Y-12745293D02*
X9846015Y-12735769D01*
X9941253Y-12688150D02*
X9941253Y-12888150D01*
X9941253Y-12697674D02*
X9960301Y-12688150D01*
X9960301Y-12688150D02*
X9998396Y-12688150D01*
X9998396Y-12688150D02*
X10017444Y-12697674D01*
X10017444Y-12697674D02*
X10026967Y-12707198D01*
X10026967Y-12707198D02*
X10036491Y-12726246D01*
X10036491Y-12726246D02*
X10036491Y-12783388D01*
X10036491Y-12783388D02*
X10026967Y-12802436D01*
X10026967Y-12802436D02*
X10017444Y-12811960D01*
X10017444Y-12811960D02*
X9998396Y-12821484D01*
X9998396Y-12821484D02*
X9960301Y-12821484D01*
X9960301Y-12821484D02*
X9941253Y-12811960D01*
X10122205Y-12802436D02*
X10131729Y-12811960D01*
X10131729Y-12811960D02*
X10122205Y-12821484D01*
X10122205Y-12821484D02*
X10112682Y-12811960D01*
X10112682Y-12811960D02*
X10122205Y-12802436D01*
X10122205Y-12802436D02*
X10122205Y-12821484D01*
X10122205Y-12697674D02*
X10131729Y-12707198D01*
X10131729Y-12707198D02*
X10122205Y-12716722D01*
X10122205Y-12716722D02*
X10112682Y-12707198D01*
X10112682Y-12707198D02*
X10122205Y-12697674D01*
X10122205Y-12697674D02*
X10122205Y-12716722D01*
M02*
