G04 #@! TF.GenerationSoftware,KiCad,Pcbnew,8.0.4*
G04 #@! TF.CreationDate,2024-08-23T16:04:33+02:00*
G04 #@! TF.ProjectId,MCU Powerboard,4d435520-506f-4776-9572-626f6172642e,rev?*
G04 #@! TF.SameCoordinates,Original*
G04 #@! TF.FileFunction,Soldermask,Top*
G04 #@! TF.FilePolarity,Negative*
%FSLAX46Y46*%
G04 Gerber Fmt 4.6, Leading zero omitted, Abs format (unit mm)*
G04 Created by KiCad (PCBNEW 8.0.4) date 2024-08-23 16:04:33*
%MOMM*%
%LPD*%
G01*
G04 APERTURE LIST*
G04 Aperture macros list*
%AMRoundRect*
0 Rectangle with rounded corners*
0 $1 Rounding radius*
0 $2 $3 $4 $5 $6 $7 $8 $9 X,Y pos of 4 corners*
0 Add a 4 corners polygon primitive as box body*
4,1,4,$2,$3,$4,$5,$6,$7,$8,$9,$2,$3,0*
0 Add four circle primitives for the rounded corners*
1,1,$1+$1,$2,$3*
1,1,$1+$1,$4,$5*
1,1,$1+$1,$6,$7*
1,1,$1+$1,$8,$9*
0 Add four rect primitives between the rounded corners*
20,1,$1+$1,$2,$3,$4,$5,0*
20,1,$1+$1,$4,$5,$6,$7,0*
20,1,$1+$1,$6,$7,$8,$9,0*
20,1,$1+$1,$8,$9,$2,$3,0*%
G04 Aperture macros list end*
%ADD10RoundRect,0.237500X0.300000X0.237500X-0.300000X0.237500X-0.300000X-0.237500X0.300000X-0.237500X0*%
%ADD11R,1.395000X1.600000*%
%ADD12R,1.400000X1.600000*%
%ADD13RoundRect,0.237500X-0.237500X0.250000X-0.237500X-0.250000X0.237500X-0.250000X0.237500X0.250000X0*%
%ADD14RoundRect,0.237500X0.237500X-0.287500X0.237500X0.287500X-0.237500X0.287500X-0.237500X-0.287500X0*%
%ADD15RoundRect,0.250000X-0.650000X0.412500X-0.650000X-0.412500X0.650000X-0.412500X0.650000X0.412500X0*%
%ADD16RoundRect,0.237500X-0.237500X0.300000X-0.237500X-0.300000X0.237500X-0.300000X0.237500X0.300000X0*%
%ADD17RoundRect,0.237500X0.237500X-0.250000X0.237500X0.250000X-0.237500X0.250000X-0.237500X-0.250000X0*%
%ADD18C,1.700000*%
%ADD19O,1.700000X1.700000*%
%ADD20R,1.700000X1.700000*%
%ADD21R,0.500000X0.310000*%
%ADD22R,0.650000X0.310000*%
%ADD23R,1.000000X1.300000*%
%ADD24RoundRect,0.237500X0.250000X0.237500X-0.250000X0.237500X-0.250000X-0.237500X0.250000X-0.237500X0*%
%ADD25RoundRect,0.237500X-0.250000X-0.237500X0.250000X-0.237500X0.250000X0.237500X-0.250000X0.237500X0*%
%ADD26RoundRect,0.312500X-0.312500X0.312500X-0.312500X-0.312500X0.312500X-0.312500X0.312500X0.312500X0*%
%ADD27C,1.500000*%
%ADD28RoundRect,0.312500X0.312500X0.312500X-0.312500X0.312500X-0.312500X-0.312500X0.312500X-0.312500X0*%
%ADD29RoundRect,0.150000X-0.150000X0.512500X-0.150000X-0.512500X0.150000X-0.512500X0.150000X0.512500X0*%
%ADD30RoundRect,0.312500X0.312500X-0.312500X0.312500X0.312500X-0.312500X0.312500X-0.312500X-0.312500X0*%
%ADD31R,1.400000X2.200000*%
%ADD32R,1.400000X0.900000*%
%ADD33R,1.000000X0.400000*%
%ADD34RoundRect,0.312500X-0.312500X-0.312500X0.312500X-0.312500X0.312500X0.312500X-0.312500X0.312500X0*%
%ADD35RoundRect,0.237500X-0.300000X-0.237500X0.300000X-0.237500X0.300000X0.237500X-0.300000X0.237500X0*%
%ADD36RoundRect,0.237500X-0.237500X0.287500X-0.237500X-0.287500X0.237500X-0.287500X0.237500X0.287500X0*%
%ADD37R,0.500000X0.550000*%
%ADD38R,1.250000X0.600000*%
%ADD39C,2.925000*%
%ADD40RoundRect,0.250000X0.412500X0.650000X-0.412500X0.650000X-0.412500X-0.650000X0.412500X-0.650000X0*%
%ADD41R,3.200000X2.850000*%
%ADD42RoundRect,0.250000X1.025000X-0.875000X1.025000X0.875000X-1.025000X0.875000X-1.025000X-0.875000X0*%
%ADD43R,1.475000X0.450000*%
%ADD44R,2.460000X2.310000*%
%ADD45RoundRect,0.200000X0.200000X-0.750000X0.200000X0.750000X-0.200000X0.750000X-0.200000X-0.750000X0*%
%ADD46RoundRect,0.237500X-0.287500X-0.237500X0.287500X-0.237500X0.287500X0.237500X-0.287500X0.237500X0*%
%ADD47C,0.790000*%
%ADD48O,1.400000X2.200000*%
%ADD49O,1.260000X2.760000*%
%ADD50R,2.000000X0.650000*%
%ADD51R,2.000000X3.200000*%
%ADD52RoundRect,0.237500X0.237500X-0.300000X0.237500X0.300000X-0.237500X0.300000X-0.237500X-0.300000X0*%
%ADD53C,1.540000*%
%ADD54C,1.950000*%
%ADD55RoundRect,0.075000X0.075000X-0.725000X0.075000X0.725000X-0.075000X0.725000X-0.075000X-0.725000X0*%
%ADD56RoundRect,0.075000X0.725000X-0.075000X0.725000X0.075000X-0.725000X0.075000X-0.725000X-0.075000X0*%
%ADD57R,1.430000X5.330000*%
%ADD58R,2.350000X1.550000*%
%ADD59R,0.450000X1.750000*%
%ADD60R,0.400000X0.800000*%
%ADD61R,2.500000X1.750000*%
%ADD62R,2.775000X2.775000*%
%ADD63C,2.775000*%
G04 APERTURE END LIST*
D10*
X209862500Y-90750000D03*
X208137500Y-90750000D03*
D11*
X97502000Y-99705000D03*
X97502000Y-91295000D03*
X101998000Y-99705000D03*
X101998000Y-91295000D03*
D12*
X99750000Y-91295000D03*
D13*
X164500000Y-83587500D03*
X164500000Y-85412500D03*
D10*
X122862500Y-110250000D03*
X121137500Y-110250000D03*
D14*
X116000000Y-68625000D03*
X116000000Y-66875000D03*
D15*
X192250000Y-106187500D03*
X192250000Y-109312500D03*
D16*
X137223000Y-111887500D03*
X137223000Y-113612500D03*
D17*
X95500000Y-82662500D03*
X95500000Y-80837500D03*
D18*
X98675000Y-77900000D03*
D19*
X98675000Y-75360000D03*
D20*
X101215000Y-77900000D03*
D19*
X101215000Y-75360000D03*
X103755000Y-77900000D03*
X103755000Y-75360000D03*
X106295000Y-77900000D03*
X106295000Y-75360000D03*
X108835000Y-77900000D03*
X108835000Y-75360000D03*
D21*
X155600000Y-87000000D03*
X155600000Y-88000000D03*
D22*
X157325000Y-87500000D03*
D23*
X156500000Y-87500000D03*
D24*
X156106250Y-92250000D03*
X154281250Y-92250000D03*
D16*
X176000000Y-116137500D03*
X176000000Y-117862500D03*
D25*
X203087500Y-95500000D03*
X204912500Y-95500000D03*
D26*
X146000000Y-95500000D03*
D13*
X181293750Y-98243750D03*
X181293750Y-100068750D03*
D27*
X190000000Y-83250000D03*
D28*
X123250000Y-87250000D03*
D29*
X164450000Y-73612500D03*
X163500000Y-73612500D03*
X162550000Y-73612500D03*
X162550000Y-75887500D03*
X163500000Y-75887500D03*
X164450000Y-75887500D03*
D25*
X167587500Y-74500000D03*
X169412500Y-74500000D03*
D26*
X111250000Y-97500000D03*
D13*
X169500000Y-70337500D03*
X169500000Y-72162500D03*
D16*
X142500000Y-77137500D03*
X142500000Y-78862500D03*
D30*
X146000000Y-104000000D03*
D14*
X177500000Y-93375000D03*
X177500000Y-91625000D03*
D13*
X140750000Y-111837500D03*
X140750000Y-113662500D03*
D21*
X148350000Y-87000000D03*
X148350000Y-88000000D03*
D22*
X150075000Y-87500000D03*
D23*
X149250000Y-87500000D03*
D30*
X111250000Y-99250000D03*
D31*
X154250000Y-87200000D03*
D32*
X154250000Y-84650000D03*
D24*
X118912500Y-94480000D03*
X117087500Y-94480000D03*
D25*
X190837500Y-103500000D03*
X192662500Y-103500000D03*
D14*
X113000000Y-68625000D03*
X113000000Y-66875000D03*
D33*
X154193750Y-89350000D03*
X154193750Y-90000000D03*
X154193750Y-90650000D03*
X156193750Y-90650000D03*
X156193750Y-90000000D03*
X156193750Y-89350000D03*
D14*
X119000000Y-68625000D03*
X119000000Y-66875000D03*
D10*
X118862500Y-105500000D03*
X117137500Y-105500000D03*
D34*
X128500000Y-87250000D03*
D30*
X146000000Y-116250000D03*
D10*
X173612500Y-107000000D03*
X171887500Y-107000000D03*
D13*
X154500000Y-70337500D03*
X154500000Y-72162500D03*
D17*
X117500000Y-68662500D03*
X117500000Y-66837500D03*
D35*
X169137500Y-103750000D03*
X170862500Y-103750000D03*
D36*
X142520000Y-66875000D03*
X142520000Y-68625000D03*
D37*
X112000000Y-81275000D03*
X112000000Y-82225000D03*
D38*
X203750000Y-90300000D03*
X203750000Y-91250000D03*
X203750000Y-92200000D03*
X206250000Y-92200000D03*
X206250000Y-91250000D03*
X206250000Y-90300000D03*
D26*
X146000000Y-114500000D03*
D20*
X170925000Y-123025000D03*
D19*
X170925000Y-120485000D03*
X173465000Y-123025000D03*
X173465000Y-120485000D03*
X176005000Y-123025000D03*
X176005000Y-120485000D03*
X178545000Y-123025000D03*
X178545000Y-120485000D03*
X181085000Y-123025000D03*
X181085000Y-120485000D03*
D39*
X87250000Y-70250000D03*
X94750000Y-70250000D03*
X87250000Y-75250000D03*
X94750000Y-75250000D03*
D30*
X111250000Y-111250000D03*
D35*
X190887500Y-99000000D03*
X192612500Y-99000000D03*
D16*
X193000000Y-116137500D03*
X193000000Y-117862500D03*
X185000000Y-91637500D03*
X185000000Y-93362500D03*
D17*
X110500000Y-82662500D03*
X110500000Y-80837500D03*
D40*
X182312500Y-117500000D03*
X179187500Y-117500000D03*
D30*
X111250000Y-106250000D03*
D16*
X161250000Y-96887500D03*
X161250000Y-98612500D03*
D30*
X146000000Y-121250000D03*
D16*
X201500000Y-91387500D03*
X201500000Y-93112500D03*
D10*
X123612500Y-94250000D03*
X121887500Y-94250000D03*
D17*
X157693750Y-91162500D03*
X157693750Y-89337500D03*
X114500000Y-68662500D03*
X114500000Y-66837500D03*
D34*
X138750000Y-87250000D03*
D17*
X164250000Y-98662500D03*
X164250000Y-96837500D03*
D26*
X146000000Y-123000000D03*
D37*
X109000000Y-81275000D03*
X109000000Y-82225000D03*
D34*
X135250000Y-87250000D03*
D41*
X195500000Y-92850000D03*
X195500000Y-87150000D03*
D11*
X97501000Y-112455000D03*
X97501000Y-104045000D03*
X101997000Y-112455000D03*
X101997000Y-104045000D03*
D12*
X99749000Y-104045000D03*
D25*
X190837500Y-100500000D03*
X192662500Y-100500000D03*
D10*
X118862500Y-98750000D03*
X117137500Y-98750000D03*
D24*
X131412500Y-119250000D03*
X129587500Y-119250000D03*
D16*
X202274000Y-100224500D03*
X202274000Y-101949500D03*
D25*
X194337500Y-100000000D03*
X196162500Y-100000000D03*
D40*
X197812500Y-117500000D03*
X194687500Y-117500000D03*
D28*
X139000000Y-123000000D03*
D42*
X181250000Y-92700000D03*
X181250000Y-86300000D03*
D34*
X140750000Y-123000000D03*
D28*
X126750000Y-87250000D03*
D25*
X203837500Y-102250000D03*
X205662500Y-102250000D03*
D30*
X111250000Y-102750000D03*
D43*
X200438000Y-105700000D03*
X200438000Y-105050000D03*
X200438000Y-104400000D03*
X200438000Y-103750000D03*
X200438000Y-103100000D03*
X200438000Y-102450000D03*
X200438000Y-101800000D03*
X194562000Y-101800000D03*
X194562000Y-102450000D03*
X194562000Y-103100000D03*
X194562000Y-103750000D03*
X194562000Y-104400000D03*
X194562000Y-105050000D03*
X194562000Y-105700000D03*
D44*
X197500000Y-103750000D03*
D17*
X101500000Y-82662500D03*
X101500000Y-80837500D03*
D14*
X145500000Y-78875000D03*
X145500000Y-77125000D03*
D45*
X132050000Y-79500000D03*
X133950000Y-79500000D03*
X133000000Y-76500000D03*
D34*
X121500000Y-87250000D03*
D16*
X191500000Y-116137500D03*
X191500000Y-117862500D03*
D37*
X106000000Y-81275000D03*
X106000000Y-82225000D03*
D27*
X157500000Y-85000000D03*
D24*
X154412500Y-76000000D03*
X152587500Y-76000000D03*
D46*
X195375000Y-115500000D03*
X197125000Y-115500000D03*
D15*
X201500000Y-85937500D03*
X201500000Y-89062500D03*
D25*
X208087500Y-92250000D03*
X209912500Y-92250000D03*
D17*
X159750000Y-98662500D03*
X159750000Y-96837500D03*
D37*
X103000000Y-81275000D03*
X103000000Y-82225000D03*
D13*
X124000000Y-79587500D03*
X124000000Y-81412500D03*
D10*
X118862500Y-100250000D03*
X117137500Y-100250000D03*
D47*
X166475000Y-71110000D03*
X165625000Y-71110000D03*
X164775000Y-71110000D03*
X163925000Y-71110000D03*
X163075000Y-71110000D03*
X162225000Y-71110000D03*
X161375000Y-71110000D03*
X160525000Y-71110000D03*
X160525000Y-69760000D03*
X161375000Y-69760000D03*
X162225000Y-69760000D03*
X163075000Y-69760000D03*
X163925000Y-69760000D03*
X164775000Y-69760000D03*
X165625000Y-69760000D03*
X166475000Y-69760000D03*
D48*
X167825000Y-66750000D03*
X159175000Y-66750000D03*
D49*
X167825000Y-70130000D03*
X159175000Y-70130000D03*
D10*
X125612500Y-92750000D03*
X123887500Y-92750000D03*
D33*
X146943750Y-89350000D03*
X146943750Y-90000000D03*
X146943750Y-90650000D03*
X148943750Y-90650000D03*
X148943750Y-90000000D03*
X148943750Y-89350000D03*
D20*
X99400000Y-123000000D03*
D19*
X101940000Y-123000000D03*
X104480000Y-123000000D03*
X107020000Y-123000000D03*
X109560000Y-123000000D03*
X112100000Y-123000000D03*
D26*
X111250000Y-109500000D03*
D47*
X151475000Y-71110000D03*
X150625000Y-71110000D03*
X149775000Y-71110000D03*
X148925000Y-71110000D03*
X148075000Y-71110000D03*
X147225000Y-71110000D03*
X146375000Y-71110000D03*
X145525000Y-71110000D03*
X145525000Y-69760000D03*
X146375000Y-69760000D03*
X147225000Y-69760000D03*
X148075000Y-69760000D03*
X148925000Y-69760000D03*
X149775000Y-69760000D03*
X150625000Y-69760000D03*
X151475000Y-69760000D03*
D48*
X152825000Y-66750000D03*
X144175000Y-66750000D03*
D49*
X152825000Y-70130000D03*
X144175000Y-70130000D03*
D27*
X188500000Y-93250000D03*
D24*
X152662500Y-102500000D03*
X150837500Y-102500000D03*
D14*
X186250000Y-68625000D03*
X186250000Y-66875000D03*
X169500000Y-68625000D03*
X169500000Y-66875000D03*
D50*
X169750000Y-110790000D03*
X169750000Y-109520000D03*
X169750000Y-108250000D03*
X169750000Y-106980000D03*
X169750000Y-105710000D03*
D51*
X163750000Y-108250000D03*
D37*
X100000000Y-81275000D03*
X100000000Y-82225000D03*
D24*
X118912500Y-93000000D03*
X117087500Y-93000000D03*
D28*
X133500000Y-87250000D03*
X134000000Y-123000000D03*
D35*
X144137500Y-74250000D03*
X145862500Y-74250000D03*
D17*
X103999000Y-107412500D03*
X103999000Y-105587500D03*
D30*
X146000000Y-97250000D03*
D25*
X137337500Y-116500000D03*
X139162500Y-116500000D03*
D17*
X111500000Y-68662500D03*
X111500000Y-66837500D03*
D28*
X119750000Y-87250000D03*
D25*
X185587500Y-76250000D03*
X187412500Y-76250000D03*
D10*
X130612500Y-114250000D03*
X128887500Y-114250000D03*
D26*
X111250000Y-104500000D03*
D16*
X138777000Y-111887500D03*
X138777000Y-113612500D03*
D25*
X132087500Y-81500000D03*
X133912500Y-81500000D03*
D37*
X97000000Y-81275000D03*
X97000000Y-82225000D03*
D29*
X149450000Y-73612500D03*
X148500000Y-73612500D03*
X147550000Y-73612500D03*
X147550000Y-75887500D03*
X148500000Y-75887500D03*
X149450000Y-75887500D03*
D13*
X130500000Y-79587500D03*
X130500000Y-81412500D03*
D45*
X185550000Y-74250000D03*
X187450000Y-74250000D03*
X186500000Y-71250000D03*
D26*
X111250000Y-101000000D03*
D13*
X163000000Y-83587500D03*
X163000000Y-85412500D03*
D10*
X179406250Y-103906250D03*
X177681250Y-103906250D03*
D25*
X152587500Y-74500000D03*
X154412500Y-74500000D03*
D16*
X127250000Y-112887500D03*
X127250000Y-114612500D03*
D13*
X125750000Y-112837500D03*
X125750000Y-114662500D03*
D27*
X182000000Y-83250000D03*
D25*
X125587500Y-81500000D03*
X127412500Y-81500000D03*
D39*
X202250000Y-70250000D03*
X209750000Y-70250000D03*
X202250000Y-75250000D03*
X209750000Y-75250000D03*
D20*
X186425000Y-123025000D03*
D19*
X186425000Y-120485000D03*
X188965000Y-123025000D03*
X188965000Y-120485000D03*
X191505000Y-123025000D03*
X191505000Y-120485000D03*
X194045000Y-123025000D03*
X194045000Y-120485000D03*
X196585000Y-123025000D03*
X196585000Y-120485000D03*
D52*
X166500000Y-98612500D03*
X166500000Y-96887500D03*
D35*
X139137500Y-94250000D03*
X140862500Y-94250000D03*
D13*
X104000000Y-96337500D03*
X104000000Y-98162500D03*
D27*
X189000000Y-112250000D03*
D25*
X185587500Y-77750000D03*
X187412500Y-77750000D03*
D10*
X121314500Y-108500000D03*
X119589500Y-108500000D03*
D24*
X118912500Y-104000000D03*
X117087500Y-104000000D03*
D10*
X179406250Y-97906250D03*
X177681250Y-97906250D03*
D30*
X111250000Y-94250000D03*
D24*
X148856250Y-92250000D03*
X147031250Y-92250000D03*
D45*
X119050000Y-79500000D03*
X120950000Y-79500000D03*
X120000000Y-76500000D03*
D20*
X115025000Y-76750000D03*
D19*
X112485000Y-76750000D03*
D10*
X135612500Y-112750000D03*
X133887500Y-112750000D03*
D28*
X137000000Y-87250000D03*
D27*
X179543750Y-106192250D03*
D14*
X171100000Y-68625000D03*
X171100000Y-66875000D03*
D17*
X98500000Y-82662500D03*
X98500000Y-80837500D03*
D53*
X128027500Y-68854500D03*
X123527500Y-68854500D03*
D54*
X129282500Y-71344500D03*
X122272500Y-71344500D03*
D28*
X140500000Y-87250000D03*
D17*
X141000000Y-68662500D03*
X141000000Y-66837500D03*
D25*
X141337500Y-97250000D03*
X143162500Y-97250000D03*
D13*
X145443750Y-89337500D03*
X145443750Y-91162500D03*
D31*
X177500000Y-88200000D03*
D32*
X177500000Y-85650000D03*
D27*
X159750000Y-113250000D03*
D55*
X125000000Y-109925000D03*
X125500000Y-109925000D03*
X126000000Y-109925000D03*
X126500000Y-109925000D03*
X127000000Y-109925000D03*
X127500000Y-109925000D03*
X128000000Y-109925000D03*
X128500000Y-109925000D03*
X129000000Y-109925000D03*
X129500000Y-109925000D03*
X130000000Y-109925000D03*
X130500000Y-109925000D03*
X131000000Y-109925000D03*
X131500000Y-109925000D03*
X132000000Y-109925000D03*
X132500000Y-109925000D03*
X133000000Y-109925000D03*
X133500000Y-109925000D03*
X134000000Y-109925000D03*
X134500000Y-109925000D03*
X135000000Y-109925000D03*
X135500000Y-109925000D03*
X136000000Y-109925000D03*
X136500000Y-109925000D03*
X137000000Y-109925000D03*
D56*
X138675000Y-108250000D03*
X138675000Y-107750000D03*
X138675000Y-107250000D03*
X138675000Y-106750000D03*
X138675000Y-106250000D03*
X138675000Y-105750000D03*
X138675000Y-105250000D03*
X138675000Y-104750000D03*
X138675000Y-104250000D03*
X138675000Y-103750000D03*
X138675000Y-103250000D03*
X138675000Y-102750000D03*
X138675000Y-102250000D03*
X138675000Y-101750000D03*
X138675000Y-101250000D03*
X138675000Y-100750000D03*
X138675000Y-100250000D03*
X138675000Y-99750000D03*
X138675000Y-99250000D03*
X138675000Y-98750000D03*
X138675000Y-98250000D03*
X138675000Y-97750000D03*
X138675000Y-97250000D03*
X138675000Y-96750000D03*
X138675000Y-96250000D03*
D55*
X137000000Y-94575000D03*
X136500000Y-94575000D03*
X136000000Y-94575000D03*
X135500000Y-94575000D03*
X135000000Y-94575000D03*
X134500000Y-94575000D03*
X134000000Y-94575000D03*
X133500000Y-94575000D03*
X133000000Y-94575000D03*
X132500000Y-94575000D03*
X132000000Y-94575000D03*
X131500000Y-94575000D03*
X131000000Y-94575000D03*
X130500000Y-94575000D03*
X130000000Y-94575000D03*
X129500000Y-94575000D03*
X129000000Y-94575000D03*
X128500000Y-94575000D03*
X128000000Y-94575000D03*
X127500000Y-94575000D03*
X127000000Y-94575000D03*
X126500000Y-94575000D03*
X126000000Y-94575000D03*
X125500000Y-94575000D03*
X125000000Y-94575000D03*
D56*
X123325000Y-96250000D03*
X123325000Y-96750000D03*
X123325000Y-97250000D03*
X123325000Y-97750000D03*
X123325000Y-98250000D03*
X123325000Y-98750000D03*
X123325000Y-99250000D03*
X123325000Y-99750000D03*
X123325000Y-100250000D03*
X123325000Y-100750000D03*
X123325000Y-101250000D03*
X123325000Y-101750000D03*
X123325000Y-102250000D03*
X123325000Y-102750000D03*
X123325000Y-103250000D03*
X123325000Y-103750000D03*
X123325000Y-104250000D03*
X123325000Y-104750000D03*
X123325000Y-105250000D03*
X123325000Y-105750000D03*
X123325000Y-106250000D03*
X123325000Y-106750000D03*
X123325000Y-107250000D03*
X123325000Y-107750000D03*
X123325000Y-108250000D03*
D57*
X207770000Y-107750000D03*
X203730000Y-107750000D03*
D17*
X156000000Y-68662500D03*
X156000000Y-66837500D03*
D45*
X125550000Y-79500000D03*
X127450000Y-79500000D03*
X126500000Y-76500000D03*
D30*
X146000000Y-109250000D03*
D35*
X141387500Y-95750000D03*
X143112500Y-95750000D03*
D16*
X159000000Y-77137500D03*
X159000000Y-78862500D03*
D13*
X152693750Y-89337500D03*
X152693750Y-91162500D03*
D16*
X200000000Y-91387500D03*
X200000000Y-93112500D03*
D20*
X194775000Y-79250000D03*
D19*
X192235000Y-79250000D03*
D17*
X157500000Y-72162500D03*
X157500000Y-70337500D03*
D28*
X142500000Y-123000000D03*
D16*
X144000000Y-77137500D03*
X144000000Y-78862500D03*
D30*
X111272000Y-114750000D03*
D16*
X166750000Y-83637500D03*
X166750000Y-85362500D03*
D10*
X135612500Y-114750000D03*
X133887500Y-114750000D03*
D16*
X177500000Y-116137500D03*
X177500000Y-117862500D03*
X181293750Y-101793750D03*
X181293750Y-103518750D03*
D25*
X119087500Y-81500000D03*
X120912500Y-81500000D03*
D53*
X137777500Y-68854500D03*
X133277500Y-68854500D03*
D54*
X139032500Y-71344500D03*
X132022500Y-71344500D03*
D10*
X130612500Y-112750000D03*
X128887500Y-112750000D03*
D35*
X204137500Y-88500000D03*
X205862500Y-88500000D03*
D17*
X187750000Y-68662500D03*
X187750000Y-66837500D03*
D35*
X159137500Y-74250000D03*
X160862500Y-74250000D03*
D17*
X104500000Y-82662500D03*
X104500000Y-80837500D03*
D20*
X177225000Y-79250000D03*
D19*
X179765000Y-79250000D03*
D17*
X107500000Y-82662500D03*
X107500000Y-80837500D03*
D35*
X198637500Y-111000000D03*
X200362500Y-111000000D03*
D26*
X146000000Y-107500000D03*
D24*
X152662500Y-100990000D03*
X150837500Y-100990000D03*
D31*
X147000000Y-87050000D03*
D32*
X147000000Y-84500000D03*
D18*
X86975000Y-101175000D03*
D19*
X89515000Y-101175000D03*
D20*
X86975000Y-103715000D03*
D19*
X89515000Y-103715000D03*
X86975000Y-106255000D03*
X89515000Y-106255000D03*
X86975000Y-108795000D03*
X89515000Y-108795000D03*
X86975000Y-111335000D03*
X89515000Y-111335000D03*
D16*
X141250000Y-107387500D03*
X141250000Y-109112500D03*
D17*
X142500000Y-72162500D03*
X142500000Y-70337500D03*
D25*
X206087500Y-93800000D03*
X207912500Y-93800000D03*
D26*
X111272000Y-113000000D03*
D16*
X190250000Y-107637500D03*
X190250000Y-109362500D03*
D20*
X118400000Y-123000000D03*
D19*
X120940000Y-123000000D03*
X123480000Y-123000000D03*
X126020000Y-123000000D03*
X128560000Y-123000000D03*
X131100000Y-123000000D03*
D36*
X157520000Y-66875000D03*
X157520000Y-68625000D03*
D16*
X132250000Y-112887500D03*
X132250000Y-114612500D03*
D17*
X150443750Y-91162500D03*
X150443750Y-89337500D03*
D13*
X103999000Y-109087500D03*
X103999000Y-110912500D03*
X117500000Y-79587500D03*
X117500000Y-81412500D03*
D34*
X135750000Y-123000000D03*
D16*
X157500000Y-77137500D03*
X157500000Y-78862500D03*
D26*
X146000000Y-111000000D03*
D24*
X152662500Y-99500000D03*
X150837500Y-99500000D03*
D27*
X150250000Y-85000000D03*
D58*
X195350000Y-108500000D03*
X199650000Y-108500000D03*
D20*
X87000000Y-95850000D03*
D19*
X87000000Y-93310000D03*
X87000000Y-90770000D03*
X87000000Y-88230000D03*
X87000000Y-85690000D03*
X87000000Y-83150000D03*
D52*
X168250000Y-85362500D03*
X168250000Y-83637500D03*
D17*
X162750000Y-98662500D03*
X162750000Y-96837500D03*
D25*
X169087500Y-112750000D03*
X170912500Y-112750000D03*
D59*
X161525000Y-94850000D03*
X162175000Y-94850000D03*
X162825000Y-94850000D03*
X163475000Y-94850000D03*
X164125000Y-94850000D03*
X164775000Y-94850000D03*
X165425000Y-94850000D03*
X166075000Y-94850000D03*
X166725000Y-94850000D03*
X167375000Y-94850000D03*
X168025000Y-94850000D03*
X168675000Y-94850000D03*
X169325000Y-94850000D03*
X169975000Y-94850000D03*
X169975000Y-87650000D03*
X169325000Y-87650000D03*
X168675000Y-87650000D03*
X168025000Y-87650000D03*
X167375000Y-87650000D03*
X166725000Y-87650000D03*
X166075000Y-87650000D03*
X165425000Y-87650000D03*
X164775000Y-87650000D03*
X164125000Y-87650000D03*
X163475000Y-87650000D03*
X162825000Y-87650000D03*
X162175000Y-87650000D03*
X161525000Y-87650000D03*
D35*
X171887500Y-109500000D03*
X173612500Y-109500000D03*
D17*
X104000000Y-94662500D03*
X104000000Y-92837500D03*
D24*
X127912500Y-119250000D03*
X126087500Y-119250000D03*
X192662500Y-102000000D03*
X190837500Y-102000000D03*
D14*
X160500000Y-78875000D03*
X160500000Y-77125000D03*
D24*
X169912500Y-96750000D03*
X168087500Y-96750000D03*
D60*
X179550000Y-99400000D03*
X178600000Y-99400000D03*
X177650000Y-99400000D03*
X177650000Y-102400000D03*
X178600000Y-102400000D03*
X179550000Y-102400000D03*
D61*
X178600000Y-100900000D03*
D24*
X169412500Y-76000000D03*
X167587500Y-76000000D03*
D18*
X151675000Y-123025000D03*
D19*
X151675000Y-120485000D03*
D20*
X154215000Y-123025000D03*
D19*
X154215000Y-120485000D03*
X156755000Y-123025000D03*
X156755000Y-120485000D03*
X159295000Y-123025000D03*
X159295000Y-120485000D03*
X161835000Y-123025000D03*
X161835000Y-120485000D03*
D46*
X179875000Y-115500000D03*
X181625000Y-115500000D03*
D26*
X146000000Y-118000000D03*
D24*
X118912500Y-96000000D03*
X117087500Y-96000000D03*
D20*
X167525000Y-116250000D03*
D19*
X164985000Y-116250000D03*
D62*
X209499500Y-122250000D03*
D63*
X202499500Y-122250000D03*
X202499500Y-117250000D03*
X209499500Y-117250000D03*
D62*
X94499500Y-122250000D03*
D63*
X87499500Y-122250000D03*
X87499500Y-117250000D03*
X94499500Y-117250000D03*
M02*
