M48
; DRILL file {KiCad 8.0.4} date 2024-08-23T16:04:36+0200
; FORMAT={-:-/ absolute / metric / decimal}
; #@! TF.CreationDate,2024-08-23T16:04:36+02:00
; #@! TF.GenerationSoftware,Kicad,Pcbnew,8.0.4
; #@! TF.FileFunction,Plated,1,4,PTH
FMAT,2
METRIC
; #@! TA.AperFunction,Plated,PTH,ViaDrill
T1C0.300
; #@! TA.AperFunction,Plated,PTH,ComponentDrill
T2C0.400
; #@! TA.AperFunction,Plated,PTH,ComponentDrill
T3C0.600
; #@! TA.AperFunction,Plated,PTH,ComponentDrill
T4C0.990
; #@! TA.AperFunction,Plated,PTH,ComponentDrill
T5C1.000
; #@! TA.AperFunction,Plated,PTH,ComponentDrill
T6C1.300
; #@! TA.AperFunction,Plated,PTH,ComponentDrill
T7C1.850
; #@! TA.AperFunction,Plated,PTH,ComponentDrill
T8C1.950
%
G90
G05
T1
X86.75Y-98.25
X86.75Y-113.75
X87.5Y-79.5
X88.75Y-86.0
X88.75Y-90.25
X88.75Y-93.25
X89.25Y-95.0
X89.25Y-97.0
X90.25Y-80.0
X91.25Y-104.75
X91.5Y-83.0
X91.75Y-107.75
X92.25Y-113.5
X92.75Y-79.75
X94.5Y-90.75
X94.744Y-101.309
X94.75Y-97.5
X94.75Y-105.25
X95.0Y-95.5
X95.185Y-108.309
X95.5Y-83.75
X95.999Y-91.25
X95.999Y-99.75
X95.999Y-104.0
X95.999Y-112.5
X97.0Y-79.75
X97.0Y-83.75
X97.499Y-102.0
X97.5Y-76.75
X98.5Y-83.75
X99.25Y-116.0
X99.25Y-120.0
X99.749Y-89.837
X99.749Y-102.5
X99.749Y-108.25
X99.75Y-95.5
X100.0Y-69.75
X100.0Y-79.75
X100.0Y-83.75
X101.25Y-72.75
X101.5Y-83.75
X101.999Y-101.75
X102.5Y-66.5
X103.0Y-79.75
X103.0Y-83.75
X103.75Y-72.75
X103.999Y-99.25
X103.999Y-112.25
X104.0Y-115.5
X104.0Y-118.75
X104.5Y-83.75
X104.749Y-90.25
X105.0Y-69.75
X105.25Y-74.25
X105.25Y-76.75
X105.5Y-105.412
X105.5Y-108.162
X105.5Y-121.25
X105.644Y-99.407
X105.644Y-102.777
X105.994Y-83.742
X105.999Y-94.0
X106.0Y-79.75
X106.25Y-96.25
X106.25Y-119.75
X106.5Y-72.75
X107.0Y-97.0
X107.5Y-66.5
X107.5Y-83.75
X107.75Y-106.25
X107.75Y-121.25
X108.5Y-91.75
X108.5Y-98.25
X108.5Y-101.0
X108.5Y-102.75
X109.0Y-79.75
X109.0Y-83.75
X109.25Y-72.5
X109.25Y-94.5
X109.5Y-105.25
X109.75Y-107.75
X109.75Y-110.75
X109.75Y-113.5
X109.75Y-117.5
X110.0Y-69.75
X110.0Y-121.25
X110.5Y-83.75
X111.253Y-74.672
X111.5Y-69.75
X111.5Y-84.75
X112.0Y-79.75
X112.0Y-83.75
X112.087Y-72.173
X113.0Y-92.0
X113.25Y-110.75
X113.75Y-81.25
X113.75Y-116.0
X113.75Y-119.75
X114.0Y-87.5
X114.5Y-69.75
X114.75Y-93.75
X115.0Y-108.75
X115.25Y-91.25
X115.25Y-123.25
X115.75Y-97.75
X116.0Y-98.75
X116.0Y-100.25
X116.0Y-104.0
X116.08Y-104.984
X117.0Y-76.25
X117.0Y-92.0
X117.25Y-83.0
X117.5Y-69.75
X117.5Y-86.0
X117.75Y-89.5
X117.75Y-91.5
X118.0Y-110.75
X118.25Y-116.0
X118.25Y-119.75
X118.5Y-108.5
X118.75Y-111.75
X119.75Y-88.75
X119.75Y-110.25
X120.25Y-101.0
X120.75Y-92.0
X121.0Y-77.75
X121.0Y-85.75
X121.0Y-111.25
X121.75Y-95.5
X121.75Y-101.25
X121.75Y-111.75
X122.0Y-100.5
X122.21Y-81.695
X122.25Y-79.0
X122.5Y-111.25
X122.5Y-116.0
X122.75Y-92.75
X122.75Y-95.5
X123.25Y-76.0
X123.5Y-95.25
X124.0Y-110.5
X124.25Y-84.0
X124.25Y-90.0
X124.5Y-113.75
X124.5Y-118.75
X124.75Y-96.25
X124.75Y-99.0
X124.75Y-102.75
X124.75Y-114.75
X124.75Y-120.5
X125.0Y-107.0
X125.423Y-90.25
X125.5Y-96.0
X125.5Y-98.0
X125.5Y-99.75
X125.5Y-100.5
X125.5Y-101.5
X125.5Y-102.25
X125.5Y-104.0
X125.5Y-108.25
X125.75Y-66.75
X126.0Y-117.0
X126.077Y-90.25
X126.5Y-96.0
X126.5Y-111.5
X126.5Y-118.0
X126.75Y-99.0
X127.0Y-90.75
X127.0Y-103.0
X127.0Y-108.5
X127.25Y-104.5
X127.5Y-77.75
X127.5Y-85.75
X127.5Y-116.0
X127.75Y-96.5
X127.75Y-98.0
X127.75Y-107.5
X128.0Y-108.5
X128.0Y-120.5
X128.276Y-116.851
X128.5Y-103.5
X128.5Y-111.5
X128.5Y-116.0
X128.702Y-81.673
X128.75Y-79.0
X128.75Y-84.0
X128.75Y-121.25
X129.0Y-108.5
X129.25Y-107.0
X129.25Y-111.5
X129.25Y-113.5
X129.25Y-116.0
X129.5Y-97.25
X129.5Y-98.75
X129.75Y-76.0
X129.75Y-103.0
X130.0Y-84.0
X130.0Y-107.5
X130.0Y-116.0
X130.5Y-84.75
X130.5Y-105.25
X130.75Y-96.25
X130.75Y-107.5
X130.75Y-111.5
X130.75Y-115.25
X131.0Y-121.25
X131.5Y-106.25
X132.25Y-97.0
X132.25Y-103.5
X132.25Y-105.25
X132.25Y-111.5
X132.5Y-98.75
X132.5Y-119.25
X133.0Y-97.5
X133.0Y-108.5
X133.0Y-111.5
X133.0Y-121.25
X133.75Y-111.5
X133.878Y-113.737
X134.0Y-77.75
X134.0Y-96.25
X134.0Y-99.0
X134.0Y-103.5
X134.0Y-105.25
X134.25Y-108.5
X134.5Y-82.75
X134.5Y-97.75
X134.5Y-111.75
X134.75Y-104.25
X134.75Y-118.75
X134.864Y-122.164
X135.0Y-124.5
X135.212Y-81.673
X135.25Y-96.75
X135.5Y-66.75
X135.5Y-79.0
X135.5Y-103.5
X135.5Y-105.25
X136.0Y-85.75
X136.0Y-108.5
X136.25Y-104.5
X136.325Y-113.591
X136.75Y-96.0
X136.75Y-98.75
X136.75Y-120.25
X136.839Y-114.939
X137.0Y-85.75
X137.0Y-103.5
X137.0Y-105.25
X137.25Y-97.5
X137.25Y-121.5
X137.25Y-124.0
X137.5Y-108.25
X138.0Y-91.75
X138.0Y-94.25
X138.25Y-74.25
X138.25Y-78.0
X138.25Y-115.0
X138.406Y-84.297
X138.5Y-109.0
X139.25Y-109.75
X139.75Y-112.75
X139.75Y-115.25
X140.0Y-116.5
X140.0Y-118.0
X140.25Y-74.25
X140.25Y-78.0
X140.5Y-104.75
X140.75Y-114.75
X141.0Y-70.0
X141.25Y-90.25
X141.25Y-110.25
X141.75Y-124.5
X142.0Y-94.25
X142.0Y-113.0
X142.25Y-104.75
X142.25Y-107.75
X142.5Y-76.0
X142.5Y-109.25
X142.529Y-73.093
X142.75Y-94.25
X142.75Y-111.25
X143.0Y-87.75
X143.25Y-84.25
X143.25Y-105.5
X143.5Y-91.75
X143.5Y-118.0
X144.0Y-75.25
X144.0Y-76.25
X144.0Y-89.75
X144.0Y-121.0
X144.25Y-73.0
X144.25Y-90.75
X144.25Y-95.75
X144.25Y-97.5
X144.25Y-114.25
X144.5Y-103.25
X144.5Y-124.0
X144.75Y-75.5
X145.0Y-78.0
X145.25Y-72.75
X145.437Y-92.76
X145.444Y-88.25
X145.75Y-75.5
X145.75Y-87.0
X146.0Y-112.25
X146.25Y-78.0
X146.25Y-79.244
X146.5Y-77.0
X146.75Y-73.505
X146.75Y-75.75
X147.0Y-104.75
X147.75Y-91.25
X147.75Y-107.0
X148.112Y-122.041
X148.2Y-72.5
X148.202Y-85.957
X148.25Y-82.672
X148.25Y-93.5
X148.5Y-72.0
X148.5Y-77.0
X148.5Y-96.0
X148.5Y-108.5
X148.75Y-124.0
X148.8Y-72.5
X148.922Y-81.75
X148.944Y-85.75
X148.944Y-88.55
X148.944Y-91.25
X149.0Y-74.75
X149.5Y-107.75
X149.5Y-111.75
X149.5Y-114.5
X149.5Y-119.0
X149.5Y-122.0
X149.75Y-74.75
X149.75Y-97.25
X149.944Y-92.25
X150.198Y-76.0
X150.25Y-72.75
X150.5Y-74.25
X150.5Y-75.0
X150.75Y-73.5
X151.25Y-73.0
X151.25Y-82.75
X151.25Y-103.75
X151.25Y-118.0
X151.5Y-89.25
X151.5Y-91.25
X151.5Y-96.0
X151.75Y-98.986
X152.0Y-73.25
X152.655Y-79.239
X152.694Y-88.25
X152.75Y-118.0
X153.0Y-87.0
X153.0Y-97.25
X153.0Y-105.0
X153.25Y-118.75
X153.75Y-82.25
X154.48Y-80.75
X154.5Y-66.0
X154.5Y-67.5
X154.75Y-96.0
X154.75Y-118.0
X155.0Y-91.25
X155.25Y-79.25
X155.432Y-85.981
X155.75Y-73.25
X155.75Y-74.5
X155.75Y-76.75
X155.75Y-98.5
X155.778Y-119.373
X155.905Y-70.494
X156.0Y-118.0
X156.194Y-85.75
X156.194Y-88.55
X156.194Y-91.25
X156.25Y-84.67
X156.25Y-93.5
X157.194Y-92.25
X157.5Y-74.0
X157.5Y-76.0
X157.5Y-82.75
X157.652Y-73.263
X158.0Y-96.0
X158.0Y-98.5
X158.0Y-103.75
X158.0Y-107.75
X158.25Y-115.0
X158.5Y-81.0
X158.5Y-86.5
X158.75Y-91.25
X159.0Y-75.25
X159.0Y-76.25
X159.0Y-93.75
X159.0Y-111.25
X159.25Y-73.0
X159.295Y-118.0
X159.5Y-84.75
X159.5Y-88.75
X159.75Y-75.5
X159.75Y-78.0
X159.75Y-82.75
X159.75Y-101.5
X160.25Y-72.75
X160.25Y-105.0
X160.5Y-86.5
X160.684Y-115.995
X160.75Y-75.5
X160.75Y-81.0
X161.25Y-78.0
X161.25Y-79.25
X161.25Y-106.25
X161.25Y-107.5
X161.25Y-109.0
X161.5Y-77.0
X161.5Y-113.25
X161.737Y-84.733
X161.75Y-73.628
X161.75Y-75.75
X161.75Y-89.5
X161.75Y-91.25
X161.75Y-93.0
X162.0Y-82.75
X162.0Y-105.0
X162.0Y-107.0
X162.0Y-108.25
X162.0Y-109.5
X162.0Y-110.5
X162.0Y-111.5
X162.001Y-105.989
X162.75Y-100.5
X162.75Y-103.75
X163.0Y-81.0
X163.0Y-82.75
X163.0Y-105.0
X163.0Y-106.0
X163.0Y-110.5
X163.0Y-111.5
X163.2Y-72.5
X163.475Y-96.0
X163.5Y-72.0
X163.5Y-77.0
X163.75Y-89.5
X163.75Y-91.25
X163.75Y-93.0
X163.75Y-107.5
X163.75Y-109.0
X163.75Y-112.25
X163.8Y-72.5
X164.0Y-74.75
X164.0Y-105.0
X164.0Y-106.0
X164.0Y-110.5
X164.0Y-111.5
X164.25Y-102.25
X164.5Y-82.75
X164.5Y-104.25
X164.75Y-74.75
X165.0Y-105.0
X165.0Y-106.0
X165.0Y-110.5
X165.0Y-111.5
X165.0Y-120.0
X165.0Y-123.0
X165.206Y-76.011
X165.25Y-72.75
X165.25Y-78.0
X165.25Y-96.75
X165.5Y-74.25
X165.5Y-75.0
X165.5Y-98.5
X165.5Y-107.0
X165.5Y-108.25
X165.5Y-109.5
X165.75Y-73.5
X165.75Y-85.5
X165.75Y-89.5
X165.75Y-91.25
X165.75Y-93.0
X166.0Y-101.0
X166.0Y-106.0
X166.0Y-107.5
X166.0Y-109.0
X166.0Y-110.5
X166.25Y-73.0
X166.5Y-74.5
X166.5Y-107.0
X166.5Y-108.25
X166.5Y-109.5
X166.75Y-82.0
X167.0Y-73.25
X167.0Y-78.0
X167.0Y-106.0
X167.0Y-110.5
X167.5Y-107.0
X167.5Y-108.25
X167.5Y-109.5
X167.5Y-120.0
X167.5Y-123.0
X167.687Y-79.218
X167.75Y-89.5
X167.75Y-91.25
X167.75Y-93.0
X168.0Y-103.75
X168.0Y-106.0
X168.0Y-107.5
X168.0Y-109.0
X168.0Y-110.5
X168.25Y-82.0
X168.6Y-79.25
X168.75Y-98.25
X169.514Y-80.073
X169.75Y-89.5
X169.75Y-91.25
X169.75Y-93.0
X170.0Y-99.75
X170.25Y-65.5
X170.45Y-78.9
X170.45Y-80.5
X170.5Y-71.0
X170.75Y-75.25
X170.75Y-77.5
X171.0Y-84.75
X171.0Y-101.5
X171.344Y-82.75
X171.5Y-108.25
X171.75Y-97.25
X171.75Y-117.0
X171.887Y-105.469
X172.0Y-81.25
X172.0Y-87.0
X172.0Y-89.25
X172.0Y-91.75
X172.0Y-99.5
X172.25Y-84.75
X172.25Y-94.5
X172.25Y-108.25
X172.5Y-82.75
X172.75Y-70.0
X172.75Y-73.75
X172.75Y-78.25
X173.5Y-66.25
X173.5Y-68.0
X174.5Y-79.0
X174.75Y-77.5
X174.75Y-84.75
X174.75Y-87.5
X174.75Y-91.25
X174.75Y-99.5
X174.75Y-107.0
X174.75Y-109.5
X175.0Y-82.75
X175.0Y-89.5
X175.0Y-93.5
X175.0Y-96.25
X175.75Y-106.5
X176.0Y-86.25
X176.0Y-88.5
X176.0Y-114.75
X176.25Y-67.0
X176.5Y-84.75
X176.5Y-99.0
X176.5Y-100.0
X176.5Y-101.75
X176.5Y-102.75
X176.544Y-97.906
X177.0Y-82.25
X177.25Y-76.25
X177.25Y-100.5
X177.257Y-101.307
X177.5Y-114.75
X177.924Y-95.063
X178.0Y-100.5
X178.0Y-101.25
X178.25Y-107.5
X178.75Y-100.5
X178.75Y-101.25
X179.0Y-86.0
X179.0Y-87.5
X179.0Y-88.75
X179.25Y-85.0
X179.5Y-100.5
X179.5Y-101.25
X179.5Y-111.25
X180.25Y-88.75
X180.25Y-89.75
X180.25Y-90.75
X180.25Y-99.75
X180.25Y-100.5
X180.25Y-101.25
X180.388Y-76.086
X180.5Y-108.0
X181.25Y-67.0
X181.25Y-84.75
X181.294Y-104.656
X182.0Y-96.25
X182.25Y-88.75
X182.25Y-89.75
X182.25Y-90.75
X182.25Y-108.25
X182.544Y-101.656
X183.0Y-115.5
X183.25Y-80.5
X183.5Y-85.25
X183.5Y-86.25
X183.5Y-87.5
X183.75Y-103.5
X183.75Y-116.75
X183.75Y-117.5
X183.75Y-118.25
X184.0Y-97.5
X184.25Y-84.75
X184.744Y-101.957
X184.744Y-106.216
X185.0Y-86.0
X185.0Y-95.5
X185.0Y-99.0
X185.25Y-112.25
X186.25Y-87.5
X186.75Y-103.75
X186.986Y-100.948
X187.0Y-82.75
X187.0Y-84.75
X187.0Y-116.75
X187.25Y-94.25
X187.25Y-109.5
X187.5Y-72.5
X187.838Y-97.922
X188.0Y-80.5
X188.5Y-72.25
X188.5Y-85.75
X188.75Y-67.75
X188.75Y-74.25
X188.75Y-76.25
X189.25Y-109.5
X189.676Y-114.309
X189.75Y-87.5
X189.75Y-102.0
X190.0Y-106.5
X190.75Y-105.5
X190.75Y-106.5
X191.0Y-67.0
X191.0Y-75.0
X191.0Y-90.25
X191.0Y-93.75
X191.75Y-105.25
X192.0Y-114.75
X192.25Y-84.25
X192.25Y-112.75
X192.75Y-110.75
X193.0Y-105.25
X193.25Y-76.25
X193.25Y-96.25
X193.5Y-106.0
X193.5Y-114.75
X194.0Y-106.5
X194.25Y-83.5
X194.421Y-81.745
X194.75Y-110.75
X195.0Y-106.5
X195.75Y-84.75
X195.75Y-114.0
X195.999Y-106.005
X196.0Y-102.0
X196.0Y-103.0
X196.0Y-104.0
X196.0Y-105.0
X196.25Y-67.0
X196.25Y-75.0
X196.25Y-96.25
X196.5Y-101.5
X196.5Y-102.5
X196.5Y-103.5
X196.5Y-104.5
X196.5Y-105.5
X196.75Y-111.75
X197.0Y-102.0
X197.0Y-103.0
X197.0Y-104.0
X197.0Y-105.0
X197.0Y-106.0
X197.5Y-101.5
X197.5Y-102.5
X197.5Y-103.5
X197.5Y-104.5
X197.5Y-105.5
X197.75Y-84.5
X197.999Y-106.005
X198.0Y-82.5
X198.0Y-91.75
X198.0Y-92.5
X198.0Y-102.0
X198.0Y-103.0
X198.0Y-104.0
X198.0Y-105.0
X198.25Y-98.0
X198.5Y-101.5
X198.5Y-102.5
X198.5Y-103.5
X198.5Y-104.5
X198.5Y-105.5
X198.999Y-106.005
X199.0Y-102.0
X199.0Y-103.0
X199.0Y-104.0
X199.0Y-105.0
X199.25Y-96.25
X199.25Y-113.75
X199.25Y-116.75
X199.25Y-117.5
X199.25Y-118.25
X199.5Y-82.75
X199.5Y-84.25
X199.5Y-120.5
X200.0Y-87.25
X200.0Y-88.0
X200.0Y-88.75
X200.0Y-89.5
X200.0Y-90.25
X200.25Y-94.5
X200.75Y-90.25
X201.0Y-98.5
X201.25Y-78.75
X201.5Y-87.5
X201.5Y-90.25
X201.5Y-95.5
X202.25Y-90.0
X202.5Y-90.75
X202.5Y-91.75
X202.5Y-94.25
X202.75Y-88.0
X202.75Y-88.75
X202.75Y-89.5
X203.25Y-84.75
X203.25Y-87.5
X203.25Y-112.75
X203.5Y-82.75
X203.75Y-94.25
X203.75Y-98.5
X203.83Y-89.27
X204.0Y-86.75
X204.25Y-80.0
X204.5Y-100.75
X204.75Y-84.75
X204.75Y-87.5
X205.0Y-89.5
X205.0Y-90.25
X205.5Y-86.75
X206.0Y-82.75
X206.25Y-84.75
X206.25Y-87.5
X206.25Y-113.75
X206.75Y-78.25
X207.0Y-88.0
X207.0Y-89.0
X207.0Y-102.25
X207.177Y-91.25
X207.177Y-95.427
X207.5Y-88.5
X207.5Y-89.5
X207.75Y-101.0
X208.0Y-85.75
X208.0Y-89.0
X208.25Y-95.0
X208.25Y-98.0
X208.5Y-89.5
X209.0Y-93.75
X209.25Y-80.0
X209.25Y-105.25
X209.25Y-107.75
X209.25Y-110.25
X209.406Y-83.203
X209.5Y-86.75
X210.0Y-102.75
X210.25Y-113.75
X210.5Y-99.25
X210.75Y-88.25
X211.0Y-106.25
X211.0Y-111.25
X211.25Y-90.25
X211.25Y-93.5
T2
X145.525Y-69.76
X145.525Y-71.11
X146.375Y-69.76
X146.375Y-71.11
X147.225Y-69.76
X147.225Y-71.11
X148.075Y-69.76
X148.075Y-71.11
X148.925Y-69.76
X148.925Y-71.11
X149.775Y-69.76
X149.775Y-71.11
X150.625Y-69.76
X150.625Y-71.11
X151.475Y-69.76
X151.475Y-71.11
X160.525Y-69.76
X160.525Y-71.11
X161.375Y-69.76
X161.375Y-71.11
X162.225Y-69.76
X162.225Y-71.11
X163.075Y-69.76
X163.075Y-71.11
X163.925Y-69.76
X163.925Y-71.11
X164.775Y-69.76
X164.775Y-71.11
X165.625Y-69.76
X165.625Y-71.11
X166.475Y-69.76
X166.475Y-71.11
T4
X123.527Y-68.855
X128.028Y-68.855
X133.278Y-68.855
X137.778Y-68.855
T5
X86.975Y-101.175
X86.975Y-103.715
X86.975Y-106.255
X86.975Y-108.795
X86.975Y-111.335
X87.0Y-83.15
X87.0Y-85.69
X87.0Y-88.23
X87.0Y-90.77
X87.0Y-93.31
X87.0Y-95.85
X89.515Y-101.175
X89.515Y-103.715
X89.515Y-106.255
X89.515Y-108.795
X89.515Y-111.335
X98.675Y-75.36
X98.675Y-77.9
X99.4Y-123.0
X101.215Y-75.36
X101.215Y-77.9
X101.94Y-123.0
X103.755Y-75.36
X103.755Y-77.9
X104.48Y-123.0
X106.295Y-75.36
X106.295Y-77.9
X107.02Y-123.0
X108.835Y-75.36
X108.835Y-77.9
X109.56Y-123.0
X112.1Y-123.0
X112.485Y-76.75
X115.025Y-76.75
X118.4Y-123.0
X120.94Y-123.0
X123.48Y-123.0
X126.02Y-123.0
X128.56Y-123.0
X131.1Y-123.0
X151.675Y-120.485
X151.675Y-123.025
X154.215Y-120.485
X154.215Y-123.025
X156.755Y-120.485
X156.755Y-123.025
X159.295Y-120.485
X159.295Y-123.025
X161.835Y-120.485
X161.835Y-123.025
X164.985Y-116.25
X167.525Y-116.25
X170.925Y-120.485
X170.925Y-123.025
X173.465Y-120.485
X173.465Y-123.025
X176.005Y-120.485
X176.005Y-123.025
X177.225Y-79.25
X178.545Y-120.485
X178.545Y-123.025
X179.765Y-79.25
X181.085Y-120.485
X181.085Y-123.025
X186.425Y-120.485
X186.425Y-123.025
X188.965Y-120.485
X188.965Y-123.025
X191.505Y-120.485
X191.505Y-123.025
X192.235Y-79.25
X194.045Y-120.485
X194.045Y-123.025
X194.775Y-79.25
X196.585Y-120.485
X196.585Y-123.025
T6
X122.272Y-71.344
X129.282Y-71.344
X132.023Y-71.344
X139.032Y-71.344
T7
X87.499Y-117.25
X87.499Y-122.25
X94.499Y-117.25
X94.499Y-122.25
X202.499Y-117.25
X202.499Y-122.25
X209.499Y-117.25
X209.499Y-122.25
T8
X87.25Y-70.25
X87.25Y-75.25
X94.75Y-70.25
X94.75Y-75.25
X202.25Y-70.25
X202.25Y-75.25
X209.75Y-70.25
X209.75Y-75.25
T3
X144.175Y-67.15G85X144.175Y-66.35
G05
X144.175Y-70.88G85X144.175Y-69.38
G05
X152.825Y-67.15G85X152.825Y-66.35
G05
X152.825Y-70.88G85X152.825Y-69.38
G05
X159.175Y-67.15G85X159.175Y-66.35
G05
X159.175Y-70.88G85X159.175Y-69.38
G05
X167.825Y-67.15G85X167.825Y-66.35
G05
X167.825Y-70.88G85X167.825Y-69.38
G05
M30
