%TF.GenerationSoftware,KiCad,Pcbnew,8.0.3*%
%TF.CreationDate,2024-06-24T09:54:49+02:00*%
%TF.ProjectId,Phase Amplitude Detector,50686173-6520-4416-9d70-6c6974756465,rev?*%
%TF.SameCoordinates,Original*%
%TF.FileFunction,Drillmap*%
%TF.FilePolarity,Positive*%
%FSLAX45Y45*%
G04 Gerber Fmt 4.5, Leading zero omitted, Abs format (unit mm)*
G04 Created by KiCad (PCBNEW 8.0.3) date 2024-06-24 09:54:49*
%MOMM*%
%LPD*%
G01*
G04 APERTURE LIST*
%ADD10C,0.050000*%
%ADD11C,0.200000*%
G04 APERTURE END LIST*
D10*
X14999384Y-4748884D02*
X5824384Y-4748884D01*
X15099384Y-7773884D02*
X15099384Y-4848884D01*
X15099384Y-7773884D02*
G75*
G02*
X14999384Y-7873884I-100004J4D01*
G01*
X5824384Y-7873884D02*
X14999384Y-7873884D01*
X5824384Y-7873884D02*
G75*
G02*
X5724376Y-7773884I-4J100004D01*
G01*
X5724384Y-4848884D02*
X5724384Y-7773884D01*
X5724384Y-4848884D02*
G75*
G02*
X5824384Y-4748884I99996J4D01*
G01*
X14999384Y-4748884D02*
G75*
G02*
X15099376Y-4848884I-4J-99996D01*
G01*
D11*
X5982661Y-8187868D02*
X5982661Y-7987868D01*
X5982661Y-7987868D02*
X6030280Y-7987868D01*
X6030280Y-7987868D02*
X6058851Y-7997392D01*
X6058851Y-7997392D02*
X6077899Y-8016439D01*
X6077899Y-8016439D02*
X6087423Y-8035487D01*
X6087423Y-8035487D02*
X6096946Y-8073582D01*
X6096946Y-8073582D02*
X6096946Y-8102153D01*
X6096946Y-8102153D02*
X6087423Y-8140249D01*
X6087423Y-8140249D02*
X6077899Y-8159296D01*
X6077899Y-8159296D02*
X6058851Y-8178344D01*
X6058851Y-8178344D02*
X6030280Y-8187868D01*
X6030280Y-8187868D02*
X5982661Y-8187868D01*
X6182661Y-8187868D02*
X6182661Y-8054534D01*
X6182661Y-8092630D02*
X6192184Y-8073582D01*
X6192184Y-8073582D02*
X6201708Y-8064058D01*
X6201708Y-8064058D02*
X6220756Y-8054534D01*
X6220756Y-8054534D02*
X6239804Y-8054534D01*
X6306470Y-8187868D02*
X6306470Y-8054534D01*
X6306470Y-7987868D02*
X6296946Y-7997392D01*
X6296946Y-7997392D02*
X6306470Y-8006915D01*
X6306470Y-8006915D02*
X6315994Y-7997392D01*
X6315994Y-7997392D02*
X6306470Y-7987868D01*
X6306470Y-7987868D02*
X6306470Y-8006915D01*
X6430280Y-8187868D02*
X6411232Y-8178344D01*
X6411232Y-8178344D02*
X6401708Y-8159296D01*
X6401708Y-8159296D02*
X6401708Y-7987868D01*
X6535042Y-8187868D02*
X6515994Y-8178344D01*
X6515994Y-8178344D02*
X6506470Y-8159296D01*
X6506470Y-8159296D02*
X6506470Y-7987868D01*
X6763613Y-8187868D02*
X6763613Y-7987868D01*
X6763613Y-7987868D02*
X6830280Y-8130725D01*
X6830280Y-8130725D02*
X6896946Y-7987868D01*
X6896946Y-7987868D02*
X6896946Y-8187868D01*
X7077899Y-8187868D02*
X7077899Y-8083106D01*
X7077899Y-8083106D02*
X7068375Y-8064058D01*
X7068375Y-8064058D02*
X7049327Y-8054534D01*
X7049327Y-8054534D02*
X7011232Y-8054534D01*
X7011232Y-8054534D02*
X6992184Y-8064058D01*
X7077899Y-8178344D02*
X7058851Y-8187868D01*
X7058851Y-8187868D02*
X7011232Y-8187868D01*
X7011232Y-8187868D02*
X6992184Y-8178344D01*
X6992184Y-8178344D02*
X6982661Y-8159296D01*
X6982661Y-8159296D02*
X6982661Y-8140249D01*
X6982661Y-8140249D02*
X6992184Y-8121201D01*
X6992184Y-8121201D02*
X7011232Y-8111677D01*
X7011232Y-8111677D02*
X7058851Y-8111677D01*
X7058851Y-8111677D02*
X7077899Y-8102153D01*
X7173137Y-8054534D02*
X7173137Y-8254534D01*
X7173137Y-8064058D02*
X7192184Y-8054534D01*
X7192184Y-8054534D02*
X7230280Y-8054534D01*
X7230280Y-8054534D02*
X7249327Y-8064058D01*
X7249327Y-8064058D02*
X7258851Y-8073582D01*
X7258851Y-8073582D02*
X7268375Y-8092630D01*
X7268375Y-8092630D02*
X7268375Y-8149772D01*
X7268375Y-8149772D02*
X7258851Y-8168820D01*
X7258851Y-8168820D02*
X7249327Y-8178344D01*
X7249327Y-8178344D02*
X7230280Y-8187868D01*
X7230280Y-8187868D02*
X7192184Y-8187868D01*
X7192184Y-8187868D02*
X7173137Y-8178344D01*
X7354089Y-8168820D02*
X7363613Y-8178344D01*
X7363613Y-8178344D02*
X7354089Y-8187868D01*
X7354089Y-8187868D02*
X7344565Y-8178344D01*
X7344565Y-8178344D02*
X7354089Y-8168820D01*
X7354089Y-8168820D02*
X7354089Y-8187868D01*
X7354089Y-8064058D02*
X7363613Y-8073582D01*
X7363613Y-8073582D02*
X7354089Y-8083106D01*
X7354089Y-8083106D02*
X7344565Y-8073582D01*
X7344565Y-8073582D02*
X7354089Y-8064058D01*
X7354089Y-8064058D02*
X7354089Y-8083106D01*
M02*
