M48
; DRILL file {KiCad 8.0.3} date 2024-06-24T09:54:49+0200
; FORMAT={-:-/ absolute / metric / decimal}
; #@! TF.CreationDate,2024-06-24T09:54:49+02:00
; #@! TF.GenerationSoftware,Kicad,Pcbnew,8.0.3
; #@! TF.FileFunction,Plated,1,4,PTH
FMAT,2
METRIC
; #@! TA.AperFunction,Plated,PTH,ViaDrill
T1C0.300
; #@! TA.AperFunction,Plated,PTH,ComponentDrill
T2C0.300
; #@! TA.AperFunction,Plated,PTH,ViaDrill
T3C0.600
; #@! TA.AperFunction,Plated,PTH,ComponentDrill
T4C1.000
%
G90
G05
T1
X61.0Y-51.25
X61.0Y-53.75
X61.0Y-64.0
X61.0Y-72.5
X61.0Y-75.0
X63.5Y-51.25
X63.5Y-53.75
X63.5Y-64.0
X63.5Y-72.5
X63.5Y-75.0
X66.0Y-51.25
X66.0Y-53.75
X66.0Y-72.5
X66.0Y-75.0
X67.25Y-73.75
X68.5Y-51.25
X68.5Y-53.75
X68.5Y-75.0
X69.75Y-73.75
X71.0Y-51.25
X71.0Y-53.75
X71.0Y-64.0
X71.0Y-75.0
X73.5Y-51.25
X73.5Y-64.0
X73.5Y-75.0
X76.0Y-51.25
X76.0Y-75.0
X76.994Y-58.739
X76.994Y-62.739
X76.994Y-65.239
X76.994Y-69.239
X77.25Y-73.75
X78.5Y-53.75
X78.5Y-75.0
X79.0Y-62.75
X79.0Y-65.25
X80.5Y-55.75
X80.75Y-67.5
X80.994Y-62.239
X80.994Y-65.739
X81.0Y-60.5
X81.0Y-72.5
X81.0Y-75.0
X81.744Y-62.989
X82.5Y-63.989
X82.5Y-67.25
X82.75Y-70.5
X82.845Y-58.01
X82.961Y-61.647
X83.5Y-56.75
X83.5Y-72.5
X83.5Y-75.0
X85.244Y-62.989
X85.494Y-54.489
X85.5Y-56.75
X85.5Y-59.25
X85.5Y-68.75
X85.75Y-62.5
X85.75Y-70.5
X85.75Y-73.25
X86.0Y-75.0
X86.744Y-58.239
X86.994Y-69.739
X87.494Y-70.489
X87.744Y-60.239
X87.744Y-63.239
X87.744Y-65.608
X87.744Y-67.739
X88.244Y-73.489
X88.25Y-76.0
X88.994Y-70.489
X89.244Y-73.489
X90.244Y-73.489
X90.744Y-54.489
X91.244Y-73.489
X91.744Y-54.489
X92.244Y-73.489
X92.25Y-74.75
X92.744Y-54.489
X92.75Y-70.0
X93.244Y-73.489
X93.744Y-54.489
X94.244Y-73.489
X94.25Y-74.75
X94.744Y-54.489
X95.244Y-73.489
X95.744Y-54.489
X96.244Y-73.489
X96.744Y-54.489
X97.244Y-73.489
X97.744Y-54.489
X98.244Y-73.489
X98.494Y-68.239
X98.744Y-54.489
X99.0Y-62.0
X99.244Y-68.239
X99.244Y-70.489
X99.244Y-73.489
X99.744Y-54.489
X100.244Y-69.489
X100.244Y-71.739
X100.75Y-56.75
X102.244Y-70.739
X102.744Y-57.489
X102.744Y-58.489
X102.744Y-59.489
X102.744Y-60.489
X102.744Y-61.489
X102.744Y-63.489
X102.744Y-64.489
X102.744Y-65.489
X102.744Y-66.489
X102.744Y-67.489
X102.744Y-68.489
X102.75Y-62.5
X106.994Y-67.739
X107.272Y-72.641
X108.494Y-66.739
X109.494Y-59.739
X109.494Y-66.739
X109.494Y-67.489
X109.744Y-57.739
X110.244Y-59.489
X110.244Y-60.489
X110.494Y-57.239
X110.494Y-68.989
X111.244Y-58.989
X111.244Y-68.739
X111.994Y-58.989
X111.994Y-68.989
X112.244Y-62.489
X112.244Y-63.489
X112.244Y-64.489
X112.244Y-65.489
X112.744Y-58.989
X112.744Y-62.989
X112.744Y-63.989
X112.744Y-64.989
X112.744Y-68.739
X112.994Y-70.489
X112.994Y-73.739
X113.244Y-62.489
X113.244Y-63.489
X113.244Y-64.489
X113.244Y-65.489
X113.5Y-50.25
X113.744Y-62.989
X113.744Y-63.989
X113.744Y-64.989
X114.244Y-62.489
X114.244Y-63.489
X114.244Y-64.489
X114.244Y-65.489
X114.596Y-68.937
X114.744Y-57.239
X114.744Y-58.239
X114.744Y-62.989
X114.744Y-63.989
X114.744Y-64.989
X114.994Y-71.739
X115.226Y-68.939
X115.244Y-62.489
X115.244Y-63.489
X115.244Y-64.489
X115.244Y-65.489
X115.744Y-58.989
X115.744Y-62.989
X115.744Y-63.989
X115.744Y-64.989
X116.244Y-62.489
X116.244Y-63.489
X116.244Y-64.489
X116.244Y-65.489
X116.494Y-58.989
X116.994Y-74.489
X117.244Y-58.989
X117.25Y-50.25
X117.994Y-56.239
X117.994Y-57.239
X118.244Y-72.239
X118.494Y-60.489
X118.5Y-51.25
X118.994Y-60.989
X119.244Y-57.239
X119.244Y-61.739
X119.244Y-66.239
X119.744Y-65.739
X119.994Y-64.989
X119.994Y-50.75
X120.223Y-64.392
X120.244Y-58.489
X120.244Y-62.989
X120.244Y-63.739
X120.494Y-52.739
X120.744Y-53.739
X120.994Y-54.489
X120.994Y-55.989
X120.994Y-57.989
X120.994Y-59.739
X120.994Y-61.239
X120.994Y-63.239
X121.0Y-70.25
X121.244Y-52.239
X121.25Y-69.25
X121.5Y-73.5
X121.744Y-67.739
X121.994Y-66.489
X122.0Y-72.25
X122.244Y-50.489
X122.244Y-56.739
X122.244Y-65.239
X122.75Y-68.25
X122.75Y-73.5
X123.244Y-50.489
X123.244Y-65.239
X124.0Y-67.0
X124.244Y-50.489
X124.75Y-66.0
X124.994Y-74.489
X125.244Y-65.239
X126.25Y-65.5
X126.25Y-68.5
X126.25Y-70.5
X126.25Y-72.5
X126.25Y-74.5
X126.994Y-51.239
X126.994Y-52.239
X127.244Y-63.239
X127.494Y-64.239
X127.588Y-61.02
X127.744Y-68.739
X127.744Y-72.239
X127.744Y-74.489
X127.75Y-66.75
X127.75Y-70.5
X128.0Y-54.25
X128.5Y-60.5
X128.744Y-59.739
X128.744Y-62.989
X129.0Y-64.5
X129.744Y-76.239
X130.244Y-63.989
X130.494Y-67.239
X130.744Y-55.989
X130.75Y-70.5
X131.494Y-58.989
X131.494Y-62.489
X132.494Y-59.989
X132.494Y-61.239
X132.75Y-75.5
X132.994Y-60.489
X132.994Y-61.814
X132.994Y-63.739
X132.994Y-64.489
X133.25Y-70.5
X133.744Y-66.489
X133.744Y-74.489
X133.994Y-57.489
X134.994Y-68.739
X135.744Y-74.489
X135.75Y-76.0
X136.0Y-65.5
X137.25Y-63.5
X137.433Y-56.12
X138.244Y-59.989
X138.244Y-61.739
X139.0Y-75.25
X139.494Y-56.239
X139.75Y-66.25
X139.75Y-70.489
X140.244Y-56.739
X141.244Y-62.464
X141.244Y-63.239
X141.244Y-64.239
X141.994Y-56.239
X141.994Y-69.489
X141.994Y-70.489
X141.994Y-71.489
X142.125Y-57.675
X142.244Y-58.739
X142.25Y-66.25
X142.25Y-75.0
X142.744Y-63.239
X143.244Y-56.989
X143.494Y-55.489
X143.75Y-73.25
X144.75Y-65.0
X144.75Y-75.0
X147.25Y-65.0
X147.25Y-67.5
T2
X90.094Y-60.839
X90.094Y-61.627
X90.094Y-62.414
X90.094Y-63.201
X90.094Y-63.989
X90.094Y-64.776
X90.094Y-65.564
X90.094Y-66.351
X90.094Y-67.138
X90.882Y-60.839
X90.882Y-61.627
X90.882Y-62.414
X90.882Y-63.201
X90.882Y-63.989
X90.882Y-64.776
X90.882Y-65.564
X90.882Y-66.351
X90.882Y-67.138
X91.669Y-60.839
X91.669Y-61.627
X91.669Y-62.414
X91.669Y-63.201
X91.669Y-63.989
X91.669Y-64.776
X91.669Y-65.564
X91.669Y-66.351
X91.669Y-67.138
X92.456Y-60.839
X92.456Y-61.627
X92.456Y-62.414
X92.456Y-63.201
X92.456Y-63.989
X92.456Y-64.776
X92.456Y-65.564
X92.456Y-66.351
X92.456Y-67.138
X93.244Y-60.839
X93.244Y-61.627
X93.244Y-62.414
X93.244Y-63.201
X93.244Y-63.989
X93.244Y-64.776
X93.244Y-65.564
X93.244Y-66.351
X93.244Y-67.138
X94.031Y-60.839
X94.031Y-61.627
X94.031Y-62.414
X94.031Y-63.201
X94.031Y-63.989
X94.031Y-64.776
X94.031Y-65.564
X94.031Y-66.351
X94.031Y-67.138
X94.819Y-60.839
X94.819Y-61.627
X94.819Y-62.414
X94.819Y-63.201
X94.819Y-63.989
X94.819Y-64.776
X94.819Y-65.564
X94.819Y-66.351
X94.819Y-67.138
X95.606Y-60.839
X95.606Y-61.627
X95.606Y-62.414
X95.606Y-63.201
X95.606Y-63.989
X95.606Y-64.776
X95.606Y-65.564
X95.606Y-66.351
X95.606Y-67.138
X96.393Y-60.839
X96.393Y-61.627
X96.393Y-62.414
X96.393Y-63.201
X96.393Y-63.989
X96.393Y-64.776
X96.393Y-65.564
X96.393Y-66.351
X96.393Y-67.138
T3
X58.244Y-49.989
X58.244Y-51.239
X58.244Y-52.489
X58.244Y-53.739
X58.244Y-54.989
X58.244Y-60.75
X58.244Y-62.0
X58.244Y-63.25
X58.244Y-64.75
X58.244Y-66.0
X58.244Y-67.25
X58.244Y-71.239
X58.244Y-72.489
X58.244Y-73.739
X58.244Y-74.989
X58.244Y-76.239
X58.25Y-56.5
X58.494Y-48.739
X58.494Y-77.489
X59.744Y-48.489
X59.744Y-77.739
X60.994Y-48.489
X60.994Y-77.739
X62.244Y-48.489
X62.244Y-77.739
X63.494Y-48.489
X63.494Y-77.739
X64.744Y-48.489
X64.744Y-77.739
X65.994Y-48.489
X65.994Y-77.739
X67.244Y-48.489
X67.244Y-77.739
X68.494Y-48.489
X68.494Y-77.739
X69.744Y-48.489
X69.744Y-77.739
X70.994Y-48.489
X70.994Y-77.739
X72.244Y-48.489
X72.244Y-77.739
X73.494Y-48.489
X73.494Y-77.739
X74.744Y-48.489
X74.744Y-77.739
X75.994Y-48.489
X75.994Y-77.739
X77.244Y-48.489
X77.244Y-77.739
X78.494Y-48.489
X78.494Y-77.739
X79.744Y-48.489
X79.744Y-77.739
X80.994Y-48.489
X80.994Y-77.739
X82.244Y-48.489
X82.244Y-77.739
X83.494Y-48.489
X83.494Y-77.739
X84.744Y-48.489
X84.744Y-77.739
X85.994Y-48.489
X85.994Y-77.739
X87.244Y-48.489
X87.244Y-77.739
X88.494Y-48.489
X88.494Y-77.739
X89.744Y-48.489
X89.744Y-77.739
X90.994Y-48.489
X90.994Y-77.739
X92.244Y-48.489
X92.244Y-77.739
X93.494Y-48.489
X93.494Y-77.739
X94.744Y-48.489
X94.744Y-77.739
X95.994Y-48.489
X95.994Y-77.739
X97.244Y-48.489
X97.244Y-77.739
X98.494Y-48.489
X98.494Y-77.739
X99.744Y-48.489
X99.744Y-77.739
X100.994Y-48.489
X100.994Y-77.739
X102.244Y-48.489
X102.244Y-77.739
X103.494Y-48.489
X103.494Y-77.739
X104.744Y-48.489
X104.744Y-77.739
X105.994Y-48.489
X105.994Y-77.739
X107.244Y-48.489
X107.244Y-77.739
X108.494Y-48.489
X108.494Y-77.739
X109.744Y-48.489
X109.744Y-77.739
X110.994Y-48.489
X110.994Y-77.739
X112.244Y-48.489
X112.244Y-77.739
X113.494Y-48.489
X113.494Y-77.739
X114.744Y-48.489
X114.744Y-77.739
X115.994Y-48.489
X115.994Y-77.739
X117.244Y-48.489
X117.244Y-77.739
X118.494Y-48.489
X118.494Y-77.739
X119.744Y-48.489
X119.744Y-77.739
X120.994Y-48.489
X120.994Y-77.739
X122.244Y-48.489
X122.244Y-77.739
X123.494Y-48.489
X123.494Y-77.739
X124.744Y-48.489
X124.744Y-77.739
X125.994Y-48.489
X125.994Y-77.739
X127.244Y-48.489
X127.244Y-77.739
X128.494Y-48.489
X128.494Y-77.739
X129.744Y-48.489
X129.744Y-77.739
X130.994Y-48.489
X130.994Y-77.739
X132.244Y-48.489
X132.244Y-77.739
X133.494Y-48.489
X133.494Y-77.739
X134.744Y-48.489
X134.744Y-77.739
X135.994Y-48.489
X135.994Y-77.739
X137.244Y-48.489
X137.244Y-77.739
X138.494Y-48.489
X138.494Y-77.739
X139.744Y-48.489
X139.744Y-77.739
X140.994Y-48.489
X140.994Y-77.739
X142.244Y-48.489
X142.244Y-77.739
X143.494Y-48.489
X143.494Y-77.739
X144.744Y-48.489
X144.744Y-77.739
X145.994Y-48.489
X145.994Y-77.739
X147.244Y-48.489
X147.244Y-77.739
X148.494Y-48.489
X148.494Y-77.739
X149.744Y-48.739
X149.744Y-77.489
X149.994Y-49.989
X149.994Y-51.239
X149.994Y-52.489
X149.994Y-53.739
X149.994Y-54.989
X149.994Y-56.239
X149.994Y-57.489
X149.994Y-58.739
X149.994Y-59.989
X149.994Y-61.239
X149.994Y-62.489
X149.994Y-63.739
X149.994Y-64.989
X149.994Y-66.239
X149.994Y-67.489
X149.994Y-68.739
X149.994Y-69.989
X149.994Y-71.239
X149.994Y-72.489
X149.994Y-73.739
X149.994Y-74.989
X149.994Y-76.239
T4
X78.294Y-51.489
X80.834Y-51.489
X83.374Y-51.489
X85.914Y-51.489
X88.454Y-51.489
X90.994Y-51.489
X130.919Y-51.449
X130.919Y-53.989
X133.459Y-51.449
X133.459Y-53.989
X135.999Y-51.449
X135.999Y-53.989
X138.539Y-51.449
X138.539Y-53.989
X141.079Y-51.449
X141.079Y-53.989
X144.744Y-51.489
X144.744Y-54.029
X144.744Y-56.569
X144.744Y-59.109
X144.744Y-61.649
X146.994Y-70.474
X146.994Y-73.014
X147.284Y-51.489
X147.284Y-54.029
X147.284Y-56.569
X147.284Y-59.109
X147.284Y-61.649
M30
