G04 #@! TF.GenerationSoftware,KiCad,Pcbnew,8.0.3*
G04 #@! TF.CreationDate,2024-06-24T09:54:46+02:00*
G04 #@! TF.ProjectId,Phase Amplitude Detector,50686173-6520-4416-9d70-6c6974756465,rev?*
G04 #@! TF.SameCoordinates,Original*
G04 #@! TF.FileFunction,Soldermask,Bot*
G04 #@! TF.FilePolarity,Negative*
%FSLAX46Y46*%
G04 Gerber Fmt 4.6, Leading zero omitted, Abs format (unit mm)*
G04 Created by KiCad (PCBNEW 8.0.3) date 2024-06-24 09:54:46*
%MOMM*%
%LPD*%
G01*
G04 APERTURE LIST*
%ADD10C,0.100000*%
%ADD11R,4.000000X6.000000*%
%ADD12R,1.700000X1.700000*%
%ADD13O,1.700000X1.700000*%
%ADD14C,0.500000*%
%ADD15C,1.700000*%
G04 APERTURE END LIST*
D10*
X60243839Y-47488840D02*
X150993839Y-47488840D01*
X150993839Y-78738840D01*
X57243839Y-78738840D01*
X57243839Y-49738840D01*
X58993839Y-49738840D01*
X58993839Y-76488840D01*
X59493839Y-76988840D01*
X148743839Y-76988840D01*
X149243839Y-76488840D01*
X149243839Y-49738840D01*
X148743839Y-49238840D01*
X60243839Y-49238840D01*
X59493839Y-49238840D01*
X58993839Y-49738840D01*
X57243839Y-49738840D01*
X57243839Y-47488840D01*
X60243839Y-47488840D01*
G36*
X60243839Y-47488840D02*
G01*
X150993839Y-47488840D01*
X150993839Y-78738840D01*
X57243839Y-78738840D01*
X57243839Y-49738840D01*
X58993839Y-49738840D01*
X58993839Y-76488840D01*
X59493839Y-76988840D01*
X148743839Y-76988840D01*
X149243839Y-76488840D01*
X149243839Y-49738840D01*
X148743839Y-49238840D01*
X60243839Y-49238840D01*
X59493839Y-49238840D01*
X58993839Y-49738840D01*
X57243839Y-49738840D01*
X57243839Y-47488840D01*
X60243839Y-47488840D01*
G37*
D11*
X59500000Y-69238840D03*
D12*
X146993839Y-73013840D03*
D13*
X146993839Y-70473840D03*
D14*
X96393439Y-60839240D03*
X95606039Y-60839240D03*
X94818639Y-60839240D03*
X94031239Y-60839240D03*
X93243839Y-60839240D03*
X92456439Y-60839240D03*
X91669039Y-60839240D03*
X90881639Y-60839240D03*
X90094239Y-60839240D03*
X96393439Y-61626640D03*
X95606039Y-61626640D03*
X94818639Y-61626640D03*
X94031239Y-61626640D03*
X93243839Y-61626640D03*
X92456439Y-61626640D03*
X91669039Y-61626640D03*
X90881639Y-61626640D03*
X90094239Y-61626640D03*
X96393439Y-62414040D03*
X95606039Y-62414040D03*
X94818639Y-62414040D03*
X94031239Y-62414040D03*
X93243839Y-62414040D03*
X92456439Y-62414040D03*
X91669039Y-62414040D03*
X90881639Y-62414040D03*
X90094239Y-62414040D03*
X96393439Y-63201440D03*
X95606039Y-63201440D03*
X94818639Y-63201440D03*
X94031239Y-63201440D03*
X93243839Y-63201440D03*
X92456439Y-63201440D03*
X91669039Y-63201440D03*
X90881639Y-63201440D03*
X90094239Y-63201440D03*
X96393439Y-63988840D03*
X95606039Y-63988840D03*
X94818639Y-63988840D03*
X94031239Y-63988840D03*
X93243839Y-63988840D03*
X92456439Y-63988840D03*
X91669039Y-63988840D03*
X90881639Y-63988840D03*
X90094239Y-63988840D03*
X96393439Y-64776240D03*
X95606039Y-64776240D03*
X94818639Y-64776240D03*
X94031239Y-64776240D03*
X93243839Y-64776240D03*
X92456439Y-64776240D03*
X91669039Y-64776240D03*
X90881639Y-64776240D03*
X90094239Y-64776240D03*
X96393439Y-65563640D03*
X95606039Y-65563640D03*
X94818639Y-65563640D03*
X94031239Y-65563640D03*
X93243839Y-65563640D03*
X92456439Y-65563640D03*
X91669039Y-65563640D03*
X90881639Y-65563640D03*
X90094239Y-65563640D03*
X96393439Y-66351040D03*
X95606039Y-66351040D03*
X94818639Y-66351040D03*
X94031239Y-66351040D03*
X93243839Y-66351040D03*
X92456439Y-66351040D03*
X91669039Y-66351040D03*
X90881639Y-66351040D03*
X90094239Y-66351040D03*
X96393439Y-67138440D03*
X95606039Y-67138440D03*
X94818639Y-67138440D03*
X94031239Y-67138440D03*
X93243839Y-67138440D03*
X92456439Y-67138440D03*
X91669039Y-67138440D03*
X90881639Y-67138440D03*
X90094239Y-67138440D03*
D15*
X144743839Y-51488840D03*
D13*
X147283839Y-51488840D03*
D12*
X144743839Y-54028840D03*
D13*
X147283839Y-54028840D03*
X144743839Y-56568840D03*
X147283839Y-56568840D03*
X144743839Y-59108840D03*
X147283839Y-59108840D03*
X144743839Y-61648840D03*
X147283839Y-61648840D03*
D15*
X130918839Y-53988840D03*
D13*
X130918839Y-51448840D03*
D12*
X133458839Y-53988840D03*
D13*
X133458839Y-51448840D03*
X135998839Y-53988840D03*
X135998839Y-51448840D03*
X138538839Y-53988840D03*
X138538839Y-51448840D03*
X141078839Y-53988840D03*
X141078839Y-51448840D03*
D12*
X90993839Y-51488840D03*
D13*
X88453839Y-51488840D03*
X85913839Y-51488840D03*
X83373839Y-51488840D03*
X80833839Y-51488840D03*
X78293839Y-51488840D03*
D11*
X59500000Y-58738840D03*
M02*
