G04 #@! TF.GenerationSoftware,KiCad,Pcbnew,8.0.3*
G04 #@! TF.CreationDate,2024-06-24T09:54:46+02:00*
G04 #@! TF.ProjectId,Phase Amplitude Detector,50686173-6520-4416-9d70-6c6974756465,rev?*
G04 #@! TF.SameCoordinates,Original*
G04 #@! TF.FileFunction,Soldermask,Top*
G04 #@! TF.FilePolarity,Negative*
%FSLAX46Y46*%
G04 Gerber Fmt 4.6, Leading zero omitted, Abs format (unit mm)*
G04 Created by KiCad (PCBNEW 8.0.3) date 2024-06-24 09:54:46*
%MOMM*%
%LPD*%
G01*
G04 APERTURE LIST*
G04 Aperture macros list*
%AMRoundRect*
0 Rectangle with rounded corners*
0 $1 Rounding radius*
0 $2 $3 $4 $5 $6 $7 $8 $9 X,Y pos of 4 corners*
0 Add a 4 corners polygon primitive as box body*
4,1,4,$2,$3,$4,$5,$6,$7,$8,$9,$2,$3,0*
0 Add four circle primitives for the rounded corners*
1,1,$1+$1,$2,$3*
1,1,$1+$1,$4,$5*
1,1,$1+$1,$6,$7*
1,1,$1+$1,$8,$9*
0 Add four rect primitives between the rounded corners*
20,1,$1+$1,$2,$3,$4,$5,0*
20,1,$1+$1,$4,$5,$6,$7,0*
20,1,$1+$1,$6,$7,$8,$9,0*
20,1,$1+$1,$8,$9,$2,$3,0*%
G04 Aperture macros list end*
%ADD10C,0.100000*%
%ADD11C,0.000000*%
%ADD12RoundRect,0.155000X-0.212500X-0.155000X0.212500X-0.155000X0.212500X0.155000X-0.212500X0.155000X0*%
%ADD13RoundRect,0.160000X0.197500X0.160000X-0.197500X0.160000X-0.197500X-0.160000X0.197500X-0.160000X0*%
%ADD14RoundRect,0.160000X-0.197500X-0.160000X0.197500X-0.160000X0.197500X0.160000X-0.197500X0.160000X0*%
%ADD15RoundRect,0.160000X-0.160000X0.197500X-0.160000X-0.197500X0.160000X-0.197500X0.160000X0.197500X0*%
%ADD16R,1.140000X0.760000*%
%ADD17RoundRect,0.160000X0.160000X-0.197500X0.160000X0.197500X-0.160000X0.197500X-0.160000X-0.197500X0*%
%ADD18RoundRect,0.250001X-0.499999X-0.924999X0.499999X-0.924999X0.499999X0.924999X-0.499999X0.924999X0*%
%ADD19RoundRect,0.155000X-0.155000X0.212500X-0.155000X-0.212500X0.155000X-0.212500X0.155000X0.212500X0*%
%ADD20RoundRect,0.250001X0.499999X0.924999X-0.499999X0.924999X-0.499999X-0.924999X0.499999X-0.924999X0*%
%ADD21RoundRect,0.237500X0.287500X0.237500X-0.287500X0.237500X-0.287500X-0.237500X0.287500X-0.237500X0*%
%ADD22RoundRect,0.155000X0.212500X0.155000X-0.212500X0.155000X-0.212500X-0.155000X0.212500X-0.155000X0*%
%ADD23RoundRect,0.155000X0.155000X-0.212500X0.155000X0.212500X-0.155000X0.212500X-0.155000X-0.212500X0*%
%ADD24R,3.000000X1.750000*%
%ADD25R,1.700000X1.700000*%
%ADD26O,1.700000X1.700000*%
%ADD27R,0.280000X0.850000*%
%ADD28R,0.850000X0.280000*%
%ADD29C,0.500000*%
%ADD30R,0.650000X1.785000*%
%ADD31RoundRect,0.150000X-0.150000X0.512500X-0.150000X-0.512500X0.150000X-0.512500X0.150000X0.512500X0*%
%ADD32RoundRect,0.237500X0.237500X-0.287500X0.237500X0.287500X-0.237500X0.287500X-0.237500X-0.287500X0*%
%ADD33R,1.475000X0.450000*%
%ADD34RoundRect,0.237500X-0.237500X0.287500X-0.237500X-0.287500X0.237500X-0.287500X0.237500X0.287500X0*%
%ADD35C,1.700000*%
%ADD36R,2.000000X0.650000*%
%ADD37R,2.000000X3.200000*%
%ADD38R,0.254800X0.857199*%
%ADD39R,0.857199X0.254800*%
%ADD40R,5.080000X3.810000*%
%ADD41RoundRect,0.200000X0.300000X0.200000X-0.300000X0.200000X-0.300000X-0.200000X0.300000X-0.200000X0*%
G04 APERTURE END LIST*
D10*
X57250000Y-59750000D02*
X59000000Y-59750000D01*
X59000000Y-68250000D01*
X57250000Y-68250000D01*
X57250000Y-59750000D01*
G36*
X57250000Y-59750000D02*
G01*
X59000000Y-59750000D01*
X59000000Y-68250000D01*
X57250000Y-68250000D01*
X57250000Y-59750000D01*
G37*
X151000000Y-78750000D02*
X57250000Y-78750000D01*
X57250000Y-70250000D01*
X59000000Y-70250000D01*
X59000000Y-76500000D01*
X59500000Y-77000000D01*
X148750000Y-77000000D01*
X149250000Y-76500000D01*
X149250000Y-49750000D01*
X148750000Y-49250000D01*
X59500000Y-49250000D01*
X59000000Y-49750000D01*
X59000000Y-57750000D01*
X57250000Y-57750000D01*
X57250000Y-47500000D01*
X151000000Y-47500000D01*
X151000000Y-78750000D01*
G36*
X151000000Y-78750000D02*
G01*
X57250000Y-78750000D01*
X57250000Y-70250000D01*
X59000000Y-70250000D01*
X59000000Y-76500000D01*
X59500000Y-77000000D01*
X148750000Y-77000000D01*
X149250000Y-76500000D01*
X149250000Y-49750000D01*
X148750000Y-49250000D01*
X59500000Y-49250000D01*
X59000000Y-49750000D01*
X59000000Y-57750000D01*
X57250000Y-57750000D01*
X57250000Y-47500000D01*
X151000000Y-47500000D01*
X151000000Y-78750000D01*
G37*
D11*
G36*
X89894239Y-67752340D02*
G01*
X89480339Y-67752340D01*
X89480339Y-60225340D01*
X89894239Y-60225340D01*
X89894239Y-67752340D01*
G37*
G36*
X90681639Y-67752340D02*
G01*
X90294239Y-67752340D01*
X90294239Y-60225340D01*
X90681639Y-60225340D01*
X90681639Y-67752340D01*
G37*
G36*
X91469039Y-67752340D02*
G01*
X91081639Y-67752340D01*
X91081639Y-60225340D01*
X91469039Y-60225340D01*
X91469039Y-67752340D01*
G37*
G36*
X92256439Y-67752340D02*
G01*
X91869039Y-67752340D01*
X91869039Y-60225340D01*
X92256439Y-60225340D01*
X92256439Y-67752340D01*
G37*
G36*
X93043839Y-67752340D02*
G01*
X92656439Y-67752340D01*
X92656439Y-60225340D01*
X93043839Y-60225340D01*
X93043839Y-67752340D01*
G37*
G36*
X93831239Y-67752340D02*
G01*
X93443839Y-67752340D01*
X93443839Y-60225340D01*
X93831239Y-60225340D01*
X93831239Y-67752340D01*
G37*
G36*
X94618639Y-67752340D02*
G01*
X94231239Y-67752340D01*
X94231239Y-60225340D01*
X94618639Y-60225340D01*
X94618639Y-67752340D01*
G37*
G36*
X95406039Y-67752340D02*
G01*
X95018639Y-67752340D01*
X95018639Y-60225340D01*
X95406039Y-60225340D01*
X95406039Y-67752340D01*
G37*
G36*
X96193439Y-67752340D02*
G01*
X95806039Y-67752340D01*
X95806039Y-60225340D01*
X96193439Y-60225340D01*
X96193439Y-67752340D01*
G37*
G36*
X97007339Y-60639240D02*
G01*
X89480339Y-60639240D01*
X89480339Y-60225340D01*
X97007339Y-60225340D01*
X97007339Y-60639240D01*
G37*
G36*
X97007339Y-67752340D02*
G01*
X96593439Y-67752340D01*
X96593439Y-60225340D01*
X97007339Y-60225340D01*
X97007339Y-67752340D01*
G37*
G36*
X97007339Y-61426640D02*
G01*
X89480339Y-61426640D01*
X89480339Y-61039240D01*
X97007339Y-61039240D01*
X97007339Y-61426640D01*
G37*
G36*
X97007339Y-62214040D02*
G01*
X89480339Y-62214040D01*
X89480339Y-61826640D01*
X97007339Y-61826640D01*
X97007339Y-62214040D01*
G37*
G36*
X97007339Y-63001440D02*
G01*
X89480339Y-63001440D01*
X89480339Y-62614040D01*
X97007339Y-62614040D01*
X97007339Y-63001440D01*
G37*
G36*
X97007339Y-63788840D02*
G01*
X89480339Y-63788840D01*
X89480339Y-63401440D01*
X97007339Y-63401440D01*
X97007339Y-63788840D01*
G37*
G36*
X97007339Y-64576240D02*
G01*
X89480339Y-64576240D01*
X89480339Y-64188840D01*
X97007339Y-64188840D01*
X97007339Y-64576240D01*
G37*
G36*
X97007339Y-65363640D02*
G01*
X89480339Y-65363640D01*
X89480339Y-64976240D01*
X97007339Y-64976240D01*
X97007339Y-65363640D01*
G37*
G36*
X97007339Y-66151040D02*
G01*
X89480339Y-66151040D01*
X89480339Y-65763640D01*
X97007339Y-65763640D01*
X97007339Y-66151040D01*
G37*
G36*
X97007339Y-66938440D02*
G01*
X89480339Y-66938440D01*
X89480339Y-66551040D01*
X97007339Y-66551040D01*
X97007339Y-66938440D01*
G37*
G36*
X97007339Y-67752340D02*
G01*
X89480339Y-67752340D01*
X89480339Y-67338440D01*
X97007339Y-67338440D01*
X97007339Y-67752340D01*
G37*
D12*
X73676339Y-60238840D03*
X74811339Y-60238840D03*
D13*
X80591339Y-68738840D03*
X79396339Y-68738840D03*
D14*
X106896339Y-61488840D03*
X108091339Y-61488840D03*
D15*
X125243839Y-51141340D03*
X125243839Y-52336340D03*
X99743839Y-55391340D03*
X99743839Y-56586340D03*
X97243839Y-71391340D03*
X97243839Y-72586340D03*
X92743839Y-55391340D03*
X92743839Y-56586340D03*
D16*
X66269839Y-57218840D03*
X66269839Y-58738840D03*
X66269839Y-60258840D03*
X63219839Y-60258840D03*
X63219839Y-58738840D03*
X63219839Y-57218840D03*
D13*
X115841339Y-56238840D03*
X114646339Y-56238840D03*
D14*
X100646339Y-68488840D03*
X101841339Y-68488840D03*
D12*
X82176339Y-64988840D03*
X83311339Y-64988840D03*
D14*
X100646339Y-59488840D03*
X101841339Y-59488840D03*
D17*
X111493839Y-57586340D03*
X111493839Y-56391340D03*
D14*
X77146339Y-67488840D03*
X78341339Y-67488840D03*
D18*
X105618839Y-69488840D03*
X108868839Y-69488840D03*
D19*
X132493839Y-57921340D03*
X132493839Y-59056340D03*
X135743839Y-69921340D03*
X135743839Y-71056340D03*
D17*
X90243839Y-72586340D03*
X90243839Y-71391340D03*
D20*
X132368839Y-72238840D03*
X129118839Y-72238840D03*
D15*
X75993839Y-67391340D03*
X75993839Y-68586340D03*
X98743839Y-55391340D03*
X98743839Y-56586340D03*
D14*
X119396339Y-67738840D03*
X120591339Y-67738840D03*
D15*
X123243839Y-63141340D03*
X123243839Y-64336340D03*
X96243839Y-71391340D03*
X96243839Y-72586340D03*
D14*
X100646339Y-58488840D03*
X101841339Y-58488840D03*
D12*
X119176339Y-72488840D03*
X120311339Y-72488840D03*
D14*
X100646339Y-66488840D03*
X101841339Y-66488840D03*
D21*
X117868839Y-73488840D03*
X116118839Y-73488840D03*
D14*
X79396339Y-59238840D03*
X80591339Y-59238840D03*
D22*
X112061339Y-69738840D03*
X110926339Y-69738840D03*
D14*
X139146339Y-57238840D03*
X140341339Y-57238840D03*
D22*
X87811339Y-68738840D03*
X86676339Y-68738840D03*
D23*
X78243839Y-59306340D03*
X78243839Y-58171340D03*
D12*
X73676339Y-67738840D03*
X74811339Y-67738840D03*
D14*
X106896339Y-60488840D03*
X108091339Y-60488840D03*
D17*
X91243839Y-72586340D03*
X91243839Y-71391340D03*
D12*
X73676339Y-69238840D03*
X74811339Y-69238840D03*
D24*
X59000000Y-69238840D03*
D15*
X124243839Y-51141340D03*
X124243839Y-52336340D03*
D17*
X86743839Y-56586340D03*
X86743839Y-55391340D03*
X92243839Y-72586340D03*
X92243839Y-71391340D03*
D23*
X126243839Y-64306340D03*
X126243839Y-63171340D03*
D22*
X89311339Y-69738840D03*
X88176339Y-69738840D03*
D15*
X97743839Y-55391340D03*
X97743839Y-56586340D03*
D25*
X146993839Y-73013840D03*
D26*
X146993839Y-70473840D03*
D27*
X96993839Y-59513741D03*
X96493840Y-59513741D03*
X95993839Y-59513741D03*
X95493840Y-59513741D03*
X94993838Y-59513741D03*
X94493839Y-59513741D03*
X93993840Y-59513741D03*
X93493839Y-59513741D03*
X92993839Y-59513741D03*
X92493838Y-59513741D03*
X91993839Y-59513741D03*
X91493840Y-59513741D03*
X90993838Y-59513741D03*
X90493839Y-59513741D03*
X89993838Y-59513741D03*
X89493839Y-59513741D03*
D28*
X88768740Y-60237895D03*
X88768740Y-60738021D03*
X88768740Y-61238147D03*
X88768740Y-61738273D03*
X88768740Y-62238399D03*
X88768740Y-62738525D03*
X88768740Y-63238651D03*
X88768740Y-63738777D03*
X88768740Y-64238903D03*
X88768740Y-64739029D03*
X88768740Y-65239155D03*
X88768740Y-65739281D03*
X88768740Y-66239407D03*
X88768740Y-66739533D03*
X88768740Y-67239659D03*
X88768740Y-67739785D03*
D27*
X89493839Y-68463939D03*
X89993838Y-68463939D03*
X90493839Y-68463939D03*
X90993838Y-68463939D03*
X91493840Y-68463939D03*
X91993839Y-68463939D03*
X92493838Y-68463939D03*
X92993839Y-68463939D03*
X93493839Y-68463939D03*
X93993840Y-68463939D03*
X94493839Y-68463939D03*
X94993838Y-68463939D03*
X95493840Y-68463939D03*
X95993839Y-68463939D03*
X96493840Y-68463939D03*
X96993839Y-68463939D03*
D28*
X97718938Y-67739785D03*
X97718938Y-67239659D03*
X97718938Y-66739533D03*
X97718938Y-66239407D03*
X97718938Y-65739281D03*
X97718938Y-65239155D03*
X97718938Y-64739029D03*
X97718938Y-64238903D03*
X97718938Y-63738777D03*
X97718938Y-63238651D03*
X97718938Y-62738525D03*
X97718938Y-62238399D03*
X97718938Y-61738273D03*
X97718938Y-61238147D03*
X97718938Y-60738021D03*
X97718938Y-60237895D03*
D29*
X96393439Y-60839240D03*
X95606039Y-60839240D03*
X94818639Y-60839240D03*
X94031239Y-60839240D03*
X93243839Y-60839240D03*
X92456439Y-60839240D03*
X91669039Y-60839240D03*
X90881639Y-60839240D03*
X90094239Y-60839240D03*
X96393439Y-61626640D03*
X95606039Y-61626640D03*
X94818639Y-61626640D03*
X94031239Y-61626640D03*
X93243839Y-61626640D03*
X92456439Y-61626640D03*
X91669039Y-61626640D03*
X90881639Y-61626640D03*
X90094239Y-61626640D03*
X96393439Y-62414040D03*
X95606039Y-62414040D03*
X94818639Y-62414040D03*
X94031239Y-62414040D03*
X93243839Y-62414040D03*
X92456439Y-62414040D03*
X91669039Y-62414040D03*
X90881639Y-62414040D03*
X90094239Y-62414040D03*
X96393439Y-63201440D03*
X95606039Y-63201440D03*
X94818639Y-63201440D03*
X94031239Y-63201440D03*
X93243839Y-63201440D03*
X92456439Y-63201440D03*
X91669039Y-63201440D03*
X90881639Y-63201440D03*
X90094239Y-63201440D03*
X96393439Y-63988840D03*
X95606039Y-63988840D03*
X94818639Y-63988840D03*
X94031239Y-63988840D03*
X93243839Y-63988840D03*
X92456439Y-63988840D03*
X91669039Y-63988840D03*
X90881639Y-63988840D03*
X90094239Y-63988840D03*
X96393439Y-64776240D03*
X95606039Y-64776240D03*
X94818639Y-64776240D03*
X94031239Y-64776240D03*
X93243839Y-64776240D03*
X92456439Y-64776240D03*
X91669039Y-64776240D03*
X90881639Y-64776240D03*
X90094239Y-64776240D03*
X96393439Y-65563640D03*
X95606039Y-65563640D03*
X94818639Y-65563640D03*
X94031239Y-65563640D03*
X93243839Y-65563640D03*
X92456439Y-65563640D03*
X91669039Y-65563640D03*
X90881639Y-65563640D03*
X90094239Y-65563640D03*
X96393439Y-66351040D03*
X95606039Y-66351040D03*
X94818639Y-66351040D03*
X94031239Y-66351040D03*
X93243839Y-66351040D03*
X92456439Y-66351040D03*
X91669039Y-66351040D03*
X90881639Y-66351040D03*
X90094239Y-66351040D03*
X96393439Y-67138440D03*
X95606039Y-67138440D03*
X94818639Y-67138440D03*
X94031239Y-67138440D03*
X93243839Y-67138440D03*
X92456439Y-67138440D03*
X91669039Y-67138440D03*
X90881639Y-67138440D03*
X90094239Y-67138440D03*
D15*
X99243839Y-71391340D03*
X99243839Y-72586340D03*
D12*
X118176339Y-59488840D03*
X119311339Y-59488840D03*
D15*
X67743839Y-67391340D03*
X67743839Y-68586340D03*
D30*
X126148839Y-54206840D03*
X124878839Y-54206840D03*
X123608839Y-54206840D03*
X122338839Y-54206840D03*
X122338839Y-61270840D03*
X123608839Y-61270840D03*
X124878839Y-61270840D03*
X126148839Y-61270840D03*
D14*
X100646339Y-60488840D03*
X101841339Y-60488840D03*
D15*
X113493839Y-56391340D03*
X113493839Y-57586340D03*
D12*
X136926339Y-57238840D03*
X138061339Y-57238840D03*
D17*
X93243839Y-72586340D03*
X93243839Y-71391340D03*
D14*
X77146339Y-56988840D03*
X78341339Y-56988840D03*
D15*
X91743839Y-55391340D03*
X91743839Y-56586340D03*
D14*
X100646339Y-63488840D03*
X101841339Y-63488840D03*
D31*
X125031338Y-69713840D03*
X124081338Y-69713840D03*
X123131338Y-69713840D03*
X123131338Y-71988840D03*
X125031338Y-71988840D03*
D12*
X128676339Y-74488840D03*
X129811339Y-74488840D03*
X113676339Y-70738840D03*
X114811339Y-70738840D03*
D14*
X100646339Y-64488840D03*
X101841339Y-64488840D03*
D15*
X125243839Y-63141340D03*
X125243839Y-64336340D03*
D14*
X100646339Y-62488840D03*
X101841339Y-62488840D03*
D22*
X125148838Y-68113840D03*
X124013838Y-68113840D03*
X112061339Y-73738840D03*
X110926339Y-73738840D03*
D14*
X79396339Y-69738840D03*
X80591339Y-69738840D03*
D13*
X80591339Y-58238840D03*
X79396339Y-58238840D03*
D22*
X132811339Y-66488840D03*
X131676339Y-66488840D03*
D14*
X100646339Y-65488840D03*
X101841339Y-65488840D03*
D16*
X69243839Y-60256840D03*
X69243839Y-58736840D03*
X69243839Y-57216840D03*
X72293839Y-57216840D03*
X72293839Y-58736840D03*
X72293839Y-60256840D03*
D15*
X75993839Y-56891340D03*
X75993839Y-58086340D03*
D32*
X134243839Y-73113840D03*
X134243839Y-71363840D03*
D22*
X114811339Y-72988840D03*
X113676339Y-72988840D03*
D16*
X66269839Y-67718840D03*
X66269839Y-69238840D03*
X66269839Y-70758840D03*
X63219839Y-70758840D03*
X63219839Y-69238840D03*
X63219839Y-67718840D03*
D15*
X112493839Y-56391340D03*
X112493839Y-57586340D03*
D33*
X134055839Y-58563840D03*
X134055839Y-59213840D03*
X134055839Y-59863840D03*
X134055839Y-60513840D03*
X134055839Y-61163840D03*
X134055839Y-61813840D03*
X134055839Y-62463840D03*
X134055839Y-63113840D03*
X134055839Y-63763840D03*
X134055839Y-64413840D03*
X139931839Y-64413840D03*
X139931839Y-63763840D03*
X139931839Y-63113840D03*
X139931839Y-62463840D03*
X139931839Y-61813840D03*
X139931839Y-61163840D03*
X139931839Y-60513840D03*
X139931839Y-59863840D03*
X139931839Y-59213840D03*
X139931839Y-58563840D03*
D22*
X112061339Y-70738840D03*
X110926339Y-70738840D03*
D14*
X106896339Y-62488840D03*
X108091339Y-62488840D03*
D15*
X88743839Y-55391340D03*
X88743839Y-56586340D03*
D12*
X73676339Y-70738840D03*
X74811339Y-70738840D03*
D15*
X93743839Y-55391340D03*
X93743839Y-56586340D03*
D34*
X102243839Y-71863840D03*
X102243839Y-73613840D03*
X134243839Y-67863840D03*
X134243839Y-69613840D03*
D23*
X61743839Y-69806340D03*
X61743839Y-68671340D03*
D17*
X126243839Y-52336340D03*
X126243839Y-51141340D03*
D20*
X132368839Y-68738840D03*
X129118839Y-68738840D03*
D13*
X90091339Y-53988840D03*
X88896339Y-53988840D03*
D15*
X124243839Y-63141340D03*
X124243839Y-64336340D03*
D12*
X128676339Y-66488840D03*
X129811339Y-66488840D03*
D23*
X135743839Y-73306340D03*
X135743839Y-72171340D03*
D12*
X85676339Y-63488840D03*
X86811339Y-63488840D03*
X100735460Y-57514236D03*
X101870460Y-57514236D03*
X124013838Y-73613840D03*
X125148838Y-73613840D03*
D23*
X61743839Y-59306340D03*
X61743839Y-58171340D03*
D35*
X144743839Y-51488840D03*
D26*
X147283839Y-51488840D03*
D25*
X144743839Y-54028840D03*
D26*
X147283839Y-54028840D03*
X144743839Y-56568840D03*
X147283839Y-56568840D03*
X144743839Y-59108840D03*
X147283839Y-59108840D03*
X144743839Y-61648840D03*
X147283839Y-61648840D03*
D36*
X137743839Y-67948840D03*
X137743839Y-69218840D03*
X137743839Y-70488840D03*
X137743839Y-71758840D03*
X137743839Y-73028840D03*
D37*
X143743839Y-70488840D03*
D17*
X122243839Y-64336340D03*
X122243839Y-63141340D03*
D15*
X94243839Y-71391340D03*
X94243839Y-72586340D03*
D17*
X89243839Y-72586340D03*
X89243839Y-71391340D03*
D23*
X109243839Y-65806340D03*
X109243839Y-64671340D03*
D15*
X122243839Y-51141340D03*
X122243839Y-52336340D03*
D22*
X132811339Y-74488840D03*
X131676339Y-74488840D03*
D15*
X96743839Y-55391340D03*
X96743839Y-56586340D03*
X67743839Y-56891340D03*
X67743839Y-58086340D03*
D18*
X105618839Y-72988840D03*
X108868839Y-72988840D03*
D22*
X120311339Y-73488840D03*
X119176339Y-73488840D03*
D19*
X141493839Y-57671340D03*
X141493839Y-58806340D03*
D12*
X113676339Y-69738840D03*
X114811339Y-69738840D03*
D15*
X98243839Y-71391340D03*
X98243839Y-72586340D03*
D13*
X112091339Y-71738840D03*
X110896339Y-71738840D03*
D14*
X77146339Y-60488840D03*
X78341339Y-60488840D03*
D15*
X89743839Y-55391340D03*
X89743839Y-56586340D03*
D12*
X115676339Y-57238840D03*
X116811339Y-57238840D03*
D17*
X119993839Y-62086340D03*
X119993839Y-60891340D03*
D35*
X130918839Y-53988840D03*
D26*
X130918839Y-51448840D03*
D25*
X133458839Y-53988840D03*
D26*
X133458839Y-51448840D03*
X135998839Y-53988840D03*
X135998839Y-51448840D03*
X138538839Y-53988840D03*
X138538839Y-51448840D03*
X141078839Y-53988840D03*
X141078839Y-51448840D03*
D15*
X95243839Y-71391340D03*
X95243839Y-72586340D03*
D14*
X100646339Y-67488840D03*
X101841339Y-67488840D03*
D15*
X90743839Y-55391340D03*
X90743839Y-56586340D03*
D22*
X87811339Y-59238840D03*
X86676339Y-59238840D03*
X112061339Y-72738840D03*
X110926339Y-72738840D03*
D15*
X95743839Y-55391340D03*
X95743839Y-56586340D03*
D13*
X108091339Y-63488840D03*
X106896339Y-63488840D03*
D12*
X73676339Y-57238840D03*
X74811339Y-57238840D03*
D15*
X94743839Y-55391340D03*
X94743839Y-56586340D03*
X67743839Y-59391340D03*
X67743839Y-60586340D03*
D25*
X90993839Y-51488840D03*
D26*
X88453839Y-51488840D03*
X85913839Y-51488840D03*
X83373839Y-51488840D03*
X80833839Y-51488840D03*
X78293839Y-51488840D03*
D12*
X82676339Y-62988840D03*
X83811339Y-62988840D03*
D15*
X67743839Y-69891340D03*
X67743839Y-71086340D03*
D14*
X106896339Y-59488840D03*
X108091339Y-59488840D03*
D17*
X88243839Y-72586340D03*
X88243839Y-71391340D03*
D14*
X77146339Y-70988840D03*
X78341339Y-70988840D03*
D12*
X118176339Y-58488840D03*
X119311339Y-58488840D03*
X98176339Y-69488840D03*
X99311339Y-69488840D03*
D14*
X100646339Y-61488840D03*
X101841339Y-61488840D03*
D12*
X115676339Y-58238840D03*
X116811339Y-58238840D03*
X115926339Y-70738840D03*
X117061339Y-70738840D03*
D24*
X59000000Y-58738840D03*
D22*
X114311339Y-71988840D03*
X113176339Y-71988840D03*
D12*
X115926339Y-69738840D03*
X117061339Y-69738840D03*
D38*
X116993839Y-60512240D03*
X116493840Y-60512240D03*
X115993838Y-60512240D03*
X115493839Y-60512240D03*
X114993840Y-60512240D03*
X114493839Y-60512240D03*
X113993839Y-60512240D03*
X113493838Y-60512240D03*
X112993839Y-60512240D03*
X112493840Y-60512240D03*
X111993838Y-60512240D03*
X111493839Y-60512240D03*
D39*
X110767239Y-61238840D03*
X110767239Y-61738839D03*
X110767239Y-62238841D03*
X110767239Y-62738840D03*
X110767239Y-63238839D03*
X110767239Y-63738840D03*
X110767239Y-64238840D03*
X110767239Y-64738841D03*
X110767239Y-65238840D03*
X110767239Y-65738839D03*
X110767239Y-66238841D03*
X110767239Y-66738840D03*
D38*
X111493839Y-67465440D03*
X111993838Y-67465440D03*
X112493840Y-67465440D03*
X112993839Y-67465440D03*
X113493838Y-67465440D03*
X113993839Y-67465440D03*
X114493839Y-67465440D03*
X114993840Y-67465440D03*
X115493839Y-67465440D03*
X115993838Y-67465440D03*
X116493840Y-67465440D03*
X116993839Y-67465440D03*
D39*
X117720439Y-66738840D03*
X117720439Y-66238841D03*
X117720439Y-65738839D03*
X117720439Y-65238840D03*
X117720439Y-64738841D03*
X117720439Y-64238840D03*
X117720439Y-63738840D03*
X117720439Y-63238839D03*
X117720439Y-62738840D03*
X117720439Y-62238841D03*
X117720439Y-61738839D03*
X117720439Y-61238840D03*
D40*
X114243839Y-63988840D03*
D19*
X135743839Y-67671340D03*
X135743839Y-68806340D03*
D34*
X103743839Y-71863840D03*
X103743839Y-73613840D03*
D22*
X117061339Y-72238840D03*
X115926339Y-72238840D03*
D15*
X87743839Y-55391340D03*
X87743839Y-56586340D03*
D41*
X119943839Y-71288840D03*
X119943839Y-69188840D03*
X118543839Y-69188840D03*
X118543839Y-71288840D03*
D15*
X123243839Y-51141340D03*
X123243839Y-52336340D03*
X75993839Y-59391340D03*
X75993839Y-60586340D03*
D16*
X69243839Y-70756840D03*
X69243839Y-69236840D03*
X69243839Y-67716840D03*
X72293839Y-67716840D03*
X72293839Y-69236840D03*
X72293839Y-70756840D03*
D12*
X73676339Y-58738840D03*
X74811339Y-58738840D03*
D23*
X108243839Y-65806340D03*
X108243839Y-64671340D03*
X78243839Y-69806340D03*
X78243839Y-68671340D03*
D15*
X75993839Y-69891340D03*
X75993839Y-71086340D03*
M02*
