G04 #@! TF.GenerationSoftware,KiCad,Pcbnew,8.0.3*
G04 #@! TF.CreationDate,2024-06-24T09:54:46+02:00*
G04 #@! TF.ProjectId,Phase Amplitude Detector,50686173-6520-4416-9d70-6c6974756465,rev?*
G04 #@! TF.SameCoordinates,Original*
G04 #@! TF.FileFunction,Legend,Bot*
G04 #@! TF.FilePolarity,Positive*
%FSLAX46Y46*%
G04 Gerber Fmt 4.6, Leading zero omitted, Abs format (unit mm)*
G04 Created by KiCad (PCBNEW 8.0.3) date 2024-06-24 09:54:46*
%MOMM*%
%LPD*%
G01*
G04 APERTURE LIST*
%ADD10C,0.000000*%
%ADD11C,0.150000*%
%ADD12C,0.100000*%
%ADD13R,4.000000X6.000000*%
%ADD14R,1.700000X1.700000*%
%ADD15O,1.700000X1.700000*%
%ADD16C,0.500000*%
%ADD17C,1.700000*%
G04 APERTURE END LIST*
D10*
G36*
X69111297Y-56151279D02*
G01*
X69112510Y-56153914D01*
X69113932Y-56156790D01*
X69117332Y-56163156D01*
X69121355Y-56170151D01*
X69125859Y-56177546D01*
X69130703Y-56185115D01*
X69135744Y-56192633D01*
X69140841Y-56199871D01*
X69145851Y-56206602D01*
X69153326Y-56216593D01*
X69160217Y-56226373D01*
X69166545Y-56235999D01*
X69172331Y-56245527D01*
X69177596Y-56255013D01*
X69182361Y-56264516D01*
X69186647Y-56274091D01*
X69190474Y-56283795D01*
X69193864Y-56293686D01*
X69196837Y-56303818D01*
X69199415Y-56314250D01*
X69201617Y-56325038D01*
X69203466Y-56336238D01*
X69204981Y-56347908D01*
X69206185Y-56360104D01*
X69207097Y-56372883D01*
X69207760Y-56386486D01*
X69208237Y-56401602D01*
X69208529Y-56417726D01*
X69208635Y-56434354D01*
X69208554Y-56450982D01*
X69208286Y-56467106D01*
X69207832Y-56482222D01*
X69207190Y-56495824D01*
X69207175Y-56495823D01*
X69205988Y-56514058D01*
X69204628Y-56529279D01*
X69203830Y-56535981D01*
X69202927Y-56542198D01*
X69201896Y-56548018D01*
X69200718Y-56553530D01*
X69199371Y-56558823D01*
X69197834Y-56563987D01*
X69196087Y-56569111D01*
X69194107Y-56574284D01*
X69191876Y-56579596D01*
X69189370Y-56585134D01*
X69183455Y-56597250D01*
X69179161Y-56605539D01*
X69174690Y-56613777D01*
X69170174Y-56621750D01*
X69165745Y-56629240D01*
X69161533Y-56636031D01*
X69157668Y-56641906D01*
X69154283Y-56646648D01*
X69152812Y-56648527D01*
X69151509Y-56650042D01*
X69150204Y-56651548D01*
X69148728Y-56653402D01*
X69147096Y-56655578D01*
X69145326Y-56658048D01*
X69141434Y-56663771D01*
X69137187Y-56670361D01*
X69132715Y-56677607D01*
X69128150Y-56685301D01*
X69123626Y-56693231D01*
X69119274Y-56701190D01*
X69098803Y-56739499D01*
X69094533Y-56691425D01*
X69091892Y-56663065D01*
X69089211Y-56637272D01*
X69086393Y-56613376D01*
X69083342Y-56590707D01*
X69079962Y-56568595D01*
X69076157Y-56546369D01*
X69071830Y-56523359D01*
X69066885Y-56498895D01*
X69062343Y-56475984D01*
X69060583Y-56465943D01*
X69059168Y-56456654D01*
X69058102Y-56447972D01*
X69057387Y-56439753D01*
X69057028Y-56431853D01*
X69057027Y-56424128D01*
X69057389Y-56416435D01*
X69058116Y-56408630D01*
X69059211Y-56400567D01*
X69060679Y-56392104D01*
X69062523Y-56383096D01*
X69064745Y-56373400D01*
X69070340Y-56351366D01*
X69072260Y-56343445D01*
X69074297Y-56333873D01*
X69076388Y-56323015D01*
X69078472Y-56311237D01*
X69080485Y-56298904D01*
X69082366Y-56286382D01*
X69084054Y-56274037D01*
X69085484Y-56262233D01*
X69096150Y-56166954D01*
X69100599Y-56126999D01*
X69111297Y-56151279D01*
G37*
G36*
X67025532Y-54365731D02*
G01*
X67065338Y-54367528D01*
X67108252Y-54370868D01*
X67154303Y-54375752D01*
X67203519Y-54382181D01*
X67255927Y-54390156D01*
X67319588Y-54400343D01*
X67360427Y-54406649D01*
X67372170Y-54409010D01*
X67388726Y-54413315D01*
X67433820Y-54426890D01*
X67490804Y-54445636D01*
X67554773Y-54467818D01*
X67620823Y-54491696D01*
X67684049Y-54515533D01*
X67739545Y-54537592D01*
X67782406Y-54556135D01*
X67876780Y-54599946D01*
X67998823Y-54721107D01*
X68089569Y-54813451D01*
X68174684Y-54904645D01*
X68253749Y-54994169D01*
X68326350Y-55081507D01*
X68392070Y-55166141D01*
X68422219Y-55207281D01*
X68450492Y-55247552D01*
X68476836Y-55286888D01*
X68501199Y-55325223D01*
X68523530Y-55362495D01*
X68543776Y-55398637D01*
X68558804Y-55426780D01*
X68571366Y-55450989D01*
X68581642Y-55471668D01*
X68589813Y-55489221D01*
X68596058Y-55504052D01*
X68600557Y-55516564D01*
X68602208Y-55522078D01*
X68603490Y-55527163D01*
X68604425Y-55531871D01*
X68605036Y-55536251D01*
X68608286Y-55566355D01*
X68680134Y-55599173D01*
X68724907Y-55620361D01*
X68771276Y-55643673D01*
X68818244Y-55668544D01*
X68864814Y-55694406D01*
X68909989Y-55720693D01*
X68952771Y-55746839D01*
X68992166Y-55772277D01*
X69027174Y-55796440D01*
X69054572Y-55816501D01*
X69066785Y-55825823D01*
X69078251Y-55834914D01*
X69089150Y-55843953D01*
X69099665Y-55853121D01*
X69109976Y-55862598D01*
X69120265Y-55872565D01*
X69130714Y-55883202D01*
X69141505Y-55894689D01*
X69152818Y-55907208D01*
X69164836Y-55920938D01*
X69191712Y-55952752D01*
X69223583Y-55991576D01*
X69230928Y-56001397D01*
X69238952Y-56013589D01*
X69247564Y-56027951D01*
X69256671Y-56044275D01*
X69266181Y-56062359D01*
X69276002Y-56081998D01*
X69296209Y-56125120D01*
X69316555Y-56172008D01*
X69336302Y-56221024D01*
X69354714Y-56270532D01*
X69363188Y-56294960D01*
X69371053Y-56318897D01*
X69396035Y-56397002D01*
X69407179Y-56431284D01*
X69407110Y-56432202D01*
X69406655Y-56434284D01*
X69404662Y-56441691D01*
X69401350Y-56453014D01*
X69396869Y-56467761D01*
X69385007Y-56505559D01*
X69370284Y-56551151D01*
X69370301Y-56551147D01*
X69360825Y-56579372D01*
X69350911Y-56607428D01*
X69340626Y-56635154D01*
X69330032Y-56662389D01*
X69319194Y-56688974D01*
X69308175Y-56714748D01*
X69297039Y-56739550D01*
X69285850Y-56763221D01*
X69271410Y-56792620D01*
X69259000Y-56816828D01*
X69253257Y-56827444D01*
X69247662Y-56837311D01*
X69242096Y-56846614D01*
X69236439Y-56855534D01*
X69230571Y-56864256D01*
X69224373Y-56872962D01*
X69217726Y-56881836D01*
X69210509Y-56891061D01*
X69193888Y-56911297D01*
X69173553Y-56935133D01*
X69154199Y-56957294D01*
X69136933Y-56976294D01*
X69128816Y-56984854D01*
X69120901Y-56992919D01*
X69113080Y-57000588D01*
X69105246Y-57007959D01*
X69097294Y-57015130D01*
X69089115Y-57022200D01*
X69080602Y-57029267D01*
X69071650Y-57036431D01*
X69051998Y-57051439D01*
X69029302Y-57068012D01*
X68994036Y-57092214D01*
X68952687Y-57118648D01*
X68906941Y-57146361D01*
X68858486Y-57174397D01*
X68809008Y-57201801D01*
X68760194Y-57227617D01*
X68713732Y-57250892D01*
X68671309Y-57270670D01*
X68605228Y-57300046D01*
X68605228Y-57326744D01*
X68605098Y-57330938D01*
X68604680Y-57335268D01*
X68603930Y-57339834D01*
X68602801Y-57344739D01*
X68601250Y-57350082D01*
X68599233Y-57355965D01*
X68596704Y-57362490D01*
X68593619Y-57369757D01*
X68589934Y-57377868D01*
X68585604Y-57386925D01*
X68580584Y-57397028D01*
X68574830Y-57408278D01*
X68568298Y-57420777D01*
X68560942Y-57434627D01*
X68543581Y-57466781D01*
X68526355Y-57497941D01*
X68509791Y-57526759D01*
X68493366Y-57554041D01*
X68476555Y-57580597D01*
X68458833Y-57607233D01*
X68439676Y-57634758D01*
X68418558Y-57663980D01*
X68394956Y-57695706D01*
X68352285Y-57751080D01*
X68306235Y-57808356D01*
X68257405Y-57866852D01*
X68206395Y-57925883D01*
X68153808Y-57984766D01*
X68100242Y-58042819D01*
X68046298Y-58099357D01*
X67992577Y-58153697D01*
X67882948Y-58262512D01*
X67784595Y-58308334D01*
X67733812Y-58330670D01*
X67675069Y-58354330D01*
X67611587Y-58378210D01*
X67546588Y-58401204D01*
X67483294Y-58422209D01*
X67424927Y-58440118D01*
X67374708Y-58453827D01*
X67353661Y-58458761D01*
X67335860Y-58462231D01*
X67218203Y-58481396D01*
X67174738Y-58487760D01*
X67138148Y-58492355D01*
X67105911Y-58495464D01*
X67103574Y-58495610D01*
X67075501Y-58497369D01*
X67044394Y-58498353D01*
X67010065Y-58498698D01*
X66990602Y-58498606D01*
X66970625Y-58498228D01*
X66950703Y-58497593D01*
X66931402Y-58496730D01*
X66913290Y-58495669D01*
X66896933Y-58494440D01*
X66882899Y-58493072D01*
X66871756Y-58491595D01*
X66825653Y-58484441D01*
X66779551Y-58477635D01*
X66751573Y-58473550D01*
X66725712Y-58469517D01*
X66700845Y-58465321D01*
X66675850Y-58460750D01*
X66649601Y-58455591D01*
X66620977Y-58449630D01*
X66552109Y-58434450D01*
X66499859Y-58422749D01*
X66346183Y-58388511D01*
X66297006Y-58377052D01*
X66149477Y-58342987D01*
X66115860Y-58335158D01*
X66069565Y-58324227D01*
X66046871Y-58318917D01*
X66025978Y-58314160D01*
X66009206Y-58310474D01*
X65998874Y-58308380D01*
X65995584Y-58307776D01*
X65992122Y-58307093D01*
X65985100Y-58305583D01*
X65981747Y-58304805D01*
X65978637Y-58304043D01*
X65975876Y-58303323D01*
X65973566Y-58302667D01*
X65965558Y-58300887D01*
X65949576Y-58297814D01*
X65901532Y-58289162D01*
X65845119Y-58279463D01*
X65796021Y-58271469D01*
X65761866Y-58265774D01*
X65709962Y-58256781D01*
X65647701Y-58246503D01*
X65580784Y-58236687D01*
X65512376Y-58227770D01*
X65445638Y-58220191D01*
X65385608Y-58213769D01*
X65331918Y-58207781D01*
X65278227Y-58201727D01*
X65218197Y-58195142D01*
X65175829Y-58190387D01*
X65137808Y-58185721D01*
X65103677Y-58181069D01*
X65072979Y-58176357D01*
X65045257Y-58171511D01*
X65020056Y-58166454D01*
X64996919Y-58161113D01*
X64975388Y-58155413D01*
X64916453Y-58139117D01*
X64852447Y-58121904D01*
X64748593Y-58094285D01*
X64740296Y-58091882D01*
X64730590Y-58088782D01*
X64719829Y-58085114D01*
X64708364Y-58081008D01*
X64696550Y-58076592D01*
X64684738Y-58071996D01*
X64673281Y-58067350D01*
X64662533Y-58062782D01*
X64588535Y-58030663D01*
X64566032Y-58020809D01*
X64556378Y-58016361D01*
X64547618Y-58012112D01*
X64539626Y-58007971D01*
X64532274Y-58003849D01*
X64525434Y-57999654D01*
X64518978Y-57995296D01*
X64512780Y-57990686D01*
X64506712Y-57985732D01*
X64500645Y-57980344D01*
X64494454Y-57974433D01*
X64488009Y-57967907D01*
X64481184Y-57960676D01*
X64465884Y-57943738D01*
X64451215Y-57927077D01*
X64445179Y-57920043D01*
X64439917Y-57913712D01*
X64435361Y-57907963D01*
X64431443Y-57902674D01*
X64428096Y-57897725D01*
X64425252Y-57892994D01*
X64422841Y-57888360D01*
X64420797Y-57883701D01*
X64419052Y-57878898D01*
X64417537Y-57873828D01*
X64416184Y-57868370D01*
X64414926Y-57862403D01*
X64412422Y-57848459D01*
X64410793Y-57837020D01*
X64409495Y-57823904D01*
X64408530Y-57809184D01*
X64407900Y-57792932D01*
X64407606Y-57775224D01*
X64407639Y-57761056D01*
X64542020Y-57761056D01*
X64542065Y-57782075D01*
X64542383Y-57798277D01*
X64542729Y-57804926D01*
X64543245Y-57810795D01*
X64543964Y-57816027D01*
X64544922Y-57820762D01*
X64546152Y-57825142D01*
X64547687Y-57829309D01*
X64549563Y-57833405D01*
X64551812Y-57837570D01*
X64554469Y-57841948D01*
X64557567Y-57846678D01*
X64565226Y-57857765D01*
X64568726Y-57862667D01*
X64572171Y-57867249D01*
X64575610Y-57871553D01*
X64579094Y-57875620D01*
X64582673Y-57879490D01*
X64586398Y-57883205D01*
X64590320Y-57886807D01*
X64594489Y-57890336D01*
X64598956Y-57893833D01*
X64603771Y-57897339D01*
X64608984Y-57900896D01*
X64614646Y-57904545D01*
X64620808Y-57908326D01*
X64627520Y-57912281D01*
X64634832Y-57916452D01*
X64642796Y-57920878D01*
X64659340Y-57929761D01*
X64676003Y-57938269D01*
X64692871Y-57946432D01*
X64710028Y-57954280D01*
X64727559Y-57961840D01*
X64745548Y-57969144D01*
X64764079Y-57976220D01*
X64783238Y-57983098D01*
X64803109Y-57989807D01*
X64823777Y-57996377D01*
X64867839Y-58009216D01*
X64916101Y-58021852D01*
X64969241Y-58034519D01*
X65020998Y-58045843D01*
X65073184Y-58056013D01*
X65129552Y-58065541D01*
X65193854Y-58074941D01*
X65269843Y-58084725D01*
X65361272Y-58095407D01*
X65471894Y-58107501D01*
X65605462Y-58121518D01*
X65684887Y-58130501D01*
X65763562Y-58140779D01*
X65835416Y-58151503D01*
X65866886Y-58156767D01*
X65894373Y-58161826D01*
X66404580Y-58262666D01*
X66702654Y-58321105D01*
X66862536Y-58351128D01*
X66888611Y-58354598D01*
X66922552Y-58358140D01*
X66961310Y-58361542D01*
X67001839Y-58364592D01*
X67041091Y-58367080D01*
X67076018Y-58368792D01*
X67103574Y-58369519D01*
X67120712Y-58369049D01*
X67131064Y-58367807D01*
X67150161Y-58365365D01*
X67203698Y-58358301D01*
X67325050Y-58342383D01*
X67340503Y-58339470D01*
X67361934Y-58334045D01*
X67419089Y-58316977D01*
X67489229Y-58293807D01*
X67565070Y-58267162D01*
X67639326Y-58239670D01*
X67704711Y-58213959D01*
X67753940Y-58192656D01*
X67770220Y-58184479D01*
X67779729Y-58178390D01*
X67785734Y-58173089D01*
X67795288Y-58164393D01*
X67823075Y-58138648D01*
X67859156Y-58104823D01*
X67899597Y-58066589D01*
X68098525Y-57877734D01*
X68197308Y-57783953D01*
X68332113Y-57587205D01*
X68420261Y-57458003D01*
X68473556Y-57378152D01*
X68489576Y-57352977D01*
X68499813Y-57335632D01*
X68505245Y-57324613D01*
X68506465Y-57321007D01*
X68506849Y-57318420D01*
X68506808Y-57318018D01*
X68506683Y-57317616D01*
X68506476Y-57317212D01*
X68506189Y-57316808D01*
X68505822Y-57316404D01*
X68505378Y-57316000D01*
X68504857Y-57315597D01*
X68504262Y-57315196D01*
X68503594Y-57314797D01*
X68502855Y-57314400D01*
X68502045Y-57314005D01*
X68501167Y-57313614D01*
X68499211Y-57312844D01*
X68496999Y-57312093D01*
X68494543Y-57311364D01*
X68491854Y-57310662D01*
X68488946Y-57309991D01*
X68485831Y-57309353D01*
X68482519Y-57308753D01*
X68479024Y-57308195D01*
X68475357Y-57307683D01*
X68471530Y-57307220D01*
X68455171Y-57305232D01*
X68436756Y-57302748D01*
X68418542Y-57300085D01*
X68402784Y-57297558D01*
X68395275Y-57296416D01*
X68386724Y-57295348D01*
X68377428Y-57294380D01*
X68367686Y-57293534D01*
X68357794Y-57292834D01*
X68348052Y-57292305D01*
X68338755Y-57291970D01*
X68330203Y-57291853D01*
X68316898Y-57292014D01*
X68303511Y-57292575D01*
X68289007Y-57293655D01*
X68272348Y-57295374D01*
X68252497Y-57297849D01*
X68228417Y-57301200D01*
X68199072Y-57305545D01*
X68163424Y-57311004D01*
X68152832Y-57313039D01*
X68140359Y-57316129D01*
X68126199Y-57320192D01*
X68110551Y-57325150D01*
X68075569Y-57337438D01*
X68036985Y-57352361D01*
X67996366Y-57369287D01*
X67955281Y-57387586D01*
X67915302Y-57406626D01*
X67877995Y-57425777D01*
X67864036Y-57433416D01*
X67850163Y-57441345D01*
X67836239Y-57449665D01*
X67822126Y-57458477D01*
X67807687Y-57467882D01*
X67792783Y-57477983D01*
X67777278Y-57488880D01*
X67761034Y-57500674D01*
X67725777Y-57527363D01*
X67685912Y-57558861D01*
X67640337Y-57595978D01*
X67587952Y-57639527D01*
X67555505Y-57666371D01*
X67521735Y-57693754D01*
X67490636Y-57718466D01*
X67466203Y-57737300D01*
X67418281Y-57773241D01*
X67337320Y-57786510D01*
X67256359Y-57799778D01*
X67203904Y-57785428D01*
X67174672Y-57777329D01*
X67151295Y-57770406D01*
X67141230Y-57767126D01*
X67131943Y-57763828D01*
X67123206Y-57760407D01*
X67114789Y-57756759D01*
X67106465Y-57752782D01*
X67098004Y-57748370D01*
X67089179Y-57743419D01*
X67079760Y-57737825D01*
X67058228Y-57724294D01*
X67031581Y-57706942D01*
X66999688Y-57686218D01*
X66969653Y-57667014D01*
X66944853Y-57651470D01*
X66928665Y-57641727D01*
X66923426Y-57638678D01*
X66918536Y-57635708D01*
X66914103Y-57632893D01*
X66910234Y-57630306D01*
X66907036Y-57628020D01*
X66904616Y-57626110D01*
X66903731Y-57625318D01*
X66903081Y-57624649D01*
X66902679Y-57624110D01*
X66902538Y-57623712D01*
X66902679Y-57623553D01*
X66903099Y-57623400D01*
X66904753Y-57623116D01*
X66907444Y-57622859D01*
X66911115Y-57622631D01*
X66921180Y-57622262D01*
X66934500Y-57622014D01*
X66950629Y-57621894D01*
X66969120Y-57621907D01*
X66989527Y-57622060D01*
X67011404Y-57622357D01*
X67040693Y-57622936D01*
X67065017Y-57623658D01*
X67084876Y-57624569D01*
X67100770Y-57625715D01*
X67113198Y-57627141D01*
X67122660Y-57628893D01*
X67126435Y-57629906D01*
X67129656Y-57631018D01*
X67132385Y-57632234D01*
X67134686Y-57633561D01*
X67145074Y-57639648D01*
X67156952Y-57645336D01*
X67170131Y-57650598D01*
X67184423Y-57655406D01*
X67199640Y-57659734D01*
X67215594Y-57663555D01*
X67232095Y-57666842D01*
X67248956Y-57669567D01*
X67265988Y-57671704D01*
X67283003Y-57673226D01*
X67299813Y-57674105D01*
X67316228Y-57674315D01*
X67332061Y-57673829D01*
X67347124Y-57672619D01*
X67361228Y-57670659D01*
X67374184Y-57667922D01*
X67382510Y-57665653D01*
X67390533Y-57663066D01*
X67394515Y-57661589D01*
X67398522Y-57659955D01*
X67402588Y-57658137D01*
X67406748Y-57656111D01*
X67411034Y-57653850D01*
X67415480Y-57651328D01*
X67420121Y-57648520D01*
X67424989Y-57645398D01*
X67435546Y-57638113D01*
X67447419Y-57629266D01*
X67460880Y-57618648D01*
X67476198Y-57606054D01*
X67493644Y-57591274D01*
X67513488Y-57574102D01*
X67536000Y-57554330D01*
X67561449Y-57531750D01*
X67622244Y-57477338D01*
X67747713Y-57364677D01*
X67901389Y-57289138D01*
X67962757Y-57259273D01*
X68016243Y-57233797D01*
X68056101Y-57215412D01*
X68069122Y-57209722D01*
X68076580Y-57206819D01*
X68091979Y-57203113D01*
X68116558Y-57198515D01*
X68147745Y-57193393D01*
X68182972Y-57188117D01*
X68219666Y-57183057D01*
X68255257Y-57178582D01*
X68287175Y-57175061D01*
X68312849Y-57172864D01*
X68323554Y-57172432D01*
X68337679Y-57172265D01*
X68354621Y-57172351D01*
X68373772Y-57172676D01*
X68394529Y-57173228D01*
X68416285Y-57173994D01*
X68438437Y-57174961D01*
X68460378Y-57176115D01*
X68540987Y-57180654D01*
X68587494Y-57183090D01*
X68590290Y-57183148D01*
X68593095Y-57183074D01*
X68595908Y-57182867D01*
X68598730Y-57182527D01*
X68601563Y-57182055D01*
X68604407Y-57181451D01*
X68607262Y-57180713D01*
X68610129Y-57179842D01*
X68613010Y-57178838D01*
X68615904Y-57177701D01*
X68618813Y-57176430D01*
X68621736Y-57175026D01*
X68624676Y-57173488D01*
X68627632Y-57171816D01*
X68630605Y-57170010D01*
X68633597Y-57168070D01*
X68640777Y-57163639D01*
X68652084Y-57157146D01*
X68666941Y-57148899D01*
X68684771Y-57139210D01*
X68727039Y-57116751D01*
X68774272Y-57092256D01*
X68825061Y-57065632D01*
X68877011Y-57037378D01*
X68924026Y-57010867D01*
X68943779Y-56999320D01*
X68960013Y-56989472D01*
X68981210Y-56976108D01*
X68990236Y-56970238D01*
X68998367Y-56964772D01*
X69005720Y-56959608D01*
X69012410Y-56954643D01*
X69018553Y-56949773D01*
X69024265Y-56944896D01*
X69029661Y-56939910D01*
X69034858Y-56934711D01*
X69039972Y-56929197D01*
X69045117Y-56923264D01*
X69050411Y-56916811D01*
X69055968Y-56909733D01*
X69068337Y-56893295D01*
X69077408Y-56880603D01*
X69088113Y-56864900D01*
X69100057Y-56846808D01*
X69112846Y-56826945D01*
X69126085Y-56805931D01*
X69139379Y-56784386D01*
X69152335Y-56762930D01*
X69164557Y-56742182D01*
X69180147Y-56714926D01*
X69193831Y-56690027D01*
X69205983Y-56666687D01*
X69216977Y-56644109D01*
X69227186Y-56621496D01*
X69236986Y-56598051D01*
X69246750Y-56572976D01*
X69256851Y-56545476D01*
X69270672Y-56506328D01*
X69282095Y-56472795D01*
X69289933Y-56448441D01*
X69292138Y-56440821D01*
X69293001Y-56436832D01*
X69292881Y-56435292D01*
X69292392Y-56432733D01*
X69290378Y-56424797D01*
X69287107Y-56413490D01*
X69282724Y-56399280D01*
X69277379Y-56382636D01*
X69271219Y-56364026D01*
X69264390Y-56343917D01*
X69257040Y-56322777D01*
X69246181Y-56292487D01*
X69236140Y-56265960D01*
X69226361Y-56242003D01*
X69216286Y-56219422D01*
X69205359Y-56197026D01*
X69193021Y-56173622D01*
X69178717Y-56148017D01*
X69161890Y-56119018D01*
X69149368Y-56097991D01*
X69136194Y-56076372D01*
X69109474Y-56033825D01*
X69096716Y-56014129D01*
X69084887Y-55996307D01*
X69074381Y-55980975D01*
X69065593Y-55968749D01*
X69053693Y-55953070D01*
X69048313Y-55946300D01*
X69043156Y-55940107D01*
X69038108Y-55934393D01*
X69033050Y-55929055D01*
X69027867Y-55923993D01*
X69022442Y-55919105D01*
X69016659Y-55914292D01*
X69010400Y-55909453D01*
X69003551Y-55904486D01*
X68995993Y-55899290D01*
X68987611Y-55893765D01*
X68978288Y-55887810D01*
X68956354Y-55874207D01*
X68939620Y-55864187D01*
X68919401Y-55852474D01*
X68871595Y-55825675D01*
X68819110Y-55797211D01*
X68768125Y-55770486D01*
X68720985Y-55746016D01*
X68678972Y-55723696D01*
X68646663Y-55705988D01*
X68635578Y-55699634D01*
X68628635Y-55695358D01*
X68625045Y-55692998D01*
X68621698Y-55690907D01*
X68618540Y-55689073D01*
X68615518Y-55687487D01*
X68612578Y-55686137D01*
X68609666Y-55685012D01*
X68606728Y-55684103D01*
X68605232Y-55683726D01*
X68603710Y-55683399D01*
X68600558Y-55682889D01*
X68597220Y-55682563D01*
X68593640Y-55682409D01*
X68589764Y-55682418D01*
X68585541Y-55682579D01*
X68580914Y-55682881D01*
X68575831Y-55683313D01*
X68570238Y-55683866D01*
X68560494Y-55684688D01*
X68546432Y-55685594D01*
X68508007Y-55687539D01*
X68460268Y-55689468D01*
X68408522Y-55691146D01*
X68373696Y-55692012D01*
X68343726Y-55692457D01*
X68317756Y-55692453D01*
X68294931Y-55691971D01*
X68274394Y-55690981D01*
X68255291Y-55689452D01*
X68236766Y-55687356D01*
X68217963Y-55684664D01*
X68119610Y-55669322D01*
X68111861Y-55668032D01*
X68104366Y-55666577D01*
X68096877Y-55664850D01*
X68089145Y-55662743D01*
X68080923Y-55660150D01*
X68071963Y-55656962D01*
X68062015Y-55653074D01*
X68050834Y-55648376D01*
X68038169Y-55642763D01*
X68023774Y-55636127D01*
X68007400Y-55628361D01*
X67988799Y-55619357D01*
X67943924Y-55597207D01*
X67887165Y-55568820D01*
X67750000Y-55500000D01*
X67639096Y-55401647D01*
X67561366Y-55332838D01*
X67502045Y-55281229D01*
X67478064Y-55261082D01*
X67457216Y-55244284D01*
X67439013Y-55230518D01*
X67422964Y-55219466D01*
X67408579Y-55210813D01*
X67395370Y-55204241D01*
X67382847Y-55199434D01*
X67370520Y-55196073D01*
X67357899Y-55193842D01*
X67344496Y-55192425D01*
X67313382Y-55190762D01*
X67301382Y-55190412D01*
X67289676Y-55190414D01*
X67278239Y-55190774D01*
X67267049Y-55191496D01*
X67256085Y-55192586D01*
X67245324Y-55194049D01*
X67234743Y-55195891D01*
X67224321Y-55198116D01*
X67214034Y-55200731D01*
X67203862Y-55203739D01*
X67193780Y-55207148D01*
X67183768Y-55210961D01*
X67173802Y-55215184D01*
X67163861Y-55219823D01*
X67153922Y-55224882D01*
X67143963Y-55230367D01*
X67139472Y-55232895D01*
X67135288Y-55235114D01*
X67133255Y-55236113D01*
X67131231Y-55237041D01*
X67129195Y-55237901D01*
X67127123Y-55238695D01*
X67124994Y-55239425D01*
X67122786Y-55240092D01*
X67120474Y-55240700D01*
X67118039Y-55241250D01*
X67115456Y-55241745D01*
X67112704Y-55242187D01*
X67109760Y-55242577D01*
X67106603Y-55242918D01*
X67103209Y-55243213D01*
X67099556Y-55243463D01*
X67091384Y-55243839D01*
X67081910Y-55244062D01*
X67070953Y-55244150D01*
X67058335Y-55244120D01*
X67043878Y-55243991D01*
X67008727Y-55243501D01*
X66899418Y-55241811D01*
X66933125Y-55220295D01*
X66961592Y-55202195D01*
X66987939Y-55185664D01*
X67019671Y-55166029D01*
X67064297Y-55138614D01*
X67080750Y-55128767D01*
X67088445Y-55124374D01*
X67095880Y-55120295D01*
X67103129Y-55116497D01*
X67110262Y-55112952D01*
X67117351Y-55109628D01*
X67124469Y-55106494D01*
X67131688Y-55103521D01*
X67139078Y-55100677D01*
X67146713Y-55097931D01*
X67154665Y-55095254D01*
X67171803Y-55089981D01*
X67191068Y-55084612D01*
X67259837Y-55066186D01*
X67319363Y-55075777D01*
X67398426Y-55088485D01*
X67400529Y-55088942D01*
X67402942Y-55089694D01*
X67408673Y-55092063D01*
X67415569Y-55095555D01*
X67423578Y-55100133D01*
X67432649Y-55105759D01*
X67442731Y-55112396D01*
X67453772Y-55120007D01*
X67465722Y-55128555D01*
X67478530Y-55138002D01*
X67492143Y-55148311D01*
X67521584Y-55171366D01*
X67553635Y-55197421D01*
X67587889Y-55226180D01*
X67655922Y-55283193D01*
X67716252Y-55331393D01*
X67744233Y-55352638D01*
X67771133Y-55372218D01*
X67797236Y-55390314D01*
X67822823Y-55407106D01*
X67848176Y-55422772D01*
X67873576Y-55437492D01*
X67899306Y-55451447D01*
X67925648Y-55464816D01*
X67952884Y-55477778D01*
X67981295Y-55490514D01*
X68042771Y-55516023D01*
X68071566Y-55527334D01*
X68095502Y-55536296D01*
X68106168Y-55540032D01*
X68116244Y-55543345D01*
X68125937Y-55546289D01*
X68135455Y-55548918D01*
X68145006Y-55551287D01*
X68154798Y-55553450D01*
X68165039Y-55555462D01*
X68175937Y-55557377D01*
X68200535Y-55561135D01*
X68230257Y-55565161D01*
X68261575Y-55569208D01*
X68286377Y-55572114D01*
X68296983Y-55573142D01*
X68306739Y-55573890D01*
X68315904Y-55574358D01*
X68324738Y-55574549D01*
X68333502Y-55574464D01*
X68342454Y-55574104D01*
X68351854Y-55573472D01*
X68361962Y-55572568D01*
X68385341Y-55569953D01*
X68414669Y-55566271D01*
X68443890Y-55562509D01*
X68465884Y-55559482D01*
X68481652Y-55556885D01*
X68487514Y-55555654D01*
X68492196Y-55554416D01*
X68495822Y-55553135D01*
X68498517Y-55551771D01*
X68500408Y-55550286D01*
X68501619Y-55548644D01*
X68502275Y-55546805D01*
X68502502Y-55544733D01*
X68502169Y-55539733D01*
X68501848Y-55537965D01*
X68501234Y-55535808D01*
X68500342Y-55533292D01*
X68499188Y-55530448D01*
X68497790Y-55527305D01*
X68496161Y-55523892D01*
X68494320Y-55520241D01*
X68492282Y-55516380D01*
X68490062Y-55512339D01*
X68487678Y-55508149D01*
X68482478Y-55499438D01*
X68476812Y-55490487D01*
X68473844Y-55485996D01*
X68470807Y-55481534D01*
X68228450Y-55127116D01*
X68223202Y-55119576D01*
X68217677Y-55112003D01*
X68211819Y-55104334D01*
X68205567Y-55096505D01*
X68198862Y-55088454D01*
X68191647Y-55080119D01*
X68183861Y-55071436D01*
X68175447Y-55062343D01*
X68166344Y-55052776D01*
X68156495Y-55042674D01*
X68134319Y-55020611D01*
X68108448Y-54995651D01*
X68078411Y-54967292D01*
X67865359Y-54767238D01*
X67828855Y-54732626D01*
X67814046Y-54718777D01*
X67800689Y-54706778D01*
X67788152Y-54696288D01*
X67775801Y-54686966D01*
X67769498Y-54682637D01*
X67763004Y-54678472D01*
X67756240Y-54674429D01*
X67749128Y-54670465D01*
X67733540Y-54662604D01*
X67715608Y-54654549D01*
X67694698Y-54645958D01*
X67670178Y-54636490D01*
X67607778Y-54613565D01*
X67523345Y-54583045D01*
X67482668Y-54568434D01*
X67448349Y-54556462D01*
X67419286Y-54546808D01*
X67394382Y-54539150D01*
X67372535Y-54533168D01*
X67352646Y-54528541D01*
X67333616Y-54524948D01*
X67314345Y-54522068D01*
X67255217Y-54513962D01*
X67203698Y-54506541D01*
X67191723Y-54505050D01*
X67177296Y-54503775D01*
X67142450Y-54501868D01*
X67101884Y-54500809D01*
X67058324Y-54500585D01*
X67014495Y-54501185D01*
X66973121Y-54502598D01*
X66936927Y-54504812D01*
X66908638Y-54507816D01*
X66846404Y-54517634D01*
X66770585Y-54530793D01*
X66691566Y-54545428D01*
X66619726Y-54559674D01*
X66538374Y-54576164D01*
X66450682Y-54593443D01*
X66368407Y-54609639D01*
X66300079Y-54623534D01*
X66140513Y-54655583D01*
X65957307Y-54690452D01*
X65797190Y-54719447D01*
X65706888Y-54733877D01*
X65583946Y-54746727D01*
X65373628Y-54769156D01*
X65211791Y-54788580D01*
X65092344Y-54805791D01*
X65046613Y-54813815D01*
X65009196Y-54821583D01*
X64928692Y-54840346D01*
X64898175Y-54847839D01*
X64872109Y-54854624D01*
X64848964Y-54861113D01*
X64827210Y-54867719D01*
X64805317Y-54874854D01*
X64781755Y-54882931D01*
X64754015Y-54893203D01*
X64725050Y-54904989D01*
X64696039Y-54917716D01*
X64668160Y-54930811D01*
X64642592Y-54943701D01*
X64620513Y-54955814D01*
X64611150Y-54961399D01*
X64603101Y-54966576D01*
X64596514Y-54971271D01*
X64591536Y-54975414D01*
X64590226Y-54976685D01*
X64588761Y-54978200D01*
X64585430Y-54981877D01*
X64581669Y-54986288D01*
X64577604Y-54991276D01*
X64573361Y-54996683D01*
X64569066Y-55002350D01*
X64564845Y-55008121D01*
X64560824Y-55013839D01*
X64557646Y-55018502D01*
X64554848Y-55022759D01*
X64552405Y-55026726D01*
X64550292Y-55030519D01*
X64549353Y-55032386D01*
X64548487Y-55034253D01*
X64547692Y-55036134D01*
X64546965Y-55038044D01*
X64546303Y-55039998D01*
X64545702Y-55042009D01*
X64545160Y-55044093D01*
X64544674Y-55046263D01*
X64544241Y-55048535D01*
X64543857Y-55050922D01*
X64543521Y-55053440D01*
X64543228Y-55056102D01*
X64542762Y-55061919D01*
X64542435Y-55068488D01*
X64542223Y-55075925D01*
X64542102Y-55084347D01*
X64542039Y-55104607D01*
X64542233Y-55118480D01*
X64542779Y-55133605D01*
X64543639Y-55149494D01*
X64544776Y-55165661D01*
X64546152Y-55181619D01*
X64547727Y-55196881D01*
X64549465Y-55210959D01*
X64551327Y-55223367D01*
X64560593Y-55278691D01*
X64657345Y-55372410D01*
X64683566Y-55397466D01*
X64708639Y-55420669D01*
X64733130Y-55442496D01*
X64757607Y-55463422D01*
X64782638Y-55483920D01*
X64808790Y-55504466D01*
X64836630Y-55525535D01*
X64866727Y-55547602D01*
X65000055Y-55644441D01*
X65013516Y-55654288D01*
X65034872Y-55669739D01*
X65089522Y-55708985D01*
X65215792Y-55799676D01*
X65253725Y-55827259D01*
X65270639Y-55839951D01*
X65280365Y-55847235D01*
X65302148Y-55863140D01*
X65332765Y-55885321D01*
X65368992Y-55911433D01*
X65435545Y-55959643D01*
X65457009Y-55975459D01*
X65466340Y-55982633D01*
X65466564Y-55982978D01*
X65466688Y-55983496D01*
X65466714Y-55984180D01*
X65466644Y-55985027D01*
X65466227Y-55987189D01*
X65465452Y-55989946D01*
X65464336Y-55993259D01*
X65462894Y-55997092D01*
X65461143Y-56001408D01*
X65459099Y-56006168D01*
X65456778Y-56011337D01*
X65454197Y-56016876D01*
X65451372Y-56022749D01*
X65448320Y-56028918D01*
X65445055Y-56035346D01*
X65441596Y-56041995D01*
X65437957Y-56048830D01*
X65434155Y-56055812D01*
X65425799Y-56071664D01*
X65416418Y-56090634D01*
X65406332Y-56112006D01*
X65395859Y-56135067D01*
X65385317Y-56159102D01*
X65375025Y-56183398D01*
X65365303Y-56207240D01*
X65356467Y-56229915D01*
X65341242Y-56271358D01*
X65334825Y-56290009D01*
X65329169Y-56307478D01*
X65324245Y-56323913D01*
X65320027Y-56339464D01*
X65316487Y-56354280D01*
X65313598Y-56368509D01*
X65311332Y-56382301D01*
X65309663Y-56395805D01*
X65308561Y-56409169D01*
X65308002Y-56422542D01*
X65307955Y-56436073D01*
X65308396Y-56449912D01*
X65309295Y-56464207D01*
X65310626Y-56479107D01*
X65312618Y-56493680D01*
X65315809Y-56510113D01*
X65320134Y-56528231D01*
X65325526Y-56547863D01*
X65331918Y-56568836D01*
X65339244Y-56590977D01*
X65347437Y-56614114D01*
X65356430Y-56638074D01*
X65376553Y-56687771D01*
X65399079Y-56738689D01*
X65423476Y-56789445D01*
X65436211Y-56814330D01*
X65449213Y-56838658D01*
X65453737Y-56847059D01*
X65457862Y-56854969D01*
X65461505Y-56862208D01*
X65464582Y-56868598D01*
X65467010Y-56873961D01*
X65468706Y-56878119D01*
X65469253Y-56879691D01*
X65469585Y-56880894D01*
X65469693Y-56881707D01*
X65469659Y-56881960D01*
X65469565Y-56882107D01*
X65353433Y-56966124D01*
X65154598Y-57110161D01*
X65087889Y-57158466D01*
X65047025Y-57187786D01*
X64932946Y-57269391D01*
X64818638Y-57352290D01*
X64798447Y-57367369D01*
X64780118Y-57381597D01*
X64762400Y-57396082D01*
X64744040Y-57411931D01*
X64723788Y-57430252D01*
X64700391Y-57452152D01*
X64672599Y-57478739D01*
X64639158Y-57511121D01*
X64561105Y-57586978D01*
X64551562Y-57642271D01*
X64549645Y-57654675D01*
X64547857Y-57668751D01*
X64546237Y-57684013D01*
X64544823Y-57699973D01*
X64543655Y-57716145D01*
X64542773Y-57732041D01*
X64542215Y-57747174D01*
X64542020Y-57761056D01*
X64407639Y-57761056D01*
X64407650Y-57756132D01*
X64408035Y-57735729D01*
X64408761Y-57714090D01*
X64412462Y-57623033D01*
X64438815Y-57569634D01*
X64443170Y-57560949D01*
X64447400Y-57552863D01*
X64451641Y-57545212D01*
X64456030Y-57537828D01*
X64460703Y-57530545D01*
X64465794Y-57523198D01*
X64471441Y-57515621D01*
X64477779Y-57507646D01*
X64484943Y-57499107D01*
X64493071Y-57489840D01*
X64502297Y-57479676D01*
X64512758Y-57468451D01*
X64537928Y-57442150D01*
X64569668Y-57409606D01*
X64602367Y-57376534D01*
X64631304Y-57348158D01*
X64645122Y-57335084D01*
X64658910Y-57322408D01*
X64672973Y-57309872D01*
X64687614Y-57297217D01*
X64703137Y-57284184D01*
X64719846Y-57270515D01*
X64758035Y-57240232D01*
X64804610Y-57204301D01*
X64862003Y-57160650D01*
X64944474Y-57098597D01*
X65030169Y-57034852D01*
X65108961Y-56976910D01*
X65170718Y-56932265D01*
X65217668Y-56898306D01*
X65256142Y-56869460D01*
X65270959Y-56857908D01*
X65282168Y-56848779D01*
X65289271Y-56842452D01*
X65291129Y-56840460D01*
X65291774Y-56839311D01*
X65291612Y-56838294D01*
X65291105Y-56836688D01*
X65290269Y-56834527D01*
X65289122Y-56831845D01*
X65285965Y-56825058D01*
X65281774Y-56816606D01*
X65276691Y-56806766D01*
X65270855Y-56795815D01*
X65264408Y-56784031D01*
X65257491Y-56771693D01*
X65243340Y-56745867D01*
X65230220Y-56720090D01*
X65218137Y-56694383D01*
X65207096Y-56668767D01*
X65197102Y-56643266D01*
X65188162Y-56617900D01*
X65180280Y-56592692D01*
X65173463Y-56567663D01*
X65167715Y-56542836D01*
X65163043Y-56518232D01*
X65159451Y-56493872D01*
X65156945Y-56469780D01*
X65155531Y-56445976D01*
X65155215Y-56422483D01*
X65156001Y-56399322D01*
X65157895Y-56376516D01*
X65159804Y-56361811D01*
X65162414Y-56346337D01*
X65165695Y-56330183D01*
X65169615Y-56313437D01*
X65174144Y-56296188D01*
X65179251Y-56278523D01*
X65184904Y-56260531D01*
X65191073Y-56242301D01*
X65197728Y-56223919D01*
X65204836Y-56205476D01*
X65212367Y-56187058D01*
X65220290Y-56168755D01*
X65228575Y-56150654D01*
X65237190Y-56132845D01*
X65246104Y-56115414D01*
X65255287Y-56098450D01*
X65269521Y-56072440D01*
X65281178Y-56050250D01*
X65285664Y-56041324D01*
X65289054Y-56034235D01*
X65291199Y-56029277D01*
X65291757Y-56027690D01*
X65291947Y-56026746D01*
X65291793Y-56026332D01*
X65291333Y-56025703D01*
X65289532Y-56023826D01*
X65286604Y-56021159D01*
X65282610Y-56017751D01*
X65271667Y-56008895D01*
X65257188Y-55997630D01*
X65239657Y-55984329D01*
X65219562Y-55969364D01*
X65197386Y-55953109D01*
X65173616Y-55935935D01*
X65112149Y-55891218D01*
X65032263Y-55832217D01*
X64944294Y-55766606D01*
X64858580Y-55702061D01*
X64800782Y-55658105D01*
X64753107Y-55621349D01*
X64713571Y-55590130D01*
X64680192Y-55562786D01*
X64650989Y-55537655D01*
X64623979Y-55513075D01*
X64597179Y-55487384D01*
X64568609Y-55458921D01*
X64540561Y-55430426D01*
X64518034Y-55407004D01*
X64500047Y-55387448D01*
X64492449Y-55378743D01*
X64485620Y-55370553D01*
X64479435Y-55362726D01*
X64473773Y-55355111D01*
X64468511Y-55347558D01*
X64463526Y-55339917D01*
X64458696Y-55332035D01*
X64453899Y-55323764D01*
X64443913Y-55305446D01*
X64412480Y-55246127D01*
X64408655Y-55153174D01*
X64407337Y-55109025D01*
X64407205Y-55089664D01*
X64407457Y-55071939D01*
X64408119Y-55055722D01*
X64409214Y-55040884D01*
X64410768Y-55027295D01*
X64412806Y-55014827D01*
X64415352Y-55003351D01*
X64418431Y-54992738D01*
X64422067Y-54982858D01*
X64426287Y-54973584D01*
X64431113Y-54964786D01*
X64436572Y-54956334D01*
X64442688Y-54948101D01*
X64449486Y-54939957D01*
X64474655Y-54911043D01*
X64495896Y-54886295D01*
X64498773Y-54883081D01*
X64501922Y-54879941D01*
X64505410Y-54876839D01*
X64509307Y-54873738D01*
X64513679Y-54870602D01*
X64518596Y-54867393D01*
X64524125Y-54864075D01*
X64530335Y-54860611D01*
X64537294Y-54856965D01*
X64545069Y-54853098D01*
X64553729Y-54848976D01*
X64563342Y-54844560D01*
X64573977Y-54839814D01*
X64585701Y-54834702D01*
X64612690Y-54823229D01*
X64654272Y-54806296D01*
X64694783Y-54790712D01*
X64713187Y-54783966D01*
X64729585Y-54778206D01*
X64743396Y-54773649D01*
X64754041Y-54770510D01*
X64897660Y-54731608D01*
X65022132Y-54697133D01*
X65030779Y-54694798D01*
X65039791Y-54692618D01*
X65048901Y-54690640D01*
X65057847Y-54688913D01*
X65066362Y-54687485D01*
X65074181Y-54686403D01*
X65081041Y-54685715D01*
X65086676Y-54685469D01*
X65092235Y-54685341D01*
X65098876Y-54684992D01*
X65106350Y-54684445D01*
X65114408Y-54683726D01*
X65122799Y-54682857D01*
X65131276Y-54681865D01*
X65139587Y-54680772D01*
X65147484Y-54679603D01*
X65165165Y-54677053D01*
X65186040Y-54674417D01*
X65207502Y-54672003D01*
X65226943Y-54670122D01*
X65243753Y-54668528D01*
X65258049Y-54666897D01*
X65263781Y-54666127D01*
X65268317Y-54665419D01*
X65271469Y-54664797D01*
X65272466Y-54664526D01*
X65273046Y-54664286D01*
X65273689Y-54664043D01*
X65274875Y-54663767D01*
X65278753Y-54663123D01*
X65284440Y-54662380D01*
X65291695Y-54661562D01*
X65300278Y-54660695D01*
X65309948Y-54659804D01*
X65320466Y-54658914D01*
X65331589Y-54658050D01*
X65353266Y-54656282D01*
X65371616Y-54654460D01*
X65378938Y-54653596D01*
X65384703Y-54652801D01*
X65388668Y-54652101D01*
X65389900Y-54651795D01*
X65390592Y-54651523D01*
X65391328Y-54651238D01*
X65392694Y-54650895D01*
X65397179Y-54650052D01*
X65403769Y-54649031D01*
X65412184Y-54647868D01*
X65422145Y-54646601D01*
X65433373Y-54645266D01*
X65445590Y-54643900D01*
X65458517Y-54642541D01*
X65551284Y-54632703D01*
X65588474Y-54628220D01*
X65624036Y-54623378D01*
X65661345Y-54617688D01*
X65703777Y-54610663D01*
X65817514Y-54590655D01*
X65869765Y-54581368D01*
X65946603Y-54567684D01*
X65973050Y-54562301D01*
X66017794Y-54552510D01*
X66074582Y-54539704D01*
X66137161Y-54525278D01*
X66287227Y-54490825D01*
X66432221Y-54458284D01*
X66601265Y-54420645D01*
X66630587Y-54414079D01*
X66660815Y-54407923D01*
X66693078Y-54401998D01*
X66728506Y-54396125D01*
X66768231Y-54390125D01*
X66813383Y-54383821D01*
X66865091Y-54377033D01*
X66924487Y-54369582D01*
X66939434Y-54367978D01*
X66955134Y-54366759D01*
X66971591Y-54365924D01*
X66988807Y-54365475D01*
X67006786Y-54365410D01*
X67025532Y-54365731D01*
G37*
G36*
X66521391Y-54767116D02*
G01*
X66526426Y-54767450D01*
X66528487Y-54767695D01*
X66530215Y-54767991D01*
X66531589Y-54768338D01*
X66532588Y-54768735D01*
X66533192Y-54769181D01*
X66533338Y-54769422D01*
X66533378Y-54769674D01*
X66533284Y-54769990D01*
X66533038Y-54770418D01*
X66532101Y-54771597D01*
X66530597Y-54773188D01*
X66528557Y-54775164D01*
X66526012Y-54777500D01*
X66522992Y-54780170D01*
X66515651Y-54786411D01*
X66506780Y-54793682D01*
X66496624Y-54801779D01*
X66485430Y-54810497D01*
X66473443Y-54819633D01*
X66473444Y-54819630D01*
X66473445Y-54819627D01*
X66473446Y-54819625D01*
X66473446Y-54819623D01*
X66473447Y-54819622D01*
X66453754Y-54835073D01*
X66431835Y-54853369D01*
X66407910Y-54874289D01*
X66382197Y-54897610D01*
X66326285Y-54950572D01*
X66265851Y-55010485D01*
X66202648Y-55075576D01*
X66138426Y-55144074D01*
X66074940Y-55214207D01*
X66013941Y-55284204D01*
X65816749Y-55514719D01*
X65804109Y-55529771D01*
X65789672Y-55547595D01*
X65773943Y-55567531D01*
X65757427Y-55588918D01*
X65740629Y-55611096D01*
X65724055Y-55633404D01*
X65708208Y-55655181D01*
X65693595Y-55675767D01*
X65679837Y-55695011D01*
X65665581Y-55714153D01*
X65636232Y-55751437D01*
X65606863Y-55786230D01*
X65578791Y-55817141D01*
X65565652Y-55830707D01*
X65553331Y-55842781D01*
X65541992Y-55853190D01*
X65531800Y-55861759D01*
X65522919Y-55868316D01*
X65515513Y-55872686D01*
X65512415Y-55873996D01*
X65509747Y-55874695D01*
X65508544Y-55874731D01*
X65507531Y-55874761D01*
X65505786Y-55874171D01*
X65502695Y-55872123D01*
X65496902Y-55868141D01*
X65478550Y-55855318D01*
X65453409Y-55837582D01*
X65424159Y-55816815D01*
X65369090Y-55777937D01*
X65350004Y-55764705D01*
X65340223Y-55758175D01*
X65322995Y-55746293D01*
X65283636Y-55718474D01*
X65161922Y-55631643D01*
X64904822Y-55448237D01*
X64872998Y-55425566D01*
X64846500Y-55406264D01*
X64823725Y-55389009D01*
X64803072Y-55372479D01*
X64782939Y-55355352D01*
X64761723Y-55336305D01*
X64737822Y-55314018D01*
X64709634Y-55287166D01*
X64659027Y-55238677D01*
X64644882Y-55181853D01*
X64640722Y-55164663D01*
X64637592Y-55150292D01*
X64637218Y-55148302D01*
X64721184Y-55148302D01*
X64721233Y-55151013D01*
X64721403Y-55153677D01*
X64721695Y-55156287D01*
X64722114Y-55158836D01*
X64722661Y-55161316D01*
X64723246Y-55163279D01*
X64724046Y-55165376D01*
X64725055Y-55167601D01*
X64726268Y-55169949D01*
X64729286Y-55174991D01*
X64733057Y-55180459D01*
X64737539Y-55186309D01*
X64742690Y-55192497D01*
X64748468Y-55198980D01*
X64754831Y-55205715D01*
X64761736Y-55212658D01*
X64769141Y-55219765D01*
X64777004Y-55226994D01*
X64785283Y-55234300D01*
X64793936Y-55241640D01*
X64802920Y-55248970D01*
X64812193Y-55256247D01*
X64821713Y-55263428D01*
X65076649Y-55449640D01*
X65293566Y-55606948D01*
X65309933Y-55618614D01*
X65337410Y-55638553D01*
X65410360Y-55692079D01*
X65447089Y-55718925D01*
X65477843Y-55740912D01*
X65499402Y-55755771D01*
X65505726Y-55759819D01*
X65507599Y-55760873D01*
X65508544Y-55761233D01*
X65508795Y-55761194D01*
X65509083Y-55761074D01*
X65509408Y-55760876D01*
X65509769Y-55760601D01*
X65510163Y-55760253D01*
X65510590Y-55759832D01*
X65511536Y-55758782D01*
X65512597Y-55757466D01*
X65513762Y-55755902D01*
X65515021Y-55754105D01*
X65516363Y-55752090D01*
X65517778Y-55749875D01*
X65519256Y-55747475D01*
X65520785Y-55744905D01*
X65522356Y-55742182D01*
X65523958Y-55739323D01*
X65525581Y-55736342D01*
X65527213Y-55733256D01*
X65528846Y-55730081D01*
X65536204Y-55717060D01*
X65547136Y-55699869D01*
X65578644Y-55654373D01*
X65621218Y-55596380D01*
X65672708Y-55528679D01*
X65730965Y-55454059D01*
X65793837Y-55375308D01*
X65859175Y-55295214D01*
X65924828Y-55216567D01*
X65977773Y-55153500D01*
X66031295Y-55089128D01*
X66043316Y-55074973D01*
X66056824Y-55059763D01*
X66071361Y-55043973D01*
X66086465Y-55028080D01*
X66101678Y-55012560D01*
X66116540Y-54997889D01*
X66130591Y-54984545D01*
X66143372Y-54973002D01*
X66165957Y-54953071D01*
X66184468Y-54936375D01*
X66196994Y-54924662D01*
X66200415Y-54921222D01*
X66201311Y-54920202D01*
X66201623Y-54919684D01*
X66201511Y-54919563D01*
X66201165Y-54919454D01*
X66199797Y-54919273D01*
X66194515Y-54919051D01*
X66186148Y-54919013D01*
X66175068Y-54919151D01*
X66161648Y-54919458D01*
X66146259Y-54919928D01*
X66129272Y-54920554D01*
X66111060Y-54921329D01*
X66111057Y-54921344D01*
X65688805Y-54941938D01*
X65558592Y-54949523D01*
X65476373Y-54955622D01*
X65339094Y-54968031D01*
X65273524Y-54975767D01*
X65193052Y-54988061D01*
X65104041Y-55003633D01*
X65012852Y-55021203D01*
X64925848Y-55039491D01*
X64849390Y-55057216D01*
X64789841Y-55073097D01*
X64768396Y-55079947D01*
X64753563Y-55085856D01*
X64751573Y-55086898D01*
X64749617Y-55088103D01*
X64747699Y-55089462D01*
X64745822Y-55090967D01*
X64743990Y-55092612D01*
X64742204Y-55094387D01*
X64740468Y-55096285D01*
X64738786Y-55098300D01*
X64737161Y-55100422D01*
X64735596Y-55102644D01*
X64734093Y-55104959D01*
X64732656Y-55107359D01*
X64729994Y-55112383D01*
X64727634Y-55117653D01*
X64725602Y-55123109D01*
X64723922Y-55128689D01*
X64722620Y-55134330D01*
X64722119Y-55137155D01*
X64721721Y-55139973D01*
X64721431Y-55142775D01*
X64721250Y-55145554D01*
X64721184Y-55148302D01*
X64637218Y-55148302D01*
X64636395Y-55143917D01*
X64635433Y-55137950D01*
X64634698Y-55132294D01*
X64634184Y-55126848D01*
X64633882Y-55121515D01*
X64633785Y-55116195D01*
X64633886Y-55110790D01*
X64634177Y-55105201D01*
X64634650Y-55099330D01*
X64635299Y-55093077D01*
X64637092Y-55079032D01*
X64639220Y-55064082D01*
X64640194Y-55057944D01*
X64641165Y-55052589D01*
X64642174Y-55047935D01*
X64643265Y-55043901D01*
X64644481Y-55040404D01*
X64645863Y-55037364D01*
X64647454Y-55034698D01*
X64648342Y-55033480D01*
X64649298Y-55032326D01*
X64651436Y-55030164D01*
X64653910Y-55028133D01*
X64656765Y-55026149D01*
X64660041Y-55024132D01*
X64668031Y-55019671D01*
X64681379Y-55013136D01*
X64698609Y-55005849D01*
X64742916Y-54989541D01*
X64797349Y-54971778D01*
X64858302Y-54953593D01*
X64922171Y-54936019D01*
X64985353Y-54920089D01*
X65044243Y-54906834D01*
X65095237Y-54897287D01*
X65172090Y-54884953D01*
X65194142Y-54881190D01*
X65221267Y-54876331D01*
X65241461Y-54872897D01*
X65264244Y-54869530D01*
X65289498Y-54866243D01*
X65317104Y-54863050D01*
X65346946Y-54859963D01*
X65378906Y-54856995D01*
X65412866Y-54854159D01*
X65448708Y-54851468D01*
X65521084Y-54845956D01*
X65590662Y-54839925D01*
X65656893Y-54833424D01*
X65719225Y-54826506D01*
X65741002Y-54824040D01*
X65763907Y-54821633D01*
X65785217Y-54819558D01*
X65802211Y-54818090D01*
X65819443Y-54816575D01*
X65841404Y-54814384D01*
X65865272Y-54811807D01*
X65888223Y-54809136D01*
X65927764Y-54804872D01*
X65978815Y-54800199D01*
X66104303Y-54790423D01*
X66242386Y-54781398D01*
X66370768Y-54774717D01*
X66405070Y-54773124D01*
X66439394Y-54771324D01*
X66469756Y-54769538D01*
X66492172Y-54767984D01*
X66500501Y-54767424D01*
X66508260Y-54767097D01*
X66515279Y-54766996D01*
X66521391Y-54767116D01*
G37*
G36*
X65513066Y-56990735D02*
G01*
X65513627Y-56990932D01*
X65515128Y-56991703D01*
X65517108Y-56992958D01*
X65519538Y-56994670D01*
X65522385Y-56996812D01*
X65525620Y-56999360D01*
X65529212Y-57002286D01*
X65533130Y-57005565D01*
X65541821Y-57013078D01*
X65551447Y-57021690D01*
X65561761Y-57031194D01*
X65572519Y-57041382D01*
X65579312Y-57048022D01*
X65586169Y-57054965D01*
X65600113Y-57069805D01*
X65614419Y-57085987D01*
X65629155Y-57103593D01*
X65644391Y-57122708D01*
X65660194Y-57143416D01*
X65676634Y-57165802D01*
X65693779Y-57189949D01*
X65738998Y-57250877D01*
X65800647Y-57328616D01*
X65874260Y-57417957D01*
X65955366Y-57513689D01*
X66039496Y-57610602D01*
X66122183Y-57703486D01*
X66198958Y-57787131D01*
X66265351Y-57856327D01*
X66291541Y-57882451D01*
X66318509Y-57908804D01*
X66345481Y-57934669D01*
X66371687Y-57959327D01*
X66396356Y-57982060D01*
X66418715Y-58002148D01*
X66437994Y-58018874D01*
X66453421Y-58031518D01*
X66501576Y-58069377D01*
X66527185Y-58089830D01*
X66527856Y-58090440D01*
X66528377Y-58091015D01*
X66528739Y-58091556D01*
X66528858Y-58091814D01*
X66528934Y-58092063D01*
X66528966Y-58092305D01*
X66528954Y-58092538D01*
X66528895Y-58092763D01*
X66528790Y-58092980D01*
X66528636Y-58093188D01*
X66528434Y-58093389D01*
X66528181Y-58093582D01*
X66527877Y-58093766D01*
X66527110Y-58094112D01*
X66526126Y-58094427D01*
X66524916Y-58094711D01*
X66523471Y-58094965D01*
X66521783Y-58095189D01*
X66519843Y-58095383D01*
X66517644Y-58095548D01*
X66515175Y-58095684D01*
X66512430Y-58095792D01*
X66509399Y-58095871D01*
X66502446Y-58095949D01*
X66494250Y-58095919D01*
X66484742Y-58095785D01*
X66473854Y-58095550D01*
X66461520Y-58095218D01*
X66447670Y-58094791D01*
X66432237Y-58094272D01*
X66432238Y-58094272D01*
X66432238Y-58094271D01*
X66432239Y-58094270D01*
X66432240Y-58094270D01*
X66432240Y-58094269D01*
X66432241Y-58094269D01*
X66385845Y-58092420D01*
X66336770Y-58090044D01*
X66290864Y-58087451D01*
X66253976Y-58084952D01*
X66204800Y-58081319D01*
X66172989Y-58078969D01*
X66081859Y-58072576D01*
X66017092Y-58067922D01*
X65956067Y-58062877D01*
X65888782Y-58056554D01*
X65805241Y-58048066D01*
X65682300Y-58035653D01*
X65618293Y-58029215D01*
X65559358Y-58023091D01*
X65533519Y-58020554D01*
X65504062Y-58018013D01*
X65474615Y-58015759D01*
X65448805Y-58014088D01*
X65424020Y-58012492D01*
X65397723Y-58010441D01*
X65343504Y-58005279D01*
X65317037Y-58002323D01*
X65291967Y-57999219D01*
X65269023Y-57996044D01*
X65248932Y-57992877D01*
X65231924Y-57990083D01*
X65210609Y-57986735D01*
X65187708Y-57983254D01*
X65165946Y-57980060D01*
X65111103Y-57971678D01*
X65086635Y-57967552D01*
X65064595Y-57963555D01*
X65045327Y-57959753D01*
X65029175Y-57956211D01*
X65016484Y-57952994D01*
X65007598Y-57950166D01*
X65004214Y-57948931D01*
X65001058Y-57947891D01*
X64998198Y-57947060D01*
X64995702Y-57946452D01*
X64994613Y-57946237D01*
X64993641Y-57946082D01*
X64992795Y-57945991D01*
X64992083Y-57945965D01*
X64991515Y-57946006D01*
X64991098Y-57946115D01*
X64990949Y-57946196D01*
X64990841Y-57946294D01*
X64990776Y-57946411D01*
X64990754Y-57946546D01*
X64990734Y-57946680D01*
X64990673Y-57946797D01*
X64990572Y-57946897D01*
X64990434Y-57946980D01*
X64990258Y-57947047D01*
X64990046Y-57947097D01*
X64989798Y-57947132D01*
X64989516Y-57947150D01*
X64989201Y-57947153D01*
X64988854Y-57947141D01*
X64988066Y-57947070D01*
X64987161Y-57946939D01*
X64986147Y-57946750D01*
X64985032Y-57946505D01*
X64983823Y-57946205D01*
X64982530Y-57945852D01*
X64981160Y-57945447D01*
X64979721Y-57944992D01*
X64978221Y-57944488D01*
X64976668Y-57943937D01*
X64975071Y-57943341D01*
X64971560Y-57942077D01*
X64967589Y-57940776D01*
X64963294Y-57939476D01*
X64958812Y-57938213D01*
X64954279Y-57937024D01*
X64949832Y-57935946D01*
X64945608Y-57935016D01*
X64941743Y-57934272D01*
X64928051Y-57931514D01*
X64911818Y-57927664D01*
X64873459Y-57917264D01*
X64830126Y-57904228D01*
X64785279Y-57889714D01*
X64742381Y-57874880D01*
X64704890Y-57860884D01*
X64676270Y-57848882D01*
X64666367Y-57843991D01*
X64659979Y-57840033D01*
X64657461Y-57837911D01*
X64655072Y-57835515D01*
X64652814Y-57832854D01*
X64650686Y-57829935D01*
X64648691Y-57826765D01*
X64646827Y-57823353D01*
X64645096Y-57819705D01*
X64643498Y-57815830D01*
X64642034Y-57811734D01*
X64640705Y-57807427D01*
X64638452Y-57798205D01*
X64636745Y-57788227D01*
X64635588Y-57777552D01*
X64634986Y-57766241D01*
X64634944Y-57754357D01*
X64635468Y-57741959D01*
X64636561Y-57729110D01*
X64637954Y-57718055D01*
X64722188Y-57718055D01*
X64722203Y-57720641D01*
X64722347Y-57723264D01*
X64722619Y-57725932D01*
X64723017Y-57728652D01*
X64723538Y-57731430D01*
X64724944Y-57737192D01*
X64726818Y-57743276D01*
X64729145Y-57749738D01*
X64731261Y-57755369D01*
X64733202Y-57760294D01*
X64734198Y-57762527D01*
X64735260Y-57764628D01*
X64736423Y-57766611D01*
X64737726Y-57768492D01*
X64739204Y-57770283D01*
X64740893Y-57772002D01*
X64742831Y-57773661D01*
X64745053Y-57775276D01*
X64747596Y-57776863D01*
X64750496Y-57778434D01*
X64753790Y-57780006D01*
X64757515Y-57781593D01*
X64761707Y-57783210D01*
X64766402Y-57784871D01*
X64771638Y-57786591D01*
X64777449Y-57788386D01*
X64783873Y-57790269D01*
X64790947Y-57792256D01*
X64807188Y-57796600D01*
X64826464Y-57801535D01*
X64849066Y-57807179D01*
X64905418Y-57821069D01*
X64955228Y-57832850D01*
X65007325Y-57844258D01*
X65060627Y-57855097D01*
X65114051Y-57865171D01*
X65166516Y-57874283D01*
X65216938Y-57882238D01*
X65264237Y-57888839D01*
X65307329Y-57893891D01*
X65447898Y-57907994D01*
X65506250Y-57913108D01*
X65565475Y-57917534D01*
X65632196Y-57921725D01*
X65713034Y-57926134D01*
X65943550Y-57937418D01*
X66140256Y-57946870D01*
X66204800Y-57949995D01*
X66173845Y-57920590D01*
X66140302Y-57888990D01*
X66103126Y-57854306D01*
X66103124Y-57854324D01*
X66082384Y-57833543D01*
X66054871Y-57803613D01*
X65983619Y-57721421D01*
X65897551Y-57617972D01*
X65804846Y-57503490D01*
X65713686Y-57388196D01*
X65632250Y-57282316D01*
X65568720Y-57196072D01*
X65546225Y-57163508D01*
X65531275Y-57139686D01*
X65509340Y-57101179D01*
X65417556Y-57169055D01*
X65344934Y-57222376D01*
X65316772Y-57242786D01*
X65299221Y-57255259D01*
X65159981Y-57354738D01*
X64984782Y-57483713D01*
X64830905Y-57599568D01*
X64779863Y-57639257D01*
X64755633Y-57659684D01*
X64749405Y-57666485D01*
X64743866Y-57672862D01*
X64738998Y-57678872D01*
X64734784Y-57684574D01*
X64731209Y-57690023D01*
X64729655Y-57692671D01*
X64728254Y-57695278D01*
X64727004Y-57697850D01*
X64725903Y-57700396D01*
X64724949Y-57702921D01*
X64724139Y-57705434D01*
X64723472Y-57707941D01*
X64722946Y-57710449D01*
X64722558Y-57712966D01*
X64722306Y-57715499D01*
X64722188Y-57718055D01*
X64637954Y-57718055D01*
X64638229Y-57715870D01*
X64640477Y-57702300D01*
X64643309Y-57688462D01*
X64646731Y-57674416D01*
X64659238Y-57626889D01*
X64728178Y-57560897D01*
X64753233Y-57537083D01*
X64764663Y-57526529D01*
X64776138Y-57516291D01*
X64788238Y-57505930D01*
X64801547Y-57495008D01*
X64816645Y-57483083D01*
X64834115Y-57469719D01*
X64854538Y-57454474D01*
X64878496Y-57436910D01*
X64906571Y-57416588D01*
X64939344Y-57393069D01*
X65021314Y-57334679D01*
X65129060Y-57258228D01*
X65424897Y-57048158D01*
X65456784Y-57025837D01*
X65471139Y-57016074D01*
X65483955Y-57007557D01*
X65494873Y-57000522D01*
X65503532Y-56995205D01*
X65509574Y-56991842D01*
X65511500Y-56990967D01*
X65512637Y-56990668D01*
X65513066Y-56990735D01*
G37*
G36*
X68591025Y-56029789D02*
G01*
X68608334Y-56030685D01*
X68626028Y-56032206D01*
X68644100Y-56034355D01*
X68662541Y-56037135D01*
X68681346Y-56040548D01*
X68700506Y-56044598D01*
X68707570Y-56046392D01*
X68715042Y-56048665D01*
X68722887Y-56051399D01*
X68731072Y-56054576D01*
X68739563Y-56058178D01*
X68748326Y-56062186D01*
X68757326Y-56066583D01*
X68766530Y-56071351D01*
X68775903Y-56076471D01*
X68785411Y-56081926D01*
X68795021Y-56087696D01*
X68804698Y-56093764D01*
X68814408Y-56100113D01*
X68824118Y-56106722D01*
X68833792Y-56113576D01*
X68843397Y-56120655D01*
X68850532Y-56126252D01*
X68857552Y-56132234D01*
X68864463Y-56138611D01*
X68871273Y-56145393D01*
X68877991Y-56152591D01*
X68884624Y-56160215D01*
X68891180Y-56168276D01*
X68897666Y-56176785D01*
X68904092Y-56185752D01*
X68910463Y-56195187D01*
X68916789Y-56205102D01*
X68923076Y-56215507D01*
X68929334Y-56226412D01*
X68935569Y-56237828D01*
X68941790Y-56249765D01*
X68948003Y-56262235D01*
X68952389Y-56270940D01*
X68957973Y-56281567D01*
X68971822Y-56306939D01*
X68987718Y-56335057D01*
X69003830Y-56362626D01*
X69011423Y-56375530D01*
X69018493Y-56387851D01*
X69024884Y-56399301D01*
X69030444Y-56409588D01*
X69035018Y-56418423D01*
X69038454Y-56425517D01*
X69040596Y-56430578D01*
X69041134Y-56432256D01*
X69041292Y-56433317D01*
X69040971Y-56434543D01*
X69040103Y-56436704D01*
X69036843Y-56443624D01*
X69031737Y-56453655D01*
X69025009Y-56466378D01*
X69016886Y-56481372D01*
X69007591Y-56498217D01*
X68997352Y-56516493D01*
X68986391Y-56535779D01*
X68986392Y-56535779D01*
X68986393Y-56535779D01*
X68986394Y-56535779D01*
X68950272Y-56598603D01*
X68921697Y-56646938D01*
X68909572Y-56666505D01*
X68898533Y-56683450D01*
X68888312Y-56698106D01*
X68878641Y-56710807D01*
X68869255Y-56721885D01*
X68859886Y-56731674D01*
X68850267Y-56740508D01*
X68840130Y-56748719D01*
X68829209Y-56756641D01*
X68817236Y-56764608D01*
X68789067Y-56782008D01*
X68776973Y-56789123D01*
X68765277Y-56795587D01*
X68753866Y-56801428D01*
X68742629Y-56806673D01*
X68731454Y-56811349D01*
X68720230Y-56815484D01*
X68708844Y-56819105D01*
X68697184Y-56822240D01*
X68685139Y-56824916D01*
X68672597Y-56827160D01*
X68659446Y-56829000D01*
X68645574Y-56830463D01*
X68630869Y-56831577D01*
X68615220Y-56832369D01*
X68598514Y-56832866D01*
X68580640Y-56833097D01*
X68562096Y-56833051D01*
X68544843Y-56832678D01*
X68528781Y-56831952D01*
X68513812Y-56830843D01*
X68499837Y-56829323D01*
X68486756Y-56827366D01*
X68474471Y-56824942D01*
X68462882Y-56822025D01*
X68451890Y-56818585D01*
X68441397Y-56814595D01*
X68431303Y-56810027D01*
X68421509Y-56804854D01*
X68411916Y-56799046D01*
X68402424Y-56792577D01*
X68392936Y-56785418D01*
X68383352Y-56777541D01*
X68367805Y-56763599D01*
X68360602Y-56756572D01*
X68353770Y-56749470D01*
X68347300Y-56742264D01*
X68341184Y-56734927D01*
X68335415Y-56727429D01*
X68329986Y-56719742D01*
X68324887Y-56711839D01*
X68320112Y-56703690D01*
X68315653Y-56695268D01*
X68311501Y-56686544D01*
X68307650Y-56677490D01*
X68304091Y-56668078D01*
X68300817Y-56658279D01*
X68297820Y-56648064D01*
X68295091Y-56637406D01*
X68292624Y-56626277D01*
X68290411Y-56614647D01*
X68288443Y-56602489D01*
X68286714Y-56589774D01*
X68285214Y-56576474D01*
X68282875Y-56548005D01*
X68281363Y-56516856D01*
X68280617Y-56482801D01*
X68280575Y-56445612D01*
X68281173Y-56405063D01*
X68283231Y-56327387D01*
X68284490Y-56299956D01*
X68286090Y-56278102D01*
X68288172Y-56260306D01*
X68290878Y-56245045D01*
X68294348Y-56230800D01*
X68298724Y-56216049D01*
X68303591Y-56201746D01*
X68309024Y-56187989D01*
X68315016Y-56174783D01*
X68321560Y-56162131D01*
X68328649Y-56150034D01*
X68336276Y-56138497D01*
X68344434Y-56127522D01*
X68353116Y-56117112D01*
X68362315Y-56107271D01*
X68372024Y-56098000D01*
X68382236Y-56089304D01*
X68392943Y-56081185D01*
X68404141Y-56073646D01*
X68415820Y-56066691D01*
X68427974Y-56060321D01*
X68440596Y-56054540D01*
X68453679Y-56049352D01*
X68467217Y-56044758D01*
X68481201Y-56040763D01*
X68495626Y-56037368D01*
X68510484Y-56034578D01*
X68525768Y-56032394D01*
X68541471Y-56030820D01*
X68557586Y-56029860D01*
X68574106Y-56029515D01*
X68591025Y-56029789D01*
G37*
G36*
X67013798Y-55559975D02*
G01*
X67018543Y-55560444D01*
X67023647Y-55561266D01*
X67030751Y-55563104D01*
X67038918Y-55566121D01*
X67047989Y-55570204D01*
X67057805Y-55575242D01*
X67068210Y-55581122D01*
X67079044Y-55587732D01*
X67090149Y-55594961D01*
X67101367Y-55602695D01*
X67112540Y-55610822D01*
X67123509Y-55619232D01*
X67134117Y-55627811D01*
X67144204Y-55636447D01*
X67153612Y-55645029D01*
X67162184Y-55653443D01*
X67169761Y-55661579D01*
X67176185Y-55669324D01*
X67183656Y-55679148D01*
X67190319Y-55688275D01*
X67196229Y-55696879D01*
X67201439Y-55705137D01*
X67206004Y-55713224D01*
X67209979Y-55721317D01*
X67213416Y-55729589D01*
X67214950Y-55733848D01*
X67216370Y-55738219D01*
X67218896Y-55747380D01*
X67221047Y-55757248D01*
X67222877Y-55768001D01*
X67224441Y-55779812D01*
X67225793Y-55792858D01*
X67226987Y-55807314D01*
X67228076Y-55823357D01*
X67229116Y-55841161D01*
X67231334Y-55877555D01*
X67233733Y-55910759D01*
X67236025Y-55937104D01*
X67237043Y-55946559D01*
X67237927Y-55952924D01*
X67241832Y-55975554D01*
X67206118Y-55966231D01*
X67180387Y-55958642D01*
X67149871Y-55948275D01*
X67116741Y-55936016D01*
X67083166Y-55922748D01*
X67051317Y-55909356D01*
X67023364Y-55896724D01*
X67001478Y-55885737D01*
X66993487Y-55881136D01*
X66987827Y-55877278D01*
X66984574Y-55874636D01*
X66981529Y-55871953D01*
X66978667Y-55869184D01*
X66975962Y-55866285D01*
X66973389Y-55863212D01*
X66970922Y-55859919D01*
X66968536Y-55856362D01*
X66966205Y-55852497D01*
X66963904Y-55848278D01*
X66961606Y-55843662D01*
X66959287Y-55838603D01*
X66956921Y-55833057D01*
X66954482Y-55826980D01*
X66951945Y-55820326D01*
X66949284Y-55813051D01*
X66946473Y-55805111D01*
X66940656Y-55788111D01*
X66938273Y-55780760D01*
X66936218Y-55774022D01*
X66934475Y-55767780D01*
X66933027Y-55761921D01*
X66931857Y-55756327D01*
X66930949Y-55750885D01*
X66930286Y-55745479D01*
X66929850Y-55739992D01*
X66929626Y-55734311D01*
X66929596Y-55728320D01*
X66929745Y-55721903D01*
X66930054Y-55714945D01*
X66931090Y-55698944D01*
X66932328Y-55683965D01*
X66933014Y-55677373D01*
X66933770Y-55671289D01*
X66934616Y-55665646D01*
X66935569Y-55660377D01*
X66936650Y-55655413D01*
X66937876Y-55650689D01*
X66939269Y-55646136D01*
X66940845Y-55641687D01*
X66942625Y-55637275D01*
X66944627Y-55632832D01*
X66946871Y-55628291D01*
X66949376Y-55623584D01*
X66955243Y-55613405D01*
X66960561Y-55604638D01*
X66965490Y-55596796D01*
X66970084Y-55589837D01*
X66974397Y-55583722D01*
X66978481Y-55578410D01*
X66982391Y-55573859D01*
X66986179Y-55570028D01*
X66988045Y-55568371D01*
X66989900Y-55566878D01*
X66991752Y-55565546D01*
X66993606Y-55564368D01*
X66995471Y-55563339D01*
X66997352Y-55562455D01*
X66999257Y-55561711D01*
X67001191Y-55561101D01*
X67003161Y-55560620D01*
X67005176Y-55560263D01*
X67007240Y-55560025D01*
X67009360Y-55559901D01*
X67013798Y-55559975D01*
G37*
G36*
X67236527Y-56892460D02*
G01*
X67237039Y-56892712D01*
X67237510Y-56893127D01*
X67237940Y-56893697D01*
X67238329Y-56894414D01*
X67238678Y-56895268D01*
X67238986Y-56896252D01*
X67239254Y-56897358D01*
X67239673Y-56899899D01*
X67239934Y-56902825D01*
X67240042Y-56906067D01*
X67239998Y-56909559D01*
X67239804Y-56913234D01*
X67239464Y-56917023D01*
X67238978Y-56920861D01*
X67238349Y-56924679D01*
X67237580Y-56928410D01*
X67236673Y-56931987D01*
X67235629Y-56935343D01*
X67234453Y-56938410D01*
X67234433Y-56938412D01*
X67233890Y-56940033D01*
X67233359Y-56942333D01*
X67232842Y-56945269D01*
X67232341Y-56948798D01*
X67231404Y-56957464D01*
X67230569Y-56967990D01*
X67229861Y-56980032D01*
X67229301Y-56993249D01*
X67228913Y-57007299D01*
X67228720Y-57021839D01*
X67228524Y-57037115D01*
X67228102Y-57051255D01*
X67227425Y-57064366D01*
X67226462Y-57076553D01*
X67225185Y-57087922D01*
X67223564Y-57098578D01*
X67221569Y-57108628D01*
X67219172Y-57118176D01*
X67216343Y-57127328D01*
X67213052Y-57136190D01*
X67209270Y-57144868D01*
X67204968Y-57153467D01*
X67200116Y-57162093D01*
X67194684Y-57170851D01*
X67188644Y-57179848D01*
X67181966Y-57189188D01*
X67175358Y-57197542D01*
X67167557Y-57206291D01*
X67158724Y-57215317D01*
X67149018Y-57224505D01*
X67138601Y-57233738D01*
X67127632Y-57242898D01*
X67116272Y-57251870D01*
X67104681Y-57260536D01*
X67093019Y-57268781D01*
X67081448Y-57276487D01*
X67070128Y-57283538D01*
X67059218Y-57289816D01*
X67048879Y-57295207D01*
X67039272Y-57299592D01*
X67030557Y-57302855D01*
X67022895Y-57304880D01*
X67018854Y-57305634D01*
X67015216Y-57306248D01*
X67011940Y-57306707D01*
X67008985Y-57307001D01*
X67006310Y-57307116D01*
X67003875Y-57307041D01*
X67002735Y-57306928D01*
X67001639Y-57306763D01*
X67000583Y-57306544D01*
X66999561Y-57306270D01*
X66998569Y-57305939D01*
X66997601Y-57305550D01*
X66996652Y-57305101D01*
X66995717Y-57304590D01*
X66994791Y-57304016D01*
X66993869Y-57303378D01*
X66992016Y-57301902D01*
X66990118Y-57300150D01*
X66988133Y-57298109D01*
X66986022Y-57295767D01*
X66983742Y-57293112D01*
X66977447Y-57285441D01*
X66971625Y-57277882D01*
X66966260Y-57270397D01*
X66961339Y-57262949D01*
X66956845Y-57255501D01*
X66952763Y-57248014D01*
X66949079Y-57240451D01*
X66945778Y-57232775D01*
X66942843Y-57224949D01*
X66940261Y-57216933D01*
X66938015Y-57208692D01*
X66936092Y-57200187D01*
X66934475Y-57191380D01*
X66933149Y-57182235D01*
X66932101Y-57172714D01*
X66931313Y-57162778D01*
X66930430Y-57147115D01*
X66930177Y-57140223D01*
X66930063Y-57133837D01*
X66930100Y-57127870D01*
X66930301Y-57122233D01*
X66930675Y-57116836D01*
X66931235Y-57111591D01*
X66931992Y-57106408D01*
X66932957Y-57101200D01*
X66934142Y-57095877D01*
X66935557Y-57090350D01*
X66937215Y-57084530D01*
X66939127Y-57078328D01*
X66943755Y-57064425D01*
X66948090Y-57052304D01*
X66952443Y-57041283D01*
X66956940Y-57031253D01*
X66959282Y-57026575D01*
X66961708Y-57022104D01*
X66964233Y-57017826D01*
X66966872Y-57013728D01*
X66969643Y-57009796D01*
X66972559Y-57006015D01*
X66975638Y-57002374D01*
X66978896Y-56998857D01*
X66982346Y-56995451D01*
X66986007Y-56992143D01*
X66989892Y-56988919D01*
X66994019Y-56985766D01*
X66998402Y-56982669D01*
X67003058Y-56979615D01*
X67008002Y-56976591D01*
X67013250Y-56973582D01*
X67024722Y-56967557D01*
X67037599Y-56961431D01*
X67052008Y-56955096D01*
X67068075Y-56948441D01*
X67085925Y-56941358D01*
X67112306Y-56931245D01*
X67137476Y-56921956D01*
X67160951Y-56913650D01*
X67182247Y-56906484D01*
X67200881Y-56900616D01*
X67216369Y-56896204D01*
X67228227Y-56893406D01*
X67232644Y-56892662D01*
X67235973Y-56892381D01*
X67236527Y-56892460D01*
G37*
D11*
X65831277Y-59753284D02*
X64831277Y-59753284D01*
X64831277Y-59753284D02*
X64831277Y-60134236D01*
X64831277Y-60134236D02*
X64878896Y-60229474D01*
X64878896Y-60229474D02*
X64926515Y-60277093D01*
X64926515Y-60277093D02*
X65021753Y-60324712D01*
X65021753Y-60324712D02*
X65164610Y-60324712D01*
X65164610Y-60324712D02*
X65259848Y-60277093D01*
X65259848Y-60277093D02*
X65307467Y-60229474D01*
X65307467Y-60229474D02*
X65355086Y-60134236D01*
X65355086Y-60134236D02*
X65355086Y-59753284D01*
X65831277Y-60753284D02*
X64831277Y-60753284D01*
X65831277Y-61181855D02*
X65307467Y-61181855D01*
X65307467Y-61181855D02*
X65212229Y-61134236D01*
X65212229Y-61134236D02*
X65164610Y-61038998D01*
X65164610Y-61038998D02*
X65164610Y-60896141D01*
X65164610Y-60896141D02*
X65212229Y-60800903D01*
X65212229Y-60800903D02*
X65259848Y-60753284D01*
X65831277Y-62086617D02*
X65307467Y-62086617D01*
X65307467Y-62086617D02*
X65212229Y-62038998D01*
X65212229Y-62038998D02*
X65164610Y-61943760D01*
X65164610Y-61943760D02*
X65164610Y-61753284D01*
X65164610Y-61753284D02*
X65212229Y-61658046D01*
X65783658Y-62086617D02*
X65831277Y-61991379D01*
X65831277Y-61991379D02*
X65831277Y-61753284D01*
X65831277Y-61753284D02*
X65783658Y-61658046D01*
X65783658Y-61658046D02*
X65688419Y-61610427D01*
X65688419Y-61610427D02*
X65593181Y-61610427D01*
X65593181Y-61610427D02*
X65497943Y-61658046D01*
X65497943Y-61658046D02*
X65450324Y-61753284D01*
X65450324Y-61753284D02*
X65450324Y-61991379D01*
X65450324Y-61991379D02*
X65402705Y-62086617D01*
X65783658Y-62515189D02*
X65831277Y-62610427D01*
X65831277Y-62610427D02*
X65831277Y-62800903D01*
X65831277Y-62800903D02*
X65783658Y-62896141D01*
X65783658Y-62896141D02*
X65688419Y-62943760D01*
X65688419Y-62943760D02*
X65640800Y-62943760D01*
X65640800Y-62943760D02*
X65545562Y-62896141D01*
X65545562Y-62896141D02*
X65497943Y-62800903D01*
X65497943Y-62800903D02*
X65497943Y-62658046D01*
X65497943Y-62658046D02*
X65450324Y-62562808D01*
X65450324Y-62562808D02*
X65355086Y-62515189D01*
X65355086Y-62515189D02*
X65307467Y-62515189D01*
X65307467Y-62515189D02*
X65212229Y-62562808D01*
X65212229Y-62562808D02*
X65164610Y-62658046D01*
X65164610Y-62658046D02*
X65164610Y-62800903D01*
X65164610Y-62800903D02*
X65212229Y-62896141D01*
X65783658Y-63753284D02*
X65831277Y-63658046D01*
X65831277Y-63658046D02*
X65831277Y-63467570D01*
X65831277Y-63467570D02*
X65783658Y-63372332D01*
X65783658Y-63372332D02*
X65688419Y-63324713D01*
X65688419Y-63324713D02*
X65307467Y-63324713D01*
X65307467Y-63324713D02*
X65212229Y-63372332D01*
X65212229Y-63372332D02*
X65164610Y-63467570D01*
X65164610Y-63467570D02*
X65164610Y-63658046D01*
X65164610Y-63658046D02*
X65212229Y-63753284D01*
X65212229Y-63753284D02*
X65307467Y-63800903D01*
X65307467Y-63800903D02*
X65402705Y-63800903D01*
X65402705Y-63800903D02*
X65497943Y-63324713D01*
X65450324Y-64229475D02*
X65450324Y-64991380D01*
X65545562Y-65419951D02*
X65545562Y-65896141D01*
X65831277Y-65324713D02*
X64831277Y-65658046D01*
X64831277Y-65658046D02*
X65831277Y-65991379D01*
X65831277Y-66324713D02*
X65164610Y-66324713D01*
X65259848Y-66324713D02*
X65212229Y-66372332D01*
X65212229Y-66372332D02*
X65164610Y-66467570D01*
X65164610Y-66467570D02*
X65164610Y-66610427D01*
X65164610Y-66610427D02*
X65212229Y-66705665D01*
X65212229Y-66705665D02*
X65307467Y-66753284D01*
X65307467Y-66753284D02*
X65831277Y-66753284D01*
X65307467Y-66753284D02*
X65212229Y-66800903D01*
X65212229Y-66800903D02*
X65164610Y-66896141D01*
X65164610Y-66896141D02*
X65164610Y-67038998D01*
X65164610Y-67038998D02*
X65212229Y-67134237D01*
X65212229Y-67134237D02*
X65307467Y-67181856D01*
X65307467Y-67181856D02*
X65831277Y-67181856D01*
X65164610Y-67658046D02*
X66164610Y-67658046D01*
X65212229Y-67658046D02*
X65164610Y-67753284D01*
X65164610Y-67753284D02*
X65164610Y-67943760D01*
X65164610Y-67943760D02*
X65212229Y-68038998D01*
X65212229Y-68038998D02*
X65259848Y-68086617D01*
X65259848Y-68086617D02*
X65355086Y-68134236D01*
X65355086Y-68134236D02*
X65640800Y-68134236D01*
X65640800Y-68134236D02*
X65736038Y-68086617D01*
X65736038Y-68086617D02*
X65783658Y-68038998D01*
X65783658Y-68038998D02*
X65831277Y-67943760D01*
X65831277Y-67943760D02*
X65831277Y-67753284D01*
X65831277Y-67753284D02*
X65783658Y-67658046D01*
X65831277Y-68705665D02*
X65783658Y-68610427D01*
X65783658Y-68610427D02*
X65688419Y-68562808D01*
X65688419Y-68562808D02*
X64831277Y-68562808D01*
X65831277Y-69086618D02*
X65164610Y-69086618D01*
X64831277Y-69086618D02*
X64878896Y-69038999D01*
X64878896Y-69038999D02*
X64926515Y-69086618D01*
X64926515Y-69086618D02*
X64878896Y-69134237D01*
X64878896Y-69134237D02*
X64831277Y-69086618D01*
X64831277Y-69086618D02*
X64926515Y-69086618D01*
X65164610Y-69419951D02*
X65164610Y-69800903D01*
X64831277Y-69562808D02*
X65688419Y-69562808D01*
X65688419Y-69562808D02*
X65783658Y-69610427D01*
X65783658Y-69610427D02*
X65831277Y-69705665D01*
X65831277Y-69705665D02*
X65831277Y-69800903D01*
X65164610Y-70562808D02*
X65831277Y-70562808D01*
X65164610Y-70134237D02*
X65688419Y-70134237D01*
X65688419Y-70134237D02*
X65783658Y-70181856D01*
X65783658Y-70181856D02*
X65831277Y-70277094D01*
X65831277Y-70277094D02*
X65831277Y-70419951D01*
X65831277Y-70419951D02*
X65783658Y-70515189D01*
X65783658Y-70515189D02*
X65736038Y-70562808D01*
X65831277Y-71467570D02*
X64831277Y-71467570D01*
X65783658Y-71467570D02*
X65831277Y-71372332D01*
X65831277Y-71372332D02*
X65831277Y-71181856D01*
X65831277Y-71181856D02*
X65783658Y-71086618D01*
X65783658Y-71086618D02*
X65736038Y-71038999D01*
X65736038Y-71038999D02*
X65640800Y-70991380D01*
X65640800Y-70991380D02*
X65355086Y-70991380D01*
X65355086Y-70991380D02*
X65259848Y-71038999D01*
X65259848Y-71038999D02*
X65212229Y-71086618D01*
X65212229Y-71086618D02*
X65164610Y-71181856D01*
X65164610Y-71181856D02*
X65164610Y-71372332D01*
X65164610Y-71372332D02*
X65212229Y-71467570D01*
X65783658Y-72324713D02*
X65831277Y-72229475D01*
X65831277Y-72229475D02*
X65831277Y-72038999D01*
X65831277Y-72038999D02*
X65783658Y-71943761D01*
X65783658Y-71943761D02*
X65688419Y-71896142D01*
X65688419Y-71896142D02*
X65307467Y-71896142D01*
X65307467Y-71896142D02*
X65212229Y-71943761D01*
X65212229Y-71943761D02*
X65164610Y-72038999D01*
X65164610Y-72038999D02*
X65164610Y-72229475D01*
X65164610Y-72229475D02*
X65212229Y-72324713D01*
X65212229Y-72324713D02*
X65307467Y-72372332D01*
X65307467Y-72372332D02*
X65402705Y-72372332D01*
X65402705Y-72372332D02*
X65497943Y-71896142D01*
X67441221Y-59753284D02*
X66441221Y-59753284D01*
X66441221Y-59753284D02*
X66441221Y-59991379D01*
X66441221Y-59991379D02*
X66488840Y-60134236D01*
X66488840Y-60134236D02*
X66584078Y-60229474D01*
X66584078Y-60229474D02*
X66679316Y-60277093D01*
X66679316Y-60277093D02*
X66869792Y-60324712D01*
X66869792Y-60324712D02*
X67012649Y-60324712D01*
X67012649Y-60324712D02*
X67203125Y-60277093D01*
X67203125Y-60277093D02*
X67298363Y-60229474D01*
X67298363Y-60229474D02*
X67393602Y-60134236D01*
X67393602Y-60134236D02*
X67441221Y-59991379D01*
X67441221Y-59991379D02*
X67441221Y-59753284D01*
X67393602Y-61134236D02*
X67441221Y-61038998D01*
X67441221Y-61038998D02*
X67441221Y-60848522D01*
X67441221Y-60848522D02*
X67393602Y-60753284D01*
X67393602Y-60753284D02*
X67298363Y-60705665D01*
X67298363Y-60705665D02*
X66917411Y-60705665D01*
X66917411Y-60705665D02*
X66822173Y-60753284D01*
X66822173Y-60753284D02*
X66774554Y-60848522D01*
X66774554Y-60848522D02*
X66774554Y-61038998D01*
X66774554Y-61038998D02*
X66822173Y-61134236D01*
X66822173Y-61134236D02*
X66917411Y-61181855D01*
X66917411Y-61181855D02*
X67012649Y-61181855D01*
X67012649Y-61181855D02*
X67107887Y-60705665D01*
X66774554Y-61467570D02*
X66774554Y-61848522D01*
X66441221Y-61610427D02*
X67298363Y-61610427D01*
X67298363Y-61610427D02*
X67393602Y-61658046D01*
X67393602Y-61658046D02*
X67441221Y-61753284D01*
X67441221Y-61753284D02*
X67441221Y-61848522D01*
X67393602Y-62562808D02*
X67441221Y-62467570D01*
X67441221Y-62467570D02*
X67441221Y-62277094D01*
X67441221Y-62277094D02*
X67393602Y-62181856D01*
X67393602Y-62181856D02*
X67298363Y-62134237D01*
X67298363Y-62134237D02*
X66917411Y-62134237D01*
X66917411Y-62134237D02*
X66822173Y-62181856D01*
X66822173Y-62181856D02*
X66774554Y-62277094D01*
X66774554Y-62277094D02*
X66774554Y-62467570D01*
X66774554Y-62467570D02*
X66822173Y-62562808D01*
X66822173Y-62562808D02*
X66917411Y-62610427D01*
X66917411Y-62610427D02*
X67012649Y-62610427D01*
X67012649Y-62610427D02*
X67107887Y-62134237D01*
X67393602Y-63467570D02*
X67441221Y-63372332D01*
X67441221Y-63372332D02*
X67441221Y-63181856D01*
X67441221Y-63181856D02*
X67393602Y-63086618D01*
X67393602Y-63086618D02*
X67345982Y-63038999D01*
X67345982Y-63038999D02*
X67250744Y-62991380D01*
X67250744Y-62991380D02*
X66965030Y-62991380D01*
X66965030Y-62991380D02*
X66869792Y-63038999D01*
X66869792Y-63038999D02*
X66822173Y-63086618D01*
X66822173Y-63086618D02*
X66774554Y-63181856D01*
X66774554Y-63181856D02*
X66774554Y-63372332D01*
X66774554Y-63372332D02*
X66822173Y-63467570D01*
X66774554Y-63753285D02*
X66774554Y-64134237D01*
X66441221Y-63896142D02*
X67298363Y-63896142D01*
X67298363Y-63896142D02*
X67393602Y-63943761D01*
X67393602Y-63943761D02*
X67441221Y-64038999D01*
X67441221Y-64038999D02*
X67441221Y-64134237D01*
X67441221Y-64610428D02*
X67393602Y-64515190D01*
X67393602Y-64515190D02*
X67345982Y-64467571D01*
X67345982Y-64467571D02*
X67250744Y-64419952D01*
X67250744Y-64419952D02*
X66965030Y-64419952D01*
X66965030Y-64419952D02*
X66869792Y-64467571D01*
X66869792Y-64467571D02*
X66822173Y-64515190D01*
X66822173Y-64515190D02*
X66774554Y-64610428D01*
X66774554Y-64610428D02*
X66774554Y-64753285D01*
X66774554Y-64753285D02*
X66822173Y-64848523D01*
X66822173Y-64848523D02*
X66869792Y-64896142D01*
X66869792Y-64896142D02*
X66965030Y-64943761D01*
X66965030Y-64943761D02*
X67250744Y-64943761D01*
X67250744Y-64943761D02*
X67345982Y-64896142D01*
X67345982Y-64896142D02*
X67393602Y-64848523D01*
X67393602Y-64848523D02*
X67441221Y-64753285D01*
X67441221Y-64753285D02*
X67441221Y-64610428D01*
X67441221Y-65372333D02*
X66774554Y-65372333D01*
X66965030Y-65372333D02*
X66869792Y-65419952D01*
X66869792Y-65419952D02*
X66822173Y-65467571D01*
X66822173Y-65467571D02*
X66774554Y-65562809D01*
X66774554Y-65562809D02*
X66774554Y-65658047D01*
X66441221Y-66943762D02*
X66441221Y-67039000D01*
X66441221Y-67039000D02*
X66488840Y-67134238D01*
X66488840Y-67134238D02*
X66536459Y-67181857D01*
X66536459Y-67181857D02*
X66631697Y-67229476D01*
X66631697Y-67229476D02*
X66822173Y-67277095D01*
X66822173Y-67277095D02*
X67060268Y-67277095D01*
X67060268Y-67277095D02*
X67250744Y-67229476D01*
X67250744Y-67229476D02*
X67345982Y-67181857D01*
X67345982Y-67181857D02*
X67393602Y-67134238D01*
X67393602Y-67134238D02*
X67441221Y-67039000D01*
X67441221Y-67039000D02*
X67441221Y-66943762D01*
X67441221Y-66943762D02*
X67393602Y-66848524D01*
X67393602Y-66848524D02*
X67345982Y-66800905D01*
X67345982Y-66800905D02*
X67250744Y-66753286D01*
X67250744Y-66753286D02*
X67060268Y-66705667D01*
X67060268Y-66705667D02*
X66822173Y-66705667D01*
X66822173Y-66705667D02*
X66631697Y-66753286D01*
X66631697Y-66753286D02*
X66536459Y-66800905D01*
X66536459Y-66800905D02*
X66488840Y-66848524D01*
X66488840Y-66848524D02*
X66441221Y-66943762D01*
X67345982Y-67705667D02*
X67393602Y-67753286D01*
X67393602Y-67753286D02*
X67441221Y-67705667D01*
X67441221Y-67705667D02*
X67393602Y-67658048D01*
X67393602Y-67658048D02*
X67345982Y-67705667D01*
X67345982Y-67705667D02*
X67441221Y-67705667D01*
X67441221Y-68705666D02*
X67441221Y-68134238D01*
X67441221Y-68419952D02*
X66441221Y-68419952D01*
X66441221Y-68419952D02*
X66584078Y-68324714D01*
X66584078Y-68324714D02*
X66679316Y-68229476D01*
X66679316Y-68229476D02*
X66726935Y-68134238D01*
X69051165Y-59753284D02*
X68051165Y-59753284D01*
X68051165Y-59753284D02*
X68765450Y-60086617D01*
X68765450Y-60086617D02*
X68051165Y-60419950D01*
X68051165Y-60419950D02*
X69051165Y-60419950D01*
X69051165Y-61324712D02*
X68527355Y-61324712D01*
X68527355Y-61324712D02*
X68432117Y-61277093D01*
X68432117Y-61277093D02*
X68384498Y-61181855D01*
X68384498Y-61181855D02*
X68384498Y-60991379D01*
X68384498Y-60991379D02*
X68432117Y-60896141D01*
X69003546Y-61324712D02*
X69051165Y-61229474D01*
X69051165Y-61229474D02*
X69051165Y-60991379D01*
X69051165Y-60991379D02*
X69003546Y-60896141D01*
X69003546Y-60896141D02*
X68908307Y-60848522D01*
X68908307Y-60848522D02*
X68813069Y-60848522D01*
X68813069Y-60848522D02*
X68717831Y-60896141D01*
X68717831Y-60896141D02*
X68670212Y-60991379D01*
X68670212Y-60991379D02*
X68670212Y-61229474D01*
X68670212Y-61229474D02*
X68622593Y-61324712D01*
X68384498Y-61658046D02*
X68384498Y-62038998D01*
X68051165Y-61800903D02*
X68908307Y-61800903D01*
X68908307Y-61800903D02*
X69003546Y-61848522D01*
X69003546Y-61848522D02*
X69051165Y-61943760D01*
X69051165Y-61943760D02*
X69051165Y-62038998D01*
X69003546Y-62753284D02*
X69051165Y-62658046D01*
X69051165Y-62658046D02*
X69051165Y-62467570D01*
X69051165Y-62467570D02*
X69003546Y-62372332D01*
X69003546Y-62372332D02*
X68908307Y-62324713D01*
X68908307Y-62324713D02*
X68527355Y-62324713D01*
X68527355Y-62324713D02*
X68432117Y-62372332D01*
X68432117Y-62372332D02*
X68384498Y-62467570D01*
X68384498Y-62467570D02*
X68384498Y-62658046D01*
X68384498Y-62658046D02*
X68432117Y-62753284D01*
X68432117Y-62753284D02*
X68527355Y-62800903D01*
X68527355Y-62800903D02*
X68622593Y-62800903D01*
X68622593Y-62800903D02*
X68717831Y-62324713D01*
X68384498Y-63229475D02*
X69241641Y-63229475D01*
X69241641Y-63229475D02*
X69336879Y-63181856D01*
X69336879Y-63181856D02*
X69384498Y-63086618D01*
X69384498Y-63086618D02*
X69384498Y-63038999D01*
X68051165Y-63229475D02*
X68098784Y-63181856D01*
X68098784Y-63181856D02*
X68146403Y-63229475D01*
X68146403Y-63229475D02*
X68098784Y-63277094D01*
X68098784Y-63277094D02*
X68051165Y-63229475D01*
X68051165Y-63229475D02*
X68146403Y-63229475D01*
X69051165Y-64467570D02*
X68051165Y-64467570D01*
X68051165Y-64467570D02*
X68051165Y-64848522D01*
X68051165Y-64848522D02*
X68098784Y-64943760D01*
X68098784Y-64943760D02*
X68146403Y-64991379D01*
X68146403Y-64991379D02*
X68241641Y-65038998D01*
X68241641Y-65038998D02*
X68384498Y-65038998D01*
X68384498Y-65038998D02*
X68479736Y-64991379D01*
X68479736Y-64991379D02*
X68527355Y-64943760D01*
X68527355Y-64943760D02*
X68574974Y-64848522D01*
X68574974Y-64848522D02*
X68574974Y-64467570D01*
X69003546Y-65848522D02*
X69051165Y-65753284D01*
X69051165Y-65753284D02*
X69051165Y-65562808D01*
X69051165Y-65562808D02*
X69003546Y-65467570D01*
X69003546Y-65467570D02*
X68908307Y-65419951D01*
X68908307Y-65419951D02*
X68527355Y-65419951D01*
X68527355Y-65419951D02*
X68432117Y-65467570D01*
X68432117Y-65467570D02*
X68384498Y-65562808D01*
X68384498Y-65562808D02*
X68384498Y-65753284D01*
X68384498Y-65753284D02*
X68432117Y-65848522D01*
X68432117Y-65848522D02*
X68527355Y-65896141D01*
X68527355Y-65896141D02*
X68622593Y-65896141D01*
X68622593Y-65896141D02*
X68717831Y-65419951D01*
X68384498Y-66229475D02*
X69051165Y-66467570D01*
X69051165Y-66467570D02*
X68384498Y-66705665D01*
X69003546Y-67467570D02*
X69051165Y-67372332D01*
X69051165Y-67372332D02*
X69051165Y-67181856D01*
X69051165Y-67181856D02*
X69003546Y-67086618D01*
X69003546Y-67086618D02*
X68908307Y-67038999D01*
X68908307Y-67038999D02*
X68527355Y-67038999D01*
X68527355Y-67038999D02*
X68432117Y-67086618D01*
X68432117Y-67086618D02*
X68384498Y-67181856D01*
X68384498Y-67181856D02*
X68384498Y-67372332D01*
X68384498Y-67372332D02*
X68432117Y-67467570D01*
X68432117Y-67467570D02*
X68527355Y-67515189D01*
X68527355Y-67515189D02*
X68622593Y-67515189D01*
X68622593Y-67515189D02*
X68717831Y-67038999D01*
X69003546Y-68372332D02*
X69051165Y-68277094D01*
X69051165Y-68277094D02*
X69051165Y-68086618D01*
X69051165Y-68086618D02*
X69003546Y-67991380D01*
X69003546Y-67991380D02*
X68955926Y-67943761D01*
X68955926Y-67943761D02*
X68860688Y-67896142D01*
X68860688Y-67896142D02*
X68574974Y-67896142D01*
X68574974Y-67896142D02*
X68479736Y-67943761D01*
X68479736Y-67943761D02*
X68432117Y-67991380D01*
X68432117Y-67991380D02*
X68384498Y-68086618D01*
X68384498Y-68086618D02*
X68384498Y-68277094D01*
X68384498Y-68277094D02*
X68432117Y-68372332D01*
X62960980Y-67059524D02*
X61960980Y-67059524D01*
X62437170Y-67869047D02*
X62437170Y-67535714D01*
X62960980Y-67535714D02*
X61960980Y-67535714D01*
X61960980Y-67535714D02*
X61960980Y-68011904D01*
X63056218Y-68154762D02*
X63056218Y-68916666D01*
X62960980Y-69726190D02*
X62484789Y-69392857D01*
X62960980Y-69154762D02*
X61960980Y-69154762D01*
X61960980Y-69154762D02*
X61960980Y-69535714D01*
X61960980Y-69535714D02*
X62008599Y-69630952D01*
X62008599Y-69630952D02*
X62056218Y-69678571D01*
X62056218Y-69678571D02*
X62151456Y-69726190D01*
X62151456Y-69726190D02*
X62294313Y-69726190D01*
X62294313Y-69726190D02*
X62389551Y-69678571D01*
X62389551Y-69678571D02*
X62437170Y-69630952D01*
X62437170Y-69630952D02*
X62484789Y-69535714D01*
X62484789Y-69535714D02*
X62484789Y-69154762D01*
X62437170Y-70154762D02*
X62437170Y-70488095D01*
X62960980Y-70630952D02*
X62960980Y-70154762D01*
X62960980Y-70154762D02*
X61960980Y-70154762D01*
X61960980Y-70154762D02*
X61960980Y-70630952D01*
X62437170Y-71392857D02*
X62437170Y-71059524D01*
X62960980Y-71059524D02*
X61960980Y-71059524D01*
X61960980Y-71059524D02*
X61960980Y-71535714D01*
X147184315Y-74798659D02*
X147660505Y-74798659D01*
X147660505Y-74798659D02*
X147708124Y-75274849D01*
X147708124Y-75274849D02*
X147660505Y-75227230D01*
X147660505Y-75227230D02*
X147565267Y-75179611D01*
X147565267Y-75179611D02*
X147327172Y-75179611D01*
X147327172Y-75179611D02*
X147231934Y-75227230D01*
X147231934Y-75227230D02*
X147184315Y-75274849D01*
X147184315Y-75274849D02*
X147136696Y-75370087D01*
X147136696Y-75370087D02*
X147136696Y-75608182D01*
X147136696Y-75608182D02*
X147184315Y-75703420D01*
X147184315Y-75703420D02*
X147231934Y-75751040D01*
X147231934Y-75751040D02*
X147327172Y-75798659D01*
X147327172Y-75798659D02*
X147565267Y-75798659D01*
X147565267Y-75798659D02*
X147660505Y-75751040D01*
X147660505Y-75751040D02*
X147708124Y-75703420D01*
X146850981Y-74798659D02*
X146517648Y-75798659D01*
X146517648Y-75798659D02*
X146184315Y-74798659D01*
X147785713Y-64454819D02*
X147785713Y-63454819D01*
X147785713Y-63454819D02*
X147404761Y-63454819D01*
X147404761Y-63454819D02*
X147309523Y-63502438D01*
X147309523Y-63502438D02*
X147261904Y-63550057D01*
X147261904Y-63550057D02*
X147214285Y-63645295D01*
X147214285Y-63645295D02*
X147214285Y-63788152D01*
X147214285Y-63788152D02*
X147261904Y-63883390D01*
X147261904Y-63883390D02*
X147309523Y-63931009D01*
X147309523Y-63931009D02*
X147404761Y-63978628D01*
X147404761Y-63978628D02*
X147785713Y-63978628D01*
X146214285Y-64454819D02*
X146547618Y-63978628D01*
X146785713Y-64454819D02*
X146785713Y-63454819D01*
X146785713Y-63454819D02*
X146404761Y-63454819D01*
X146404761Y-63454819D02*
X146309523Y-63502438D01*
X146309523Y-63502438D02*
X146261904Y-63550057D01*
X146261904Y-63550057D02*
X146214285Y-63645295D01*
X146214285Y-63645295D02*
X146214285Y-63788152D01*
X146214285Y-63788152D02*
X146261904Y-63883390D01*
X146261904Y-63883390D02*
X146309523Y-63931009D01*
X146309523Y-63931009D02*
X146404761Y-63978628D01*
X146404761Y-63978628D02*
X146785713Y-63978628D01*
X145595237Y-63454819D02*
X145404761Y-63454819D01*
X145404761Y-63454819D02*
X145309523Y-63502438D01*
X145309523Y-63502438D02*
X145214285Y-63597676D01*
X145214285Y-63597676D02*
X145166666Y-63788152D01*
X145166666Y-63788152D02*
X145166666Y-64121485D01*
X145166666Y-64121485D02*
X145214285Y-64311961D01*
X145214285Y-64311961D02*
X145309523Y-64407200D01*
X145309523Y-64407200D02*
X145404761Y-64454819D01*
X145404761Y-64454819D02*
X145595237Y-64454819D01*
X145595237Y-64454819D02*
X145690475Y-64407200D01*
X145690475Y-64407200D02*
X145785713Y-64311961D01*
X145785713Y-64311961D02*
X145833332Y-64121485D01*
X145833332Y-64121485D02*
X145833332Y-63788152D01*
X145833332Y-63788152D02*
X145785713Y-63597676D01*
X145785713Y-63597676D02*
X145690475Y-63502438D01*
X145690475Y-63502438D02*
X145595237Y-63454819D01*
X144214285Y-63502438D02*
X144309523Y-63454819D01*
X144309523Y-63454819D02*
X144452380Y-63454819D01*
X144452380Y-63454819D02*
X144595237Y-63502438D01*
X144595237Y-63502438D02*
X144690475Y-63597676D01*
X144690475Y-63597676D02*
X144738094Y-63692914D01*
X144738094Y-63692914D02*
X144785713Y-63883390D01*
X144785713Y-63883390D02*
X144785713Y-64026247D01*
X144785713Y-64026247D02*
X144738094Y-64216723D01*
X144738094Y-64216723D02*
X144690475Y-64311961D01*
X144690475Y-64311961D02*
X144595237Y-64407200D01*
X144595237Y-64407200D02*
X144452380Y-64454819D01*
X144452380Y-64454819D02*
X144357142Y-64454819D01*
X144357142Y-64454819D02*
X144214285Y-64407200D01*
X144214285Y-64407200D02*
X144166666Y-64359580D01*
X144166666Y-64359580D02*
X144166666Y-64026247D01*
X144166666Y-64026247D02*
X144357142Y-64026247D01*
X137357142Y-56704819D02*
X137357142Y-55704819D01*
X137357142Y-55704819D02*
X137023809Y-56419104D01*
X137023809Y-56419104D02*
X136690476Y-55704819D01*
X136690476Y-55704819D02*
X136690476Y-56704819D01*
X135642857Y-56609580D02*
X135690476Y-56657200D01*
X135690476Y-56657200D02*
X135833333Y-56704819D01*
X135833333Y-56704819D02*
X135928571Y-56704819D01*
X135928571Y-56704819D02*
X136071428Y-56657200D01*
X136071428Y-56657200D02*
X136166666Y-56561961D01*
X136166666Y-56561961D02*
X136214285Y-56466723D01*
X136214285Y-56466723D02*
X136261904Y-56276247D01*
X136261904Y-56276247D02*
X136261904Y-56133390D01*
X136261904Y-56133390D02*
X136214285Y-55942914D01*
X136214285Y-55942914D02*
X136166666Y-55847676D01*
X136166666Y-55847676D02*
X136071428Y-55752438D01*
X136071428Y-55752438D02*
X135928571Y-55704819D01*
X135928571Y-55704819D02*
X135833333Y-55704819D01*
X135833333Y-55704819D02*
X135690476Y-55752438D01*
X135690476Y-55752438D02*
X135642857Y-55800057D01*
X135214285Y-55704819D02*
X135214285Y-56514342D01*
X135214285Y-56514342D02*
X135166666Y-56609580D01*
X135166666Y-56609580D02*
X135119047Y-56657200D01*
X135119047Y-56657200D02*
X135023809Y-56704819D01*
X135023809Y-56704819D02*
X134833333Y-56704819D01*
X134833333Y-56704819D02*
X134738095Y-56657200D01*
X134738095Y-56657200D02*
X134690476Y-56609580D01*
X134690476Y-56609580D02*
X134642857Y-56514342D01*
X134642857Y-56514342D02*
X134642857Y-55704819D01*
X87583332Y-54157200D02*
X87440475Y-54204819D01*
X87440475Y-54204819D02*
X87202380Y-54204819D01*
X87202380Y-54204819D02*
X87107142Y-54157200D01*
X87107142Y-54157200D02*
X87059523Y-54109580D01*
X87059523Y-54109580D02*
X87011904Y-54014342D01*
X87011904Y-54014342D02*
X87011904Y-53919104D01*
X87011904Y-53919104D02*
X87059523Y-53823866D01*
X87059523Y-53823866D02*
X87107142Y-53776247D01*
X87107142Y-53776247D02*
X87202380Y-53728628D01*
X87202380Y-53728628D02*
X87392856Y-53681009D01*
X87392856Y-53681009D02*
X87488094Y-53633390D01*
X87488094Y-53633390D02*
X87535713Y-53585771D01*
X87535713Y-53585771D02*
X87583332Y-53490533D01*
X87583332Y-53490533D02*
X87583332Y-53395295D01*
X87583332Y-53395295D02*
X87535713Y-53300057D01*
X87535713Y-53300057D02*
X87488094Y-53252438D01*
X87488094Y-53252438D02*
X87392856Y-53204819D01*
X87392856Y-53204819D02*
X87154761Y-53204819D01*
X87154761Y-53204819D02*
X87011904Y-53252438D01*
X86583332Y-54204819D02*
X86583332Y-53204819D01*
X86583332Y-53204819D02*
X86202380Y-53204819D01*
X86202380Y-53204819D02*
X86107142Y-53252438D01*
X86107142Y-53252438D02*
X86059523Y-53300057D01*
X86059523Y-53300057D02*
X86011904Y-53395295D01*
X86011904Y-53395295D02*
X86011904Y-53538152D01*
X86011904Y-53538152D02*
X86059523Y-53633390D01*
X86059523Y-53633390D02*
X86107142Y-53681009D01*
X86107142Y-53681009D02*
X86202380Y-53728628D01*
X86202380Y-53728628D02*
X86583332Y-53728628D01*
X85583332Y-54204819D02*
X85583332Y-53204819D01*
X85345238Y-54300057D02*
X84583333Y-54300057D01*
X84392856Y-53919104D02*
X83916666Y-53919104D01*
X84488094Y-54204819D02*
X84154761Y-53204819D01*
X84154761Y-53204819D02*
X83821428Y-54204819D01*
X83488094Y-54204819D02*
X83488094Y-53204819D01*
X83488094Y-53204819D02*
X83249999Y-53204819D01*
X83249999Y-53204819D02*
X83107142Y-53252438D01*
X83107142Y-53252438D02*
X83011904Y-53347676D01*
X83011904Y-53347676D02*
X82964285Y-53442914D01*
X82964285Y-53442914D02*
X82916666Y-53633390D01*
X82916666Y-53633390D02*
X82916666Y-53776247D01*
X82916666Y-53776247D02*
X82964285Y-53966723D01*
X82964285Y-53966723D02*
X83011904Y-54061961D01*
X83011904Y-54061961D02*
X83107142Y-54157200D01*
X83107142Y-54157200D02*
X83249999Y-54204819D01*
X83249999Y-54204819D02*
X83488094Y-54204819D01*
X81916666Y-54109580D02*
X81964285Y-54157200D01*
X81964285Y-54157200D02*
X82107142Y-54204819D01*
X82107142Y-54204819D02*
X82202380Y-54204819D01*
X82202380Y-54204819D02*
X82345237Y-54157200D01*
X82345237Y-54157200D02*
X82440475Y-54061961D01*
X82440475Y-54061961D02*
X82488094Y-53966723D01*
X82488094Y-53966723D02*
X82535713Y-53776247D01*
X82535713Y-53776247D02*
X82535713Y-53633390D01*
X82535713Y-53633390D02*
X82488094Y-53442914D01*
X82488094Y-53442914D02*
X82440475Y-53347676D01*
X82440475Y-53347676D02*
X82345237Y-53252438D01*
X82345237Y-53252438D02*
X82202380Y-53204819D01*
X82202380Y-53204819D02*
X82107142Y-53204819D01*
X82107142Y-53204819D02*
X81964285Y-53252438D01*
X81964285Y-53252438D02*
X81916666Y-53300057D01*
X62960980Y-56250000D02*
X61960980Y-56250000D01*
X62437170Y-57059523D02*
X62437170Y-56726190D01*
X62960980Y-56726190D02*
X61960980Y-56726190D01*
X61960980Y-56726190D02*
X61960980Y-57202380D01*
X63056218Y-57345238D02*
X63056218Y-58107142D01*
X61960980Y-58202381D02*
X61960980Y-58773809D01*
X62960980Y-58488095D02*
X61960980Y-58488095D01*
X62437170Y-59107143D02*
X62437170Y-59440476D01*
X62960980Y-59583333D02*
X62960980Y-59107143D01*
X62960980Y-59107143D02*
X61960980Y-59107143D01*
X61960980Y-59107143D02*
X61960980Y-59583333D01*
X62913361Y-59964286D02*
X62960980Y-60107143D01*
X62960980Y-60107143D02*
X62960980Y-60345238D01*
X62960980Y-60345238D02*
X62913361Y-60440476D01*
X62913361Y-60440476D02*
X62865741Y-60488095D01*
X62865741Y-60488095D02*
X62770503Y-60535714D01*
X62770503Y-60535714D02*
X62675265Y-60535714D01*
X62675265Y-60535714D02*
X62580027Y-60488095D01*
X62580027Y-60488095D02*
X62532408Y-60440476D01*
X62532408Y-60440476D02*
X62484789Y-60345238D01*
X62484789Y-60345238D02*
X62437170Y-60154762D01*
X62437170Y-60154762D02*
X62389551Y-60059524D01*
X62389551Y-60059524D02*
X62341932Y-60011905D01*
X62341932Y-60011905D02*
X62246694Y-59964286D01*
X62246694Y-59964286D02*
X62151456Y-59964286D01*
X62151456Y-59964286D02*
X62056218Y-60011905D01*
X62056218Y-60011905D02*
X62008599Y-60059524D01*
X62008599Y-60059524D02*
X61960980Y-60154762D01*
X61960980Y-60154762D02*
X61960980Y-60392857D01*
X61960980Y-60392857D02*
X62008599Y-60535714D01*
X61960980Y-60821429D02*
X61960980Y-61392857D01*
X62960980Y-61107143D02*
X61960980Y-61107143D01*
%LPC*%
D12*
X60243839Y-47488840D02*
X150993839Y-47488840D01*
X150993839Y-78738840D01*
X57243839Y-78738840D01*
X57243839Y-49738840D01*
X58993839Y-49738840D01*
X58993839Y-76488840D01*
X59493839Y-76988840D01*
X148743839Y-76988840D01*
X149243839Y-76488840D01*
X149243839Y-49738840D01*
X148743839Y-49238840D01*
X60243839Y-49238840D01*
X59493839Y-49238840D01*
X58993839Y-49738840D01*
X57243839Y-49738840D01*
X57243839Y-47488840D01*
X60243839Y-47488840D01*
G36*
X60243839Y-47488840D02*
G01*
X150993839Y-47488840D01*
X150993839Y-78738840D01*
X57243839Y-78738840D01*
X57243839Y-49738840D01*
X58993839Y-49738840D01*
X58993839Y-76488840D01*
X59493839Y-76988840D01*
X148743839Y-76988840D01*
X149243839Y-76488840D01*
X149243839Y-49738840D01*
X148743839Y-49238840D01*
X60243839Y-49238840D01*
X59493839Y-49238840D01*
X58993839Y-49738840D01*
X57243839Y-49738840D01*
X57243839Y-47488840D01*
X60243839Y-47488840D01*
G37*
D13*
X59500000Y-69238840D03*
D14*
X146993839Y-73013840D03*
D15*
X146993839Y-70473840D03*
D16*
X96393439Y-60839240D03*
X95606039Y-60839240D03*
X94818639Y-60839240D03*
X94031239Y-60839240D03*
X93243839Y-60839240D03*
X92456439Y-60839240D03*
X91669039Y-60839240D03*
X90881639Y-60839240D03*
X90094239Y-60839240D03*
X96393439Y-61626640D03*
X95606039Y-61626640D03*
X94818639Y-61626640D03*
X94031239Y-61626640D03*
X93243839Y-61626640D03*
X92456439Y-61626640D03*
X91669039Y-61626640D03*
X90881639Y-61626640D03*
X90094239Y-61626640D03*
X96393439Y-62414040D03*
X95606039Y-62414040D03*
X94818639Y-62414040D03*
X94031239Y-62414040D03*
X93243839Y-62414040D03*
X92456439Y-62414040D03*
X91669039Y-62414040D03*
X90881639Y-62414040D03*
X90094239Y-62414040D03*
X96393439Y-63201440D03*
X95606039Y-63201440D03*
X94818639Y-63201440D03*
X94031239Y-63201440D03*
X93243839Y-63201440D03*
X92456439Y-63201440D03*
X91669039Y-63201440D03*
X90881639Y-63201440D03*
X90094239Y-63201440D03*
X96393439Y-63988840D03*
X95606039Y-63988840D03*
X94818639Y-63988840D03*
X94031239Y-63988840D03*
X93243839Y-63988840D03*
X92456439Y-63988840D03*
X91669039Y-63988840D03*
X90881639Y-63988840D03*
X90094239Y-63988840D03*
X96393439Y-64776240D03*
X95606039Y-64776240D03*
X94818639Y-64776240D03*
X94031239Y-64776240D03*
X93243839Y-64776240D03*
X92456439Y-64776240D03*
X91669039Y-64776240D03*
X90881639Y-64776240D03*
X90094239Y-64776240D03*
X96393439Y-65563640D03*
X95606039Y-65563640D03*
X94818639Y-65563640D03*
X94031239Y-65563640D03*
X93243839Y-65563640D03*
X92456439Y-65563640D03*
X91669039Y-65563640D03*
X90881639Y-65563640D03*
X90094239Y-65563640D03*
X96393439Y-66351040D03*
X95606039Y-66351040D03*
X94818639Y-66351040D03*
X94031239Y-66351040D03*
X93243839Y-66351040D03*
X92456439Y-66351040D03*
X91669039Y-66351040D03*
X90881639Y-66351040D03*
X90094239Y-66351040D03*
X96393439Y-67138440D03*
X95606039Y-67138440D03*
X94818639Y-67138440D03*
X94031239Y-67138440D03*
X93243839Y-67138440D03*
X92456439Y-67138440D03*
X91669039Y-67138440D03*
X90881639Y-67138440D03*
X90094239Y-67138440D03*
D17*
X144743839Y-51488840D03*
D15*
X147283839Y-51488840D03*
D14*
X144743839Y-54028840D03*
D15*
X147283839Y-54028840D03*
X144743839Y-56568840D03*
X147283839Y-56568840D03*
X144743839Y-59108840D03*
X147283839Y-59108840D03*
X144743839Y-61648840D03*
X147283839Y-61648840D03*
D17*
X130918839Y-53988840D03*
D15*
X130918839Y-51448840D03*
D14*
X133458839Y-53988840D03*
D15*
X133458839Y-51448840D03*
X135998839Y-53988840D03*
X135998839Y-51448840D03*
X138538839Y-53988840D03*
X138538839Y-51448840D03*
X141078839Y-53988840D03*
X141078839Y-51448840D03*
D14*
X90993839Y-51488840D03*
D15*
X88453839Y-51488840D03*
X85913839Y-51488840D03*
X83373839Y-51488840D03*
X80833839Y-51488840D03*
X78293839Y-51488840D03*
D13*
X59500000Y-58738840D03*
%LPD*%
M02*
