G04 #@! TF.GenerationSoftware,KiCad,Pcbnew,8.0.2*
G04 #@! TF.CreationDate,2024-06-05T16:41:01+02:00*
G04 #@! TF.ProjectId,Local Oscillator 60 MHz,4c6f6361-6c20-44f7-9363-696c6c61746f,rev?*
G04 #@! TF.SameCoordinates,Original*
G04 #@! TF.FileFunction,Copper,L1,Top*
G04 #@! TF.FilePolarity,Positive*
%FSLAX46Y46*%
G04 Gerber Fmt 4.6, Leading zero omitted, Abs format (unit mm)*
G04 Created by KiCad (PCBNEW 8.0.2) date 2024-06-05 16:41:01*
%MOMM*%
%LPD*%
G01*
G04 APERTURE LIST*
G04 Aperture macros list*
%AMRoundRect*
0 Rectangle with rounded corners*
0 $1 Rounding radius*
0 $2 $3 $4 $5 $6 $7 $8 $9 X,Y pos of 4 corners*
0 Add a 4 corners polygon primitive as box body*
4,1,4,$2,$3,$4,$5,$6,$7,$8,$9,$2,$3,0*
0 Add four circle primitives for the rounded corners*
1,1,$1+$1,$2,$3*
1,1,$1+$1,$4,$5*
1,1,$1+$1,$6,$7*
1,1,$1+$1,$8,$9*
0 Add four rect primitives between the rounded corners*
20,1,$1+$1,$2,$3,$4,$5,0*
20,1,$1+$1,$4,$5,$6,$7,0*
20,1,$1+$1,$6,$7,$8,$9,0*
20,1,$1+$1,$8,$9,$2,$3,0*%
%AMFreePoly0*
4,1,124,3.223017,6.045185,3.225213,6.044748,3.493463,6.030690,3.857889,5.972970,4.214285,5.877474,4.558747,5.745248,4.887500,5.577740,5.196943,5.376785,5.483685,5.144586,5.744586,4.883685,5.976785,4.596943,6.177740,4.287500,6.345248,3.958747,6.477474,3.614285,6.572970,3.257889,6.630690,2.893463,6.650000,2.525000,6.630690,2.156537,6.572970,1.792111,6.477474,1.435715,
6.345248,1.091253,6.177740,0.762500,5.976785,0.453057,5.744586,0.166315,5.483685,-0.094586,5.196943,-0.326785,4.887500,-0.527740,4.558747,-0.695248,4.214285,-0.827474,3.857889,-0.922970,3.493463,-0.980690,3.225213,-0.994748,3.223017,-0.995185,3.216787,-0.995189,3.125000,-1.000000,3.074255,-0.995297,-3.125000,-1.000000,-3.223017,-0.995185,-3.225213,-0.994748,-3.493463,-0.980690,
-3.857889,-0.922970,-4.214285,-0.827474,-4.558747,-0.695248,-4.887500,-0.527740,-5.196943,-0.326785,-5.483685,-0.094586,-5.744586,0.166315,-5.976785,0.453057,-6.177740,0.762500,-6.345248,1.091253,-6.477474,1.435715,-6.572970,1.792111,-6.630690,2.156537,-6.650000,2.525000,-6.643710,2.645020,-4.650000,2.645020,-4.650000,2.404980,-4.612450,2.167895,-4.538273,1.939603,-4.429297,1.725726,
-4.288205,1.531529,-4.118471,1.361795,-3.924274,1.220703,-3.710397,1.111727,-3.482105,1.037550,-3.245020,1.000000,-3.125000,1.000000,-3.074255,0.995297,3.125000,1.000000,3.245020,1.000000,3.482105,1.037550,3.710397,1.111727,3.924274,1.220703,4.118471,1.361795,4.288205,1.531529,4.429297,1.725726,4.538273,1.939603,4.612450,2.167895,4.650000,2.404980,4.650000,2.645020,
4.612450,2.882105,4.538273,3.110397,4.429297,3.324274,4.288205,3.518471,4.118471,3.688205,3.924274,3.829297,3.710397,3.938273,3.482105,4.012450,3.245020,4.050000,3.125000,4.050000,3.074255,4.054702,-3.125000,4.050000,-3.245020,4.050000,-3.482105,4.012450,-3.710397,3.938273,-3.924274,3.829297,-4.118471,3.688205,-4.288205,3.518471,-4.429297,3.324274,-4.538273,3.110397,
-4.612450,2.882105,-4.650000,2.645020,-6.643710,2.645020,-6.630690,2.893463,-6.572970,3.257889,-6.477474,3.614285,-6.345248,3.958747,-6.177740,4.287500,-5.976785,4.596943,-5.744586,4.883685,-5.483685,5.144586,-5.196943,5.376785,-4.887500,5.577740,-4.558747,5.745248,-4.214285,5.877474,-3.857889,5.972970,-3.493463,6.030690,-3.225213,6.044748,-3.223017,6.045185,-3.216787,6.045189,
-3.125000,6.050000,-3.074255,6.045297,3.125000,6.050000,3.223017,6.045185,3.223017,6.045185,$1*%
G04 Aperture macros list end*
G04 #@! TA.AperFunction,ComponentPad*
%ADD10R,1.700000X1.700000*%
G04 #@! TD*
G04 #@! TA.AperFunction,ComponentPad*
%ADD11O,1.700000X1.700000*%
G04 #@! TD*
G04 #@! TA.AperFunction,SMDPad,CuDef*
%ADD12RoundRect,0.162500X0.162500X-0.837500X0.162500X0.837500X-0.162500X0.837500X-0.162500X-0.837500X0*%
G04 #@! TD*
G04 #@! TA.AperFunction,SMDPad,CuDef*
%ADD13RoundRect,0.225000X0.225000X0.250000X-0.225000X0.250000X-0.225000X-0.250000X0.225000X-0.250000X0*%
G04 #@! TD*
G04 #@! TA.AperFunction,SMDPad,CuDef*
%ADD14RoundRect,0.200000X0.275000X-0.200000X0.275000X0.200000X-0.275000X0.200000X-0.275000X-0.200000X0*%
G04 #@! TD*
G04 #@! TA.AperFunction,SMDPad,CuDef*
%ADD15RoundRect,0.162500X-0.837500X-0.162500X0.837500X-0.162500X0.837500X0.162500X-0.837500X0.162500X0*%
G04 #@! TD*
G04 #@! TA.AperFunction,SMDPad,CuDef*
%ADD16RoundRect,0.225000X-0.225000X-0.250000X0.225000X-0.250000X0.225000X0.250000X-0.225000X0.250000X0*%
G04 #@! TD*
G04 #@! TA.AperFunction,ComponentPad*
%ADD17C,1.500000*%
G04 #@! TD*
G04 #@! TA.AperFunction,SMDPad,CuDef*
%ADD18FreePoly0,0.000000*%
G04 #@! TD*
G04 #@! TA.AperFunction,SMDPad,CuDef*
%ADD19RoundRect,0.250001X-0.499999X-0.924999X0.499999X-0.924999X0.499999X0.924999X-0.499999X0.924999X0*%
G04 #@! TD*
G04 #@! TA.AperFunction,SMDPad,CuDef*
%ADD20RoundRect,0.225000X0.250000X-0.225000X0.250000X0.225000X-0.250000X0.225000X-0.250000X-0.225000X0*%
G04 #@! TD*
G04 #@! TA.AperFunction,SMDPad,CuDef*
%ADD21RoundRect,0.200000X-0.200000X-0.275000X0.200000X-0.275000X0.200000X0.275000X-0.200000X0.275000X0*%
G04 #@! TD*
G04 #@! TA.AperFunction,SMDPad,CuDef*
%ADD22RoundRect,0.250000X-1.450000X0.400000X-1.450000X-0.400000X1.450000X-0.400000X1.450000X0.400000X0*%
G04 #@! TD*
G04 #@! TA.AperFunction,SMDPad,CuDef*
%ADD23R,3.000000X1.750000*%
G04 #@! TD*
G04 #@! TA.AperFunction,SMDPad,CuDef*
%ADD24RoundRect,0.200000X0.200000X0.275000X-0.200000X0.275000X-0.200000X-0.275000X0.200000X-0.275000X0*%
G04 #@! TD*
G04 #@! TA.AperFunction,SMDPad,CuDef*
%ADD25R,0.600000X0.800000*%
G04 #@! TD*
G04 #@! TA.AperFunction,SMDPad,CuDef*
%ADD26R,0.600000X0.650000*%
G04 #@! TD*
G04 #@! TA.AperFunction,SMDPad,CuDef*
%ADD27RoundRect,0.250001X-0.462499X-1.074999X0.462499X-1.074999X0.462499X1.074999X-0.462499X1.074999X0*%
G04 #@! TD*
G04 #@! TA.AperFunction,SMDPad,CuDef*
%ADD28RoundRect,0.218750X-0.256250X0.218750X-0.256250X-0.218750X0.256250X-0.218750X0.256250X0.218750X0*%
G04 #@! TD*
G04 #@! TA.AperFunction,ViaPad*
%ADD29C,1.000000*%
G04 #@! TD*
G04 #@! TA.AperFunction,Conductor*
%ADD30C,0.500000*%
G04 #@! TD*
G04 #@! TA.AperFunction,Conductor*
%ADD31C,1.000000*%
G04 #@! TD*
G04 APERTURE END LIST*
D10*
X83500000Y-75725000D03*
D11*
X83500000Y-78265000D03*
D12*
X108750000Y-69040000D03*
X109700000Y-72460000D03*
X107800000Y-72460000D03*
D13*
X94925000Y-75000000D03*
X93375000Y-75000000D03*
D14*
X111250000Y-71425000D03*
X111250000Y-73075000D03*
D13*
X94925000Y-73500000D03*
X93375000Y-73500000D03*
D15*
X92210000Y-71000000D03*
X88790000Y-71950000D03*
X88790000Y-70050000D03*
D16*
X102225000Y-63500000D03*
X103775000Y-63500000D03*
D17*
X88975000Y-64000000D03*
D18*
X91475000Y-66525000D03*
D17*
X93855000Y-64000000D03*
D19*
X94375000Y-78500000D03*
X97625000Y-78500000D03*
D20*
X86750000Y-68475000D03*
X86750000Y-70025000D03*
D21*
X90325000Y-75000000D03*
X91975000Y-75000000D03*
D14*
X105250000Y-73075000D03*
X105250000Y-71425000D03*
D16*
X102225000Y-66500000D03*
X103775000Y-66500000D03*
D22*
X83975000Y-72725000D03*
X83975000Y-68275000D03*
D23*
X114500000Y-63750000D03*
D16*
X103775000Y-76500000D03*
X102225000Y-76500000D03*
D21*
X102175000Y-65000000D03*
X103825000Y-65000000D03*
D16*
X102225000Y-79500000D03*
X103775000Y-79500000D03*
D24*
X103825000Y-62000000D03*
X102175000Y-62000000D03*
D23*
X114500000Y-76750000D03*
D24*
X102175000Y-75000000D03*
X103825000Y-75000000D03*
D25*
X85750000Y-78500000D03*
D26*
X86750000Y-77875000D03*
X86750000Y-79125000D03*
D25*
X87750000Y-78500000D03*
D16*
X102225000Y-73000000D03*
X103775000Y-73000000D03*
D12*
X108750000Y-75540000D03*
X109700000Y-78960000D03*
X107800000Y-78960000D03*
D14*
X105250000Y-63575000D03*
X105250000Y-61925000D03*
D21*
X102175000Y-78000000D03*
X103825000Y-78000000D03*
D20*
X111250000Y-68475000D03*
X111250000Y-70025000D03*
D16*
X103775000Y-70000000D03*
X102225000Y-70000000D03*
D21*
X91975000Y-73500000D03*
X90325000Y-73500000D03*
D14*
X105250000Y-74925000D03*
X105250000Y-76575000D03*
D20*
X111250000Y-74975000D03*
X111250000Y-76525000D03*
D21*
X102175000Y-71500000D03*
X103825000Y-71500000D03*
D24*
X102175000Y-68500000D03*
X103825000Y-68500000D03*
D16*
X88250000Y-73500000D03*
X86700000Y-73500000D03*
D14*
X111250000Y-66575000D03*
X111250000Y-64925000D03*
D27*
X89262500Y-78500000D03*
X92237500Y-78500000D03*
D14*
X105250000Y-66575000D03*
X105250000Y-64925000D03*
D28*
X94975000Y-70212500D03*
X94975000Y-71787500D03*
D23*
X114500000Y-70250000D03*
D12*
X107800000Y-65960000D03*
X109700000Y-65960000D03*
X108750000Y-62540000D03*
D14*
X111250000Y-77925000D03*
X111250000Y-79575000D03*
D20*
X96475000Y-73275000D03*
X96475000Y-71725000D03*
D14*
X105250000Y-68425000D03*
X105250000Y-70075000D03*
D24*
X89925000Y-68500000D03*
X91575000Y-68500000D03*
D14*
X105250000Y-79575000D03*
X105250000Y-77925000D03*
D20*
X111250000Y-63525000D03*
X111250000Y-61975000D03*
D29*
X81250000Y-74000000D03*
X81250000Y-66500000D03*
X98500000Y-59250000D03*
X109750000Y-59250000D03*
X99750000Y-81250000D03*
X93500000Y-59250000D03*
X111000000Y-59250000D03*
X101000000Y-63500000D03*
X109750000Y-81250000D03*
X108500000Y-81250000D03*
X112250000Y-81250000D03*
X111000000Y-81250000D03*
X84750000Y-59250000D03*
X93000000Y-68500000D03*
X87250000Y-59250000D03*
X113500000Y-81250000D03*
X81250000Y-69000000D03*
X93000000Y-76250000D03*
X81250000Y-64000000D03*
X81250000Y-79000000D03*
X107250000Y-59250000D03*
X111250000Y-60750000D03*
X88500000Y-59250000D03*
X81250000Y-67750000D03*
X89000000Y-74750000D03*
X97250000Y-59250000D03*
X115500000Y-67750000D03*
X93500000Y-81250000D03*
X113500000Y-59250000D03*
X82250000Y-59250000D03*
X115500000Y-66500000D03*
X96000000Y-81250000D03*
X81250000Y-80250000D03*
X115500000Y-61500000D03*
X92250000Y-59250000D03*
X112250000Y-59250000D03*
X103500000Y-59250000D03*
X115500000Y-60250000D03*
X83500000Y-63250000D03*
X102250000Y-81250000D03*
X101000000Y-70000000D03*
X86000000Y-81250000D03*
X103500000Y-81250000D03*
X98000000Y-72750000D03*
X101000000Y-81250000D03*
X108500000Y-59250000D03*
X88500000Y-81250000D03*
X81250000Y-62750000D03*
X106500000Y-67475000D03*
X81250000Y-76500000D03*
X114750000Y-81250000D03*
X83000000Y-65250000D03*
X96500000Y-75000000D03*
X81250000Y-71500000D03*
X102250000Y-59250000D03*
X83000000Y-61250000D03*
X92250000Y-81250000D03*
X81250000Y-65250000D03*
X107250000Y-81250000D03*
X91000000Y-81250000D03*
X96000000Y-59250000D03*
X112500000Y-74000000D03*
X98500000Y-81250000D03*
X81250000Y-72750000D03*
X81250000Y-77750000D03*
X99000000Y-79500000D03*
X94750000Y-81250000D03*
X115500000Y-72750000D03*
X112500000Y-67500000D03*
X106030603Y-81246169D03*
X86000000Y-59250000D03*
X88500000Y-76250000D03*
X101000000Y-76500000D03*
X91000000Y-59250000D03*
X89750000Y-81250000D03*
X115500000Y-79000000D03*
X83500000Y-59250000D03*
X97250000Y-68000000D03*
X106000000Y-59250000D03*
X104750000Y-81250000D03*
X81250000Y-61500000D03*
X97250000Y-81250000D03*
X104750000Y-59250000D03*
X87250000Y-81250000D03*
X94750000Y-59250000D03*
X101000000Y-59250000D03*
X115500000Y-80250000D03*
X115500000Y-74000000D03*
X98750000Y-61250000D03*
X98000000Y-70250000D03*
X82250000Y-81250000D03*
X89750000Y-59250000D03*
X83500000Y-81250000D03*
X105500000Y-60750000D03*
X81250000Y-70250000D03*
X106500000Y-73975000D03*
X81250000Y-60250000D03*
X84750000Y-81250000D03*
X99750000Y-59250000D03*
X81250000Y-75250000D03*
X114750000Y-59250000D03*
X88750000Y-68500000D03*
X101000000Y-68500000D03*
X101000000Y-74000000D03*
X99000000Y-74000000D03*
X99050000Y-67000000D03*
X94975000Y-68500000D03*
D30*
X83735000Y-78500000D02*
X83500000Y-78265000D01*
X85750000Y-78500000D02*
X83735000Y-78500000D01*
X83500000Y-73200000D02*
X83500000Y-75725000D01*
X83975000Y-72725000D02*
X83500000Y-73200000D01*
X105250000Y-63575000D02*
X107075000Y-63575000D01*
X105250000Y-64925000D02*
X105250000Y-63575000D01*
X107075000Y-63575000D02*
X107800000Y-64300000D01*
X103775000Y-66500000D02*
X104000000Y-66500000D01*
X105250000Y-65025000D02*
X105250000Y-64925000D01*
X103775000Y-66500000D02*
X105250000Y-65025000D01*
X107800000Y-64300000D02*
X107800000Y-65960000D01*
X102225000Y-66500000D02*
X102325000Y-66500000D01*
X102325000Y-66500000D02*
X103825000Y-65000000D01*
X110735000Y-64925000D02*
X111250000Y-64925000D01*
X109700000Y-65960000D02*
X110735000Y-64925000D01*
X111250000Y-64925000D02*
X111250000Y-63525000D01*
X111250000Y-61975000D02*
X112725000Y-61975000D01*
X112725000Y-61975000D02*
X114500000Y-63750000D01*
X103775000Y-62050000D02*
X103825000Y-62000000D01*
X103825000Y-62000000D02*
X103825000Y-63450000D01*
X105175000Y-62000000D02*
X105250000Y-61925000D01*
X103825000Y-63450000D02*
X103775000Y-63500000D01*
X107395000Y-62540000D02*
X108750000Y-62540000D01*
X105250000Y-61925000D02*
X106780000Y-61925000D01*
X106780000Y-61925000D02*
X107395000Y-62540000D01*
X103825000Y-62000000D02*
X105175000Y-62000000D01*
X94925000Y-73500000D02*
X96250000Y-73500000D01*
X102225000Y-76500000D02*
X101000000Y-76500000D01*
X111250000Y-66575000D02*
X111575000Y-66575000D01*
X93000000Y-68500000D02*
X93000000Y-66525000D01*
X94925000Y-75000000D02*
X94925000Y-73500000D01*
X105250000Y-73075000D02*
X105600000Y-73075000D01*
X96250000Y-73500000D02*
X96475000Y-73275000D01*
X111575000Y-73075000D02*
X112500000Y-74000000D01*
X102225000Y-63500000D02*
X101000000Y-63500000D01*
X105600000Y-73075000D02*
X106500000Y-73975000D01*
X105250000Y-66575000D02*
X105600000Y-66575000D01*
X102225000Y-70000000D02*
X101000000Y-70000000D01*
X111250000Y-73075000D02*
X111575000Y-73075000D01*
X93000000Y-68500000D02*
X93000000Y-68000000D01*
X93000000Y-66525000D02*
X91475000Y-66525000D01*
X105600000Y-66575000D02*
X106500000Y-67475000D01*
X86700000Y-73500000D02*
X85925000Y-72725000D01*
X85925000Y-72725000D02*
X83975000Y-72725000D01*
X111575000Y-66575000D02*
X112500000Y-67500000D01*
X105250000Y-70075000D02*
X107075000Y-70075000D01*
X105250000Y-71525000D02*
X105250000Y-71425000D01*
X103775000Y-73000000D02*
X104000000Y-73000000D01*
X107075000Y-70075000D02*
X107800000Y-70800000D01*
X103775000Y-73000000D02*
X105250000Y-71525000D01*
X105250000Y-71425000D02*
X105250000Y-70075000D01*
X107800000Y-70800000D02*
X107800000Y-72460000D01*
X102325000Y-73000000D02*
X103825000Y-71500000D01*
X102225000Y-73000000D02*
X102325000Y-73000000D01*
X109700000Y-72460000D02*
X110735000Y-71425000D01*
X110735000Y-71425000D02*
X111250000Y-71425000D01*
X111250000Y-71425000D02*
X111250000Y-70025000D01*
X103825000Y-69950000D02*
X103775000Y-70000000D01*
X107395000Y-69040000D02*
X108750000Y-69040000D01*
X103775000Y-68550000D02*
X103825000Y-68500000D01*
X105250000Y-68425000D02*
X106780000Y-68425000D01*
X103825000Y-68500000D02*
X105175000Y-68500000D01*
X105175000Y-68500000D02*
X105250000Y-68425000D01*
X106780000Y-68425000D02*
X107395000Y-69040000D01*
X103825000Y-68500000D02*
X103825000Y-69950000D01*
X112725000Y-68475000D02*
X114500000Y-70250000D01*
X111250000Y-68475000D02*
X112725000Y-68475000D01*
X94975000Y-71787500D02*
X96412500Y-71787500D01*
X101000000Y-65000000D02*
X100000000Y-66000000D01*
X100000000Y-66000000D02*
X100000000Y-71500000D01*
X96412500Y-71787500D02*
X96475000Y-71725000D01*
X102175000Y-71500000D02*
X100000000Y-71500000D01*
X100000000Y-71500000D02*
X96700000Y-71500000D01*
X100000000Y-77000000D02*
X101000000Y-78000000D01*
X101000000Y-78000000D02*
X102175000Y-78000000D01*
X100000000Y-71500000D02*
X100000000Y-77000000D01*
X96700000Y-71500000D02*
X96475000Y-71725000D01*
X102175000Y-65000000D02*
X101000000Y-65000000D01*
X102325000Y-79500000D02*
X103825000Y-78000000D01*
X102225000Y-79500000D02*
X102325000Y-79500000D01*
X103775000Y-79500000D02*
X105250000Y-78025000D01*
X107075000Y-76575000D02*
X107800000Y-77300000D01*
X107800000Y-77300000D02*
X107800000Y-78960000D01*
X105250000Y-78025000D02*
X105250000Y-77925000D01*
X105250000Y-76575000D02*
X107075000Y-76575000D01*
X105250000Y-77925000D02*
X105250000Y-76575000D01*
X103775000Y-79500000D02*
X104000000Y-79500000D01*
X109700000Y-78960000D02*
X110735000Y-77925000D01*
X110735000Y-77925000D02*
X111250000Y-77925000D01*
X111250000Y-77925000D02*
X111250000Y-76525000D01*
X103775000Y-75050000D02*
X103825000Y-75000000D01*
X105250000Y-74925000D02*
X106780000Y-74925000D01*
X103825000Y-75000000D02*
X103825000Y-76450000D01*
X103825000Y-76450000D02*
X103775000Y-76500000D01*
X106780000Y-74925000D02*
X107395000Y-75540000D01*
X103825000Y-75000000D02*
X105175000Y-75000000D01*
X107395000Y-75540000D02*
X108750000Y-75540000D01*
X105175000Y-75000000D02*
X105250000Y-74925000D01*
X111250000Y-74975000D02*
X112725000Y-74975000D01*
X112725000Y-74975000D02*
X114500000Y-76750000D01*
X88790000Y-68540000D02*
X88750000Y-68500000D01*
X88790000Y-70050000D02*
X88790000Y-68540000D01*
X88725000Y-68475000D02*
X88750000Y-68500000D01*
X89925000Y-68500000D02*
X88750000Y-68500000D01*
X86750000Y-68475000D02*
X88725000Y-68475000D01*
X90325000Y-73175000D02*
X92210000Y-71290000D01*
X92210000Y-71290000D02*
X92210000Y-71000000D01*
X92210000Y-69135000D02*
X92210000Y-71000000D01*
X91575000Y-68500000D02*
X92210000Y-69135000D01*
X90325000Y-73500000D02*
X90325000Y-73175000D01*
X91975000Y-73500000D02*
X93375000Y-73500000D01*
X90325000Y-75000000D02*
X90475000Y-75000000D01*
X90475000Y-75000000D02*
X91975000Y-73500000D01*
X101000000Y-62000000D02*
X102175000Y-62000000D01*
X94375000Y-78500000D02*
X93950000Y-78075000D01*
D31*
X95500000Y-76500000D02*
X98000000Y-76500000D01*
X94375000Y-78500000D02*
X94375000Y-77625000D01*
X94375000Y-77625000D02*
X95500000Y-76500000D01*
D30*
X91862500Y-75112500D02*
X91975000Y-75000000D01*
X102175000Y-68500000D02*
X102000000Y-68500000D01*
X93950000Y-75575000D02*
X93375000Y-75000000D01*
X102000000Y-75000000D02*
X101000000Y-74000000D01*
X93950000Y-78075000D02*
X93950000Y-75575000D01*
X102175000Y-68500000D02*
X102000000Y-68500000D01*
D31*
X92237500Y-78500000D02*
X94375000Y-78500000D01*
D30*
X102175000Y-75000000D02*
X102000000Y-75000000D01*
X99050000Y-63950000D02*
X101000000Y-62000000D01*
X102175000Y-68500000D02*
X102000000Y-68500000D01*
X102175000Y-68500000D02*
X102000000Y-68500000D01*
X102175000Y-62000000D02*
X102000000Y-62000000D01*
X91975000Y-75000000D02*
X93375000Y-75000000D01*
X102175000Y-68500000D02*
X101000000Y-68500000D01*
X99050000Y-67000000D02*
X99050000Y-63950000D01*
D31*
X98000000Y-76500000D02*
X99000000Y-75500000D01*
X99000000Y-75500000D02*
X99000000Y-74000000D01*
D30*
X87750000Y-78500000D02*
X89262500Y-78500000D01*
X94975000Y-68500000D02*
X94975000Y-70212500D01*
X88200000Y-71950000D02*
X86750000Y-70500000D01*
X85725000Y-70025000D02*
X83975000Y-68275000D01*
X88250000Y-73500000D02*
X88790000Y-72960000D01*
X86750000Y-70500000D02*
X86750000Y-70025000D01*
X86750000Y-70025000D02*
X85725000Y-70025000D01*
X88790000Y-72960000D02*
X88790000Y-71950000D01*
X88790000Y-71950000D02*
X88200000Y-71950000D01*
G04 #@! TA.AperFunction,Conductor*
G36*
X115488557Y-58250005D02*
G01*
X115490122Y-58250014D01*
X115498499Y-58250065D01*
X115501433Y-58250101D01*
X115511728Y-58250290D01*
X115512776Y-58250313D01*
X115543802Y-58251073D01*
X115554418Y-58251561D01*
X115587355Y-58253786D01*
X115608594Y-58256141D01*
X115641188Y-58261180D01*
X115651683Y-58263034D01*
X115688648Y-58270387D01*
X115700494Y-58273047D01*
X115777730Y-58292393D01*
X115801100Y-58299483D01*
X115870248Y-58324225D01*
X115892815Y-58333573D01*
X115959204Y-58364972D01*
X115980754Y-58376491D01*
X116043741Y-58414244D01*
X116064057Y-58427818D01*
X116123041Y-58471563D01*
X116141932Y-58487067D01*
X116196341Y-58536381D01*
X116213618Y-58553658D01*
X116262932Y-58608067D01*
X116278434Y-58626956D01*
X116322180Y-58685940D01*
X116335748Y-58706245D01*
X116373509Y-58769245D01*
X116385027Y-58790794D01*
X116416429Y-58857189D01*
X116425779Y-58879763D01*
X116450516Y-58948898D01*
X116457610Y-58972283D01*
X116476940Y-59049454D01*
X116479617Y-59061377D01*
X116486960Y-59098292D01*
X116488823Y-59108834D01*
X116493859Y-59141415D01*
X116496214Y-59162656D01*
X116498436Y-59195524D01*
X116498927Y-59206188D01*
X116499680Y-59236927D01*
X116499712Y-59238440D01*
X116499897Y-59248503D01*
X116499934Y-59251542D01*
X116499995Y-59261417D01*
X116500000Y-59262955D01*
X116500000Y-61250000D01*
X112927115Y-61250000D01*
X112798920Y-61224500D01*
X112798918Y-61224500D01*
X112305555Y-61224500D01*
X112231710Y-61213298D01*
X111759048Y-61066520D01*
X111759038Y-61066516D01*
X111759038Y-61066517D01*
X111756578Y-61065753D01*
X111756575Y-61065752D01*
X111743742Y-61061767D01*
X111743738Y-61061766D01*
X111743731Y-61061764D01*
X111723900Y-61057849D01*
X111693810Y-61049927D01*
X111647710Y-61034651D01*
X111611128Y-61030914D01*
X111548345Y-61024500D01*
X111548341Y-61024500D01*
X110951657Y-61024500D01*
X110882222Y-61031593D01*
X110852292Y-61034651D01*
X110852290Y-61034651D01*
X110852286Y-61034652D01*
X110691306Y-61087995D01*
X110546958Y-61177030D01*
X110546956Y-61177031D01*
X110546956Y-61177032D01*
X110546916Y-61177071D01*
X110546847Y-61177117D01*
X110535580Y-61186027D01*
X110534865Y-61185123D01*
X110466137Y-61231046D01*
X110370849Y-61250000D01*
X109500763Y-61250000D01*
X109405475Y-61231046D01*
X109336895Y-61185223D01*
X109336245Y-61186053D01*
X109325277Y-61177460D01*
X109324696Y-61177072D01*
X109324388Y-61176764D01*
X109186602Y-61093469D01*
X109186600Y-61093468D01*
X109186598Y-61093467D01*
X109032887Y-61045570D01*
X109032880Y-61045569D01*
X108966094Y-61039500D01*
X108533905Y-61039500D01*
X108467114Y-61045569D01*
X108313399Y-61093468D01*
X108313398Y-61093469D01*
X108175613Y-61176763D01*
X108175612Y-61176763D01*
X108175612Y-61176764D01*
X108175304Y-61177072D01*
X108174722Y-61177460D01*
X108163755Y-61186053D01*
X108163104Y-61185223D01*
X108094525Y-61231046D01*
X107999237Y-61250000D01*
X107161085Y-61250000D01*
X107065798Y-61231046D01*
X106998914Y-61203342D01*
X106998911Y-61203341D01*
X106853920Y-61174500D01*
X106853918Y-61174500D01*
X106239998Y-61174500D01*
X106177913Y-61166636D01*
X105734375Y-61052439D01*
X105734360Y-61052435D01*
X105718558Y-61049591D01*
X105688599Y-61042257D01*
X105670884Y-61036737D01*
X105652194Y-61030913D01*
X105581630Y-61024500D01*
X105581616Y-61024500D01*
X104918384Y-61024500D01*
X104918369Y-61024500D01*
X104847811Y-61030912D01*
X104847804Y-61030914D01*
X104685390Y-61081523D01*
X104685382Y-61081527D01*
X104677761Y-61086134D01*
X104639103Y-61105146D01*
X104579484Y-61128300D01*
X104483797Y-61145128D01*
X104388955Y-61124058D01*
X104360524Y-61109281D01*
X104314606Y-61081522D01*
X104152196Y-61030914D01*
X104152188Y-61030912D01*
X104081630Y-61024500D01*
X104081616Y-61024500D01*
X103568384Y-61024500D01*
X103568369Y-61024500D01*
X103497811Y-61030912D01*
X103497803Y-61030914D01*
X103335391Y-61081522D01*
X103189816Y-61169527D01*
X103189815Y-61169527D01*
X103189815Y-61169528D01*
X103182270Y-61177072D01*
X103101492Y-61231046D01*
X103006204Y-61250000D01*
X102993796Y-61250000D01*
X102898508Y-61231046D01*
X102817729Y-61177072D01*
X102810185Y-61169528D01*
X102742686Y-61128723D01*
X102664608Y-61081522D01*
X102502196Y-61030914D01*
X102502188Y-61030912D01*
X102431630Y-61024500D01*
X102431616Y-61024500D01*
X101918384Y-61024500D01*
X101918369Y-61024500D01*
X101847811Y-61030912D01*
X101847803Y-61030914D01*
X101685391Y-61081522D01*
X101539816Y-61169527D01*
X101539815Y-61169527D01*
X101539815Y-61169528D01*
X101532770Y-61176572D01*
X101451992Y-61230546D01*
X101356704Y-61249500D01*
X100926075Y-61249500D01*
X100923561Y-61250000D01*
X100000000Y-61250000D01*
X100009433Y-61929197D01*
X98904264Y-63034366D01*
X98823482Y-63088342D01*
X98728194Y-63107296D01*
X98632906Y-63088342D01*
X98552124Y-63034366D01*
X98498148Y-62953584D01*
X98491003Y-62933408D01*
X98490853Y-62933458D01*
X98375676Y-62578978D01*
X98375671Y-62578963D01*
X98356734Y-62529632D01*
X98206445Y-62192076D01*
X98182457Y-62144996D01*
X98182454Y-62144991D01*
X97997711Y-61825007D01*
X97968919Y-61780673D01*
X97751752Y-61481769D01*
X97718493Y-61440698D01*
X97718474Y-61440676D01*
X97471276Y-61166134D01*
X97433865Y-61128723D01*
X97159323Y-60881525D01*
X97159301Y-60881506D01*
X97118230Y-60848247D01*
X96819326Y-60631080D01*
X96774992Y-60602288D01*
X96455008Y-60417545D01*
X96455003Y-60417542D01*
X96407923Y-60393554D01*
X96070367Y-60243265D01*
X96021036Y-60224328D01*
X96021021Y-60224323D01*
X95669637Y-60110152D01*
X95618586Y-60096473D01*
X95257165Y-60019652D01*
X95257154Y-60019649D01*
X95204972Y-60011386D01*
X94837535Y-59972767D01*
X94784727Y-59970000D01*
X91725001Y-59970000D01*
X91725000Y-59970001D01*
X91725000Y-62979999D01*
X91725001Y-62980000D01*
X92564308Y-62980000D01*
X92659596Y-62998954D01*
X92740378Y-63052930D01*
X92794354Y-63133712D01*
X92813308Y-63229000D01*
X92794354Y-63324288D01*
X92773192Y-63362860D01*
X92773336Y-63362943D01*
X92769529Y-63369535D01*
X92768275Y-63371823D01*
X92767901Y-63372357D01*
X92767894Y-63372368D01*
X92675426Y-63570666D01*
X92675425Y-63570670D01*
X92618793Y-63782023D01*
X92599723Y-64000000D01*
X92618793Y-64217977D01*
X92638042Y-64289815D01*
X92660882Y-64375057D01*
X92675425Y-64429330D01*
X92767898Y-64627639D01*
X92767899Y-64627640D01*
X92767900Y-64627643D01*
X92768278Y-64628182D01*
X92768489Y-64628663D01*
X92773332Y-64637050D01*
X92772413Y-64637580D01*
X92807406Y-64717109D01*
X92809525Y-64814241D01*
X92774311Y-64904790D01*
X92707126Y-64974970D01*
X92618199Y-65014098D01*
X92564308Y-65020000D01*
X91725001Y-65020000D01*
X91725000Y-65020001D01*
X91725000Y-66526000D01*
X91706046Y-66621288D01*
X91652070Y-66702070D01*
X91571288Y-66756046D01*
X91476000Y-66775000D01*
X85425721Y-66775000D01*
X85416385Y-66795967D01*
X85429807Y-66888533D01*
X85405891Y-66982698D01*
X85347761Y-67060544D01*
X85264265Y-67110218D01*
X85181148Y-67124500D01*
X82474993Y-67124500D01*
X82372199Y-67135001D01*
X82205667Y-67190185D01*
X82056346Y-67282286D01*
X81932286Y-67406346D01*
X81840184Y-67555668D01*
X81785002Y-67722197D01*
X81785001Y-67722204D01*
X81774500Y-67824988D01*
X81774500Y-68724997D01*
X81774501Y-68725014D01*
X81785001Y-68827800D01*
X81840185Y-68994332D01*
X81840186Y-68994334D01*
X81932288Y-69143656D01*
X82056344Y-69267712D01*
X82205666Y-69359814D01*
X82205669Y-69359815D01*
X82205667Y-69359815D01*
X82359993Y-69410953D01*
X82372203Y-69414999D01*
X82474991Y-69425500D01*
X83508917Y-69425499D01*
X83604205Y-69444453D01*
X83625421Y-69454436D01*
X84118625Y-69715544D01*
X84553596Y-69945823D01*
X84586078Y-69963019D01*
X84645643Y-70007012D01*
X84950395Y-70311763D01*
X85246584Y-70607952D01*
X85296641Y-70641398D01*
X85369505Y-70690084D01*
X85401510Y-70703340D01*
X85401512Y-70703342D01*
X85506088Y-70746659D01*
X85506091Y-70746660D01*
X85604738Y-70766282D01*
X85604744Y-70766282D01*
X85604751Y-70766284D01*
X85651082Y-70775500D01*
X85651083Y-70775500D01*
X85694447Y-70775500D01*
X85768291Y-70786702D01*
X85880450Y-70821531D01*
X86025607Y-70866607D01*
X86110985Y-70912966D01*
X86158800Y-70966072D01*
X86167046Y-70978413D01*
X86167047Y-70978415D01*
X86454801Y-71266170D01*
X86468547Y-71281084D01*
X86480169Y-71294773D01*
X86493799Y-71310181D01*
X86494445Y-71310882D01*
X86548979Y-71361916D01*
X86548980Y-71361917D01*
X86558847Y-71371150D01*
X86558721Y-71371284D01*
X86567755Y-71379122D01*
X86868843Y-71680211D01*
X87163778Y-71975146D01*
X87169331Y-71980880D01*
X87176412Y-71988430D01*
X87181400Y-71993041D01*
X87188452Y-71999820D01*
X87219232Y-72030600D01*
X87273208Y-72111382D01*
X87291140Y-72184137D01*
X87295570Y-72232890D01*
X87295818Y-72234137D01*
X87295817Y-72235617D01*
X87296762Y-72246007D01*
X87295817Y-72246092D01*
X87295813Y-72331292D01*
X87258628Y-72421049D01*
X87189926Y-72489744D01*
X87100164Y-72526919D01*
X87026296Y-72530412D01*
X86973325Y-72525000D01*
X86950001Y-72525000D01*
X86950000Y-72525001D01*
X86950000Y-74474998D01*
X86950001Y-74474999D01*
X86973304Y-74474999D01*
X86973320Y-74474998D01*
X87072609Y-74464855D01*
X87072612Y-74464854D01*
X87233479Y-74411548D01*
X87343802Y-74343500D01*
X87434854Y-74309607D01*
X87531944Y-74313138D01*
X87605238Y-74343497D01*
X87716303Y-74412003D01*
X87877292Y-74465349D01*
X87976655Y-74475500D01*
X88523344Y-74475499D01*
X88622708Y-74465349D01*
X88783697Y-74412003D01*
X88928044Y-74322968D01*
X89047968Y-74203044D01*
X89047977Y-74203028D01*
X89050769Y-74199499D01*
X89055778Y-74195232D01*
X89058222Y-74192789D01*
X89058417Y-74192984D01*
X89124734Y-74136505D01*
X89217176Y-74106611D01*
X89314020Y-74114369D01*
X89400525Y-74158597D01*
X89463519Y-74232562D01*
X89493413Y-74325004D01*
X89485655Y-74421848D01*
X89483824Y-74428001D01*
X89430915Y-74597797D01*
X89430912Y-74597811D01*
X89424500Y-74668369D01*
X89424500Y-75331630D01*
X89430912Y-75402188D01*
X89430914Y-75402196D01*
X89481522Y-75564608D01*
X89548560Y-75675500D01*
X89569528Y-75710185D01*
X89689815Y-75830472D01*
X89717083Y-75846956D01*
X89835391Y-75918477D01*
X89835393Y-75918477D01*
X89835394Y-75918478D01*
X89997804Y-75969086D01*
X89997808Y-75969086D01*
X89997811Y-75969087D01*
X90068369Y-75975499D01*
X90068377Y-75975499D01*
X90068384Y-75975500D01*
X90068390Y-75975500D01*
X90581610Y-75975500D01*
X90581616Y-75975500D01*
X90581623Y-75975499D01*
X90581630Y-75975499D01*
X90652188Y-75969087D01*
X90652189Y-75969086D01*
X90652196Y-75969086D01*
X90814606Y-75918478D01*
X90815409Y-75917993D01*
X90836067Y-75905503D01*
X90960185Y-75830472D01*
X90973933Y-75816723D01*
X91054712Y-75762750D01*
X91150000Y-75743796D01*
X91245288Y-75762750D01*
X91326066Y-75816723D01*
X91339815Y-75830472D01*
X91367083Y-75846956D01*
X91485391Y-75918477D01*
X91485393Y-75918477D01*
X91485394Y-75918478D01*
X91647804Y-75969086D01*
X91647808Y-75969086D01*
X91647811Y-75969087D01*
X91718369Y-75975499D01*
X91718377Y-75975499D01*
X91718384Y-75975500D01*
X91718390Y-75975500D01*
X92231610Y-75975500D01*
X92231616Y-75975500D01*
X92231623Y-75975499D01*
X92231630Y-75975499D01*
X92302188Y-75969087D01*
X92302189Y-75969086D01*
X92302196Y-75969086D01*
X92464606Y-75918478D01*
X92530028Y-75878928D01*
X92621379Y-75845853D01*
X92718434Y-75850253D01*
X92789561Y-75880087D01*
X92841303Y-75912003D01*
X93002292Y-75965349D01*
X93002305Y-75965350D01*
X93002610Y-75965416D01*
X93002985Y-75965577D01*
X93015196Y-75969624D01*
X93014842Y-75970691D01*
X93091822Y-76003892D01*
X93159518Y-76073579D01*
X93195394Y-76163868D01*
X93199500Y-76208902D01*
X93199500Y-76455062D01*
X93180546Y-76550350D01*
X93126570Y-76631132D01*
X93045788Y-76685108D01*
X92950500Y-76704062D01*
X92872181Y-76691424D01*
X92852797Y-76685001D01*
X92818534Y-76681500D01*
X92750012Y-76674500D01*
X92750008Y-76674500D01*
X91724992Y-76674500D01*
X91724987Y-76674500D01*
X91651571Y-76682000D01*
X91622203Y-76685001D01*
X91622201Y-76685001D01*
X91455665Y-76740186D01*
X91306347Y-76832287D01*
X91182287Y-76956347D01*
X91090186Y-77105665D01*
X91035001Y-77272201D01*
X91035001Y-77272205D01*
X91024500Y-77374987D01*
X91024500Y-79625012D01*
X91035001Y-79727794D01*
X91035001Y-79727798D01*
X91090186Y-79894334D01*
X91165183Y-80015923D01*
X91182289Y-80043655D01*
X91306345Y-80167711D01*
X91455666Y-80259814D01*
X91622203Y-80314999D01*
X91724992Y-80325500D01*
X91725001Y-80325500D01*
X92749999Y-80325500D01*
X92750008Y-80325500D01*
X92852797Y-80314999D01*
X93019334Y-80259814D01*
X93168655Y-80167711D01*
X93212892Y-80123473D01*
X93293670Y-80069499D01*
X93388958Y-80050544D01*
X93484246Y-80069497D01*
X93519671Y-80087612D01*
X93555666Y-80109814D01*
X93722203Y-80164999D01*
X93824992Y-80175500D01*
X93825001Y-80175500D01*
X94924999Y-80175500D01*
X94925008Y-80175500D01*
X95027797Y-80164999D01*
X95194334Y-80109814D01*
X95343655Y-80017711D01*
X95467711Y-79893655D01*
X95559814Y-79744334D01*
X95614999Y-79577797D01*
X95625500Y-79475008D01*
X95625500Y-78750001D01*
X96375000Y-78750001D01*
X96375000Y-79474980D01*
X96385494Y-79577693D01*
X96385495Y-79577700D01*
X96440640Y-79744119D01*
X96440641Y-79744120D01*
X96532681Y-79893340D01*
X96532684Y-79893344D01*
X96656655Y-80017315D01*
X96656659Y-80017318D01*
X96805879Y-80109358D01*
X96805880Y-80109359D01*
X96972299Y-80164504D01*
X96972306Y-80164505D01*
X97075019Y-80174999D01*
X97075030Y-80175000D01*
X97374999Y-80175000D01*
X97375000Y-80174999D01*
X97375000Y-78750001D01*
X97875000Y-78750001D01*
X97875000Y-80174999D01*
X97875001Y-80175000D01*
X98174970Y-80175000D01*
X98174980Y-80174999D01*
X98277693Y-80164505D01*
X98277700Y-80164504D01*
X98444119Y-80109359D01*
X98444120Y-80109358D01*
X98593340Y-80017318D01*
X98593344Y-80017315D01*
X98717315Y-79893344D01*
X98717318Y-79893340D01*
X98809358Y-79744120D01*
X98809359Y-79744119D01*
X98864504Y-79577700D01*
X98864505Y-79577693D01*
X98874999Y-79474980D01*
X98875000Y-79474970D01*
X98875000Y-78750001D01*
X98874999Y-78750000D01*
X97875001Y-78750000D01*
X97875000Y-78750001D01*
X97375000Y-78750001D01*
X97374999Y-78750000D01*
X96375001Y-78750000D01*
X96375000Y-78750001D01*
X95625500Y-78750001D01*
X95625500Y-77892559D01*
X95644454Y-77797271D01*
X95698427Y-77716492D01*
X95841491Y-77573430D01*
X95922273Y-77519454D01*
X96017560Y-77500500D01*
X96126000Y-77500500D01*
X96221288Y-77519454D01*
X96302070Y-77573430D01*
X96356046Y-77654212D01*
X96375000Y-77749500D01*
X96375000Y-78249999D01*
X96375001Y-78250000D01*
X98874999Y-78250000D01*
X98875000Y-78249999D01*
X98875000Y-77525029D01*
X98874998Y-77525009D01*
X98873357Y-77508940D01*
X98882527Y-77412219D01*
X98928012Y-77326369D01*
X99002888Y-77264461D01*
X99095756Y-77235919D01*
X99192477Y-77245089D01*
X99278327Y-77290574D01*
X99325205Y-77347271D01*
X99328120Y-77345324D01*
X99355721Y-77386632D01*
X99355722Y-77386634D01*
X99417047Y-77478415D01*
X99417049Y-77478418D01*
X100178840Y-78240207D01*
X100232817Y-78320989D01*
X100237341Y-78338564D01*
X100250000Y-79250000D01*
X101109905Y-79250000D01*
X101142680Y-79259910D01*
X101217837Y-79321477D01*
X101263713Y-79407118D01*
X101274500Y-79479613D01*
X101274500Y-79798342D01*
X101277897Y-79831591D01*
X101284306Y-79894334D01*
X101284652Y-79897713D01*
X101337995Y-80058693D01*
X101337996Y-80058695D01*
X101337997Y-80058697D01*
X101381281Y-80128870D01*
X101410042Y-80175500D01*
X101427032Y-80203044D01*
X101546956Y-80322968D01*
X101691303Y-80412003D01*
X101852292Y-80465349D01*
X101951655Y-80475500D01*
X102498344Y-80475499D01*
X102597708Y-80465349D01*
X102758697Y-80412003D01*
X102869284Y-80343791D01*
X102960332Y-80309901D01*
X103057423Y-80313433D01*
X103130714Y-80343790D01*
X103241303Y-80412003D01*
X103402292Y-80465349D01*
X103501655Y-80475500D01*
X104048344Y-80475499D01*
X104147708Y-80465349D01*
X104228202Y-80438676D01*
X104308692Y-80412005D01*
X104308693Y-80412004D01*
X104308697Y-80412003D01*
X104360916Y-80379793D01*
X104451963Y-80345902D01*
X104549054Y-80349433D01*
X104620450Y-80378633D01*
X104685597Y-80418016D01*
X104685602Y-80418018D01*
X104847898Y-80468591D01*
X104918410Y-80474998D01*
X104918431Y-80474999D01*
X104999999Y-80474999D01*
X105000000Y-80474998D01*
X105000000Y-79825001D01*
X105500000Y-79825001D01*
X105500000Y-80474998D01*
X105500001Y-80474999D01*
X105581568Y-80474999D01*
X105652105Y-80468590D01*
X105814397Y-80418018D01*
X105814402Y-80418016D01*
X105959870Y-80330077D01*
X106080077Y-80209870D01*
X106168016Y-80064402D01*
X106168018Y-80064397D01*
X106218591Y-79902101D01*
X106224998Y-79831591D01*
X106225000Y-79831567D01*
X106225000Y-79825001D01*
X106224999Y-79825000D01*
X105500001Y-79825000D01*
X105500000Y-79825001D01*
X105000000Y-79825001D01*
X105000000Y-79574000D01*
X105018954Y-79478712D01*
X105072930Y-79397930D01*
X105153712Y-79343954D01*
X105249000Y-79325000D01*
X106224998Y-79325000D01*
X106227068Y-79322930D01*
X106307850Y-79268954D01*
X106403138Y-79250000D01*
X106725501Y-79250000D01*
X106820789Y-79268954D01*
X106901571Y-79322930D01*
X106955547Y-79403712D01*
X106974500Y-79498998D01*
X106974501Y-79851090D01*
X106980570Y-79917887D01*
X106980571Y-79917890D01*
X107027813Y-80069499D01*
X107028469Y-80071602D01*
X107111764Y-80209388D01*
X107225612Y-80323236D01*
X107363398Y-80406531D01*
X107517113Y-80454430D01*
X107583909Y-80460500D01*
X108016090Y-80460499D01*
X108016094Y-80460499D01*
X108060621Y-80456453D01*
X108082887Y-80454430D01*
X108236602Y-80406531D01*
X108374388Y-80323236D01*
X108488236Y-80209388D01*
X108536913Y-80128866D01*
X108602427Y-80057130D01*
X108690410Y-80015923D01*
X108787465Y-80011522D01*
X108878817Y-80044597D01*
X108950557Y-80110114D01*
X108963078Y-80128852D01*
X109011764Y-80209388D01*
X109125612Y-80323236D01*
X109263398Y-80406531D01*
X109417113Y-80454430D01*
X109483909Y-80460500D01*
X109916090Y-80460499D01*
X109916094Y-80460499D01*
X109960621Y-80456453D01*
X109982887Y-80454430D01*
X110136602Y-80406531D01*
X110272785Y-80324204D01*
X110364133Y-80291130D01*
X110461188Y-80295530D01*
X110530417Y-80324206D01*
X110685597Y-80418016D01*
X110685602Y-80418018D01*
X110847898Y-80468591D01*
X110918410Y-80474998D01*
X110918431Y-80474999D01*
X110999999Y-80474999D01*
X111000000Y-80474998D01*
X111000000Y-79825001D01*
X111500000Y-79825001D01*
X111500000Y-80474998D01*
X111500001Y-80474999D01*
X111581568Y-80474999D01*
X111652105Y-80468590D01*
X111814397Y-80418018D01*
X111814402Y-80418016D01*
X111959870Y-80330077D01*
X112080077Y-80209870D01*
X112168016Y-80064402D01*
X112168018Y-80064397D01*
X112218591Y-79902101D01*
X112224998Y-79831591D01*
X112225000Y-79831567D01*
X112225000Y-79825001D01*
X112224999Y-79825000D01*
X111500001Y-79825000D01*
X111500000Y-79825001D01*
X111000000Y-79825001D01*
X111000000Y-79574000D01*
X111018954Y-79478712D01*
X111072930Y-79397930D01*
X111153712Y-79343954D01*
X111249000Y-79325000D01*
X112224998Y-79325000D01*
X112227068Y-79322930D01*
X112307850Y-79268954D01*
X112403138Y-79250000D01*
X116500000Y-79250000D01*
X116500000Y-81237044D01*
X116499995Y-81238582D01*
X116499934Y-81248457D01*
X116499897Y-81251496D01*
X116499712Y-81261559D01*
X116499681Y-81262983D01*
X116498927Y-81293809D01*
X116498436Y-81304475D01*
X116496214Y-81337343D01*
X116493859Y-81358584D01*
X116488823Y-81391165D01*
X116486960Y-81401707D01*
X116479617Y-81438622D01*
X116476940Y-81450545D01*
X116457610Y-81527716D01*
X116450516Y-81551101D01*
X116425779Y-81620236D01*
X116416428Y-81642811D01*
X116385027Y-81709203D01*
X116373508Y-81730754D01*
X116335755Y-81793741D01*
X116322181Y-81814057D01*
X116278436Y-81873041D01*
X116262932Y-81891932D01*
X116213618Y-81946341D01*
X116196341Y-81963618D01*
X116141932Y-82012932D01*
X116123041Y-82028436D01*
X116064057Y-82072181D01*
X116043741Y-82085755D01*
X115980754Y-82123508D01*
X115959203Y-82135027D01*
X115892811Y-82166428D01*
X115870236Y-82175779D01*
X115801101Y-82200516D01*
X115777716Y-82207610D01*
X115700545Y-82226940D01*
X115688622Y-82229617D01*
X115651707Y-82236960D01*
X115641165Y-82238823D01*
X115608584Y-82243859D01*
X115587343Y-82246214D01*
X115567918Y-82247527D01*
X115554456Y-82248436D01*
X115543809Y-82248927D01*
X115512983Y-82249681D01*
X115511559Y-82249712D01*
X115501496Y-82249897D01*
X115498457Y-82249934D01*
X115490044Y-82249985D01*
X115488555Y-82249995D01*
X115487044Y-82250000D01*
X81262956Y-82250000D01*
X81261444Y-82249995D01*
X81259938Y-82249985D01*
X81251542Y-82249934D01*
X81248503Y-82249897D01*
X81238440Y-82249712D01*
X81237023Y-82249682D01*
X81206188Y-82248927D01*
X81195545Y-82248436D01*
X81179750Y-82247369D01*
X81162656Y-82246214D01*
X81141415Y-82243859D01*
X81108834Y-82238823D01*
X81098292Y-82236960D01*
X81061377Y-82229617D01*
X81049454Y-82226940D01*
X80972283Y-82207610D01*
X80948898Y-82200516D01*
X80879763Y-82175779D01*
X80857188Y-82166428D01*
X80790796Y-82135027D01*
X80769245Y-82123508D01*
X80706263Y-82085758D01*
X80685947Y-82072184D01*
X80626956Y-82028434D01*
X80608065Y-82012930D01*
X80553658Y-81963618D01*
X80536381Y-81946341D01*
X80487067Y-81891932D01*
X80471563Y-81873041D01*
X80427818Y-81814057D01*
X80414244Y-81793741D01*
X80376491Y-81730754D01*
X80364972Y-81709204D01*
X80333576Y-81642823D01*
X80324225Y-81620248D01*
X80299483Y-81551100D01*
X80292393Y-81527730D01*
X80273047Y-81450494D01*
X80270387Y-81438648D01*
X80263034Y-81401683D01*
X80261182Y-81391201D01*
X80256140Y-81358584D01*
X80253785Y-81337343D01*
X80251560Y-81304410D01*
X80251073Y-81293855D01*
X80250310Y-81262683D01*
X80250287Y-81261559D01*
X80250101Y-81251415D01*
X80250065Y-81248499D01*
X80250005Y-81238557D01*
X80250000Y-81237044D01*
X80250000Y-78264994D01*
X82144341Y-78264994D01*
X82144341Y-78265005D01*
X82164935Y-78500401D01*
X82164937Y-78500408D01*
X82226097Y-78728663D01*
X82300320Y-78887835D01*
X82325965Y-78942830D01*
X82437621Y-79102292D01*
X82461505Y-79136401D01*
X82628599Y-79303495D01*
X82822170Y-79439035D01*
X83036337Y-79538903D01*
X83264592Y-79600063D01*
X83264595Y-79600063D01*
X83264598Y-79600064D01*
X83499995Y-79620659D01*
X83500000Y-79620659D01*
X83500005Y-79620659D01*
X83735401Y-79600064D01*
X83735403Y-79600063D01*
X83735408Y-79600063D01*
X83963663Y-79538903D01*
X84177830Y-79439035D01*
X84371401Y-79303495D01*
X84371400Y-79303495D01*
X84380307Y-79297259D01*
X84381912Y-79299551D01*
X84450290Y-79262031D01*
X84525186Y-79250500D01*
X85000166Y-79250500D01*
X85095454Y-79269454D01*
X85149388Y-79300167D01*
X85179795Y-79322930D01*
X85207669Y-79343796D01*
X85342517Y-79394091D01*
X85402127Y-79400500D01*
X85725007Y-79400499D01*
X85820293Y-79419453D01*
X85901075Y-79473429D01*
X85955052Y-79554210D01*
X85958307Y-79562483D01*
X86006646Y-79692087D01*
X86092810Y-79807187D01*
X86092812Y-79807189D01*
X86207912Y-79893353D01*
X86342621Y-79943596D01*
X86342628Y-79943598D01*
X86402167Y-79949999D01*
X86402175Y-79950000D01*
X86499999Y-79950000D01*
X86500000Y-79949999D01*
X86500000Y-79170621D01*
X86515701Y-79083601D01*
X86516701Y-79080920D01*
X86567760Y-78998265D01*
X86646565Y-78941440D01*
X86741116Y-78919099D01*
X86837020Y-78934641D01*
X86919675Y-78985700D01*
X86976500Y-79064505D01*
X86983299Y-79080920D01*
X86984299Y-79083601D01*
X87000000Y-79170621D01*
X87000000Y-79949999D01*
X87000001Y-79950000D01*
X87097825Y-79950000D01*
X87097832Y-79949999D01*
X87157371Y-79943598D01*
X87157378Y-79943596D01*
X87292087Y-79893353D01*
X87407187Y-79807189D01*
X87407189Y-79807187D01*
X87493353Y-79692087D01*
X87541693Y-79562483D01*
X87592752Y-79479826D01*
X87671555Y-79423001D01*
X87766106Y-79400658D01*
X87774970Y-79400499D01*
X87801707Y-79400499D01*
X87896994Y-79419453D01*
X87977776Y-79473429D01*
X88031752Y-79554211D01*
X88049417Y-79624193D01*
X88049500Y-79625005D01*
X88049500Y-79625008D01*
X88049500Y-79625012D01*
X88060001Y-79727794D01*
X88060001Y-79727798D01*
X88115186Y-79894334D01*
X88190183Y-80015923D01*
X88207289Y-80043655D01*
X88331345Y-80167711D01*
X88480666Y-80259814D01*
X88647203Y-80314999D01*
X88749992Y-80325500D01*
X88750001Y-80325500D01*
X89774999Y-80325500D01*
X89775008Y-80325500D01*
X89877797Y-80314999D01*
X90044334Y-80259814D01*
X90193655Y-80167711D01*
X90317711Y-80043655D01*
X90409814Y-79894334D01*
X90464999Y-79727797D01*
X90475500Y-79625008D01*
X90475500Y-77374992D01*
X90464999Y-77272203D01*
X90409814Y-77105666D01*
X90317711Y-76956345D01*
X90193655Y-76832289D01*
X90044334Y-76740186D01*
X90044335Y-76740186D01*
X89897180Y-76691424D01*
X89877797Y-76685001D01*
X89852122Y-76682378D01*
X89775012Y-76674500D01*
X89775008Y-76674500D01*
X88749992Y-76674500D01*
X88749987Y-76674500D01*
X88676571Y-76682000D01*
X88647203Y-76685001D01*
X88647201Y-76685001D01*
X88480665Y-76740186D01*
X88331347Y-76832287D01*
X88207287Y-76956347D01*
X88115186Y-77105665D01*
X88060001Y-77272201D01*
X88060001Y-77272203D01*
X88052135Y-77349206D01*
X88049417Y-77375807D01*
X88020876Y-77468675D01*
X87958969Y-77543552D01*
X87873121Y-77589039D01*
X87801706Y-77599500D01*
X87774994Y-77599500D01*
X87679706Y-77580546D01*
X87598924Y-77526570D01*
X87544948Y-77445788D01*
X87541693Y-77437516D01*
X87493353Y-77307912D01*
X87407189Y-77192812D01*
X87407187Y-77192810D01*
X87292087Y-77106646D01*
X87157378Y-77056403D01*
X87157371Y-77056401D01*
X87097832Y-77050000D01*
X87000001Y-77050000D01*
X87000000Y-77050001D01*
X87000000Y-77829378D01*
X86984299Y-77916398D01*
X86983299Y-77919079D01*
X86932240Y-78001734D01*
X86853435Y-78058559D01*
X86758884Y-78080900D01*
X86662980Y-78065358D01*
X86580325Y-78014299D01*
X86523500Y-77935494D01*
X86516701Y-77919079D01*
X86515701Y-77916398D01*
X86500000Y-77829378D01*
X86500000Y-77050001D01*
X86499999Y-77050000D01*
X86402167Y-77050000D01*
X86342628Y-77056401D01*
X86342621Y-77056403D01*
X86207912Y-77106646D01*
X86092812Y-77192810D01*
X86092810Y-77192812D01*
X86006646Y-77307912D01*
X85958307Y-77437516D01*
X85907248Y-77520173D01*
X85828444Y-77576998D01*
X85733894Y-77599341D01*
X85725007Y-77599500D01*
X85402134Y-77599500D01*
X85402130Y-77599500D01*
X85402128Y-77599501D01*
X85389314Y-77600878D01*
X85342519Y-77605908D01*
X85342515Y-77605909D01*
X85207667Y-77656204D01*
X85149388Y-77699833D01*
X85061747Y-77741765D01*
X85000166Y-77749500D01*
X84908361Y-77749500D01*
X84813073Y-77730546D01*
X84732291Y-77676570D01*
X84682691Y-77605734D01*
X84682161Y-77604598D01*
X84674035Y-77587171D01*
X84664413Y-77573430D01*
X84626619Y-77519454D01*
X84538495Y-77393599D01*
X84538488Y-77393592D01*
X84534823Y-77389223D01*
X84532625Y-77385217D01*
X84532259Y-77384694D01*
X84532316Y-77384653D01*
X84488093Y-77304045D01*
X84477517Y-77207467D01*
X84504704Y-77114194D01*
X84565516Y-77038424D01*
X84578323Y-77029683D01*
X84577831Y-77029026D01*
X84707187Y-76932189D01*
X84707189Y-76932187D01*
X84793353Y-76817087D01*
X84843596Y-76682378D01*
X84843598Y-76682371D01*
X84849999Y-76622832D01*
X84850000Y-76622825D01*
X84850000Y-75975001D01*
X84849999Y-75975000D01*
X83933012Y-75975000D01*
X83965925Y-75917993D01*
X84000000Y-75790826D01*
X84000000Y-75659174D01*
X83965925Y-75532007D01*
X83933012Y-75475000D01*
X84849999Y-75475000D01*
X84850000Y-75474999D01*
X84850000Y-74827175D01*
X84849999Y-74827167D01*
X84843598Y-74767628D01*
X84843596Y-74767621D01*
X84793353Y-74632912D01*
X84707189Y-74517812D01*
X84707187Y-74517810D01*
X84592087Y-74431646D01*
X84457378Y-74381403D01*
X84457371Y-74381401D01*
X84397832Y-74375000D01*
X83750001Y-74375000D01*
X83750000Y-74375001D01*
X83750000Y-75291988D01*
X83692993Y-75259075D01*
X83565826Y-75225000D01*
X83434174Y-75225000D01*
X83307007Y-75259075D01*
X83250000Y-75291988D01*
X83250000Y-74375001D01*
X83249999Y-74375000D01*
X82602167Y-74375000D01*
X82542628Y-74381401D01*
X82542621Y-74381403D01*
X82407912Y-74431646D01*
X82292812Y-74517810D01*
X82292810Y-74517812D01*
X82206646Y-74632912D01*
X82156403Y-74767621D01*
X82156401Y-74767628D01*
X82150000Y-74827167D01*
X82150000Y-75474999D01*
X82150001Y-75475000D01*
X83066988Y-75475000D01*
X83034075Y-75532007D01*
X83000000Y-75659174D01*
X83000000Y-75790826D01*
X83034075Y-75917993D01*
X83066988Y-75975000D01*
X82150001Y-75975000D01*
X82150000Y-75975001D01*
X82150000Y-76622832D01*
X82156401Y-76682371D01*
X82156403Y-76682378D01*
X82206646Y-76817087D01*
X82292810Y-76932187D01*
X82292812Y-76932189D01*
X82422169Y-77029026D01*
X82419710Y-77032310D01*
X82468330Y-77072952D01*
X82513352Y-77159046D01*
X82522000Y-77255815D01*
X82492958Y-77348528D01*
X82465183Y-77389215D01*
X82461510Y-77393592D01*
X82325965Y-77587169D01*
X82325961Y-77587177D01*
X82226098Y-77801333D01*
X82226097Y-77801335D01*
X82164935Y-78029598D01*
X82144341Y-78264994D01*
X80250000Y-78264994D01*
X80250000Y-72975001D01*
X81775001Y-72975001D01*
X81775001Y-73174984D01*
X81785494Y-73277699D01*
X81785495Y-73277702D01*
X81840640Y-73444119D01*
X81840641Y-73444121D01*
X81932681Y-73593341D01*
X81932684Y-73593345D01*
X82056654Y-73717315D01*
X82056658Y-73717318D01*
X82205878Y-73809358D01*
X82205879Y-73809359D01*
X82372298Y-73864504D01*
X82372305Y-73864505D01*
X82475023Y-73874999D01*
X83724998Y-73874999D01*
X83725000Y-73874998D01*
X83725000Y-72975001D01*
X83724999Y-72975000D01*
X81775002Y-72975000D01*
X81775001Y-72975001D01*
X80250000Y-72975001D01*
X80250000Y-72275018D01*
X81775000Y-72275018D01*
X81775000Y-72474999D01*
X81775001Y-72475000D01*
X83724999Y-72475000D01*
X83725000Y-72474999D01*
X83725000Y-71575001D01*
X84225000Y-71575001D01*
X84225000Y-73874998D01*
X84225001Y-73874999D01*
X85474968Y-73874999D01*
X85474977Y-73874998D01*
X85544750Y-73867870D01*
X85641471Y-73877041D01*
X85727320Y-73922528D01*
X85789228Y-73997405D01*
X85806419Y-74037258D01*
X85813451Y-74058481D01*
X85902425Y-74202729D01*
X86022270Y-74322574D01*
X86166516Y-74411546D01*
X86327396Y-74464855D01*
X86426687Y-74474999D01*
X86426688Y-74474999D01*
X86450000Y-74474998D01*
X86450000Y-72525000D01*
X86449999Y-72524999D01*
X86424007Y-72525000D01*
X86328718Y-72506049D01*
X86247935Y-72452075D01*
X86193956Y-72371295D01*
X86176054Y-72281315D01*
X86175321Y-72281353D01*
X86175065Y-72276343D01*
X86174999Y-72276008D01*
X86174999Y-72275032D01*
X86174998Y-72275015D01*
X86164505Y-72172300D01*
X86164504Y-72172297D01*
X86109359Y-72005880D01*
X86109358Y-72005878D01*
X86017318Y-71856658D01*
X86017315Y-71856654D01*
X85893345Y-71732684D01*
X85893341Y-71732681D01*
X85744121Y-71640641D01*
X85744120Y-71640640D01*
X85577701Y-71585495D01*
X85577694Y-71585494D01*
X85474981Y-71575000D01*
X84225001Y-71575000D01*
X84225000Y-71575001D01*
X83725000Y-71575001D01*
X83724999Y-71575000D01*
X82475023Y-71575000D01*
X82372300Y-71585494D01*
X82372297Y-71585495D01*
X82205880Y-71640640D01*
X82205878Y-71640641D01*
X82056658Y-71732681D01*
X82056654Y-71732684D01*
X81932684Y-71856654D01*
X81932681Y-71856658D01*
X81840641Y-72005878D01*
X81840640Y-72005879D01*
X81785495Y-72172298D01*
X81785494Y-72172305D01*
X81775000Y-72275018D01*
X80250000Y-72275018D01*
X80250000Y-63815272D01*
X84320000Y-63815272D01*
X84320000Y-64184727D01*
X84322767Y-64237535D01*
X84361386Y-64604972D01*
X84369649Y-64657154D01*
X84369652Y-64657165D01*
X84446473Y-65018586D01*
X84460152Y-65069637D01*
X84574323Y-65421021D01*
X84574328Y-65421036D01*
X84593265Y-65470367D01*
X84743554Y-65807923D01*
X84767542Y-65855003D01*
X84767545Y-65855008D01*
X84952288Y-66174992D01*
X84981082Y-66219329D01*
X85021529Y-66274999D01*
X85021531Y-66275000D01*
X91224999Y-66275000D01*
X91225000Y-66274999D01*
X91225000Y-65020001D01*
X91224999Y-65020000D01*
X90265692Y-65020000D01*
X90170404Y-65001046D01*
X90089622Y-64947070D01*
X90035646Y-64866288D01*
X90016692Y-64771000D01*
X90035646Y-64675712D01*
X90056811Y-64637132D01*
X90056668Y-64637050D01*
X90060459Y-64630483D01*
X90061722Y-64628182D01*
X90062099Y-64627643D01*
X90062098Y-64627643D01*
X90062102Y-64627639D01*
X90154575Y-64429330D01*
X90211207Y-64217977D01*
X90230277Y-64000000D01*
X90211207Y-63782023D01*
X90154575Y-63570670D01*
X90062102Y-63372362D01*
X90061725Y-63371823D01*
X90061514Y-63371344D01*
X90056664Y-63362943D01*
X90057583Y-63362411D01*
X90022595Y-63282896D01*
X90020474Y-63185764D01*
X90055686Y-63095214D01*
X90122869Y-63025033D01*
X90211796Y-62985903D01*
X90265692Y-62980000D01*
X91224999Y-62980000D01*
X91225000Y-62979999D01*
X91225000Y-59970001D01*
X91224999Y-59970000D01*
X88165273Y-59970000D01*
X88112464Y-59972767D01*
X87745027Y-60011386D01*
X87692845Y-60019649D01*
X87692834Y-60019652D01*
X87331413Y-60096473D01*
X87280362Y-60110152D01*
X86928978Y-60224323D01*
X86928963Y-60224328D01*
X86879632Y-60243265D01*
X86542076Y-60393554D01*
X86494996Y-60417542D01*
X86494991Y-60417545D01*
X86175007Y-60602288D01*
X86130673Y-60631080D01*
X85831769Y-60848247D01*
X85790698Y-60881506D01*
X85790676Y-60881525D01*
X85516134Y-61128723D01*
X85478723Y-61166134D01*
X85231525Y-61440676D01*
X85231506Y-61440698D01*
X85198247Y-61481769D01*
X84981080Y-61780673D01*
X84952288Y-61825007D01*
X84767545Y-62144991D01*
X84767542Y-62144996D01*
X84743554Y-62192076D01*
X84593265Y-62529632D01*
X84574328Y-62578963D01*
X84574323Y-62578978D01*
X84460152Y-62930362D01*
X84446473Y-62981413D01*
X84369652Y-63342834D01*
X84369649Y-63342845D01*
X84361386Y-63395027D01*
X84322767Y-63762464D01*
X84320000Y-63815272D01*
X80250000Y-63815272D01*
X80250000Y-59262955D01*
X80250005Y-59261442D01*
X80250065Y-59251567D01*
X80250066Y-59251542D01*
X80250065Y-59251498D01*
X80250102Y-59248513D01*
X80250290Y-59238265D01*
X80250312Y-59237230D01*
X80251073Y-59206195D01*
X80251561Y-59195583D01*
X80253786Y-59162641D01*
X80256142Y-59141401D01*
X80261181Y-59108803D01*
X80263033Y-59098324D01*
X80270389Y-59061342D01*
X80273045Y-59049513D01*
X80292394Y-58972263D01*
X80299483Y-58948899D01*
X80324228Y-58879742D01*
X80333571Y-58857189D01*
X80364976Y-58790787D01*
X80376491Y-58769245D01*
X80414241Y-58706263D01*
X80427809Y-58685955D01*
X80471571Y-58626948D01*
X80487062Y-58608073D01*
X80536387Y-58553651D01*
X80553651Y-58536387D01*
X80608073Y-58487062D01*
X80626954Y-58471567D01*
X80685960Y-58427805D01*
X80706231Y-58414260D01*
X80769265Y-58376479D01*
X80790786Y-58364976D01*
X80857191Y-58333569D01*
X80879742Y-58324228D01*
X80948903Y-58299481D01*
X80972263Y-58292394D01*
X81049513Y-58273045D01*
X81061342Y-58270389D01*
X81098324Y-58263033D01*
X81108803Y-58261181D01*
X81141407Y-58256141D01*
X81162641Y-58253786D01*
X81195583Y-58251561D01*
X81206195Y-58251073D01*
X81237230Y-58250312D01*
X81238265Y-58250290D01*
X81248567Y-58250101D01*
X81251498Y-58250065D01*
X81259896Y-58250014D01*
X81261443Y-58250005D01*
X81262956Y-58250000D01*
X115487044Y-58250000D01*
X115488557Y-58250005D01*
G37*
G04 #@! TD.AperFunction*
G04 #@! TA.AperFunction,Conductor*
G36*
X99095788Y-72269454D02*
G01*
X99176570Y-72323430D01*
X99230546Y-72404212D01*
X99249500Y-72499500D01*
X99249500Y-72745659D01*
X99230546Y-72840947D01*
X99176570Y-72921729D01*
X99095788Y-72975705D01*
X99012065Y-72992358D01*
X99012174Y-72993460D01*
X99000990Y-72994561D01*
X99000500Y-72994659D01*
X99000000Y-72994659D01*
X98963022Y-72998301D01*
X98938616Y-72999500D01*
X98901459Y-72999500D01*
X98901456Y-72999500D01*
X98901451Y-72999501D01*
X98865017Y-73006747D01*
X98840865Y-73010330D01*
X98803872Y-73013974D01*
X98768302Y-73024764D01*
X98744609Y-73030699D01*
X98708165Y-73037948D01*
X98673836Y-73052168D01*
X98650843Y-73060395D01*
X98635619Y-73065013D01*
X98615268Y-73071187D01*
X98582502Y-73088702D01*
X98560414Y-73099149D01*
X98526082Y-73113369D01*
X98495187Y-73134013D01*
X98474236Y-73146571D01*
X98441460Y-73164091D01*
X98412732Y-73187666D01*
X98393119Y-73202212D01*
X98362224Y-73222856D01*
X98362216Y-73222862D01*
X98335934Y-73249144D01*
X98317840Y-73265543D01*
X98289122Y-73289112D01*
X98289112Y-73289122D01*
X98265543Y-73317840D01*
X98249144Y-73335934D01*
X98222862Y-73362216D01*
X98222856Y-73362224D01*
X98202212Y-73393119D01*
X98187666Y-73412732D01*
X98164091Y-73441460D01*
X98146571Y-73474236D01*
X98134013Y-73495187D01*
X98113369Y-73526082D01*
X98099149Y-73560414D01*
X98088702Y-73582502D01*
X98071187Y-73615268D01*
X98065013Y-73635619D01*
X98061379Y-73647603D01*
X98060398Y-73650836D01*
X98052168Y-73673836D01*
X98037948Y-73708165D01*
X98030699Y-73744609D01*
X98024764Y-73768302D01*
X98013974Y-73803872D01*
X98010330Y-73840865D01*
X98006747Y-73865017D01*
X97999501Y-73901451D01*
X97999500Y-73901463D01*
X97999500Y-73938615D01*
X97998301Y-73963021D01*
X97994659Y-73999999D01*
X97998301Y-74036977D01*
X97999500Y-74061384D01*
X97999500Y-74982440D01*
X97980546Y-75077728D01*
X97926570Y-75158509D01*
X97658511Y-75426569D01*
X97577730Y-75480546D01*
X97482441Y-75499500D01*
X96124000Y-75499500D01*
X96028712Y-75480546D01*
X95947930Y-75426570D01*
X95893954Y-75345788D01*
X95875000Y-75250500D01*
X95875000Y-75250001D01*
X95874999Y-75250000D01*
X94924000Y-75250000D01*
X94828712Y-75231046D01*
X94747930Y-75177070D01*
X94693954Y-75096288D01*
X94675000Y-75001000D01*
X94675000Y-73750001D01*
X95175000Y-73750001D01*
X95175000Y-74749999D01*
X95175001Y-74750000D01*
X95874998Y-74750000D01*
X95874999Y-74749999D01*
X95874999Y-74701696D01*
X95874998Y-74701679D01*
X95864855Y-74602390D01*
X95864854Y-74602387D01*
X95845483Y-74543928D01*
X95833502Y-74447515D01*
X95859329Y-74353856D01*
X95919032Y-74277209D01*
X96003522Y-74229245D01*
X96099935Y-74217264D01*
X96107154Y-74217896D01*
X96176672Y-74224998D01*
X96176689Y-74224999D01*
X96225000Y-74224998D01*
X96225000Y-73525001D01*
X96725000Y-73525001D01*
X96725000Y-74224998D01*
X96725001Y-74224999D01*
X96773304Y-74224999D01*
X96773320Y-74224998D01*
X96872609Y-74214855D01*
X96872612Y-74214854D01*
X97033480Y-74161548D01*
X97177729Y-74072574D01*
X97297574Y-73952729D01*
X97386546Y-73808483D01*
X97439855Y-73647603D01*
X97449999Y-73548317D01*
X97450000Y-73548307D01*
X97450000Y-73525001D01*
X97449999Y-73525000D01*
X96725001Y-73525000D01*
X96725000Y-73525001D01*
X96225000Y-73525001D01*
X96224999Y-73525000D01*
X95918001Y-73525000D01*
X95912040Y-73530960D01*
X95899046Y-73596288D01*
X95845070Y-73677070D01*
X95764288Y-73731046D01*
X95669000Y-73750000D01*
X95175001Y-73750000D01*
X95175000Y-73750001D01*
X94675000Y-73750001D01*
X94675000Y-73499000D01*
X94693954Y-73403712D01*
X94747930Y-73322930D01*
X94828712Y-73268954D01*
X94924000Y-73250000D01*
X95456999Y-73250000D01*
X95462959Y-73244039D01*
X95475954Y-73178712D01*
X95529930Y-73097930D01*
X95610712Y-73043954D01*
X95706000Y-73025000D01*
X97449998Y-73025000D01*
X97449999Y-73024999D01*
X97449999Y-73001696D01*
X97449998Y-73001679D01*
X97439855Y-72902390D01*
X97439854Y-72902387D01*
X97386548Y-72741518D01*
X97349155Y-72680895D01*
X97315263Y-72589844D01*
X97318795Y-72492753D01*
X97359213Y-72404404D01*
X97422533Y-72343283D01*
X97498215Y-72292602D01*
X97587937Y-72255333D01*
X97636760Y-72250500D01*
X99000500Y-72250500D01*
X99095788Y-72269454D01*
G37*
G04 #@! TD.AperFunction*
G04 #@! TA.AperFunction,Conductor*
G36*
X97894483Y-66593562D02*
G01*
X97977979Y-66643236D01*
X98036109Y-66721082D01*
X98060025Y-66815247D01*
X98059167Y-66852684D01*
X98044659Y-66999997D01*
X98044659Y-66999999D01*
X98063975Y-67196131D01*
X98121185Y-67384725D01*
X98121188Y-67384733D01*
X98214088Y-67558536D01*
X98242757Y-67593469D01*
X98339117Y-67710883D01*
X98390853Y-67753342D01*
X98491463Y-67835911D01*
X98665266Y-67928811D01*
X98665270Y-67928812D01*
X98665273Y-67928814D01*
X98853868Y-67986024D01*
X99024906Y-68002869D01*
X99117877Y-68031071D01*
X99192979Y-68092705D01*
X99238778Y-68178388D01*
X99249500Y-68250670D01*
X99249500Y-70500500D01*
X99230546Y-70595788D01*
X99176570Y-70676570D01*
X99095788Y-70730546D01*
X99000500Y-70749500D01*
X97428173Y-70749500D01*
X97399032Y-70747789D01*
X97375108Y-70744969D01*
X97200726Y-70749419D01*
X97194375Y-70749500D01*
X96626082Y-70749500D01*
X96614372Y-70751829D01*
X96562907Y-70762065D01*
X96520690Y-70766767D01*
X96420076Y-70769335D01*
X96412143Y-70769724D01*
X96396311Y-70770502D01*
X96396292Y-70770503D01*
X96396279Y-70770504D01*
X96395230Y-70770580D01*
X96393033Y-70770910D01*
X96387600Y-70771728D01*
X96350551Y-70774500D01*
X96196063Y-70774500D01*
X96100775Y-70755546D01*
X96019993Y-70701570D01*
X95966017Y-70620788D01*
X95947063Y-70525500D01*
X95948353Y-70500191D01*
X95949741Y-70486601D01*
X95950500Y-70479174D01*
X95950500Y-69945826D01*
X95940436Y-69847315D01*
X95887549Y-69687713D01*
X95887547Y-69687709D01*
X95886754Y-69686011D01*
X95864246Y-69638581D01*
X95801905Y-69458593D01*
X95788629Y-69362352D01*
X95796325Y-69313983D01*
X95923342Y-68829350D01*
X95927855Y-68810690D01*
X95927855Y-68810688D01*
X95930227Y-68800883D01*
X95930528Y-68800956D01*
X95934567Y-68783344D01*
X95961024Y-68696132D01*
X95980341Y-68500000D01*
X95961024Y-68303868D01*
X95903814Y-68115273D01*
X95903812Y-68115269D01*
X95899131Y-68103967D01*
X95901130Y-68103138D01*
X95877915Y-68026620D01*
X95887434Y-67929933D01*
X95933228Y-67844248D01*
X96008328Y-67782610D01*
X96036485Y-67769740D01*
X96070370Y-67756733D01*
X96407923Y-67606445D01*
X96455003Y-67582457D01*
X96455008Y-67582454D01*
X96774992Y-67397711D01*
X96819326Y-67368919D01*
X97118230Y-67151752D01*
X97159301Y-67118493D01*
X97159323Y-67118474D01*
X97433865Y-66871276D01*
X97471265Y-66833876D01*
X97626322Y-66661667D01*
X97704168Y-66603537D01*
X97798333Y-66579621D01*
X97894483Y-66593562D01*
G37*
G04 #@! TD.AperFunction*
G04 #@! TA.AperFunction,Conductor*
G36*
X93836508Y-68048954D02*
G01*
X93917290Y-68102930D01*
X93971266Y-68183712D01*
X93990220Y-68279000D01*
X93989021Y-68303405D01*
X93969659Y-68499998D01*
X93969659Y-68499999D01*
X93988975Y-68696127D01*
X93988975Y-68696129D01*
X93988976Y-68696132D01*
X94018456Y-68793317D01*
X94024148Y-68820784D01*
X94025024Y-68820621D01*
X94026656Y-68829346D01*
X94026656Y-68829349D01*
X94026657Y-68829350D01*
X94141546Y-69267712D01*
X94153671Y-69313973D01*
X94159494Y-69410953D01*
X94148092Y-69458596D01*
X94085750Y-69638584D01*
X94063144Y-69686225D01*
X94062450Y-69687714D01*
X94009565Y-69847310D01*
X94009564Y-69847316D01*
X93999500Y-69945823D01*
X93999500Y-70250737D01*
X93980546Y-70346025D01*
X93926570Y-70426807D01*
X93845788Y-70480783D01*
X93750500Y-70499737D01*
X93655212Y-70480783D01*
X93574430Y-70426807D01*
X93573237Y-70425614D01*
X93573236Y-70425612D01*
X93459388Y-70311764D01*
X93321602Y-70228469D01*
X93321600Y-70228468D01*
X93321598Y-70228467D01*
X93167888Y-70180570D01*
X93160917Y-70179184D01*
X93071159Y-70142002D01*
X93002461Y-70073302D01*
X92965283Y-69983541D01*
X92960500Y-69934969D01*
X92960500Y-69061082D01*
X92952169Y-69019203D01*
X92952169Y-69019201D01*
X92931659Y-68916088D01*
X92892308Y-68821087D01*
X92875084Y-68779505D01*
X92838671Y-68725008D01*
X92803238Y-68671978D01*
X92803238Y-68671979D01*
X92792952Y-68656585D01*
X92708243Y-68571876D01*
X92669733Y-68522123D01*
X92600973Y-68405316D01*
X92568967Y-68313584D01*
X92574503Y-68216587D01*
X92616736Y-68129092D01*
X92689238Y-68064419D01*
X92780970Y-68032413D01*
X92815554Y-68030000D01*
X93741220Y-68030000D01*
X93836508Y-68048954D01*
G37*
G04 #@! TD.AperFunction*
G04 #@! TA.AperFunction,Conductor*
G36*
X116435426Y-78014794D02*
G01*
X116484832Y-78064199D01*
X116500000Y-78123627D01*
X116500000Y-79250000D01*
X113500000Y-79250000D01*
X113500000Y-78249499D01*
X113519685Y-78182460D01*
X113572489Y-78136705D01*
X113623996Y-78125499D01*
X116047872Y-78125499D01*
X116107483Y-78119091D01*
X116242331Y-78068796D01*
X116301688Y-78024360D01*
X116367153Y-77999943D01*
X116435426Y-78014794D01*
G37*
G04 #@! TD.AperFunction*
G04 #@! TA.AperFunction,Conductor*
G36*
X116435426Y-71514794D02*
G01*
X116484832Y-71564199D01*
X116500000Y-71623627D01*
X116500000Y-75376372D01*
X116480315Y-75443411D01*
X116427511Y-75489166D01*
X116358353Y-75499110D01*
X116301689Y-75475639D01*
X116242331Y-75431204D01*
X116242328Y-75431202D01*
X116107482Y-75380908D01*
X116107483Y-75380908D01*
X116047883Y-75374501D01*
X116047881Y-75374500D01*
X116047873Y-75374500D01*
X116047865Y-75374500D01*
X115014546Y-75374500D01*
X114961463Y-75362563D01*
X113570917Y-74703882D01*
X113518758Y-74657394D01*
X113500000Y-74591819D01*
X113500000Y-71749499D01*
X113519685Y-71682460D01*
X113572489Y-71636705D01*
X113623996Y-71625499D01*
X116047872Y-71625499D01*
X116107483Y-71619091D01*
X116242331Y-71568796D01*
X116301688Y-71524360D01*
X116367153Y-71499943D01*
X116435426Y-71514794D01*
G37*
G04 #@! TD.AperFunction*
G04 #@! TA.AperFunction,Conductor*
G36*
X116435426Y-65014794D02*
G01*
X116484832Y-65064199D01*
X116500000Y-65123627D01*
X116500000Y-68876372D01*
X116480315Y-68943411D01*
X116427511Y-68989166D01*
X116358353Y-68999110D01*
X116301689Y-68975639D01*
X116242331Y-68931204D01*
X116242328Y-68931202D01*
X116107482Y-68880908D01*
X116107483Y-68880908D01*
X116047883Y-68874501D01*
X116047881Y-68874500D01*
X116047873Y-68874500D01*
X116047865Y-68874500D01*
X115014546Y-68874500D01*
X114961463Y-68862563D01*
X113570917Y-68203882D01*
X113518758Y-68157394D01*
X113500000Y-68091819D01*
X113500000Y-65249499D01*
X113519685Y-65182460D01*
X113572489Y-65136705D01*
X113623996Y-65125499D01*
X116047872Y-65125499D01*
X116107483Y-65119091D01*
X116242331Y-65068796D01*
X116301688Y-65024360D01*
X116367153Y-64999943D01*
X116435426Y-65014794D01*
G37*
G04 #@! TD.AperFunction*
G04 #@! TA.AperFunction,Conductor*
G36*
X116500000Y-62376372D02*
G01*
X116480315Y-62443411D01*
X116427511Y-62489166D01*
X116358353Y-62499110D01*
X116301689Y-62475639D01*
X116242331Y-62431204D01*
X116242328Y-62431202D01*
X116107482Y-62380908D01*
X116107483Y-62380908D01*
X116047883Y-62374501D01*
X116047881Y-62374500D01*
X116047873Y-62374500D01*
X116047865Y-62374500D01*
X115014546Y-62374500D01*
X114961463Y-62362563D01*
X113570917Y-61703882D01*
X113518758Y-61657394D01*
X113500000Y-61591819D01*
X113500000Y-61250000D01*
X116500000Y-61250000D01*
X116500000Y-62376372D01*
G37*
G04 #@! TD.AperFunction*
G04 #@! TA.AperFunction,Conductor*
G36*
X105608331Y-63191973D02*
G01*
X106116218Y-63322738D01*
X106123375Y-63328119D01*
X106125000Y-63334068D01*
X106125000Y-63815931D01*
X106121573Y-63824204D01*
X106116217Y-63827261D01*
X105608337Y-63958025D01*
X105599471Y-63956770D01*
X105596795Y-63954601D01*
X105256240Y-63582902D01*
X105253179Y-63574489D01*
X105256240Y-63567097D01*
X105596795Y-63195398D01*
X105604909Y-63191615D01*
X105608331Y-63191973D01*
G37*
G04 #@! TD.AperFunction*
G04 #@! TA.AperFunction,Conductor*
G36*
X105499854Y-64128427D02*
G01*
X105502675Y-64132982D01*
X105647536Y-64565253D01*
X105646915Y-64574187D01*
X105644189Y-64577739D01*
X105257747Y-64919155D01*
X105249278Y-64922065D01*
X105242253Y-64919155D01*
X104855810Y-64577739D01*
X104851879Y-64569693D01*
X104852462Y-64565258D01*
X104997325Y-64132981D01*
X105003203Y-64126227D01*
X105008419Y-64125000D01*
X105491581Y-64125000D01*
X105499854Y-64128427D01*
G37*
G04 #@! TD.AperFunction*
G04 #@! TA.AperFunction,Conductor*
G36*
X105257747Y-63580844D02*
G01*
X105644189Y-63922259D01*
X105648120Y-63930305D01*
X105647536Y-63934745D01*
X105502675Y-64367018D01*
X105496797Y-64373773D01*
X105491581Y-64375000D01*
X105008419Y-64375000D01*
X105000146Y-64371573D01*
X104997325Y-64367018D01*
X104852463Y-63934743D01*
X104853084Y-63925811D01*
X104855807Y-63922262D01*
X105242253Y-63580843D01*
X105250722Y-63577934D01*
X105257747Y-63580844D01*
G37*
G04 #@! TD.AperFunction*
G04 #@! TA.AperFunction,Conductor*
G36*
X104316964Y-65617343D02*
G01*
X104657587Y-65957966D01*
X104661014Y-65966239D01*
X104659310Y-65972319D01*
X104230200Y-66677845D01*
X104222973Y-66683133D01*
X104215747Y-66682583D01*
X103779216Y-66502735D01*
X103772872Y-66496415D01*
X103772592Y-66495674D01*
X103616632Y-66033964D01*
X103617231Y-66025032D01*
X103621738Y-66020166D01*
X104302716Y-65615557D01*
X104311578Y-65614278D01*
X104316964Y-65617343D01*
G37*
G04 #@! TD.AperFunction*
G04 #@! TA.AperFunction,Conductor*
G36*
X105244229Y-64923494D02*
G01*
X105252020Y-64927907D01*
X105253430Y-64930224D01*
X105430813Y-65316567D01*
X105431151Y-65325516D01*
X105427356Y-65330690D01*
X105306402Y-65424606D01*
X104856232Y-65774142D01*
X104847597Y-65776509D01*
X104840785Y-65773174D01*
X104500490Y-65432879D01*
X104497063Y-65424606D01*
X104498296Y-65419379D01*
X104771306Y-64873055D01*
X104778069Y-64867188D01*
X104783198Y-64866675D01*
X105244229Y-64923494D01*
G37*
G04 #@! TD.AperFunction*
G04 #@! TA.AperFunction,Conductor*
G36*
X108048235Y-64638427D02*
G01*
X108051526Y-64644921D01*
X108124524Y-65119409D01*
X108123869Y-65125416D01*
X107810909Y-65932854D01*
X107804724Y-65939330D01*
X107795772Y-65939535D01*
X107789296Y-65933350D01*
X107789091Y-65932854D01*
X107476130Y-65125416D01*
X107475475Y-65119411D01*
X107548474Y-64644921D01*
X107553119Y-64637265D01*
X107560038Y-64635000D01*
X108039962Y-64635000D01*
X108048235Y-64638427D01*
G37*
G04 #@! TD.AperFunction*
G04 #@! TA.AperFunction,Conductor*
G36*
X102805767Y-65677554D02*
G01*
X103146426Y-66018213D01*
X103149853Y-66026486D01*
X103147724Y-66033216D01*
X102680579Y-66697577D01*
X102673017Y-66702373D01*
X102666168Y-66701499D01*
X102229187Y-66502931D01*
X102223072Y-66496388D01*
X102222796Y-66495557D01*
X102088750Y-66034403D01*
X102089731Y-66025504D01*
X102094792Y-66020655D01*
X102792306Y-65675341D01*
X102801238Y-65674742D01*
X102805767Y-65677554D01*
G37*
G04 #@! TD.AperFunction*
G04 #@! TA.AperFunction,Conductor*
G36*
X103433845Y-64837956D02*
G01*
X103819844Y-64996879D01*
X103826189Y-65003197D01*
X103826885Y-65005523D01*
X103914201Y-65467152D01*
X103912372Y-65475917D01*
X103908918Y-65479240D01*
X103355368Y-65826132D01*
X103346538Y-65827622D01*
X103340882Y-65824491D01*
X103000718Y-65484327D01*
X102997291Y-65476054D01*
X102999271Y-65469541D01*
X103419674Y-64842260D01*
X103427125Y-64837298D01*
X103433845Y-64837956D01*
G37*
G04 #@! TD.AperFunction*
G04 #@! TA.AperFunction,Conductor*
G36*
X110795255Y-64659793D02*
G01*
X111111311Y-64843340D01*
X111245880Y-64921490D01*
X111251313Y-64928609D01*
X111251565Y-64929807D01*
X111311121Y-65312133D01*
X111309008Y-65320835D01*
X111301361Y-65325495D01*
X111300118Y-65325621D01*
X110662389Y-65356088D01*
X110653962Y-65353060D01*
X110653558Y-65352674D01*
X110313427Y-65012543D01*
X110310000Y-65004270D01*
X110313427Y-64995997D01*
X110314892Y-64994754D01*
X110782578Y-64660393D01*
X110791301Y-64658370D01*
X110795255Y-64659793D01*
G37*
G04 #@! TD.AperFunction*
G04 #@! TA.AperFunction,Conductor*
G36*
X110033584Y-65185222D02*
G01*
X110037375Y-65187756D01*
X110424212Y-65574593D01*
X110427639Y-65582866D01*
X110425106Y-65590136D01*
X110030471Y-66087719D01*
X110022645Y-66092072D01*
X110016855Y-66091270D01*
X109710146Y-65965169D01*
X109703797Y-65958854D01*
X109703774Y-65949902D01*
X110018295Y-65191546D01*
X110024629Y-65185218D01*
X110033584Y-65185222D01*
G37*
G04 #@! TD.AperFunction*
G04 #@! TA.AperFunction,Conductor*
G36*
X111499854Y-64128427D02*
G01*
X111502675Y-64132982D01*
X111647536Y-64565253D01*
X111646915Y-64574187D01*
X111644189Y-64577739D01*
X111257747Y-64919155D01*
X111249278Y-64922065D01*
X111242253Y-64919155D01*
X110855810Y-64577739D01*
X110851879Y-64569693D01*
X110852462Y-64565258D01*
X110997325Y-64132981D01*
X111003203Y-64126227D01*
X111008419Y-64125000D01*
X111491581Y-64125000D01*
X111499854Y-64128427D01*
G37*
G04 #@! TD.AperFunction*
G04 #@! TA.AperFunction,Conductor*
G36*
X111256833Y-63528918D02*
G01*
X111558984Y-63746390D01*
X111692925Y-63842794D01*
X111697638Y-63850408D01*
X111697145Y-63856121D01*
X111502727Y-64417131D01*
X111496780Y-64423826D01*
X111491672Y-64425000D01*
X111008328Y-64425000D01*
X111000055Y-64421573D01*
X110997273Y-64417131D01*
X110802854Y-63856121D01*
X110803383Y-63847182D01*
X110807072Y-63842795D01*
X111243165Y-63528918D01*
X111251882Y-63526867D01*
X111256833Y-63528918D01*
G37*
G04 #@! TD.AperFunction*
G04 #@! TA.AperFunction,Conductor*
G36*
X111593832Y-61544527D02*
G01*
X111606665Y-61548512D01*
X112166770Y-61722444D01*
X112173654Y-61728171D01*
X112175000Y-61733618D01*
X112175000Y-62216381D01*
X112171573Y-62224654D01*
X112166770Y-62227555D01*
X111593832Y-62405472D01*
X111584915Y-62404652D01*
X111581131Y-62401487D01*
X111436978Y-62216381D01*
X111254597Y-61982188D01*
X111252218Y-61973556D01*
X111254597Y-61967812D01*
X111581132Y-61548511D01*
X111588918Y-61544090D01*
X111593832Y-61544527D01*
G37*
G04 #@! TD.AperFunction*
G04 #@! TA.AperFunction,Conductor*
G36*
X113190508Y-62083033D02*
G01*
X114852385Y-62870238D01*
X114858394Y-62876877D01*
X114858190Y-62885279D01*
X114504292Y-63742027D01*
X114497966Y-63748365D01*
X114491456Y-63749084D01*
X113008199Y-63488874D01*
X113000643Y-63484069D01*
X112998671Y-63479218D01*
X112830460Y-62438967D01*
X112832522Y-62430253D01*
X112833731Y-62428832D01*
X113177229Y-62085334D01*
X113185501Y-62081908D01*
X113190508Y-62083033D01*
G37*
G04 #@! TD.AperFunction*
G04 #@! TA.AperFunction,Conductor*
G36*
X104073919Y-62578427D02*
G01*
X104077059Y-62584125D01*
X104206238Y-63156652D01*
X104204716Y-63165476D01*
X104202014Y-63168458D01*
X103782200Y-63495392D01*
X103773567Y-63497772D01*
X103767808Y-63495381D01*
X103349475Y-63168596D01*
X103345065Y-63160803D01*
X103345796Y-63155078D01*
X103572076Y-62582399D01*
X103578303Y-62575965D01*
X103582957Y-62575000D01*
X104065646Y-62575000D01*
X104073919Y-62578427D01*
G37*
G04 #@! TD.AperFunction*
G04 #@! TA.AperFunction,Conductor*
G36*
X103832902Y-62006240D02*
G01*
X104204599Y-62346794D01*
X104208384Y-62354909D01*
X104208025Y-62358337D01*
X104077261Y-62866217D01*
X104071880Y-62873375D01*
X104065931Y-62875000D01*
X103584069Y-62875000D01*
X103575796Y-62871573D01*
X103572739Y-62866217D01*
X103532109Y-62708415D01*
X103441974Y-62358335D01*
X103443229Y-62349471D01*
X103445394Y-62346799D01*
X103817097Y-62006240D01*
X103825511Y-62003179D01*
X103832902Y-62006240D01*
G37*
G04 #@! TD.AperFunction*
G04 #@! TA.AperFunction,Conductor*
G36*
X108427524Y-62217933D02*
G01*
X108429583Y-62219569D01*
X108742688Y-62531714D01*
X108746128Y-62539982D01*
X108742714Y-62548260D01*
X108742688Y-62548286D01*
X108429583Y-62860430D01*
X108421305Y-62863844D01*
X108418692Y-62863544D01*
X108109069Y-62792092D01*
X108101778Y-62786893D01*
X108100000Y-62780692D01*
X108100000Y-62299307D01*
X108103427Y-62291034D01*
X108109068Y-62287907D01*
X108418693Y-62216455D01*
X108427524Y-62217933D01*
G37*
G04 #@! TD.AperFunction*
G04 #@! TA.AperFunction,Conductor*
G36*
X105608331Y-61541973D02*
G01*
X106116218Y-61672738D01*
X106123375Y-61678119D01*
X106125000Y-61684068D01*
X106125000Y-62165931D01*
X106121573Y-62174204D01*
X106116217Y-62177261D01*
X105608337Y-62308025D01*
X105599471Y-62306770D01*
X105596795Y-62304601D01*
X105256240Y-61932902D01*
X105253179Y-61924489D01*
X105256240Y-61917097D01*
X105596795Y-61545398D01*
X105604909Y-61541615D01*
X105608331Y-61541973D01*
G37*
G04 #@! TD.AperFunction*
G04 #@! TA.AperFunction,Conductor*
G36*
X104184741Y-61602462D02*
G01*
X104617018Y-61747325D01*
X104623773Y-61753203D01*
X104625000Y-61758419D01*
X104625000Y-62241580D01*
X104621573Y-62249853D01*
X104617018Y-62252674D01*
X104184745Y-62397536D01*
X104175811Y-62396915D01*
X104172259Y-62394189D01*
X104047233Y-62252674D01*
X103830843Y-62007746D01*
X103827934Y-61999278D01*
X103830844Y-61992253D01*
X104172260Y-61605809D01*
X104180305Y-61601879D01*
X104184741Y-61602462D01*
G37*
G04 #@! TD.AperFunction*
G04 #@! TA.AperFunction,Conductor*
G36*
X104877202Y-61558637D02*
G01*
X104880687Y-61561000D01*
X105243986Y-61918106D01*
X105247484Y-61926349D01*
X105245414Y-61933095D01*
X104979033Y-62319154D01*
X104971514Y-62324017D01*
X104967952Y-62324119D01*
X104385249Y-62251281D01*
X104377465Y-62246854D01*
X104375000Y-62239671D01*
X104375000Y-61758007D01*
X104378427Y-61749734D01*
X104382463Y-61747101D01*
X104868251Y-61558438D01*
X104877202Y-61558637D01*
G37*
G04 #@! TD.AperFunction*
G04 #@! TA.AperFunction,Conductor*
G36*
X105608331Y-69691973D02*
G01*
X106116218Y-69822738D01*
X106123375Y-69828119D01*
X106125000Y-69834068D01*
X106125000Y-70315931D01*
X106121573Y-70324204D01*
X106116217Y-70327261D01*
X105608337Y-70458025D01*
X105599471Y-70456770D01*
X105596795Y-70454601D01*
X105256240Y-70082902D01*
X105253179Y-70074489D01*
X105256240Y-70067097D01*
X105596795Y-69695398D01*
X105604909Y-69691615D01*
X105608331Y-69691973D01*
G37*
G04 #@! TD.AperFunction*
G04 #@! TA.AperFunction,Conductor*
G36*
X105244229Y-71423494D02*
G01*
X105252020Y-71427907D01*
X105253430Y-71430224D01*
X105430813Y-71816567D01*
X105431151Y-71825516D01*
X105427356Y-71830690D01*
X105306402Y-71924606D01*
X104856232Y-72274142D01*
X104847597Y-72276509D01*
X104840785Y-72273174D01*
X104500490Y-71932879D01*
X104497063Y-71924606D01*
X104498296Y-71919379D01*
X104771306Y-71373055D01*
X104778069Y-71367188D01*
X104783198Y-71366675D01*
X105244229Y-71423494D01*
G37*
G04 #@! TD.AperFunction*
G04 #@! TA.AperFunction,Conductor*
G36*
X104316964Y-72117343D02*
G01*
X104657587Y-72457966D01*
X104661014Y-72466239D01*
X104659310Y-72472319D01*
X104230200Y-73177845D01*
X104222973Y-73183133D01*
X104215747Y-73182583D01*
X103779216Y-73002735D01*
X103772872Y-72996415D01*
X103772592Y-72995674D01*
X103616632Y-72533964D01*
X103617231Y-72525032D01*
X103621738Y-72520166D01*
X104302716Y-72115557D01*
X104311578Y-72114278D01*
X104316964Y-72117343D01*
G37*
G04 #@! TD.AperFunction*
G04 #@! TA.AperFunction,Conductor*
G36*
X105499854Y-70628427D02*
G01*
X105502675Y-70632982D01*
X105647536Y-71065253D01*
X105646915Y-71074187D01*
X105644189Y-71077739D01*
X105257747Y-71419155D01*
X105249278Y-71422065D01*
X105242253Y-71419155D01*
X104855810Y-71077739D01*
X104851879Y-71069693D01*
X104852462Y-71065258D01*
X104997325Y-70632981D01*
X105003203Y-70626227D01*
X105008419Y-70625000D01*
X105491581Y-70625000D01*
X105499854Y-70628427D01*
G37*
G04 #@! TD.AperFunction*
G04 #@! TA.AperFunction,Conductor*
G36*
X105257747Y-70080844D02*
G01*
X105644189Y-70422259D01*
X105648120Y-70430305D01*
X105647536Y-70434745D01*
X105502675Y-70867018D01*
X105496797Y-70873773D01*
X105491581Y-70875000D01*
X105008419Y-70875000D01*
X105000146Y-70871573D01*
X104997325Y-70867018D01*
X104852463Y-70434743D01*
X104853084Y-70425811D01*
X104855807Y-70422262D01*
X105242253Y-70080843D01*
X105250722Y-70077934D01*
X105257747Y-70080844D01*
G37*
G04 #@! TD.AperFunction*
G04 #@! TA.AperFunction,Conductor*
G36*
X108048235Y-71138427D02*
G01*
X108051526Y-71144921D01*
X108124524Y-71619409D01*
X108123869Y-71625416D01*
X107810909Y-72432854D01*
X107804724Y-72439330D01*
X107795772Y-72439535D01*
X107789296Y-72433350D01*
X107789091Y-72432854D01*
X107476130Y-71625416D01*
X107475475Y-71619411D01*
X107548474Y-71144921D01*
X107553119Y-71137265D01*
X107560038Y-71135000D01*
X108039962Y-71135000D01*
X108048235Y-71138427D01*
G37*
G04 #@! TD.AperFunction*
G04 #@! TA.AperFunction,Conductor*
G36*
X102805767Y-72177554D02*
G01*
X103146426Y-72518213D01*
X103149853Y-72526486D01*
X103147724Y-72533216D01*
X102680579Y-73197577D01*
X102673017Y-73202373D01*
X102666168Y-73201499D01*
X102229187Y-73002931D01*
X102223072Y-72996388D01*
X102222796Y-72995557D01*
X102088750Y-72534403D01*
X102089731Y-72525504D01*
X102094792Y-72520655D01*
X102792306Y-72175341D01*
X102801238Y-72174742D01*
X102805767Y-72177554D01*
G37*
G04 #@! TD.AperFunction*
G04 #@! TA.AperFunction,Conductor*
G36*
X103433845Y-71337956D02*
G01*
X103819844Y-71496879D01*
X103826189Y-71503197D01*
X103826885Y-71505523D01*
X103914201Y-71967152D01*
X103912372Y-71975917D01*
X103908918Y-71979240D01*
X103355368Y-72326132D01*
X103346538Y-72327622D01*
X103340882Y-72324491D01*
X103000718Y-71984327D01*
X102997291Y-71976054D01*
X102999271Y-71969541D01*
X103419674Y-71342260D01*
X103427125Y-71337298D01*
X103433845Y-71337956D01*
G37*
G04 #@! TD.AperFunction*
G04 #@! TA.AperFunction,Conductor*
G36*
X110033584Y-71685222D02*
G01*
X110037375Y-71687756D01*
X110424212Y-72074593D01*
X110427639Y-72082866D01*
X110425106Y-72090136D01*
X110030471Y-72587719D01*
X110022645Y-72592072D01*
X110016855Y-72591270D01*
X109710146Y-72465169D01*
X109703797Y-72458854D01*
X109703774Y-72449902D01*
X110018295Y-71691546D01*
X110024629Y-71685218D01*
X110033584Y-71685222D01*
G37*
G04 #@! TD.AperFunction*
G04 #@! TA.AperFunction,Conductor*
G36*
X110795255Y-71159793D02*
G01*
X111111311Y-71343340D01*
X111245880Y-71421490D01*
X111251313Y-71428609D01*
X111251565Y-71429807D01*
X111311121Y-71812133D01*
X111309008Y-71820835D01*
X111301361Y-71825495D01*
X111300118Y-71825621D01*
X110662389Y-71856088D01*
X110653962Y-71853060D01*
X110653558Y-71852674D01*
X110313427Y-71512543D01*
X110310000Y-71504270D01*
X110313427Y-71495997D01*
X110314892Y-71494754D01*
X110782578Y-71160393D01*
X110791301Y-71158370D01*
X110795255Y-71159793D01*
G37*
G04 #@! TD.AperFunction*
G04 #@! TA.AperFunction,Conductor*
G36*
X111499854Y-70628427D02*
G01*
X111502675Y-70632982D01*
X111647536Y-71065253D01*
X111646915Y-71074187D01*
X111644189Y-71077739D01*
X111257747Y-71419155D01*
X111249278Y-71422065D01*
X111242253Y-71419155D01*
X110855810Y-71077739D01*
X110851879Y-71069693D01*
X110852462Y-71065258D01*
X110997325Y-70632981D01*
X111003203Y-70626227D01*
X111008419Y-70625000D01*
X111491581Y-70625000D01*
X111499854Y-70628427D01*
G37*
G04 #@! TD.AperFunction*
G04 #@! TA.AperFunction,Conductor*
G36*
X111256833Y-70028918D02*
G01*
X111558984Y-70246390D01*
X111692925Y-70342794D01*
X111697638Y-70350408D01*
X111697145Y-70356121D01*
X111502727Y-70917131D01*
X111496780Y-70923826D01*
X111491672Y-70925000D01*
X111008328Y-70925000D01*
X111000055Y-70921573D01*
X110997273Y-70917131D01*
X110802854Y-70356121D01*
X110803383Y-70347182D01*
X110807072Y-70342795D01*
X111243165Y-70028918D01*
X111251882Y-70026867D01*
X111256833Y-70028918D01*
G37*
G04 #@! TD.AperFunction*
G04 #@! TA.AperFunction,Conductor*
G36*
X108427524Y-68717933D02*
G01*
X108429583Y-68719569D01*
X108742688Y-69031714D01*
X108746128Y-69039982D01*
X108742714Y-69048260D01*
X108742688Y-69048286D01*
X108429583Y-69360430D01*
X108421305Y-69363844D01*
X108418692Y-69363544D01*
X108109069Y-69292092D01*
X108101778Y-69286893D01*
X108100000Y-69280692D01*
X108100000Y-68799307D01*
X108103427Y-68791034D01*
X108109068Y-68787907D01*
X108418693Y-68716455D01*
X108427524Y-68717933D01*
G37*
G04 #@! TD.AperFunction*
G04 #@! TA.AperFunction,Conductor*
G36*
X105608331Y-68041973D02*
G01*
X106116218Y-68172738D01*
X106123375Y-68178119D01*
X106125000Y-68184068D01*
X106125000Y-68665931D01*
X106121573Y-68674204D01*
X106116217Y-68677261D01*
X105608337Y-68808025D01*
X105599471Y-68806770D01*
X105596795Y-68804601D01*
X105256240Y-68432902D01*
X105253179Y-68424489D01*
X105256240Y-68417097D01*
X105596795Y-68045398D01*
X105604909Y-68041615D01*
X105608331Y-68041973D01*
G37*
G04 #@! TD.AperFunction*
G04 #@! TA.AperFunction,Conductor*
G36*
X104877202Y-68058637D02*
G01*
X104880687Y-68061000D01*
X105243986Y-68418106D01*
X105247484Y-68426349D01*
X105245414Y-68433095D01*
X104979033Y-68819154D01*
X104971514Y-68824017D01*
X104967952Y-68824119D01*
X104385249Y-68751281D01*
X104377465Y-68746854D01*
X104375000Y-68739671D01*
X104375000Y-68258007D01*
X104378427Y-68249734D01*
X104382463Y-68247101D01*
X104868251Y-68058438D01*
X104877202Y-68058637D01*
G37*
G04 #@! TD.AperFunction*
G04 #@! TA.AperFunction,Conductor*
G36*
X104184741Y-68102462D02*
G01*
X104617018Y-68247325D01*
X104623773Y-68253203D01*
X104625000Y-68258419D01*
X104625000Y-68741580D01*
X104621573Y-68749853D01*
X104617018Y-68752674D01*
X104184745Y-68897536D01*
X104175811Y-68896915D01*
X104172259Y-68894189D01*
X104047233Y-68752674D01*
X103830843Y-68507746D01*
X103827934Y-68499278D01*
X103830844Y-68492253D01*
X104172260Y-68105809D01*
X104180305Y-68101879D01*
X104184741Y-68102462D01*
G37*
G04 #@! TD.AperFunction*
G04 #@! TA.AperFunction,Conductor*
G36*
X104073919Y-69078427D02*
G01*
X104077059Y-69084125D01*
X104206238Y-69656652D01*
X104204716Y-69665476D01*
X104202014Y-69668458D01*
X103782200Y-69995392D01*
X103773567Y-69997772D01*
X103767808Y-69995381D01*
X103349475Y-69668596D01*
X103345065Y-69660803D01*
X103345796Y-69655078D01*
X103572076Y-69082399D01*
X103578303Y-69075965D01*
X103582957Y-69075000D01*
X104065646Y-69075000D01*
X104073919Y-69078427D01*
G37*
G04 #@! TD.AperFunction*
G04 #@! TA.AperFunction,Conductor*
G36*
X103832902Y-68506240D02*
G01*
X104204599Y-68846794D01*
X104208384Y-68854909D01*
X104208025Y-68858337D01*
X104077261Y-69366217D01*
X104071880Y-69373375D01*
X104065931Y-69375000D01*
X103584069Y-69375000D01*
X103575796Y-69371573D01*
X103572739Y-69366217D01*
X103532109Y-69208415D01*
X103441974Y-68858335D01*
X103443229Y-68849471D01*
X103445394Y-68846799D01*
X103817097Y-68506240D01*
X103825511Y-68503179D01*
X103832902Y-68506240D01*
G37*
G04 #@! TD.AperFunction*
G04 #@! TA.AperFunction,Conductor*
G36*
X113190508Y-68583033D02*
G01*
X114852385Y-69370238D01*
X114858394Y-69376877D01*
X114858190Y-69385279D01*
X114504292Y-70242027D01*
X114497966Y-70248365D01*
X114491456Y-70249084D01*
X113008199Y-69988874D01*
X113000643Y-69984069D01*
X112998671Y-69979218D01*
X112830460Y-68938967D01*
X112832522Y-68930253D01*
X112833731Y-68928832D01*
X113177229Y-68585334D01*
X113185501Y-68581908D01*
X113190508Y-68583033D01*
G37*
G04 #@! TD.AperFunction*
G04 #@! TA.AperFunction,Conductor*
G36*
X111593832Y-68044527D02*
G01*
X111606665Y-68048512D01*
X112166770Y-68222444D01*
X112173654Y-68228171D01*
X112175000Y-68233618D01*
X112175000Y-68716381D01*
X112171573Y-68724654D01*
X112166770Y-68727555D01*
X111593832Y-68905472D01*
X111584915Y-68904652D01*
X111581131Y-68901487D01*
X111436978Y-68716381D01*
X111254597Y-68482188D01*
X111252218Y-68473556D01*
X111254597Y-68467812D01*
X111581132Y-68048511D01*
X111588918Y-68044090D01*
X111593832Y-68044527D01*
G37*
G04 #@! TD.AperFunction*
G04 #@! TA.AperFunction,Conductor*
G36*
X95322463Y-71368889D02*
G01*
X95879146Y-71535007D01*
X95886093Y-71540656D01*
X95887500Y-71546218D01*
X95887500Y-72028781D01*
X95884073Y-72037054D01*
X95879146Y-72039992D01*
X95322468Y-72206109D01*
X95313560Y-72205191D01*
X95310031Y-72202263D01*
X95176544Y-72037500D01*
X94979965Y-71794863D01*
X94977421Y-71786280D01*
X94979965Y-71780137D01*
X95310032Y-71372734D01*
X95317902Y-71368465D01*
X95322463Y-71368889D01*
G37*
G04 #@! TD.AperFunction*
G04 #@! TA.AperFunction,Conductor*
G36*
X96132101Y-71300595D02*
G01*
X96136725Y-71304059D01*
X96470182Y-71717782D01*
X96472706Y-71726374D01*
X96470304Y-71732313D01*
X96143356Y-72152145D01*
X96135569Y-72156567D01*
X96131782Y-72156419D01*
X96029287Y-72135468D01*
X95559357Y-72039412D01*
X95551938Y-72034398D01*
X95550000Y-72027949D01*
X95550000Y-71545324D01*
X95553427Y-71537051D01*
X95557231Y-71534511D01*
X96123148Y-71300588D01*
X96132101Y-71300595D01*
G37*
G04 #@! TD.AperFunction*
G04 #@! TA.AperFunction,Conductor*
G36*
X101824188Y-71103084D02*
G01*
X101827740Y-71105810D01*
X102169155Y-71492253D01*
X102172065Y-71500722D01*
X102169155Y-71507747D01*
X101827740Y-71894189D01*
X101819694Y-71898120D01*
X101815254Y-71897536D01*
X101805266Y-71894189D01*
X101770251Y-71882454D01*
X101382982Y-71752674D01*
X101376227Y-71746796D01*
X101375000Y-71741580D01*
X101375000Y-71258419D01*
X101378427Y-71250146D01*
X101382982Y-71247325D01*
X101815256Y-71102463D01*
X101824188Y-71103084D01*
G37*
G04 #@! TD.AperFunction*
G04 #@! TA.AperFunction,Conductor*
G36*
X97396359Y-71253521D02*
G01*
X97399996Y-71261704D01*
X97400000Y-71262002D01*
X97400000Y-71743753D01*
X97396573Y-71752026D01*
X97394810Y-71753475D01*
X96907887Y-72079545D01*
X96899106Y-72081301D01*
X96893838Y-72078770D01*
X96477529Y-71727973D01*
X96473451Y-71720417D01*
X96421640Y-71287756D01*
X96424059Y-71279137D01*
X96431866Y-71274751D01*
X96432953Y-71274672D01*
X97388002Y-71250306D01*
X97396359Y-71253521D01*
G37*
G04 #@! TD.AperFunction*
G04 #@! TA.AperFunction,Conductor*
G36*
X101824188Y-77603084D02*
G01*
X101827740Y-77605810D01*
X102169155Y-77992253D01*
X102172065Y-78000722D01*
X102169155Y-78007747D01*
X101827740Y-78394189D01*
X101819694Y-78398120D01*
X101815254Y-78397536D01*
X101805266Y-78394189D01*
X101770251Y-78382454D01*
X101382982Y-78252674D01*
X101376227Y-78246796D01*
X101375000Y-78241580D01*
X101375000Y-77758419D01*
X101378427Y-77750146D01*
X101382982Y-77747325D01*
X101815256Y-77602463D01*
X101824188Y-77603084D01*
G37*
G04 #@! TD.AperFunction*
G04 #@! TA.AperFunction,Conductor*
G36*
X101824188Y-64603084D02*
G01*
X101827740Y-64605810D01*
X102169155Y-64992253D01*
X102172065Y-65000722D01*
X102169155Y-65007747D01*
X101827740Y-65394189D01*
X101819694Y-65398120D01*
X101815254Y-65397536D01*
X101805266Y-65394189D01*
X101770251Y-65382454D01*
X101382982Y-65252674D01*
X101376227Y-65246796D01*
X101375000Y-65241580D01*
X101375000Y-64758419D01*
X101378427Y-64750146D01*
X101382982Y-64747325D01*
X101815256Y-64602463D01*
X101824188Y-64603084D01*
G37*
G04 #@! TD.AperFunction*
G04 #@! TA.AperFunction,Conductor*
G36*
X102805767Y-78677554D02*
G01*
X103146426Y-79018213D01*
X103149853Y-79026486D01*
X103147724Y-79033216D01*
X102680579Y-79697577D01*
X102673017Y-79702373D01*
X102666168Y-79701499D01*
X102229187Y-79502931D01*
X102223072Y-79496388D01*
X102222796Y-79495557D01*
X102088750Y-79034403D01*
X102089731Y-79025504D01*
X102094792Y-79020655D01*
X102792306Y-78675341D01*
X102801238Y-78674742D01*
X102805767Y-78677554D01*
G37*
G04 #@! TD.AperFunction*
G04 #@! TA.AperFunction,Conductor*
G36*
X103433845Y-77837956D02*
G01*
X103819844Y-77996879D01*
X103826189Y-78003197D01*
X103826885Y-78005523D01*
X103914201Y-78467152D01*
X103912372Y-78475917D01*
X103908918Y-78479240D01*
X103355368Y-78826132D01*
X103346538Y-78827622D01*
X103340882Y-78824491D01*
X103000718Y-78484327D01*
X102997291Y-78476054D01*
X102999271Y-78469541D01*
X103419674Y-77842260D01*
X103427125Y-77837298D01*
X103433845Y-77837956D01*
G37*
G04 #@! TD.AperFunction*
G04 #@! TA.AperFunction,Conductor*
G36*
X104316964Y-78617343D02*
G01*
X104657587Y-78957966D01*
X104661014Y-78966239D01*
X104659310Y-78972319D01*
X104230200Y-79677845D01*
X104222973Y-79683133D01*
X104215747Y-79682583D01*
X103779216Y-79502735D01*
X103772872Y-79496415D01*
X103772592Y-79495674D01*
X103616632Y-79033964D01*
X103617231Y-79025032D01*
X103621738Y-79020166D01*
X104302716Y-78615557D01*
X104311578Y-78614278D01*
X104316964Y-78617343D01*
G37*
G04 #@! TD.AperFunction*
G04 #@! TA.AperFunction,Conductor*
G36*
X105244229Y-77923494D02*
G01*
X105252020Y-77927907D01*
X105253430Y-77930224D01*
X105430813Y-78316567D01*
X105431151Y-78325516D01*
X105427356Y-78330690D01*
X105306402Y-78424606D01*
X104856232Y-78774142D01*
X104847597Y-78776509D01*
X104840785Y-78773174D01*
X104500490Y-78432879D01*
X104497063Y-78424606D01*
X104498296Y-78419379D01*
X104771306Y-77873055D01*
X104778069Y-77867188D01*
X104783198Y-77866675D01*
X105244229Y-77923494D01*
G37*
G04 #@! TD.AperFunction*
G04 #@! TA.AperFunction,Conductor*
G36*
X108048235Y-77638427D02*
G01*
X108051526Y-77644921D01*
X108124524Y-78119409D01*
X108123869Y-78125416D01*
X107810909Y-78932854D01*
X107804724Y-78939330D01*
X107795772Y-78939535D01*
X107789296Y-78933350D01*
X107789091Y-78932854D01*
X107476130Y-78125416D01*
X107475475Y-78119411D01*
X107548474Y-77644921D01*
X107553119Y-77637265D01*
X107560038Y-77635000D01*
X108039962Y-77635000D01*
X108048235Y-77638427D01*
G37*
G04 #@! TD.AperFunction*
G04 #@! TA.AperFunction,Conductor*
G36*
X105608331Y-76191973D02*
G01*
X106116218Y-76322738D01*
X106123375Y-76328119D01*
X106125000Y-76334068D01*
X106125000Y-76815931D01*
X106121573Y-76824204D01*
X106116217Y-76827261D01*
X105608337Y-76958025D01*
X105599471Y-76956770D01*
X105596795Y-76954601D01*
X105256240Y-76582902D01*
X105253179Y-76574489D01*
X105256240Y-76567097D01*
X105596795Y-76195398D01*
X105604909Y-76191615D01*
X105608331Y-76191973D01*
G37*
G04 #@! TD.AperFunction*
G04 #@! TA.AperFunction,Conductor*
G36*
X105257747Y-76580844D02*
G01*
X105644189Y-76922259D01*
X105648120Y-76930305D01*
X105647536Y-76934745D01*
X105502675Y-77367018D01*
X105496797Y-77373773D01*
X105491581Y-77375000D01*
X105008419Y-77375000D01*
X105000146Y-77371573D01*
X104997325Y-77367018D01*
X104852463Y-76934743D01*
X104853084Y-76925811D01*
X104855807Y-76922262D01*
X105242253Y-76580843D01*
X105250722Y-76577934D01*
X105257747Y-76580844D01*
G37*
G04 #@! TD.AperFunction*
G04 #@! TA.AperFunction,Conductor*
G36*
X105499854Y-77128427D02*
G01*
X105502675Y-77132982D01*
X105647536Y-77565253D01*
X105646915Y-77574187D01*
X105644189Y-77577739D01*
X105257747Y-77919155D01*
X105249278Y-77922065D01*
X105242253Y-77919155D01*
X104855810Y-77577739D01*
X104851879Y-77569693D01*
X104852462Y-77565258D01*
X104997325Y-77132981D01*
X105003203Y-77126227D01*
X105008419Y-77125000D01*
X105491581Y-77125000D01*
X105499854Y-77128427D01*
G37*
G04 #@! TD.AperFunction*
G04 #@! TA.AperFunction,Conductor*
G36*
X110033584Y-78185222D02*
G01*
X110037375Y-78187756D01*
X110424212Y-78574593D01*
X110427639Y-78582866D01*
X110425106Y-78590136D01*
X110030471Y-79087719D01*
X110022645Y-79092072D01*
X110016855Y-79091270D01*
X109710146Y-78965169D01*
X109703797Y-78958854D01*
X109703774Y-78949902D01*
X110018295Y-78191546D01*
X110024629Y-78185218D01*
X110033584Y-78185222D01*
G37*
G04 #@! TD.AperFunction*
G04 #@! TA.AperFunction,Conductor*
G36*
X110795255Y-77659793D02*
G01*
X111111311Y-77843340D01*
X111245880Y-77921490D01*
X111251313Y-77928609D01*
X111251565Y-77929807D01*
X111311121Y-78312133D01*
X111309008Y-78320835D01*
X111301361Y-78325495D01*
X111300118Y-78325621D01*
X110662389Y-78356088D01*
X110653962Y-78353060D01*
X110653558Y-78352674D01*
X110313427Y-78012543D01*
X110310000Y-78004270D01*
X110313427Y-77995997D01*
X110314892Y-77994754D01*
X110782578Y-77660393D01*
X110791301Y-77658370D01*
X110795255Y-77659793D01*
G37*
G04 #@! TD.AperFunction*
G04 #@! TA.AperFunction,Conductor*
G36*
X111499854Y-77128427D02*
G01*
X111502675Y-77132982D01*
X111647536Y-77565253D01*
X111646915Y-77574187D01*
X111644189Y-77577739D01*
X111257747Y-77919155D01*
X111249278Y-77922065D01*
X111242253Y-77919155D01*
X110855810Y-77577739D01*
X110851879Y-77569693D01*
X110852462Y-77565258D01*
X110997325Y-77132981D01*
X111003203Y-77126227D01*
X111008419Y-77125000D01*
X111491581Y-77125000D01*
X111499854Y-77128427D01*
G37*
G04 #@! TD.AperFunction*
G04 #@! TA.AperFunction,Conductor*
G36*
X111256833Y-76528918D02*
G01*
X111558984Y-76746390D01*
X111692925Y-76842794D01*
X111697638Y-76850408D01*
X111697145Y-76856121D01*
X111502727Y-77417131D01*
X111496780Y-77423826D01*
X111491672Y-77425000D01*
X111008328Y-77425000D01*
X111000055Y-77421573D01*
X110997273Y-77417131D01*
X110802854Y-76856121D01*
X110803383Y-76847182D01*
X110807072Y-76842795D01*
X111243165Y-76528918D01*
X111251882Y-76526867D01*
X111256833Y-76528918D01*
G37*
G04 #@! TD.AperFunction*
G04 #@! TA.AperFunction,Conductor*
G36*
X105608331Y-74541973D02*
G01*
X106116218Y-74672738D01*
X106123375Y-74678119D01*
X106125000Y-74684068D01*
X106125000Y-75165931D01*
X106121573Y-75174204D01*
X106116217Y-75177261D01*
X105608337Y-75308025D01*
X105599471Y-75306770D01*
X105596795Y-75304601D01*
X105256240Y-74932902D01*
X105253179Y-74924489D01*
X105256240Y-74917097D01*
X105596795Y-74545398D01*
X105604909Y-74541615D01*
X105608331Y-74541973D01*
G37*
G04 #@! TD.AperFunction*
G04 #@! TA.AperFunction,Conductor*
G36*
X104073919Y-75578427D02*
G01*
X104077059Y-75584125D01*
X104206238Y-76156652D01*
X104204716Y-76165476D01*
X104202014Y-76168458D01*
X103782200Y-76495392D01*
X103773567Y-76497772D01*
X103767808Y-76495381D01*
X103349475Y-76168596D01*
X103345065Y-76160803D01*
X103345796Y-76155078D01*
X103572076Y-75582399D01*
X103578303Y-75575965D01*
X103582957Y-75575000D01*
X104065646Y-75575000D01*
X104073919Y-75578427D01*
G37*
G04 #@! TD.AperFunction*
G04 #@! TA.AperFunction,Conductor*
G36*
X103832902Y-75006240D02*
G01*
X104204599Y-75346794D01*
X104208384Y-75354909D01*
X104208025Y-75358337D01*
X104077261Y-75866217D01*
X104071880Y-75873375D01*
X104065931Y-75875000D01*
X103584069Y-75875000D01*
X103575796Y-75871573D01*
X103572739Y-75866217D01*
X103532109Y-75708415D01*
X103441974Y-75358335D01*
X103443229Y-75349471D01*
X103445394Y-75346799D01*
X103817097Y-75006240D01*
X103825511Y-75003179D01*
X103832902Y-75006240D01*
G37*
G04 #@! TD.AperFunction*
G04 #@! TA.AperFunction,Conductor*
G36*
X104184741Y-74602462D02*
G01*
X104617018Y-74747325D01*
X104623773Y-74753203D01*
X104625000Y-74758419D01*
X104625000Y-75241580D01*
X104621573Y-75249853D01*
X104617018Y-75252674D01*
X104184745Y-75397536D01*
X104175811Y-75396915D01*
X104172259Y-75394189D01*
X104047233Y-75252674D01*
X103830843Y-75007746D01*
X103827934Y-74999278D01*
X103830844Y-74992253D01*
X104172260Y-74605809D01*
X104180305Y-74601879D01*
X104184741Y-74602462D01*
G37*
G04 #@! TD.AperFunction*
G04 #@! TA.AperFunction,Conductor*
G36*
X104877202Y-74558637D02*
G01*
X104880687Y-74561000D01*
X105243986Y-74918106D01*
X105247484Y-74926349D01*
X105245414Y-74933095D01*
X104979033Y-75319154D01*
X104971514Y-75324017D01*
X104967952Y-75324119D01*
X104385249Y-75251281D01*
X104377465Y-75246854D01*
X104375000Y-75239671D01*
X104375000Y-74758007D01*
X104378427Y-74749734D01*
X104382463Y-74747101D01*
X104868251Y-74558438D01*
X104877202Y-74558637D01*
G37*
G04 #@! TD.AperFunction*
G04 #@! TA.AperFunction,Conductor*
G36*
X108427524Y-75217933D02*
G01*
X108429583Y-75219569D01*
X108742688Y-75531714D01*
X108746128Y-75539982D01*
X108742714Y-75548260D01*
X108742688Y-75548286D01*
X108429583Y-75860430D01*
X108421305Y-75863844D01*
X108418692Y-75863544D01*
X108109069Y-75792092D01*
X108101778Y-75786893D01*
X108100000Y-75780692D01*
X108100000Y-75299307D01*
X108103427Y-75291034D01*
X108109068Y-75287907D01*
X108418693Y-75216455D01*
X108427524Y-75217933D01*
G37*
G04 #@! TD.AperFunction*
G04 #@! TA.AperFunction,Conductor*
G36*
X111593832Y-74544527D02*
G01*
X111606665Y-74548512D01*
X112166770Y-74722444D01*
X112173654Y-74728171D01*
X112175000Y-74733618D01*
X112175000Y-75216381D01*
X112171573Y-75224654D01*
X112166770Y-75227555D01*
X111593832Y-75405472D01*
X111584915Y-75404652D01*
X111581131Y-75401487D01*
X111436978Y-75216381D01*
X111254597Y-74982188D01*
X111252218Y-74973556D01*
X111254597Y-74967812D01*
X111581132Y-74548511D01*
X111588918Y-74544090D01*
X111593832Y-74544527D01*
G37*
G04 #@! TD.AperFunction*
G04 #@! TA.AperFunction,Conductor*
G36*
X113190508Y-75083033D02*
G01*
X114852385Y-75870238D01*
X114858394Y-75876877D01*
X114858190Y-75885279D01*
X114504292Y-76742027D01*
X114497966Y-76748365D01*
X114491456Y-76749084D01*
X113008199Y-76488874D01*
X113000643Y-76484069D01*
X112998671Y-76479218D01*
X112830460Y-75438967D01*
X112832522Y-75430253D01*
X112833731Y-75428832D01*
X113177229Y-75085334D01*
X113185501Y-75081908D01*
X113190508Y-75083033D01*
G37*
G04 #@! TD.AperFunction*
G04 #@! TA.AperFunction,Conductor*
G36*
X89038966Y-69403427D02*
G01*
X89042093Y-69409069D01*
X89113544Y-69718692D01*
X89112066Y-69727524D01*
X89110430Y-69729583D01*
X88798286Y-70042688D01*
X88790018Y-70046128D01*
X88781740Y-70042714D01*
X88781714Y-70042688D01*
X88469569Y-69729583D01*
X88466155Y-69721305D01*
X88466454Y-69718697D01*
X88537907Y-69409068D01*
X88543106Y-69401778D01*
X88549307Y-69400000D01*
X89030693Y-69400000D01*
X89038966Y-69403427D01*
G37*
G04 #@! TD.AperFunction*
G04 #@! TA.AperFunction,Conductor*
G36*
X89202954Y-68687600D02*
G01*
X89209275Y-68693944D01*
X89209896Y-68700857D01*
X89041985Y-69482800D01*
X89036898Y-69490170D01*
X89030546Y-69492044D01*
X88548585Y-69492044D01*
X88540312Y-69488617D01*
X88537424Y-69483856D01*
X88458648Y-69233498D01*
X88291269Y-68701541D01*
X88292055Y-68692622D01*
X88297930Y-68687232D01*
X88745504Y-68500871D01*
X88754455Y-68500855D01*
X89202954Y-68687600D01*
G37*
G04 #@! TD.AperFunction*
G04 #@! TA.AperFunction,Conductor*
G36*
X89574188Y-68103084D02*
G01*
X89577740Y-68105810D01*
X89919155Y-68492253D01*
X89922065Y-68500722D01*
X89919155Y-68507747D01*
X89577740Y-68894189D01*
X89569694Y-68898120D01*
X89565254Y-68897536D01*
X89555266Y-68894189D01*
X89520251Y-68882454D01*
X89132982Y-68752674D01*
X89126227Y-68746796D01*
X89125000Y-68741580D01*
X89125000Y-68258419D01*
X89128427Y-68250146D01*
X89132982Y-68247325D01*
X89565256Y-68102463D01*
X89574188Y-68103084D01*
G37*
G04 #@! TD.AperFunction*
G04 #@! TA.AperFunction,Conductor*
G36*
X88953101Y-68041142D02*
G01*
X89741267Y-68247711D01*
X89748400Y-68253123D01*
X89750000Y-68259028D01*
X89750000Y-68740971D01*
X89746573Y-68749244D01*
X89741266Y-68752289D01*
X88951193Y-68959357D01*
X88942322Y-68958139D01*
X88937426Y-68952536D01*
X88750871Y-68504495D01*
X88750855Y-68495544D01*
X88937427Y-68047461D01*
X88943770Y-68041142D01*
X88951193Y-68040642D01*
X88953101Y-68041142D01*
G37*
G04 #@! TD.AperFunction*
G04 #@! TA.AperFunction,Conductor*
G36*
X87093832Y-68044527D02*
G01*
X87106665Y-68048512D01*
X87666770Y-68222444D01*
X87673654Y-68228171D01*
X87675000Y-68233618D01*
X87675000Y-68716381D01*
X87671573Y-68724654D01*
X87666770Y-68727555D01*
X87093832Y-68905472D01*
X87084915Y-68904652D01*
X87081131Y-68901487D01*
X86936978Y-68716381D01*
X86754597Y-68482188D01*
X86752218Y-68473556D01*
X86754597Y-68467812D01*
X87081132Y-68048511D01*
X87088918Y-68044090D01*
X87093832Y-68044527D01*
G37*
G04 #@! TD.AperFunction*
G04 #@! TA.AperFunction,Conductor*
G36*
X88557847Y-68041767D02*
G01*
X88562464Y-68047202D01*
X88749127Y-68495503D01*
X88749144Y-68504457D01*
X88749127Y-68504497D01*
X88562694Y-68952245D01*
X88556350Y-68958566D01*
X88548584Y-68958970D01*
X87763364Y-68727473D01*
X87756398Y-68721847D01*
X87754973Y-68716251D01*
X87754973Y-68234291D01*
X87758400Y-68226018D01*
X87764021Y-68222895D01*
X88549013Y-68040303D01*
X88557847Y-68041767D01*
G37*
G04 #@! TD.AperFunction*
G04 #@! TA.AperFunction,Conductor*
G36*
X92216928Y-71009199D02*
G01*
X92216944Y-71009224D01*
X92411055Y-71318325D01*
X92412553Y-71327153D01*
X92410636Y-71331392D01*
X92130008Y-71720437D01*
X92122389Y-71725142D01*
X92113674Y-71723081D01*
X92112246Y-71721865D01*
X91768415Y-71378034D01*
X91768410Y-71378030D01*
X91708877Y-71335132D01*
X91704168Y-71327516D01*
X91706225Y-71318800D01*
X91709469Y-71315748D01*
X92200792Y-71005552D01*
X92209615Y-71004034D01*
X92216928Y-71009199D01*
G37*
G04 #@! TD.AperFunction*
G04 #@! TA.AperFunction,Conductor*
G36*
X90589339Y-72573656D02*
G01*
X90589468Y-72573783D01*
X90929650Y-72913965D01*
X90933077Y-72922238D01*
X90932567Y-72925654D01*
X90728281Y-73594964D01*
X90722589Y-73601876D01*
X90714125Y-73602866D01*
X90330018Y-73502207D01*
X90322884Y-73496795D01*
X90322109Y-73495206D01*
X90138249Y-73032029D01*
X90138382Y-73023075D01*
X90140720Y-73019572D01*
X90572795Y-72573911D01*
X90581014Y-72570357D01*
X90589339Y-72573656D01*
G37*
G04 #@! TD.AperFunction*
G04 #@! TA.AperFunction,Conductor*
G36*
X92458966Y-70353427D02*
G01*
X92462093Y-70359069D01*
X92533544Y-70668692D01*
X92532066Y-70677524D01*
X92530430Y-70679583D01*
X92218286Y-70992688D01*
X92210018Y-70996128D01*
X92201740Y-70992714D01*
X92201714Y-70992688D01*
X91889569Y-70679583D01*
X91886155Y-70671305D01*
X91886454Y-70668697D01*
X91957907Y-70359068D01*
X91963106Y-70351778D01*
X91969307Y-70350000D01*
X92450693Y-70350000D01*
X92458966Y-70353427D01*
G37*
G04 #@! TD.AperFunction*
G04 #@! TA.AperFunction,Conductor*
G36*
X91974616Y-68342244D02*
G01*
X91980104Y-68347069D01*
X92449619Y-69144666D01*
X92450862Y-69153534D01*
X92445471Y-69160684D01*
X92439536Y-69162301D01*
X91962190Y-69162301D01*
X91957960Y-69161510D01*
X91486167Y-68978577D01*
X91479693Y-68972391D01*
X91478938Y-68965309D01*
X91573732Y-68505152D01*
X91578756Y-68497744D01*
X91580824Y-68496661D01*
X91965665Y-68342146D01*
X91974616Y-68342244D01*
G37*
G04 #@! TD.AperFunction*
G04 #@! TA.AperFunction,Conductor*
G36*
X95224943Y-69340927D02*
G01*
X95227726Y-69345371D01*
X95409733Y-69870848D01*
X95409202Y-69879787D01*
X95405786Y-69883970D01*
X94982109Y-70208061D01*
X94973455Y-70210366D01*
X94967891Y-70208061D01*
X94544213Y-69883970D01*
X94539724Y-69876222D01*
X94540266Y-69870848D01*
X94722274Y-69345371D01*
X94728220Y-69338675D01*
X94733330Y-69337500D01*
X95216670Y-69337500D01*
X95224943Y-69340927D01*
G37*
G04 #@! TD.AperFunction*
G04 #@! TA.AperFunction,Conductor*
G36*
X95427536Y-68687426D02*
G01*
X95433857Y-68693770D01*
X95434357Y-68701193D01*
X95227289Y-69491266D01*
X95221876Y-69498400D01*
X95215971Y-69500000D01*
X94734029Y-69500000D01*
X94725756Y-69496573D01*
X94722711Y-69491266D01*
X94515642Y-68701193D01*
X94516860Y-68692322D01*
X94522461Y-68687427D01*
X94970504Y-68500871D01*
X94979455Y-68500855D01*
X95427536Y-68687426D01*
G37*
G04 #@! TD.AperFunction*
G04 #@! TA.AperFunction,Conductor*
G36*
X87842598Y-71234672D02*
G01*
X88853590Y-71621392D01*
X88860093Y-71627549D01*
X88860832Y-71634856D01*
X88793000Y-71940377D01*
X88787861Y-71947711D01*
X88780199Y-71949459D01*
X87793320Y-71832309D01*
X87787391Y-71829828D01*
X87761441Y-71809071D01*
X87492170Y-71593680D01*
X87487851Y-71585838D01*
X87490342Y-71577237D01*
X87491197Y-71576281D01*
X87830151Y-71237327D01*
X87838423Y-71233901D01*
X87842598Y-71234672D01*
G37*
G04 #@! TD.AperFunction*
G04 #@! TA.AperFunction,Conductor*
G36*
X85508290Y-68898012D02*
G01*
X85514663Y-68904302D01*
X85514721Y-68913257D01*
X85512742Y-68916493D01*
X85261672Y-69207521D01*
X85261086Y-69208151D01*
X84913952Y-69555285D01*
X84905679Y-69558712D01*
X84900205Y-69557352D01*
X83715158Y-68929974D01*
X83709449Y-68923075D01*
X83709816Y-68915174D01*
X83969853Y-68285050D01*
X83976176Y-68278710D01*
X83985072Y-68278676D01*
X85508290Y-68898012D01*
G37*
G04 #@! TD.AperFunction*
G04 #@! TA.AperFunction,Conductor*
G36*
X89031504Y-72719742D02*
G01*
X89034931Y-72728015D01*
X89034212Y-72732053D01*
X88703837Y-73630442D01*
X88697765Y-73637024D01*
X88689383Y-73637577D01*
X88254981Y-73502548D01*
X88248098Y-73496820D01*
X88247822Y-73496260D01*
X88035662Y-73034474D01*
X88035323Y-73025527D01*
X88040223Y-73019591D01*
X88537202Y-72718013D01*
X88543272Y-72716315D01*
X89023231Y-72716315D01*
X89031504Y-72719742D01*
G37*
G04 #@! TD.AperFunction*
G04 #@! TA.AperFunction,Conductor*
G36*
X87221299Y-70009851D02*
G01*
X87225037Y-70017988D01*
X87225045Y-70018387D01*
X87227278Y-70618871D01*
X87223882Y-70627157D01*
X86882719Y-70968320D01*
X86874446Y-70971747D01*
X86866173Y-70968320D01*
X86865527Y-70967619D01*
X86442506Y-70469339D01*
X86439764Y-70460814D01*
X86441901Y-70454972D01*
X86745955Y-70028969D01*
X86753549Y-70024227D01*
X86755024Y-70024075D01*
X87212902Y-70006739D01*
X87221299Y-70009851D01*
G37*
G04 #@! TD.AperFunction*
G04 #@! TA.AperFunction,Conductor*
G36*
X86415084Y-69595347D02*
G01*
X86418868Y-69598512D01*
X86745401Y-70017811D01*
X86747781Y-70026444D01*
X86745401Y-70032189D01*
X86418868Y-70451487D01*
X86411081Y-70455909D01*
X86406167Y-70455472D01*
X85833230Y-70277555D01*
X85826346Y-70271828D01*
X85825000Y-70266381D01*
X85825000Y-69783618D01*
X85828427Y-69775345D01*
X85833228Y-69772444D01*
X86406167Y-69594527D01*
X86415084Y-69595347D01*
G37*
G04 #@! TD.AperFunction*
G04 #@! TA.AperFunction,Conductor*
G36*
X88798260Y-71957285D02*
G01*
X88798286Y-71957311D01*
X89110430Y-72270416D01*
X89113844Y-72278694D01*
X89113544Y-72281307D01*
X89042093Y-72590931D01*
X89036894Y-72598222D01*
X89030693Y-72600000D01*
X88549307Y-72600000D01*
X88541034Y-72596573D01*
X88537907Y-72590931D01*
X88466455Y-72281307D01*
X88467933Y-72272475D01*
X88469565Y-72270420D01*
X88781714Y-71957310D01*
X88789982Y-71953871D01*
X88798260Y-71957285D01*
G37*
G04 #@! TD.AperFunction*
M02*
