G04 #@! TF.GenerationSoftware,KiCad,Pcbnew,8.0.2*
G04 #@! TF.CreationDate,2024-06-05T16:41:01+02:00*
G04 #@! TF.ProjectId,Local Oscillator 60 MHz,4c6f6361-6c20-44f7-9363-696c6c61746f,rev?*
G04 #@! TF.SameCoordinates,Original*
G04 #@! TF.FileFunction,Copper,L2,Bot*
G04 #@! TF.FilePolarity,Positive*
%FSLAX46Y46*%
G04 Gerber Fmt 4.6, Leading zero omitted, Abs format (unit mm)*
G04 Created by KiCad (PCBNEW 8.0.2) date 2024-06-05 16:41:01*
%MOMM*%
%LPD*%
G01*
G04 APERTURE LIST*
G04 #@! TA.AperFunction,ComponentPad*
%ADD10R,1.700000X1.700000*%
G04 #@! TD*
G04 #@! TA.AperFunction,ComponentPad*
%ADD11O,1.700000X1.700000*%
G04 #@! TD*
G04 #@! TA.AperFunction,ComponentPad*
%ADD12C,1.500000*%
G04 #@! TD*
G04 #@! TA.AperFunction,SMDPad,CuDef*
%ADD13R,4.000000X6.000000*%
G04 #@! TD*
G04 #@! TA.AperFunction,ViaPad*
%ADD14C,1.000000*%
G04 #@! TD*
G04 #@! TA.AperFunction,Conductor*
%ADD15C,0.500000*%
G04 #@! TD*
G04 #@! TA.AperFunction,Conductor*
%ADD16C,1.000000*%
G04 #@! TD*
G04 APERTURE END LIST*
D10*
X83500000Y-75725000D03*
D11*
X83500000Y-78265000D03*
D12*
X88975000Y-64000000D03*
X93855000Y-64000000D03*
D13*
X114000000Y-63750000D03*
X114000000Y-76750000D03*
X114000000Y-70250000D03*
D14*
X81250000Y-74000000D03*
X81250000Y-66500000D03*
X98500000Y-59250000D03*
X109750000Y-59250000D03*
X99750000Y-81250000D03*
X93500000Y-59250000D03*
X111000000Y-59250000D03*
X101000000Y-63500000D03*
X109750000Y-81250000D03*
X108500000Y-81250000D03*
X112250000Y-81250000D03*
X111000000Y-81250000D03*
X84750000Y-59250000D03*
X93000000Y-68500000D03*
X87250000Y-59250000D03*
X113500000Y-81250000D03*
X81250000Y-69000000D03*
X93000000Y-76250000D03*
X81250000Y-64000000D03*
X81250000Y-79000000D03*
X107250000Y-59250000D03*
X111250000Y-60750000D03*
X88500000Y-59250000D03*
X81250000Y-67750000D03*
X89000000Y-74750000D03*
X97250000Y-59250000D03*
X115500000Y-67750000D03*
X93500000Y-81250000D03*
X113500000Y-59250000D03*
X82250000Y-59250000D03*
X115500000Y-66500000D03*
X96000000Y-81250000D03*
X81250000Y-80250000D03*
X115500000Y-61500000D03*
X92250000Y-59250000D03*
X112250000Y-59250000D03*
X103500000Y-59250000D03*
X115500000Y-60250000D03*
X83500000Y-63250000D03*
X102250000Y-81250000D03*
X101000000Y-70000000D03*
X86000000Y-81250000D03*
X103500000Y-81250000D03*
X98000000Y-72750000D03*
X101000000Y-81250000D03*
X108500000Y-59250000D03*
X88500000Y-81250000D03*
X81250000Y-62750000D03*
X106500000Y-67475000D03*
X81250000Y-76500000D03*
X114750000Y-81250000D03*
X83000000Y-65250000D03*
X96500000Y-75000000D03*
X81250000Y-71500000D03*
X102250000Y-59250000D03*
X83000000Y-61250000D03*
X92250000Y-81250000D03*
X81250000Y-65250000D03*
X107250000Y-81250000D03*
X91000000Y-81250000D03*
X96000000Y-59250000D03*
X112500000Y-74000000D03*
X98500000Y-81250000D03*
X81250000Y-72750000D03*
X81250000Y-77750000D03*
X99000000Y-79500000D03*
X94750000Y-81250000D03*
X115500000Y-72750000D03*
X112500000Y-67500000D03*
X106030603Y-81246169D03*
X86000000Y-59250000D03*
X88500000Y-76250000D03*
X101000000Y-76500000D03*
X91000000Y-59250000D03*
X89750000Y-81250000D03*
X115500000Y-79000000D03*
X83500000Y-59250000D03*
X97250000Y-68000000D03*
X106000000Y-59250000D03*
X104750000Y-81250000D03*
X81250000Y-61500000D03*
X97250000Y-81250000D03*
X104750000Y-59250000D03*
X87250000Y-81250000D03*
X94750000Y-59250000D03*
X101000000Y-59250000D03*
X115500000Y-80250000D03*
X115500000Y-74000000D03*
X98750000Y-61250000D03*
X98000000Y-70250000D03*
X82250000Y-81250000D03*
X89750000Y-59250000D03*
X83500000Y-81250000D03*
X105500000Y-60750000D03*
X81250000Y-70250000D03*
X106500000Y-73975000D03*
X81250000Y-60250000D03*
X84750000Y-81250000D03*
X99750000Y-59250000D03*
X81250000Y-75250000D03*
X114750000Y-59250000D03*
X88750000Y-68500000D03*
X101000000Y-68500000D03*
X101000000Y-74000000D03*
X99000000Y-74000000D03*
X99050000Y-67000000D03*
X94975000Y-68500000D03*
D15*
X88750000Y-68500000D02*
X88750000Y-64225000D01*
X88750000Y-64225000D02*
X88975000Y-64000000D01*
D16*
X99000000Y-74000000D02*
X101000000Y-74000000D01*
X102200000Y-72800000D02*
X102200000Y-69200000D01*
X102200000Y-69200000D02*
X101500000Y-68500000D01*
D15*
X99050000Y-67000000D02*
X100550000Y-68500000D01*
D16*
X101500000Y-68500000D02*
X101000000Y-68500000D01*
X101000000Y-74000000D02*
X102200000Y-72800000D01*
D15*
X100550000Y-68500000D02*
X101000000Y-68500000D01*
X94975000Y-68500000D02*
X94975000Y-65120000D01*
X94975000Y-65120000D02*
X93855000Y-64000000D01*
G04 #@! TA.AperFunction,Conductor*
G36*
X115488074Y-58250002D02*
G01*
X115488781Y-58250006D01*
X115499345Y-58250070D01*
X115500689Y-58250087D01*
X115511891Y-58250293D01*
X115512552Y-58250307D01*
X115546504Y-58251139D01*
X115551750Y-58251381D01*
X115592725Y-58254149D01*
X115603272Y-58255318D01*
X115643853Y-58261592D01*
X115649021Y-58262505D01*
X115691657Y-58270986D01*
X115697552Y-58272310D01*
X115783680Y-58293883D01*
X115795321Y-58297415D01*
X115876028Y-58326293D01*
X115887255Y-58330943D01*
X115964760Y-58367600D01*
X115975485Y-58373332D01*
X116049008Y-58417400D01*
X116059118Y-58424155D01*
X116127976Y-58475223D01*
X116137378Y-58482940D01*
X116200890Y-58540504D01*
X116209495Y-58549109D01*
X116267059Y-58612621D01*
X116274779Y-58622028D01*
X116325839Y-58690875D01*
X116332599Y-58700992D01*
X116376665Y-58774511D01*
X116382402Y-58785244D01*
X116419051Y-58862733D01*
X116423707Y-58873974D01*
X116452585Y-58954681D01*
X116456118Y-58966327D01*
X116477685Y-59052430D01*
X116479018Y-59058366D01*
X116487486Y-59100934D01*
X116488413Y-59106182D01*
X116494678Y-59146707D01*
X116495852Y-59157292D01*
X116498617Y-59198212D01*
X116498862Y-59203539D01*
X116499691Y-59237416D01*
X116499707Y-59238169D01*
X116499910Y-59249207D01*
X116499929Y-59250723D01*
X116499998Y-59261915D01*
X116500000Y-59262679D01*
X116500000Y-81237320D01*
X116499998Y-81238084D01*
X116499929Y-81249276D01*
X116499910Y-81250792D01*
X116499707Y-81261830D01*
X116499691Y-81262583D01*
X116498862Y-81296460D01*
X116498617Y-81301787D01*
X116495852Y-81342707D01*
X116494678Y-81353292D01*
X116488413Y-81393817D01*
X116487486Y-81399065D01*
X116479018Y-81441633D01*
X116477685Y-81447569D01*
X116456118Y-81533672D01*
X116452585Y-81545318D01*
X116423707Y-81626025D01*
X116419051Y-81637267D01*
X116382403Y-81714753D01*
X116376667Y-81725484D01*
X116332601Y-81799005D01*
X116325840Y-81809124D01*
X116274779Y-81877972D01*
X116267059Y-81887378D01*
X116209495Y-81950890D01*
X116200890Y-81959495D01*
X116137378Y-82017059D01*
X116127972Y-82024779D01*
X116059124Y-82075840D01*
X116049005Y-82082601D01*
X115975484Y-82126667D01*
X115964753Y-82132403D01*
X115887267Y-82169051D01*
X115876025Y-82173707D01*
X115795318Y-82202585D01*
X115783672Y-82206118D01*
X115697569Y-82227685D01*
X115691633Y-82229018D01*
X115649065Y-82237486D01*
X115643817Y-82238413D01*
X115603292Y-82244678D01*
X115592707Y-82245852D01*
X115551787Y-82248617D01*
X115546460Y-82248862D01*
X115512583Y-82249691D01*
X115511830Y-82249707D01*
X115500792Y-82249910D01*
X115499277Y-82249929D01*
X115489042Y-82249992D01*
X115488074Y-82249998D01*
X115487321Y-82250000D01*
X81262679Y-82250000D01*
X81261924Y-82249998D01*
X81261095Y-82249992D01*
X81250723Y-82249929D01*
X81249207Y-82249910D01*
X81238169Y-82249707D01*
X81237416Y-82249691D01*
X81203539Y-82248862D01*
X81198212Y-82248617D01*
X81157292Y-82245852D01*
X81146707Y-82244678D01*
X81106182Y-82238413D01*
X81100941Y-82237487D01*
X81079554Y-82233233D01*
X81058366Y-82229018D01*
X81052430Y-82227685D01*
X80966327Y-82206118D01*
X80954681Y-82202585D01*
X80873974Y-82173707D01*
X80862732Y-82169051D01*
X80785246Y-82132403D01*
X80774515Y-82126667D01*
X80700996Y-82082602D01*
X80690878Y-82075841D01*
X80622033Y-82024783D01*
X80612626Y-82017063D01*
X80549109Y-81959495D01*
X80540504Y-81950890D01*
X80482940Y-81887378D01*
X80475220Y-81877972D01*
X80424159Y-81809124D01*
X80417398Y-81799005D01*
X80373332Y-81725484D01*
X80367596Y-81714753D01*
X80330943Y-81637255D01*
X80326292Y-81626025D01*
X80297416Y-81545324D01*
X80293883Y-81533678D01*
X80272310Y-81447552D01*
X80270986Y-81441657D01*
X80262505Y-81399021D01*
X80261592Y-81393853D01*
X80255318Y-81353272D01*
X80254149Y-81342727D01*
X80251380Y-81301752D01*
X80251138Y-81296492D01*
X80250305Y-81262482D01*
X80250292Y-81261830D01*
X80250087Y-81250695D01*
X80250070Y-81249344D01*
X80250002Y-81238073D01*
X80250000Y-81237320D01*
X80250000Y-78264999D01*
X82144341Y-78264999D01*
X82144341Y-78265000D01*
X82164936Y-78500403D01*
X82164938Y-78500413D01*
X82226094Y-78728655D01*
X82226096Y-78728659D01*
X82226097Y-78728663D01*
X82325965Y-78942830D01*
X82325967Y-78942834D01*
X82434281Y-79097521D01*
X82461505Y-79136401D01*
X82628599Y-79303495D01*
X82725384Y-79371265D01*
X82822165Y-79439032D01*
X82822167Y-79439033D01*
X82822170Y-79439035D01*
X83036337Y-79538903D01*
X83264592Y-79600063D01*
X83452918Y-79616539D01*
X83499999Y-79620659D01*
X83500000Y-79620659D01*
X83500001Y-79620659D01*
X83539234Y-79617226D01*
X83735408Y-79600063D01*
X83963663Y-79538903D01*
X84177830Y-79439035D01*
X84371401Y-79303495D01*
X84538495Y-79136401D01*
X84674035Y-78942830D01*
X84773903Y-78728663D01*
X84835063Y-78500408D01*
X84855659Y-78265000D01*
X84835063Y-78029592D01*
X84773903Y-77801337D01*
X84674035Y-77587171D01*
X84538495Y-77393599D01*
X84538494Y-77393597D01*
X84371402Y-77226506D01*
X84371395Y-77226501D01*
X84177834Y-77090967D01*
X84177830Y-77090965D01*
X84177828Y-77090964D01*
X83963663Y-76991097D01*
X83963659Y-76991096D01*
X83963655Y-76991094D01*
X83735413Y-76929938D01*
X83735403Y-76929936D01*
X83500001Y-76909341D01*
X83499999Y-76909341D01*
X83264596Y-76929936D01*
X83264586Y-76929938D01*
X83036344Y-76991094D01*
X83036335Y-76991098D01*
X82822171Y-77090964D01*
X82822169Y-77090965D01*
X82628597Y-77226505D01*
X82461505Y-77393597D01*
X82325965Y-77587169D01*
X82325964Y-77587171D01*
X82226098Y-77801335D01*
X82226094Y-77801344D01*
X82164938Y-78029586D01*
X82164936Y-78029596D01*
X82144341Y-78264999D01*
X80250000Y-78264999D01*
X80250000Y-73999999D01*
X97994659Y-73999999D01*
X97998903Y-74043090D01*
X97999500Y-74055244D01*
X97999500Y-74098544D01*
X98007945Y-74141006D01*
X98009730Y-74153035D01*
X98013975Y-74196130D01*
X98013976Y-74196134D01*
X98026547Y-74237575D01*
X98029503Y-74249378D01*
X98037946Y-74291827D01*
X98037948Y-74291834D01*
X98054517Y-74331834D01*
X98058612Y-74343277D01*
X98071186Y-74384727D01*
X98071187Y-74384729D01*
X98091597Y-74422913D01*
X98096800Y-74433915D01*
X98113368Y-74473914D01*
X98113370Y-74473918D01*
X98137425Y-74509918D01*
X98143683Y-74520358D01*
X98164088Y-74558535D01*
X98164094Y-74558543D01*
X98191552Y-74592002D01*
X98198799Y-74601772D01*
X98222862Y-74637783D01*
X98222865Y-74637787D01*
X98253479Y-74668401D01*
X98261651Y-74677416D01*
X98289117Y-74710883D01*
X98322579Y-74738345D01*
X98322581Y-74738346D01*
X98331599Y-74746520D01*
X98362214Y-74777136D01*
X98362217Y-74777138D01*
X98362218Y-74777139D01*
X98398217Y-74801193D01*
X98398219Y-74801194D01*
X98407988Y-74808438D01*
X98441462Y-74835910D01*
X98479640Y-74856316D01*
X98490078Y-74862572D01*
X98497899Y-74867797D01*
X98526086Y-74886632D01*
X98566095Y-74903203D01*
X98577091Y-74908404D01*
X98615273Y-74928814D01*
X98656710Y-74941383D01*
X98668160Y-74945480D01*
X98708165Y-74962051D01*
X98750640Y-74970499D01*
X98762414Y-74973448D01*
X98803868Y-74986024D01*
X98846964Y-74990268D01*
X98858990Y-74992052D01*
X98889480Y-74998117D01*
X98901458Y-75000500D01*
X98901459Y-75000500D01*
X98944756Y-75000500D01*
X98956909Y-75001096D01*
X99000000Y-75005341D01*
X99043090Y-75001096D01*
X99055244Y-75000500D01*
X100901460Y-75000500D01*
X100944756Y-75000500D01*
X100956909Y-75001096D01*
X101000000Y-75005341D01*
X101043090Y-75001096D01*
X101055244Y-75000500D01*
X101098541Y-75000500D01*
X101141011Y-74992051D01*
X101153034Y-74990268D01*
X101196132Y-74986024D01*
X101237580Y-74973449D01*
X101249361Y-74970498D01*
X101291836Y-74962051D01*
X101331855Y-74945473D01*
X101343281Y-74941385D01*
X101384727Y-74928814D01*
X101422910Y-74908403D01*
X101433910Y-74903201D01*
X101473914Y-74886632D01*
X101509938Y-74862560D01*
X101520351Y-74856320D01*
X101546591Y-74842295D01*
X101558535Y-74835912D01*
X101558539Y-74835909D01*
X101592005Y-74808444D01*
X101601782Y-74801193D01*
X101637781Y-74777140D01*
X101637783Y-74777138D01*
X101637785Y-74777136D01*
X101668408Y-74746512D01*
X101677402Y-74738359D01*
X101710883Y-74710883D01*
X101738359Y-74677402D01*
X101746511Y-74668409D01*
X101777139Y-74637782D01*
X101777139Y-74637781D01*
X101787341Y-74627580D01*
X101787348Y-74627570D01*
X102977139Y-73437782D01*
X103022306Y-73370184D01*
X103086632Y-73273914D01*
X103162051Y-73091835D01*
X103166159Y-73071186D01*
X103200500Y-72898540D01*
X103200500Y-72701460D01*
X103200500Y-69101459D01*
X103200500Y-69101456D01*
X103200499Y-69101454D01*
X103196819Y-69082954D01*
X103162051Y-68908164D01*
X103108647Y-68779236D01*
X103086632Y-68726086D01*
X102977139Y-68562218D01*
X102837782Y-68422861D01*
X102837781Y-68422860D01*
X102284208Y-67869288D01*
X102284206Y-67869285D01*
X102284206Y-67869286D01*
X102277139Y-67862219D01*
X102277139Y-67862218D01*
X102137782Y-67722861D01*
X102137781Y-67722860D01*
X102137780Y-67722859D01*
X101973920Y-67613371D01*
X101973907Y-67613364D01*
X101841543Y-67558538D01*
X101841542Y-67558538D01*
X101791836Y-67537949D01*
X101791828Y-67537947D01*
X101671316Y-67513976D01*
X101646974Y-67509134D01*
X101598543Y-67499500D01*
X101598541Y-67499500D01*
X101055244Y-67499500D01*
X101043090Y-67498903D01*
X101000000Y-67494659D01*
X100956910Y-67498903D01*
X100944756Y-67499500D01*
X100901453Y-67499500D01*
X100858991Y-67507945D01*
X100846963Y-67509730D01*
X100803867Y-67513976D01*
X100762427Y-67526546D01*
X100750628Y-67529501D01*
X100742503Y-67531118D01*
X100724083Y-67534782D01*
X100654491Y-67528553D01*
X100612212Y-67500845D01*
X100080593Y-66969225D01*
X100047108Y-66907902D01*
X100044871Y-66893697D01*
X100036024Y-66803871D01*
X100036024Y-66803870D01*
X100036024Y-66803868D01*
X99978814Y-66615273D01*
X99978811Y-66615269D01*
X99978811Y-66615266D01*
X99885913Y-66441467D01*
X99885909Y-66441460D01*
X99760883Y-66289116D01*
X99608539Y-66164090D01*
X99608532Y-66164086D01*
X99434733Y-66071188D01*
X99434727Y-66071186D01*
X99246132Y-66013976D01*
X99246129Y-66013975D01*
X99050000Y-65994659D01*
X98853870Y-66013975D01*
X98665266Y-66071188D01*
X98491467Y-66164086D01*
X98491460Y-66164090D01*
X98339116Y-66289116D01*
X98214090Y-66441460D01*
X98214086Y-66441467D01*
X98121188Y-66615266D01*
X98063975Y-66803870D01*
X98044659Y-67000000D01*
X98063975Y-67196129D01*
X98121188Y-67384733D01*
X98214086Y-67558532D01*
X98214090Y-67558538D01*
X98339116Y-67710883D01*
X98491460Y-67835909D01*
X98491467Y-67835913D01*
X98665266Y-67928811D01*
X98665269Y-67928811D01*
X98665273Y-67928814D01*
X98853868Y-67986024D01*
X98943697Y-67994871D01*
X99008485Y-68021031D01*
X99019225Y-68030593D01*
X99550851Y-68562218D01*
X99967048Y-68978415D01*
X99967049Y-68978416D01*
X100071584Y-69082951D01*
X100071587Y-69082953D01*
X100071588Y-69082954D01*
X100194494Y-69165077D01*
X100194498Y-69165079D01*
X100194505Y-69165084D01*
X100194508Y-69165085D01*
X100194511Y-69165087D01*
X100255861Y-69190498D01*
X100287074Y-69209206D01*
X100322581Y-69238346D01*
X100331598Y-69246519D01*
X100362214Y-69277136D01*
X100362219Y-69277140D01*
X100398219Y-69301194D01*
X100407988Y-69308438D01*
X100441462Y-69335910D01*
X100441464Y-69335911D01*
X100479640Y-69356316D01*
X100490078Y-69362572D01*
X100526086Y-69386632D01*
X100566095Y-69403203D01*
X100577091Y-69408404D01*
X100615273Y-69428814D01*
X100656710Y-69441383D01*
X100668160Y-69445480D01*
X100708165Y-69462051D01*
X100750640Y-69470499D01*
X100762414Y-69473448D01*
X100803868Y-69486024D01*
X100846964Y-69490268D01*
X100858990Y-69492052D01*
X100889480Y-69498117D01*
X100901458Y-69500500D01*
X100901459Y-69500500D01*
X100944756Y-69500500D01*
X100956909Y-69501096D01*
X101000000Y-69505341D01*
X101023949Y-69502982D01*
X101092594Y-69516001D01*
X101123784Y-69538704D01*
X101163181Y-69578101D01*
X101196666Y-69639424D01*
X101199500Y-69665782D01*
X101199500Y-72334217D01*
X101179815Y-72401256D01*
X101163181Y-72421898D01*
X100621899Y-72963181D01*
X100560576Y-72996666D01*
X100534218Y-72999500D01*
X99055244Y-72999500D01*
X99043090Y-72998903D01*
X99020377Y-72996666D01*
X99000000Y-72994659D01*
X98979623Y-72996666D01*
X98956910Y-72998903D01*
X98944756Y-72999500D01*
X98901453Y-72999500D01*
X98858991Y-73007945D01*
X98846963Y-73009730D01*
X98803867Y-73013976D01*
X98762427Y-73026546D01*
X98750626Y-73029502D01*
X98708166Y-73037948D01*
X98708161Y-73037949D01*
X98668159Y-73054518D01*
X98656707Y-73058616D01*
X98615272Y-73071186D01*
X98577091Y-73091594D01*
X98566093Y-73096795D01*
X98526091Y-73113364D01*
X98490080Y-73137426D01*
X98479645Y-73143680D01*
X98441465Y-73164087D01*
X98441460Y-73164091D01*
X98407990Y-73191557D01*
X98398225Y-73198799D01*
X98362225Y-73222855D01*
X98362219Y-73222860D01*
X98331595Y-73253483D01*
X98322584Y-73261650D01*
X98289117Y-73289117D01*
X98261650Y-73322584D01*
X98253483Y-73331595D01*
X98222860Y-73362219D01*
X98222855Y-73362225D01*
X98198799Y-73398225D01*
X98191557Y-73407990D01*
X98164091Y-73441460D01*
X98164087Y-73441465D01*
X98143680Y-73479645D01*
X98137426Y-73490080D01*
X98113364Y-73526091D01*
X98096795Y-73566093D01*
X98091594Y-73577091D01*
X98071186Y-73615272D01*
X98058616Y-73656707D01*
X98054518Y-73668159D01*
X98037949Y-73708161D01*
X98037948Y-73708166D01*
X98029502Y-73750626D01*
X98026546Y-73762427D01*
X98013976Y-73803867D01*
X98009730Y-73846963D01*
X98007945Y-73858991D01*
X97999500Y-73901453D01*
X97999500Y-73944754D01*
X97998903Y-73956907D01*
X97994659Y-73999999D01*
X80250000Y-73999999D01*
X80250000Y-63999997D01*
X87719723Y-63999997D01*
X87719723Y-64000002D01*
X87738793Y-64217975D01*
X87738793Y-64217979D01*
X87781528Y-64377469D01*
X87783597Y-64386537D01*
X87809114Y-64521565D01*
X87908232Y-65046079D01*
X87997344Y-65517636D01*
X87999500Y-65540661D01*
X87999500Y-67399797D01*
X87995449Y-67431234D01*
X87801654Y-68170659D01*
X87797141Y-68189319D01*
X87796762Y-68191722D01*
X87792940Y-68208382D01*
X87763975Y-68303868D01*
X87744659Y-68500000D01*
X87763975Y-68696129D01*
X87821188Y-68884733D01*
X87914086Y-69058532D01*
X87914090Y-69058539D01*
X88039116Y-69210883D01*
X88191460Y-69335909D01*
X88191467Y-69335913D01*
X88365266Y-69428811D01*
X88365269Y-69428811D01*
X88365273Y-69428814D01*
X88553868Y-69486024D01*
X88750000Y-69505341D01*
X88946132Y-69486024D01*
X89134727Y-69428814D01*
X89308538Y-69335910D01*
X89460883Y-69210883D01*
X89585910Y-69058538D01*
X89678814Y-68884727D01*
X89736024Y-68696132D01*
X89755341Y-68500000D01*
X89736024Y-68303868D01*
X89703251Y-68195834D01*
X89698710Y-68173879D01*
X89698342Y-68170653D01*
X89698341Y-68170645D01*
X89504551Y-67431234D01*
X89500500Y-67399797D01*
X89500500Y-65631237D01*
X89516851Y-65569693D01*
X90023030Y-64684341D01*
X90029093Y-64674778D01*
X90062102Y-64627639D01*
X90089358Y-64569186D01*
X90094086Y-64560059D01*
X90100165Y-64549428D01*
X90114963Y-64521559D01*
X90115610Y-64520243D01*
X90131692Y-64479008D01*
X90134818Y-64471696D01*
X90154575Y-64429330D01*
X90211207Y-64217977D01*
X90230277Y-64000000D01*
X90230277Y-63999997D01*
X92599723Y-63999997D01*
X92599723Y-64000002D01*
X92618793Y-64217975D01*
X92618793Y-64217979D01*
X92675422Y-64429322D01*
X92675424Y-64429326D01*
X92675425Y-64429330D01*
X92698598Y-64479025D01*
X92767897Y-64627638D01*
X92767898Y-64627639D01*
X92893402Y-64806877D01*
X93048123Y-64961598D01*
X93227361Y-65087102D01*
X93320619Y-65130588D01*
X93331666Y-65135740D01*
X93347020Y-65144272D01*
X93364980Y-65155990D01*
X93364985Y-65155993D01*
X93901674Y-65405579D01*
X94152788Y-65522360D01*
X94205275Y-65568478D01*
X94224500Y-65634796D01*
X94224500Y-67399797D01*
X94220449Y-67431234D01*
X94026654Y-68170659D01*
X94022141Y-68189319D01*
X94021762Y-68191722D01*
X94017940Y-68208382D01*
X93988975Y-68303868D01*
X93969659Y-68500000D01*
X93988975Y-68696129D01*
X94046188Y-68884733D01*
X94139086Y-69058532D01*
X94139090Y-69058539D01*
X94264116Y-69210883D01*
X94416460Y-69335909D01*
X94416467Y-69335913D01*
X94590266Y-69428811D01*
X94590269Y-69428811D01*
X94590273Y-69428814D01*
X94778868Y-69486024D01*
X94975000Y-69505341D01*
X95171132Y-69486024D01*
X95359727Y-69428814D01*
X95533538Y-69335910D01*
X95685883Y-69210883D01*
X95810910Y-69058538D01*
X95903814Y-68884727D01*
X95961024Y-68696132D01*
X95980341Y-68500000D01*
X95961024Y-68303868D01*
X95928251Y-68195834D01*
X95923710Y-68173879D01*
X95923342Y-68170653D01*
X95923341Y-68170645D01*
X95729551Y-67431234D01*
X95725500Y-67399797D01*
X95725500Y-65046079D01*
X95696659Y-64901092D01*
X95696658Y-64901091D01*
X95696658Y-64901087D01*
X95657635Y-64806877D01*
X95640087Y-64764511D01*
X95640080Y-64764498D01*
X95557952Y-64641585D01*
X95557951Y-64641584D01*
X95534747Y-64618380D01*
X95509994Y-64582990D01*
X95494383Y-64549422D01*
X95238875Y-64000002D01*
X95010994Y-63509987D01*
X94991190Y-63471752D01*
X94988088Y-63466919D01*
X94988482Y-63466665D01*
X94978419Y-63450245D01*
X94942102Y-63372363D01*
X94942101Y-63372361D01*
X94816599Y-63193124D01*
X94816596Y-63193121D01*
X94661877Y-63038402D01*
X94482639Y-62912898D01*
X94482640Y-62912898D01*
X94482638Y-62912897D01*
X94383484Y-62866661D01*
X94284330Y-62820425D01*
X94284326Y-62820424D01*
X94284322Y-62820422D01*
X94072977Y-62763793D01*
X93855002Y-62744723D01*
X93854998Y-62744723D01*
X93709682Y-62757436D01*
X93637023Y-62763793D01*
X93637020Y-62763793D01*
X93425677Y-62820422D01*
X93425668Y-62820426D01*
X93227361Y-62912898D01*
X93227357Y-62912900D01*
X93048121Y-63038402D01*
X92893402Y-63193121D01*
X92767900Y-63372357D01*
X92767898Y-63372361D01*
X92675426Y-63570668D01*
X92675422Y-63570677D01*
X92618793Y-63782020D01*
X92618793Y-63782024D01*
X92599723Y-63999997D01*
X90230277Y-63999997D01*
X90211207Y-63782023D01*
X90154575Y-63570670D01*
X90062102Y-63372362D01*
X90062100Y-63372359D01*
X90062099Y-63372357D01*
X89936599Y-63193124D01*
X89936596Y-63193121D01*
X89781877Y-63038402D01*
X89602639Y-62912898D01*
X89602640Y-62912898D01*
X89602638Y-62912897D01*
X89503484Y-62866661D01*
X89404330Y-62820425D01*
X89404326Y-62820424D01*
X89404322Y-62820422D01*
X89192977Y-62763793D01*
X88975002Y-62744723D01*
X88974998Y-62744723D01*
X88829682Y-62757436D01*
X88757023Y-62763793D01*
X88757020Y-62763793D01*
X88545677Y-62820422D01*
X88545668Y-62820426D01*
X88347361Y-62912898D01*
X88347357Y-62912900D01*
X88168121Y-63038402D01*
X88013402Y-63193121D01*
X87887900Y-63372357D01*
X87887898Y-63372361D01*
X87795426Y-63570668D01*
X87795422Y-63570677D01*
X87738793Y-63782020D01*
X87738793Y-63782024D01*
X87719723Y-63999997D01*
X80250000Y-63999997D01*
X80250000Y-59262679D01*
X80250002Y-59261926D01*
X80250006Y-59261226D01*
X80250071Y-59250652D01*
X80250087Y-59249312D01*
X80250293Y-59238101D01*
X80250308Y-59237427D01*
X80250308Y-59237416D01*
X80251139Y-59203493D01*
X80251381Y-59198251D01*
X80254149Y-59157272D01*
X80255318Y-59146730D01*
X80261593Y-59106138D01*
X80262503Y-59100986D01*
X80270988Y-59058333D01*
X80272308Y-59052455D01*
X80293885Y-58966313D01*
X80297414Y-58954681D01*
X80326296Y-58873963D01*
X80330940Y-58862751D01*
X80367604Y-58785230D01*
X80373327Y-58774523D01*
X80417405Y-58700983D01*
X80424152Y-58690886D01*
X80475223Y-58622023D01*
X80482936Y-58612626D01*
X80494741Y-58599600D01*
X80540510Y-58549102D01*
X80549102Y-58540510D01*
X80599600Y-58494741D01*
X80612626Y-58482936D01*
X80622023Y-58475223D01*
X80690886Y-58424152D01*
X80700979Y-58417408D01*
X80774525Y-58373326D01*
X80785229Y-58367604D01*
X80862744Y-58330943D01*
X80873963Y-58326296D01*
X80954684Y-58297413D01*
X80966313Y-58293885D01*
X81052455Y-58272308D01*
X81058333Y-58270988D01*
X81100986Y-58262503D01*
X81106138Y-58261593D01*
X81146730Y-58255318D01*
X81157272Y-58254149D01*
X81198251Y-58251381D01*
X81203493Y-58251139D01*
X81237454Y-58250307D01*
X81238101Y-58250293D01*
X81249312Y-58250087D01*
X81250652Y-58250071D01*
X81261226Y-58250006D01*
X81261926Y-58250002D01*
X81262679Y-58250000D01*
X115487321Y-58250000D01*
X115488074Y-58250002D01*
G37*
G04 #@! TD.AperFunction*
G04 #@! TA.AperFunction,Conductor*
G36*
X88977162Y-63999898D02*
G01*
X89655658Y-64281920D01*
X89661982Y-64288260D01*
X89661971Y-64297215D01*
X89661324Y-64298531D01*
X89003369Y-65449352D01*
X88996288Y-65454833D01*
X88993212Y-65455245D01*
X88509697Y-65455245D01*
X88501424Y-65451818D01*
X88498200Y-65445718D01*
X88227618Y-64013854D01*
X88229450Y-64005088D01*
X88236942Y-64000184D01*
X88239096Y-63999981D01*
X88972656Y-63999003D01*
X88977162Y-63999898D01*
G37*
G04 #@! TD.AperFunction*
G04 #@! TA.AperFunction,Conductor*
G36*
X88999244Y-67503427D02*
G01*
X89002289Y-67508734D01*
X89209357Y-68298806D01*
X89208139Y-68307677D01*
X89202536Y-68312573D01*
X88754497Y-68499127D01*
X88745543Y-68499144D01*
X88745503Y-68499127D01*
X88297463Y-68312573D01*
X88291142Y-68306229D01*
X88290642Y-68298806D01*
X88497711Y-67508734D01*
X88503124Y-67501600D01*
X88509029Y-67500000D01*
X88990971Y-67500000D01*
X88999244Y-67503427D01*
G37*
G04 #@! TD.AperFunction*
G04 #@! TA.AperFunction,Conductor*
G36*
X95224244Y-67503427D02*
G01*
X95227289Y-67508734D01*
X95434357Y-68298806D01*
X95433139Y-68307677D01*
X95427536Y-68312573D01*
X94979497Y-68499127D01*
X94970543Y-68499144D01*
X94970503Y-68499127D01*
X94522463Y-68312573D01*
X94516142Y-68306229D01*
X94515642Y-68298806D01*
X94722711Y-67508734D01*
X94728124Y-67501600D01*
X94734029Y-67500000D01*
X95215971Y-67500000D01*
X95224244Y-67503427D01*
G37*
G04 #@! TD.AperFunction*
G04 #@! TA.AperFunction,Conductor*
G36*
X94546513Y-63717270D02*
G01*
X94552631Y-63723140D01*
X95088985Y-64876462D01*
X95089366Y-64885409D01*
X95086649Y-64889669D01*
X94744669Y-65231649D01*
X94736396Y-65235076D01*
X94731462Y-65233985D01*
X93578140Y-64697631D01*
X93572084Y-64691035D01*
X93572258Y-64682560D01*
X93852438Y-64003786D01*
X93858759Y-63997449D01*
X94537560Y-63717259D01*
X94546513Y-63717270D01*
G37*
G04 #@! TD.AperFunction*
M02*
