%TF.GenerationSoftware,KiCad,Pcbnew,8.0.2*%
%TF.CreationDate,2024-06-05T16:41:05+02:00*%
%TF.ProjectId,Local Oscillator 60 MHz,4c6f6361-6c20-44f7-9363-696c6c61746f,rev?*%
%TF.SameCoordinates,Original*%
%TF.FileFunction,Drillmap*%
%TF.FilePolarity,Positive*%
%FSLAX45Y45*%
G04 Gerber Fmt 4.5, Leading zero omitted, Abs format (unit mm)*
G04 Created by KiCad (PCBNEW 8.0.2) date 2024-06-05 16:41:05*
%MOMM*%
%LPD*%
G01*
G04 APERTURE LIST*
%ADD10C,0.050000*%
%ADD11C,0.200000*%
%ADD12C,0.100000*%
G04 APERTURE END LIST*
D10*
X11650000Y-8125000D02*
X11650000Y-5925000D01*
X8125000Y-8225000D02*
G75*
G02*
X8025000Y-8125000I0J100000D01*
G01*
X8025000Y-5925000D02*
G75*
G02*
X8125000Y-5825000I100000J0D01*
G01*
X8125000Y-8225000D02*
X11550000Y-8225000D01*
X11650000Y-8125000D02*
G75*
G02*
X11550000Y-8225000I-100000J0D01*
G01*
X11550000Y-5825000D02*
X8125000Y-5825000D01*
X11550000Y-5825000D02*
G75*
G02*
X11650000Y-5925000I0J-100000D01*
G01*
X8025000Y-5925000D02*
X8025000Y-8125000D01*
D11*
D12*
X8095000Y-5995000D02*
X8155000Y-6055000D01*
X8155000Y-5995000D02*
X8095000Y-6055000D01*
X8095000Y-6120000D02*
X8155000Y-6180000D01*
X8155000Y-6120000D02*
X8095000Y-6180000D01*
X8095000Y-6245000D02*
X8155000Y-6305000D01*
X8155000Y-6245000D02*
X8095000Y-6305000D01*
X8095000Y-6370000D02*
X8155000Y-6430000D01*
X8155000Y-6370000D02*
X8095000Y-6430000D01*
X8095000Y-6495000D02*
X8155000Y-6555000D01*
X8155000Y-6495000D02*
X8095000Y-6555000D01*
X8095000Y-6620000D02*
X8155000Y-6680000D01*
X8155000Y-6620000D02*
X8095000Y-6680000D01*
X8095000Y-6745000D02*
X8155000Y-6805000D01*
X8155000Y-6745000D02*
X8095000Y-6805000D01*
X8095000Y-6870000D02*
X8155000Y-6930000D01*
X8155000Y-6870000D02*
X8095000Y-6930000D01*
X8095000Y-6995000D02*
X8155000Y-7055000D01*
X8155000Y-6995000D02*
X8095000Y-7055000D01*
X8095000Y-7120000D02*
X8155000Y-7180000D01*
X8155000Y-7120000D02*
X8095000Y-7180000D01*
X8095000Y-7245000D02*
X8155000Y-7305000D01*
X8155000Y-7245000D02*
X8095000Y-7305000D01*
X8095000Y-7370000D02*
X8155000Y-7430000D01*
X8155000Y-7370000D02*
X8095000Y-7430000D01*
X8095000Y-7495000D02*
X8155000Y-7555000D01*
X8155000Y-7495000D02*
X8095000Y-7555000D01*
X8095000Y-7620000D02*
X8155000Y-7680000D01*
X8155000Y-7620000D02*
X8095000Y-7680000D01*
X8095000Y-7745000D02*
X8155000Y-7805000D01*
X8155000Y-7745000D02*
X8095000Y-7805000D01*
X8095000Y-7870000D02*
X8155000Y-7930000D01*
X8155000Y-7870000D02*
X8095000Y-7930000D01*
X8095000Y-7995000D02*
X8155000Y-8055000D01*
X8155000Y-7995000D02*
X8095000Y-8055000D01*
X8195000Y-5895000D02*
X8255000Y-5955000D01*
X8255000Y-5895000D02*
X8195000Y-5955000D01*
X8195000Y-8095000D02*
X8255000Y-8155000D01*
X8255000Y-8095000D02*
X8195000Y-8155000D01*
X8270000Y-6095000D02*
X8330000Y-6155000D01*
X8330000Y-6095000D02*
X8270000Y-6155000D01*
X8270000Y-6495000D02*
X8330000Y-6555000D01*
X8330000Y-6495000D02*
X8270000Y-6555000D01*
X8320000Y-5895000D02*
X8380000Y-5955000D01*
X8380000Y-5895000D02*
X8320000Y-5955000D01*
X8320000Y-6295000D02*
X8380000Y-6355000D01*
X8380000Y-6295000D02*
X8320000Y-6355000D01*
X8320000Y-8095000D02*
X8380000Y-8155000D01*
X8380000Y-8095000D02*
X8320000Y-8155000D01*
X8445000Y-5895000D02*
X8505000Y-5955000D01*
X8505000Y-5895000D02*
X8445000Y-5955000D01*
X8445000Y-8095000D02*
X8505000Y-8155000D01*
X8505000Y-8095000D02*
X8445000Y-8155000D01*
X8570000Y-5895000D02*
X8630000Y-5955000D01*
X8630000Y-5895000D02*
X8570000Y-5955000D01*
X8570000Y-8095000D02*
X8630000Y-8155000D01*
X8630000Y-8095000D02*
X8570000Y-8155000D01*
X8695000Y-5895000D02*
X8755000Y-5955000D01*
X8755000Y-5895000D02*
X8695000Y-5955000D01*
X8695000Y-8095000D02*
X8755000Y-8155000D01*
X8755000Y-8095000D02*
X8695000Y-8155000D01*
X8820000Y-5895000D02*
X8880000Y-5955000D01*
X8880000Y-5895000D02*
X8820000Y-5955000D01*
X8820000Y-7595000D02*
X8880000Y-7655000D01*
X8880000Y-7595000D02*
X8820000Y-7655000D01*
X8820000Y-8095000D02*
X8880000Y-8155000D01*
X8880000Y-8095000D02*
X8820000Y-8155000D01*
X8845000Y-6820000D02*
X8905000Y-6880000D01*
X8905000Y-6820000D02*
X8845000Y-6880000D01*
X8870000Y-7445000D02*
X8930000Y-7505000D01*
X8930000Y-7445000D02*
X8870000Y-7505000D01*
X8945000Y-5895000D02*
X9005000Y-5955000D01*
X9005000Y-5895000D02*
X8945000Y-5955000D01*
X8945000Y-8095000D02*
X9005000Y-8155000D01*
X9005000Y-8095000D02*
X8945000Y-8155000D01*
X9070000Y-5895000D02*
X9130000Y-5955000D01*
X9130000Y-5895000D02*
X9070000Y-5955000D01*
X9070000Y-8095000D02*
X9130000Y-8155000D01*
X9130000Y-8095000D02*
X9070000Y-8155000D01*
X9195000Y-5895000D02*
X9255000Y-5955000D01*
X9255000Y-5895000D02*
X9195000Y-5955000D01*
X9195000Y-8095000D02*
X9255000Y-8155000D01*
X9255000Y-8095000D02*
X9195000Y-8155000D01*
X9270000Y-6820000D02*
X9330000Y-6880000D01*
X9330000Y-6820000D02*
X9270000Y-6880000D01*
X9270000Y-7595000D02*
X9330000Y-7655000D01*
X9330000Y-7595000D02*
X9270000Y-7655000D01*
X9320000Y-5895000D02*
X9380000Y-5955000D01*
X9380000Y-5895000D02*
X9320000Y-5955000D01*
X9320000Y-8095000D02*
X9380000Y-8155000D01*
X9380000Y-8095000D02*
X9320000Y-8155000D01*
X9445000Y-5895000D02*
X9505000Y-5955000D01*
X9505000Y-5895000D02*
X9445000Y-5955000D01*
X9445000Y-8095000D02*
X9505000Y-8155000D01*
X9505000Y-8095000D02*
X9445000Y-8155000D01*
X9467500Y-6820000D02*
X9527500Y-6880000D01*
X9527500Y-6820000D02*
X9467500Y-6880000D01*
X9570000Y-5895000D02*
X9630000Y-5955000D01*
X9630000Y-5895000D02*
X9570000Y-5955000D01*
X9570000Y-8095000D02*
X9630000Y-8155000D01*
X9630000Y-8095000D02*
X9570000Y-8155000D01*
X9620000Y-7470000D02*
X9680000Y-7530000D01*
X9680000Y-7470000D02*
X9620000Y-7530000D01*
X9695000Y-5895000D02*
X9755000Y-5955000D01*
X9755000Y-5895000D02*
X9695000Y-5955000D01*
X9695000Y-6770000D02*
X9755000Y-6830000D01*
X9755000Y-6770000D02*
X9695000Y-6830000D01*
X9695000Y-8095000D02*
X9755000Y-8155000D01*
X9755000Y-8095000D02*
X9695000Y-8155000D01*
X9770000Y-6995000D02*
X9830000Y-7055000D01*
X9830000Y-6995000D02*
X9770000Y-7055000D01*
X9770000Y-7245000D02*
X9830000Y-7305000D01*
X9830000Y-7245000D02*
X9770000Y-7305000D01*
X9820000Y-5895000D02*
X9880000Y-5955000D01*
X9880000Y-5895000D02*
X9820000Y-5955000D01*
X9820000Y-8095000D02*
X9880000Y-8155000D01*
X9880000Y-8095000D02*
X9820000Y-8155000D01*
X9845000Y-6095000D02*
X9905000Y-6155000D01*
X9905000Y-6095000D02*
X9845000Y-6155000D01*
X9870000Y-7370000D02*
X9930000Y-7430000D01*
X9930000Y-7370000D02*
X9870000Y-7430000D01*
X9870000Y-7920000D02*
X9930000Y-7980000D01*
X9930000Y-7920000D02*
X9870000Y-7980000D01*
X9875000Y-6670000D02*
X9935000Y-6730000D01*
X9935000Y-6670000D02*
X9875000Y-6730000D01*
X9945000Y-5895000D02*
X10005000Y-5955000D01*
X10005000Y-5895000D02*
X9945000Y-5955000D01*
X9945000Y-8095000D02*
X10005000Y-8155000D01*
X10005000Y-8095000D02*
X9945000Y-8155000D01*
X10070000Y-5895000D02*
X10130000Y-5955000D01*
X10130000Y-5895000D02*
X10070000Y-5955000D01*
X10070000Y-6320000D02*
X10130000Y-6380000D01*
X10130000Y-6320000D02*
X10070000Y-6380000D01*
X10070000Y-6820000D02*
X10130000Y-6880000D01*
X10130000Y-6820000D02*
X10070000Y-6880000D01*
X10070000Y-6970000D02*
X10130000Y-7030000D01*
X10130000Y-6970000D02*
X10070000Y-7030000D01*
X10070000Y-7370000D02*
X10130000Y-7430000D01*
X10130000Y-7370000D02*
X10070000Y-7430000D01*
X10070000Y-7620000D02*
X10130000Y-7680000D01*
X10130000Y-7620000D02*
X10070000Y-7680000D01*
X10070000Y-8095000D02*
X10130000Y-8155000D01*
X10130000Y-8095000D02*
X10070000Y-8155000D01*
X10195000Y-5895000D02*
X10255000Y-5955000D01*
X10255000Y-5895000D02*
X10195000Y-5955000D01*
X10195000Y-8095000D02*
X10255000Y-8155000D01*
X10255000Y-8095000D02*
X10195000Y-8155000D01*
X10320000Y-5895000D02*
X10380000Y-5955000D01*
X10380000Y-5895000D02*
X10320000Y-5955000D01*
X10320000Y-8095000D02*
X10380000Y-8155000D01*
X10380000Y-8095000D02*
X10320000Y-8155000D01*
X10445000Y-5895000D02*
X10505000Y-5955000D01*
X10505000Y-5895000D02*
X10445000Y-5955000D01*
X10445000Y-8095000D02*
X10505000Y-8155000D01*
X10505000Y-8095000D02*
X10445000Y-8155000D01*
X10520000Y-6045000D02*
X10580000Y-6105000D01*
X10580000Y-6045000D02*
X10520000Y-6105000D01*
X10570000Y-5895000D02*
X10630000Y-5955000D01*
X10630000Y-5895000D02*
X10570000Y-5955000D01*
X10573060Y-8094617D02*
X10633060Y-8154617D01*
X10633060Y-8094617D02*
X10573060Y-8154617D01*
X10620000Y-6717500D02*
X10680000Y-6777500D01*
X10680000Y-6717500D02*
X10620000Y-6777500D01*
X10620000Y-7367500D02*
X10680000Y-7427500D01*
X10680000Y-7367500D02*
X10620000Y-7427500D01*
X10695000Y-5895000D02*
X10755000Y-5955000D01*
X10755000Y-5895000D02*
X10695000Y-5955000D01*
X10695000Y-8095000D02*
X10755000Y-8155000D01*
X10755000Y-8095000D02*
X10695000Y-8155000D01*
X10820000Y-5895000D02*
X10880000Y-5955000D01*
X10880000Y-5895000D02*
X10820000Y-5955000D01*
X10820000Y-8095000D02*
X10880000Y-8155000D01*
X10880000Y-8095000D02*
X10820000Y-8155000D01*
X10945000Y-5895000D02*
X11005000Y-5955000D01*
X11005000Y-5895000D02*
X10945000Y-5955000D01*
X10945000Y-8095000D02*
X11005000Y-8155000D01*
X11005000Y-8095000D02*
X10945000Y-8155000D01*
X11070000Y-5895000D02*
X11130000Y-5955000D01*
X11130000Y-5895000D02*
X11070000Y-5955000D01*
X11070000Y-8095000D02*
X11130000Y-8155000D01*
X11130000Y-8095000D02*
X11070000Y-8155000D01*
X11095000Y-6045000D02*
X11155000Y-6105000D01*
X11155000Y-6045000D02*
X11095000Y-6105000D01*
X11195000Y-5895000D02*
X11255000Y-5955000D01*
X11255000Y-5895000D02*
X11195000Y-5955000D01*
X11195000Y-8095000D02*
X11255000Y-8155000D01*
X11255000Y-8095000D02*
X11195000Y-8155000D01*
X11220000Y-6720000D02*
X11280000Y-6780000D01*
X11280000Y-6720000D02*
X11220000Y-6780000D01*
X11220000Y-7370000D02*
X11280000Y-7430000D01*
X11280000Y-7370000D02*
X11220000Y-7430000D01*
X11320000Y-5895000D02*
X11380000Y-5955000D01*
X11380000Y-5895000D02*
X11320000Y-5955000D01*
X11320000Y-8095000D02*
X11380000Y-8155000D01*
X11380000Y-8095000D02*
X11320000Y-8155000D01*
X11445000Y-5895000D02*
X11505000Y-5955000D01*
X11505000Y-5895000D02*
X11445000Y-5955000D01*
X11445000Y-8095000D02*
X11505000Y-8155000D01*
X11505000Y-8095000D02*
X11445000Y-8155000D01*
X11520000Y-5995000D02*
X11580000Y-6055000D01*
X11580000Y-5995000D02*
X11520000Y-6055000D01*
X11520000Y-6120000D02*
X11580000Y-6180000D01*
X11580000Y-6120000D02*
X11520000Y-6180000D01*
X11520000Y-6620000D02*
X11580000Y-6680000D01*
X11580000Y-6620000D02*
X11520000Y-6680000D01*
X11520000Y-6745000D02*
X11580000Y-6805000D01*
X11580000Y-6745000D02*
X11520000Y-6805000D01*
X11520000Y-7245000D02*
X11580000Y-7305000D01*
X11580000Y-7245000D02*
X11520000Y-7305000D01*
X11520000Y-7370000D02*
X11580000Y-7430000D01*
X11580000Y-7370000D02*
X11520000Y-7430000D01*
X11520000Y-7870000D02*
X11580000Y-7930000D01*
X11580000Y-7870000D02*
X11520000Y-7930000D01*
X11520000Y-7995000D02*
X11580000Y-8055000D01*
X11580000Y-7995000D02*
X11520000Y-8055000D01*
X8937500Y-6400000D02*
G75*
G02*
X8857500Y-6400000I-40000J0D01*
G01*
X8857500Y-6400000D02*
G75*
G02*
X8937500Y-6400000I40000J0D01*
G01*
X9425500Y-6400000D02*
G75*
G02*
X9345500Y-6400000I-40000J0D01*
G01*
X9345500Y-6400000D02*
G75*
G02*
X9425500Y-6400000I40000J0D01*
G01*
X8350000Y-7522500D02*
X8350000Y-7622500D01*
X8300000Y-7572500D02*
X8400000Y-7572500D01*
X8350000Y-7776500D02*
X8350000Y-7876500D01*
X8300000Y-7826500D02*
X8400000Y-7826500D01*
D11*
X8283277Y-8538984D02*
X8283277Y-8338984D01*
X8283277Y-8338984D02*
X8330896Y-8338984D01*
X8330896Y-8338984D02*
X8359467Y-8348508D01*
X8359467Y-8348508D02*
X8378515Y-8367555D01*
X8378515Y-8367555D02*
X8388039Y-8386603D01*
X8388039Y-8386603D02*
X8397563Y-8424698D01*
X8397563Y-8424698D02*
X8397563Y-8453270D01*
X8397563Y-8453270D02*
X8388039Y-8491365D01*
X8388039Y-8491365D02*
X8378515Y-8510412D01*
X8378515Y-8510412D02*
X8359467Y-8529460D01*
X8359467Y-8529460D02*
X8330896Y-8538984D01*
X8330896Y-8538984D02*
X8283277Y-8538984D01*
X8483277Y-8538984D02*
X8483277Y-8405650D01*
X8483277Y-8443746D02*
X8492801Y-8424698D01*
X8492801Y-8424698D02*
X8502324Y-8415174D01*
X8502324Y-8415174D02*
X8521372Y-8405650D01*
X8521372Y-8405650D02*
X8540420Y-8405650D01*
X8607086Y-8538984D02*
X8607086Y-8405650D01*
X8607086Y-8338984D02*
X8597563Y-8348508D01*
X8597563Y-8348508D02*
X8607086Y-8358031D01*
X8607086Y-8358031D02*
X8616610Y-8348508D01*
X8616610Y-8348508D02*
X8607086Y-8338984D01*
X8607086Y-8338984D02*
X8607086Y-8358031D01*
X8730896Y-8538984D02*
X8711848Y-8529460D01*
X8711848Y-8529460D02*
X8702324Y-8510412D01*
X8702324Y-8510412D02*
X8702324Y-8338984D01*
X8835658Y-8538984D02*
X8816610Y-8529460D01*
X8816610Y-8529460D02*
X8807086Y-8510412D01*
X8807086Y-8510412D02*
X8807086Y-8338984D01*
X9064229Y-8538984D02*
X9064229Y-8338984D01*
X9064229Y-8338984D02*
X9130896Y-8481841D01*
X9130896Y-8481841D02*
X9197563Y-8338984D01*
X9197563Y-8338984D02*
X9197563Y-8538984D01*
X9378515Y-8538984D02*
X9378515Y-8434222D01*
X9378515Y-8434222D02*
X9368991Y-8415174D01*
X9368991Y-8415174D02*
X9349944Y-8405650D01*
X9349944Y-8405650D02*
X9311848Y-8405650D01*
X9311848Y-8405650D02*
X9292801Y-8415174D01*
X9378515Y-8529460D02*
X9359467Y-8538984D01*
X9359467Y-8538984D02*
X9311848Y-8538984D01*
X9311848Y-8538984D02*
X9292801Y-8529460D01*
X9292801Y-8529460D02*
X9283277Y-8510412D01*
X9283277Y-8510412D02*
X9283277Y-8491365D01*
X9283277Y-8491365D02*
X9292801Y-8472317D01*
X9292801Y-8472317D02*
X9311848Y-8462793D01*
X9311848Y-8462793D02*
X9359467Y-8462793D01*
X9359467Y-8462793D02*
X9378515Y-8453270D01*
X9473753Y-8405650D02*
X9473753Y-8605650D01*
X9473753Y-8415174D02*
X9492801Y-8405650D01*
X9492801Y-8405650D02*
X9530896Y-8405650D01*
X9530896Y-8405650D02*
X9549944Y-8415174D01*
X9549944Y-8415174D02*
X9559467Y-8424698D01*
X9559467Y-8424698D02*
X9568991Y-8443746D01*
X9568991Y-8443746D02*
X9568991Y-8500889D01*
X9568991Y-8500889D02*
X9559467Y-8519936D01*
X9559467Y-8519936D02*
X9549944Y-8529460D01*
X9549944Y-8529460D02*
X9530896Y-8538984D01*
X9530896Y-8538984D02*
X9492801Y-8538984D01*
X9492801Y-8538984D02*
X9473753Y-8529460D01*
X9654705Y-8519936D02*
X9664229Y-8529460D01*
X9664229Y-8529460D02*
X9654705Y-8538984D01*
X9654705Y-8538984D02*
X9645182Y-8529460D01*
X9645182Y-8529460D02*
X9654705Y-8519936D01*
X9654705Y-8519936D02*
X9654705Y-8538984D01*
X9654705Y-8415174D02*
X9664229Y-8424698D01*
X9664229Y-8424698D02*
X9654705Y-8434222D01*
X9654705Y-8434222D02*
X9645182Y-8424698D01*
X9645182Y-8424698D02*
X9654705Y-8415174D01*
X9654705Y-8415174D02*
X9654705Y-8434222D01*
D12*
X7962500Y-8837500D02*
X8022500Y-8897500D01*
X8022500Y-8837500D02*
X7962500Y-8897500D01*
D11*
X8321372Y-8758984D02*
X8340420Y-8758984D01*
X8340420Y-8758984D02*
X8359467Y-8768508D01*
X8359467Y-8768508D02*
X8368991Y-8778031D01*
X8368991Y-8778031D02*
X8378515Y-8797079D01*
X8378515Y-8797079D02*
X8388039Y-8835174D01*
X8388039Y-8835174D02*
X8388039Y-8882793D01*
X8388039Y-8882793D02*
X8378515Y-8920889D01*
X8378515Y-8920889D02*
X8368991Y-8939936D01*
X8368991Y-8939936D02*
X8359467Y-8949460D01*
X8359467Y-8949460D02*
X8340420Y-8958984D01*
X8340420Y-8958984D02*
X8321372Y-8958984D01*
X8321372Y-8958984D02*
X8302324Y-8949460D01*
X8302324Y-8949460D02*
X8292801Y-8939936D01*
X8292801Y-8939936D02*
X8283277Y-8920889D01*
X8283277Y-8920889D02*
X8273753Y-8882793D01*
X8273753Y-8882793D02*
X8273753Y-8835174D01*
X8273753Y-8835174D02*
X8283277Y-8797079D01*
X8283277Y-8797079D02*
X8292801Y-8778031D01*
X8292801Y-8778031D02*
X8302324Y-8768508D01*
X8302324Y-8768508D02*
X8321372Y-8758984D01*
X8473753Y-8939936D02*
X8483277Y-8949460D01*
X8483277Y-8949460D02*
X8473753Y-8958984D01*
X8473753Y-8958984D02*
X8464229Y-8949460D01*
X8464229Y-8949460D02*
X8473753Y-8939936D01*
X8473753Y-8939936D02*
X8473753Y-8958984D01*
X8654705Y-8758984D02*
X8616610Y-8758984D01*
X8616610Y-8758984D02*
X8597563Y-8768508D01*
X8597563Y-8768508D02*
X8588039Y-8778031D01*
X8588039Y-8778031D02*
X8568991Y-8806603D01*
X8568991Y-8806603D02*
X8559467Y-8844698D01*
X8559467Y-8844698D02*
X8559467Y-8920889D01*
X8559467Y-8920889D02*
X8568991Y-8939936D01*
X8568991Y-8939936D02*
X8578515Y-8949460D01*
X8578515Y-8949460D02*
X8597563Y-8958984D01*
X8597563Y-8958984D02*
X8635658Y-8958984D01*
X8635658Y-8958984D02*
X8654705Y-8949460D01*
X8654705Y-8949460D02*
X8664229Y-8939936D01*
X8664229Y-8939936D02*
X8673753Y-8920889D01*
X8673753Y-8920889D02*
X8673753Y-8873270D01*
X8673753Y-8873270D02*
X8664229Y-8854222D01*
X8664229Y-8854222D02*
X8654705Y-8844698D01*
X8654705Y-8844698D02*
X8635658Y-8835174D01*
X8635658Y-8835174D02*
X8597563Y-8835174D01*
X8597563Y-8835174D02*
X8578515Y-8844698D01*
X8578515Y-8844698D02*
X8568991Y-8854222D01*
X8568991Y-8854222D02*
X8559467Y-8873270D01*
X8797563Y-8758984D02*
X8816610Y-8758984D01*
X8816610Y-8758984D02*
X8835658Y-8768508D01*
X8835658Y-8768508D02*
X8845182Y-8778031D01*
X8845182Y-8778031D02*
X8854705Y-8797079D01*
X8854705Y-8797079D02*
X8864229Y-8835174D01*
X8864229Y-8835174D02*
X8864229Y-8882793D01*
X8864229Y-8882793D02*
X8854705Y-8920889D01*
X8854705Y-8920889D02*
X8845182Y-8939936D01*
X8845182Y-8939936D02*
X8835658Y-8949460D01*
X8835658Y-8949460D02*
X8816610Y-8958984D01*
X8816610Y-8958984D02*
X8797563Y-8958984D01*
X8797563Y-8958984D02*
X8778515Y-8949460D01*
X8778515Y-8949460D02*
X8768991Y-8939936D01*
X8768991Y-8939936D02*
X8759467Y-8920889D01*
X8759467Y-8920889D02*
X8749944Y-8882793D01*
X8749944Y-8882793D02*
X8749944Y-8835174D01*
X8749944Y-8835174D02*
X8759467Y-8797079D01*
X8759467Y-8797079D02*
X8768991Y-8778031D01*
X8768991Y-8778031D02*
X8778515Y-8768508D01*
X8778515Y-8768508D02*
X8797563Y-8758984D01*
X8988039Y-8758984D02*
X9007086Y-8758984D01*
X9007086Y-8758984D02*
X9026134Y-8768508D01*
X9026134Y-8768508D02*
X9035658Y-8778031D01*
X9035658Y-8778031D02*
X9045182Y-8797079D01*
X9045182Y-8797079D02*
X9054705Y-8835174D01*
X9054705Y-8835174D02*
X9054705Y-8882793D01*
X9054705Y-8882793D02*
X9045182Y-8920889D01*
X9045182Y-8920889D02*
X9035658Y-8939936D01*
X9035658Y-8939936D02*
X9026134Y-8949460D01*
X9026134Y-8949460D02*
X9007086Y-8958984D01*
X9007086Y-8958984D02*
X8988039Y-8958984D01*
X8988039Y-8958984D02*
X8968991Y-8949460D01*
X8968991Y-8949460D02*
X8959467Y-8939936D01*
X8959467Y-8939936D02*
X8949944Y-8920889D01*
X8949944Y-8920889D02*
X8940420Y-8882793D01*
X8940420Y-8882793D02*
X8940420Y-8835174D01*
X8940420Y-8835174D02*
X8949944Y-8797079D01*
X8949944Y-8797079D02*
X8959467Y-8778031D01*
X8959467Y-8778031D02*
X8968991Y-8768508D01*
X8968991Y-8768508D02*
X8988039Y-8758984D01*
X9140420Y-8958984D02*
X9140420Y-8825650D01*
X9140420Y-8844698D02*
X9149944Y-8835174D01*
X9149944Y-8835174D02*
X9168991Y-8825650D01*
X9168991Y-8825650D02*
X9197563Y-8825650D01*
X9197563Y-8825650D02*
X9216610Y-8835174D01*
X9216610Y-8835174D02*
X9226134Y-8854222D01*
X9226134Y-8854222D02*
X9226134Y-8958984D01*
X9226134Y-8854222D02*
X9235658Y-8835174D01*
X9235658Y-8835174D02*
X9254705Y-8825650D01*
X9254705Y-8825650D02*
X9283277Y-8825650D01*
X9283277Y-8825650D02*
X9302325Y-8835174D01*
X9302325Y-8835174D02*
X9311848Y-8854222D01*
X9311848Y-8854222D02*
X9311848Y-8958984D01*
X9407086Y-8958984D02*
X9407086Y-8825650D01*
X9407086Y-8844698D02*
X9416610Y-8835174D01*
X9416610Y-8835174D02*
X9435658Y-8825650D01*
X9435658Y-8825650D02*
X9464229Y-8825650D01*
X9464229Y-8825650D02*
X9483277Y-8835174D01*
X9483277Y-8835174D02*
X9492801Y-8854222D01*
X9492801Y-8854222D02*
X9492801Y-8958984D01*
X9492801Y-8854222D02*
X9502325Y-8835174D01*
X9502325Y-8835174D02*
X9521372Y-8825650D01*
X9521372Y-8825650D02*
X9549944Y-8825650D01*
X9549944Y-8825650D02*
X9568991Y-8835174D01*
X9568991Y-8835174D02*
X9578515Y-8854222D01*
X9578515Y-8854222D02*
X9578515Y-8958984D01*
X9968991Y-8749460D02*
X9797563Y-9006603D01*
X10226134Y-8758984D02*
X10245182Y-8758984D01*
X10245182Y-8758984D02*
X10264229Y-8768508D01*
X10264229Y-8768508D02*
X10273753Y-8778031D01*
X10273753Y-8778031D02*
X10283277Y-8797079D01*
X10283277Y-8797079D02*
X10292801Y-8835174D01*
X10292801Y-8835174D02*
X10292801Y-8882793D01*
X10292801Y-8882793D02*
X10283277Y-8920889D01*
X10283277Y-8920889D02*
X10273753Y-8939936D01*
X10273753Y-8939936D02*
X10264229Y-8949460D01*
X10264229Y-8949460D02*
X10245182Y-8958984D01*
X10245182Y-8958984D02*
X10226134Y-8958984D01*
X10226134Y-8958984D02*
X10207087Y-8949460D01*
X10207087Y-8949460D02*
X10197563Y-8939936D01*
X10197563Y-8939936D02*
X10188039Y-8920889D01*
X10188039Y-8920889D02*
X10178515Y-8882793D01*
X10178515Y-8882793D02*
X10178515Y-8835174D01*
X10178515Y-8835174D02*
X10188039Y-8797079D01*
X10188039Y-8797079D02*
X10197563Y-8778031D01*
X10197563Y-8778031D02*
X10207087Y-8768508D01*
X10207087Y-8768508D02*
X10226134Y-8758984D01*
X10378515Y-8939936D02*
X10388039Y-8949460D01*
X10388039Y-8949460D02*
X10378515Y-8958984D01*
X10378515Y-8958984D02*
X10368991Y-8949460D01*
X10368991Y-8949460D02*
X10378515Y-8939936D01*
X10378515Y-8939936D02*
X10378515Y-8958984D01*
X10511848Y-8758984D02*
X10530896Y-8758984D01*
X10530896Y-8758984D02*
X10549944Y-8768508D01*
X10549944Y-8768508D02*
X10559468Y-8778031D01*
X10559468Y-8778031D02*
X10568991Y-8797079D01*
X10568991Y-8797079D02*
X10578515Y-8835174D01*
X10578515Y-8835174D02*
X10578515Y-8882793D01*
X10578515Y-8882793D02*
X10568991Y-8920889D01*
X10568991Y-8920889D02*
X10559468Y-8939936D01*
X10559468Y-8939936D02*
X10549944Y-8949460D01*
X10549944Y-8949460D02*
X10530896Y-8958984D01*
X10530896Y-8958984D02*
X10511848Y-8958984D01*
X10511848Y-8958984D02*
X10492801Y-8949460D01*
X10492801Y-8949460D02*
X10483277Y-8939936D01*
X10483277Y-8939936D02*
X10473753Y-8920889D01*
X10473753Y-8920889D02*
X10464229Y-8882793D01*
X10464229Y-8882793D02*
X10464229Y-8835174D01*
X10464229Y-8835174D02*
X10473753Y-8797079D01*
X10473753Y-8797079D02*
X10483277Y-8778031D01*
X10483277Y-8778031D02*
X10492801Y-8768508D01*
X10492801Y-8768508D02*
X10511848Y-8758984D01*
X10654706Y-8778031D02*
X10664229Y-8768508D01*
X10664229Y-8768508D02*
X10683277Y-8758984D01*
X10683277Y-8758984D02*
X10730896Y-8758984D01*
X10730896Y-8758984D02*
X10749944Y-8768508D01*
X10749944Y-8768508D02*
X10759468Y-8778031D01*
X10759468Y-8778031D02*
X10768991Y-8797079D01*
X10768991Y-8797079D02*
X10768991Y-8816127D01*
X10768991Y-8816127D02*
X10759468Y-8844698D01*
X10759468Y-8844698D02*
X10645182Y-8958984D01*
X10645182Y-8958984D02*
X10768991Y-8958984D01*
X10835658Y-8758984D02*
X10959468Y-8758984D01*
X10959468Y-8758984D02*
X10892801Y-8835174D01*
X10892801Y-8835174D02*
X10921372Y-8835174D01*
X10921372Y-8835174D02*
X10940420Y-8844698D01*
X10940420Y-8844698D02*
X10949944Y-8854222D01*
X10949944Y-8854222D02*
X10959468Y-8873270D01*
X10959468Y-8873270D02*
X10959468Y-8920889D01*
X10959468Y-8920889D02*
X10949944Y-8939936D01*
X10949944Y-8939936D02*
X10940420Y-8949460D01*
X10940420Y-8949460D02*
X10921372Y-8958984D01*
X10921372Y-8958984D02*
X10864229Y-8958984D01*
X10864229Y-8958984D02*
X10845182Y-8949460D01*
X10845182Y-8949460D02*
X10835658Y-8939936D01*
X11130896Y-8758984D02*
X11092801Y-8758984D01*
X11092801Y-8758984D02*
X11073753Y-8768508D01*
X11073753Y-8768508D02*
X11064229Y-8778031D01*
X11064229Y-8778031D02*
X11045182Y-8806603D01*
X11045182Y-8806603D02*
X11035658Y-8844698D01*
X11035658Y-8844698D02*
X11035658Y-8920889D01*
X11035658Y-8920889D02*
X11045182Y-8939936D01*
X11045182Y-8939936D02*
X11054706Y-8949460D01*
X11054706Y-8949460D02*
X11073753Y-8958984D01*
X11073753Y-8958984D02*
X11111849Y-8958984D01*
X11111849Y-8958984D02*
X11130896Y-8949460D01*
X11130896Y-8949460D02*
X11140420Y-8939936D01*
X11140420Y-8939936D02*
X11149944Y-8920889D01*
X11149944Y-8920889D02*
X11149944Y-8873270D01*
X11149944Y-8873270D02*
X11140420Y-8854222D01*
X11140420Y-8854222D02*
X11130896Y-8844698D01*
X11130896Y-8844698D02*
X11111849Y-8835174D01*
X11111849Y-8835174D02*
X11073753Y-8835174D01*
X11073753Y-8835174D02*
X11054706Y-8844698D01*
X11054706Y-8844698D02*
X11045182Y-8854222D01*
X11045182Y-8854222D02*
X11035658Y-8873270D01*
X11226134Y-8758984D02*
X11226134Y-8797079D01*
X11302325Y-8758984D02*
X11302325Y-8797079D01*
X11597563Y-9035174D02*
X11588039Y-9025650D01*
X11588039Y-9025650D02*
X11568991Y-8997079D01*
X11568991Y-8997079D02*
X11559468Y-8978031D01*
X11559468Y-8978031D02*
X11549944Y-8949460D01*
X11549944Y-8949460D02*
X11540420Y-8901841D01*
X11540420Y-8901841D02*
X11540420Y-8863746D01*
X11540420Y-8863746D02*
X11549944Y-8816127D01*
X11549944Y-8816127D02*
X11559468Y-8787555D01*
X11559468Y-8787555D02*
X11568991Y-8768508D01*
X11568991Y-8768508D02*
X11588039Y-8739936D01*
X11588039Y-8739936D02*
X11597563Y-8730412D01*
X11778515Y-8958984D02*
X11664229Y-8958984D01*
X11721372Y-8958984D02*
X11721372Y-8758984D01*
X11721372Y-8758984D02*
X11702325Y-8787555D01*
X11702325Y-8787555D02*
X11683277Y-8806603D01*
X11683277Y-8806603D02*
X11664229Y-8816127D01*
X11902325Y-8758984D02*
X11921372Y-8758984D01*
X11921372Y-8758984D02*
X11940420Y-8768508D01*
X11940420Y-8768508D02*
X11949944Y-8778031D01*
X11949944Y-8778031D02*
X11959468Y-8797079D01*
X11959468Y-8797079D02*
X11968991Y-8835174D01*
X11968991Y-8835174D02*
X11968991Y-8882793D01*
X11968991Y-8882793D02*
X11959468Y-8920889D01*
X11959468Y-8920889D02*
X11949944Y-8939936D01*
X11949944Y-8939936D02*
X11940420Y-8949460D01*
X11940420Y-8949460D02*
X11921372Y-8958984D01*
X11921372Y-8958984D02*
X11902325Y-8958984D01*
X11902325Y-8958984D02*
X11883277Y-8949460D01*
X11883277Y-8949460D02*
X11873753Y-8939936D01*
X11873753Y-8939936D02*
X11864229Y-8920889D01*
X11864229Y-8920889D02*
X11854706Y-8882793D01*
X11854706Y-8882793D02*
X11854706Y-8835174D01*
X11854706Y-8835174D02*
X11864229Y-8797079D01*
X11864229Y-8797079D02*
X11873753Y-8778031D01*
X11873753Y-8778031D02*
X11883277Y-8768508D01*
X11883277Y-8768508D02*
X11902325Y-8758984D01*
X12035658Y-8758984D02*
X12168991Y-8758984D01*
X12168991Y-8758984D02*
X12083277Y-8958984D01*
X12397563Y-8958984D02*
X12397563Y-8758984D01*
X12483277Y-8958984D02*
X12483277Y-8854222D01*
X12483277Y-8854222D02*
X12473753Y-8835174D01*
X12473753Y-8835174D02*
X12454706Y-8825650D01*
X12454706Y-8825650D02*
X12426134Y-8825650D01*
X12426134Y-8825650D02*
X12407087Y-8835174D01*
X12407087Y-8835174D02*
X12397563Y-8844698D01*
X12607087Y-8958984D02*
X12588039Y-8949460D01*
X12588039Y-8949460D02*
X12578515Y-8939936D01*
X12578515Y-8939936D02*
X12568991Y-8920889D01*
X12568991Y-8920889D02*
X12568991Y-8863746D01*
X12568991Y-8863746D02*
X12578515Y-8844698D01*
X12578515Y-8844698D02*
X12588039Y-8835174D01*
X12588039Y-8835174D02*
X12607087Y-8825650D01*
X12607087Y-8825650D02*
X12635658Y-8825650D01*
X12635658Y-8825650D02*
X12654706Y-8835174D01*
X12654706Y-8835174D02*
X12664230Y-8844698D01*
X12664230Y-8844698D02*
X12673753Y-8863746D01*
X12673753Y-8863746D02*
X12673753Y-8920889D01*
X12673753Y-8920889D02*
X12664230Y-8939936D01*
X12664230Y-8939936D02*
X12654706Y-8949460D01*
X12654706Y-8949460D02*
X12635658Y-8958984D01*
X12635658Y-8958984D02*
X12607087Y-8958984D01*
X12788039Y-8958984D02*
X12768991Y-8949460D01*
X12768991Y-8949460D02*
X12759468Y-8930412D01*
X12759468Y-8930412D02*
X12759468Y-8758984D01*
X12940420Y-8949460D02*
X12921372Y-8958984D01*
X12921372Y-8958984D02*
X12883277Y-8958984D01*
X12883277Y-8958984D02*
X12864230Y-8949460D01*
X12864230Y-8949460D02*
X12854706Y-8930412D01*
X12854706Y-8930412D02*
X12854706Y-8854222D01*
X12854706Y-8854222D02*
X12864230Y-8835174D01*
X12864230Y-8835174D02*
X12883277Y-8825650D01*
X12883277Y-8825650D02*
X12921372Y-8825650D01*
X12921372Y-8825650D02*
X12940420Y-8835174D01*
X12940420Y-8835174D02*
X12949944Y-8854222D01*
X12949944Y-8854222D02*
X12949944Y-8873270D01*
X12949944Y-8873270D02*
X12854706Y-8892317D01*
X13026134Y-8949460D02*
X13045182Y-8958984D01*
X13045182Y-8958984D02*
X13083277Y-8958984D01*
X13083277Y-8958984D02*
X13102325Y-8949460D01*
X13102325Y-8949460D02*
X13111849Y-8930412D01*
X13111849Y-8930412D02*
X13111849Y-8920889D01*
X13111849Y-8920889D02*
X13102325Y-8901841D01*
X13102325Y-8901841D02*
X13083277Y-8892317D01*
X13083277Y-8892317D02*
X13054706Y-8892317D01*
X13054706Y-8892317D02*
X13035658Y-8882793D01*
X13035658Y-8882793D02*
X13026134Y-8863746D01*
X13026134Y-8863746D02*
X13026134Y-8854222D01*
X13026134Y-8854222D02*
X13035658Y-8835174D01*
X13035658Y-8835174D02*
X13054706Y-8825650D01*
X13054706Y-8825650D02*
X13083277Y-8825650D01*
X13083277Y-8825650D02*
X13102325Y-8835174D01*
X13178515Y-9035174D02*
X13188039Y-9025650D01*
X13188039Y-9025650D02*
X13207087Y-8997079D01*
X13207087Y-8997079D02*
X13216611Y-8978031D01*
X13216611Y-8978031D02*
X13226134Y-8949460D01*
X13226134Y-8949460D02*
X13235658Y-8901841D01*
X13235658Y-8901841D02*
X13235658Y-8863746D01*
X13235658Y-8863746D02*
X13226134Y-8816127D01*
X13226134Y-8816127D02*
X13216611Y-8787555D01*
X13216611Y-8787555D02*
X13207087Y-8768508D01*
X13207087Y-8768508D02*
X13188039Y-8739936D01*
X13188039Y-8739936D02*
X13178515Y-8730412D01*
D12*
X8022500Y-9131500D02*
G75*
G02*
X7942500Y-9131500I-40000J0D01*
G01*
X7942500Y-9131500D02*
G75*
G02*
X8022500Y-9131500I40000J0D01*
G01*
D11*
X8321372Y-9022984D02*
X8340420Y-9022984D01*
X8340420Y-9022984D02*
X8359467Y-9032508D01*
X8359467Y-9032508D02*
X8368991Y-9042031D01*
X8368991Y-9042031D02*
X8378515Y-9061079D01*
X8378515Y-9061079D02*
X8388039Y-9099174D01*
X8388039Y-9099174D02*
X8388039Y-9146793D01*
X8388039Y-9146793D02*
X8378515Y-9184889D01*
X8378515Y-9184889D02*
X8368991Y-9203936D01*
X8368991Y-9203936D02*
X8359467Y-9213460D01*
X8359467Y-9213460D02*
X8340420Y-9222984D01*
X8340420Y-9222984D02*
X8321372Y-9222984D01*
X8321372Y-9222984D02*
X8302324Y-9213460D01*
X8302324Y-9213460D02*
X8292801Y-9203936D01*
X8292801Y-9203936D02*
X8283277Y-9184889D01*
X8283277Y-9184889D02*
X8273753Y-9146793D01*
X8273753Y-9146793D02*
X8273753Y-9099174D01*
X8273753Y-9099174D02*
X8283277Y-9061079D01*
X8283277Y-9061079D02*
X8292801Y-9042031D01*
X8292801Y-9042031D02*
X8302324Y-9032508D01*
X8302324Y-9032508D02*
X8321372Y-9022984D01*
X8473753Y-9203936D02*
X8483277Y-9213460D01*
X8483277Y-9213460D02*
X8473753Y-9222984D01*
X8473753Y-9222984D02*
X8464229Y-9213460D01*
X8464229Y-9213460D02*
X8473753Y-9203936D01*
X8473753Y-9203936D02*
X8473753Y-9222984D01*
X8597563Y-9108698D02*
X8578515Y-9099174D01*
X8578515Y-9099174D02*
X8568991Y-9089650D01*
X8568991Y-9089650D02*
X8559467Y-9070603D01*
X8559467Y-9070603D02*
X8559467Y-9061079D01*
X8559467Y-9061079D02*
X8568991Y-9042031D01*
X8568991Y-9042031D02*
X8578515Y-9032508D01*
X8578515Y-9032508D02*
X8597563Y-9022984D01*
X8597563Y-9022984D02*
X8635658Y-9022984D01*
X8635658Y-9022984D02*
X8654705Y-9032508D01*
X8654705Y-9032508D02*
X8664229Y-9042031D01*
X8664229Y-9042031D02*
X8673753Y-9061079D01*
X8673753Y-9061079D02*
X8673753Y-9070603D01*
X8673753Y-9070603D02*
X8664229Y-9089650D01*
X8664229Y-9089650D02*
X8654705Y-9099174D01*
X8654705Y-9099174D02*
X8635658Y-9108698D01*
X8635658Y-9108698D02*
X8597563Y-9108698D01*
X8597563Y-9108698D02*
X8578515Y-9118222D01*
X8578515Y-9118222D02*
X8568991Y-9127746D01*
X8568991Y-9127746D02*
X8559467Y-9146793D01*
X8559467Y-9146793D02*
X8559467Y-9184889D01*
X8559467Y-9184889D02*
X8568991Y-9203936D01*
X8568991Y-9203936D02*
X8578515Y-9213460D01*
X8578515Y-9213460D02*
X8597563Y-9222984D01*
X8597563Y-9222984D02*
X8635658Y-9222984D01*
X8635658Y-9222984D02*
X8654705Y-9213460D01*
X8654705Y-9213460D02*
X8664229Y-9203936D01*
X8664229Y-9203936D02*
X8673753Y-9184889D01*
X8673753Y-9184889D02*
X8673753Y-9146793D01*
X8673753Y-9146793D02*
X8664229Y-9127746D01*
X8664229Y-9127746D02*
X8654705Y-9118222D01*
X8654705Y-9118222D02*
X8635658Y-9108698D01*
X8797563Y-9022984D02*
X8816610Y-9022984D01*
X8816610Y-9022984D02*
X8835658Y-9032508D01*
X8835658Y-9032508D02*
X8845182Y-9042031D01*
X8845182Y-9042031D02*
X8854705Y-9061079D01*
X8854705Y-9061079D02*
X8864229Y-9099174D01*
X8864229Y-9099174D02*
X8864229Y-9146793D01*
X8864229Y-9146793D02*
X8854705Y-9184889D01*
X8854705Y-9184889D02*
X8845182Y-9203936D01*
X8845182Y-9203936D02*
X8835658Y-9213460D01*
X8835658Y-9213460D02*
X8816610Y-9222984D01*
X8816610Y-9222984D02*
X8797563Y-9222984D01*
X8797563Y-9222984D02*
X8778515Y-9213460D01*
X8778515Y-9213460D02*
X8768991Y-9203936D01*
X8768991Y-9203936D02*
X8759467Y-9184889D01*
X8759467Y-9184889D02*
X8749944Y-9146793D01*
X8749944Y-9146793D02*
X8749944Y-9099174D01*
X8749944Y-9099174D02*
X8759467Y-9061079D01*
X8759467Y-9061079D02*
X8768991Y-9042031D01*
X8768991Y-9042031D02*
X8778515Y-9032508D01*
X8778515Y-9032508D02*
X8797563Y-9022984D01*
X8988039Y-9022984D02*
X9007086Y-9022984D01*
X9007086Y-9022984D02*
X9026134Y-9032508D01*
X9026134Y-9032508D02*
X9035658Y-9042031D01*
X9035658Y-9042031D02*
X9045182Y-9061079D01*
X9045182Y-9061079D02*
X9054705Y-9099174D01*
X9054705Y-9099174D02*
X9054705Y-9146793D01*
X9054705Y-9146793D02*
X9045182Y-9184889D01*
X9045182Y-9184889D02*
X9035658Y-9203936D01*
X9035658Y-9203936D02*
X9026134Y-9213460D01*
X9026134Y-9213460D02*
X9007086Y-9222984D01*
X9007086Y-9222984D02*
X8988039Y-9222984D01*
X8988039Y-9222984D02*
X8968991Y-9213460D01*
X8968991Y-9213460D02*
X8959467Y-9203936D01*
X8959467Y-9203936D02*
X8949944Y-9184889D01*
X8949944Y-9184889D02*
X8940420Y-9146793D01*
X8940420Y-9146793D02*
X8940420Y-9099174D01*
X8940420Y-9099174D02*
X8949944Y-9061079D01*
X8949944Y-9061079D02*
X8959467Y-9042031D01*
X8959467Y-9042031D02*
X8968991Y-9032508D01*
X8968991Y-9032508D02*
X8988039Y-9022984D01*
X9140420Y-9222984D02*
X9140420Y-9089650D01*
X9140420Y-9108698D02*
X9149944Y-9099174D01*
X9149944Y-9099174D02*
X9168991Y-9089650D01*
X9168991Y-9089650D02*
X9197563Y-9089650D01*
X9197563Y-9089650D02*
X9216610Y-9099174D01*
X9216610Y-9099174D02*
X9226134Y-9118222D01*
X9226134Y-9118222D02*
X9226134Y-9222984D01*
X9226134Y-9118222D02*
X9235658Y-9099174D01*
X9235658Y-9099174D02*
X9254705Y-9089650D01*
X9254705Y-9089650D02*
X9283277Y-9089650D01*
X9283277Y-9089650D02*
X9302325Y-9099174D01*
X9302325Y-9099174D02*
X9311848Y-9118222D01*
X9311848Y-9118222D02*
X9311848Y-9222984D01*
X9407086Y-9222984D02*
X9407086Y-9089650D01*
X9407086Y-9108698D02*
X9416610Y-9099174D01*
X9416610Y-9099174D02*
X9435658Y-9089650D01*
X9435658Y-9089650D02*
X9464229Y-9089650D01*
X9464229Y-9089650D02*
X9483277Y-9099174D01*
X9483277Y-9099174D02*
X9492801Y-9118222D01*
X9492801Y-9118222D02*
X9492801Y-9222984D01*
X9492801Y-9118222D02*
X9502325Y-9099174D01*
X9502325Y-9099174D02*
X9521372Y-9089650D01*
X9521372Y-9089650D02*
X9549944Y-9089650D01*
X9549944Y-9089650D02*
X9568991Y-9099174D01*
X9568991Y-9099174D02*
X9578515Y-9118222D01*
X9578515Y-9118222D02*
X9578515Y-9222984D01*
X9968991Y-9013460D02*
X9797563Y-9270603D01*
X10226134Y-9022984D02*
X10245182Y-9022984D01*
X10245182Y-9022984D02*
X10264229Y-9032508D01*
X10264229Y-9032508D02*
X10273753Y-9042031D01*
X10273753Y-9042031D02*
X10283277Y-9061079D01*
X10283277Y-9061079D02*
X10292801Y-9099174D01*
X10292801Y-9099174D02*
X10292801Y-9146793D01*
X10292801Y-9146793D02*
X10283277Y-9184889D01*
X10283277Y-9184889D02*
X10273753Y-9203936D01*
X10273753Y-9203936D02*
X10264229Y-9213460D01*
X10264229Y-9213460D02*
X10245182Y-9222984D01*
X10245182Y-9222984D02*
X10226134Y-9222984D01*
X10226134Y-9222984D02*
X10207087Y-9213460D01*
X10207087Y-9213460D02*
X10197563Y-9203936D01*
X10197563Y-9203936D02*
X10188039Y-9184889D01*
X10188039Y-9184889D02*
X10178515Y-9146793D01*
X10178515Y-9146793D02*
X10178515Y-9099174D01*
X10178515Y-9099174D02*
X10188039Y-9061079D01*
X10188039Y-9061079D02*
X10197563Y-9042031D01*
X10197563Y-9042031D02*
X10207087Y-9032508D01*
X10207087Y-9032508D02*
X10226134Y-9022984D01*
X10378515Y-9203936D02*
X10388039Y-9213460D01*
X10388039Y-9213460D02*
X10378515Y-9222984D01*
X10378515Y-9222984D02*
X10368991Y-9213460D01*
X10368991Y-9213460D02*
X10378515Y-9203936D01*
X10378515Y-9203936D02*
X10378515Y-9222984D01*
X10511848Y-9022984D02*
X10530896Y-9022984D01*
X10530896Y-9022984D02*
X10549944Y-9032508D01*
X10549944Y-9032508D02*
X10559468Y-9042031D01*
X10559468Y-9042031D02*
X10568991Y-9061079D01*
X10568991Y-9061079D02*
X10578515Y-9099174D01*
X10578515Y-9099174D02*
X10578515Y-9146793D01*
X10578515Y-9146793D02*
X10568991Y-9184889D01*
X10568991Y-9184889D02*
X10559468Y-9203936D01*
X10559468Y-9203936D02*
X10549944Y-9213460D01*
X10549944Y-9213460D02*
X10530896Y-9222984D01*
X10530896Y-9222984D02*
X10511848Y-9222984D01*
X10511848Y-9222984D02*
X10492801Y-9213460D01*
X10492801Y-9213460D02*
X10483277Y-9203936D01*
X10483277Y-9203936D02*
X10473753Y-9184889D01*
X10473753Y-9184889D02*
X10464229Y-9146793D01*
X10464229Y-9146793D02*
X10464229Y-9099174D01*
X10464229Y-9099174D02*
X10473753Y-9061079D01*
X10473753Y-9061079D02*
X10483277Y-9042031D01*
X10483277Y-9042031D02*
X10492801Y-9032508D01*
X10492801Y-9032508D02*
X10511848Y-9022984D01*
X10645182Y-9022984D02*
X10768991Y-9022984D01*
X10768991Y-9022984D02*
X10702325Y-9099174D01*
X10702325Y-9099174D02*
X10730896Y-9099174D01*
X10730896Y-9099174D02*
X10749944Y-9108698D01*
X10749944Y-9108698D02*
X10759468Y-9118222D01*
X10759468Y-9118222D02*
X10768991Y-9137270D01*
X10768991Y-9137270D02*
X10768991Y-9184889D01*
X10768991Y-9184889D02*
X10759468Y-9203936D01*
X10759468Y-9203936D02*
X10749944Y-9213460D01*
X10749944Y-9213460D02*
X10730896Y-9222984D01*
X10730896Y-9222984D02*
X10673753Y-9222984D01*
X10673753Y-9222984D02*
X10654706Y-9213460D01*
X10654706Y-9213460D02*
X10645182Y-9203936D01*
X10959468Y-9222984D02*
X10845182Y-9222984D01*
X10902325Y-9222984D02*
X10902325Y-9022984D01*
X10902325Y-9022984D02*
X10883277Y-9051555D01*
X10883277Y-9051555D02*
X10864229Y-9070603D01*
X10864229Y-9070603D02*
X10845182Y-9080127D01*
X11140420Y-9022984D02*
X11045182Y-9022984D01*
X11045182Y-9022984D02*
X11035658Y-9118222D01*
X11035658Y-9118222D02*
X11045182Y-9108698D01*
X11045182Y-9108698D02*
X11064229Y-9099174D01*
X11064229Y-9099174D02*
X11111849Y-9099174D01*
X11111849Y-9099174D02*
X11130896Y-9108698D01*
X11130896Y-9108698D02*
X11140420Y-9118222D01*
X11140420Y-9118222D02*
X11149944Y-9137270D01*
X11149944Y-9137270D02*
X11149944Y-9184889D01*
X11149944Y-9184889D02*
X11140420Y-9203936D01*
X11140420Y-9203936D02*
X11130896Y-9213460D01*
X11130896Y-9213460D02*
X11111849Y-9222984D01*
X11111849Y-9222984D02*
X11064229Y-9222984D01*
X11064229Y-9222984D02*
X11045182Y-9213460D01*
X11045182Y-9213460D02*
X11035658Y-9203936D01*
X11226134Y-9022984D02*
X11226134Y-9061079D01*
X11302325Y-9022984D02*
X11302325Y-9061079D01*
X11597563Y-9299174D02*
X11588039Y-9289650D01*
X11588039Y-9289650D02*
X11568991Y-9261079D01*
X11568991Y-9261079D02*
X11559468Y-9242031D01*
X11559468Y-9242031D02*
X11549944Y-9213460D01*
X11549944Y-9213460D02*
X11540420Y-9165841D01*
X11540420Y-9165841D02*
X11540420Y-9127746D01*
X11540420Y-9127746D02*
X11549944Y-9080127D01*
X11549944Y-9080127D02*
X11559468Y-9051555D01*
X11559468Y-9051555D02*
X11568991Y-9032508D01*
X11568991Y-9032508D02*
X11588039Y-9003936D01*
X11588039Y-9003936D02*
X11597563Y-8994412D01*
X11664229Y-9042031D02*
X11673753Y-9032508D01*
X11673753Y-9032508D02*
X11692801Y-9022984D01*
X11692801Y-9022984D02*
X11740420Y-9022984D01*
X11740420Y-9022984D02*
X11759468Y-9032508D01*
X11759468Y-9032508D02*
X11768991Y-9042031D01*
X11768991Y-9042031D02*
X11778515Y-9061079D01*
X11778515Y-9061079D02*
X11778515Y-9080127D01*
X11778515Y-9080127D02*
X11768991Y-9108698D01*
X11768991Y-9108698D02*
X11654706Y-9222984D01*
X11654706Y-9222984D02*
X11778515Y-9222984D01*
X12016610Y-9222984D02*
X12016610Y-9022984D01*
X12102325Y-9222984D02*
X12102325Y-9118222D01*
X12102325Y-9118222D02*
X12092801Y-9099174D01*
X12092801Y-9099174D02*
X12073753Y-9089650D01*
X12073753Y-9089650D02*
X12045182Y-9089650D01*
X12045182Y-9089650D02*
X12026134Y-9099174D01*
X12026134Y-9099174D02*
X12016610Y-9108698D01*
X12226134Y-9222984D02*
X12207087Y-9213460D01*
X12207087Y-9213460D02*
X12197563Y-9203936D01*
X12197563Y-9203936D02*
X12188039Y-9184889D01*
X12188039Y-9184889D02*
X12188039Y-9127746D01*
X12188039Y-9127746D02*
X12197563Y-9108698D01*
X12197563Y-9108698D02*
X12207087Y-9099174D01*
X12207087Y-9099174D02*
X12226134Y-9089650D01*
X12226134Y-9089650D02*
X12254706Y-9089650D01*
X12254706Y-9089650D02*
X12273753Y-9099174D01*
X12273753Y-9099174D02*
X12283277Y-9108698D01*
X12283277Y-9108698D02*
X12292801Y-9127746D01*
X12292801Y-9127746D02*
X12292801Y-9184889D01*
X12292801Y-9184889D02*
X12283277Y-9203936D01*
X12283277Y-9203936D02*
X12273753Y-9213460D01*
X12273753Y-9213460D02*
X12254706Y-9222984D01*
X12254706Y-9222984D02*
X12226134Y-9222984D01*
X12407087Y-9222984D02*
X12388039Y-9213460D01*
X12388039Y-9213460D02*
X12378515Y-9194412D01*
X12378515Y-9194412D02*
X12378515Y-9022984D01*
X12559468Y-9213460D02*
X12540420Y-9222984D01*
X12540420Y-9222984D02*
X12502325Y-9222984D01*
X12502325Y-9222984D02*
X12483277Y-9213460D01*
X12483277Y-9213460D02*
X12473753Y-9194412D01*
X12473753Y-9194412D02*
X12473753Y-9118222D01*
X12473753Y-9118222D02*
X12483277Y-9099174D01*
X12483277Y-9099174D02*
X12502325Y-9089650D01*
X12502325Y-9089650D02*
X12540420Y-9089650D01*
X12540420Y-9089650D02*
X12559468Y-9099174D01*
X12559468Y-9099174D02*
X12568991Y-9118222D01*
X12568991Y-9118222D02*
X12568991Y-9137270D01*
X12568991Y-9137270D02*
X12473753Y-9156317D01*
X12645182Y-9213460D02*
X12664230Y-9222984D01*
X12664230Y-9222984D02*
X12702325Y-9222984D01*
X12702325Y-9222984D02*
X12721372Y-9213460D01*
X12721372Y-9213460D02*
X12730896Y-9194412D01*
X12730896Y-9194412D02*
X12730896Y-9184889D01*
X12730896Y-9184889D02*
X12721372Y-9165841D01*
X12721372Y-9165841D02*
X12702325Y-9156317D01*
X12702325Y-9156317D02*
X12673753Y-9156317D01*
X12673753Y-9156317D02*
X12654706Y-9146793D01*
X12654706Y-9146793D02*
X12645182Y-9127746D01*
X12645182Y-9127746D02*
X12645182Y-9118222D01*
X12645182Y-9118222D02*
X12654706Y-9099174D01*
X12654706Y-9099174D02*
X12673753Y-9089650D01*
X12673753Y-9089650D02*
X12702325Y-9089650D01*
X12702325Y-9089650D02*
X12721372Y-9099174D01*
X12797563Y-9299174D02*
X12807087Y-9289650D01*
X12807087Y-9289650D02*
X12826134Y-9261079D01*
X12826134Y-9261079D02*
X12835658Y-9242031D01*
X12835658Y-9242031D02*
X12845182Y-9213460D01*
X12845182Y-9213460D02*
X12854706Y-9165841D01*
X12854706Y-9165841D02*
X12854706Y-9127746D01*
X12854706Y-9127746D02*
X12845182Y-9080127D01*
X12845182Y-9080127D02*
X12835658Y-9051555D01*
X12835658Y-9051555D02*
X12826134Y-9032508D01*
X12826134Y-9032508D02*
X12807087Y-9003936D01*
X12807087Y-9003936D02*
X12797563Y-8994412D01*
D12*
X7972500Y-9345500D02*
X7972500Y-9445500D01*
X7922500Y-9395500D02*
X8022500Y-9395500D01*
D11*
X8388039Y-9486984D02*
X8273753Y-9486984D01*
X8330896Y-9486984D02*
X8330896Y-9286984D01*
X8330896Y-9286984D02*
X8311848Y-9315555D01*
X8311848Y-9315555D02*
X8292801Y-9334603D01*
X8292801Y-9334603D02*
X8273753Y-9344127D01*
X8473753Y-9467936D02*
X8483277Y-9477460D01*
X8483277Y-9477460D02*
X8473753Y-9486984D01*
X8473753Y-9486984D02*
X8464229Y-9477460D01*
X8464229Y-9477460D02*
X8473753Y-9467936D01*
X8473753Y-9467936D02*
X8473753Y-9486984D01*
X8607086Y-9286984D02*
X8626134Y-9286984D01*
X8626134Y-9286984D02*
X8645182Y-9296508D01*
X8645182Y-9296508D02*
X8654705Y-9306031D01*
X8654705Y-9306031D02*
X8664229Y-9325079D01*
X8664229Y-9325079D02*
X8673753Y-9363174D01*
X8673753Y-9363174D02*
X8673753Y-9410793D01*
X8673753Y-9410793D02*
X8664229Y-9448889D01*
X8664229Y-9448889D02*
X8654705Y-9467936D01*
X8654705Y-9467936D02*
X8645182Y-9477460D01*
X8645182Y-9477460D02*
X8626134Y-9486984D01*
X8626134Y-9486984D02*
X8607086Y-9486984D01*
X8607086Y-9486984D02*
X8588039Y-9477460D01*
X8588039Y-9477460D02*
X8578515Y-9467936D01*
X8578515Y-9467936D02*
X8568991Y-9448889D01*
X8568991Y-9448889D02*
X8559467Y-9410793D01*
X8559467Y-9410793D02*
X8559467Y-9363174D01*
X8559467Y-9363174D02*
X8568991Y-9325079D01*
X8568991Y-9325079D02*
X8578515Y-9306031D01*
X8578515Y-9306031D02*
X8588039Y-9296508D01*
X8588039Y-9296508D02*
X8607086Y-9286984D01*
X8797563Y-9286984D02*
X8816610Y-9286984D01*
X8816610Y-9286984D02*
X8835658Y-9296508D01*
X8835658Y-9296508D02*
X8845182Y-9306031D01*
X8845182Y-9306031D02*
X8854705Y-9325079D01*
X8854705Y-9325079D02*
X8864229Y-9363174D01*
X8864229Y-9363174D02*
X8864229Y-9410793D01*
X8864229Y-9410793D02*
X8854705Y-9448889D01*
X8854705Y-9448889D02*
X8845182Y-9467936D01*
X8845182Y-9467936D02*
X8835658Y-9477460D01*
X8835658Y-9477460D02*
X8816610Y-9486984D01*
X8816610Y-9486984D02*
X8797563Y-9486984D01*
X8797563Y-9486984D02*
X8778515Y-9477460D01*
X8778515Y-9477460D02*
X8768991Y-9467936D01*
X8768991Y-9467936D02*
X8759467Y-9448889D01*
X8759467Y-9448889D02*
X8749944Y-9410793D01*
X8749944Y-9410793D02*
X8749944Y-9363174D01*
X8749944Y-9363174D02*
X8759467Y-9325079D01*
X8759467Y-9325079D02*
X8768991Y-9306031D01*
X8768991Y-9306031D02*
X8778515Y-9296508D01*
X8778515Y-9296508D02*
X8797563Y-9286984D01*
X8988039Y-9286984D02*
X9007086Y-9286984D01*
X9007086Y-9286984D02*
X9026134Y-9296508D01*
X9026134Y-9296508D02*
X9035658Y-9306031D01*
X9035658Y-9306031D02*
X9045182Y-9325079D01*
X9045182Y-9325079D02*
X9054705Y-9363174D01*
X9054705Y-9363174D02*
X9054705Y-9410793D01*
X9054705Y-9410793D02*
X9045182Y-9448889D01*
X9045182Y-9448889D02*
X9035658Y-9467936D01*
X9035658Y-9467936D02*
X9026134Y-9477460D01*
X9026134Y-9477460D02*
X9007086Y-9486984D01*
X9007086Y-9486984D02*
X8988039Y-9486984D01*
X8988039Y-9486984D02*
X8968991Y-9477460D01*
X8968991Y-9477460D02*
X8959467Y-9467936D01*
X8959467Y-9467936D02*
X8949944Y-9448889D01*
X8949944Y-9448889D02*
X8940420Y-9410793D01*
X8940420Y-9410793D02*
X8940420Y-9363174D01*
X8940420Y-9363174D02*
X8949944Y-9325079D01*
X8949944Y-9325079D02*
X8959467Y-9306031D01*
X8959467Y-9306031D02*
X8968991Y-9296508D01*
X8968991Y-9296508D02*
X8988039Y-9286984D01*
X9140420Y-9486984D02*
X9140420Y-9353650D01*
X9140420Y-9372698D02*
X9149944Y-9363174D01*
X9149944Y-9363174D02*
X9168991Y-9353650D01*
X9168991Y-9353650D02*
X9197563Y-9353650D01*
X9197563Y-9353650D02*
X9216610Y-9363174D01*
X9216610Y-9363174D02*
X9226134Y-9382222D01*
X9226134Y-9382222D02*
X9226134Y-9486984D01*
X9226134Y-9382222D02*
X9235658Y-9363174D01*
X9235658Y-9363174D02*
X9254705Y-9353650D01*
X9254705Y-9353650D02*
X9283277Y-9353650D01*
X9283277Y-9353650D02*
X9302325Y-9363174D01*
X9302325Y-9363174D02*
X9311848Y-9382222D01*
X9311848Y-9382222D02*
X9311848Y-9486984D01*
X9407086Y-9486984D02*
X9407086Y-9353650D01*
X9407086Y-9372698D02*
X9416610Y-9363174D01*
X9416610Y-9363174D02*
X9435658Y-9353650D01*
X9435658Y-9353650D02*
X9464229Y-9353650D01*
X9464229Y-9353650D02*
X9483277Y-9363174D01*
X9483277Y-9363174D02*
X9492801Y-9382222D01*
X9492801Y-9382222D02*
X9492801Y-9486984D01*
X9492801Y-9382222D02*
X9502325Y-9363174D01*
X9502325Y-9363174D02*
X9521372Y-9353650D01*
X9521372Y-9353650D02*
X9549944Y-9353650D01*
X9549944Y-9353650D02*
X9568991Y-9363174D01*
X9568991Y-9363174D02*
X9578515Y-9382222D01*
X9578515Y-9382222D02*
X9578515Y-9486984D01*
X9968991Y-9277460D02*
X9797563Y-9534603D01*
X10226134Y-9286984D02*
X10245182Y-9286984D01*
X10245182Y-9286984D02*
X10264229Y-9296508D01*
X10264229Y-9296508D02*
X10273753Y-9306031D01*
X10273753Y-9306031D02*
X10283277Y-9325079D01*
X10283277Y-9325079D02*
X10292801Y-9363174D01*
X10292801Y-9363174D02*
X10292801Y-9410793D01*
X10292801Y-9410793D02*
X10283277Y-9448889D01*
X10283277Y-9448889D02*
X10273753Y-9467936D01*
X10273753Y-9467936D02*
X10264229Y-9477460D01*
X10264229Y-9477460D02*
X10245182Y-9486984D01*
X10245182Y-9486984D02*
X10226134Y-9486984D01*
X10226134Y-9486984D02*
X10207087Y-9477460D01*
X10207087Y-9477460D02*
X10197563Y-9467936D01*
X10197563Y-9467936D02*
X10188039Y-9448889D01*
X10188039Y-9448889D02*
X10178515Y-9410793D01*
X10178515Y-9410793D02*
X10178515Y-9363174D01*
X10178515Y-9363174D02*
X10188039Y-9325079D01*
X10188039Y-9325079D02*
X10197563Y-9306031D01*
X10197563Y-9306031D02*
X10207087Y-9296508D01*
X10207087Y-9296508D02*
X10226134Y-9286984D01*
X10378515Y-9467936D02*
X10388039Y-9477460D01*
X10388039Y-9477460D02*
X10378515Y-9486984D01*
X10378515Y-9486984D02*
X10368991Y-9477460D01*
X10368991Y-9477460D02*
X10378515Y-9467936D01*
X10378515Y-9467936D02*
X10378515Y-9486984D01*
X10511848Y-9286984D02*
X10530896Y-9286984D01*
X10530896Y-9286984D02*
X10549944Y-9296508D01*
X10549944Y-9296508D02*
X10559468Y-9306031D01*
X10559468Y-9306031D02*
X10568991Y-9325079D01*
X10568991Y-9325079D02*
X10578515Y-9363174D01*
X10578515Y-9363174D02*
X10578515Y-9410793D01*
X10578515Y-9410793D02*
X10568991Y-9448889D01*
X10568991Y-9448889D02*
X10559468Y-9467936D01*
X10559468Y-9467936D02*
X10549944Y-9477460D01*
X10549944Y-9477460D02*
X10530896Y-9486984D01*
X10530896Y-9486984D02*
X10511848Y-9486984D01*
X10511848Y-9486984D02*
X10492801Y-9477460D01*
X10492801Y-9477460D02*
X10483277Y-9467936D01*
X10483277Y-9467936D02*
X10473753Y-9448889D01*
X10473753Y-9448889D02*
X10464229Y-9410793D01*
X10464229Y-9410793D02*
X10464229Y-9363174D01*
X10464229Y-9363174D02*
X10473753Y-9325079D01*
X10473753Y-9325079D02*
X10483277Y-9306031D01*
X10483277Y-9306031D02*
X10492801Y-9296508D01*
X10492801Y-9296508D02*
X10511848Y-9286984D01*
X10645182Y-9286984D02*
X10768991Y-9286984D01*
X10768991Y-9286984D02*
X10702325Y-9363174D01*
X10702325Y-9363174D02*
X10730896Y-9363174D01*
X10730896Y-9363174D02*
X10749944Y-9372698D01*
X10749944Y-9372698D02*
X10759468Y-9382222D01*
X10759468Y-9382222D02*
X10768991Y-9401270D01*
X10768991Y-9401270D02*
X10768991Y-9448889D01*
X10768991Y-9448889D02*
X10759468Y-9467936D01*
X10759468Y-9467936D02*
X10749944Y-9477460D01*
X10749944Y-9477460D02*
X10730896Y-9486984D01*
X10730896Y-9486984D02*
X10673753Y-9486984D01*
X10673753Y-9486984D02*
X10654706Y-9477460D01*
X10654706Y-9477460D02*
X10645182Y-9467936D01*
X10864229Y-9486984D02*
X10902325Y-9486984D01*
X10902325Y-9486984D02*
X10921372Y-9477460D01*
X10921372Y-9477460D02*
X10930896Y-9467936D01*
X10930896Y-9467936D02*
X10949944Y-9439365D01*
X10949944Y-9439365D02*
X10959468Y-9401270D01*
X10959468Y-9401270D02*
X10959468Y-9325079D01*
X10959468Y-9325079D02*
X10949944Y-9306031D01*
X10949944Y-9306031D02*
X10940420Y-9296508D01*
X10940420Y-9296508D02*
X10921372Y-9286984D01*
X10921372Y-9286984D02*
X10883277Y-9286984D01*
X10883277Y-9286984D02*
X10864229Y-9296508D01*
X10864229Y-9296508D02*
X10854706Y-9306031D01*
X10854706Y-9306031D02*
X10845182Y-9325079D01*
X10845182Y-9325079D02*
X10845182Y-9372698D01*
X10845182Y-9372698D02*
X10854706Y-9391746D01*
X10854706Y-9391746D02*
X10864229Y-9401270D01*
X10864229Y-9401270D02*
X10883277Y-9410793D01*
X10883277Y-9410793D02*
X10921372Y-9410793D01*
X10921372Y-9410793D02*
X10940420Y-9401270D01*
X10940420Y-9401270D02*
X10949944Y-9391746D01*
X10949944Y-9391746D02*
X10959468Y-9372698D01*
X11130896Y-9353650D02*
X11130896Y-9486984D01*
X11083277Y-9277460D02*
X11035658Y-9420317D01*
X11035658Y-9420317D02*
X11159468Y-9420317D01*
X11226134Y-9286984D02*
X11226134Y-9325079D01*
X11302325Y-9286984D02*
X11302325Y-9325079D01*
X11597563Y-9563174D02*
X11588039Y-9553650D01*
X11588039Y-9553650D02*
X11568991Y-9525079D01*
X11568991Y-9525079D02*
X11559468Y-9506031D01*
X11559468Y-9506031D02*
X11549944Y-9477460D01*
X11549944Y-9477460D02*
X11540420Y-9429841D01*
X11540420Y-9429841D02*
X11540420Y-9391746D01*
X11540420Y-9391746D02*
X11549944Y-9344127D01*
X11549944Y-9344127D02*
X11559468Y-9315555D01*
X11559468Y-9315555D02*
X11568991Y-9296508D01*
X11568991Y-9296508D02*
X11588039Y-9267936D01*
X11588039Y-9267936D02*
X11597563Y-9258412D01*
X11664229Y-9306031D02*
X11673753Y-9296508D01*
X11673753Y-9296508D02*
X11692801Y-9286984D01*
X11692801Y-9286984D02*
X11740420Y-9286984D01*
X11740420Y-9286984D02*
X11759468Y-9296508D01*
X11759468Y-9296508D02*
X11768991Y-9306031D01*
X11768991Y-9306031D02*
X11778515Y-9325079D01*
X11778515Y-9325079D02*
X11778515Y-9344127D01*
X11778515Y-9344127D02*
X11768991Y-9372698D01*
X11768991Y-9372698D02*
X11654706Y-9486984D01*
X11654706Y-9486984D02*
X11778515Y-9486984D01*
X12016610Y-9486984D02*
X12016610Y-9286984D01*
X12102325Y-9486984D02*
X12102325Y-9382222D01*
X12102325Y-9382222D02*
X12092801Y-9363174D01*
X12092801Y-9363174D02*
X12073753Y-9353650D01*
X12073753Y-9353650D02*
X12045182Y-9353650D01*
X12045182Y-9353650D02*
X12026134Y-9363174D01*
X12026134Y-9363174D02*
X12016610Y-9372698D01*
X12226134Y-9486984D02*
X12207087Y-9477460D01*
X12207087Y-9477460D02*
X12197563Y-9467936D01*
X12197563Y-9467936D02*
X12188039Y-9448889D01*
X12188039Y-9448889D02*
X12188039Y-9391746D01*
X12188039Y-9391746D02*
X12197563Y-9372698D01*
X12197563Y-9372698D02*
X12207087Y-9363174D01*
X12207087Y-9363174D02*
X12226134Y-9353650D01*
X12226134Y-9353650D02*
X12254706Y-9353650D01*
X12254706Y-9353650D02*
X12273753Y-9363174D01*
X12273753Y-9363174D02*
X12283277Y-9372698D01*
X12283277Y-9372698D02*
X12292801Y-9391746D01*
X12292801Y-9391746D02*
X12292801Y-9448889D01*
X12292801Y-9448889D02*
X12283277Y-9467936D01*
X12283277Y-9467936D02*
X12273753Y-9477460D01*
X12273753Y-9477460D02*
X12254706Y-9486984D01*
X12254706Y-9486984D02*
X12226134Y-9486984D01*
X12407087Y-9486984D02*
X12388039Y-9477460D01*
X12388039Y-9477460D02*
X12378515Y-9458412D01*
X12378515Y-9458412D02*
X12378515Y-9286984D01*
X12559468Y-9477460D02*
X12540420Y-9486984D01*
X12540420Y-9486984D02*
X12502325Y-9486984D01*
X12502325Y-9486984D02*
X12483277Y-9477460D01*
X12483277Y-9477460D02*
X12473753Y-9458412D01*
X12473753Y-9458412D02*
X12473753Y-9382222D01*
X12473753Y-9382222D02*
X12483277Y-9363174D01*
X12483277Y-9363174D02*
X12502325Y-9353650D01*
X12502325Y-9353650D02*
X12540420Y-9353650D01*
X12540420Y-9353650D02*
X12559468Y-9363174D01*
X12559468Y-9363174D02*
X12568991Y-9382222D01*
X12568991Y-9382222D02*
X12568991Y-9401270D01*
X12568991Y-9401270D02*
X12473753Y-9420317D01*
X12645182Y-9477460D02*
X12664230Y-9486984D01*
X12664230Y-9486984D02*
X12702325Y-9486984D01*
X12702325Y-9486984D02*
X12721372Y-9477460D01*
X12721372Y-9477460D02*
X12730896Y-9458412D01*
X12730896Y-9458412D02*
X12730896Y-9448889D01*
X12730896Y-9448889D02*
X12721372Y-9429841D01*
X12721372Y-9429841D02*
X12702325Y-9420317D01*
X12702325Y-9420317D02*
X12673753Y-9420317D01*
X12673753Y-9420317D02*
X12654706Y-9410793D01*
X12654706Y-9410793D02*
X12645182Y-9391746D01*
X12645182Y-9391746D02*
X12645182Y-9382222D01*
X12645182Y-9382222D02*
X12654706Y-9363174D01*
X12654706Y-9363174D02*
X12673753Y-9353650D01*
X12673753Y-9353650D02*
X12702325Y-9353650D01*
X12702325Y-9353650D02*
X12721372Y-9363174D01*
X12797563Y-9563174D02*
X12807087Y-9553650D01*
X12807087Y-9553650D02*
X12826134Y-9525079D01*
X12826134Y-9525079D02*
X12835658Y-9506031D01*
X12835658Y-9506031D02*
X12845182Y-9477460D01*
X12845182Y-9477460D02*
X12854706Y-9429841D01*
X12854706Y-9429841D02*
X12854706Y-9391746D01*
X12854706Y-9391746D02*
X12845182Y-9344127D01*
X12845182Y-9344127D02*
X12835658Y-9315555D01*
X12835658Y-9315555D02*
X12826134Y-9296508D01*
X12826134Y-9296508D02*
X12807087Y-9267936D01*
X12807087Y-9267936D02*
X12797563Y-9258412D01*
M02*
