G04 #@! TF.GenerationSoftware,KiCad,Pcbnew,8.0.2*
G04 #@! TF.CreationDate,2024-06-05T16:41:01+02:00*
G04 #@! TF.ProjectId,Local Oscillator 60 MHz,4c6f6361-6c20-44f7-9363-696c6c61746f,rev?*
G04 #@! TF.SameCoordinates,Original*
G04 #@! TF.FileFunction,Soldermask,Bot*
G04 #@! TF.FilePolarity,Negative*
%FSLAX46Y46*%
G04 Gerber Fmt 4.6, Leading zero omitted, Abs format (unit mm)*
G04 Created by KiCad (PCBNEW 8.0.2) date 2024-06-05 16:41:01*
%MOMM*%
%LPD*%
G01*
G04 APERTURE LIST*
%ADD10C,0.200000*%
%ADD11C,0.100000*%
%ADD12R,1.700000X1.700000*%
%ADD13O,1.700000X1.700000*%
%ADD14C,1.500000*%
%ADD15R,4.000000X6.000000*%
G04 APERTURE END LIST*
D10*
X116500000Y-82250000D02*
X114750000Y-82250000D01*
X114750000Y-58250000D01*
X116500000Y-58250000D01*
X116500000Y-82250000D01*
G36*
X116500000Y-82250000D02*
G01*
X114750000Y-82250000D01*
X114750000Y-58250000D01*
X116500000Y-58250000D01*
X116500000Y-82250000D01*
G37*
D11*
X116150000Y-59500000D02*
X116000000Y-59800000D01*
X115700000Y-60000000D01*
X82500000Y-60000000D01*
X82146447Y-60146447D01*
X82000000Y-60500000D01*
X82000000Y-80000000D01*
X82146447Y-80353553D01*
X82500000Y-80500000D01*
X115700000Y-80500000D01*
X116000000Y-80700000D01*
X116150000Y-81000000D01*
X116150000Y-82250000D01*
X80250000Y-82250000D01*
X80250000Y-58250000D01*
X116150000Y-58250000D01*
X116150000Y-59500000D01*
G36*
X116150000Y-59500000D02*
G01*
X116000000Y-59800000D01*
X115700000Y-60000000D01*
X82500000Y-60000000D01*
X82146447Y-60146447D01*
X82000000Y-60500000D01*
X82000000Y-80000000D01*
X82146447Y-80353553D01*
X82500000Y-80500000D01*
X115700000Y-80500000D01*
X116000000Y-80700000D01*
X116150000Y-81000000D01*
X116150000Y-82250000D01*
X80250000Y-82250000D01*
X80250000Y-58250000D01*
X116150000Y-58250000D01*
X116150000Y-59500000D01*
G37*
G36*
X112000000Y-60750000D02*
G01*
X116500000Y-60750000D01*
X116500000Y-79750000D01*
X112000000Y-79750000D01*
X112000000Y-60750000D01*
G37*
D12*
X83500000Y-75725000D03*
D13*
X83500000Y-78265000D03*
D14*
X88975000Y-64000000D03*
X93855000Y-64000000D03*
D15*
X114000000Y-63750000D03*
X114000000Y-76750000D03*
X114000000Y-70250000D03*
M02*
