G04 #@! TF.GenerationSoftware,KiCad,Pcbnew,8.0.2*
G04 #@! TF.CreationDate,2024-06-05T16:41:01+02:00*
G04 #@! TF.ProjectId,Local Oscillator 60 MHz,4c6f6361-6c20-44f7-9363-696c6c61746f,rev?*
G04 #@! TF.SameCoordinates,Original*
G04 #@! TF.FileFunction,Legend,Top*
G04 #@! TF.FilePolarity,Positive*
%FSLAX46Y46*%
G04 Gerber Fmt 4.6, Leading zero omitted, Abs format (unit mm)*
G04 Created by KiCad (PCBNEW 8.0.2) date 2024-06-05 16:41:01*
%MOMM*%
%LPD*%
G01*
G04 APERTURE LIST*
G04 Aperture macros list*
%AMRoundRect*
0 Rectangle with rounded corners*
0 $1 Rounding radius*
0 $2 $3 $4 $5 $6 $7 $8 $9 X,Y pos of 4 corners*
0 Add a 4 corners polygon primitive as box body*
4,1,4,$2,$3,$4,$5,$6,$7,$8,$9,$2,$3,0*
0 Add four circle primitives for the rounded corners*
1,1,$1+$1,$2,$3*
1,1,$1+$1,$4,$5*
1,1,$1+$1,$6,$7*
1,1,$1+$1,$8,$9*
0 Add four rect primitives between the rounded corners*
20,1,$1+$1,$2,$3,$4,$5,0*
20,1,$1+$1,$4,$5,$6,$7,0*
20,1,$1+$1,$6,$7,$8,$9,0*
20,1,$1+$1,$8,$9,$2,$3,0*%
%AMFreePoly0*
4,1,124,3.223017,6.045185,3.225213,6.044748,3.493463,6.030690,3.857889,5.972970,4.214285,5.877474,4.558747,5.745248,4.887500,5.577740,5.196943,5.376785,5.483685,5.144586,5.744586,4.883685,5.976785,4.596943,6.177740,4.287500,6.345248,3.958747,6.477474,3.614285,6.572970,3.257889,6.630690,2.893463,6.650000,2.525000,6.630690,2.156537,6.572970,1.792111,6.477474,1.435715,
6.345248,1.091253,6.177740,0.762500,5.976785,0.453057,5.744586,0.166315,5.483685,-0.094586,5.196943,-0.326785,4.887500,-0.527740,4.558747,-0.695248,4.214285,-0.827474,3.857889,-0.922970,3.493463,-0.980690,3.225213,-0.994748,3.223017,-0.995185,3.216787,-0.995189,3.125000,-1.000000,3.074255,-0.995297,-3.125000,-1.000000,-3.223017,-0.995185,-3.225213,-0.994748,-3.493463,-0.980690,
-3.857889,-0.922970,-4.214285,-0.827474,-4.558747,-0.695248,-4.887500,-0.527740,-5.196943,-0.326785,-5.483685,-0.094586,-5.744586,0.166315,-5.976785,0.453057,-6.177740,0.762500,-6.345248,1.091253,-6.477474,1.435715,-6.572970,1.792111,-6.630690,2.156537,-6.650000,2.525000,-6.643710,2.645020,-4.650000,2.645020,-4.650000,2.404980,-4.612450,2.167895,-4.538273,1.939603,-4.429297,1.725726,
-4.288205,1.531529,-4.118471,1.361795,-3.924274,1.220703,-3.710397,1.111727,-3.482105,1.037550,-3.245020,1.000000,-3.125000,1.000000,-3.074255,0.995297,3.125000,1.000000,3.245020,1.000000,3.482105,1.037550,3.710397,1.111727,3.924274,1.220703,4.118471,1.361795,4.288205,1.531529,4.429297,1.725726,4.538273,1.939603,4.612450,2.167895,4.650000,2.404980,4.650000,2.645020,
4.612450,2.882105,4.538273,3.110397,4.429297,3.324274,4.288205,3.518471,4.118471,3.688205,3.924274,3.829297,3.710397,3.938273,3.482105,4.012450,3.245020,4.050000,3.125000,4.050000,3.074255,4.054702,-3.125000,4.050000,-3.245020,4.050000,-3.482105,4.012450,-3.710397,3.938273,-3.924274,3.829297,-4.118471,3.688205,-4.288205,3.518471,-4.429297,3.324274,-4.538273,3.110397,
-4.612450,2.882105,-4.650000,2.645020,-6.643710,2.645020,-6.630690,2.893463,-6.572970,3.257889,-6.477474,3.614285,-6.345248,3.958747,-6.177740,4.287500,-5.976785,4.596943,-5.744586,4.883685,-5.483685,5.144586,-5.196943,5.376785,-4.887500,5.577740,-4.558747,5.745248,-4.214285,5.877474,-3.857889,5.972970,-3.493463,6.030690,-3.225213,6.044748,-3.223017,6.045185,-3.216787,6.045189,
-3.125000,6.050000,-3.074255,6.045297,3.125000,6.050000,3.223017,6.045185,3.223017,6.045185,$1*%
G04 Aperture macros list end*
%ADD10C,0.150000*%
%ADD11C,0.120000*%
%ADD12C,0.100000*%
%ADD13R,1.700000X1.700000*%
%ADD14O,1.700000X1.700000*%
%ADD15RoundRect,0.162500X0.162500X-0.837500X0.162500X0.837500X-0.162500X0.837500X-0.162500X-0.837500X0*%
%ADD16RoundRect,0.225000X0.225000X0.250000X-0.225000X0.250000X-0.225000X-0.250000X0.225000X-0.250000X0*%
%ADD17RoundRect,0.200000X0.275000X-0.200000X0.275000X0.200000X-0.275000X0.200000X-0.275000X-0.200000X0*%
%ADD18RoundRect,0.162500X-0.837500X-0.162500X0.837500X-0.162500X0.837500X0.162500X-0.837500X0.162500X0*%
%ADD19RoundRect,0.225000X-0.225000X-0.250000X0.225000X-0.250000X0.225000X0.250000X-0.225000X0.250000X0*%
%ADD20C,1.500000*%
%ADD21FreePoly0,0.000000*%
%ADD22RoundRect,0.250001X-0.499999X-0.924999X0.499999X-0.924999X0.499999X0.924999X-0.499999X0.924999X0*%
%ADD23RoundRect,0.225000X0.250000X-0.225000X0.250000X0.225000X-0.250000X0.225000X-0.250000X-0.225000X0*%
%ADD24RoundRect,0.200000X-0.200000X-0.275000X0.200000X-0.275000X0.200000X0.275000X-0.200000X0.275000X0*%
%ADD25RoundRect,0.250000X-1.450000X0.400000X-1.450000X-0.400000X1.450000X-0.400000X1.450000X0.400000X0*%
%ADD26R,3.000000X1.750000*%
%ADD27RoundRect,0.200000X0.200000X0.275000X-0.200000X0.275000X-0.200000X-0.275000X0.200000X-0.275000X0*%
%ADD28R,0.600000X0.800000*%
%ADD29R,0.600000X0.650000*%
%ADD30RoundRect,0.250001X-0.462499X-1.074999X0.462499X-1.074999X0.462499X1.074999X-0.462499X1.074999X0*%
%ADD31RoundRect,0.218750X-0.256250X0.218750X-0.256250X-0.218750X0.256250X-0.218750X0.256250X0.218750X0*%
G04 APERTURE END LIST*
D10*
X110465057Y-68943922D02*
X110417438Y-69039160D01*
X110417438Y-69039160D02*
X110322200Y-69134398D01*
X110322200Y-69134398D02*
X110179342Y-69277255D01*
X110179342Y-69277255D02*
X110131723Y-69372493D01*
X110131723Y-69372493D02*
X110131723Y-69467731D01*
X110369819Y-69420112D02*
X110322200Y-69515350D01*
X110322200Y-69515350D02*
X110226961Y-69610588D01*
X110226961Y-69610588D02*
X110036485Y-69658207D01*
X110036485Y-69658207D02*
X109703152Y-69658207D01*
X109703152Y-69658207D02*
X109512676Y-69610588D01*
X109512676Y-69610588D02*
X109417438Y-69515350D01*
X109417438Y-69515350D02*
X109369819Y-69420112D01*
X109369819Y-69420112D02*
X109369819Y-69229636D01*
X109369819Y-69229636D02*
X109417438Y-69134398D01*
X109417438Y-69134398D02*
X109512676Y-69039160D01*
X109512676Y-69039160D02*
X109703152Y-68991541D01*
X109703152Y-68991541D02*
X110036485Y-68991541D01*
X110036485Y-68991541D02*
X110226961Y-69039160D01*
X110226961Y-69039160D02*
X110322200Y-69134398D01*
X110322200Y-69134398D02*
X110369819Y-69229636D01*
X110369819Y-69229636D02*
X110369819Y-69420112D01*
X109465057Y-68610588D02*
X109417438Y-68562969D01*
X109417438Y-68562969D02*
X109369819Y-68467731D01*
X109369819Y-68467731D02*
X109369819Y-68229636D01*
X109369819Y-68229636D02*
X109417438Y-68134398D01*
X109417438Y-68134398D02*
X109465057Y-68086779D01*
X109465057Y-68086779D02*
X109560295Y-68039160D01*
X109560295Y-68039160D02*
X109655533Y-68039160D01*
X109655533Y-68039160D02*
X109798390Y-68086779D01*
X109798390Y-68086779D02*
X110369819Y-68658207D01*
X110369819Y-68658207D02*
X110369819Y-68039160D01*
X96357142Y-76609580D02*
X96309523Y-76657200D01*
X96309523Y-76657200D02*
X96166666Y-76704819D01*
X96166666Y-76704819D02*
X96071428Y-76704819D01*
X96071428Y-76704819D02*
X95928571Y-76657200D01*
X95928571Y-76657200D02*
X95833333Y-76561961D01*
X95833333Y-76561961D02*
X95785714Y-76466723D01*
X95785714Y-76466723D02*
X95738095Y-76276247D01*
X95738095Y-76276247D02*
X95738095Y-76133390D01*
X95738095Y-76133390D02*
X95785714Y-75942914D01*
X95785714Y-75942914D02*
X95833333Y-75847676D01*
X95833333Y-75847676D02*
X95928571Y-75752438D01*
X95928571Y-75752438D02*
X96071428Y-75704819D01*
X96071428Y-75704819D02*
X96166666Y-75704819D01*
X96166666Y-75704819D02*
X96309523Y-75752438D01*
X96309523Y-75752438D02*
X96357142Y-75800057D01*
X97309523Y-76704819D02*
X96738095Y-76704819D01*
X97023809Y-76704819D02*
X97023809Y-75704819D01*
X97023809Y-75704819D02*
X96928571Y-75847676D01*
X96928571Y-75847676D02*
X96833333Y-75942914D01*
X96833333Y-75942914D02*
X96738095Y-75990533D01*
X98166666Y-76038152D02*
X98166666Y-76704819D01*
X97928571Y-75657200D02*
X97690476Y-76371485D01*
X97690476Y-76371485D02*
X98309523Y-76371485D01*
X112914819Y-72892857D02*
X112438628Y-73226190D01*
X112914819Y-73464285D02*
X111914819Y-73464285D01*
X111914819Y-73464285D02*
X111914819Y-73083333D01*
X111914819Y-73083333D02*
X111962438Y-72988095D01*
X111962438Y-72988095D02*
X112010057Y-72940476D01*
X112010057Y-72940476D02*
X112105295Y-72892857D01*
X112105295Y-72892857D02*
X112248152Y-72892857D01*
X112248152Y-72892857D02*
X112343390Y-72940476D01*
X112343390Y-72940476D02*
X112391009Y-72988095D01*
X112391009Y-72988095D02*
X112438628Y-73083333D01*
X112438628Y-73083333D02*
X112438628Y-73464285D01*
X112914819Y-71940476D02*
X112914819Y-72511904D01*
X112914819Y-72226190D02*
X111914819Y-72226190D01*
X111914819Y-72226190D02*
X112057676Y-72321428D01*
X112057676Y-72321428D02*
X112152914Y-72416666D01*
X112152914Y-72416666D02*
X112200533Y-72511904D01*
X111914819Y-71321428D02*
X111914819Y-71226190D01*
X111914819Y-71226190D02*
X111962438Y-71130952D01*
X111962438Y-71130952D02*
X112010057Y-71083333D01*
X112010057Y-71083333D02*
X112105295Y-71035714D01*
X112105295Y-71035714D02*
X112295771Y-70988095D01*
X112295771Y-70988095D02*
X112533866Y-70988095D01*
X112533866Y-70988095D02*
X112724342Y-71035714D01*
X112724342Y-71035714D02*
X112819580Y-71083333D01*
X112819580Y-71083333D02*
X112867200Y-71130952D01*
X112867200Y-71130952D02*
X112914819Y-71226190D01*
X112914819Y-71226190D02*
X112914819Y-71321428D01*
X112914819Y-71321428D02*
X112867200Y-71416666D01*
X112867200Y-71416666D02*
X112819580Y-71464285D01*
X112819580Y-71464285D02*
X112724342Y-71511904D01*
X112724342Y-71511904D02*
X112533866Y-71559523D01*
X112533866Y-71559523D02*
X112295771Y-71559523D01*
X112295771Y-71559523D02*
X112105295Y-71511904D01*
X112105295Y-71511904D02*
X112010057Y-71464285D01*
X112010057Y-71464285D02*
X111962438Y-71416666D01*
X111962438Y-71416666D02*
X111914819Y-71321428D01*
X96357142Y-75109580D02*
X96309523Y-75157200D01*
X96309523Y-75157200D02*
X96166666Y-75204819D01*
X96166666Y-75204819D02*
X96071428Y-75204819D01*
X96071428Y-75204819D02*
X95928571Y-75157200D01*
X95928571Y-75157200D02*
X95833333Y-75061961D01*
X95833333Y-75061961D02*
X95785714Y-74966723D01*
X95785714Y-74966723D02*
X95738095Y-74776247D01*
X95738095Y-74776247D02*
X95738095Y-74633390D01*
X95738095Y-74633390D02*
X95785714Y-74442914D01*
X95785714Y-74442914D02*
X95833333Y-74347676D01*
X95833333Y-74347676D02*
X95928571Y-74252438D01*
X95928571Y-74252438D02*
X96071428Y-74204819D01*
X96071428Y-74204819D02*
X96166666Y-74204819D01*
X96166666Y-74204819D02*
X96309523Y-74252438D01*
X96309523Y-74252438D02*
X96357142Y-74300057D01*
X97309523Y-75204819D02*
X96738095Y-75204819D01*
X97023809Y-75204819D02*
X97023809Y-74204819D01*
X97023809Y-74204819D02*
X96928571Y-74347676D01*
X96928571Y-74347676D02*
X96833333Y-74442914D01*
X96833333Y-74442914D02*
X96738095Y-74490533D01*
X97642857Y-74204819D02*
X98261904Y-74204819D01*
X98261904Y-74204819D02*
X97928571Y-74585771D01*
X97928571Y-74585771D02*
X98071428Y-74585771D01*
X98071428Y-74585771D02*
X98166666Y-74633390D01*
X98166666Y-74633390D02*
X98214285Y-74681009D01*
X98214285Y-74681009D02*
X98261904Y-74776247D01*
X98261904Y-74776247D02*
X98261904Y-75014342D01*
X98261904Y-75014342D02*
X98214285Y-75109580D01*
X98214285Y-75109580D02*
X98166666Y-75157200D01*
X98166666Y-75157200D02*
X98071428Y-75204819D01*
X98071428Y-75204819D02*
X97785714Y-75204819D01*
X97785714Y-75204819D02*
X97690476Y-75157200D01*
X97690476Y-75157200D02*
X97642857Y-75109580D01*
X87300057Y-71845238D02*
X87252438Y-71940476D01*
X87252438Y-71940476D02*
X87157200Y-72035714D01*
X87157200Y-72035714D02*
X87014342Y-72178571D01*
X87014342Y-72178571D02*
X86966723Y-72273809D01*
X86966723Y-72273809D02*
X86966723Y-72369047D01*
X87204819Y-72321428D02*
X87157200Y-72416666D01*
X87157200Y-72416666D02*
X87061961Y-72511904D01*
X87061961Y-72511904D02*
X86871485Y-72559523D01*
X86871485Y-72559523D02*
X86538152Y-72559523D01*
X86538152Y-72559523D02*
X86347676Y-72511904D01*
X86347676Y-72511904D02*
X86252438Y-72416666D01*
X86252438Y-72416666D02*
X86204819Y-72321428D01*
X86204819Y-72321428D02*
X86204819Y-72130952D01*
X86204819Y-72130952D02*
X86252438Y-72035714D01*
X86252438Y-72035714D02*
X86347676Y-71940476D01*
X86347676Y-71940476D02*
X86538152Y-71892857D01*
X86538152Y-71892857D02*
X86871485Y-71892857D01*
X86871485Y-71892857D02*
X87061961Y-71940476D01*
X87061961Y-71940476D02*
X87157200Y-72035714D01*
X87157200Y-72035714D02*
X87204819Y-72130952D01*
X87204819Y-72130952D02*
X87204819Y-72321428D01*
X86538152Y-71035714D02*
X87204819Y-71035714D01*
X86157200Y-71273809D02*
X86871485Y-71511904D01*
X86871485Y-71511904D02*
X86871485Y-70892857D01*
X99258458Y-63859580D02*
X99210839Y-63907200D01*
X99210839Y-63907200D02*
X99067982Y-63954819D01*
X99067982Y-63954819D02*
X98972744Y-63954819D01*
X98972744Y-63954819D02*
X98829887Y-63907200D01*
X98829887Y-63907200D02*
X98734649Y-63811961D01*
X98734649Y-63811961D02*
X98687030Y-63716723D01*
X98687030Y-63716723D02*
X98639411Y-63526247D01*
X98639411Y-63526247D02*
X98639411Y-63383390D01*
X98639411Y-63383390D02*
X98687030Y-63192914D01*
X98687030Y-63192914D02*
X98734649Y-63097676D01*
X98734649Y-63097676D02*
X98829887Y-63002438D01*
X98829887Y-63002438D02*
X98972744Y-62954819D01*
X98972744Y-62954819D02*
X99067982Y-62954819D01*
X99067982Y-62954819D02*
X99210839Y-63002438D01*
X99210839Y-63002438D02*
X99258458Y-63050057D01*
X99591792Y-62954819D02*
X100210839Y-62954819D01*
X100210839Y-62954819D02*
X99877506Y-63335771D01*
X99877506Y-63335771D02*
X100020363Y-63335771D01*
X100020363Y-63335771D02*
X100115601Y-63383390D01*
X100115601Y-63383390D02*
X100163220Y-63431009D01*
X100163220Y-63431009D02*
X100210839Y-63526247D01*
X100210839Y-63526247D02*
X100210839Y-63764342D01*
X100210839Y-63764342D02*
X100163220Y-63859580D01*
X100163220Y-63859580D02*
X100115601Y-63907200D01*
X100115601Y-63907200D02*
X100020363Y-63954819D01*
X100020363Y-63954819D02*
X99734649Y-63954819D01*
X99734649Y-63954819D02*
X99639411Y-63907200D01*
X99639411Y-63907200D02*
X99591792Y-63859580D01*
X84023809Y-60978628D02*
X84023809Y-61454819D01*
X83690476Y-60454819D02*
X84023809Y-60978628D01*
X84023809Y-60978628D02*
X84357142Y-60454819D01*
X85214285Y-61454819D02*
X84642857Y-61454819D01*
X84928571Y-61454819D02*
X84928571Y-60454819D01*
X84928571Y-60454819D02*
X84833333Y-60597676D01*
X84833333Y-60597676D02*
X84738095Y-60692914D01*
X84738095Y-60692914D02*
X84642857Y-60740533D01*
X96359580Y-79142857D02*
X96407200Y-79190476D01*
X96407200Y-79190476D02*
X96454819Y-79333333D01*
X96454819Y-79333333D02*
X96454819Y-79428571D01*
X96454819Y-79428571D02*
X96407200Y-79571428D01*
X96407200Y-79571428D02*
X96311961Y-79666666D01*
X96311961Y-79666666D02*
X96216723Y-79714285D01*
X96216723Y-79714285D02*
X96026247Y-79761904D01*
X96026247Y-79761904D02*
X95883390Y-79761904D01*
X95883390Y-79761904D02*
X95692914Y-79714285D01*
X95692914Y-79714285D02*
X95597676Y-79666666D01*
X95597676Y-79666666D02*
X95502438Y-79571428D01*
X95502438Y-79571428D02*
X95454819Y-79428571D01*
X95454819Y-79428571D02*
X95454819Y-79333333D01*
X95454819Y-79333333D02*
X95502438Y-79190476D01*
X95502438Y-79190476D02*
X95550057Y-79142857D01*
X96454819Y-78190476D02*
X96454819Y-78761904D01*
X96454819Y-78476190D02*
X95454819Y-78476190D01*
X95454819Y-78476190D02*
X95597676Y-78571428D01*
X95597676Y-78571428D02*
X95692914Y-78666666D01*
X95692914Y-78666666D02*
X95740533Y-78761904D01*
X95454819Y-77333333D02*
X95454819Y-77523809D01*
X95454819Y-77523809D02*
X95502438Y-77619047D01*
X95502438Y-77619047D02*
X95550057Y-77666666D01*
X95550057Y-77666666D02*
X95692914Y-77761904D01*
X95692914Y-77761904D02*
X95883390Y-77809523D01*
X95883390Y-77809523D02*
X96264342Y-77809523D01*
X96264342Y-77809523D02*
X96359580Y-77761904D01*
X96359580Y-77761904D02*
X96407200Y-77714285D01*
X96407200Y-77714285D02*
X96454819Y-77619047D01*
X96454819Y-77619047D02*
X96454819Y-77428571D01*
X96454819Y-77428571D02*
X96407200Y-77333333D01*
X96407200Y-77333333D02*
X96359580Y-77285714D01*
X96359580Y-77285714D02*
X96264342Y-77238095D01*
X96264342Y-77238095D02*
X96026247Y-77238095D01*
X96026247Y-77238095D02*
X95931009Y-77285714D01*
X95931009Y-77285714D02*
X95883390Y-77333333D01*
X95883390Y-77333333D02*
X95835771Y-77428571D01*
X95835771Y-77428571D02*
X95835771Y-77619047D01*
X95835771Y-77619047D02*
X95883390Y-77714285D01*
X95883390Y-77714285D02*
X95931009Y-77761904D01*
X95931009Y-77761904D02*
X96026247Y-77809523D01*
X83357142Y-67109580D02*
X83309523Y-67157200D01*
X83309523Y-67157200D02*
X83166666Y-67204819D01*
X83166666Y-67204819D02*
X83071428Y-67204819D01*
X83071428Y-67204819D02*
X82928571Y-67157200D01*
X82928571Y-67157200D02*
X82833333Y-67061961D01*
X82833333Y-67061961D02*
X82785714Y-66966723D01*
X82785714Y-66966723D02*
X82738095Y-66776247D01*
X82738095Y-66776247D02*
X82738095Y-66633390D01*
X82738095Y-66633390D02*
X82785714Y-66442914D01*
X82785714Y-66442914D02*
X82833333Y-66347676D01*
X82833333Y-66347676D02*
X82928571Y-66252438D01*
X82928571Y-66252438D02*
X83071428Y-66204819D01*
X83071428Y-66204819D02*
X83166666Y-66204819D01*
X83166666Y-66204819D02*
X83309523Y-66252438D01*
X83309523Y-66252438D02*
X83357142Y-66300057D01*
X84309523Y-67204819D02*
X83738095Y-67204819D01*
X84023809Y-67204819D02*
X84023809Y-66204819D01*
X84023809Y-66204819D02*
X83928571Y-66347676D01*
X83928571Y-66347676D02*
X83833333Y-66442914D01*
X83833333Y-66442914D02*
X83738095Y-66490533D01*
X85261904Y-67204819D02*
X84690476Y-67204819D01*
X84976190Y-67204819D02*
X84976190Y-66204819D01*
X84976190Y-66204819D02*
X84880952Y-66347676D01*
X84880952Y-66347676D02*
X84785714Y-66442914D01*
X84785714Y-66442914D02*
X84690476Y-66490533D01*
X90357142Y-76704819D02*
X90023809Y-76228628D01*
X89785714Y-76704819D02*
X89785714Y-75704819D01*
X89785714Y-75704819D02*
X90166666Y-75704819D01*
X90166666Y-75704819D02*
X90261904Y-75752438D01*
X90261904Y-75752438D02*
X90309523Y-75800057D01*
X90309523Y-75800057D02*
X90357142Y-75895295D01*
X90357142Y-75895295D02*
X90357142Y-76038152D01*
X90357142Y-76038152D02*
X90309523Y-76133390D01*
X90309523Y-76133390D02*
X90261904Y-76181009D01*
X90261904Y-76181009D02*
X90166666Y-76228628D01*
X90166666Y-76228628D02*
X89785714Y-76228628D01*
X91309523Y-76704819D02*
X90738095Y-76704819D01*
X91023809Y-76704819D02*
X91023809Y-75704819D01*
X91023809Y-75704819D02*
X90928571Y-75847676D01*
X90928571Y-75847676D02*
X90833333Y-75942914D01*
X90833333Y-75942914D02*
X90738095Y-75990533D01*
X91880952Y-76133390D02*
X91785714Y-76085771D01*
X91785714Y-76085771D02*
X91738095Y-76038152D01*
X91738095Y-76038152D02*
X91690476Y-75942914D01*
X91690476Y-75942914D02*
X91690476Y-75895295D01*
X91690476Y-75895295D02*
X91738095Y-75800057D01*
X91738095Y-75800057D02*
X91785714Y-75752438D01*
X91785714Y-75752438D02*
X91880952Y-75704819D01*
X91880952Y-75704819D02*
X92071428Y-75704819D01*
X92071428Y-75704819D02*
X92166666Y-75752438D01*
X92166666Y-75752438D02*
X92214285Y-75800057D01*
X92214285Y-75800057D02*
X92261904Y-75895295D01*
X92261904Y-75895295D02*
X92261904Y-75942914D01*
X92261904Y-75942914D02*
X92214285Y-76038152D01*
X92214285Y-76038152D02*
X92166666Y-76085771D01*
X92166666Y-76085771D02*
X92071428Y-76133390D01*
X92071428Y-76133390D02*
X91880952Y-76133390D01*
X91880952Y-76133390D02*
X91785714Y-76181009D01*
X91785714Y-76181009D02*
X91738095Y-76228628D01*
X91738095Y-76228628D02*
X91690476Y-76323866D01*
X91690476Y-76323866D02*
X91690476Y-76514342D01*
X91690476Y-76514342D02*
X91738095Y-76609580D01*
X91738095Y-76609580D02*
X91785714Y-76657200D01*
X91785714Y-76657200D02*
X91880952Y-76704819D01*
X91880952Y-76704819D02*
X92071428Y-76704819D01*
X92071428Y-76704819D02*
X92166666Y-76657200D01*
X92166666Y-76657200D02*
X92214285Y-76609580D01*
X92214285Y-76609580D02*
X92261904Y-76514342D01*
X92261904Y-76514342D02*
X92261904Y-76323866D01*
X92261904Y-76323866D02*
X92214285Y-76228628D01*
X92214285Y-76228628D02*
X92166666Y-76181009D01*
X92166666Y-76181009D02*
X92071428Y-76133390D01*
X106954819Y-72841792D02*
X106478628Y-73175125D01*
X106954819Y-73413220D02*
X105954819Y-73413220D01*
X105954819Y-73413220D02*
X105954819Y-73032268D01*
X105954819Y-73032268D02*
X106002438Y-72937030D01*
X106002438Y-72937030D02*
X106050057Y-72889411D01*
X106050057Y-72889411D02*
X106145295Y-72841792D01*
X106145295Y-72841792D02*
X106288152Y-72841792D01*
X106288152Y-72841792D02*
X106383390Y-72889411D01*
X106383390Y-72889411D02*
X106431009Y-72937030D01*
X106431009Y-72937030D02*
X106478628Y-73032268D01*
X106478628Y-73032268D02*
X106478628Y-73413220D01*
X105954819Y-72508458D02*
X105954819Y-71841792D01*
X105954819Y-71841792D02*
X106954819Y-72270363D01*
X100258458Y-66859580D02*
X100210839Y-66907200D01*
X100210839Y-66907200D02*
X100067982Y-66954819D01*
X100067982Y-66954819D02*
X99972744Y-66954819D01*
X99972744Y-66954819D02*
X99829887Y-66907200D01*
X99829887Y-66907200D02*
X99734649Y-66811961D01*
X99734649Y-66811961D02*
X99687030Y-66716723D01*
X99687030Y-66716723D02*
X99639411Y-66526247D01*
X99639411Y-66526247D02*
X99639411Y-66383390D01*
X99639411Y-66383390D02*
X99687030Y-66192914D01*
X99687030Y-66192914D02*
X99734649Y-66097676D01*
X99734649Y-66097676D02*
X99829887Y-66002438D01*
X99829887Y-66002438D02*
X99972744Y-65954819D01*
X99972744Y-65954819D02*
X100067982Y-65954819D01*
X100067982Y-65954819D02*
X100210839Y-66002438D01*
X100210839Y-66002438D02*
X100258458Y-66050057D01*
X101210839Y-66954819D02*
X100639411Y-66954819D01*
X100925125Y-66954819D02*
X100925125Y-65954819D01*
X100925125Y-65954819D02*
X100829887Y-66097676D01*
X100829887Y-66097676D02*
X100734649Y-66192914D01*
X100734649Y-66192914D02*
X100639411Y-66240533D01*
X84429819Y-70666666D02*
X84429819Y-71142856D01*
X84429819Y-71142856D02*
X83429819Y-71142856D01*
X83525057Y-70380951D02*
X83477438Y-70333332D01*
X83477438Y-70333332D02*
X83429819Y-70238094D01*
X83429819Y-70238094D02*
X83429819Y-69999999D01*
X83429819Y-69999999D02*
X83477438Y-69904761D01*
X83477438Y-69904761D02*
X83525057Y-69857142D01*
X83525057Y-69857142D02*
X83620295Y-69809523D01*
X83620295Y-69809523D02*
X83715533Y-69809523D01*
X83715533Y-69809523D02*
X83858390Y-69857142D01*
X83858390Y-69857142D02*
X84429819Y-70428570D01*
X84429819Y-70428570D02*
X84429819Y-69809523D01*
X99258458Y-76859580D02*
X99210839Y-76907200D01*
X99210839Y-76907200D02*
X99067982Y-76954819D01*
X99067982Y-76954819D02*
X98972744Y-76954819D01*
X98972744Y-76954819D02*
X98829887Y-76907200D01*
X98829887Y-76907200D02*
X98734649Y-76811961D01*
X98734649Y-76811961D02*
X98687030Y-76716723D01*
X98687030Y-76716723D02*
X98639411Y-76526247D01*
X98639411Y-76526247D02*
X98639411Y-76383390D01*
X98639411Y-76383390D02*
X98687030Y-76192914D01*
X98687030Y-76192914D02*
X98734649Y-76097676D01*
X98734649Y-76097676D02*
X98829887Y-76002438D01*
X98829887Y-76002438D02*
X98972744Y-75954819D01*
X98972744Y-75954819D02*
X99067982Y-75954819D01*
X99067982Y-75954819D02*
X99210839Y-76002438D01*
X99210839Y-76002438D02*
X99258458Y-76050057D01*
X99734649Y-76954819D02*
X99925125Y-76954819D01*
X99925125Y-76954819D02*
X100020363Y-76907200D01*
X100020363Y-76907200D02*
X100067982Y-76859580D01*
X100067982Y-76859580D02*
X100163220Y-76716723D01*
X100163220Y-76716723D02*
X100210839Y-76526247D01*
X100210839Y-76526247D02*
X100210839Y-76145295D01*
X100210839Y-76145295D02*
X100163220Y-76050057D01*
X100163220Y-76050057D02*
X100115601Y-76002438D01*
X100115601Y-76002438D02*
X100020363Y-75954819D01*
X100020363Y-75954819D02*
X99829887Y-75954819D01*
X99829887Y-75954819D02*
X99734649Y-76002438D01*
X99734649Y-76002438D02*
X99687030Y-76050057D01*
X99687030Y-76050057D02*
X99639411Y-76145295D01*
X99639411Y-76145295D02*
X99639411Y-76383390D01*
X99639411Y-76383390D02*
X99687030Y-76478628D01*
X99687030Y-76478628D02*
X99734649Y-76526247D01*
X99734649Y-76526247D02*
X99829887Y-76573866D01*
X99829887Y-76573866D02*
X100020363Y-76573866D01*
X100020363Y-76573866D02*
X100115601Y-76526247D01*
X100115601Y-76526247D02*
X100163220Y-76478628D01*
X100163220Y-76478628D02*
X100210839Y-76383390D01*
X100258458Y-65454819D02*
X99925125Y-64978628D01*
X99687030Y-65454819D02*
X99687030Y-64454819D01*
X99687030Y-64454819D02*
X100067982Y-64454819D01*
X100067982Y-64454819D02*
X100163220Y-64502438D01*
X100163220Y-64502438D02*
X100210839Y-64550057D01*
X100210839Y-64550057D02*
X100258458Y-64645295D01*
X100258458Y-64645295D02*
X100258458Y-64788152D01*
X100258458Y-64788152D02*
X100210839Y-64883390D01*
X100210839Y-64883390D02*
X100163220Y-64931009D01*
X100163220Y-64931009D02*
X100067982Y-64978628D01*
X100067982Y-64978628D02*
X99687030Y-64978628D01*
X101210839Y-65454819D02*
X100639411Y-65454819D01*
X100925125Y-65454819D02*
X100925125Y-64454819D01*
X100925125Y-64454819D02*
X100829887Y-64597676D01*
X100829887Y-64597676D02*
X100734649Y-64692914D01*
X100734649Y-64692914D02*
X100639411Y-64740533D01*
X100258458Y-79859580D02*
X100210839Y-79907200D01*
X100210839Y-79907200D02*
X100067982Y-79954819D01*
X100067982Y-79954819D02*
X99972744Y-79954819D01*
X99972744Y-79954819D02*
X99829887Y-79907200D01*
X99829887Y-79907200D02*
X99734649Y-79811961D01*
X99734649Y-79811961D02*
X99687030Y-79716723D01*
X99687030Y-79716723D02*
X99639411Y-79526247D01*
X99639411Y-79526247D02*
X99639411Y-79383390D01*
X99639411Y-79383390D02*
X99687030Y-79192914D01*
X99687030Y-79192914D02*
X99734649Y-79097676D01*
X99734649Y-79097676D02*
X99829887Y-79002438D01*
X99829887Y-79002438D02*
X99972744Y-78954819D01*
X99972744Y-78954819D02*
X100067982Y-78954819D01*
X100067982Y-78954819D02*
X100210839Y-79002438D01*
X100210839Y-79002438D02*
X100258458Y-79050057D01*
X100829887Y-79383390D02*
X100734649Y-79335771D01*
X100734649Y-79335771D02*
X100687030Y-79288152D01*
X100687030Y-79288152D02*
X100639411Y-79192914D01*
X100639411Y-79192914D02*
X100639411Y-79145295D01*
X100639411Y-79145295D02*
X100687030Y-79050057D01*
X100687030Y-79050057D02*
X100734649Y-79002438D01*
X100734649Y-79002438D02*
X100829887Y-78954819D01*
X100829887Y-78954819D02*
X101020363Y-78954819D01*
X101020363Y-78954819D02*
X101115601Y-79002438D01*
X101115601Y-79002438D02*
X101163220Y-79050057D01*
X101163220Y-79050057D02*
X101210839Y-79145295D01*
X101210839Y-79145295D02*
X101210839Y-79192914D01*
X101210839Y-79192914D02*
X101163220Y-79288152D01*
X101163220Y-79288152D02*
X101115601Y-79335771D01*
X101115601Y-79335771D02*
X101020363Y-79383390D01*
X101020363Y-79383390D02*
X100829887Y-79383390D01*
X100829887Y-79383390D02*
X100734649Y-79431009D01*
X100734649Y-79431009D02*
X100687030Y-79478628D01*
X100687030Y-79478628D02*
X100639411Y-79573866D01*
X100639411Y-79573866D02*
X100639411Y-79764342D01*
X100639411Y-79764342D02*
X100687030Y-79859580D01*
X100687030Y-79859580D02*
X100734649Y-79907200D01*
X100734649Y-79907200D02*
X100829887Y-79954819D01*
X100829887Y-79954819D02*
X101020363Y-79954819D01*
X101020363Y-79954819D02*
X101115601Y-79907200D01*
X101115601Y-79907200D02*
X101163220Y-79859580D01*
X101163220Y-79859580D02*
X101210839Y-79764342D01*
X101210839Y-79764342D02*
X101210839Y-79573866D01*
X101210839Y-79573866D02*
X101163220Y-79478628D01*
X101163220Y-79478628D02*
X101115601Y-79431009D01*
X101115601Y-79431009D02*
X101020363Y-79383390D01*
X100258458Y-62454819D02*
X99925125Y-61978628D01*
X99687030Y-62454819D02*
X99687030Y-61454819D01*
X99687030Y-61454819D02*
X100067982Y-61454819D01*
X100067982Y-61454819D02*
X100163220Y-61502438D01*
X100163220Y-61502438D02*
X100210839Y-61550057D01*
X100210839Y-61550057D02*
X100258458Y-61645295D01*
X100258458Y-61645295D02*
X100258458Y-61788152D01*
X100258458Y-61788152D02*
X100210839Y-61883390D01*
X100210839Y-61883390D02*
X100163220Y-61931009D01*
X100163220Y-61931009D02*
X100067982Y-61978628D01*
X100067982Y-61978628D02*
X99687030Y-61978628D01*
X100591792Y-61454819D02*
X101210839Y-61454819D01*
X101210839Y-61454819D02*
X100877506Y-61835771D01*
X100877506Y-61835771D02*
X101020363Y-61835771D01*
X101020363Y-61835771D02*
X101115601Y-61883390D01*
X101115601Y-61883390D02*
X101163220Y-61931009D01*
X101163220Y-61931009D02*
X101210839Y-62026247D01*
X101210839Y-62026247D02*
X101210839Y-62264342D01*
X101210839Y-62264342D02*
X101163220Y-62359580D01*
X101163220Y-62359580D02*
X101115601Y-62407200D01*
X101115601Y-62407200D02*
X101020363Y-62454819D01*
X101020363Y-62454819D02*
X100734649Y-62454819D01*
X100734649Y-62454819D02*
X100639411Y-62407200D01*
X100639411Y-62407200D02*
X100591792Y-62359580D01*
X99306077Y-75454819D02*
X98972744Y-74978628D01*
X98734649Y-75454819D02*
X98734649Y-74454819D01*
X98734649Y-74454819D02*
X99115601Y-74454819D01*
X99115601Y-74454819D02*
X99210839Y-74502438D01*
X99210839Y-74502438D02*
X99258458Y-74550057D01*
X99258458Y-74550057D02*
X99306077Y-74645295D01*
X99306077Y-74645295D02*
X99306077Y-74788152D01*
X99306077Y-74788152D02*
X99258458Y-74883390D01*
X99258458Y-74883390D02*
X99210839Y-74931009D01*
X99210839Y-74931009D02*
X99115601Y-74978628D01*
X99115601Y-74978628D02*
X98734649Y-74978628D01*
X100258458Y-75454819D02*
X99687030Y-75454819D01*
X99972744Y-75454819D02*
X99972744Y-74454819D01*
X99972744Y-74454819D02*
X99877506Y-74597676D01*
X99877506Y-74597676D02*
X99782268Y-74692914D01*
X99782268Y-74692914D02*
X99687030Y-74740533D01*
X101115601Y-74788152D02*
X101115601Y-75454819D01*
X100877506Y-74407200D02*
X100639411Y-75121485D01*
X100639411Y-75121485D02*
X101258458Y-75121485D01*
X86107142Y-76859580D02*
X86059523Y-76907200D01*
X86059523Y-76907200D02*
X85916666Y-76954819D01*
X85916666Y-76954819D02*
X85821428Y-76954819D01*
X85821428Y-76954819D02*
X85678571Y-76907200D01*
X85678571Y-76907200D02*
X85583333Y-76811961D01*
X85583333Y-76811961D02*
X85535714Y-76716723D01*
X85535714Y-76716723D02*
X85488095Y-76526247D01*
X85488095Y-76526247D02*
X85488095Y-76383390D01*
X85488095Y-76383390D02*
X85535714Y-76192914D01*
X85535714Y-76192914D02*
X85583333Y-76097676D01*
X85583333Y-76097676D02*
X85678571Y-76002438D01*
X85678571Y-76002438D02*
X85821428Y-75954819D01*
X85821428Y-75954819D02*
X85916666Y-75954819D01*
X85916666Y-75954819D02*
X86059523Y-76002438D01*
X86059523Y-76002438D02*
X86107142Y-76050057D01*
X87059523Y-76954819D02*
X86488095Y-76954819D01*
X86773809Y-76954819D02*
X86773809Y-75954819D01*
X86773809Y-75954819D02*
X86678571Y-76097676D01*
X86678571Y-76097676D02*
X86583333Y-76192914D01*
X86583333Y-76192914D02*
X86488095Y-76240533D01*
X87964285Y-75954819D02*
X87488095Y-75954819D01*
X87488095Y-75954819D02*
X87440476Y-76431009D01*
X87440476Y-76431009D02*
X87488095Y-76383390D01*
X87488095Y-76383390D02*
X87583333Y-76335771D01*
X87583333Y-76335771D02*
X87821428Y-76335771D01*
X87821428Y-76335771D02*
X87916666Y-76383390D01*
X87916666Y-76383390D02*
X87964285Y-76431009D01*
X87964285Y-76431009D02*
X88011904Y-76526247D01*
X88011904Y-76526247D02*
X88011904Y-76764342D01*
X88011904Y-76764342D02*
X87964285Y-76859580D01*
X87964285Y-76859580D02*
X87916666Y-76907200D01*
X87916666Y-76907200D02*
X87821428Y-76954819D01*
X87821428Y-76954819D02*
X87583333Y-76954819D01*
X87583333Y-76954819D02*
X87488095Y-76907200D01*
X87488095Y-76907200D02*
X87440476Y-76859580D01*
X100258458Y-73359580D02*
X100210839Y-73407200D01*
X100210839Y-73407200D02*
X100067982Y-73454819D01*
X100067982Y-73454819D02*
X99972744Y-73454819D01*
X99972744Y-73454819D02*
X99829887Y-73407200D01*
X99829887Y-73407200D02*
X99734649Y-73311961D01*
X99734649Y-73311961D02*
X99687030Y-73216723D01*
X99687030Y-73216723D02*
X99639411Y-73026247D01*
X99639411Y-73026247D02*
X99639411Y-72883390D01*
X99639411Y-72883390D02*
X99687030Y-72692914D01*
X99687030Y-72692914D02*
X99734649Y-72597676D01*
X99734649Y-72597676D02*
X99829887Y-72502438D01*
X99829887Y-72502438D02*
X99972744Y-72454819D01*
X99972744Y-72454819D02*
X100067982Y-72454819D01*
X100067982Y-72454819D02*
X100210839Y-72502438D01*
X100210839Y-72502438D02*
X100258458Y-72550057D01*
X101115601Y-72788152D02*
X101115601Y-73454819D01*
X100877506Y-72407200D02*
X100639411Y-73121485D01*
X100639411Y-73121485D02*
X101258458Y-73121485D01*
X110465057Y-75443922D02*
X110417438Y-75539160D01*
X110417438Y-75539160D02*
X110322200Y-75634398D01*
X110322200Y-75634398D02*
X110179342Y-75777255D01*
X110179342Y-75777255D02*
X110131723Y-75872493D01*
X110131723Y-75872493D02*
X110131723Y-75967731D01*
X110369819Y-75920112D02*
X110322200Y-76015350D01*
X110322200Y-76015350D02*
X110226961Y-76110588D01*
X110226961Y-76110588D02*
X110036485Y-76158207D01*
X110036485Y-76158207D02*
X109703152Y-76158207D01*
X109703152Y-76158207D02*
X109512676Y-76110588D01*
X109512676Y-76110588D02*
X109417438Y-76015350D01*
X109417438Y-76015350D02*
X109369819Y-75920112D01*
X109369819Y-75920112D02*
X109369819Y-75729636D01*
X109369819Y-75729636D02*
X109417438Y-75634398D01*
X109417438Y-75634398D02*
X109512676Y-75539160D01*
X109512676Y-75539160D02*
X109703152Y-75491541D01*
X109703152Y-75491541D02*
X110036485Y-75491541D01*
X110036485Y-75491541D02*
X110226961Y-75539160D01*
X110226961Y-75539160D02*
X110322200Y-75634398D01*
X110322200Y-75634398D02*
X110369819Y-75729636D01*
X110369819Y-75729636D02*
X110369819Y-75920112D01*
X109369819Y-75158207D02*
X109369819Y-74539160D01*
X109369819Y-74539160D02*
X109750771Y-74872493D01*
X109750771Y-74872493D02*
X109750771Y-74729636D01*
X109750771Y-74729636D02*
X109798390Y-74634398D01*
X109798390Y-74634398D02*
X109846009Y-74586779D01*
X109846009Y-74586779D02*
X109941247Y-74539160D01*
X109941247Y-74539160D02*
X110179342Y-74539160D01*
X110179342Y-74539160D02*
X110274580Y-74586779D01*
X110274580Y-74586779D02*
X110322200Y-74634398D01*
X110322200Y-74634398D02*
X110369819Y-74729636D01*
X110369819Y-74729636D02*
X110369819Y-75015350D01*
X110369819Y-75015350D02*
X110322200Y-75110588D01*
X110322200Y-75110588D02*
X110274580Y-75158207D01*
X106954819Y-63341792D02*
X106478628Y-63675125D01*
X106954819Y-63913220D02*
X105954819Y-63913220D01*
X105954819Y-63913220D02*
X105954819Y-63532268D01*
X105954819Y-63532268D02*
X106002438Y-63437030D01*
X106002438Y-63437030D02*
X106050057Y-63389411D01*
X106050057Y-63389411D02*
X106145295Y-63341792D01*
X106145295Y-63341792D02*
X106288152Y-63341792D01*
X106288152Y-63341792D02*
X106383390Y-63389411D01*
X106383390Y-63389411D02*
X106431009Y-63437030D01*
X106431009Y-63437030D02*
X106478628Y-63532268D01*
X106478628Y-63532268D02*
X106478628Y-63913220D01*
X106050057Y-62960839D02*
X106002438Y-62913220D01*
X106002438Y-62913220D02*
X105954819Y-62817982D01*
X105954819Y-62817982D02*
X105954819Y-62579887D01*
X105954819Y-62579887D02*
X106002438Y-62484649D01*
X106002438Y-62484649D02*
X106050057Y-62437030D01*
X106050057Y-62437030D02*
X106145295Y-62389411D01*
X106145295Y-62389411D02*
X106240533Y-62389411D01*
X106240533Y-62389411D02*
X106383390Y-62437030D01*
X106383390Y-62437030D02*
X106954819Y-63008458D01*
X106954819Y-63008458D02*
X106954819Y-62389411D01*
X99306077Y-78454819D02*
X98972744Y-77978628D01*
X98734649Y-78454819D02*
X98734649Y-77454819D01*
X98734649Y-77454819D02*
X99115601Y-77454819D01*
X99115601Y-77454819D02*
X99210839Y-77502438D01*
X99210839Y-77502438D02*
X99258458Y-77550057D01*
X99258458Y-77550057D02*
X99306077Y-77645295D01*
X99306077Y-77645295D02*
X99306077Y-77788152D01*
X99306077Y-77788152D02*
X99258458Y-77883390D01*
X99258458Y-77883390D02*
X99210839Y-77931009D01*
X99210839Y-77931009D02*
X99115601Y-77978628D01*
X99115601Y-77978628D02*
X98734649Y-77978628D01*
X100258458Y-78454819D02*
X99687030Y-78454819D01*
X99972744Y-78454819D02*
X99972744Y-77454819D01*
X99972744Y-77454819D02*
X99877506Y-77597676D01*
X99877506Y-77597676D02*
X99782268Y-77692914D01*
X99782268Y-77692914D02*
X99687030Y-77740533D01*
X101210839Y-78454819D02*
X100639411Y-78454819D01*
X100925125Y-78454819D02*
X100925125Y-77454819D01*
X100925125Y-77454819D02*
X100829887Y-77597676D01*
X100829887Y-77597676D02*
X100734649Y-77692914D01*
X100734649Y-77692914D02*
X100639411Y-77740533D01*
X112819580Y-69416666D02*
X112867200Y-69464285D01*
X112867200Y-69464285D02*
X112914819Y-69607142D01*
X112914819Y-69607142D02*
X112914819Y-69702380D01*
X112914819Y-69702380D02*
X112867200Y-69845237D01*
X112867200Y-69845237D02*
X112771961Y-69940475D01*
X112771961Y-69940475D02*
X112676723Y-69988094D01*
X112676723Y-69988094D02*
X112486247Y-70035713D01*
X112486247Y-70035713D02*
X112343390Y-70035713D01*
X112343390Y-70035713D02*
X112152914Y-69988094D01*
X112152914Y-69988094D02*
X112057676Y-69940475D01*
X112057676Y-69940475D02*
X111962438Y-69845237D01*
X111962438Y-69845237D02*
X111914819Y-69702380D01*
X111914819Y-69702380D02*
X111914819Y-69607142D01*
X111914819Y-69607142D02*
X111962438Y-69464285D01*
X111962438Y-69464285D02*
X112010057Y-69416666D01*
X111914819Y-68559523D02*
X111914819Y-68749999D01*
X111914819Y-68749999D02*
X111962438Y-68845237D01*
X111962438Y-68845237D02*
X112010057Y-68892856D01*
X112010057Y-68892856D02*
X112152914Y-68988094D01*
X112152914Y-68988094D02*
X112343390Y-69035713D01*
X112343390Y-69035713D02*
X112724342Y-69035713D01*
X112724342Y-69035713D02*
X112819580Y-68988094D01*
X112819580Y-68988094D02*
X112867200Y-68940475D01*
X112867200Y-68940475D02*
X112914819Y-68845237D01*
X112914819Y-68845237D02*
X112914819Y-68654761D01*
X112914819Y-68654761D02*
X112867200Y-68559523D01*
X112867200Y-68559523D02*
X112819580Y-68511904D01*
X112819580Y-68511904D02*
X112724342Y-68464285D01*
X112724342Y-68464285D02*
X112486247Y-68464285D01*
X112486247Y-68464285D02*
X112391009Y-68511904D01*
X112391009Y-68511904D02*
X112343390Y-68559523D01*
X112343390Y-68559523D02*
X112295771Y-68654761D01*
X112295771Y-68654761D02*
X112295771Y-68845237D01*
X112295771Y-68845237D02*
X112343390Y-68940475D01*
X112343390Y-68940475D02*
X112391009Y-68988094D01*
X112391009Y-68988094D02*
X112486247Y-69035713D01*
X99258458Y-70359580D02*
X99210839Y-70407200D01*
X99210839Y-70407200D02*
X99067982Y-70454819D01*
X99067982Y-70454819D02*
X98972744Y-70454819D01*
X98972744Y-70454819D02*
X98829887Y-70407200D01*
X98829887Y-70407200D02*
X98734649Y-70311961D01*
X98734649Y-70311961D02*
X98687030Y-70216723D01*
X98687030Y-70216723D02*
X98639411Y-70026247D01*
X98639411Y-70026247D02*
X98639411Y-69883390D01*
X98639411Y-69883390D02*
X98687030Y-69692914D01*
X98687030Y-69692914D02*
X98734649Y-69597676D01*
X98734649Y-69597676D02*
X98829887Y-69502438D01*
X98829887Y-69502438D02*
X98972744Y-69454819D01*
X98972744Y-69454819D02*
X99067982Y-69454819D01*
X99067982Y-69454819D02*
X99210839Y-69502438D01*
X99210839Y-69502438D02*
X99258458Y-69550057D01*
X100163220Y-69454819D02*
X99687030Y-69454819D01*
X99687030Y-69454819D02*
X99639411Y-69931009D01*
X99639411Y-69931009D02*
X99687030Y-69883390D01*
X99687030Y-69883390D02*
X99782268Y-69835771D01*
X99782268Y-69835771D02*
X100020363Y-69835771D01*
X100020363Y-69835771D02*
X100115601Y-69883390D01*
X100115601Y-69883390D02*
X100163220Y-69931009D01*
X100163220Y-69931009D02*
X100210839Y-70026247D01*
X100210839Y-70026247D02*
X100210839Y-70264342D01*
X100210839Y-70264342D02*
X100163220Y-70359580D01*
X100163220Y-70359580D02*
X100115601Y-70407200D01*
X100115601Y-70407200D02*
X100020363Y-70454819D01*
X100020363Y-70454819D02*
X99782268Y-70454819D01*
X99782268Y-70454819D02*
X99687030Y-70407200D01*
X99687030Y-70407200D02*
X99639411Y-70359580D01*
X92353207Y-72569819D02*
X92019874Y-72093628D01*
X91781779Y-72569819D02*
X91781779Y-71569819D01*
X91781779Y-71569819D02*
X92162731Y-71569819D01*
X92162731Y-71569819D02*
X92257969Y-71617438D01*
X92257969Y-71617438D02*
X92305588Y-71665057D01*
X92305588Y-71665057D02*
X92353207Y-71760295D01*
X92353207Y-71760295D02*
X92353207Y-71903152D01*
X92353207Y-71903152D02*
X92305588Y-71998390D01*
X92305588Y-71998390D02*
X92257969Y-72046009D01*
X92257969Y-72046009D02*
X92162731Y-72093628D01*
X92162731Y-72093628D02*
X91781779Y-72093628D01*
X93305588Y-72569819D02*
X92734160Y-72569819D01*
X93019874Y-72569819D02*
X93019874Y-71569819D01*
X93019874Y-71569819D02*
X92924636Y-71712676D01*
X92924636Y-71712676D02*
X92829398Y-71807914D01*
X92829398Y-71807914D02*
X92734160Y-71855533D01*
X93638922Y-71569819D02*
X94305588Y-71569819D01*
X94305588Y-71569819D02*
X93877017Y-72569819D01*
X106954819Y-76341792D02*
X106478628Y-76675125D01*
X106954819Y-76913220D02*
X105954819Y-76913220D01*
X105954819Y-76913220D02*
X105954819Y-76532268D01*
X105954819Y-76532268D02*
X106002438Y-76437030D01*
X106002438Y-76437030D02*
X106050057Y-76389411D01*
X106050057Y-76389411D02*
X106145295Y-76341792D01*
X106145295Y-76341792D02*
X106288152Y-76341792D01*
X106288152Y-76341792D02*
X106383390Y-76389411D01*
X106383390Y-76389411D02*
X106431009Y-76437030D01*
X106431009Y-76437030D02*
X106478628Y-76532268D01*
X106478628Y-76532268D02*
X106478628Y-76913220D01*
X106954819Y-75389411D02*
X106954819Y-75960839D01*
X106954819Y-75675125D02*
X105954819Y-75675125D01*
X105954819Y-75675125D02*
X106097676Y-75770363D01*
X106097676Y-75770363D02*
X106192914Y-75865601D01*
X106192914Y-75865601D02*
X106240533Y-75960839D01*
X105954819Y-75056077D02*
X105954819Y-74437030D01*
X105954819Y-74437030D02*
X106335771Y-74770363D01*
X106335771Y-74770363D02*
X106335771Y-74627506D01*
X106335771Y-74627506D02*
X106383390Y-74532268D01*
X106383390Y-74532268D02*
X106431009Y-74484649D01*
X106431009Y-74484649D02*
X106526247Y-74437030D01*
X106526247Y-74437030D02*
X106764342Y-74437030D01*
X106764342Y-74437030D02*
X106859580Y-74484649D01*
X106859580Y-74484649D02*
X106907200Y-74532268D01*
X106907200Y-74532268D02*
X106954819Y-74627506D01*
X106954819Y-74627506D02*
X106954819Y-74913220D01*
X106954819Y-74913220D02*
X106907200Y-75008458D01*
X106907200Y-75008458D02*
X106859580Y-75056077D01*
X112819580Y-76392857D02*
X112867200Y-76440476D01*
X112867200Y-76440476D02*
X112914819Y-76583333D01*
X112914819Y-76583333D02*
X112914819Y-76678571D01*
X112914819Y-76678571D02*
X112867200Y-76821428D01*
X112867200Y-76821428D02*
X112771961Y-76916666D01*
X112771961Y-76916666D02*
X112676723Y-76964285D01*
X112676723Y-76964285D02*
X112486247Y-77011904D01*
X112486247Y-77011904D02*
X112343390Y-77011904D01*
X112343390Y-77011904D02*
X112152914Y-76964285D01*
X112152914Y-76964285D02*
X112057676Y-76916666D01*
X112057676Y-76916666D02*
X111962438Y-76821428D01*
X111962438Y-76821428D02*
X111914819Y-76678571D01*
X111914819Y-76678571D02*
X111914819Y-76583333D01*
X111914819Y-76583333D02*
X111962438Y-76440476D01*
X111962438Y-76440476D02*
X112010057Y-76392857D01*
X112914819Y-75440476D02*
X112914819Y-76011904D01*
X112914819Y-75726190D02*
X111914819Y-75726190D01*
X111914819Y-75726190D02*
X112057676Y-75821428D01*
X112057676Y-75821428D02*
X112152914Y-75916666D01*
X112152914Y-75916666D02*
X112200533Y-76011904D01*
X111914819Y-74821428D02*
X111914819Y-74726190D01*
X111914819Y-74726190D02*
X111962438Y-74630952D01*
X111962438Y-74630952D02*
X112010057Y-74583333D01*
X112010057Y-74583333D02*
X112105295Y-74535714D01*
X112105295Y-74535714D02*
X112295771Y-74488095D01*
X112295771Y-74488095D02*
X112533866Y-74488095D01*
X112533866Y-74488095D02*
X112724342Y-74535714D01*
X112724342Y-74535714D02*
X112819580Y-74583333D01*
X112819580Y-74583333D02*
X112867200Y-74630952D01*
X112867200Y-74630952D02*
X112914819Y-74726190D01*
X112914819Y-74726190D02*
X112914819Y-74821428D01*
X112914819Y-74821428D02*
X112867200Y-74916666D01*
X112867200Y-74916666D02*
X112819580Y-74964285D01*
X112819580Y-74964285D02*
X112724342Y-75011904D01*
X112724342Y-75011904D02*
X112533866Y-75059523D01*
X112533866Y-75059523D02*
X112295771Y-75059523D01*
X112295771Y-75059523D02*
X112105295Y-75011904D01*
X112105295Y-75011904D02*
X112010057Y-74964285D01*
X112010057Y-74964285D02*
X111962438Y-74916666D01*
X111962438Y-74916666D02*
X111914819Y-74821428D01*
X100258458Y-71954819D02*
X99925125Y-71478628D01*
X99687030Y-71954819D02*
X99687030Y-70954819D01*
X99687030Y-70954819D02*
X100067982Y-70954819D01*
X100067982Y-70954819D02*
X100163220Y-71002438D01*
X100163220Y-71002438D02*
X100210839Y-71050057D01*
X100210839Y-71050057D02*
X100258458Y-71145295D01*
X100258458Y-71145295D02*
X100258458Y-71288152D01*
X100258458Y-71288152D02*
X100210839Y-71383390D01*
X100210839Y-71383390D02*
X100163220Y-71431009D01*
X100163220Y-71431009D02*
X100067982Y-71478628D01*
X100067982Y-71478628D02*
X99687030Y-71478628D01*
X101115601Y-70954819D02*
X100925125Y-70954819D01*
X100925125Y-70954819D02*
X100829887Y-71002438D01*
X100829887Y-71002438D02*
X100782268Y-71050057D01*
X100782268Y-71050057D02*
X100687030Y-71192914D01*
X100687030Y-71192914D02*
X100639411Y-71383390D01*
X100639411Y-71383390D02*
X100639411Y-71764342D01*
X100639411Y-71764342D02*
X100687030Y-71859580D01*
X100687030Y-71859580D02*
X100734649Y-71907200D01*
X100734649Y-71907200D02*
X100829887Y-71954819D01*
X100829887Y-71954819D02*
X101020363Y-71954819D01*
X101020363Y-71954819D02*
X101115601Y-71907200D01*
X101115601Y-71907200D02*
X101163220Y-71859580D01*
X101163220Y-71859580D02*
X101210839Y-71764342D01*
X101210839Y-71764342D02*
X101210839Y-71526247D01*
X101210839Y-71526247D02*
X101163220Y-71431009D01*
X101163220Y-71431009D02*
X101115601Y-71383390D01*
X101115601Y-71383390D02*
X101020363Y-71335771D01*
X101020363Y-71335771D02*
X100829887Y-71335771D01*
X100829887Y-71335771D02*
X100734649Y-71383390D01*
X100734649Y-71383390D02*
X100687030Y-71431009D01*
X100687030Y-71431009D02*
X100639411Y-71526247D01*
X100258458Y-68954819D02*
X99925125Y-68478628D01*
X99687030Y-68954819D02*
X99687030Y-67954819D01*
X99687030Y-67954819D02*
X100067982Y-67954819D01*
X100067982Y-67954819D02*
X100163220Y-68002438D01*
X100163220Y-68002438D02*
X100210839Y-68050057D01*
X100210839Y-68050057D02*
X100258458Y-68145295D01*
X100258458Y-68145295D02*
X100258458Y-68288152D01*
X100258458Y-68288152D02*
X100210839Y-68383390D01*
X100210839Y-68383390D02*
X100163220Y-68431009D01*
X100163220Y-68431009D02*
X100067982Y-68478628D01*
X100067982Y-68478628D02*
X99687030Y-68478628D01*
X100734649Y-68954819D02*
X100925125Y-68954819D01*
X100925125Y-68954819D02*
X101020363Y-68907200D01*
X101020363Y-68907200D02*
X101067982Y-68859580D01*
X101067982Y-68859580D02*
X101163220Y-68716723D01*
X101163220Y-68716723D02*
X101210839Y-68526247D01*
X101210839Y-68526247D02*
X101210839Y-68145295D01*
X101210839Y-68145295D02*
X101163220Y-68050057D01*
X101163220Y-68050057D02*
X101115601Y-68002438D01*
X101115601Y-68002438D02*
X101020363Y-67954819D01*
X101020363Y-67954819D02*
X100829887Y-67954819D01*
X100829887Y-67954819D02*
X100734649Y-68002438D01*
X100734649Y-68002438D02*
X100687030Y-68050057D01*
X100687030Y-68050057D02*
X100639411Y-68145295D01*
X100639411Y-68145295D02*
X100639411Y-68383390D01*
X100639411Y-68383390D02*
X100687030Y-68478628D01*
X100687030Y-68478628D02*
X100734649Y-68526247D01*
X100734649Y-68526247D02*
X100829887Y-68573866D01*
X100829887Y-68573866D02*
X101020363Y-68573866D01*
X101020363Y-68573866D02*
X101115601Y-68526247D01*
X101115601Y-68526247D02*
X101163220Y-68478628D01*
X101163220Y-68478628D02*
X101210839Y-68383390D01*
X86107142Y-75359580D02*
X86059523Y-75407200D01*
X86059523Y-75407200D02*
X85916666Y-75454819D01*
X85916666Y-75454819D02*
X85821428Y-75454819D01*
X85821428Y-75454819D02*
X85678571Y-75407200D01*
X85678571Y-75407200D02*
X85583333Y-75311961D01*
X85583333Y-75311961D02*
X85535714Y-75216723D01*
X85535714Y-75216723D02*
X85488095Y-75026247D01*
X85488095Y-75026247D02*
X85488095Y-74883390D01*
X85488095Y-74883390D02*
X85535714Y-74692914D01*
X85535714Y-74692914D02*
X85583333Y-74597676D01*
X85583333Y-74597676D02*
X85678571Y-74502438D01*
X85678571Y-74502438D02*
X85821428Y-74454819D01*
X85821428Y-74454819D02*
X85916666Y-74454819D01*
X85916666Y-74454819D02*
X86059523Y-74502438D01*
X86059523Y-74502438D02*
X86107142Y-74550057D01*
X87059523Y-75454819D02*
X86488095Y-75454819D01*
X86773809Y-75454819D02*
X86773809Y-74454819D01*
X86773809Y-74454819D02*
X86678571Y-74597676D01*
X86678571Y-74597676D02*
X86583333Y-74692914D01*
X86583333Y-74692914D02*
X86488095Y-74740533D01*
X87440476Y-74550057D02*
X87488095Y-74502438D01*
X87488095Y-74502438D02*
X87583333Y-74454819D01*
X87583333Y-74454819D02*
X87821428Y-74454819D01*
X87821428Y-74454819D02*
X87916666Y-74502438D01*
X87916666Y-74502438D02*
X87964285Y-74550057D01*
X87964285Y-74550057D02*
X88011904Y-74645295D01*
X88011904Y-74645295D02*
X88011904Y-74740533D01*
X88011904Y-74740533D02*
X87964285Y-74883390D01*
X87964285Y-74883390D02*
X87392857Y-75454819D01*
X87392857Y-75454819D02*
X88011904Y-75454819D01*
X112914819Y-65916666D02*
X112438628Y-66249999D01*
X112914819Y-66488094D02*
X111914819Y-66488094D01*
X111914819Y-66488094D02*
X111914819Y-66107142D01*
X111914819Y-66107142D02*
X111962438Y-66011904D01*
X111962438Y-66011904D02*
X112010057Y-65964285D01*
X112010057Y-65964285D02*
X112105295Y-65916666D01*
X112105295Y-65916666D02*
X112248152Y-65916666D01*
X112248152Y-65916666D02*
X112343390Y-65964285D01*
X112343390Y-65964285D02*
X112391009Y-66011904D01*
X112391009Y-66011904D02*
X112438628Y-66107142D01*
X112438628Y-66107142D02*
X112438628Y-66488094D01*
X111914819Y-65011904D02*
X111914819Y-65488094D01*
X111914819Y-65488094D02*
X112391009Y-65535713D01*
X112391009Y-65535713D02*
X112343390Y-65488094D01*
X112343390Y-65488094D02*
X112295771Y-65392856D01*
X112295771Y-65392856D02*
X112295771Y-65154761D01*
X112295771Y-65154761D02*
X112343390Y-65059523D01*
X112343390Y-65059523D02*
X112391009Y-65011904D01*
X112391009Y-65011904D02*
X112486247Y-64964285D01*
X112486247Y-64964285D02*
X112724342Y-64964285D01*
X112724342Y-64964285D02*
X112819580Y-65011904D01*
X112819580Y-65011904D02*
X112867200Y-65059523D01*
X112867200Y-65059523D02*
X112914819Y-65154761D01*
X112914819Y-65154761D02*
X112914819Y-65392856D01*
X112914819Y-65392856D02*
X112867200Y-65488094D01*
X112867200Y-65488094D02*
X112819580Y-65535713D01*
X91204819Y-78666666D02*
X91204819Y-79142856D01*
X91204819Y-79142856D02*
X90204819Y-79142856D01*
X90204819Y-78428570D02*
X90204819Y-77809523D01*
X90204819Y-77809523D02*
X90585771Y-78142856D01*
X90585771Y-78142856D02*
X90585771Y-77999999D01*
X90585771Y-77999999D02*
X90633390Y-77904761D01*
X90633390Y-77904761D02*
X90681009Y-77857142D01*
X90681009Y-77857142D02*
X90776247Y-77809523D01*
X90776247Y-77809523D02*
X91014342Y-77809523D01*
X91014342Y-77809523D02*
X91109580Y-77857142D01*
X91109580Y-77857142D02*
X91157200Y-77904761D01*
X91157200Y-77904761D02*
X91204819Y-77999999D01*
X91204819Y-77999999D02*
X91204819Y-78285713D01*
X91204819Y-78285713D02*
X91157200Y-78380951D01*
X91157200Y-78380951D02*
X91109580Y-78428570D01*
X106974819Y-66341792D02*
X106498628Y-66675125D01*
X106974819Y-66913220D02*
X105974819Y-66913220D01*
X105974819Y-66913220D02*
X105974819Y-66532268D01*
X105974819Y-66532268D02*
X106022438Y-66437030D01*
X106022438Y-66437030D02*
X106070057Y-66389411D01*
X106070057Y-66389411D02*
X106165295Y-66341792D01*
X106165295Y-66341792D02*
X106308152Y-66341792D01*
X106308152Y-66341792D02*
X106403390Y-66389411D01*
X106403390Y-66389411D02*
X106451009Y-66437030D01*
X106451009Y-66437030D02*
X106498628Y-66532268D01*
X106498628Y-66532268D02*
X106498628Y-66913220D01*
X106308152Y-65484649D02*
X106974819Y-65484649D01*
X105927200Y-65722744D02*
X106641485Y-65960839D01*
X106641485Y-65960839D02*
X106641485Y-65341792D01*
X96333333Y-70704819D02*
X95857143Y-70704819D01*
X95857143Y-70704819D02*
X95857143Y-69704819D01*
X97190476Y-70704819D02*
X96619048Y-70704819D01*
X96904762Y-70704819D02*
X96904762Y-69704819D01*
X96904762Y-69704819D02*
X96809524Y-69847676D01*
X96809524Y-69847676D02*
X96714286Y-69942914D01*
X96714286Y-69942914D02*
X96619048Y-69990533D01*
X110465057Y-62443922D02*
X110417438Y-62539160D01*
X110417438Y-62539160D02*
X110322200Y-62634398D01*
X110322200Y-62634398D02*
X110179342Y-62777255D01*
X110179342Y-62777255D02*
X110131723Y-62872493D01*
X110131723Y-62872493D02*
X110131723Y-62967731D01*
X110369819Y-62920112D02*
X110322200Y-63015350D01*
X110322200Y-63015350D02*
X110226961Y-63110588D01*
X110226961Y-63110588D02*
X110036485Y-63158207D01*
X110036485Y-63158207D02*
X109703152Y-63158207D01*
X109703152Y-63158207D02*
X109512676Y-63110588D01*
X109512676Y-63110588D02*
X109417438Y-63015350D01*
X109417438Y-63015350D02*
X109369819Y-62920112D01*
X109369819Y-62920112D02*
X109369819Y-62729636D01*
X109369819Y-62729636D02*
X109417438Y-62634398D01*
X109417438Y-62634398D02*
X109512676Y-62539160D01*
X109512676Y-62539160D02*
X109703152Y-62491541D01*
X109703152Y-62491541D02*
X110036485Y-62491541D01*
X110036485Y-62491541D02*
X110226961Y-62539160D01*
X110226961Y-62539160D02*
X110322200Y-62634398D01*
X110322200Y-62634398D02*
X110369819Y-62729636D01*
X110369819Y-62729636D02*
X110369819Y-62920112D01*
X110369819Y-61539160D02*
X110369819Y-62110588D01*
X110369819Y-61824874D02*
X109369819Y-61824874D01*
X109369819Y-61824874D02*
X109512676Y-61920112D01*
X109512676Y-61920112D02*
X109607914Y-62015350D01*
X109607914Y-62015350D02*
X109655533Y-62110588D01*
X112914819Y-79392857D02*
X112438628Y-79726190D01*
X112914819Y-79964285D02*
X111914819Y-79964285D01*
X111914819Y-79964285D02*
X111914819Y-79583333D01*
X111914819Y-79583333D02*
X111962438Y-79488095D01*
X111962438Y-79488095D02*
X112010057Y-79440476D01*
X112010057Y-79440476D02*
X112105295Y-79392857D01*
X112105295Y-79392857D02*
X112248152Y-79392857D01*
X112248152Y-79392857D02*
X112343390Y-79440476D01*
X112343390Y-79440476D02*
X112391009Y-79488095D01*
X112391009Y-79488095D02*
X112438628Y-79583333D01*
X112438628Y-79583333D02*
X112438628Y-79964285D01*
X112914819Y-78440476D02*
X112914819Y-79011904D01*
X112914819Y-78726190D02*
X111914819Y-78726190D01*
X111914819Y-78726190D02*
X112057676Y-78821428D01*
X112057676Y-78821428D02*
X112152914Y-78916666D01*
X112152914Y-78916666D02*
X112200533Y-79011904D01*
X111914819Y-77535714D02*
X111914819Y-78011904D01*
X111914819Y-78011904D02*
X112391009Y-78059523D01*
X112391009Y-78059523D02*
X112343390Y-78011904D01*
X112343390Y-78011904D02*
X112295771Y-77916666D01*
X112295771Y-77916666D02*
X112295771Y-77678571D01*
X112295771Y-77678571D02*
X112343390Y-77583333D01*
X112343390Y-77583333D02*
X112391009Y-77535714D01*
X112391009Y-77535714D02*
X112486247Y-77488095D01*
X112486247Y-77488095D02*
X112724342Y-77488095D01*
X112724342Y-77488095D02*
X112819580Y-77535714D01*
X112819580Y-77535714D02*
X112867200Y-77583333D01*
X112867200Y-77583333D02*
X112914819Y-77678571D01*
X112914819Y-77678571D02*
X112914819Y-77916666D01*
X112914819Y-77916666D02*
X112867200Y-78011904D01*
X112867200Y-78011904D02*
X112819580Y-78059523D01*
X98158207Y-71859580D02*
X98110588Y-71907200D01*
X98110588Y-71907200D02*
X97967731Y-71954819D01*
X97967731Y-71954819D02*
X97872493Y-71954819D01*
X97872493Y-71954819D02*
X97729636Y-71907200D01*
X97729636Y-71907200D02*
X97634398Y-71811961D01*
X97634398Y-71811961D02*
X97586779Y-71716723D01*
X97586779Y-71716723D02*
X97539160Y-71526247D01*
X97539160Y-71526247D02*
X97539160Y-71383390D01*
X97539160Y-71383390D02*
X97586779Y-71192914D01*
X97586779Y-71192914D02*
X97634398Y-71097676D01*
X97634398Y-71097676D02*
X97729636Y-71002438D01*
X97729636Y-71002438D02*
X97872493Y-70954819D01*
X97872493Y-70954819D02*
X97967731Y-70954819D01*
X97967731Y-70954819D02*
X98110588Y-71002438D01*
X98110588Y-71002438D02*
X98158207Y-71050057D01*
X98491541Y-70954819D02*
X99158207Y-70954819D01*
X99158207Y-70954819D02*
X98729636Y-71954819D01*
X106954819Y-69841792D02*
X106478628Y-70175125D01*
X106954819Y-70413220D02*
X105954819Y-70413220D01*
X105954819Y-70413220D02*
X105954819Y-70032268D01*
X105954819Y-70032268D02*
X106002438Y-69937030D01*
X106002438Y-69937030D02*
X106050057Y-69889411D01*
X106050057Y-69889411D02*
X106145295Y-69841792D01*
X106145295Y-69841792D02*
X106288152Y-69841792D01*
X106288152Y-69841792D02*
X106383390Y-69889411D01*
X106383390Y-69889411D02*
X106431009Y-69937030D01*
X106431009Y-69937030D02*
X106478628Y-70032268D01*
X106478628Y-70032268D02*
X106478628Y-70413220D01*
X106383390Y-69270363D02*
X106335771Y-69365601D01*
X106335771Y-69365601D02*
X106288152Y-69413220D01*
X106288152Y-69413220D02*
X106192914Y-69460839D01*
X106192914Y-69460839D02*
X106145295Y-69460839D01*
X106145295Y-69460839D02*
X106050057Y-69413220D01*
X106050057Y-69413220D02*
X106002438Y-69365601D01*
X106002438Y-69365601D02*
X105954819Y-69270363D01*
X105954819Y-69270363D02*
X105954819Y-69079887D01*
X105954819Y-69079887D02*
X106002438Y-68984649D01*
X106002438Y-68984649D02*
X106050057Y-68937030D01*
X106050057Y-68937030D02*
X106145295Y-68889411D01*
X106145295Y-68889411D02*
X106192914Y-68889411D01*
X106192914Y-68889411D02*
X106288152Y-68937030D01*
X106288152Y-68937030D02*
X106335771Y-68984649D01*
X106335771Y-68984649D02*
X106383390Y-69079887D01*
X106383390Y-69079887D02*
X106383390Y-69270363D01*
X106383390Y-69270363D02*
X106431009Y-69365601D01*
X106431009Y-69365601D02*
X106478628Y-69413220D01*
X106478628Y-69413220D02*
X106573866Y-69460839D01*
X106573866Y-69460839D02*
X106764342Y-69460839D01*
X106764342Y-69460839D02*
X106859580Y-69413220D01*
X106859580Y-69413220D02*
X106907200Y-69365601D01*
X106907200Y-69365601D02*
X106954819Y-69270363D01*
X106954819Y-69270363D02*
X106954819Y-69079887D01*
X106954819Y-69079887D02*
X106907200Y-68984649D01*
X106907200Y-68984649D02*
X106859580Y-68937030D01*
X106859580Y-68937030D02*
X106764342Y-68889411D01*
X106764342Y-68889411D02*
X106573866Y-68889411D01*
X106573866Y-68889411D02*
X106478628Y-68937030D01*
X106478628Y-68937030D02*
X106431009Y-68984649D01*
X106431009Y-68984649D02*
X106383390Y-69079887D01*
X92357142Y-70454819D02*
X92023809Y-69978628D01*
X91785714Y-70454819D02*
X91785714Y-69454819D01*
X91785714Y-69454819D02*
X92166666Y-69454819D01*
X92166666Y-69454819D02*
X92261904Y-69502438D01*
X92261904Y-69502438D02*
X92309523Y-69550057D01*
X92309523Y-69550057D02*
X92357142Y-69645295D01*
X92357142Y-69645295D02*
X92357142Y-69788152D01*
X92357142Y-69788152D02*
X92309523Y-69883390D01*
X92309523Y-69883390D02*
X92261904Y-69931009D01*
X92261904Y-69931009D02*
X92166666Y-69978628D01*
X92166666Y-69978628D02*
X91785714Y-69978628D01*
X93309523Y-70454819D02*
X92738095Y-70454819D01*
X93023809Y-70454819D02*
X93023809Y-69454819D01*
X93023809Y-69454819D02*
X92928571Y-69597676D01*
X92928571Y-69597676D02*
X92833333Y-69692914D01*
X92833333Y-69692914D02*
X92738095Y-69740533D01*
X94166666Y-69454819D02*
X93976190Y-69454819D01*
X93976190Y-69454819D02*
X93880952Y-69502438D01*
X93880952Y-69502438D02*
X93833333Y-69550057D01*
X93833333Y-69550057D02*
X93738095Y-69692914D01*
X93738095Y-69692914D02*
X93690476Y-69883390D01*
X93690476Y-69883390D02*
X93690476Y-70264342D01*
X93690476Y-70264342D02*
X93738095Y-70359580D01*
X93738095Y-70359580D02*
X93785714Y-70407200D01*
X93785714Y-70407200D02*
X93880952Y-70454819D01*
X93880952Y-70454819D02*
X94071428Y-70454819D01*
X94071428Y-70454819D02*
X94166666Y-70407200D01*
X94166666Y-70407200D02*
X94214285Y-70359580D01*
X94214285Y-70359580D02*
X94261904Y-70264342D01*
X94261904Y-70264342D02*
X94261904Y-70026247D01*
X94261904Y-70026247D02*
X94214285Y-69931009D01*
X94214285Y-69931009D02*
X94166666Y-69883390D01*
X94166666Y-69883390D02*
X94071428Y-69835771D01*
X94071428Y-69835771D02*
X93880952Y-69835771D01*
X93880952Y-69835771D02*
X93785714Y-69883390D01*
X93785714Y-69883390D02*
X93738095Y-69931009D01*
X93738095Y-69931009D02*
X93690476Y-70026247D01*
X106954819Y-79341792D02*
X106478628Y-79675125D01*
X106954819Y-79913220D02*
X105954819Y-79913220D01*
X105954819Y-79913220D02*
X105954819Y-79532268D01*
X105954819Y-79532268D02*
X106002438Y-79437030D01*
X106002438Y-79437030D02*
X106050057Y-79389411D01*
X106050057Y-79389411D02*
X106145295Y-79341792D01*
X106145295Y-79341792D02*
X106288152Y-79341792D01*
X106288152Y-79341792D02*
X106383390Y-79389411D01*
X106383390Y-79389411D02*
X106431009Y-79437030D01*
X106431009Y-79437030D02*
X106478628Y-79532268D01*
X106478628Y-79532268D02*
X106478628Y-79913220D01*
X106954819Y-78389411D02*
X106954819Y-78960839D01*
X106954819Y-78675125D02*
X105954819Y-78675125D01*
X105954819Y-78675125D02*
X106097676Y-78770363D01*
X106097676Y-78770363D02*
X106192914Y-78865601D01*
X106192914Y-78865601D02*
X106240533Y-78960839D01*
X106050057Y-78008458D02*
X106002438Y-77960839D01*
X106002438Y-77960839D02*
X105954819Y-77865601D01*
X105954819Y-77865601D02*
X105954819Y-77627506D01*
X105954819Y-77627506D02*
X106002438Y-77532268D01*
X106002438Y-77532268D02*
X106050057Y-77484649D01*
X106050057Y-77484649D02*
X106145295Y-77437030D01*
X106145295Y-77437030D02*
X106240533Y-77437030D01*
X106240533Y-77437030D02*
X106383390Y-77484649D01*
X106383390Y-77484649D02*
X106954819Y-78056077D01*
X106954819Y-78056077D02*
X106954819Y-77437030D01*
X112819580Y-62916666D02*
X112867200Y-62964285D01*
X112867200Y-62964285D02*
X112914819Y-63107142D01*
X112914819Y-63107142D02*
X112914819Y-63202380D01*
X112914819Y-63202380D02*
X112867200Y-63345237D01*
X112867200Y-63345237D02*
X112771961Y-63440475D01*
X112771961Y-63440475D02*
X112676723Y-63488094D01*
X112676723Y-63488094D02*
X112486247Y-63535713D01*
X112486247Y-63535713D02*
X112343390Y-63535713D01*
X112343390Y-63535713D02*
X112152914Y-63488094D01*
X112152914Y-63488094D02*
X112057676Y-63440475D01*
X112057676Y-63440475D02*
X111962438Y-63345237D01*
X111962438Y-63345237D02*
X111914819Y-63202380D01*
X111914819Y-63202380D02*
X111914819Y-63107142D01*
X111914819Y-63107142D02*
X111962438Y-62964285D01*
X111962438Y-62964285D02*
X112010057Y-62916666D01*
X112010057Y-62535713D02*
X111962438Y-62488094D01*
X111962438Y-62488094D02*
X111914819Y-62392856D01*
X111914819Y-62392856D02*
X111914819Y-62154761D01*
X111914819Y-62154761D02*
X111962438Y-62059523D01*
X111962438Y-62059523D02*
X112010057Y-62011904D01*
X112010057Y-62011904D02*
X112105295Y-61964285D01*
X112105295Y-61964285D02*
X112200533Y-61964285D01*
X112200533Y-61964285D02*
X112343390Y-62011904D01*
X112343390Y-62011904D02*
X112914819Y-62583332D01*
X112914819Y-62583332D02*
X112914819Y-61964285D01*
D11*
X84830000Y-76995000D02*
X84830000Y-79595000D01*
X82170000Y-79595000D02*
X84830000Y-79595000D01*
X82170000Y-76995000D02*
X84830000Y-76995000D01*
X82170000Y-76995000D02*
X82170000Y-79595000D01*
X82170000Y-75725000D02*
X82170000Y-74395000D01*
X82170000Y-74395000D02*
X83500000Y-74395000D01*
X107750000Y-71000000D02*
X107510000Y-70670000D01*
X107990000Y-70670000D01*
X107750000Y-71000000D01*
G36*
X107750000Y-71000000D02*
G01*
X107510000Y-70670000D01*
X107990000Y-70670000D01*
X107750000Y-71000000D01*
G37*
X110310000Y-69805000D02*
X110310000Y-71655000D01*
X109420000Y-69805000D02*
X110310000Y-69805000D01*
X107190000Y-69790000D02*
X108080000Y-69790000D01*
X107190000Y-69790000D02*
X107190000Y-71640000D01*
X94290580Y-74490000D02*
X94009420Y-74490000D01*
X94290580Y-75510000D02*
X94009420Y-75510000D01*
X111772500Y-72487258D02*
X111772500Y-72012742D01*
X110727500Y-72487258D02*
X110727500Y-72012742D01*
X94290580Y-72990000D02*
X94009420Y-72990000D01*
X94290580Y-74010000D02*
X94009420Y-74010000D01*
X89220000Y-69450000D02*
X88980000Y-69120000D01*
X89460000Y-69120000D01*
X89220000Y-69450000D01*
G36*
X89220000Y-69450000D02*
G01*
X88980000Y-69120000D01*
X89460000Y-69120000D01*
X89220000Y-69450000D01*
G37*
X91460000Y-69440000D02*
X91460000Y-70330000D01*
X91460000Y-69440000D02*
X89610000Y-69440000D01*
X91445000Y-72560000D02*
X89595000Y-72560000D01*
X91445000Y-71670000D02*
X91445000Y-72560000D01*
X102859420Y-62990000D02*
X103140580Y-62990000D01*
X102859420Y-64010000D02*
X103140580Y-64010000D01*
X88290000Y-60250000D02*
X94540000Y-60250000D01*
X88290000Y-67750000D02*
X94540000Y-67750000D01*
X88290000Y-67750000D02*
G75*
G02*
X88290000Y-60250000I0J3750000D01*
G01*
X94540000Y-60250000D02*
G75*
G02*
X94540000Y-67750000I0J-3750000D01*
G01*
X93365000Y-76990000D02*
X93365000Y-80010000D01*
X93365000Y-80010000D02*
X97750000Y-80010000D01*
X97750000Y-76990000D02*
X93365000Y-76990000D01*
X87260000Y-69390580D02*
X87260000Y-69109420D01*
X86240000Y-69390580D02*
X86240000Y-69109420D01*
X90912742Y-74477500D02*
X91387258Y-74477500D01*
X90912742Y-75522500D02*
X91387258Y-75522500D01*
X104727500Y-72487258D02*
X104727500Y-72012742D01*
X105772500Y-72487258D02*
X105772500Y-72012742D01*
X102859420Y-65990000D02*
X103140580Y-65990000D01*
X102859420Y-67010000D02*
X103140580Y-67010000D01*
X85685000Y-69113748D02*
X85685000Y-71886252D01*
X82265000Y-69113748D02*
X82265000Y-71886252D01*
X102859420Y-77010000D02*
X103140580Y-77010000D01*
X102859420Y-75990000D02*
X103140580Y-75990000D01*
X102762742Y-64477500D02*
X103237258Y-64477500D01*
X102762742Y-65522500D02*
X103237258Y-65522500D01*
X102859420Y-78990000D02*
X103140580Y-78990000D01*
X102859420Y-80010000D02*
X103140580Y-80010000D01*
X103237258Y-61477500D02*
X102762742Y-61477500D01*
X103237258Y-62522500D02*
X102762742Y-62522500D01*
X103237258Y-75522500D02*
X102762742Y-75522500D01*
X103237258Y-74477500D02*
X102762742Y-74477500D01*
D12*
X85600000Y-77650000D02*
X85600000Y-77650000D01*
X85600000Y-77750000D02*
X85600000Y-77750000D01*
X85600000Y-77650000D02*
G75*
G02*
X85600000Y-77750000I0J-50000D01*
G01*
X85600000Y-77750000D02*
G75*
G02*
X85600000Y-77650000I0J50000D01*
G01*
D11*
X102859420Y-72490000D02*
X103140580Y-72490000D01*
X102859420Y-73510000D02*
X103140580Y-73510000D01*
X107750000Y-77500000D02*
X107510000Y-77170000D01*
X107990000Y-77170000D01*
X107750000Y-77500000D01*
G36*
X107750000Y-77500000D02*
G01*
X107510000Y-77170000D01*
X107990000Y-77170000D01*
X107750000Y-77500000D01*
G37*
X110310000Y-76305000D02*
X110310000Y-78155000D01*
X109420000Y-76305000D02*
X110310000Y-76305000D01*
X107190000Y-76290000D02*
X108080000Y-76290000D01*
X107190000Y-76290000D02*
X107190000Y-78140000D01*
X104727500Y-62987258D02*
X104727500Y-62512742D01*
X105772500Y-62987258D02*
X105772500Y-62512742D01*
X102762742Y-77477500D02*
X103237258Y-77477500D01*
X102762742Y-78522500D02*
X103237258Y-78522500D01*
X111760000Y-69390580D02*
X111760000Y-69109420D01*
X110740000Y-69390580D02*
X110740000Y-69109420D01*
X102859420Y-70510000D02*
X103140580Y-70510000D01*
X102859420Y-69490000D02*
X103140580Y-69490000D01*
X90912742Y-74022500D02*
X91387258Y-74022500D01*
X90912742Y-72977500D02*
X91387258Y-72977500D01*
X105772500Y-75987258D02*
X105772500Y-75512742D01*
X104727500Y-75987258D02*
X104727500Y-75512742D01*
X111760000Y-75890580D02*
X111760000Y-75609420D01*
X110740000Y-75890580D02*
X110740000Y-75609420D01*
X102762742Y-70977500D02*
X103237258Y-70977500D01*
X102762742Y-72022500D02*
X103237258Y-72022500D01*
X103237258Y-69022500D02*
X102762742Y-69022500D01*
X103237258Y-67977500D02*
X102762742Y-67977500D01*
X87334420Y-74010000D02*
X87615580Y-74010000D01*
X87334420Y-72990000D02*
X87615580Y-72990000D01*
X110727500Y-65987258D02*
X110727500Y-65512742D01*
X111772500Y-65987258D02*
X111772500Y-65512742D01*
X90147936Y-77140000D02*
X91352064Y-77140000D01*
X90147936Y-79860000D02*
X91352064Y-79860000D01*
X104727500Y-65987258D02*
X104727500Y-65512742D01*
X105772500Y-65987258D02*
X105772500Y-65512742D01*
X94465000Y-70837221D02*
X94465000Y-71162779D01*
X95485000Y-70837221D02*
X95485000Y-71162779D01*
X107190000Y-63290000D02*
X107190000Y-65140000D01*
X107190000Y-63290000D02*
X108080000Y-63290000D01*
X109420000Y-63305000D02*
X110310000Y-63305000D01*
X110310000Y-63305000D02*
X110310000Y-65155000D01*
X107750000Y-64500000D02*
X107510000Y-64170000D01*
X107990000Y-64170000D01*
X107750000Y-64500000D01*
G36*
X107750000Y-64500000D02*
G01*
X107510000Y-64170000D01*
X107990000Y-64170000D01*
X107750000Y-64500000D01*
G37*
X111772500Y-78987258D02*
X111772500Y-78512742D01*
X110727500Y-78987258D02*
X110727500Y-78512742D01*
X95965000Y-72640580D02*
X95965000Y-72359420D01*
X96985000Y-72640580D02*
X96985000Y-72359420D01*
X105772500Y-69487258D02*
X105772500Y-69012742D01*
X104727500Y-69487258D02*
X104727500Y-69012742D01*
X90987258Y-69022500D02*
X90512742Y-69022500D01*
X90987258Y-67977500D02*
X90512742Y-67977500D01*
X104727500Y-78987258D02*
X104727500Y-78512742D01*
X105772500Y-78987258D02*
X105772500Y-78512742D01*
X110740000Y-62890580D02*
X110740000Y-62609420D01*
X111760000Y-62890580D02*
X111760000Y-62609420D01*
%LPC*%
D12*
X116150000Y-59500000D02*
X116000000Y-59800000D01*
X115700000Y-60000000D01*
X82500000Y-60000000D01*
X82146447Y-60146447D01*
X82000000Y-60500000D01*
X82000000Y-80000000D01*
X82146447Y-80353553D01*
X82500000Y-80500000D01*
X115700000Y-80500000D01*
X116000000Y-80700000D01*
X116150000Y-81000000D01*
X116150000Y-82250000D01*
X80250000Y-82250000D01*
X80250000Y-58250000D01*
X116150000Y-58250000D01*
X116150000Y-59500000D01*
G36*
X116150000Y-59500000D02*
G01*
X116000000Y-59800000D01*
X115700000Y-60000000D01*
X82500000Y-60000000D01*
X82146447Y-60146447D01*
X82000000Y-60500000D01*
X82000000Y-80000000D01*
X82146447Y-80353553D01*
X82500000Y-80500000D01*
X115700000Y-80500000D01*
X116000000Y-80700000D01*
X116150000Y-81000000D01*
X116150000Y-82250000D01*
X80250000Y-82250000D01*
X80250000Y-58250000D01*
X116150000Y-58250000D01*
X116150000Y-59500000D01*
G37*
X114750000Y-65250000D02*
X116500000Y-65250000D01*
X116500000Y-68750000D01*
X114750000Y-68750000D01*
X114750000Y-65250000D01*
G36*
X114750000Y-65250000D02*
G01*
X116500000Y-65250000D01*
X116500000Y-68750000D01*
X114750000Y-68750000D01*
X114750000Y-65250000D01*
G37*
X114750000Y-58250000D02*
X116500000Y-58250000D01*
X116500000Y-62250000D01*
X114750000Y-62250000D01*
X114750000Y-58250000D01*
G36*
X114750000Y-58250000D02*
G01*
X116500000Y-58250000D01*
X116500000Y-62250000D01*
X114750000Y-62250000D01*
X114750000Y-58250000D01*
G37*
X114750000Y-71750000D02*
X116500000Y-71750000D01*
X116500000Y-75250000D01*
X114750000Y-75250000D01*
X114750000Y-71750000D01*
G36*
X114750000Y-71750000D02*
G01*
X116500000Y-71750000D01*
X116500000Y-75250000D01*
X114750000Y-75250000D01*
X114750000Y-71750000D01*
G37*
X114750000Y-78250000D02*
X116500000Y-78250000D01*
X116500000Y-82250000D01*
X114750000Y-82250000D01*
X114750000Y-78250000D01*
G36*
X114750000Y-78250000D02*
G01*
X116500000Y-78250000D01*
X116500000Y-82250000D01*
X114750000Y-82250000D01*
X114750000Y-78250000D01*
G37*
D13*
X83500000Y-75725000D03*
D14*
X83500000Y-78265000D03*
D15*
X108750000Y-69040000D03*
X109700000Y-72460000D03*
X107800000Y-72460000D03*
D16*
X94925000Y-75000000D03*
X93375000Y-75000000D03*
D17*
X111250000Y-71425000D03*
X111250000Y-73075000D03*
D16*
X94925000Y-73500000D03*
X93375000Y-73500000D03*
D18*
X92210000Y-71000000D03*
X88790000Y-71950000D03*
X88790000Y-70050000D03*
D19*
X102225000Y-63500000D03*
X103775000Y-63500000D03*
D20*
X88975000Y-64000000D03*
D21*
X91475000Y-66525000D03*
D20*
X93855000Y-64000000D03*
D22*
X94375000Y-78500000D03*
X97625000Y-78500000D03*
D23*
X86750000Y-68475000D03*
X86750000Y-70025000D03*
D24*
X90325000Y-75000000D03*
X91975000Y-75000000D03*
D17*
X105250000Y-73075000D03*
X105250000Y-71425000D03*
D19*
X102225000Y-66500000D03*
X103775000Y-66500000D03*
D25*
X83975000Y-72725000D03*
X83975000Y-68275000D03*
D26*
X114500000Y-63750000D03*
D19*
X103775000Y-76500000D03*
X102225000Y-76500000D03*
D24*
X102175000Y-65000000D03*
X103825000Y-65000000D03*
D19*
X102225000Y-79500000D03*
X103775000Y-79500000D03*
D27*
X103825000Y-62000000D03*
X102175000Y-62000000D03*
D26*
X114500000Y-76750000D03*
D27*
X102175000Y-75000000D03*
X103825000Y-75000000D03*
D28*
X85750000Y-78500000D03*
D29*
X86750000Y-77875000D03*
X86750000Y-79125000D03*
D28*
X87750000Y-78500000D03*
D19*
X102225000Y-73000000D03*
X103775000Y-73000000D03*
D15*
X108750000Y-75540000D03*
X109700000Y-78960000D03*
X107800000Y-78960000D03*
D17*
X105250000Y-63575000D03*
X105250000Y-61925000D03*
D24*
X102175000Y-78000000D03*
X103825000Y-78000000D03*
D23*
X111250000Y-68475000D03*
X111250000Y-70025000D03*
D19*
X103775000Y-70000000D03*
X102225000Y-70000000D03*
D24*
X91975000Y-73500000D03*
X90325000Y-73500000D03*
D17*
X105250000Y-74925000D03*
X105250000Y-76575000D03*
D23*
X111250000Y-74975000D03*
X111250000Y-76525000D03*
D24*
X102175000Y-71500000D03*
X103825000Y-71500000D03*
D27*
X102175000Y-68500000D03*
X103825000Y-68500000D03*
D19*
X88250000Y-73500000D03*
X86700000Y-73500000D03*
D17*
X111250000Y-66575000D03*
X111250000Y-64925000D03*
D30*
X89262500Y-78500000D03*
X92237500Y-78500000D03*
D17*
X105250000Y-66575000D03*
X105250000Y-64925000D03*
D31*
X94975000Y-70212500D03*
X94975000Y-71787500D03*
D26*
X114500000Y-70250000D03*
D15*
X107800000Y-65960000D03*
X109700000Y-65960000D03*
X108750000Y-62540000D03*
D17*
X111250000Y-77925000D03*
X111250000Y-79575000D03*
D23*
X96475000Y-73275000D03*
X96475000Y-71725000D03*
D17*
X105250000Y-68425000D03*
X105250000Y-70075000D03*
D27*
X89925000Y-68500000D03*
X91575000Y-68500000D03*
D17*
X105250000Y-79575000D03*
X105250000Y-77925000D03*
D23*
X111250000Y-63525000D03*
X111250000Y-61975000D03*
%LPD*%
M02*
