M48
; DRILL file {KiCad 8.0.2} date 2024-06-05T16:41:05+0200
; FORMAT={-:-/ absolute / metric / decimal}
; #@! TF.CreationDate,2024-06-05T16:41:05+02:00
; #@! TF.GenerationSoftware,Kicad,Pcbnew,8.0.2
; #@! TF.FileFunction,Plated,1,2,PTH
FMAT,2
METRIC
; #@! TA.AperFunction,Plated,PTH,ViaDrill
T1C0.600
; #@! TA.AperFunction,Plated,PTH,ComponentDrill
T2C0.800
; #@! TA.AperFunction,Plated,PTH,ComponentDrill
T3C1.000
%
G90
G05
T1
X81.25Y-60.25
X81.25Y-61.5
X81.25Y-62.75
X81.25Y-64.0
X81.25Y-65.25
X81.25Y-66.5
X81.25Y-67.75
X81.25Y-69.0
X81.25Y-70.25
X81.25Y-71.5
X81.25Y-72.75
X81.25Y-74.0
X81.25Y-75.25
X81.25Y-76.5
X81.25Y-77.75
X81.25Y-79.0
X81.25Y-80.25
X82.25Y-59.25
X82.25Y-81.25
X83.0Y-61.25
X83.0Y-65.25
X83.5Y-59.25
X83.5Y-63.25
X83.5Y-81.25
X84.75Y-59.25
X84.75Y-81.25
X86.0Y-59.25
X86.0Y-81.25
X87.25Y-59.25
X87.25Y-81.25
X88.5Y-59.25
X88.5Y-76.25
X88.5Y-81.25
X88.75Y-68.5
X89.0Y-74.75
X89.75Y-59.25
X89.75Y-81.25
X91.0Y-59.25
X91.0Y-81.25
X92.25Y-59.25
X92.25Y-81.25
X93.0Y-68.5
X93.0Y-76.25
X93.5Y-59.25
X93.5Y-81.25
X94.75Y-59.25
X94.75Y-81.25
X94.975Y-68.5
X96.0Y-59.25
X96.0Y-81.25
X96.5Y-75.0
X97.25Y-59.25
X97.25Y-68.0
X97.25Y-81.25
X98.0Y-70.25
X98.0Y-72.75
X98.5Y-59.25
X98.5Y-81.25
X98.75Y-61.25
X99.0Y-74.0
X99.0Y-79.5
X99.05Y-67.0
X99.75Y-59.25
X99.75Y-81.25
X101.0Y-59.25
X101.0Y-63.5
X101.0Y-68.5
X101.0Y-70.0
X101.0Y-74.0
X101.0Y-76.5
X101.0Y-81.25
X102.25Y-59.25
X102.25Y-81.25
X103.5Y-59.25
X103.5Y-81.25
X104.75Y-59.25
X104.75Y-81.25
X105.5Y-60.75
X106.0Y-59.25
X106.031Y-81.246
X106.5Y-67.475
X106.5Y-73.975
X107.25Y-59.25
X107.25Y-81.25
X108.5Y-59.25
X108.5Y-81.25
X109.75Y-59.25
X109.75Y-81.25
X111.0Y-59.25
X111.0Y-81.25
X111.25Y-60.75
X112.25Y-59.25
X112.25Y-81.25
X112.5Y-67.5
X112.5Y-74.0
X113.5Y-59.25
X113.5Y-81.25
X114.75Y-59.25
X114.75Y-81.25
X115.5Y-60.25
X115.5Y-61.5
X115.5Y-66.5
X115.5Y-67.75
X115.5Y-72.75
X115.5Y-74.0
X115.5Y-79.0
X115.5Y-80.25
T2
X88.975Y-64.0
X93.855Y-64.0
T3
X83.5Y-75.725
X83.5Y-78.265
M30
