G04 #@! TF.GenerationSoftware,KiCad,Pcbnew,8.0.2*
G04 #@! TF.CreationDate,2024-06-05T16:41:01+02:00*
G04 #@! TF.ProjectId,Local Oscillator 60 MHz,4c6f6361-6c20-44f7-9363-696c6c61746f,rev?*
G04 #@! TF.SameCoordinates,Original*
G04 #@! TF.FileFunction,Paste,Top*
G04 #@! TF.FilePolarity,Positive*
%FSLAX46Y46*%
G04 Gerber Fmt 4.6, Leading zero omitted, Abs format (unit mm)*
G04 Created by KiCad (PCBNEW 8.0.2) date 2024-06-05 16:41:01*
%MOMM*%
%LPD*%
G01*
G04 APERTURE LIST*
G04 Aperture macros list*
%AMRoundRect*
0 Rectangle with rounded corners*
0 $1 Rounding radius*
0 $2 $3 $4 $5 $6 $7 $8 $9 X,Y pos of 4 corners*
0 Add a 4 corners polygon primitive as box body*
4,1,4,$2,$3,$4,$5,$6,$7,$8,$9,$2,$3,0*
0 Add four circle primitives for the rounded corners*
1,1,$1+$1,$2,$3*
1,1,$1+$1,$4,$5*
1,1,$1+$1,$6,$7*
1,1,$1+$1,$8,$9*
0 Add four rect primitives between the rounded corners*
20,1,$1+$1,$2,$3,$4,$5,0*
20,1,$1+$1,$4,$5,$6,$7,0*
20,1,$1+$1,$6,$7,$8,$9,0*
20,1,$1+$1,$8,$9,$2,$3,0*%
%AMFreePoly0*
4,1,124,3.223017,6.045185,3.225213,6.044748,3.493463,6.030690,3.857889,5.972970,4.214285,5.877474,4.558747,5.745248,4.887500,5.577740,5.196943,5.376785,5.483685,5.144586,5.744586,4.883685,5.976785,4.596943,6.177740,4.287500,6.345248,3.958747,6.477474,3.614285,6.572970,3.257889,6.630690,2.893463,6.650000,2.525000,6.630690,2.156537,6.572970,1.792111,6.477474,1.435715,
6.345248,1.091253,6.177740,0.762500,5.976785,0.453057,5.744586,0.166315,5.483685,-0.094586,5.196943,-0.326785,4.887500,-0.527740,4.558747,-0.695248,4.214285,-0.827474,3.857889,-0.922970,3.493463,-0.980690,3.225213,-0.994748,3.223017,-0.995185,3.216787,-0.995189,3.125000,-1.000000,3.074255,-0.995297,-3.125000,-1.000000,-3.223017,-0.995185,-3.225213,-0.994748,-3.493463,-0.980690,
-3.857889,-0.922970,-4.214285,-0.827474,-4.558747,-0.695248,-4.887500,-0.527740,-5.196943,-0.326785,-5.483685,-0.094586,-5.744586,0.166315,-5.976785,0.453057,-6.177740,0.762500,-6.345248,1.091253,-6.477474,1.435715,-6.572970,1.792111,-6.630690,2.156537,-6.650000,2.525000,-6.643710,2.645020,-4.650000,2.645020,-4.650000,2.404980,-4.612450,2.167895,-4.538273,1.939603,-4.429297,1.725726,
-4.288205,1.531529,-4.118471,1.361795,-3.924274,1.220703,-3.710397,1.111727,-3.482105,1.037550,-3.245020,1.000000,-3.125000,1.000000,-3.074255,0.995297,3.125000,1.000000,3.245020,1.000000,3.482105,1.037550,3.710397,1.111727,3.924274,1.220703,4.118471,1.361795,4.288205,1.531529,4.429297,1.725726,4.538273,1.939603,4.612450,2.167895,4.650000,2.404980,4.650000,2.645020,
4.612450,2.882105,4.538273,3.110397,4.429297,3.324274,4.288205,3.518471,4.118471,3.688205,3.924274,3.829297,3.710397,3.938273,3.482105,4.012450,3.245020,4.050000,3.125000,4.050000,3.074255,4.054702,-3.125000,4.050000,-3.245020,4.050000,-3.482105,4.012450,-3.710397,3.938273,-3.924274,3.829297,-4.118471,3.688205,-4.288205,3.518471,-4.429297,3.324274,-4.538273,3.110397,
-4.612450,2.882105,-4.650000,2.645020,-6.643710,2.645020,-6.630690,2.893463,-6.572970,3.257889,-6.477474,3.614285,-6.345248,3.958747,-6.177740,4.287500,-5.976785,4.596943,-5.744586,4.883685,-5.483685,5.144586,-5.196943,5.376785,-4.887500,5.577740,-4.558747,5.745248,-4.214285,5.877474,-3.857889,5.972970,-3.493463,6.030690,-3.225213,6.044748,-3.223017,6.045185,-3.216787,6.045189,
-3.125000,6.050000,-3.074255,6.045297,3.125000,6.050000,3.223017,6.045185,3.223017,6.045185,$1*%
G04 Aperture macros list end*
%ADD10RoundRect,0.162500X0.162500X-0.837500X0.162500X0.837500X-0.162500X0.837500X-0.162500X-0.837500X0*%
%ADD11RoundRect,0.225000X0.225000X0.250000X-0.225000X0.250000X-0.225000X-0.250000X0.225000X-0.250000X0*%
%ADD12RoundRect,0.200000X0.275000X-0.200000X0.275000X0.200000X-0.275000X0.200000X-0.275000X-0.200000X0*%
%ADD13RoundRect,0.162500X-0.837500X-0.162500X0.837500X-0.162500X0.837500X0.162500X-0.837500X0.162500X0*%
%ADD14RoundRect,0.225000X-0.225000X-0.250000X0.225000X-0.250000X0.225000X0.250000X-0.225000X0.250000X0*%
%ADD15FreePoly0,0.000000*%
%ADD16RoundRect,0.250001X-0.499999X-0.924999X0.499999X-0.924999X0.499999X0.924999X-0.499999X0.924999X0*%
%ADD17RoundRect,0.225000X0.250000X-0.225000X0.250000X0.225000X-0.250000X0.225000X-0.250000X-0.225000X0*%
%ADD18RoundRect,0.200000X-0.200000X-0.275000X0.200000X-0.275000X0.200000X0.275000X-0.200000X0.275000X0*%
%ADD19RoundRect,0.250000X-1.450000X0.400000X-1.450000X-0.400000X1.450000X-0.400000X1.450000X0.400000X0*%
%ADD20R,3.000000X1.750000*%
%ADD21RoundRect,0.200000X0.200000X0.275000X-0.200000X0.275000X-0.200000X-0.275000X0.200000X-0.275000X0*%
%ADD22R,0.600000X0.800000*%
%ADD23R,0.600000X0.650000*%
%ADD24RoundRect,0.250001X-0.462499X-1.074999X0.462499X-1.074999X0.462499X1.074999X-0.462499X1.074999X0*%
%ADD25RoundRect,0.218750X-0.256250X0.218750X-0.256250X-0.218750X0.256250X-0.218750X0.256250X0.218750X0*%
G04 APERTURE END LIST*
D10*
X108750000Y-69040000D03*
X109700000Y-72460000D03*
X107800000Y-72460000D03*
D11*
X94925000Y-75000000D03*
X93375000Y-75000000D03*
D12*
X111250000Y-71425000D03*
X111250000Y-73075000D03*
D11*
X94925000Y-73500000D03*
X93375000Y-73500000D03*
D13*
X92210000Y-71000000D03*
X88790000Y-71950000D03*
X88790000Y-70050000D03*
D14*
X102225000Y-63500000D03*
X103775000Y-63500000D03*
D15*
X91475000Y-66525000D03*
D16*
X94375000Y-78500000D03*
X97625000Y-78500000D03*
D17*
X86750000Y-68475000D03*
X86750000Y-70025000D03*
D18*
X90325000Y-75000000D03*
X91975000Y-75000000D03*
D12*
X105250000Y-73075000D03*
X105250000Y-71425000D03*
D14*
X102225000Y-66500000D03*
X103775000Y-66500000D03*
D19*
X83975000Y-72725000D03*
X83975000Y-68275000D03*
D20*
X114500000Y-63750000D03*
D14*
X103775000Y-76500000D03*
X102225000Y-76500000D03*
D18*
X102175000Y-65000000D03*
X103825000Y-65000000D03*
D14*
X102225000Y-79500000D03*
X103775000Y-79500000D03*
D21*
X103825000Y-62000000D03*
X102175000Y-62000000D03*
D20*
X114500000Y-76750000D03*
D21*
X102175000Y-75000000D03*
X103825000Y-75000000D03*
D22*
X85750000Y-78500000D03*
D23*
X86750000Y-77875000D03*
X86750000Y-79125000D03*
D22*
X87750000Y-78500000D03*
D14*
X102225000Y-73000000D03*
X103775000Y-73000000D03*
D10*
X108750000Y-75540000D03*
X109700000Y-78960000D03*
X107800000Y-78960000D03*
D12*
X105250000Y-63575000D03*
X105250000Y-61925000D03*
D18*
X102175000Y-78000000D03*
X103825000Y-78000000D03*
D17*
X111250000Y-68475000D03*
X111250000Y-70025000D03*
D14*
X103775000Y-70000000D03*
X102225000Y-70000000D03*
D18*
X91975000Y-73500000D03*
X90325000Y-73500000D03*
D12*
X105250000Y-74925000D03*
X105250000Y-76575000D03*
D17*
X111250000Y-74975000D03*
X111250000Y-76525000D03*
D18*
X102175000Y-71500000D03*
X103825000Y-71500000D03*
D21*
X102175000Y-68500000D03*
X103825000Y-68500000D03*
D14*
X88250000Y-73500000D03*
X86700000Y-73500000D03*
D12*
X111250000Y-66575000D03*
X111250000Y-64925000D03*
D24*
X89262500Y-78500000D03*
X92237500Y-78500000D03*
D12*
X105250000Y-66575000D03*
X105250000Y-64925000D03*
D25*
X94975000Y-70212500D03*
X94975000Y-71787500D03*
D20*
X114500000Y-70250000D03*
D10*
X107800000Y-65960000D03*
X109700000Y-65960000D03*
X108750000Y-62540000D03*
D12*
X111250000Y-77925000D03*
X111250000Y-79575000D03*
D17*
X96475000Y-73275000D03*
X96475000Y-71725000D03*
D12*
X105250000Y-68425000D03*
X105250000Y-70075000D03*
D21*
X89925000Y-68500000D03*
X91575000Y-68500000D03*
D12*
X105250000Y-79575000D03*
X105250000Y-77925000D03*
D17*
X111250000Y-63525000D03*
X111250000Y-61975000D03*
M02*
