G04 #@! TF.GenerationSoftware,KiCad,Pcbnew,8.0.2*
G04 #@! TF.CreationDate,2024-06-05T16:45:05+02:00*
G04 #@! TF.ProjectId,IF to LOW_IF Mixer,49462074-6f20-44c4-9f57-5f4946204d69,rev?*
G04 #@! TF.SameCoordinates,Original*
G04 #@! TF.FileFunction,Copper,L2,Bot*
G04 #@! TF.FilePolarity,Positive*
%FSLAX46Y46*%
G04 Gerber Fmt 4.6, Leading zero omitted, Abs format (unit mm)*
G04 Created by KiCad (PCBNEW 8.0.2) date 2024-06-05 16:45:05*
%MOMM*%
%LPD*%
G01*
G04 APERTURE LIST*
G04 #@! TA.AperFunction,ComponentPad*
%ADD10C,2.200000*%
G04 #@! TD*
G04 #@! TA.AperFunction,ComponentPad*
%ADD11O,3.250000X1.900000*%
G04 #@! TD*
G04 #@! TA.AperFunction,ComponentPad*
%ADD12C,1.200000*%
G04 #@! TD*
G04 #@! TA.AperFunction,ComponentPad*
%ADD13R,1.700000X1.700000*%
G04 #@! TD*
G04 #@! TA.AperFunction,ComponentPad*
%ADD14O,1.700000X1.700000*%
G04 #@! TD*
G04 #@! TA.AperFunction,SMDPad,CuDef*
%ADD15R,4.000000X6.000000*%
G04 #@! TD*
G04 #@! TA.AperFunction,ComponentPad*
%ADD16O,1.900000X3.250000*%
G04 #@! TD*
G04 #@! TA.AperFunction,SMDPad,CuDef*
%ADD17R,6.000000X4.000000*%
G04 #@! TD*
G04 #@! TA.AperFunction,ViaPad*
%ADD18C,1.000000*%
G04 #@! TD*
G04 #@! TA.AperFunction,Conductor*
%ADD19C,1.000000*%
G04 #@! TD*
G04 APERTURE END LIST*
D10*
X90500000Y-77500000D03*
X83500000Y-84500000D03*
X83500000Y-81000000D03*
X83500000Y-77500000D03*
D11*
X87000000Y-86000000D03*
D10*
X90500000Y-84500000D03*
X90500000Y-81000000D03*
D11*
X87000000Y-76000000D03*
D12*
X94040000Y-55000000D03*
X91500000Y-55000000D03*
X88960000Y-55000000D03*
D10*
X111500000Y-56500000D03*
X118500000Y-49500000D03*
X118500000Y-53000000D03*
X118500000Y-56500000D03*
D11*
X115000000Y-48000000D03*
D10*
X111500000Y-49500000D03*
X111500000Y-53000000D03*
D11*
X115000000Y-58000000D03*
D13*
X82750000Y-65525000D03*
D14*
X82750000Y-62985000D03*
D15*
X80750000Y-49250000D03*
D12*
X89500000Y-61460000D03*
X89500000Y-64000000D03*
X89500000Y-66540000D03*
D10*
X97500000Y-70500000D03*
X104500000Y-70500000D03*
D11*
X101000000Y-62000000D03*
D10*
X104500000Y-63500000D03*
X97500000Y-63500000D03*
X104500000Y-67000000D03*
X97500000Y-67000000D03*
D11*
X101000000Y-72000000D03*
D10*
X104500000Y-77500000D03*
X104500000Y-84500000D03*
D16*
X106000000Y-81000000D03*
D10*
X101000000Y-84500000D03*
X101000000Y-77500000D03*
X97500000Y-84500000D03*
X97500000Y-77500000D03*
D16*
X96000000Y-81000000D03*
D15*
X80750000Y-70250000D03*
D17*
X98750000Y-46500000D03*
D10*
X118500000Y-77500000D03*
X111500000Y-84500000D03*
D11*
X115000000Y-86000000D03*
D10*
X118500000Y-84500000D03*
X111500000Y-81000000D03*
X118500000Y-81000000D03*
X111500000Y-77500000D03*
D11*
X115000000Y-76000000D03*
D10*
X118500000Y-70500000D03*
X111500000Y-63500000D03*
D11*
X115000000Y-72000000D03*
D10*
X111500000Y-70500000D03*
X111500000Y-67000000D03*
X118500000Y-67000000D03*
X118500000Y-63500000D03*
D11*
X115000000Y-62000000D03*
D18*
X122500000Y-48500000D03*
X116530603Y-88246169D03*
X79250000Y-72250000D03*
X79250000Y-86000000D03*
X122500000Y-53500000D03*
X79250000Y-58500000D03*
X87750000Y-45000000D03*
X79250000Y-46000000D03*
X97750000Y-88250000D03*
X91500000Y-88250000D03*
X81500000Y-45000000D03*
X122500000Y-51000000D03*
X95250000Y-88250000D03*
X109000000Y-88250000D03*
X81500000Y-88250000D03*
X80500000Y-59750000D03*
X118000000Y-60000000D03*
X112750000Y-45000000D03*
X94000000Y-86000000D03*
X101500000Y-88250000D03*
X96000000Y-51750000D03*
X122500000Y-57250000D03*
X115250000Y-45000000D03*
X79250000Y-47250000D03*
X79250000Y-51000000D03*
X122500000Y-71000000D03*
X80250000Y-45000000D03*
X122500000Y-58500000D03*
X99000000Y-88250000D03*
X84000000Y-45000000D03*
X107750000Y-88250000D03*
X121500000Y-88250000D03*
X122500000Y-52250000D03*
X117750000Y-45000000D03*
X102750000Y-45000000D03*
X120250000Y-88250000D03*
X96500000Y-45000000D03*
X79250000Y-61000000D03*
X92750000Y-54000000D03*
X94000000Y-81750000D03*
X94000000Y-83750000D03*
X79250000Y-62250000D03*
X100250000Y-88250000D03*
X122500000Y-84750000D03*
X91500000Y-45000000D03*
X79250000Y-84750000D03*
X114000000Y-45000000D03*
X84000000Y-88250000D03*
X122500000Y-46000000D03*
X122500000Y-63500000D03*
X79250000Y-81000000D03*
X80250000Y-88250000D03*
X95250000Y-45000000D03*
X110250000Y-45000000D03*
X90250000Y-88250000D03*
X106530603Y-44996169D03*
X106500000Y-54750000D03*
X79250000Y-74750000D03*
X84750000Y-61250000D03*
X91500000Y-51750000D03*
X122500000Y-86000000D03*
X79250000Y-53500000D03*
X97500000Y-57750000D03*
X102250000Y-59250000D03*
X105250000Y-45000000D03*
X95500000Y-69500000D03*
X92750000Y-88250000D03*
X79250000Y-82250000D03*
X102500000Y-56000000D03*
X89000000Y-88250000D03*
X105250000Y-88250000D03*
X122500000Y-87250000D03*
X82750000Y-88250000D03*
X86500000Y-62250000D03*
X109000000Y-45000000D03*
X79250000Y-78500000D03*
X122500000Y-79750000D03*
X106500000Y-88250000D03*
X93750000Y-58000000D03*
X79250000Y-68500000D03*
X97500000Y-72500000D03*
X86500000Y-59500000D03*
X79250000Y-56000000D03*
X102750000Y-88250000D03*
X108000000Y-71750000D03*
X97500000Y-60500000D03*
X79250000Y-57250000D03*
X79250000Y-54750000D03*
X89250000Y-58000000D03*
X122500000Y-76000000D03*
X79250000Y-87250000D03*
X101500000Y-45000000D03*
X83750000Y-69000000D03*
X85250000Y-45000000D03*
X122500000Y-56000000D03*
X96500000Y-88250000D03*
X81000000Y-72250000D03*
X120250000Y-60000000D03*
X114000000Y-88250000D03*
X79250000Y-76000000D03*
X99500000Y-55750000D03*
X95000000Y-46500000D03*
X119000000Y-88250000D03*
X117750000Y-88250000D03*
X121500000Y-45000000D03*
X79250000Y-52250000D03*
X79250000Y-64750000D03*
X111500000Y-45000000D03*
X79250000Y-79750000D03*
X79250000Y-73500000D03*
X99250000Y-52000000D03*
X81750000Y-68000000D03*
X112750000Y-88250000D03*
X81000000Y-74250000D03*
X104030603Y-88246169D03*
X88500000Y-69250000D03*
X107750000Y-45000000D03*
X85250000Y-67250000D03*
X120250000Y-45000000D03*
X122500000Y-61000000D03*
X122500000Y-49750000D03*
X108000000Y-51000000D03*
X79250000Y-77250000D03*
X86500000Y-45000000D03*
X122500000Y-81000000D03*
X122500000Y-54750000D03*
X86500000Y-88250000D03*
X104500000Y-72500000D03*
X79250000Y-83500000D03*
X122500000Y-67250000D03*
X122500000Y-82250000D03*
X122500000Y-83500000D03*
X103500000Y-60250000D03*
X87750000Y-88250000D03*
X122500000Y-68500000D03*
X79250000Y-63500000D03*
X109750000Y-54250000D03*
X79250000Y-59750000D03*
X111500000Y-88250000D03*
X122500000Y-59750000D03*
X122500000Y-66000000D03*
X109000000Y-74000000D03*
X122500000Y-62250000D03*
X122500000Y-64750000D03*
X122500000Y-78500000D03*
X94000000Y-45000000D03*
X85000000Y-47250000D03*
X85250000Y-88250000D03*
X122500000Y-73500000D03*
X89000000Y-45000000D03*
X122500000Y-77250000D03*
X82750000Y-47250000D03*
X104000000Y-45000000D03*
X104250000Y-50250000D03*
X122500000Y-74750000D03*
X122500000Y-72250000D03*
X94000000Y-88250000D03*
X90250000Y-45000000D03*
X92750000Y-45000000D03*
X122500000Y-47250000D03*
X79250000Y-66000000D03*
X116500000Y-45000000D03*
X80500000Y-51000000D03*
X122500000Y-69750000D03*
X79250000Y-67250000D03*
X119030603Y-44996169D03*
X110250000Y-88250000D03*
X115250000Y-88250000D03*
X91750000Y-46750000D03*
X108000000Y-60000000D03*
X91500000Y-69250000D03*
X82750000Y-45000000D03*
X86500000Y-47750000D03*
X86500000Y-53750000D03*
D19*
X86500000Y-53750000D02*
X86500000Y-47750000D01*
G04 #@! TA.AperFunction,Conductor*
G36*
X122488074Y-44000002D02*
G01*
X122488781Y-44000006D01*
X122499345Y-44000070D01*
X122500689Y-44000087D01*
X122511891Y-44000293D01*
X122512552Y-44000307D01*
X122546504Y-44001139D01*
X122551750Y-44001381D01*
X122592725Y-44004149D01*
X122603272Y-44005318D01*
X122643853Y-44011592D01*
X122649021Y-44012505D01*
X122691657Y-44020986D01*
X122697552Y-44022310D01*
X122783680Y-44043883D01*
X122795321Y-44047415D01*
X122876028Y-44076293D01*
X122887255Y-44080943D01*
X122964760Y-44117600D01*
X122975485Y-44123332D01*
X123049008Y-44167400D01*
X123059118Y-44174155D01*
X123127976Y-44225223D01*
X123137378Y-44232940D01*
X123200890Y-44290504D01*
X123209495Y-44299109D01*
X123267059Y-44362621D01*
X123274779Y-44372028D01*
X123325839Y-44440875D01*
X123332599Y-44450992D01*
X123376665Y-44524511D01*
X123382402Y-44535244D01*
X123419051Y-44612733D01*
X123423707Y-44623974D01*
X123452585Y-44704681D01*
X123456118Y-44716327D01*
X123477685Y-44802430D01*
X123479018Y-44808366D01*
X123487486Y-44850934D01*
X123488413Y-44856182D01*
X123494678Y-44896707D01*
X123495852Y-44907292D01*
X123498617Y-44948212D01*
X123498862Y-44953539D01*
X123499691Y-44987416D01*
X123499707Y-44988169D01*
X123499910Y-44999207D01*
X123499929Y-45000723D01*
X123499998Y-45011915D01*
X123500000Y-45012679D01*
X123500000Y-88237320D01*
X123499998Y-88238084D01*
X123499929Y-88249276D01*
X123499910Y-88250792D01*
X123499707Y-88261830D01*
X123499691Y-88262583D01*
X123498862Y-88296460D01*
X123498617Y-88301787D01*
X123495852Y-88342707D01*
X123494678Y-88353292D01*
X123488413Y-88393817D01*
X123487486Y-88399065D01*
X123479018Y-88441633D01*
X123477685Y-88447569D01*
X123456118Y-88533672D01*
X123452585Y-88545318D01*
X123423707Y-88626025D01*
X123419051Y-88637267D01*
X123382403Y-88714753D01*
X123376667Y-88725484D01*
X123332601Y-88799005D01*
X123325840Y-88809124D01*
X123274779Y-88877972D01*
X123267059Y-88887378D01*
X123209495Y-88950890D01*
X123200890Y-88959495D01*
X123137378Y-89017059D01*
X123127972Y-89024779D01*
X123059124Y-89075840D01*
X123049005Y-89082601D01*
X122975484Y-89126667D01*
X122964753Y-89132403D01*
X122887267Y-89169051D01*
X122876025Y-89173707D01*
X122795318Y-89202585D01*
X122783672Y-89206118D01*
X122697569Y-89227685D01*
X122691633Y-89229018D01*
X122649065Y-89237486D01*
X122643817Y-89238413D01*
X122603292Y-89244678D01*
X122592707Y-89245852D01*
X122551787Y-89248617D01*
X122546460Y-89248862D01*
X122512583Y-89249691D01*
X122511830Y-89249707D01*
X122500792Y-89249910D01*
X122499277Y-89249929D01*
X122489042Y-89249992D01*
X122488074Y-89249998D01*
X122487321Y-89250000D01*
X79262679Y-89250000D01*
X79261924Y-89249998D01*
X79261095Y-89249992D01*
X79250723Y-89249929D01*
X79249207Y-89249910D01*
X79238169Y-89249707D01*
X79237416Y-89249691D01*
X79203539Y-89248862D01*
X79198212Y-89248617D01*
X79157292Y-89245852D01*
X79146707Y-89244678D01*
X79106182Y-89238413D01*
X79100941Y-89237487D01*
X79079554Y-89233233D01*
X79058366Y-89229018D01*
X79052430Y-89227685D01*
X78966327Y-89206118D01*
X78954681Y-89202585D01*
X78873974Y-89173707D01*
X78862732Y-89169051D01*
X78785246Y-89132403D01*
X78774515Y-89126667D01*
X78700996Y-89082602D01*
X78690878Y-89075841D01*
X78622033Y-89024783D01*
X78612626Y-89017063D01*
X78549109Y-88959495D01*
X78540504Y-88950890D01*
X78482940Y-88887378D01*
X78475220Y-88877972D01*
X78424159Y-88809124D01*
X78417398Y-88799005D01*
X78373332Y-88725484D01*
X78367596Y-88714753D01*
X78330943Y-88637255D01*
X78326292Y-88626025D01*
X78297416Y-88545324D01*
X78293883Y-88533678D01*
X78272310Y-88447552D01*
X78270986Y-88441657D01*
X78262505Y-88399021D01*
X78261592Y-88393853D01*
X78255318Y-88353272D01*
X78254149Y-88342727D01*
X78251380Y-88301752D01*
X78251138Y-88296492D01*
X78250305Y-88262482D01*
X78250292Y-88261830D01*
X78250087Y-88250695D01*
X78250070Y-88249344D01*
X78250002Y-88238073D01*
X78250000Y-88237320D01*
X78250000Y-84500000D01*
X81895052Y-84500000D01*
X81914812Y-84751072D01*
X81973603Y-84995956D01*
X82069980Y-85228631D01*
X82201568Y-85443362D01*
X82202266Y-85444179D01*
X82935387Y-84711059D01*
X82940889Y-84731591D01*
X83019881Y-84868408D01*
X83131592Y-84980119D01*
X83268409Y-85059111D01*
X83288940Y-85064612D01*
X82555819Y-85797732D01*
X82555819Y-85797733D01*
X82556634Y-85798429D01*
X82771368Y-85930019D01*
X83004043Y-86026396D01*
X83248927Y-86085187D01*
X83500000Y-86104947D01*
X83751072Y-86085187D01*
X83995956Y-86026396D01*
X84228631Y-85930019D01*
X84443361Y-85798432D01*
X84443363Y-85798430D01*
X84444180Y-85797732D01*
X83711059Y-85064612D01*
X83731591Y-85059111D01*
X83868408Y-84980119D01*
X83980119Y-84868408D01*
X84059111Y-84731591D01*
X84064612Y-84711059D01*
X84797731Y-85444179D01*
X84805606Y-85443873D01*
X84873362Y-85460932D01*
X84921138Y-85511914D01*
X84933767Y-85580633D01*
X84928366Y-85606097D01*
X84910704Y-85660455D01*
X84896522Y-85750000D01*
X85949722Y-85750000D01*
X85905667Y-85826306D01*
X85875000Y-85940756D01*
X85875000Y-86059244D01*
X85905667Y-86173694D01*
X85949722Y-86250000D01*
X84896522Y-86250000D01*
X84910704Y-86339544D01*
X84981230Y-86556604D01*
X85084849Y-86759966D01*
X85219004Y-86944614D01*
X85380385Y-87105995D01*
X85565033Y-87240150D01*
X85768395Y-87343769D01*
X85985455Y-87414295D01*
X86210884Y-87450000D01*
X86750000Y-87450000D01*
X86750000Y-86450000D01*
X87250000Y-86450000D01*
X87250000Y-87450000D01*
X87789116Y-87450000D01*
X88014544Y-87414295D01*
X88231604Y-87343769D01*
X88434966Y-87240150D01*
X88619614Y-87105995D01*
X88780995Y-86944614D01*
X88915150Y-86759966D01*
X89018769Y-86556604D01*
X89089295Y-86339544D01*
X89103478Y-86250000D01*
X88050278Y-86250000D01*
X88094333Y-86173694D01*
X88125000Y-86059244D01*
X88125000Y-85940756D01*
X88094333Y-85826306D01*
X88050278Y-85750000D01*
X89103478Y-85750000D01*
X89089296Y-85660458D01*
X89071632Y-85606095D01*
X89069636Y-85536254D01*
X89105716Y-85476421D01*
X89168417Y-85445592D01*
X89194435Y-85443872D01*
X89202266Y-85444179D01*
X89935387Y-84711059D01*
X89940889Y-84731591D01*
X90019881Y-84868408D01*
X90131592Y-84980119D01*
X90268409Y-85059111D01*
X90288940Y-85064612D01*
X89555819Y-85797732D01*
X89555819Y-85797733D01*
X89556634Y-85798429D01*
X89771368Y-85930019D01*
X90004043Y-86026396D01*
X90248927Y-86085187D01*
X90500000Y-86104947D01*
X90751072Y-86085187D01*
X90995956Y-86026396D01*
X91228631Y-85930019D01*
X91443361Y-85798432D01*
X91443363Y-85798430D01*
X91444180Y-85797732D01*
X90711059Y-85064612D01*
X90731591Y-85059111D01*
X90868408Y-84980119D01*
X90980119Y-84868408D01*
X91059111Y-84731591D01*
X91064612Y-84711060D01*
X91797732Y-85444180D01*
X91798430Y-85443363D01*
X91798432Y-85443361D01*
X91930019Y-85228631D01*
X92026396Y-84995956D01*
X92085187Y-84751072D01*
X92104947Y-84500000D01*
X92085187Y-84248927D01*
X92026396Y-84004043D01*
X91930019Y-83771368D01*
X91798429Y-83556634D01*
X91797733Y-83555819D01*
X91797732Y-83555819D01*
X91064612Y-84288939D01*
X91059111Y-84268409D01*
X90980119Y-84131592D01*
X90868408Y-84019881D01*
X90731591Y-83940889D01*
X90711059Y-83935387D01*
X91444179Y-83202266D01*
X91443362Y-83201568D01*
X91228631Y-83069980D01*
X90995956Y-82973603D01*
X90751072Y-82914812D01*
X90500000Y-82895052D01*
X90248927Y-82914812D01*
X90004043Y-82973603D01*
X89771368Y-83069980D01*
X89556637Y-83201567D01*
X89555819Y-83202266D01*
X90288940Y-83935387D01*
X90268409Y-83940889D01*
X90131592Y-84019881D01*
X90019881Y-84131592D01*
X89940889Y-84268409D01*
X89935387Y-84288940D01*
X89202266Y-83555819D01*
X89201567Y-83556637D01*
X89069980Y-83771368D01*
X88973603Y-84004043D01*
X88914812Y-84248927D01*
X88895052Y-84500000D01*
X88914812Y-84751072D01*
X88950590Y-84900097D01*
X88947099Y-84969880D01*
X88906435Y-85026697D01*
X88841509Y-85052510D01*
X88772933Y-85039124D01*
X88742335Y-85016725D01*
X88619614Y-84894004D01*
X88434966Y-84759849D01*
X88231604Y-84656230D01*
X88014544Y-84585704D01*
X87789116Y-84550000D01*
X87250000Y-84550000D01*
X87250000Y-85550000D01*
X86750000Y-85550000D01*
X86750000Y-84550000D01*
X86210884Y-84550000D01*
X85985455Y-84585704D01*
X85768395Y-84656230D01*
X85565033Y-84759849D01*
X85380389Y-84894001D01*
X85257664Y-85016726D01*
X85196341Y-85050210D01*
X85126649Y-85045226D01*
X85070716Y-85003354D01*
X85046299Y-84937890D01*
X85049409Y-84900097D01*
X85085187Y-84751071D01*
X85104947Y-84500000D01*
X85085187Y-84248927D01*
X85026396Y-84004043D01*
X84930019Y-83771368D01*
X84798429Y-83556634D01*
X84797733Y-83555819D01*
X84797732Y-83555819D01*
X84064612Y-84288939D01*
X84059111Y-84268409D01*
X83980119Y-84131592D01*
X83868408Y-84019881D01*
X83731591Y-83940889D01*
X83711059Y-83935387D01*
X84444179Y-83202266D01*
X84443362Y-83201568D01*
X84228631Y-83069980D01*
X83995956Y-82973603D01*
X83751072Y-82914812D01*
X83500000Y-82895052D01*
X83248927Y-82914812D01*
X83004043Y-82973603D01*
X82771368Y-83069980D01*
X82556637Y-83201567D01*
X82555819Y-83202266D01*
X83288940Y-83935387D01*
X83268409Y-83940889D01*
X83131592Y-84019881D01*
X83019881Y-84131592D01*
X82940889Y-84268409D01*
X82935387Y-84288940D01*
X82202266Y-83555819D01*
X82201567Y-83556637D01*
X82069980Y-83771368D01*
X81973603Y-84004043D01*
X81914812Y-84248927D01*
X81895052Y-84500000D01*
X78250000Y-84500000D01*
X78250000Y-81000000D01*
X81895052Y-81000000D01*
X81914812Y-81251072D01*
X81973603Y-81495956D01*
X82069980Y-81728631D01*
X82201568Y-81943362D01*
X82202266Y-81944179D01*
X82935387Y-81211059D01*
X82940889Y-81231591D01*
X83019881Y-81368408D01*
X83131592Y-81480119D01*
X83268409Y-81559111D01*
X83288940Y-81564612D01*
X82555819Y-82297732D01*
X82555819Y-82297733D01*
X82556634Y-82298429D01*
X82771368Y-82430019D01*
X83004043Y-82526396D01*
X83248927Y-82585187D01*
X83500000Y-82604947D01*
X83751072Y-82585187D01*
X83995956Y-82526396D01*
X84228631Y-82430019D01*
X84443361Y-82298432D01*
X84443363Y-82298430D01*
X84444180Y-82297732D01*
X83711059Y-81564612D01*
X83731591Y-81559111D01*
X83868408Y-81480119D01*
X83980119Y-81368408D01*
X84059111Y-81231591D01*
X84064612Y-81211059D01*
X84797732Y-81944180D01*
X84798430Y-81943363D01*
X84798432Y-81943361D01*
X84930019Y-81728631D01*
X85026396Y-81495956D01*
X85085187Y-81251072D01*
X85104947Y-81000000D01*
X88895052Y-81000000D01*
X88914812Y-81251072D01*
X88973603Y-81495956D01*
X89069980Y-81728631D01*
X89201568Y-81943362D01*
X89202266Y-81944179D01*
X89935387Y-81211059D01*
X89940889Y-81231591D01*
X90019881Y-81368408D01*
X90131592Y-81480119D01*
X90268409Y-81559111D01*
X90288940Y-81564612D01*
X89555819Y-82297732D01*
X89555819Y-82297733D01*
X89556634Y-82298429D01*
X89771368Y-82430019D01*
X90004043Y-82526396D01*
X90248927Y-82585187D01*
X90500000Y-82604947D01*
X90751072Y-82585187D01*
X90995956Y-82526396D01*
X91228631Y-82430019D01*
X91443361Y-82298432D01*
X91443363Y-82298430D01*
X91444180Y-82297732D01*
X90711059Y-81564612D01*
X90731591Y-81559111D01*
X90868408Y-81480119D01*
X90980119Y-81368408D01*
X91059111Y-81231591D01*
X91064612Y-81211060D01*
X91797732Y-81944180D01*
X91798430Y-81943363D01*
X91798432Y-81943361D01*
X91930019Y-81728631D01*
X92026396Y-81495956D01*
X92085187Y-81251072D01*
X92104947Y-81000000D01*
X92085187Y-80748927D01*
X92026396Y-80504043D01*
X91930019Y-80271368D01*
X91892954Y-80210883D01*
X94550000Y-80210883D01*
X94550000Y-80750000D01*
X95550000Y-80750000D01*
X95550000Y-81250000D01*
X94550000Y-81250000D01*
X94550000Y-81789116D01*
X94585704Y-82014544D01*
X94656230Y-82231604D01*
X94759849Y-82434966D01*
X94894004Y-82619614D01*
X95055385Y-82780995D01*
X95240033Y-82915150D01*
X95443395Y-83018769D01*
X95660455Y-83089295D01*
X95750000Y-83103478D01*
X95750000Y-82050277D01*
X95826306Y-82094333D01*
X95940756Y-82125000D01*
X96059244Y-82125000D01*
X96173694Y-82094333D01*
X96250000Y-82050277D01*
X96250000Y-83103477D01*
X96339541Y-83089296D01*
X96393905Y-83071632D01*
X96463746Y-83069636D01*
X96523579Y-83105716D01*
X96554408Y-83168417D01*
X96556127Y-83194470D01*
X96555818Y-83202265D01*
X97288940Y-83935387D01*
X97268409Y-83940889D01*
X97131592Y-84019881D01*
X97019881Y-84131592D01*
X96940889Y-84268409D01*
X96935387Y-84288940D01*
X96202266Y-83555819D01*
X96201567Y-83556637D01*
X96069980Y-83771368D01*
X95973603Y-84004043D01*
X95914812Y-84248927D01*
X95895052Y-84500000D01*
X95914812Y-84751072D01*
X95973603Y-84995956D01*
X96069980Y-85228631D01*
X96201568Y-85443362D01*
X96202266Y-85444179D01*
X96935387Y-84711059D01*
X96940889Y-84731591D01*
X97019881Y-84868408D01*
X97131592Y-84980119D01*
X97268409Y-85059111D01*
X97288940Y-85064612D01*
X96555819Y-85797732D01*
X96555819Y-85797733D01*
X96556634Y-85798429D01*
X96771368Y-85930019D01*
X97004043Y-86026396D01*
X97248927Y-86085187D01*
X97500000Y-86104947D01*
X97751072Y-86085187D01*
X97995956Y-86026396D01*
X98228631Y-85930019D01*
X98443361Y-85798432D01*
X98443363Y-85798430D01*
X98444180Y-85797732D01*
X97711059Y-85064612D01*
X97731591Y-85059111D01*
X97868408Y-84980119D01*
X97980119Y-84868408D01*
X98059111Y-84731591D01*
X98064612Y-84711059D01*
X98797732Y-85444180D01*
X98798430Y-85443363D01*
X98798432Y-85443361D01*
X98930019Y-85228631D01*
X99026396Y-84995956D01*
X99085187Y-84751072D01*
X99104947Y-84500000D01*
X99395052Y-84500000D01*
X99414812Y-84751072D01*
X99473603Y-84995956D01*
X99569980Y-85228631D01*
X99701568Y-85443362D01*
X99702266Y-85444179D01*
X100435387Y-84711059D01*
X100440889Y-84731591D01*
X100519881Y-84868408D01*
X100631592Y-84980119D01*
X100768409Y-85059111D01*
X100788940Y-85064612D01*
X100055819Y-85797732D01*
X100055819Y-85797733D01*
X100056634Y-85798429D01*
X100271368Y-85930019D01*
X100504043Y-86026396D01*
X100748927Y-86085187D01*
X101000000Y-86104947D01*
X101251072Y-86085187D01*
X101495956Y-86026396D01*
X101728631Y-85930019D01*
X101943361Y-85798432D01*
X101943363Y-85798430D01*
X101944180Y-85797732D01*
X101211059Y-85064612D01*
X101231591Y-85059111D01*
X101368408Y-84980119D01*
X101480119Y-84868408D01*
X101559111Y-84731591D01*
X101564612Y-84711060D01*
X102297732Y-85444180D01*
X102298430Y-85443363D01*
X102298432Y-85443361D01*
X102430019Y-85228631D01*
X102526396Y-84995956D01*
X102585187Y-84751072D01*
X102604947Y-84500000D01*
X102585187Y-84248927D01*
X102526396Y-84004043D01*
X102430019Y-83771368D01*
X102298429Y-83556634D01*
X102297733Y-83555819D01*
X102297732Y-83555819D01*
X101564612Y-84288939D01*
X101559111Y-84268409D01*
X101480119Y-84131592D01*
X101368408Y-84019881D01*
X101231591Y-83940889D01*
X101211059Y-83935387D01*
X101944179Y-83202266D01*
X101943362Y-83201568D01*
X101728631Y-83069980D01*
X101495956Y-82973603D01*
X101251072Y-82914812D01*
X101000000Y-82895052D01*
X100748927Y-82914812D01*
X100504043Y-82973603D01*
X100271368Y-83069980D01*
X100056637Y-83201567D01*
X100055819Y-83202266D01*
X100788940Y-83935387D01*
X100768409Y-83940889D01*
X100631592Y-84019881D01*
X100519881Y-84131592D01*
X100440889Y-84268409D01*
X100435387Y-84288940D01*
X99702266Y-83555819D01*
X99701567Y-83556637D01*
X99569980Y-83771368D01*
X99473603Y-84004043D01*
X99414812Y-84248927D01*
X99395052Y-84500000D01*
X99104947Y-84500000D01*
X99085187Y-84248927D01*
X99026396Y-84004043D01*
X98930019Y-83771368D01*
X98798429Y-83556634D01*
X98797733Y-83555819D01*
X98797732Y-83555819D01*
X98064612Y-84288939D01*
X98059111Y-84268409D01*
X97980119Y-84131592D01*
X97868408Y-84019881D01*
X97731591Y-83940889D01*
X97711059Y-83935387D01*
X98444179Y-83202266D01*
X98443362Y-83201568D01*
X98228631Y-83069980D01*
X97995956Y-82973603D01*
X97751072Y-82914812D01*
X97500000Y-82895052D01*
X97248927Y-82914812D01*
X97099902Y-82950590D01*
X97030119Y-82947099D01*
X96973302Y-82906435D01*
X96947489Y-82841508D01*
X96960875Y-82772933D01*
X96983274Y-82742334D01*
X97105998Y-82619610D01*
X97240150Y-82434966D01*
X97343769Y-82231604D01*
X97414295Y-82014544D01*
X97450000Y-81789116D01*
X97450000Y-81250000D01*
X96450000Y-81250000D01*
X96450000Y-80750000D01*
X97450000Y-80750000D01*
X97450000Y-80210883D01*
X97414295Y-79985455D01*
X97343769Y-79768395D01*
X97240150Y-79565033D01*
X97105995Y-79380385D01*
X96983274Y-79257664D01*
X96949789Y-79196341D01*
X96954773Y-79126649D01*
X96996645Y-79070716D01*
X97062109Y-79046299D01*
X97099902Y-79049409D01*
X97248928Y-79085187D01*
X97500000Y-79104947D01*
X97751072Y-79085187D01*
X97995956Y-79026396D01*
X98228631Y-78930019D01*
X98443361Y-78798432D01*
X98443363Y-78798430D01*
X98444180Y-78797732D01*
X97711059Y-78064612D01*
X97731591Y-78059111D01*
X97868408Y-77980119D01*
X97980119Y-77868408D01*
X98059111Y-77731591D01*
X98064612Y-77711059D01*
X98797732Y-78444180D01*
X98798430Y-78443363D01*
X98798432Y-78443361D01*
X98930019Y-78228631D01*
X99026396Y-77995956D01*
X99085187Y-77751072D01*
X99104947Y-77500000D01*
X99395052Y-77500000D01*
X99414812Y-77751072D01*
X99473603Y-77995956D01*
X99569980Y-78228631D01*
X99701568Y-78443362D01*
X99702266Y-78444179D01*
X100435387Y-77711059D01*
X100440889Y-77731591D01*
X100519881Y-77868408D01*
X100631592Y-77980119D01*
X100768409Y-78059111D01*
X100788940Y-78064612D01*
X100055819Y-78797732D01*
X100055819Y-78797733D01*
X100056634Y-78798429D01*
X100271368Y-78930019D01*
X100504043Y-79026396D01*
X100748927Y-79085187D01*
X101000000Y-79104947D01*
X101251072Y-79085187D01*
X101495956Y-79026396D01*
X101728631Y-78930019D01*
X101943361Y-78798432D01*
X101943363Y-78798430D01*
X101944180Y-78797732D01*
X101211059Y-78064612D01*
X101231591Y-78059111D01*
X101368408Y-77980119D01*
X101480119Y-77868408D01*
X101559111Y-77731591D01*
X101564612Y-77711060D01*
X102297732Y-78444180D01*
X102298430Y-78443363D01*
X102298432Y-78443361D01*
X102430019Y-78228631D01*
X102526396Y-77995956D01*
X102585187Y-77751072D01*
X102604947Y-77500000D01*
X102894551Y-77500000D01*
X102914317Y-77751151D01*
X102973126Y-77996110D01*
X103069533Y-78228859D01*
X103201160Y-78443653D01*
X103201161Y-78443656D01*
X103201164Y-78443659D01*
X103364776Y-78635224D01*
X103465830Y-78721532D01*
X103556343Y-78798838D01*
X103556346Y-78798839D01*
X103771140Y-78930466D01*
X103893694Y-78981229D01*
X104003889Y-79026873D01*
X104248852Y-79085683D01*
X104500000Y-79105449D01*
X104751148Y-79085683D01*
X104899421Y-79050086D01*
X104969202Y-79053577D01*
X105026020Y-79094241D01*
X105051833Y-79159167D01*
X105038447Y-79227742D01*
X105016049Y-79258341D01*
X104894001Y-79380389D01*
X104759849Y-79565033D01*
X104656230Y-79768395D01*
X104585704Y-79985455D01*
X104550000Y-80210883D01*
X104550000Y-80750000D01*
X105550000Y-80750000D01*
X105550000Y-81250000D01*
X104550000Y-81250000D01*
X104550000Y-81789116D01*
X104585704Y-82014544D01*
X104656230Y-82231604D01*
X104759849Y-82434966D01*
X104894004Y-82619614D01*
X105016048Y-82741658D01*
X105049533Y-82802981D01*
X105044549Y-82872673D01*
X105002677Y-82928606D01*
X104937213Y-82953023D01*
X104899421Y-82949913D01*
X104751152Y-82914318D01*
X104751148Y-82914317D01*
X104500000Y-82894551D01*
X104248848Y-82914317D01*
X104003889Y-82973126D01*
X103771140Y-83069533D01*
X103556346Y-83201160D01*
X103556343Y-83201161D01*
X103364776Y-83364776D01*
X103201161Y-83556343D01*
X103201160Y-83556346D01*
X103069533Y-83771140D01*
X102973126Y-84003889D01*
X102914317Y-84248848D01*
X102894551Y-84500000D01*
X102914317Y-84751151D01*
X102973126Y-84996110D01*
X103069533Y-85228859D01*
X103201160Y-85443653D01*
X103201161Y-85443656D01*
X103229145Y-85476421D01*
X103364776Y-85635224D01*
X103513066Y-85761875D01*
X103556343Y-85798838D01*
X103556346Y-85798839D01*
X103771140Y-85930466D01*
X104002737Y-86026396D01*
X104003889Y-86026873D01*
X104248852Y-86085683D01*
X104500000Y-86105449D01*
X104751148Y-86085683D01*
X104996111Y-86026873D01*
X105228859Y-85930466D01*
X105443659Y-85798836D01*
X105635224Y-85635224D01*
X105798836Y-85443659D01*
X105930466Y-85228859D01*
X106026873Y-84996111D01*
X106085683Y-84751148D01*
X106105449Y-84500000D01*
X109894551Y-84500000D01*
X109914317Y-84751151D01*
X109973126Y-84996110D01*
X110069533Y-85228859D01*
X110201160Y-85443653D01*
X110201161Y-85443656D01*
X110229145Y-85476421D01*
X110364776Y-85635224D01*
X110513066Y-85761875D01*
X110556343Y-85798838D01*
X110556346Y-85798839D01*
X110771140Y-85930466D01*
X111002737Y-86026396D01*
X111003889Y-86026873D01*
X111248852Y-86085683D01*
X111500000Y-86105449D01*
X111751148Y-86085683D01*
X111996111Y-86026873D01*
X112228859Y-85930466D01*
X112443659Y-85798836D01*
X112635224Y-85635224D01*
X112692785Y-85567828D01*
X112751290Y-85529636D01*
X112821158Y-85529137D01*
X112880205Y-85566491D01*
X112909683Y-85629838D01*
X112909547Y-85667759D01*
X112896521Y-85750000D01*
X113949722Y-85750000D01*
X113905667Y-85826306D01*
X113875000Y-85940756D01*
X113875000Y-86059244D01*
X113905667Y-86173694D01*
X113949722Y-86250000D01*
X112896522Y-86250000D01*
X112910704Y-86339544D01*
X112981230Y-86556604D01*
X113084849Y-86759966D01*
X113219004Y-86944614D01*
X113380385Y-87105995D01*
X113565033Y-87240150D01*
X113768395Y-87343769D01*
X113985455Y-87414295D01*
X114210884Y-87450000D01*
X114750000Y-87450000D01*
X114750000Y-86450000D01*
X115250000Y-86450000D01*
X115250000Y-87450000D01*
X115789116Y-87450000D01*
X116014544Y-87414295D01*
X116231604Y-87343769D01*
X116434966Y-87240150D01*
X116619614Y-87105995D01*
X116780995Y-86944614D01*
X116915150Y-86759966D01*
X117018769Y-86556604D01*
X117089295Y-86339544D01*
X117103478Y-86250000D01*
X116050278Y-86250000D01*
X116094333Y-86173694D01*
X116125000Y-86059244D01*
X116125000Y-85940756D01*
X116094333Y-85826306D01*
X116050278Y-85750000D01*
X117103478Y-85750000D01*
X117089296Y-85660458D01*
X117071632Y-85606095D01*
X117069636Y-85536254D01*
X117105716Y-85476421D01*
X117168417Y-85445592D01*
X117194435Y-85443872D01*
X117202266Y-85444179D01*
X117935387Y-84711059D01*
X117940889Y-84731591D01*
X118019881Y-84868408D01*
X118131592Y-84980119D01*
X118268409Y-85059111D01*
X118288940Y-85064612D01*
X117555819Y-85797732D01*
X117555819Y-85797733D01*
X117556634Y-85798429D01*
X117771368Y-85930019D01*
X118004043Y-86026396D01*
X118248927Y-86085187D01*
X118500000Y-86104947D01*
X118751072Y-86085187D01*
X118995956Y-86026396D01*
X119228631Y-85930019D01*
X119443361Y-85798432D01*
X119443363Y-85798430D01*
X119444180Y-85797732D01*
X118711059Y-85064612D01*
X118731591Y-85059111D01*
X118868408Y-84980119D01*
X118980119Y-84868408D01*
X119059111Y-84731591D01*
X119064612Y-84711059D01*
X119797732Y-85444180D01*
X119798430Y-85443363D01*
X119798432Y-85443361D01*
X119930019Y-85228631D01*
X120026396Y-84995956D01*
X120085187Y-84751072D01*
X120104947Y-84500000D01*
X120085187Y-84248927D01*
X120026396Y-84004043D01*
X119930019Y-83771368D01*
X119798429Y-83556634D01*
X119797733Y-83555819D01*
X119797732Y-83555819D01*
X119064612Y-84288939D01*
X119059111Y-84268409D01*
X118980119Y-84131592D01*
X118868408Y-84019881D01*
X118731591Y-83940889D01*
X118711059Y-83935387D01*
X119444179Y-83202266D01*
X119443362Y-83201568D01*
X119228631Y-83069980D01*
X118995956Y-82973603D01*
X118751072Y-82914812D01*
X118500000Y-82895052D01*
X118248927Y-82914812D01*
X118004043Y-82973603D01*
X117771368Y-83069980D01*
X117556637Y-83201567D01*
X117555819Y-83202266D01*
X118288940Y-83935387D01*
X118268409Y-83940889D01*
X118131592Y-84019881D01*
X118019881Y-84131592D01*
X117940889Y-84268409D01*
X117935387Y-84288940D01*
X117202266Y-83555819D01*
X117201567Y-83556637D01*
X117069980Y-83771368D01*
X116973603Y-84004043D01*
X116914812Y-84248927D01*
X116895052Y-84500000D01*
X116914812Y-84751072D01*
X116950590Y-84900097D01*
X116947099Y-84969880D01*
X116906435Y-85026697D01*
X116841509Y-85052510D01*
X116772933Y-85039124D01*
X116742335Y-85016725D01*
X116619614Y-84894004D01*
X116434966Y-84759849D01*
X116231604Y-84656230D01*
X116014544Y-84585704D01*
X115789116Y-84550000D01*
X115250000Y-84550000D01*
X115250000Y-85550000D01*
X114750000Y-85550000D01*
X114750000Y-84550000D01*
X114210884Y-84550000D01*
X113985455Y-84585704D01*
X113768395Y-84656230D01*
X113565033Y-84759849D01*
X113380389Y-84894001D01*
X113258341Y-85016049D01*
X113197018Y-85049533D01*
X113127326Y-85044549D01*
X113071393Y-85002677D01*
X113046976Y-84937213D01*
X113050086Y-84899420D01*
X113051387Y-84894004D01*
X113085683Y-84751148D01*
X113105449Y-84500000D01*
X113085683Y-84248852D01*
X113026873Y-84003889D01*
X112930466Y-83771141D01*
X112930466Y-83771140D01*
X112799017Y-83556637D01*
X112798838Y-83556345D01*
X112798838Y-83556343D01*
X112761875Y-83513066D01*
X112635224Y-83364776D01*
X112499326Y-83248708D01*
X112443656Y-83201161D01*
X112443653Y-83201160D01*
X112228859Y-83069533D01*
X111996110Y-82973126D01*
X111751151Y-82914317D01*
X111500000Y-82894551D01*
X111248848Y-82914317D01*
X111003889Y-82973126D01*
X110771140Y-83069533D01*
X110556346Y-83201160D01*
X110556343Y-83201161D01*
X110364776Y-83364776D01*
X110201161Y-83556343D01*
X110201160Y-83556346D01*
X110069533Y-83771140D01*
X109973126Y-84003889D01*
X109914317Y-84248848D01*
X109894551Y-84500000D01*
X106105449Y-84500000D01*
X106085683Y-84248852D01*
X106026873Y-84003889D01*
X105930466Y-83771141D01*
X105930466Y-83771140D01*
X105799017Y-83556637D01*
X105798838Y-83556345D01*
X105798838Y-83556343D01*
X105761875Y-83513066D01*
X105635224Y-83364776D01*
X105567829Y-83307215D01*
X105529636Y-83248708D01*
X105529138Y-83178840D01*
X105566492Y-83119794D01*
X105629839Y-83090316D01*
X105667760Y-83090452D01*
X105750000Y-83103477D01*
X105750000Y-82050277D01*
X105826306Y-82094333D01*
X105940756Y-82125000D01*
X106059244Y-82125000D01*
X106173694Y-82094333D01*
X106250000Y-82050277D01*
X106250000Y-83103477D01*
X106339544Y-83089295D01*
X106556604Y-83018769D01*
X106759966Y-82915150D01*
X106944614Y-82780995D01*
X107105995Y-82619614D01*
X107240150Y-82434966D01*
X107343769Y-82231604D01*
X107414295Y-82014544D01*
X107450000Y-81789116D01*
X107450000Y-81250000D01*
X106450000Y-81250000D01*
X106450000Y-81000000D01*
X109895052Y-81000000D01*
X109914812Y-81251072D01*
X109973603Y-81495956D01*
X110069980Y-81728631D01*
X110201568Y-81943362D01*
X110202266Y-81944179D01*
X110935387Y-81211059D01*
X110940889Y-81231591D01*
X111019881Y-81368408D01*
X111131592Y-81480119D01*
X111268409Y-81559111D01*
X111288940Y-81564612D01*
X110555819Y-82297732D01*
X110555819Y-82297733D01*
X110556634Y-82298429D01*
X110771368Y-82430019D01*
X111004043Y-82526396D01*
X111248927Y-82585187D01*
X111500000Y-82604947D01*
X111751072Y-82585187D01*
X111995956Y-82526396D01*
X112228631Y-82430019D01*
X112443361Y-82298432D01*
X112443363Y-82298430D01*
X112444180Y-82297732D01*
X111711059Y-81564612D01*
X111731591Y-81559111D01*
X111868408Y-81480119D01*
X111980119Y-81368408D01*
X112059111Y-81231591D01*
X112064612Y-81211060D01*
X112797732Y-81944180D01*
X112798430Y-81943363D01*
X112798432Y-81943361D01*
X112930019Y-81728631D01*
X113026396Y-81495956D01*
X113085187Y-81251072D01*
X113104947Y-81000000D01*
X116895052Y-81000000D01*
X116914812Y-81251072D01*
X116973603Y-81495956D01*
X117069980Y-81728631D01*
X117201568Y-81943362D01*
X117202266Y-81944179D01*
X117935387Y-81211059D01*
X117940889Y-81231591D01*
X118019881Y-81368408D01*
X118131592Y-81480119D01*
X118268409Y-81559111D01*
X118288940Y-81564612D01*
X117555819Y-82297732D01*
X117555819Y-82297733D01*
X117556634Y-82298429D01*
X117771368Y-82430019D01*
X118004043Y-82526396D01*
X118248927Y-82585187D01*
X118500000Y-82604947D01*
X118751072Y-82585187D01*
X118995956Y-82526396D01*
X119228631Y-82430019D01*
X119443361Y-82298432D01*
X119443363Y-82298430D01*
X119444180Y-82297732D01*
X118711059Y-81564612D01*
X118731591Y-81559111D01*
X118868408Y-81480119D01*
X118980119Y-81368408D01*
X119059111Y-81231591D01*
X119064612Y-81211059D01*
X119797732Y-81944180D01*
X119798430Y-81943363D01*
X119798432Y-81943361D01*
X119930019Y-81728631D01*
X120026396Y-81495956D01*
X120085187Y-81251072D01*
X120104947Y-81000000D01*
X120085187Y-80748927D01*
X120026396Y-80504043D01*
X119930019Y-80271368D01*
X119798429Y-80056634D01*
X119797733Y-80055819D01*
X119797732Y-80055819D01*
X119064612Y-80788939D01*
X119059111Y-80768409D01*
X118980119Y-80631592D01*
X118868408Y-80519881D01*
X118731591Y-80440889D01*
X118711059Y-80435387D01*
X119444179Y-79702266D01*
X119443362Y-79701568D01*
X119228631Y-79569980D01*
X118995956Y-79473603D01*
X118751072Y-79414812D01*
X118500000Y-79395052D01*
X118248927Y-79414812D01*
X118004043Y-79473603D01*
X117771368Y-79569980D01*
X117556637Y-79701567D01*
X117555819Y-79702266D01*
X118288940Y-80435387D01*
X118268409Y-80440889D01*
X118131592Y-80519881D01*
X118019881Y-80631592D01*
X117940889Y-80768409D01*
X117935387Y-80788940D01*
X117202266Y-80055819D01*
X117201567Y-80056637D01*
X117069980Y-80271368D01*
X116973603Y-80504043D01*
X116914812Y-80748927D01*
X116895052Y-81000000D01*
X113104947Y-81000000D01*
X113085187Y-80748927D01*
X113026396Y-80504043D01*
X112930019Y-80271368D01*
X112798429Y-80056634D01*
X112797733Y-80055819D01*
X112797732Y-80055819D01*
X112064612Y-80788939D01*
X112059111Y-80768409D01*
X111980119Y-80631592D01*
X111868408Y-80519881D01*
X111731591Y-80440889D01*
X111711059Y-80435387D01*
X112444179Y-79702266D01*
X112443362Y-79701568D01*
X112228631Y-79569980D01*
X111995956Y-79473603D01*
X111751072Y-79414812D01*
X111500000Y-79395052D01*
X111248927Y-79414812D01*
X111004043Y-79473603D01*
X110771368Y-79569980D01*
X110556637Y-79701567D01*
X110555819Y-79702266D01*
X111288940Y-80435387D01*
X111268409Y-80440889D01*
X111131592Y-80519881D01*
X111019881Y-80631592D01*
X110940889Y-80768409D01*
X110935387Y-80788940D01*
X110202266Y-80055819D01*
X110201567Y-80056637D01*
X110069980Y-80271368D01*
X109973603Y-80504043D01*
X109914812Y-80748927D01*
X109895052Y-81000000D01*
X106450000Y-81000000D01*
X106450000Y-80750000D01*
X107450000Y-80750000D01*
X107450000Y-80210883D01*
X107414295Y-79985455D01*
X107343769Y-79768395D01*
X107240150Y-79565033D01*
X107105995Y-79380385D01*
X106944614Y-79219004D01*
X106759966Y-79084849D01*
X106556602Y-78981229D01*
X106339541Y-78910703D01*
X106250000Y-78896521D01*
X106250000Y-79949722D01*
X106173694Y-79905667D01*
X106059244Y-79875000D01*
X105940756Y-79875000D01*
X105826306Y-79905667D01*
X105750000Y-79949722D01*
X105750000Y-78896521D01*
X105749999Y-78896521D01*
X105667760Y-78909547D01*
X105598466Y-78900593D01*
X105545014Y-78855597D01*
X105524374Y-78788845D01*
X105543098Y-78721532D01*
X105567826Y-78692786D01*
X105635224Y-78635224D01*
X105798836Y-78443659D01*
X105930466Y-78228859D01*
X106026873Y-77996111D01*
X106085683Y-77751148D01*
X106105449Y-77500000D01*
X109895052Y-77500000D01*
X109914812Y-77751072D01*
X109973603Y-77995956D01*
X110069980Y-78228631D01*
X110201568Y-78443362D01*
X110202266Y-78444179D01*
X110935387Y-77711059D01*
X110940889Y-77731591D01*
X111019881Y-77868408D01*
X111131592Y-77980119D01*
X111268409Y-78059111D01*
X111288940Y-78064612D01*
X110555819Y-78797732D01*
X110555819Y-78797733D01*
X110556634Y-78798429D01*
X110771368Y-78930019D01*
X111004043Y-79026396D01*
X111248927Y-79085187D01*
X111500000Y-79104947D01*
X111751072Y-79085187D01*
X111995956Y-79026396D01*
X112228631Y-78930019D01*
X112443361Y-78798432D01*
X112443363Y-78798430D01*
X112444180Y-78797732D01*
X111711059Y-78064612D01*
X111731591Y-78059111D01*
X111868408Y-77980119D01*
X111980119Y-77868408D01*
X112059111Y-77731591D01*
X112064612Y-77711060D01*
X112797732Y-78444180D01*
X112798430Y-78443363D01*
X112798432Y-78443361D01*
X112930019Y-78228631D01*
X113026396Y-77995956D01*
X113085187Y-77751072D01*
X113104947Y-77500000D01*
X113085187Y-77248928D01*
X113049409Y-77099902D01*
X113052900Y-77030120D01*
X113093563Y-76973302D01*
X113158490Y-76947489D01*
X113227065Y-76960875D01*
X113257664Y-76983274D01*
X113380385Y-77105995D01*
X113565033Y-77240150D01*
X113768395Y-77343769D01*
X113985455Y-77414295D01*
X114210884Y-77450000D01*
X114750000Y-77450000D01*
X114750000Y-76450000D01*
X115250000Y-76450000D01*
X115250000Y-77450000D01*
X115789116Y-77450000D01*
X116014544Y-77414295D01*
X116231604Y-77343769D01*
X116434966Y-77240150D01*
X116619610Y-77105998D01*
X116741657Y-76983951D01*
X116802980Y-76950466D01*
X116872672Y-76955450D01*
X116928606Y-76997321D01*
X116953023Y-77062785D01*
X116949913Y-77100578D01*
X116916406Y-77240150D01*
X116914317Y-77248852D01*
X116912778Y-77268409D01*
X116894551Y-77500000D01*
X116914317Y-77751151D01*
X116973126Y-77996110D01*
X117069533Y-78228859D01*
X117201160Y-78443653D01*
X117201161Y-78443656D01*
X117201164Y-78443659D01*
X117364776Y-78635224D01*
X117465830Y-78721532D01*
X117556343Y-78798838D01*
X117556346Y-78798839D01*
X117771140Y-78930466D01*
X117893694Y-78981229D01*
X118003889Y-79026873D01*
X118248852Y-79085683D01*
X118500000Y-79105449D01*
X118751148Y-79085683D01*
X118996111Y-79026873D01*
X119228859Y-78930466D01*
X119443659Y-78798836D01*
X119635224Y-78635224D01*
X119798836Y-78443659D01*
X119930466Y-78228859D01*
X120026873Y-77996111D01*
X120085683Y-77751148D01*
X120105449Y-77500000D01*
X120085683Y-77248852D01*
X120026873Y-77003889D01*
X120018334Y-76983274D01*
X119930466Y-76771140D01*
X119799017Y-76556637D01*
X119798838Y-76556345D01*
X119798838Y-76556343D01*
X119708012Y-76450000D01*
X119635224Y-76364776D01*
X119500839Y-76250000D01*
X119443656Y-76201161D01*
X119443653Y-76201160D01*
X119228859Y-76069533D01*
X118996110Y-75973126D01*
X118751151Y-75914317D01*
X118500000Y-75894551D01*
X118248848Y-75914317D01*
X118003889Y-75973126D01*
X117771140Y-76069533D01*
X117556346Y-76201160D01*
X117556343Y-76201161D01*
X117364775Y-76364776D01*
X117307214Y-76432171D01*
X117248707Y-76470363D01*
X117178839Y-76470861D01*
X117119793Y-76433507D01*
X117090316Y-76370159D01*
X117090452Y-76332239D01*
X117103478Y-76250000D01*
X116050278Y-76250000D01*
X116094333Y-76173694D01*
X116125000Y-76059244D01*
X116125000Y-75940756D01*
X116094333Y-75826306D01*
X116050278Y-75750000D01*
X117103478Y-75750000D01*
X117089295Y-75660455D01*
X117018769Y-75443395D01*
X116915150Y-75240033D01*
X116780995Y-75055385D01*
X116619614Y-74894004D01*
X116434966Y-74759849D01*
X116231604Y-74656230D01*
X116014544Y-74585704D01*
X115789116Y-74550000D01*
X115250000Y-74550000D01*
X115250000Y-75550000D01*
X114750000Y-75550000D01*
X114750000Y-74550000D01*
X114210884Y-74550000D01*
X113985455Y-74585704D01*
X113768395Y-74656230D01*
X113565033Y-74759849D01*
X113380385Y-74894004D01*
X113219004Y-75055385D01*
X113084849Y-75240033D01*
X112981230Y-75443395D01*
X112910704Y-75660455D01*
X112896522Y-75750000D01*
X113949722Y-75750000D01*
X113905667Y-75826306D01*
X113875000Y-75940756D01*
X113875000Y-76059244D01*
X113905667Y-76173694D01*
X113949722Y-76250000D01*
X112896522Y-76250000D01*
X112910704Y-76339546D01*
X112928366Y-76393905D01*
X112930361Y-76463746D01*
X112894280Y-76523579D01*
X112831579Y-76554406D01*
X112805571Y-76556127D01*
X112797732Y-76555819D01*
X112064612Y-77288939D01*
X112059111Y-77268409D01*
X111980119Y-77131592D01*
X111868408Y-77019881D01*
X111731591Y-76940889D01*
X111711059Y-76935387D01*
X112444179Y-76202266D01*
X112443362Y-76201568D01*
X112228631Y-76069980D01*
X111995956Y-75973603D01*
X111751072Y-75914812D01*
X111500000Y-75895052D01*
X111248927Y-75914812D01*
X111004043Y-75973603D01*
X110771368Y-76069980D01*
X110556637Y-76201567D01*
X110555819Y-76202266D01*
X111288940Y-76935387D01*
X111268409Y-76940889D01*
X111131592Y-77019881D01*
X111019881Y-77131592D01*
X110940889Y-77268409D01*
X110935387Y-77288940D01*
X110202266Y-76555819D01*
X110201567Y-76556637D01*
X110069980Y-76771368D01*
X109973603Y-77004043D01*
X109914812Y-77248927D01*
X109895052Y-77500000D01*
X106105449Y-77500000D01*
X106085683Y-77248852D01*
X106026873Y-77003889D01*
X106018334Y-76983274D01*
X105930466Y-76771140D01*
X105799017Y-76556637D01*
X105798838Y-76556345D01*
X105798838Y-76556343D01*
X105708012Y-76450000D01*
X105635224Y-76364776D01*
X105500839Y-76250000D01*
X105443656Y-76201161D01*
X105443653Y-76201160D01*
X105228859Y-76069533D01*
X104996110Y-75973126D01*
X104751151Y-75914317D01*
X104500000Y-75894551D01*
X104248848Y-75914317D01*
X104003889Y-75973126D01*
X103771140Y-76069533D01*
X103556346Y-76201160D01*
X103556343Y-76201161D01*
X103364776Y-76364776D01*
X103201161Y-76556343D01*
X103201160Y-76556346D01*
X103069533Y-76771140D01*
X102973126Y-77003889D01*
X102914317Y-77248848D01*
X102894551Y-77500000D01*
X102604947Y-77500000D01*
X102585187Y-77248927D01*
X102526396Y-77004043D01*
X102430019Y-76771368D01*
X102298429Y-76556634D01*
X102297733Y-76555819D01*
X102297732Y-76555819D01*
X101564612Y-77288939D01*
X101559111Y-77268409D01*
X101480119Y-77131592D01*
X101368408Y-77019881D01*
X101231591Y-76940889D01*
X101211059Y-76935387D01*
X101944179Y-76202266D01*
X101943362Y-76201568D01*
X101728631Y-76069980D01*
X101495956Y-75973603D01*
X101251072Y-75914812D01*
X101000000Y-75895052D01*
X100748927Y-75914812D01*
X100504043Y-75973603D01*
X100271368Y-76069980D01*
X100056637Y-76201567D01*
X100055819Y-76202266D01*
X100788940Y-76935387D01*
X100768409Y-76940889D01*
X100631592Y-77019881D01*
X100519881Y-77131592D01*
X100440889Y-77268409D01*
X100435387Y-77288940D01*
X99702266Y-76555819D01*
X99701567Y-76556637D01*
X99569980Y-76771368D01*
X99473603Y-77004043D01*
X99414812Y-77248927D01*
X99395052Y-77500000D01*
X99104947Y-77500000D01*
X99085187Y-77248927D01*
X99026396Y-77004043D01*
X98930019Y-76771368D01*
X98798429Y-76556634D01*
X98797733Y-76555819D01*
X98797732Y-76555819D01*
X98064612Y-77288939D01*
X98059111Y-77268409D01*
X97980119Y-77131592D01*
X97868408Y-77019881D01*
X97731591Y-76940889D01*
X97711059Y-76935387D01*
X98444179Y-76202266D01*
X98443362Y-76201568D01*
X98228631Y-76069980D01*
X97995956Y-75973603D01*
X97751072Y-75914812D01*
X97500000Y-75895052D01*
X97248927Y-75914812D01*
X97004043Y-75973603D01*
X96771368Y-76069980D01*
X96556637Y-76201567D01*
X96555819Y-76202266D01*
X97288940Y-76935387D01*
X97268409Y-76940889D01*
X97131592Y-77019881D01*
X97019881Y-77131592D01*
X96940889Y-77268409D01*
X96935387Y-77288940D01*
X96202266Y-76555819D01*
X96201567Y-76556637D01*
X96069980Y-76771368D01*
X95973603Y-77004043D01*
X95914812Y-77248927D01*
X95895052Y-77500000D01*
X95914812Y-77751072D01*
X95973603Y-77995956D01*
X96069980Y-78228631D01*
X96201568Y-78443362D01*
X96202266Y-78444179D01*
X96935387Y-77711059D01*
X96940889Y-77731591D01*
X97019881Y-77868408D01*
X97131592Y-77980119D01*
X97268409Y-78059111D01*
X97288940Y-78064612D01*
X96555819Y-78797732D01*
X96556127Y-78805572D01*
X96539087Y-78873332D01*
X96488118Y-78921123D01*
X96419403Y-78933772D01*
X96393904Y-78928367D01*
X96339539Y-78910703D01*
X96250000Y-78896521D01*
X96250000Y-79949722D01*
X96173694Y-79905667D01*
X96059244Y-79875000D01*
X95940756Y-79875000D01*
X95826306Y-79905667D01*
X95750000Y-79949722D01*
X95750000Y-78896521D01*
X95749999Y-78896521D01*
X95660458Y-78910703D01*
X95443397Y-78981229D01*
X95240033Y-79084849D01*
X95055385Y-79219004D01*
X94894004Y-79380385D01*
X94759849Y-79565033D01*
X94656230Y-79768395D01*
X94585704Y-79985455D01*
X94550000Y-80210883D01*
X91892954Y-80210883D01*
X91798429Y-80056634D01*
X91797733Y-80055819D01*
X91797732Y-80055819D01*
X91064612Y-80788939D01*
X91059111Y-80768409D01*
X90980119Y-80631592D01*
X90868408Y-80519881D01*
X90731591Y-80440889D01*
X90711059Y-80435387D01*
X91444179Y-79702266D01*
X91443362Y-79701568D01*
X91228631Y-79569980D01*
X90995956Y-79473603D01*
X90751072Y-79414812D01*
X90500000Y-79395052D01*
X90248927Y-79414812D01*
X90004043Y-79473603D01*
X89771368Y-79569980D01*
X89556637Y-79701567D01*
X89555819Y-79702266D01*
X90288940Y-80435387D01*
X90268409Y-80440889D01*
X90131592Y-80519881D01*
X90019881Y-80631592D01*
X89940889Y-80768409D01*
X89935387Y-80788940D01*
X89202266Y-80055819D01*
X89201567Y-80056637D01*
X89069980Y-80271368D01*
X88973603Y-80504043D01*
X88914812Y-80748927D01*
X88895052Y-81000000D01*
X85104947Y-81000000D01*
X85085187Y-80748927D01*
X85026396Y-80504043D01*
X84930019Y-80271368D01*
X84798429Y-80056634D01*
X84797733Y-80055819D01*
X84797732Y-80055819D01*
X84064612Y-80788939D01*
X84059111Y-80768409D01*
X83980119Y-80631592D01*
X83868408Y-80519881D01*
X83731591Y-80440889D01*
X83711059Y-80435387D01*
X84444179Y-79702266D01*
X84443362Y-79701568D01*
X84228631Y-79569980D01*
X83995956Y-79473603D01*
X83751072Y-79414812D01*
X83500000Y-79395052D01*
X83248927Y-79414812D01*
X83004043Y-79473603D01*
X82771368Y-79569980D01*
X82556637Y-79701567D01*
X82555819Y-79702266D01*
X83288940Y-80435387D01*
X83268409Y-80440889D01*
X83131592Y-80519881D01*
X83019881Y-80631592D01*
X82940889Y-80768409D01*
X82935387Y-80788940D01*
X82202266Y-80055819D01*
X82201567Y-80056637D01*
X82069980Y-80271368D01*
X81973603Y-80504043D01*
X81914812Y-80748927D01*
X81895052Y-81000000D01*
X78250000Y-81000000D01*
X78250000Y-77500000D01*
X81895052Y-77500000D01*
X81914812Y-77751072D01*
X81973603Y-77995956D01*
X82069980Y-78228631D01*
X82201568Y-78443362D01*
X82202266Y-78444179D01*
X82935387Y-77711059D01*
X82940889Y-77731591D01*
X83019881Y-77868408D01*
X83131592Y-77980119D01*
X83268409Y-78059111D01*
X83288940Y-78064612D01*
X82555819Y-78797732D01*
X82555819Y-78797733D01*
X82556634Y-78798429D01*
X82771368Y-78930019D01*
X83004043Y-79026396D01*
X83248927Y-79085187D01*
X83500000Y-79104947D01*
X83751072Y-79085187D01*
X83995956Y-79026396D01*
X84228631Y-78930019D01*
X84443361Y-78798432D01*
X84443363Y-78798430D01*
X84444180Y-78797732D01*
X83711059Y-78064612D01*
X83731591Y-78059111D01*
X83868408Y-77980119D01*
X83980119Y-77868408D01*
X84059111Y-77731591D01*
X84064612Y-77711059D01*
X84797732Y-78444180D01*
X84798430Y-78443363D01*
X84798432Y-78443361D01*
X84930019Y-78228631D01*
X85026396Y-77995956D01*
X85085187Y-77751072D01*
X85104947Y-77500000D01*
X85085187Y-77248928D01*
X85049409Y-77099902D01*
X85052900Y-77030120D01*
X85093563Y-76973302D01*
X85158490Y-76947489D01*
X85227065Y-76960875D01*
X85257664Y-76983274D01*
X85380385Y-77105995D01*
X85565033Y-77240150D01*
X85768395Y-77343769D01*
X85985455Y-77414295D01*
X86210884Y-77450000D01*
X86750000Y-77450000D01*
X86750000Y-76450000D01*
X87250000Y-76450000D01*
X87250000Y-77450000D01*
X87789116Y-77450000D01*
X88014544Y-77414295D01*
X88231604Y-77343769D01*
X88434966Y-77240150D01*
X88619610Y-77105998D01*
X88741657Y-76983951D01*
X88802980Y-76950466D01*
X88872672Y-76955450D01*
X88928606Y-76997321D01*
X88953023Y-77062785D01*
X88949913Y-77100578D01*
X88916406Y-77240150D01*
X88914317Y-77248852D01*
X88912778Y-77268409D01*
X88894551Y-77500000D01*
X88914317Y-77751151D01*
X88973126Y-77996110D01*
X89069533Y-78228859D01*
X89201160Y-78443653D01*
X89201161Y-78443656D01*
X89201164Y-78443659D01*
X89364776Y-78635224D01*
X89465830Y-78721532D01*
X89556343Y-78798838D01*
X89556346Y-78798839D01*
X89771140Y-78930466D01*
X89893694Y-78981229D01*
X90003889Y-79026873D01*
X90248852Y-79085683D01*
X90500000Y-79105449D01*
X90751148Y-79085683D01*
X90996111Y-79026873D01*
X91228859Y-78930466D01*
X91443659Y-78798836D01*
X91635224Y-78635224D01*
X91798836Y-78443659D01*
X91930466Y-78228859D01*
X92026873Y-77996111D01*
X92085683Y-77751148D01*
X92105449Y-77500000D01*
X92085683Y-77248852D01*
X92026873Y-77003889D01*
X92018334Y-76983274D01*
X91930466Y-76771140D01*
X91799017Y-76556637D01*
X91798838Y-76556345D01*
X91798838Y-76556343D01*
X91708012Y-76450000D01*
X91635224Y-76364776D01*
X91500839Y-76250000D01*
X91443656Y-76201161D01*
X91443653Y-76201160D01*
X91228859Y-76069533D01*
X90996110Y-75973126D01*
X90751151Y-75914317D01*
X90500000Y-75894551D01*
X90248848Y-75914317D01*
X90003889Y-75973126D01*
X89771140Y-76069533D01*
X89556346Y-76201160D01*
X89556343Y-76201161D01*
X89364775Y-76364776D01*
X89307214Y-76432171D01*
X89248707Y-76470363D01*
X89178839Y-76470861D01*
X89119793Y-76433507D01*
X89090316Y-76370159D01*
X89090452Y-76332239D01*
X89103478Y-76250000D01*
X88050278Y-76250000D01*
X88094333Y-76173694D01*
X88125000Y-76059244D01*
X88125000Y-75940756D01*
X88094333Y-75826306D01*
X88050278Y-75750000D01*
X89103478Y-75750000D01*
X89089295Y-75660455D01*
X89018769Y-75443395D01*
X88915150Y-75240033D01*
X88780995Y-75055385D01*
X88619614Y-74894004D01*
X88434966Y-74759849D01*
X88231604Y-74656230D01*
X88014544Y-74585704D01*
X87789116Y-74550000D01*
X87250000Y-74550000D01*
X87250000Y-75550000D01*
X86750000Y-75550000D01*
X86750000Y-74550000D01*
X86210884Y-74550000D01*
X85985455Y-74585704D01*
X85768395Y-74656230D01*
X85565033Y-74759849D01*
X85380385Y-74894004D01*
X85219004Y-75055385D01*
X85084849Y-75240033D01*
X84981230Y-75443395D01*
X84910704Y-75660455D01*
X84896522Y-75750000D01*
X85949722Y-75750000D01*
X85905667Y-75826306D01*
X85875000Y-75940756D01*
X85875000Y-76059244D01*
X85905667Y-76173694D01*
X85949722Y-76250000D01*
X84896522Y-76250000D01*
X84910704Y-76339546D01*
X84928366Y-76393905D01*
X84930361Y-76463746D01*
X84894280Y-76523579D01*
X84831579Y-76554406D01*
X84805571Y-76556127D01*
X84797732Y-76555819D01*
X84064612Y-77288939D01*
X84059111Y-77268409D01*
X83980119Y-77131592D01*
X83868408Y-77019881D01*
X83731591Y-76940889D01*
X83711059Y-76935387D01*
X84444179Y-76202266D01*
X84443362Y-76201568D01*
X84228631Y-76069980D01*
X83995956Y-75973603D01*
X83751072Y-75914812D01*
X83500000Y-75895052D01*
X83248927Y-75914812D01*
X83004043Y-75973603D01*
X82771368Y-76069980D01*
X82556637Y-76201567D01*
X82555819Y-76202266D01*
X83288940Y-76935387D01*
X83268409Y-76940889D01*
X83131592Y-77019881D01*
X83019881Y-77131592D01*
X82940889Y-77268409D01*
X82935387Y-77288940D01*
X82202266Y-76555819D01*
X82201567Y-76556637D01*
X82069980Y-76771368D01*
X81973603Y-77004043D01*
X81914812Y-77248927D01*
X81895052Y-77500000D01*
X78250000Y-77500000D01*
X78250000Y-70500000D01*
X95894551Y-70500000D01*
X95914317Y-70751151D01*
X95973126Y-70996110D01*
X96069533Y-71228859D01*
X96201160Y-71443653D01*
X96201161Y-71443656D01*
X96256604Y-71508571D01*
X96364776Y-71635224D01*
X96513066Y-71761875D01*
X96556343Y-71798838D01*
X96556346Y-71798839D01*
X96771140Y-71930466D01*
X97002737Y-72026396D01*
X97003889Y-72026873D01*
X97248852Y-72085683D01*
X97500000Y-72105449D01*
X97751148Y-72085683D01*
X97996111Y-72026873D01*
X98228859Y-71930466D01*
X98443659Y-71798836D01*
X98635224Y-71635224D01*
X98692785Y-71567828D01*
X98751290Y-71529636D01*
X98821158Y-71529137D01*
X98880205Y-71566491D01*
X98909683Y-71629838D01*
X98909547Y-71667759D01*
X98896521Y-71750000D01*
X99949722Y-71750000D01*
X99905667Y-71826306D01*
X99875000Y-71940756D01*
X99875000Y-72059244D01*
X99905667Y-72173694D01*
X99949722Y-72250000D01*
X98896522Y-72250000D01*
X98910704Y-72339544D01*
X98981230Y-72556604D01*
X99084849Y-72759966D01*
X99219004Y-72944614D01*
X99380385Y-73105995D01*
X99565033Y-73240150D01*
X99768395Y-73343769D01*
X99985455Y-73414295D01*
X100210884Y-73450000D01*
X100750000Y-73450000D01*
X100750000Y-72450000D01*
X101250000Y-72450000D01*
X101250000Y-73450000D01*
X101789116Y-73450000D01*
X102014544Y-73414295D01*
X102231604Y-73343769D01*
X102434966Y-73240150D01*
X102619614Y-73105995D01*
X102780995Y-72944614D01*
X102915150Y-72759966D01*
X103018769Y-72556604D01*
X103089295Y-72339544D01*
X103103478Y-72250000D01*
X102050278Y-72250000D01*
X102094333Y-72173694D01*
X102125000Y-72059244D01*
X102125000Y-71940756D01*
X102094333Y-71826306D01*
X102050278Y-71750000D01*
X103103478Y-71750000D01*
X103090452Y-71667760D01*
X103099406Y-71598466D01*
X103144402Y-71545014D01*
X103211154Y-71524374D01*
X103278467Y-71543099D01*
X103307215Y-71567829D01*
X103364776Y-71635224D01*
X103513066Y-71761875D01*
X103556343Y-71798838D01*
X103556346Y-71798839D01*
X103771140Y-71930466D01*
X104002737Y-72026396D01*
X104003889Y-72026873D01*
X104248852Y-72085683D01*
X104500000Y-72105449D01*
X104751148Y-72085683D01*
X104996111Y-72026873D01*
X105228859Y-71930466D01*
X105443659Y-71798836D01*
X105635224Y-71635224D01*
X105798836Y-71443659D01*
X105930466Y-71228859D01*
X106026873Y-70996111D01*
X106085683Y-70751148D01*
X106105449Y-70500000D01*
X109895052Y-70500000D01*
X109914812Y-70751072D01*
X109973603Y-70995956D01*
X110069980Y-71228631D01*
X110201568Y-71443362D01*
X110202266Y-71444179D01*
X110935387Y-70711059D01*
X110940889Y-70731591D01*
X111019881Y-70868408D01*
X111131592Y-70980119D01*
X111268409Y-71059111D01*
X111288940Y-71064612D01*
X110555819Y-71797732D01*
X110555819Y-71797733D01*
X110556634Y-71798429D01*
X110771368Y-71930019D01*
X111004043Y-72026396D01*
X111248927Y-72085187D01*
X111500000Y-72104947D01*
X111751072Y-72085187D01*
X111995956Y-72026396D01*
X112228631Y-71930019D01*
X112443361Y-71798432D01*
X112443363Y-71798430D01*
X112444180Y-71797732D01*
X111711059Y-71064612D01*
X111731591Y-71059111D01*
X111868408Y-70980119D01*
X111980119Y-70868408D01*
X112059111Y-70731591D01*
X112064612Y-70711060D01*
X112797731Y-71444179D01*
X112805606Y-71443873D01*
X112873362Y-71460932D01*
X112921138Y-71511914D01*
X112933767Y-71580633D01*
X112928366Y-71606097D01*
X112910704Y-71660455D01*
X112896522Y-71750000D01*
X113949722Y-71750000D01*
X113905667Y-71826306D01*
X113875000Y-71940756D01*
X113875000Y-72059244D01*
X113905667Y-72173694D01*
X113949722Y-72250000D01*
X112896522Y-72250000D01*
X112910704Y-72339544D01*
X112981230Y-72556604D01*
X113084849Y-72759966D01*
X113219004Y-72944614D01*
X113380385Y-73105995D01*
X113565033Y-73240150D01*
X113768395Y-73343769D01*
X113985455Y-73414295D01*
X114210884Y-73450000D01*
X114750000Y-73450000D01*
X114750000Y-72450000D01*
X115250000Y-72450000D01*
X115250000Y-73450000D01*
X115789116Y-73450000D01*
X116014544Y-73414295D01*
X116231604Y-73343769D01*
X116434966Y-73240150D01*
X116619614Y-73105995D01*
X116780995Y-72944614D01*
X116915150Y-72759966D01*
X117018769Y-72556604D01*
X117089295Y-72339544D01*
X117103478Y-72250000D01*
X116050278Y-72250000D01*
X116094333Y-72173694D01*
X116125000Y-72059244D01*
X116125000Y-71940756D01*
X116094333Y-71826306D01*
X116050278Y-71750000D01*
X117103478Y-71750000D01*
X117090452Y-71667760D01*
X117099406Y-71598466D01*
X117144402Y-71545014D01*
X117211154Y-71524374D01*
X117278467Y-71543099D01*
X117307215Y-71567829D01*
X117364776Y-71635224D01*
X117513066Y-71761875D01*
X117556343Y-71798838D01*
X117556346Y-71798839D01*
X117771140Y-71930466D01*
X118002737Y-72026396D01*
X118003889Y-72026873D01*
X118248852Y-72085683D01*
X118500000Y-72105449D01*
X118751148Y-72085683D01*
X118996111Y-72026873D01*
X119228859Y-71930466D01*
X119443659Y-71798836D01*
X119635224Y-71635224D01*
X119798836Y-71443659D01*
X119930466Y-71228859D01*
X120026873Y-70996111D01*
X120085683Y-70751148D01*
X120105449Y-70500000D01*
X120085683Y-70248852D01*
X120026873Y-70003889D01*
X119930466Y-69771141D01*
X119930466Y-69771140D01*
X119799017Y-69556637D01*
X119798838Y-69556345D01*
X119798838Y-69556343D01*
X119761875Y-69513066D01*
X119635224Y-69364776D01*
X119508571Y-69256604D01*
X119443656Y-69201161D01*
X119443653Y-69201160D01*
X119228859Y-69069533D01*
X118996110Y-68973126D01*
X118751151Y-68914317D01*
X118500000Y-68894551D01*
X118248848Y-68914317D01*
X118003889Y-68973126D01*
X117771140Y-69069533D01*
X117556346Y-69201160D01*
X117556343Y-69201161D01*
X117364776Y-69364776D01*
X117201161Y-69556343D01*
X117201160Y-69556346D01*
X117069533Y-69771140D01*
X116973126Y-70003889D01*
X116914317Y-70248848D01*
X116914317Y-70248852D01*
X116894551Y-70500000D01*
X116914317Y-70751148D01*
X116914318Y-70751151D01*
X116914318Y-70751152D01*
X116949913Y-70899421D01*
X116946422Y-70969203D01*
X116905758Y-71026020D01*
X116840831Y-71051833D01*
X116772256Y-71038447D01*
X116741658Y-71016048D01*
X116619614Y-70894004D01*
X116434966Y-70759849D01*
X116231604Y-70656230D01*
X116014544Y-70585704D01*
X115789116Y-70550000D01*
X115250000Y-70550000D01*
X115250000Y-71550000D01*
X114750000Y-71550000D01*
X114750000Y-70550000D01*
X114210884Y-70550000D01*
X113985455Y-70585704D01*
X113768395Y-70656230D01*
X113565033Y-70759849D01*
X113380389Y-70894001D01*
X113257664Y-71016726D01*
X113196341Y-71050210D01*
X113126649Y-71045226D01*
X113070716Y-71003354D01*
X113046299Y-70937890D01*
X113049409Y-70900097D01*
X113085187Y-70751071D01*
X113104947Y-70500000D01*
X113085187Y-70248927D01*
X113026396Y-70004043D01*
X112930019Y-69771368D01*
X112798429Y-69556634D01*
X112797733Y-69555819D01*
X112797732Y-69555819D01*
X112064612Y-70288939D01*
X112059111Y-70268409D01*
X111980119Y-70131592D01*
X111868408Y-70019881D01*
X111731591Y-69940889D01*
X111711059Y-69935387D01*
X112444179Y-69202266D01*
X112443362Y-69201568D01*
X112228631Y-69069980D01*
X111995956Y-68973603D01*
X111751072Y-68914812D01*
X111500000Y-68895052D01*
X111248927Y-68914812D01*
X111004043Y-68973603D01*
X110771368Y-69069980D01*
X110556637Y-69201567D01*
X110555819Y-69202266D01*
X111288940Y-69935387D01*
X111268409Y-69940889D01*
X111131592Y-70019881D01*
X111019881Y-70131592D01*
X110940889Y-70268409D01*
X110935387Y-70288940D01*
X110202266Y-69555819D01*
X110201567Y-69556637D01*
X110069980Y-69771368D01*
X109973603Y-70004043D01*
X109914812Y-70248927D01*
X109895052Y-70500000D01*
X106105449Y-70500000D01*
X106085683Y-70248852D01*
X106026873Y-70003889D01*
X105930466Y-69771141D01*
X105930466Y-69771140D01*
X105799017Y-69556637D01*
X105798838Y-69556345D01*
X105798838Y-69556343D01*
X105761875Y-69513066D01*
X105635224Y-69364776D01*
X105508571Y-69256604D01*
X105443656Y-69201161D01*
X105443653Y-69201160D01*
X105228859Y-69069533D01*
X104996110Y-68973126D01*
X104751151Y-68914317D01*
X104500000Y-68894551D01*
X104248848Y-68914317D01*
X104003889Y-68973126D01*
X103771140Y-69069533D01*
X103556346Y-69201160D01*
X103556343Y-69201161D01*
X103364776Y-69364776D01*
X103201161Y-69556343D01*
X103201160Y-69556346D01*
X103069533Y-69771140D01*
X102973126Y-70003889D01*
X102914317Y-70248848D01*
X102914317Y-70248852D01*
X102894551Y-70500000D01*
X102914317Y-70751148D01*
X102914318Y-70751151D01*
X102914318Y-70751152D01*
X102949913Y-70899421D01*
X102946422Y-70969203D01*
X102905758Y-71026020D01*
X102840831Y-71051833D01*
X102772256Y-71038447D01*
X102741658Y-71016048D01*
X102619614Y-70894004D01*
X102434966Y-70759849D01*
X102231604Y-70656230D01*
X102014544Y-70585704D01*
X101789116Y-70550000D01*
X101250000Y-70550000D01*
X101250000Y-71550000D01*
X100750000Y-71550000D01*
X100750000Y-70550000D01*
X100210884Y-70550000D01*
X99985455Y-70585704D01*
X99768395Y-70656230D01*
X99565033Y-70759849D01*
X99380389Y-70894001D01*
X99258341Y-71016049D01*
X99197018Y-71049533D01*
X99127326Y-71044549D01*
X99071393Y-71002677D01*
X99046976Y-70937213D01*
X99050086Y-70899420D01*
X99051387Y-70894004D01*
X99085683Y-70751148D01*
X99105449Y-70500000D01*
X99085683Y-70248852D01*
X99026873Y-70003889D01*
X98930466Y-69771141D01*
X98930466Y-69771140D01*
X98799017Y-69556637D01*
X98798838Y-69556345D01*
X98798838Y-69556343D01*
X98761875Y-69513066D01*
X98635224Y-69364776D01*
X98508571Y-69256604D01*
X98443656Y-69201161D01*
X98443653Y-69201160D01*
X98228859Y-69069533D01*
X97996110Y-68973126D01*
X97751151Y-68914317D01*
X97500000Y-68894551D01*
X97248848Y-68914317D01*
X97003889Y-68973126D01*
X96771140Y-69069533D01*
X96556346Y-69201160D01*
X96556343Y-69201161D01*
X96364776Y-69364776D01*
X96201161Y-69556343D01*
X96201160Y-69556346D01*
X96069533Y-69771140D01*
X95973126Y-70003889D01*
X95914317Y-70248848D01*
X95894551Y-70500000D01*
X78250000Y-70500000D01*
X78250000Y-62984999D01*
X81394341Y-62984999D01*
X81394341Y-62985000D01*
X81414936Y-63220403D01*
X81414938Y-63220413D01*
X81476094Y-63448655D01*
X81476096Y-63448659D01*
X81476097Y-63448663D01*
X81575965Y-63662830D01*
X81575967Y-63662834D01*
X81637806Y-63751148D01*
X81711501Y-63856396D01*
X81711506Y-63856402D01*
X81833818Y-63978714D01*
X81867303Y-64040037D01*
X81862319Y-64109729D01*
X81820447Y-64165662D01*
X81789471Y-64182577D01*
X81657912Y-64231646D01*
X81657906Y-64231649D01*
X81542812Y-64317809D01*
X81542809Y-64317812D01*
X81456649Y-64432906D01*
X81456645Y-64432913D01*
X81406403Y-64567620D01*
X81406401Y-64567627D01*
X81400000Y-64627155D01*
X81400000Y-65275000D01*
X82316988Y-65275000D01*
X82284075Y-65332007D01*
X82250000Y-65459174D01*
X82250000Y-65590826D01*
X82284075Y-65717993D01*
X82316988Y-65775000D01*
X81400000Y-65775000D01*
X81400000Y-66422844D01*
X81406401Y-66482372D01*
X81406403Y-66482379D01*
X81456645Y-66617086D01*
X81456649Y-66617093D01*
X81542809Y-66732187D01*
X81542812Y-66732190D01*
X81657906Y-66818350D01*
X81657913Y-66818354D01*
X81792620Y-66868596D01*
X81792627Y-66868598D01*
X81852155Y-66874999D01*
X81852172Y-66875000D01*
X82500000Y-66875000D01*
X82500000Y-65958012D01*
X82557007Y-65990925D01*
X82684174Y-66025000D01*
X82815826Y-66025000D01*
X82942993Y-65990925D01*
X83000000Y-65958012D01*
X83000000Y-66875000D01*
X83647828Y-66875000D01*
X83647844Y-66874999D01*
X83707372Y-66868598D01*
X83707379Y-66868596D01*
X83842086Y-66818354D01*
X83842093Y-66818350D01*
X83957187Y-66732190D01*
X83957190Y-66732187D01*
X84043350Y-66617093D01*
X84043354Y-66617086D01*
X84072105Y-66539999D01*
X88395287Y-66539999D01*
X88395287Y-66540000D01*
X88414096Y-66742989D01*
X88414097Y-66742992D01*
X88469883Y-66939063D01*
X88469886Y-66939069D01*
X88560751Y-67121551D01*
X88562533Y-67123911D01*
X89130000Y-66556445D01*
X89130000Y-66588711D01*
X89155215Y-66682815D01*
X89203926Y-66767186D01*
X89272814Y-66836074D01*
X89357185Y-66884785D01*
X89451289Y-66910000D01*
X89483553Y-66910000D01*
X88919311Y-67474240D01*
X89007585Y-67528897D01*
X89197678Y-67602539D01*
X89398072Y-67640000D01*
X89601928Y-67640000D01*
X89802322Y-67602539D01*
X89992412Y-67528899D01*
X89992416Y-67528897D01*
X90080686Y-67474241D01*
X90080686Y-67474240D01*
X89516448Y-66910000D01*
X89548711Y-66910000D01*
X89642815Y-66884785D01*
X89727186Y-66836074D01*
X89796074Y-66767186D01*
X89844785Y-66682815D01*
X89870000Y-66588711D01*
X89870000Y-66556447D01*
X90437465Y-67123912D01*
X90439247Y-67121553D01*
X90439248Y-67121551D01*
X90499773Y-67000000D01*
X95895052Y-67000000D01*
X95914812Y-67251072D01*
X95973603Y-67495956D01*
X96069980Y-67728631D01*
X96201568Y-67943362D01*
X96202266Y-67944179D01*
X96935387Y-67211059D01*
X96940889Y-67231591D01*
X97019881Y-67368408D01*
X97131592Y-67480119D01*
X97268409Y-67559111D01*
X97288940Y-67564612D01*
X96555819Y-68297732D01*
X96555819Y-68297733D01*
X96556634Y-68298429D01*
X96771368Y-68430019D01*
X97004043Y-68526396D01*
X97248927Y-68585187D01*
X97500000Y-68604947D01*
X97751072Y-68585187D01*
X97995956Y-68526396D01*
X98228631Y-68430019D01*
X98443361Y-68298432D01*
X98443363Y-68298430D01*
X98444180Y-68297732D01*
X97711059Y-67564612D01*
X97731591Y-67559111D01*
X97868408Y-67480119D01*
X97980119Y-67368408D01*
X98059111Y-67231591D01*
X98064612Y-67211060D01*
X98797732Y-67944180D01*
X98798430Y-67943363D01*
X98798432Y-67943361D01*
X98930019Y-67728631D01*
X99026396Y-67495956D01*
X99085187Y-67251072D01*
X99104947Y-67000000D01*
X102895052Y-67000000D01*
X102914812Y-67251072D01*
X102973603Y-67495956D01*
X103069980Y-67728631D01*
X103201568Y-67943362D01*
X103202266Y-67944179D01*
X103935387Y-67211059D01*
X103940889Y-67231591D01*
X104019881Y-67368408D01*
X104131592Y-67480119D01*
X104268409Y-67559111D01*
X104288940Y-67564612D01*
X103555819Y-68297732D01*
X103555819Y-68297733D01*
X103556634Y-68298429D01*
X103771368Y-68430019D01*
X104004043Y-68526396D01*
X104248927Y-68585187D01*
X104500000Y-68604947D01*
X104751072Y-68585187D01*
X104995956Y-68526396D01*
X105228631Y-68430019D01*
X105443361Y-68298432D01*
X105443363Y-68298430D01*
X105444180Y-68297732D01*
X104711059Y-67564612D01*
X104731591Y-67559111D01*
X104868408Y-67480119D01*
X104980119Y-67368408D01*
X105059111Y-67231591D01*
X105064612Y-67211059D01*
X105797732Y-67944180D01*
X105798430Y-67943363D01*
X105798432Y-67943361D01*
X105930019Y-67728631D01*
X106026396Y-67495956D01*
X106085187Y-67251072D01*
X106104947Y-67000000D01*
X109895052Y-67000000D01*
X109914812Y-67251072D01*
X109973603Y-67495956D01*
X110069980Y-67728631D01*
X110201568Y-67943362D01*
X110202266Y-67944179D01*
X110935387Y-67211059D01*
X110940889Y-67231591D01*
X111019881Y-67368408D01*
X111131592Y-67480119D01*
X111268409Y-67559111D01*
X111288940Y-67564612D01*
X110555819Y-68297732D01*
X110555819Y-68297733D01*
X110556634Y-68298429D01*
X110771368Y-68430019D01*
X111004043Y-68526396D01*
X111248927Y-68585187D01*
X111500000Y-68604947D01*
X111751072Y-68585187D01*
X111995956Y-68526396D01*
X112228631Y-68430019D01*
X112443361Y-68298432D01*
X112443363Y-68298430D01*
X112444180Y-68297732D01*
X111711059Y-67564612D01*
X111731591Y-67559111D01*
X111868408Y-67480119D01*
X111980119Y-67368408D01*
X112059111Y-67231591D01*
X112064612Y-67211060D01*
X112797732Y-67944180D01*
X112798430Y-67943363D01*
X112798432Y-67943361D01*
X112930019Y-67728631D01*
X113026396Y-67495956D01*
X113085187Y-67251072D01*
X113104947Y-67000000D01*
X116895052Y-67000000D01*
X116914812Y-67251072D01*
X116973603Y-67495956D01*
X117069980Y-67728631D01*
X117201568Y-67943362D01*
X117202266Y-67944179D01*
X117935387Y-67211059D01*
X117940889Y-67231591D01*
X118019881Y-67368408D01*
X118131592Y-67480119D01*
X118268409Y-67559111D01*
X118288940Y-67564612D01*
X117555819Y-68297732D01*
X117555819Y-68297733D01*
X117556634Y-68298429D01*
X117771368Y-68430019D01*
X118004043Y-68526396D01*
X118248927Y-68585187D01*
X118500000Y-68604947D01*
X118751072Y-68585187D01*
X118995956Y-68526396D01*
X119228631Y-68430019D01*
X119443361Y-68298432D01*
X119443363Y-68298430D01*
X119444180Y-68297732D01*
X118711059Y-67564612D01*
X118731591Y-67559111D01*
X118868408Y-67480119D01*
X118980119Y-67368408D01*
X119059111Y-67231591D01*
X119064612Y-67211059D01*
X119797732Y-67944180D01*
X119798430Y-67943363D01*
X119798432Y-67943361D01*
X119930019Y-67728631D01*
X120026396Y-67495956D01*
X120085187Y-67251072D01*
X120104947Y-67000000D01*
X120085187Y-66748927D01*
X120026396Y-66504043D01*
X119930019Y-66271368D01*
X119798429Y-66056634D01*
X119797733Y-66055819D01*
X119797732Y-66055819D01*
X119064612Y-66788939D01*
X119059111Y-66768409D01*
X118980119Y-66631592D01*
X118868408Y-66519881D01*
X118731591Y-66440889D01*
X118711059Y-66435387D01*
X119444179Y-65702266D01*
X119443362Y-65701568D01*
X119228631Y-65569980D01*
X118995956Y-65473603D01*
X118751072Y-65414812D01*
X118500000Y-65395052D01*
X118248927Y-65414812D01*
X118004043Y-65473603D01*
X117771368Y-65569980D01*
X117556637Y-65701567D01*
X117555819Y-65702266D01*
X118288940Y-66435387D01*
X118268409Y-66440889D01*
X118131592Y-66519881D01*
X118019881Y-66631592D01*
X117940889Y-66768409D01*
X117935387Y-66788940D01*
X117202266Y-66055819D01*
X117201567Y-66056637D01*
X117069980Y-66271368D01*
X116973603Y-66504043D01*
X116914812Y-66748927D01*
X116895052Y-67000000D01*
X113104947Y-67000000D01*
X113085187Y-66748927D01*
X113026396Y-66504043D01*
X112930019Y-66271368D01*
X112798429Y-66056634D01*
X112797733Y-66055819D01*
X112797732Y-66055819D01*
X112064612Y-66788939D01*
X112059111Y-66768409D01*
X111980119Y-66631592D01*
X111868408Y-66519881D01*
X111731591Y-66440889D01*
X111711059Y-66435387D01*
X112444179Y-65702266D01*
X112443362Y-65701568D01*
X112228631Y-65569980D01*
X111995956Y-65473603D01*
X111751072Y-65414812D01*
X111500000Y-65395052D01*
X111248927Y-65414812D01*
X111004043Y-65473603D01*
X110771368Y-65569980D01*
X110556637Y-65701567D01*
X110555819Y-65702266D01*
X111288940Y-66435387D01*
X111268409Y-66440889D01*
X111131592Y-66519881D01*
X111019881Y-66631592D01*
X110940889Y-66768409D01*
X110935387Y-66788940D01*
X110202266Y-66055819D01*
X110201567Y-66056637D01*
X110069980Y-66271368D01*
X109973603Y-66504043D01*
X109914812Y-66748927D01*
X109895052Y-67000000D01*
X106104947Y-67000000D01*
X106085187Y-66748927D01*
X106026396Y-66504043D01*
X105930019Y-66271368D01*
X105798429Y-66056634D01*
X105797733Y-66055819D01*
X105797732Y-66055819D01*
X105064612Y-66788939D01*
X105059111Y-66768409D01*
X104980119Y-66631592D01*
X104868408Y-66519881D01*
X104731591Y-66440889D01*
X104711059Y-66435387D01*
X105444179Y-65702266D01*
X105443362Y-65701568D01*
X105228631Y-65569980D01*
X104995956Y-65473603D01*
X104751072Y-65414812D01*
X104500000Y-65395052D01*
X104248927Y-65414812D01*
X104004043Y-65473603D01*
X103771368Y-65569980D01*
X103556637Y-65701567D01*
X103555819Y-65702266D01*
X104288940Y-66435387D01*
X104268409Y-66440889D01*
X104131592Y-66519881D01*
X104019881Y-66631592D01*
X103940889Y-66768409D01*
X103935387Y-66788940D01*
X103202266Y-66055819D01*
X103201567Y-66056637D01*
X103069980Y-66271368D01*
X102973603Y-66504043D01*
X102914812Y-66748927D01*
X102895052Y-67000000D01*
X99104947Y-67000000D01*
X99085187Y-66748927D01*
X99026396Y-66504043D01*
X98930019Y-66271368D01*
X98798429Y-66056634D01*
X98797733Y-66055819D01*
X98797732Y-66055819D01*
X98064612Y-66788939D01*
X98059111Y-66768409D01*
X97980119Y-66631592D01*
X97868408Y-66519881D01*
X97731591Y-66440889D01*
X97711059Y-66435387D01*
X98444179Y-65702266D01*
X98443362Y-65701568D01*
X98228631Y-65569980D01*
X97995956Y-65473603D01*
X97751072Y-65414812D01*
X97500000Y-65395052D01*
X97248927Y-65414812D01*
X97004043Y-65473603D01*
X96771368Y-65569980D01*
X96556637Y-65701567D01*
X96555819Y-65702266D01*
X97288940Y-66435387D01*
X97268409Y-66440889D01*
X97131592Y-66519881D01*
X97019881Y-66631592D01*
X96940889Y-66768409D01*
X96935387Y-66788940D01*
X96202266Y-66055819D01*
X96201567Y-66056637D01*
X96069980Y-66271368D01*
X95973603Y-66504043D01*
X95914812Y-66748927D01*
X95895052Y-67000000D01*
X90499773Y-67000000D01*
X90530113Y-66939069D01*
X90530116Y-66939063D01*
X90585902Y-66742992D01*
X90585903Y-66742989D01*
X90604713Y-66540000D01*
X90604713Y-66539999D01*
X90585903Y-66337010D01*
X90585902Y-66337007D01*
X90530116Y-66140936D01*
X90530113Y-66140930D01*
X90439249Y-65958449D01*
X90439247Y-65958447D01*
X90437465Y-65956087D01*
X89870000Y-66523552D01*
X89870000Y-66491289D01*
X89844785Y-66397185D01*
X89796074Y-66312814D01*
X89727186Y-66243926D01*
X89642815Y-66195215D01*
X89548711Y-66170000D01*
X89516447Y-66170000D01*
X90080687Y-65605758D01*
X89992413Y-65551101D01*
X89992411Y-65551100D01*
X89802321Y-65477460D01*
X89601928Y-65440000D01*
X89398072Y-65440000D01*
X89197678Y-65477460D01*
X89007588Y-65551100D01*
X89007581Y-65551104D01*
X88919312Y-65605757D01*
X88919311Y-65605758D01*
X89483554Y-66170000D01*
X89451289Y-66170000D01*
X89357185Y-66195215D01*
X89272814Y-66243926D01*
X89203926Y-66312814D01*
X89155215Y-66397185D01*
X89130000Y-66491289D01*
X89130000Y-66523554D01*
X88562533Y-65956087D01*
X88560755Y-65958442D01*
X88560754Y-65958443D01*
X88469886Y-66140930D01*
X88469883Y-66140936D01*
X88414097Y-66337007D01*
X88414096Y-66337010D01*
X88395287Y-66539999D01*
X84072105Y-66539999D01*
X84093596Y-66482379D01*
X84093598Y-66482372D01*
X84099999Y-66422844D01*
X84100000Y-66422827D01*
X84100000Y-65775000D01*
X83183012Y-65775000D01*
X83215925Y-65717993D01*
X83250000Y-65590826D01*
X83250000Y-65459174D01*
X83215925Y-65332007D01*
X83183012Y-65275000D01*
X84100000Y-65275000D01*
X84100000Y-64627172D01*
X84099999Y-64627155D01*
X84093598Y-64567627D01*
X84093596Y-64567620D01*
X84043354Y-64432913D01*
X84043350Y-64432906D01*
X83957190Y-64317812D01*
X83957187Y-64317809D01*
X83842093Y-64231649D01*
X83842088Y-64231646D01*
X83710528Y-64182577D01*
X83654595Y-64140705D01*
X83630178Y-64075241D01*
X83645030Y-64006968D01*
X83650247Y-63999999D01*
X88394785Y-63999999D01*
X88394785Y-64000000D01*
X88413602Y-64203082D01*
X88469417Y-64399247D01*
X88469422Y-64399260D01*
X88560327Y-64581821D01*
X88683237Y-64744581D01*
X88833958Y-64881980D01*
X88833960Y-64881982D01*
X88911543Y-64930019D01*
X89007363Y-64989348D01*
X89197544Y-65063024D01*
X89398024Y-65100500D01*
X89398026Y-65100500D01*
X89601974Y-65100500D01*
X89601976Y-65100500D01*
X89802456Y-65063024D01*
X89992637Y-64989348D01*
X90166041Y-64881981D01*
X90316764Y-64744579D01*
X90439673Y-64581821D01*
X90530582Y-64399250D01*
X90586397Y-64203083D01*
X90605215Y-64000000D01*
X90593021Y-63868408D01*
X90586397Y-63796917D01*
X90567810Y-63731591D01*
X90530582Y-63600750D01*
X90519747Y-63578991D01*
X90480415Y-63500000D01*
X95895052Y-63500000D01*
X95914812Y-63751072D01*
X95973603Y-63995956D01*
X96069980Y-64228631D01*
X96201568Y-64443362D01*
X96202266Y-64444179D01*
X96935387Y-63711059D01*
X96940889Y-63731591D01*
X97019881Y-63868408D01*
X97131592Y-63980119D01*
X97268409Y-64059111D01*
X97288940Y-64064612D01*
X96555819Y-64797732D01*
X96555819Y-64797733D01*
X96556634Y-64798429D01*
X96771368Y-64930019D01*
X97004043Y-65026396D01*
X97248927Y-65085187D01*
X97500000Y-65104947D01*
X97751072Y-65085187D01*
X97995956Y-65026396D01*
X98228631Y-64930019D01*
X98443361Y-64798432D01*
X98443363Y-64798430D01*
X98444180Y-64797732D01*
X97711059Y-64064612D01*
X97731591Y-64059111D01*
X97868408Y-63980119D01*
X97980119Y-63868408D01*
X98059111Y-63731591D01*
X98064612Y-63711060D01*
X98797732Y-64444180D01*
X98798430Y-64443363D01*
X98798432Y-64443361D01*
X98930019Y-64228631D01*
X99026396Y-63995956D01*
X99085187Y-63751072D01*
X99104947Y-63500000D01*
X99085187Y-63248928D01*
X99049409Y-63099902D01*
X99052900Y-63030120D01*
X99093563Y-62973302D01*
X99158490Y-62947489D01*
X99227065Y-62960875D01*
X99257664Y-62983274D01*
X99380385Y-63105995D01*
X99565033Y-63240150D01*
X99768395Y-63343769D01*
X99985455Y-63414295D01*
X100210884Y-63450000D01*
X100750000Y-63450000D01*
X100750000Y-62450000D01*
X101250000Y-62450000D01*
X101250000Y-63450000D01*
X101789116Y-63450000D01*
X102014544Y-63414295D01*
X102231604Y-63343769D01*
X102434966Y-63240150D01*
X102619610Y-63105998D01*
X102742334Y-62983274D01*
X102803657Y-62949789D01*
X102873349Y-62954773D01*
X102929283Y-62996644D01*
X102953700Y-63062108D01*
X102950590Y-63099902D01*
X102914812Y-63248927D01*
X102895052Y-63500000D01*
X102914812Y-63751072D01*
X102973603Y-63995956D01*
X103069980Y-64228631D01*
X103201568Y-64443362D01*
X103202266Y-64444179D01*
X103935387Y-63711059D01*
X103940889Y-63731591D01*
X104019881Y-63868408D01*
X104131592Y-63980119D01*
X104268409Y-64059111D01*
X104288940Y-64064612D01*
X103555819Y-64797732D01*
X103555819Y-64797733D01*
X103556634Y-64798429D01*
X103771368Y-64930019D01*
X104004043Y-65026396D01*
X104248927Y-65085187D01*
X104500000Y-65104947D01*
X104751072Y-65085187D01*
X104995956Y-65026396D01*
X105228631Y-64930019D01*
X105443361Y-64798432D01*
X105443363Y-64798430D01*
X105444180Y-64797732D01*
X104711059Y-64064612D01*
X104731591Y-64059111D01*
X104868408Y-63980119D01*
X104980119Y-63868408D01*
X105059111Y-63731591D01*
X105064612Y-63711059D01*
X105797732Y-64444180D01*
X105798430Y-64443363D01*
X105798432Y-64443361D01*
X105930019Y-64228631D01*
X106026396Y-63995956D01*
X106085187Y-63751072D01*
X106104947Y-63500000D01*
X109894551Y-63500000D01*
X109914317Y-63751151D01*
X109973126Y-63996110D01*
X110069533Y-64228859D01*
X110201160Y-64443653D01*
X110201161Y-64443656D01*
X110201164Y-64443659D01*
X110364776Y-64635224D01*
X110492814Y-64744579D01*
X110556343Y-64798838D01*
X110556346Y-64798839D01*
X110771140Y-64930466D01*
X110913295Y-64989348D01*
X111003889Y-65026873D01*
X111248852Y-65085683D01*
X111500000Y-65105449D01*
X111751148Y-65085683D01*
X111996111Y-65026873D01*
X112228859Y-64930466D01*
X112443659Y-64798836D01*
X112635224Y-64635224D01*
X112798836Y-64443659D01*
X112930466Y-64228859D01*
X113026873Y-63996111D01*
X113085683Y-63751148D01*
X113105449Y-63500000D01*
X113085683Y-63248852D01*
X113050086Y-63100578D01*
X113053577Y-63030796D01*
X113094241Y-62973979D01*
X113159167Y-62948166D01*
X113227743Y-62961552D01*
X113258341Y-62983951D01*
X113380385Y-63105995D01*
X113565033Y-63240150D01*
X113768395Y-63343769D01*
X113985455Y-63414295D01*
X114210884Y-63450000D01*
X114750000Y-63450000D01*
X114750000Y-62450000D01*
X115250000Y-62450000D01*
X115250000Y-63450000D01*
X115789116Y-63450000D01*
X116014544Y-63414295D01*
X116231604Y-63343769D01*
X116434966Y-63240150D01*
X116619610Y-63105998D01*
X116742334Y-62983274D01*
X116803657Y-62949789D01*
X116873349Y-62954773D01*
X116929283Y-62996644D01*
X116953700Y-63062108D01*
X116950590Y-63099902D01*
X116914812Y-63248927D01*
X116895052Y-63500000D01*
X116914812Y-63751072D01*
X116973603Y-63995956D01*
X117069980Y-64228631D01*
X117201568Y-64443362D01*
X117202266Y-64444179D01*
X117935387Y-63711059D01*
X117940889Y-63731591D01*
X118019881Y-63868408D01*
X118131592Y-63980119D01*
X118268409Y-64059111D01*
X118288940Y-64064612D01*
X117555819Y-64797732D01*
X117555819Y-64797733D01*
X117556634Y-64798429D01*
X117771368Y-64930019D01*
X118004043Y-65026396D01*
X118248927Y-65085187D01*
X118500000Y-65104947D01*
X118751072Y-65085187D01*
X118995956Y-65026396D01*
X119228631Y-64930019D01*
X119443361Y-64798432D01*
X119443363Y-64798430D01*
X119444180Y-64797732D01*
X118711059Y-64064612D01*
X118731591Y-64059111D01*
X118868408Y-63980119D01*
X118980119Y-63868408D01*
X119059111Y-63731591D01*
X119064612Y-63711059D01*
X119797732Y-64444180D01*
X119798430Y-64443363D01*
X119798432Y-64443361D01*
X119930019Y-64228631D01*
X120026396Y-63995956D01*
X120085187Y-63751072D01*
X120104947Y-63500000D01*
X120085187Y-63248927D01*
X120026396Y-63004043D01*
X119930019Y-62771368D01*
X119798429Y-62556634D01*
X119797733Y-62555819D01*
X119797732Y-62555819D01*
X119064612Y-63288939D01*
X119059111Y-63268409D01*
X118980119Y-63131592D01*
X118868408Y-63019881D01*
X118731591Y-62940889D01*
X118711059Y-62935387D01*
X119444179Y-62202266D01*
X119443362Y-62201568D01*
X119228631Y-62069980D01*
X118995956Y-61973603D01*
X118751072Y-61914812D01*
X118500000Y-61895052D01*
X118248927Y-61914812D01*
X118004043Y-61973603D01*
X117771368Y-62069980D01*
X117556637Y-62201567D01*
X117555819Y-62202266D01*
X118288940Y-62935387D01*
X118268409Y-62940889D01*
X118131592Y-63019881D01*
X118019881Y-63131592D01*
X117940889Y-63268409D01*
X117935387Y-63288940D01*
X117202265Y-62555818D01*
X117194470Y-62556127D01*
X117126704Y-62539111D01*
X117078895Y-62488159D01*
X117066223Y-62419448D01*
X117071632Y-62393905D01*
X117089296Y-62339541D01*
X117103478Y-62250000D01*
X116050278Y-62250000D01*
X116094333Y-62173694D01*
X116125000Y-62059244D01*
X116125000Y-61940756D01*
X116094333Y-61826306D01*
X116050278Y-61750000D01*
X117103478Y-61750000D01*
X117089295Y-61660455D01*
X117018769Y-61443395D01*
X116915150Y-61240033D01*
X116780995Y-61055385D01*
X116619614Y-60894004D01*
X116434966Y-60759849D01*
X116231604Y-60656230D01*
X116014544Y-60585704D01*
X115789116Y-60550000D01*
X115250000Y-60550000D01*
X115250000Y-61550000D01*
X114750000Y-61550000D01*
X114750000Y-60550000D01*
X114210884Y-60550000D01*
X113985455Y-60585704D01*
X113768395Y-60656230D01*
X113565033Y-60759849D01*
X113380385Y-60894004D01*
X113219004Y-61055385D01*
X113084849Y-61240033D01*
X112981230Y-61443395D01*
X112910704Y-61660455D01*
X112896522Y-61750000D01*
X113949722Y-61750000D01*
X113905667Y-61826306D01*
X113875000Y-61940756D01*
X113875000Y-62059244D01*
X113905667Y-62173694D01*
X113949722Y-62250000D01*
X112896522Y-62250000D01*
X112909547Y-62332240D01*
X112900592Y-62401534D01*
X112855596Y-62454986D01*
X112788845Y-62475625D01*
X112721531Y-62456900D01*
X112692784Y-62432170D01*
X112666618Y-62401534D01*
X112635224Y-62364776D01*
X112447660Y-62204581D01*
X112443656Y-62201161D01*
X112443653Y-62201160D01*
X112228859Y-62069533D01*
X111996110Y-61973126D01*
X111751151Y-61914317D01*
X111500000Y-61894551D01*
X111248848Y-61914317D01*
X111003889Y-61973126D01*
X110771140Y-62069533D01*
X110556346Y-62201160D01*
X110556343Y-62201161D01*
X110364776Y-62364776D01*
X110201161Y-62556343D01*
X110201160Y-62556346D01*
X110069533Y-62771140D01*
X109973126Y-63003889D01*
X109914317Y-63248848D01*
X109894551Y-63500000D01*
X106104947Y-63500000D01*
X106085187Y-63248927D01*
X106026396Y-63004043D01*
X105930019Y-62771368D01*
X105798429Y-62556634D01*
X105797733Y-62555819D01*
X105797732Y-62555819D01*
X105064612Y-63288939D01*
X105059111Y-63268409D01*
X104980119Y-63131592D01*
X104868408Y-63019881D01*
X104731591Y-62940889D01*
X104711059Y-62935387D01*
X105444179Y-62202266D01*
X105443362Y-62201568D01*
X105228631Y-62069980D01*
X104995956Y-61973603D01*
X104751072Y-61914812D01*
X104500000Y-61895052D01*
X104248927Y-61914812D01*
X104004043Y-61973603D01*
X103771368Y-62069980D01*
X103556637Y-62201567D01*
X103555819Y-62202266D01*
X104288940Y-62935387D01*
X104268409Y-62940889D01*
X104131592Y-63019881D01*
X104019881Y-63131592D01*
X103940889Y-63268409D01*
X103935387Y-63288940D01*
X103202265Y-62555818D01*
X103194470Y-62556127D01*
X103126704Y-62539111D01*
X103078895Y-62488159D01*
X103066223Y-62419448D01*
X103071632Y-62393905D01*
X103089296Y-62339541D01*
X103103478Y-62250000D01*
X102050278Y-62250000D01*
X102094333Y-62173694D01*
X102125000Y-62059244D01*
X102125000Y-61940756D01*
X102094333Y-61826306D01*
X102050278Y-61750000D01*
X103103478Y-61750000D01*
X103089295Y-61660455D01*
X103018769Y-61443395D01*
X102915150Y-61240033D01*
X102780995Y-61055385D01*
X102619614Y-60894004D01*
X102434966Y-60759849D01*
X102231604Y-60656230D01*
X102014544Y-60585704D01*
X101789116Y-60550000D01*
X101250000Y-60550000D01*
X101250000Y-61550000D01*
X100750000Y-61550000D01*
X100750000Y-60550000D01*
X100210884Y-60550000D01*
X99985455Y-60585704D01*
X99768395Y-60656230D01*
X99565033Y-60759849D01*
X99380385Y-60894004D01*
X99219004Y-61055385D01*
X99084849Y-61240033D01*
X98981230Y-61443395D01*
X98910704Y-61660455D01*
X98896522Y-61750000D01*
X99949722Y-61750000D01*
X99905667Y-61826306D01*
X99875000Y-61940756D01*
X99875000Y-62059244D01*
X99905667Y-62173694D01*
X99949722Y-62250000D01*
X98896522Y-62250000D01*
X98910704Y-62339546D01*
X98928366Y-62393905D01*
X98930361Y-62463746D01*
X98894280Y-62523579D01*
X98831579Y-62554406D01*
X98805571Y-62556127D01*
X98797732Y-62555819D01*
X98064612Y-63288939D01*
X98059111Y-63268409D01*
X97980119Y-63131592D01*
X97868408Y-63019881D01*
X97731591Y-62940889D01*
X97711059Y-62935387D01*
X98444179Y-62202266D01*
X98443362Y-62201568D01*
X98228631Y-62069980D01*
X97995956Y-61973603D01*
X97751072Y-61914812D01*
X97500000Y-61895052D01*
X97248927Y-61914812D01*
X97004043Y-61973603D01*
X96771368Y-62069980D01*
X96556637Y-62201567D01*
X96555819Y-62202266D01*
X97288940Y-62935387D01*
X97268409Y-62940889D01*
X97131592Y-63019881D01*
X97019881Y-63131592D01*
X96940889Y-63268409D01*
X96935387Y-63288940D01*
X96202266Y-62555819D01*
X96201567Y-62556637D01*
X96069980Y-62771368D01*
X95973603Y-63004043D01*
X95914812Y-63248927D01*
X95895052Y-63500000D01*
X90480415Y-63500000D01*
X90455518Y-63450000D01*
X90439673Y-63418179D01*
X90316764Y-63255421D01*
X90316762Y-63255418D01*
X90166041Y-63118019D01*
X90166039Y-63118017D01*
X89992642Y-63010655D01*
X89992635Y-63010651D01*
X89864147Y-62960875D01*
X89802456Y-62936976D01*
X89601976Y-62899500D01*
X89398024Y-62899500D01*
X89197544Y-62936976D01*
X89197541Y-62936976D01*
X89197541Y-62936977D01*
X89007364Y-63010651D01*
X89007357Y-63010655D01*
X88833960Y-63118017D01*
X88833958Y-63118019D01*
X88683237Y-63255418D01*
X88560327Y-63418178D01*
X88469422Y-63600739D01*
X88469417Y-63600752D01*
X88413602Y-63796917D01*
X88394785Y-63999999D01*
X83650247Y-63999999D01*
X83666175Y-63978720D01*
X83788495Y-63856401D01*
X83924035Y-63662830D01*
X84023903Y-63448663D01*
X84085063Y-63220408D01*
X84105659Y-62985000D01*
X84085063Y-62749592D01*
X84034397Y-62560500D01*
X84023905Y-62521344D01*
X84023904Y-62521343D01*
X84023903Y-62521337D01*
X83924035Y-62307171D01*
X83902424Y-62276306D01*
X83788494Y-62113597D01*
X83621402Y-61946506D01*
X83621395Y-61946501D01*
X83613190Y-61940756D01*
X83547203Y-61894551D01*
X83427834Y-61810967D01*
X83427830Y-61810965D01*
X83427828Y-61810964D01*
X83213663Y-61711097D01*
X83213659Y-61711096D01*
X83213655Y-61711094D01*
X82985413Y-61649938D01*
X82985403Y-61649936D01*
X82750001Y-61629341D01*
X82749999Y-61629341D01*
X82514596Y-61649936D01*
X82514586Y-61649938D01*
X82286344Y-61711094D01*
X82286335Y-61711098D01*
X82072171Y-61810964D01*
X82072169Y-61810965D01*
X81878597Y-61946505D01*
X81711505Y-62113597D01*
X81575965Y-62307169D01*
X81575964Y-62307171D01*
X81476098Y-62521335D01*
X81476094Y-62521344D01*
X81414938Y-62749586D01*
X81414936Y-62749596D01*
X81394341Y-62984999D01*
X78250000Y-62984999D01*
X78250000Y-61459999D01*
X88394785Y-61459999D01*
X88394785Y-61460000D01*
X88413602Y-61663082D01*
X88469417Y-61859247D01*
X88469422Y-61859260D01*
X88560327Y-62041821D01*
X88683237Y-62204581D01*
X88795772Y-62307169D01*
X88831282Y-62339541D01*
X88833958Y-62341980D01*
X88833960Y-62341982D01*
X88863206Y-62360090D01*
X89007363Y-62449348D01*
X89197544Y-62523024D01*
X89398024Y-62560500D01*
X89398026Y-62560500D01*
X89601974Y-62560500D01*
X89601976Y-62560500D01*
X89802456Y-62523024D01*
X89992637Y-62449348D01*
X90166041Y-62341981D01*
X90316764Y-62204579D01*
X90439673Y-62041821D01*
X90530582Y-61859250D01*
X90586397Y-61663083D01*
X90605215Y-61460000D01*
X90586397Y-61256917D01*
X90530582Y-61060750D01*
X90439673Y-60878179D01*
X90380704Y-60800091D01*
X90316762Y-60715418D01*
X90166041Y-60578019D01*
X90166039Y-60578017D01*
X89992642Y-60470655D01*
X89992635Y-60470651D01*
X89897546Y-60433814D01*
X89802456Y-60396976D01*
X89601976Y-60359500D01*
X89398024Y-60359500D01*
X89197544Y-60396976D01*
X89197541Y-60396976D01*
X89197541Y-60396977D01*
X89007364Y-60470651D01*
X89007357Y-60470655D01*
X88833960Y-60578017D01*
X88833958Y-60578019D01*
X88683237Y-60715418D01*
X88560327Y-60878178D01*
X88469422Y-61060739D01*
X88469417Y-61060752D01*
X88413602Y-61256917D01*
X88394785Y-61459999D01*
X78250000Y-61459999D01*
X78250000Y-56500000D01*
X109894551Y-56500000D01*
X109914317Y-56751151D01*
X109973126Y-56996110D01*
X110069533Y-57228859D01*
X110201160Y-57443653D01*
X110201161Y-57443656D01*
X110201608Y-57444179D01*
X110364776Y-57635224D01*
X110513066Y-57761875D01*
X110556343Y-57798838D01*
X110556346Y-57798839D01*
X110771140Y-57930466D01*
X111002737Y-58026396D01*
X111003889Y-58026873D01*
X111248852Y-58085683D01*
X111500000Y-58105449D01*
X111751148Y-58085683D01*
X111996111Y-58026873D01*
X112228859Y-57930466D01*
X112443659Y-57798836D01*
X112635224Y-57635224D01*
X112692785Y-57567828D01*
X112751290Y-57529636D01*
X112821158Y-57529137D01*
X112880205Y-57566491D01*
X112909683Y-57629838D01*
X112909547Y-57667759D01*
X112896521Y-57750000D01*
X113949722Y-57750000D01*
X113905667Y-57826306D01*
X113875000Y-57940756D01*
X113875000Y-58059244D01*
X113905667Y-58173694D01*
X113949722Y-58250000D01*
X112896522Y-58250000D01*
X112910704Y-58339544D01*
X112981230Y-58556604D01*
X113084849Y-58759966D01*
X113219004Y-58944614D01*
X113380385Y-59105995D01*
X113565033Y-59240150D01*
X113768395Y-59343769D01*
X113985455Y-59414295D01*
X114210884Y-59450000D01*
X114750000Y-59450000D01*
X114750000Y-58450000D01*
X115250000Y-58450000D01*
X115250000Y-59450000D01*
X115789116Y-59450000D01*
X116014544Y-59414295D01*
X116231604Y-59343769D01*
X116434966Y-59240150D01*
X116619614Y-59105995D01*
X116780995Y-58944614D01*
X116915150Y-58759966D01*
X117018769Y-58556604D01*
X117089295Y-58339544D01*
X117103478Y-58250000D01*
X116050278Y-58250000D01*
X116094333Y-58173694D01*
X116125000Y-58059244D01*
X116125000Y-57940756D01*
X116094333Y-57826306D01*
X116050278Y-57750000D01*
X117103478Y-57750000D01*
X117089296Y-57660458D01*
X117071632Y-57606095D01*
X117069636Y-57536254D01*
X117105716Y-57476421D01*
X117168417Y-57445592D01*
X117194435Y-57443872D01*
X117202266Y-57444179D01*
X117935387Y-56711059D01*
X117940889Y-56731591D01*
X118019881Y-56868408D01*
X118131592Y-56980119D01*
X118268409Y-57059111D01*
X118288940Y-57064612D01*
X117555819Y-57797732D01*
X117555819Y-57797733D01*
X117556634Y-57798429D01*
X117771368Y-57930019D01*
X118004043Y-58026396D01*
X118248927Y-58085187D01*
X118500000Y-58104947D01*
X118751072Y-58085187D01*
X118995956Y-58026396D01*
X119228631Y-57930019D01*
X119443361Y-57798432D01*
X119443363Y-57798430D01*
X119444180Y-57797732D01*
X118711059Y-57064612D01*
X118731591Y-57059111D01*
X118868408Y-56980119D01*
X118980119Y-56868408D01*
X119059111Y-56731591D01*
X119064612Y-56711059D01*
X119797732Y-57444180D01*
X119798430Y-57443363D01*
X119798432Y-57443361D01*
X119930019Y-57228631D01*
X120026396Y-56995956D01*
X120085187Y-56751072D01*
X120104947Y-56500000D01*
X120085187Y-56248927D01*
X120026396Y-56004043D01*
X119930019Y-55771368D01*
X119798429Y-55556634D01*
X119797733Y-55555819D01*
X119797732Y-55555819D01*
X119064612Y-56288939D01*
X119059111Y-56268409D01*
X118980119Y-56131592D01*
X118868408Y-56019881D01*
X118731591Y-55940889D01*
X118711059Y-55935387D01*
X119444179Y-55202266D01*
X119443362Y-55201568D01*
X119228631Y-55069980D01*
X118995956Y-54973603D01*
X118751072Y-54914812D01*
X118500000Y-54895052D01*
X118248927Y-54914812D01*
X118004043Y-54973603D01*
X117771368Y-55069980D01*
X117556637Y-55201567D01*
X117555819Y-55202266D01*
X118288940Y-55935387D01*
X118268409Y-55940889D01*
X118131592Y-56019881D01*
X118019881Y-56131592D01*
X117940889Y-56268409D01*
X117935387Y-56288940D01*
X117202266Y-55555819D01*
X117201567Y-55556637D01*
X117069980Y-55771368D01*
X116973603Y-56004043D01*
X116914812Y-56248927D01*
X116895052Y-56500000D01*
X116914812Y-56751072D01*
X116950590Y-56900097D01*
X116947099Y-56969880D01*
X116906435Y-57026697D01*
X116841509Y-57052510D01*
X116772933Y-57039124D01*
X116742335Y-57016725D01*
X116619614Y-56894004D01*
X116434966Y-56759849D01*
X116231604Y-56656230D01*
X116014544Y-56585704D01*
X115789116Y-56550000D01*
X115250000Y-56550000D01*
X115250000Y-57550000D01*
X114750000Y-57550000D01*
X114750000Y-56550000D01*
X114210884Y-56550000D01*
X113985455Y-56585704D01*
X113768395Y-56656230D01*
X113565033Y-56759849D01*
X113380389Y-56894001D01*
X113258341Y-57016049D01*
X113197018Y-57049533D01*
X113127326Y-57044549D01*
X113071393Y-57002677D01*
X113046976Y-56937213D01*
X113050086Y-56899420D01*
X113051387Y-56894004D01*
X113085683Y-56751148D01*
X113105449Y-56500000D01*
X113085683Y-56248852D01*
X113026873Y-56003889D01*
X112930466Y-55771141D01*
X112930466Y-55771140D01*
X112799017Y-55556637D01*
X112798838Y-55556345D01*
X112798838Y-55556343D01*
X112761875Y-55513066D01*
X112635224Y-55364776D01*
X112445905Y-55203082D01*
X112443656Y-55201161D01*
X112443653Y-55201160D01*
X112228859Y-55069533D01*
X111996110Y-54973126D01*
X111751151Y-54914317D01*
X111500000Y-54894551D01*
X111248848Y-54914317D01*
X111003889Y-54973126D01*
X110771140Y-55069533D01*
X110556346Y-55201160D01*
X110556343Y-55201161D01*
X110364776Y-55364776D01*
X110201161Y-55556343D01*
X110201160Y-55556346D01*
X110069533Y-55771140D01*
X109973126Y-56003889D01*
X109914317Y-56248848D01*
X109894551Y-56500000D01*
X78250000Y-56500000D01*
X78250000Y-54999999D01*
X87855287Y-54999999D01*
X87855287Y-55000000D01*
X87874096Y-55202989D01*
X87874097Y-55202992D01*
X87929883Y-55399063D01*
X87929886Y-55399069D01*
X88020751Y-55581551D01*
X88022533Y-55583911D01*
X88590000Y-55016445D01*
X88590000Y-55048711D01*
X88615215Y-55142815D01*
X88663926Y-55227186D01*
X88732814Y-55296074D01*
X88817185Y-55344785D01*
X88911289Y-55370000D01*
X88943553Y-55370000D01*
X88379311Y-55934240D01*
X88467585Y-55988897D01*
X88657678Y-56062539D01*
X88858072Y-56100000D01*
X89061928Y-56100000D01*
X89262322Y-56062539D01*
X89452412Y-55988899D01*
X89452416Y-55988897D01*
X89540686Y-55934241D01*
X89540686Y-55934240D01*
X88976448Y-55370000D01*
X89008711Y-55370000D01*
X89102815Y-55344785D01*
X89187186Y-55296074D01*
X89256074Y-55227186D01*
X89304785Y-55142815D01*
X89330000Y-55048711D01*
X89330000Y-55016447D01*
X89897465Y-55583912D01*
X89899247Y-55581553D01*
X89899248Y-55581551D01*
X89990113Y-55399069D01*
X89990116Y-55399063D01*
X90045902Y-55202992D01*
X90045903Y-55202989D01*
X90064713Y-55000000D01*
X90064713Y-54999999D01*
X90394785Y-54999999D01*
X90394785Y-55000000D01*
X90413602Y-55203082D01*
X90469417Y-55399247D01*
X90469422Y-55399260D01*
X90560327Y-55581821D01*
X90683237Y-55744581D01*
X90833958Y-55881980D01*
X90833960Y-55881982D01*
X90918360Y-55934240D01*
X91007363Y-55989348D01*
X91197544Y-56063024D01*
X91398024Y-56100500D01*
X91398026Y-56100500D01*
X91601974Y-56100500D01*
X91601976Y-56100500D01*
X91802456Y-56063024D01*
X91992637Y-55989348D01*
X92166041Y-55881981D01*
X92316764Y-55744579D01*
X92439673Y-55581821D01*
X92530582Y-55399250D01*
X92586397Y-55203083D01*
X92605215Y-55000000D01*
X92605215Y-54999999D01*
X92934785Y-54999999D01*
X92934785Y-55000000D01*
X92953602Y-55203082D01*
X93009417Y-55399247D01*
X93009422Y-55399260D01*
X93100327Y-55581821D01*
X93223237Y-55744581D01*
X93373958Y-55881980D01*
X93373960Y-55881982D01*
X93458360Y-55934240D01*
X93547363Y-55989348D01*
X93737544Y-56063024D01*
X93938024Y-56100500D01*
X93938026Y-56100500D01*
X94141974Y-56100500D01*
X94141976Y-56100500D01*
X94342456Y-56063024D01*
X94532637Y-55989348D01*
X94706041Y-55881981D01*
X94856764Y-55744579D01*
X94979673Y-55581821D01*
X95070582Y-55399250D01*
X95126397Y-55203083D01*
X95145215Y-55000000D01*
X95137275Y-54914317D01*
X95126397Y-54796917D01*
X95110787Y-54742054D01*
X95070582Y-54600750D01*
X95063192Y-54585909D01*
X95000936Y-54460882D01*
X94979673Y-54418179D01*
X94856764Y-54255421D01*
X94856762Y-54255418D01*
X94706041Y-54118019D01*
X94706039Y-54118017D01*
X94532642Y-54010655D01*
X94532635Y-54010651D01*
X94437546Y-53973814D01*
X94342456Y-53936976D01*
X94141976Y-53899500D01*
X93938024Y-53899500D01*
X93737544Y-53936976D01*
X93737541Y-53936976D01*
X93737541Y-53936977D01*
X93547364Y-54010651D01*
X93547357Y-54010655D01*
X93373960Y-54118017D01*
X93373958Y-54118019D01*
X93223237Y-54255418D01*
X93100327Y-54418178D01*
X93009422Y-54600739D01*
X93009417Y-54600752D01*
X92953602Y-54796917D01*
X92934785Y-54999999D01*
X92605215Y-54999999D01*
X92597275Y-54914317D01*
X92586397Y-54796917D01*
X92570787Y-54742054D01*
X92530582Y-54600750D01*
X92523192Y-54585909D01*
X92460936Y-54460882D01*
X92439673Y-54418179D01*
X92316764Y-54255421D01*
X92316762Y-54255418D01*
X92166041Y-54118019D01*
X92166039Y-54118017D01*
X91992642Y-54010655D01*
X91992635Y-54010651D01*
X91897546Y-53973814D01*
X91802456Y-53936976D01*
X91601976Y-53899500D01*
X91398024Y-53899500D01*
X91197544Y-53936976D01*
X91197541Y-53936976D01*
X91197541Y-53936977D01*
X91007364Y-54010651D01*
X91007357Y-54010655D01*
X90833960Y-54118017D01*
X90833958Y-54118019D01*
X90683237Y-54255418D01*
X90560327Y-54418178D01*
X90469422Y-54600739D01*
X90469417Y-54600752D01*
X90413602Y-54796917D01*
X90394785Y-54999999D01*
X90064713Y-54999999D01*
X90045903Y-54797010D01*
X90045902Y-54797007D01*
X89990116Y-54600936D01*
X89990113Y-54600930D01*
X89899249Y-54418449D01*
X89899247Y-54418447D01*
X89897465Y-54416087D01*
X89330000Y-54983552D01*
X89330000Y-54951289D01*
X89304785Y-54857185D01*
X89256074Y-54772814D01*
X89187186Y-54703926D01*
X89102815Y-54655215D01*
X89008711Y-54630000D01*
X88976447Y-54630000D01*
X89540687Y-54065758D01*
X89452413Y-54011101D01*
X89452411Y-54011100D01*
X89262321Y-53937460D01*
X89061928Y-53900000D01*
X88858072Y-53900000D01*
X88657678Y-53937460D01*
X88467588Y-54011100D01*
X88467581Y-54011104D01*
X88379312Y-54065757D01*
X88379311Y-54065758D01*
X88943554Y-54630000D01*
X88911289Y-54630000D01*
X88817185Y-54655215D01*
X88732814Y-54703926D01*
X88663926Y-54772814D01*
X88615215Y-54857185D01*
X88590000Y-54951289D01*
X88590000Y-54983554D01*
X88022533Y-54416087D01*
X88020755Y-54418442D01*
X88020754Y-54418443D01*
X87929886Y-54600930D01*
X87929883Y-54600936D01*
X87874097Y-54797007D01*
X87874096Y-54797010D01*
X87855287Y-54999999D01*
X78250000Y-54999999D01*
X78250000Y-47749999D01*
X85494659Y-47749999D01*
X85498903Y-47793090D01*
X85499500Y-47805244D01*
X85499500Y-53694754D01*
X85498903Y-53706907D01*
X85494659Y-53749999D01*
X85498903Y-53793090D01*
X85499500Y-53805244D01*
X85499500Y-53848544D01*
X85507945Y-53891006D01*
X85509730Y-53903035D01*
X85513975Y-53946130D01*
X85513976Y-53946134D01*
X85526547Y-53987575D01*
X85529503Y-53999378D01*
X85537946Y-54041827D01*
X85537948Y-54041834D01*
X85554517Y-54081834D01*
X85558612Y-54093277D01*
X85566118Y-54118019D01*
X85571187Y-54134729D01*
X85591597Y-54172913D01*
X85596800Y-54183915D01*
X85613368Y-54223914D01*
X85613370Y-54223918D01*
X85637425Y-54259918D01*
X85643678Y-54270350D01*
X85654948Y-54291436D01*
X85664088Y-54308535D01*
X85664094Y-54308543D01*
X85691552Y-54342002D01*
X85698799Y-54351772D01*
X85722860Y-54387781D01*
X85722862Y-54387783D01*
X85722865Y-54387787D01*
X85753479Y-54418401D01*
X85761651Y-54427416D01*
X85789117Y-54460883D01*
X85822579Y-54488345D01*
X85822581Y-54488346D01*
X85831599Y-54496520D01*
X85862214Y-54527136D01*
X85862217Y-54527138D01*
X85862218Y-54527139D01*
X85898217Y-54551193D01*
X85898219Y-54551194D01*
X85907988Y-54558438D01*
X85941462Y-54585910D01*
X85979640Y-54606316D01*
X85990078Y-54612572D01*
X85997899Y-54617797D01*
X86026086Y-54636632D01*
X86066095Y-54653203D01*
X86077091Y-54658404D01*
X86115273Y-54678814D01*
X86156710Y-54691383D01*
X86168160Y-54695480D01*
X86208165Y-54712051D01*
X86250640Y-54720499D01*
X86262414Y-54723448D01*
X86303868Y-54736024D01*
X86346964Y-54740268D01*
X86358990Y-54742052D01*
X86389480Y-54748117D01*
X86401458Y-54750500D01*
X86401459Y-54750500D01*
X86444756Y-54750500D01*
X86456909Y-54751096D01*
X86500000Y-54755341D01*
X86543090Y-54751096D01*
X86555244Y-54750500D01*
X86598542Y-54750500D01*
X86614454Y-54747334D01*
X86641005Y-54742053D01*
X86653037Y-54740268D01*
X86696132Y-54736024D01*
X86737580Y-54723450D01*
X86749353Y-54720500D01*
X86791835Y-54712051D01*
X86831847Y-54695476D01*
X86843280Y-54691386D01*
X86884727Y-54678814D01*
X86922918Y-54658399D01*
X86933910Y-54653201D01*
X86973914Y-54636632D01*
X87009938Y-54612560D01*
X87020351Y-54606320D01*
X87046591Y-54592295D01*
X87058535Y-54585912D01*
X87058539Y-54585909D01*
X87092005Y-54558444D01*
X87101782Y-54551193D01*
X87137781Y-54527140D01*
X87137783Y-54527138D01*
X87138525Y-54526396D01*
X87168408Y-54496512D01*
X87177402Y-54488359D01*
X87210883Y-54460883D01*
X87238359Y-54427402D01*
X87246512Y-54418408D01*
X87277139Y-54387782D01*
X87301200Y-54351772D01*
X87308444Y-54342005D01*
X87335909Y-54308539D01*
X87335912Y-54308535D01*
X87342295Y-54296591D01*
X87356320Y-54270351D01*
X87362560Y-54259938D01*
X87386632Y-54223914D01*
X87403202Y-54183906D01*
X87408402Y-54172913D01*
X87428814Y-54134727D01*
X87441386Y-54093280D01*
X87445476Y-54081847D01*
X87462051Y-54041835D01*
X87470500Y-53999353D01*
X87473450Y-53987580D01*
X87486024Y-53946132D01*
X87490268Y-53903037D01*
X87492054Y-53890999D01*
X87500500Y-53848541D01*
X87500500Y-53805244D01*
X87501097Y-53793090D01*
X87505341Y-53750000D01*
X87501097Y-53706907D01*
X87500500Y-53694754D01*
X87500500Y-53000000D01*
X109895052Y-53000000D01*
X109914812Y-53251072D01*
X109973603Y-53495956D01*
X110069980Y-53728631D01*
X110201568Y-53943362D01*
X110202266Y-53944179D01*
X110935387Y-53211059D01*
X110940889Y-53231591D01*
X111019881Y-53368408D01*
X111131592Y-53480119D01*
X111268409Y-53559111D01*
X111288940Y-53564612D01*
X110555819Y-54297732D01*
X110555819Y-54297733D01*
X110556634Y-54298429D01*
X110771368Y-54430019D01*
X111004043Y-54526396D01*
X111248927Y-54585187D01*
X111500000Y-54604947D01*
X111751072Y-54585187D01*
X111995956Y-54526396D01*
X112228631Y-54430019D01*
X112443361Y-54298432D01*
X112443363Y-54298430D01*
X112444180Y-54297732D01*
X111711059Y-53564612D01*
X111731591Y-53559111D01*
X111868408Y-53480119D01*
X111980119Y-53368408D01*
X112059111Y-53231591D01*
X112064612Y-53211060D01*
X112797732Y-53944180D01*
X112798430Y-53943363D01*
X112798432Y-53943361D01*
X112930019Y-53728631D01*
X113026396Y-53495956D01*
X113085187Y-53251072D01*
X113104947Y-53000000D01*
X116895052Y-53000000D01*
X116914812Y-53251072D01*
X116973603Y-53495956D01*
X117069980Y-53728631D01*
X117201568Y-53943362D01*
X117202266Y-53944179D01*
X117935387Y-53211059D01*
X117940889Y-53231591D01*
X118019881Y-53368408D01*
X118131592Y-53480119D01*
X118268409Y-53559111D01*
X118288940Y-53564612D01*
X117555819Y-54297732D01*
X117555819Y-54297733D01*
X117556634Y-54298429D01*
X117771368Y-54430019D01*
X118004043Y-54526396D01*
X118248927Y-54585187D01*
X118500000Y-54604947D01*
X118751072Y-54585187D01*
X118995956Y-54526396D01*
X119228631Y-54430019D01*
X119443361Y-54298432D01*
X119443363Y-54298430D01*
X119444180Y-54297732D01*
X118711059Y-53564612D01*
X118731591Y-53559111D01*
X118868408Y-53480119D01*
X118980119Y-53368408D01*
X119059111Y-53231591D01*
X119064612Y-53211059D01*
X119797732Y-53944180D01*
X119798430Y-53943363D01*
X119798432Y-53943361D01*
X119930019Y-53728631D01*
X120026396Y-53495956D01*
X120085187Y-53251072D01*
X120104947Y-53000000D01*
X120085187Y-52748927D01*
X120026396Y-52504043D01*
X119930019Y-52271368D01*
X119798429Y-52056634D01*
X119797733Y-52055819D01*
X119797732Y-52055819D01*
X119064612Y-52788939D01*
X119059111Y-52768409D01*
X118980119Y-52631592D01*
X118868408Y-52519881D01*
X118731591Y-52440889D01*
X118711059Y-52435387D01*
X119444179Y-51702266D01*
X119443362Y-51701568D01*
X119228631Y-51569980D01*
X118995956Y-51473603D01*
X118751072Y-51414812D01*
X118500000Y-51395052D01*
X118248927Y-51414812D01*
X118004043Y-51473603D01*
X117771368Y-51569980D01*
X117556637Y-51701567D01*
X117555819Y-51702266D01*
X118288940Y-52435387D01*
X118268409Y-52440889D01*
X118131592Y-52519881D01*
X118019881Y-52631592D01*
X117940889Y-52768409D01*
X117935387Y-52788940D01*
X117202266Y-52055819D01*
X117201567Y-52056637D01*
X117069980Y-52271368D01*
X116973603Y-52504043D01*
X116914812Y-52748927D01*
X116895052Y-53000000D01*
X113104947Y-53000000D01*
X113085187Y-52748927D01*
X113026396Y-52504043D01*
X112930019Y-52271368D01*
X112798429Y-52056634D01*
X112797733Y-52055819D01*
X112797732Y-52055819D01*
X112064612Y-52788939D01*
X112059111Y-52768409D01*
X111980119Y-52631592D01*
X111868408Y-52519881D01*
X111731591Y-52440889D01*
X111711059Y-52435387D01*
X112444179Y-51702266D01*
X112443362Y-51701568D01*
X112228631Y-51569980D01*
X111995956Y-51473603D01*
X111751072Y-51414812D01*
X111500000Y-51395052D01*
X111248927Y-51414812D01*
X111004043Y-51473603D01*
X110771368Y-51569980D01*
X110556637Y-51701567D01*
X110555819Y-51702266D01*
X111288940Y-52435387D01*
X111268409Y-52440889D01*
X111131592Y-52519881D01*
X111019881Y-52631592D01*
X110940889Y-52768409D01*
X110935387Y-52788940D01*
X110202266Y-52055819D01*
X110201567Y-52056637D01*
X110069980Y-52271368D01*
X109973603Y-52504043D01*
X109914812Y-52748927D01*
X109895052Y-53000000D01*
X87500500Y-53000000D01*
X87500500Y-49500000D01*
X109895052Y-49500000D01*
X109914812Y-49751072D01*
X109973603Y-49995956D01*
X110069980Y-50228631D01*
X110201568Y-50443362D01*
X110202266Y-50444179D01*
X110935387Y-49711059D01*
X110940889Y-49731591D01*
X111019881Y-49868408D01*
X111131592Y-49980119D01*
X111268409Y-50059111D01*
X111288940Y-50064612D01*
X110555819Y-50797732D01*
X110555819Y-50797733D01*
X110556634Y-50798429D01*
X110771368Y-50930019D01*
X111004043Y-51026396D01*
X111248927Y-51085187D01*
X111500000Y-51104947D01*
X111751072Y-51085187D01*
X111995956Y-51026396D01*
X112228631Y-50930019D01*
X112443361Y-50798432D01*
X112443363Y-50798430D01*
X112444180Y-50797732D01*
X111711059Y-50064612D01*
X111731591Y-50059111D01*
X111868408Y-49980119D01*
X111980119Y-49868408D01*
X112059111Y-49731591D01*
X112064612Y-49711060D01*
X112797732Y-50444180D01*
X112798430Y-50443363D01*
X112798432Y-50443361D01*
X112930019Y-50228631D01*
X113026396Y-49995956D01*
X113085187Y-49751072D01*
X113104947Y-49500000D01*
X113085187Y-49248928D01*
X113049409Y-49099902D01*
X113052900Y-49030120D01*
X113093563Y-48973302D01*
X113158490Y-48947489D01*
X113227065Y-48960875D01*
X113257664Y-48983274D01*
X113380385Y-49105995D01*
X113565033Y-49240150D01*
X113768395Y-49343769D01*
X113985455Y-49414295D01*
X114210884Y-49450000D01*
X114750000Y-49450000D01*
X114750000Y-48450000D01*
X115250000Y-48450000D01*
X115250000Y-49450000D01*
X115789116Y-49450000D01*
X116014544Y-49414295D01*
X116231604Y-49343769D01*
X116434966Y-49240150D01*
X116619610Y-49105998D01*
X116742334Y-48983274D01*
X116803657Y-48949789D01*
X116873349Y-48954773D01*
X116929283Y-48996644D01*
X116953700Y-49062108D01*
X116950590Y-49099902D01*
X116914812Y-49248927D01*
X116895052Y-49500000D01*
X116914812Y-49751072D01*
X116973603Y-49995956D01*
X117069980Y-50228631D01*
X117201568Y-50443362D01*
X117202266Y-50444179D01*
X117935387Y-49711059D01*
X117940889Y-49731591D01*
X118019881Y-49868408D01*
X118131592Y-49980119D01*
X118268409Y-50059111D01*
X118288940Y-50064612D01*
X117555819Y-50797732D01*
X117555819Y-50797733D01*
X117556634Y-50798429D01*
X117771368Y-50930019D01*
X118004043Y-51026396D01*
X118248927Y-51085187D01*
X118500000Y-51104947D01*
X118751072Y-51085187D01*
X118995956Y-51026396D01*
X119228631Y-50930019D01*
X119443361Y-50798432D01*
X119443363Y-50798430D01*
X119444180Y-50797732D01*
X118711059Y-50064612D01*
X118731591Y-50059111D01*
X118868408Y-49980119D01*
X118980119Y-49868408D01*
X119059111Y-49731591D01*
X119064612Y-49711059D01*
X119797732Y-50444180D01*
X119798430Y-50443363D01*
X119798432Y-50443361D01*
X119930019Y-50228631D01*
X120026396Y-49995956D01*
X120085187Y-49751072D01*
X120104947Y-49500000D01*
X120085187Y-49248927D01*
X120026396Y-49004043D01*
X119930019Y-48771368D01*
X119798429Y-48556634D01*
X119797733Y-48555819D01*
X119797732Y-48555819D01*
X119064612Y-49288939D01*
X119059111Y-49268409D01*
X118980119Y-49131592D01*
X118868408Y-49019881D01*
X118731591Y-48940889D01*
X118711059Y-48935387D01*
X119444179Y-48202266D01*
X119443362Y-48201568D01*
X119228631Y-48069980D01*
X118995956Y-47973603D01*
X118751072Y-47914812D01*
X118500000Y-47895052D01*
X118248927Y-47914812D01*
X118004043Y-47973603D01*
X117771368Y-48069980D01*
X117556637Y-48201567D01*
X117555819Y-48202266D01*
X118288940Y-48935387D01*
X118268409Y-48940889D01*
X118131592Y-49019881D01*
X118019881Y-49131592D01*
X117940889Y-49268409D01*
X117935387Y-49288940D01*
X117202265Y-48555818D01*
X117194470Y-48556127D01*
X117126704Y-48539111D01*
X117078895Y-48488159D01*
X117066223Y-48419448D01*
X117071632Y-48393905D01*
X117089296Y-48339541D01*
X117103478Y-48250000D01*
X116050278Y-48250000D01*
X116094333Y-48173694D01*
X116125000Y-48059244D01*
X116125000Y-47940756D01*
X116094333Y-47826306D01*
X116050278Y-47750000D01*
X117103478Y-47750000D01*
X117089295Y-47660455D01*
X117018769Y-47443395D01*
X116915150Y-47240033D01*
X116780995Y-47055385D01*
X116619614Y-46894004D01*
X116434966Y-46759849D01*
X116231604Y-46656230D01*
X116014544Y-46585704D01*
X115789116Y-46550000D01*
X115250000Y-46550000D01*
X115250000Y-47550000D01*
X114750000Y-47550000D01*
X114750000Y-46550000D01*
X114210884Y-46550000D01*
X113985455Y-46585704D01*
X113768395Y-46656230D01*
X113565033Y-46759849D01*
X113380385Y-46894004D01*
X113219004Y-47055385D01*
X113084849Y-47240033D01*
X112981230Y-47443395D01*
X112910704Y-47660455D01*
X112896522Y-47750000D01*
X113949722Y-47750000D01*
X113905667Y-47826306D01*
X113875000Y-47940756D01*
X113875000Y-48059244D01*
X113905667Y-48173694D01*
X113949722Y-48250000D01*
X112896522Y-48250000D01*
X112910704Y-48339546D01*
X112928366Y-48393905D01*
X112930361Y-48463746D01*
X112894280Y-48523579D01*
X112831579Y-48554406D01*
X112805571Y-48556127D01*
X112797732Y-48555819D01*
X112064612Y-49288939D01*
X112059111Y-49268409D01*
X111980119Y-49131592D01*
X111868408Y-49019881D01*
X111731591Y-48940889D01*
X111711059Y-48935387D01*
X112444179Y-48202266D01*
X112443362Y-48201568D01*
X112228631Y-48069980D01*
X111995956Y-47973603D01*
X111751072Y-47914812D01*
X111500000Y-47895052D01*
X111248927Y-47914812D01*
X111004043Y-47973603D01*
X110771368Y-48069980D01*
X110556637Y-48201567D01*
X110555819Y-48202266D01*
X111288940Y-48935387D01*
X111268409Y-48940889D01*
X111131592Y-49019881D01*
X111019881Y-49131592D01*
X110940889Y-49268409D01*
X110935387Y-49288940D01*
X110202266Y-48555819D01*
X110201567Y-48556637D01*
X110069980Y-48771368D01*
X109973603Y-49004043D01*
X109914812Y-49248927D01*
X109895052Y-49500000D01*
X87500500Y-49500000D01*
X87500500Y-47805244D01*
X87501097Y-47793090D01*
X87505341Y-47750000D01*
X87501097Y-47706907D01*
X87500500Y-47694754D01*
X87500500Y-47651458D01*
X87498117Y-47639480D01*
X87492052Y-47608990D01*
X87490268Y-47596961D01*
X87486024Y-47553869D01*
X87486024Y-47553868D01*
X87473448Y-47512414D01*
X87470499Y-47500640D01*
X87462051Y-47458165D01*
X87445480Y-47418159D01*
X87441383Y-47406710D01*
X87428814Y-47365273D01*
X87408404Y-47327091D01*
X87403203Y-47316095D01*
X87386632Y-47276086D01*
X87362572Y-47240078D01*
X87356316Y-47229640D01*
X87335911Y-47191464D01*
X87335910Y-47191462D01*
X87308438Y-47157988D01*
X87301194Y-47148219D01*
X87277140Y-47112219D01*
X87277136Y-47112214D01*
X87246520Y-47081599D01*
X87238346Y-47072581D01*
X87210884Y-47039118D01*
X87177416Y-47011651D01*
X87168401Y-47003479D01*
X87137787Y-46972865D01*
X87137783Y-46972862D01*
X87137780Y-46972860D01*
X87121139Y-46961740D01*
X87101772Y-46948799D01*
X87092002Y-46941552D01*
X87058543Y-46914094D01*
X87058535Y-46914088D01*
X87020959Y-46894004D01*
X87020350Y-46893678D01*
X87009918Y-46887425D01*
X86973918Y-46863370D01*
X86973914Y-46863368D01*
X86933915Y-46846800D01*
X86922913Y-46841597D01*
X86884729Y-46821187D01*
X86884728Y-46821186D01*
X86884727Y-46821186D01*
X86843277Y-46808612D01*
X86831834Y-46804517D01*
X86791834Y-46787948D01*
X86791827Y-46787946D01*
X86749378Y-46779503D01*
X86737575Y-46776547D01*
X86696134Y-46763976D01*
X86696130Y-46763975D01*
X86653035Y-46759730D01*
X86641006Y-46757945D01*
X86598544Y-46749500D01*
X86598541Y-46749500D01*
X86555244Y-46749500D01*
X86543090Y-46748903D01*
X86500000Y-46744659D01*
X86456910Y-46748903D01*
X86444756Y-46749500D01*
X86401453Y-46749500D01*
X86358991Y-46757945D01*
X86346963Y-46759730D01*
X86303867Y-46763976D01*
X86262427Y-46776546D01*
X86250626Y-46779502D01*
X86208166Y-46787948D01*
X86208161Y-46787949D01*
X86168159Y-46804518D01*
X86156707Y-46808616D01*
X86115272Y-46821186D01*
X86077091Y-46841594D01*
X86066093Y-46846795D01*
X86026091Y-46863364D01*
X85990080Y-46887426D01*
X85979645Y-46893680D01*
X85941465Y-46914087D01*
X85941460Y-46914091D01*
X85907990Y-46941557D01*
X85898225Y-46948799D01*
X85862225Y-46972855D01*
X85862219Y-46972860D01*
X85831595Y-47003483D01*
X85822584Y-47011650D01*
X85789117Y-47039117D01*
X85761650Y-47072584D01*
X85753483Y-47081595D01*
X85722860Y-47112219D01*
X85722855Y-47112225D01*
X85698799Y-47148225D01*
X85691557Y-47157990D01*
X85664091Y-47191460D01*
X85664087Y-47191465D01*
X85643680Y-47229645D01*
X85637426Y-47240080D01*
X85613364Y-47276091D01*
X85596795Y-47316093D01*
X85591594Y-47327091D01*
X85571186Y-47365272D01*
X85558616Y-47406707D01*
X85554518Y-47418159D01*
X85537949Y-47458161D01*
X85537948Y-47458166D01*
X85529502Y-47500626D01*
X85526546Y-47512427D01*
X85513976Y-47553867D01*
X85509730Y-47596963D01*
X85507945Y-47608991D01*
X85499500Y-47651453D01*
X85499500Y-47694754D01*
X85498903Y-47706907D01*
X85494659Y-47749999D01*
X78250000Y-47749999D01*
X78250000Y-45012679D01*
X78250002Y-45011926D01*
X78250006Y-45011226D01*
X78250071Y-45000652D01*
X78250087Y-44999312D01*
X78250293Y-44988101D01*
X78250308Y-44987427D01*
X78250308Y-44987416D01*
X78251139Y-44953493D01*
X78251381Y-44948251D01*
X78254149Y-44907272D01*
X78255318Y-44896730D01*
X78261593Y-44856138D01*
X78262503Y-44850986D01*
X78270988Y-44808333D01*
X78272308Y-44802455D01*
X78293885Y-44716313D01*
X78297414Y-44704681D01*
X78326296Y-44623963D01*
X78330940Y-44612751D01*
X78367604Y-44535230D01*
X78373327Y-44524523D01*
X78417405Y-44450983D01*
X78424152Y-44440886D01*
X78475223Y-44372023D01*
X78482936Y-44362626D01*
X78494741Y-44349600D01*
X78540510Y-44299102D01*
X78549102Y-44290510D01*
X78599600Y-44244741D01*
X78612626Y-44232936D01*
X78622023Y-44225223D01*
X78690886Y-44174152D01*
X78700979Y-44167408D01*
X78774525Y-44123326D01*
X78785229Y-44117604D01*
X78862744Y-44080943D01*
X78873963Y-44076296D01*
X78954684Y-44047413D01*
X78966313Y-44043885D01*
X79052455Y-44022308D01*
X79058333Y-44020988D01*
X79100986Y-44012503D01*
X79106138Y-44011593D01*
X79146730Y-44005318D01*
X79157272Y-44004149D01*
X79198251Y-44001381D01*
X79203493Y-44001139D01*
X79237454Y-44000307D01*
X79238101Y-44000293D01*
X79249312Y-44000087D01*
X79250652Y-44000071D01*
X79261226Y-44000006D01*
X79261926Y-44000002D01*
X79262679Y-44000000D01*
X122487321Y-44000000D01*
X122488074Y-44000002D01*
G37*
G04 #@! TD.AperFunction*
M02*
