G04 #@! TF.GenerationSoftware,KiCad,Pcbnew,8.0.2*
G04 #@! TF.CreationDate,2024-06-05T16:45:05+02:00*
G04 #@! TF.ProjectId,IF to LOW_IF Mixer,49462074-6f20-44c4-9f57-5f4946204d69,rev?*
G04 #@! TF.SameCoordinates,Original*
G04 #@! TF.FileFunction,Legend,Bot*
G04 #@! TF.FilePolarity,Positive*
%FSLAX46Y46*%
G04 Gerber Fmt 4.6, Leading zero omitted, Abs format (unit mm)*
G04 Created by KiCad (PCBNEW 8.0.2) date 2024-06-05 16:45:05*
%MOMM*%
%LPD*%
G01*
G04 APERTURE LIST*
%ADD10C,0.000000*%
%ADD11C,0.150000*%
%ADD12C,0.200000*%
%ADD13C,2.200000*%
%ADD14O,3.250000X1.900000*%
%ADD15C,1.200000*%
%ADD16R,1.700000X1.700000*%
%ADD17O,1.700000X1.700000*%
%ADD18R,4.000000X6.000000*%
%ADD19O,1.900000X3.250000*%
%ADD20R,6.000000X4.000000*%
G04 APERTURE END LIST*
D10*
G36*
X106750070Y-53126043D02*
G01*
X106757875Y-53126770D01*
X106765938Y-53127865D01*
X106774401Y-53129333D01*
X106783409Y-53131177D01*
X106793105Y-53133399D01*
X106815139Y-53138994D01*
X106823060Y-53140914D01*
X106832632Y-53142951D01*
X106843490Y-53145042D01*
X106855268Y-53147126D01*
X106867601Y-53149139D01*
X106880123Y-53151020D01*
X106892468Y-53152708D01*
X106904272Y-53154138D01*
X106999551Y-53164804D01*
X107039506Y-53169253D01*
X107015226Y-53179951D01*
X107012591Y-53181164D01*
X107009715Y-53182586D01*
X107003349Y-53185986D01*
X106996354Y-53190009D01*
X106988959Y-53194513D01*
X106981390Y-53199357D01*
X106973872Y-53204398D01*
X106966634Y-53209495D01*
X106959903Y-53214505D01*
X106949912Y-53221980D01*
X106940132Y-53228871D01*
X106930506Y-53235199D01*
X106920978Y-53240985D01*
X106911492Y-53246250D01*
X106901989Y-53251015D01*
X106892414Y-53255301D01*
X106882710Y-53259128D01*
X106872819Y-53262518D01*
X106862687Y-53265491D01*
X106852255Y-53268069D01*
X106841467Y-53270271D01*
X106830267Y-53272120D01*
X106818597Y-53273635D01*
X106806401Y-53274839D01*
X106793622Y-53275751D01*
X106780019Y-53276414D01*
X106764903Y-53276891D01*
X106748779Y-53277183D01*
X106732151Y-53277289D01*
X106715523Y-53277208D01*
X106699399Y-53276940D01*
X106684283Y-53276486D01*
X106670681Y-53275844D01*
X106670682Y-53275829D01*
X106652447Y-53274642D01*
X106637226Y-53273282D01*
X106630524Y-53272484D01*
X106624307Y-53271581D01*
X106618487Y-53270550D01*
X106612975Y-53269372D01*
X106607682Y-53268025D01*
X106602518Y-53266488D01*
X106597394Y-53264741D01*
X106592221Y-53262761D01*
X106586909Y-53260530D01*
X106581371Y-53258024D01*
X106569255Y-53252109D01*
X106560966Y-53247815D01*
X106552728Y-53243344D01*
X106544755Y-53238828D01*
X106537265Y-53234399D01*
X106530474Y-53230187D01*
X106524599Y-53226322D01*
X106519857Y-53222937D01*
X106517978Y-53221466D01*
X106516463Y-53220163D01*
X106514957Y-53218858D01*
X106513103Y-53217382D01*
X106510927Y-53215750D01*
X106508457Y-53213980D01*
X106502734Y-53210088D01*
X106496144Y-53205841D01*
X106488898Y-53201369D01*
X106481204Y-53196804D01*
X106473274Y-53192280D01*
X106465315Y-53187928D01*
X106427006Y-53167457D01*
X106475080Y-53163187D01*
X106503440Y-53160546D01*
X106529233Y-53157865D01*
X106553129Y-53155047D01*
X106575798Y-53151996D01*
X106597910Y-53148616D01*
X106620136Y-53144811D01*
X106643146Y-53140484D01*
X106667610Y-53135539D01*
X106690521Y-53130997D01*
X106700562Y-53129237D01*
X106709851Y-53127822D01*
X106718533Y-53126756D01*
X106726752Y-53126041D01*
X106734652Y-53125682D01*
X106742377Y-53125681D01*
X106750070Y-53126043D01*
G37*
G36*
X107444602Y-50998399D02*
G01*
X107451560Y-50998708D01*
X107467561Y-50999744D01*
X107482540Y-51000982D01*
X107489132Y-51001668D01*
X107495216Y-51002424D01*
X107500859Y-51003270D01*
X107506128Y-51004223D01*
X107511092Y-51005304D01*
X107515816Y-51006530D01*
X107520369Y-51007923D01*
X107524818Y-51009499D01*
X107529230Y-51011279D01*
X107533673Y-51013281D01*
X107538214Y-51015525D01*
X107542921Y-51018030D01*
X107553100Y-51023897D01*
X107561867Y-51029215D01*
X107569709Y-51034144D01*
X107576668Y-51038738D01*
X107582783Y-51043051D01*
X107588095Y-51047135D01*
X107592646Y-51051045D01*
X107596477Y-51054833D01*
X107598134Y-51056699D01*
X107599627Y-51058554D01*
X107600959Y-51060406D01*
X107602137Y-51062260D01*
X107603166Y-51064125D01*
X107604050Y-51066006D01*
X107604794Y-51067911D01*
X107605404Y-51069845D01*
X107605885Y-51071815D01*
X107606242Y-51073830D01*
X107606480Y-51075894D01*
X107606604Y-51078014D01*
X107606530Y-51082452D01*
X107606061Y-51087197D01*
X107605239Y-51092301D01*
X107603401Y-51099405D01*
X107600384Y-51107572D01*
X107596301Y-51116643D01*
X107591263Y-51126459D01*
X107585383Y-51136864D01*
X107578773Y-51147698D01*
X107571544Y-51158803D01*
X107563810Y-51170021D01*
X107555683Y-51181194D01*
X107547273Y-51192163D01*
X107538694Y-51202771D01*
X107530058Y-51212858D01*
X107521476Y-51222266D01*
X107513062Y-51230838D01*
X107504926Y-51238415D01*
X107497181Y-51244839D01*
X107487357Y-51252310D01*
X107478230Y-51258973D01*
X107469626Y-51264883D01*
X107461368Y-51270093D01*
X107453281Y-51274658D01*
X107445188Y-51278633D01*
X107436916Y-51282070D01*
X107432657Y-51283604D01*
X107428286Y-51285024D01*
X107419125Y-51287550D01*
X107409257Y-51289701D01*
X107398504Y-51291531D01*
X107386693Y-51293095D01*
X107373647Y-51294447D01*
X107359191Y-51295641D01*
X107343148Y-51296730D01*
X107325344Y-51297770D01*
X107288950Y-51299988D01*
X107255746Y-51302387D01*
X107229401Y-51304679D01*
X107219946Y-51305697D01*
X107213581Y-51306581D01*
X107190951Y-51310486D01*
X107200274Y-51274772D01*
X107207863Y-51249041D01*
X107218230Y-51218525D01*
X107230489Y-51185395D01*
X107243757Y-51151820D01*
X107257149Y-51119971D01*
X107269781Y-51092018D01*
X107280768Y-51070132D01*
X107285369Y-51062141D01*
X107289227Y-51056481D01*
X107291869Y-51053228D01*
X107294552Y-51050183D01*
X107297321Y-51047321D01*
X107300220Y-51044616D01*
X107303293Y-51042043D01*
X107306586Y-51039576D01*
X107310143Y-51037190D01*
X107314008Y-51034859D01*
X107318227Y-51032558D01*
X107322843Y-51030260D01*
X107327902Y-51027941D01*
X107333448Y-51025575D01*
X107339525Y-51023136D01*
X107346179Y-51020599D01*
X107353454Y-51017938D01*
X107361394Y-51015127D01*
X107378394Y-51009310D01*
X107385745Y-51006927D01*
X107392483Y-51004872D01*
X107398725Y-51003129D01*
X107404584Y-51001681D01*
X107410178Y-51000511D01*
X107415620Y-50999603D01*
X107421026Y-50998940D01*
X107426513Y-50998504D01*
X107432194Y-50998280D01*
X107438185Y-50998250D01*
X107444602Y-50998399D01*
G37*
G36*
X106761442Y-52349827D02*
G01*
X106839118Y-52351885D01*
X106866549Y-52353144D01*
X106888403Y-52354744D01*
X106906199Y-52356826D01*
X106921460Y-52359532D01*
X106935705Y-52363002D01*
X106950456Y-52367378D01*
X106964759Y-52372245D01*
X106978516Y-52377678D01*
X106991722Y-52383670D01*
X107004374Y-52390214D01*
X107016471Y-52397303D01*
X107028008Y-52404930D01*
X107038983Y-52413088D01*
X107049393Y-52421770D01*
X107059234Y-52430969D01*
X107068505Y-52440678D01*
X107077201Y-52450890D01*
X107085320Y-52461597D01*
X107092859Y-52472795D01*
X107099814Y-52484474D01*
X107106184Y-52496628D01*
X107111965Y-52509250D01*
X107117153Y-52522333D01*
X107121747Y-52535871D01*
X107125742Y-52549855D01*
X107129137Y-52564280D01*
X107131927Y-52579138D01*
X107134111Y-52594422D01*
X107135685Y-52610125D01*
X107136645Y-52626240D01*
X107136990Y-52642760D01*
X107136716Y-52659679D01*
X107135820Y-52676988D01*
X107134299Y-52694682D01*
X107132150Y-52712754D01*
X107129370Y-52731195D01*
X107125957Y-52750000D01*
X107121907Y-52769160D01*
X107120113Y-52776224D01*
X107117840Y-52783696D01*
X107115106Y-52791541D01*
X107111929Y-52799726D01*
X107108327Y-52808217D01*
X107104319Y-52816980D01*
X107099922Y-52825980D01*
X107095154Y-52835184D01*
X107090034Y-52844557D01*
X107084579Y-52854065D01*
X107078809Y-52863675D01*
X107072741Y-52873352D01*
X107066392Y-52883062D01*
X107059783Y-52892772D01*
X107052929Y-52902446D01*
X107045850Y-52912051D01*
X107040253Y-52919186D01*
X107034271Y-52926206D01*
X107027894Y-52933117D01*
X107021112Y-52939927D01*
X107013914Y-52946645D01*
X107006290Y-52953278D01*
X106998229Y-52959834D01*
X106989720Y-52966320D01*
X106980753Y-52972746D01*
X106971318Y-52979117D01*
X106961403Y-52985443D01*
X106950998Y-52991730D01*
X106940093Y-52997988D01*
X106928677Y-53004223D01*
X106916740Y-53010444D01*
X106904270Y-53016657D01*
X106895565Y-53021043D01*
X106884938Y-53026627D01*
X106859566Y-53040476D01*
X106831448Y-53056372D01*
X106803879Y-53072484D01*
X106790975Y-53080077D01*
X106778654Y-53087147D01*
X106767204Y-53093538D01*
X106756917Y-53099098D01*
X106748082Y-53103672D01*
X106740988Y-53107108D01*
X106735927Y-53109250D01*
X106734249Y-53109788D01*
X106733188Y-53109946D01*
X106731962Y-53109625D01*
X106729801Y-53108757D01*
X106722881Y-53105497D01*
X106712850Y-53100391D01*
X106700127Y-53093663D01*
X106685133Y-53085540D01*
X106668288Y-53076245D01*
X106650012Y-53066006D01*
X106630726Y-53055045D01*
X106630726Y-53055046D01*
X106630726Y-53055047D01*
X106630726Y-53055048D01*
X106567902Y-53018926D01*
X106519567Y-52990351D01*
X106500000Y-52978226D01*
X106483055Y-52967187D01*
X106468399Y-52956966D01*
X106455698Y-52947295D01*
X106444620Y-52937909D01*
X106434831Y-52928540D01*
X106425997Y-52918921D01*
X106417786Y-52908784D01*
X106409864Y-52897863D01*
X106401897Y-52885890D01*
X106384497Y-52857721D01*
X106377382Y-52845627D01*
X106370918Y-52833931D01*
X106365077Y-52822520D01*
X106359832Y-52811283D01*
X106355156Y-52800108D01*
X106351021Y-52788884D01*
X106347400Y-52777498D01*
X106344265Y-52765838D01*
X106341589Y-52753793D01*
X106339345Y-52741251D01*
X106337505Y-52728100D01*
X106336042Y-52714228D01*
X106334928Y-52699523D01*
X106334136Y-52683874D01*
X106333639Y-52667168D01*
X106333408Y-52649294D01*
X106333454Y-52630750D01*
X106333827Y-52613497D01*
X106334553Y-52597435D01*
X106335662Y-52582466D01*
X106337182Y-52568491D01*
X106339139Y-52555410D01*
X106341563Y-52543125D01*
X106344480Y-52531536D01*
X106347920Y-52520544D01*
X106351910Y-52510051D01*
X106356478Y-52499957D01*
X106361651Y-52490163D01*
X106367459Y-52480570D01*
X106373928Y-52471078D01*
X106381087Y-52461590D01*
X106388964Y-52452006D01*
X106402906Y-52436459D01*
X106409933Y-52429256D01*
X106417035Y-52422424D01*
X106424241Y-52415954D01*
X106431578Y-52409838D01*
X106439076Y-52404069D01*
X106446763Y-52398640D01*
X106454666Y-52393541D01*
X106462815Y-52388766D01*
X106471237Y-52384307D01*
X106479961Y-52380155D01*
X106489015Y-52376304D01*
X106498427Y-52372745D01*
X106508226Y-52369471D01*
X106518441Y-52366474D01*
X106529099Y-52363745D01*
X106540228Y-52361278D01*
X106551858Y-52359065D01*
X106564016Y-52357097D01*
X106576731Y-52355368D01*
X106590031Y-52353868D01*
X106618500Y-52351529D01*
X106649649Y-52350017D01*
X106683704Y-52349271D01*
X106720893Y-52349229D01*
X106761442Y-52349827D01*
G37*
G36*
X108094566Y-48476111D02*
G01*
X108110783Y-48476773D01*
X108125621Y-48477868D01*
X108139210Y-48479422D01*
X108151678Y-48481460D01*
X108163154Y-48484006D01*
X108173767Y-48487085D01*
X108183647Y-48490721D01*
X108192921Y-48494941D01*
X108201719Y-48499767D01*
X108210171Y-48505226D01*
X108218404Y-48511342D01*
X108226548Y-48518140D01*
X108255462Y-48543309D01*
X108280210Y-48564550D01*
X108283424Y-48567427D01*
X108286564Y-48570576D01*
X108289666Y-48574064D01*
X108292767Y-48577961D01*
X108295903Y-48582333D01*
X108299112Y-48587250D01*
X108302430Y-48592779D01*
X108305894Y-48598989D01*
X108309540Y-48605948D01*
X108313407Y-48613723D01*
X108317529Y-48622383D01*
X108321945Y-48631996D01*
X108326691Y-48642631D01*
X108331803Y-48654355D01*
X108343276Y-48681344D01*
X108360209Y-48722926D01*
X108375793Y-48763437D01*
X108382539Y-48781841D01*
X108388299Y-48798239D01*
X108392856Y-48812050D01*
X108395995Y-48822695D01*
X108434897Y-48966314D01*
X108469372Y-49090786D01*
X108471707Y-49099433D01*
X108473887Y-49108445D01*
X108475865Y-49117555D01*
X108477592Y-49126501D01*
X108479020Y-49135016D01*
X108480102Y-49142835D01*
X108480790Y-49149695D01*
X108481036Y-49155330D01*
X108481164Y-49160889D01*
X108481513Y-49167530D01*
X108482060Y-49175004D01*
X108482779Y-49183062D01*
X108483648Y-49191453D01*
X108484640Y-49199930D01*
X108485733Y-49208241D01*
X108486902Y-49216138D01*
X108489452Y-49233819D01*
X108492088Y-49254694D01*
X108494502Y-49276156D01*
X108496383Y-49295597D01*
X108497977Y-49312407D01*
X108499608Y-49326703D01*
X108500378Y-49332435D01*
X108501086Y-49336971D01*
X108501708Y-49340123D01*
X108501979Y-49341120D01*
X108502219Y-49341700D01*
X108502462Y-49342343D01*
X108502738Y-49343529D01*
X108503382Y-49347407D01*
X108504125Y-49353094D01*
X108504943Y-49360349D01*
X108505810Y-49368932D01*
X108506701Y-49378602D01*
X108507591Y-49389120D01*
X108508455Y-49400243D01*
X108510223Y-49421920D01*
X108512045Y-49440270D01*
X108512909Y-49447592D01*
X108513704Y-49453357D01*
X108514404Y-49457322D01*
X108514710Y-49458554D01*
X108514982Y-49459246D01*
X108515267Y-49459982D01*
X108515610Y-49461348D01*
X108516453Y-49465833D01*
X108517474Y-49472423D01*
X108518637Y-49480838D01*
X108519904Y-49490799D01*
X108521239Y-49502027D01*
X108522605Y-49514244D01*
X108523964Y-49527171D01*
X108533802Y-49619938D01*
X108538285Y-49657128D01*
X108543127Y-49692690D01*
X108548817Y-49729999D01*
X108555842Y-49772431D01*
X108575850Y-49886168D01*
X108585137Y-49938419D01*
X108598821Y-50015257D01*
X108604204Y-50041704D01*
X108613995Y-50086448D01*
X108626801Y-50143236D01*
X108641227Y-50205815D01*
X108675680Y-50355881D01*
X108708221Y-50500875D01*
X108745860Y-50669919D01*
X108752426Y-50699241D01*
X108758582Y-50729469D01*
X108764507Y-50761732D01*
X108770380Y-50797160D01*
X108776380Y-50836885D01*
X108782684Y-50882037D01*
X108789472Y-50933745D01*
X108796923Y-50993141D01*
X108798527Y-51008088D01*
X108799746Y-51023788D01*
X108800581Y-51040245D01*
X108801030Y-51057461D01*
X108801095Y-51075440D01*
X108800774Y-51094186D01*
X108798977Y-51133992D01*
X108795637Y-51176906D01*
X108790753Y-51222957D01*
X108784324Y-51272173D01*
X108776349Y-51324581D01*
X108766162Y-51388242D01*
X108759856Y-51429081D01*
X108757495Y-51440824D01*
X108753190Y-51457380D01*
X108739615Y-51502474D01*
X108720869Y-51559458D01*
X108698687Y-51623427D01*
X108674809Y-51689477D01*
X108650972Y-51752703D01*
X108628913Y-51808199D01*
X108610370Y-51851060D01*
X108566559Y-51945434D01*
X108445398Y-52067477D01*
X108353054Y-52158223D01*
X108261860Y-52243338D01*
X108172336Y-52322403D01*
X108084998Y-52395004D01*
X108000364Y-52460724D01*
X107959224Y-52490873D01*
X107918953Y-52519146D01*
X107879617Y-52545490D01*
X107841282Y-52569853D01*
X107804010Y-52592184D01*
X107767868Y-52612430D01*
X107739725Y-52627458D01*
X107715516Y-52640020D01*
X107694837Y-52650296D01*
X107677284Y-52658467D01*
X107662453Y-52664712D01*
X107649941Y-52669211D01*
X107644427Y-52670862D01*
X107639342Y-52672144D01*
X107634634Y-52673079D01*
X107630254Y-52673690D01*
X107600150Y-52676940D01*
X107567332Y-52748788D01*
X107546144Y-52793561D01*
X107522832Y-52839930D01*
X107497961Y-52886898D01*
X107472099Y-52933468D01*
X107445812Y-52978643D01*
X107419666Y-53021425D01*
X107394228Y-53060820D01*
X107370065Y-53095828D01*
X107350004Y-53123226D01*
X107340682Y-53135439D01*
X107331591Y-53146905D01*
X107322552Y-53157804D01*
X107313384Y-53168319D01*
X107303907Y-53178630D01*
X107293940Y-53188919D01*
X107283303Y-53199368D01*
X107271816Y-53210159D01*
X107259297Y-53221472D01*
X107245567Y-53233490D01*
X107213753Y-53260366D01*
X107174929Y-53292237D01*
X107165108Y-53299582D01*
X107152916Y-53307606D01*
X107138554Y-53316218D01*
X107122230Y-53325325D01*
X107104146Y-53334835D01*
X107084507Y-53344656D01*
X107041385Y-53364863D01*
X106994497Y-53385209D01*
X106945481Y-53404956D01*
X106895973Y-53423368D01*
X106871545Y-53431842D01*
X106847608Y-53439707D01*
X106769503Y-53464689D01*
X106735221Y-53475833D01*
X106734303Y-53475764D01*
X106732221Y-53475309D01*
X106724814Y-53473316D01*
X106713491Y-53470004D01*
X106698744Y-53465523D01*
X106660946Y-53453661D01*
X106615354Y-53438938D01*
X106615358Y-53438955D01*
X106587133Y-53429479D01*
X106559077Y-53419565D01*
X106531351Y-53409280D01*
X106504116Y-53398686D01*
X106477531Y-53387848D01*
X106451757Y-53376829D01*
X106426955Y-53365693D01*
X106403284Y-53354504D01*
X106373885Y-53340064D01*
X106349677Y-53327654D01*
X106339061Y-53321911D01*
X106329194Y-53316316D01*
X106319891Y-53310750D01*
X106310971Y-53305093D01*
X106302249Y-53299225D01*
X106293543Y-53293027D01*
X106284669Y-53286380D01*
X106275444Y-53279163D01*
X106255208Y-53262542D01*
X106231372Y-53242207D01*
X106209211Y-53222853D01*
X106190211Y-53205587D01*
X106181651Y-53197470D01*
X106173586Y-53189555D01*
X106165917Y-53181734D01*
X106158546Y-53173900D01*
X106151375Y-53165948D01*
X106144305Y-53157769D01*
X106137238Y-53149256D01*
X106130074Y-53140304D01*
X106115066Y-53120652D01*
X106098493Y-53097956D01*
X106074291Y-53062690D01*
X106047857Y-53021341D01*
X106020144Y-52975595D01*
X105992108Y-52927140D01*
X105964704Y-52877662D01*
X105938888Y-52828848D01*
X105915613Y-52782386D01*
X105895835Y-52739963D01*
X105866459Y-52673882D01*
X105839761Y-52673882D01*
X105835567Y-52673752D01*
X105831237Y-52673334D01*
X105826671Y-52672584D01*
X105821766Y-52671455D01*
X105816423Y-52669904D01*
X105810540Y-52667887D01*
X105804015Y-52665358D01*
X105796748Y-52662273D01*
X105788637Y-52658588D01*
X105779580Y-52654258D01*
X105769477Y-52649238D01*
X105758227Y-52643484D01*
X105745728Y-52636952D01*
X105731878Y-52629596D01*
X105699724Y-52612235D01*
X105668564Y-52595009D01*
X105639746Y-52578445D01*
X105612464Y-52562020D01*
X105585908Y-52545209D01*
X105559272Y-52527487D01*
X105531747Y-52508330D01*
X105502525Y-52487212D01*
X105470799Y-52463610D01*
X105415425Y-52420939D01*
X105358149Y-52374889D01*
X105299653Y-52326059D01*
X105240622Y-52275049D01*
X105181739Y-52222462D01*
X105123686Y-52168896D01*
X105067148Y-52114952D01*
X105012808Y-52061231D01*
X104903993Y-51951602D01*
X104858171Y-51853249D01*
X104835835Y-51802466D01*
X104812175Y-51743723D01*
X104788295Y-51680241D01*
X104765301Y-51615242D01*
X104744296Y-51551948D01*
X104726387Y-51493581D01*
X104712678Y-51443362D01*
X104707744Y-51422315D01*
X104704274Y-51404514D01*
X104685109Y-51286857D01*
X104678745Y-51243392D01*
X104674150Y-51206802D01*
X104671041Y-51174565D01*
X104670895Y-51172228D01*
X104796986Y-51172228D01*
X104797456Y-51189366D01*
X104798698Y-51199718D01*
X104801140Y-51218815D01*
X104808204Y-51272352D01*
X104824122Y-51393704D01*
X104827035Y-51409157D01*
X104832460Y-51430588D01*
X104849528Y-51487743D01*
X104872698Y-51557883D01*
X104899343Y-51633724D01*
X104926835Y-51707980D01*
X104952546Y-51773365D01*
X104973849Y-51822594D01*
X104982026Y-51838874D01*
X104988115Y-51848383D01*
X104993416Y-51854388D01*
X105002112Y-51863942D01*
X105027857Y-51891729D01*
X105061682Y-51927810D01*
X105099916Y-51968251D01*
X105288771Y-52167179D01*
X105382552Y-52265962D01*
X105579300Y-52400767D01*
X105708502Y-52488915D01*
X105788353Y-52542210D01*
X105813528Y-52558230D01*
X105830873Y-52568467D01*
X105841892Y-52573899D01*
X105845498Y-52575119D01*
X105848085Y-52575503D01*
X105848487Y-52575462D01*
X105848889Y-52575337D01*
X105849293Y-52575130D01*
X105849697Y-52574843D01*
X105850101Y-52574476D01*
X105850505Y-52574032D01*
X105850908Y-52573511D01*
X105851309Y-52572916D01*
X105851708Y-52572248D01*
X105852105Y-52571509D01*
X105852500Y-52570699D01*
X105852891Y-52569821D01*
X105853661Y-52567865D01*
X105854412Y-52565653D01*
X105855141Y-52563197D01*
X105855843Y-52560508D01*
X105856514Y-52557600D01*
X105857152Y-52554485D01*
X105857752Y-52551173D01*
X105858310Y-52547678D01*
X105858822Y-52544011D01*
X105859285Y-52540184D01*
X105861273Y-52523825D01*
X105863757Y-52505410D01*
X105866420Y-52487196D01*
X105868947Y-52471438D01*
X105870089Y-52463929D01*
X105871157Y-52455378D01*
X105872125Y-52446082D01*
X105872971Y-52436340D01*
X105873671Y-52426448D01*
X105874200Y-52416706D01*
X105874535Y-52407409D01*
X105874652Y-52398857D01*
X105874491Y-52385552D01*
X105873930Y-52372165D01*
X105872850Y-52357661D01*
X105871131Y-52341002D01*
X105868656Y-52321151D01*
X105865305Y-52297071D01*
X105860960Y-52267726D01*
X105855501Y-52232078D01*
X105853466Y-52221486D01*
X105850376Y-52209013D01*
X105846313Y-52194853D01*
X105841355Y-52179205D01*
X105829067Y-52144223D01*
X105814144Y-52105639D01*
X105797218Y-52065020D01*
X105778919Y-52023935D01*
X105759879Y-51983956D01*
X105740728Y-51946649D01*
X105733089Y-51932690D01*
X105725160Y-51918817D01*
X105716840Y-51904893D01*
X105708028Y-51890780D01*
X105698623Y-51876341D01*
X105688522Y-51861437D01*
X105677625Y-51845932D01*
X105665831Y-51829688D01*
X105639142Y-51794431D01*
X105607644Y-51754566D01*
X105570527Y-51708991D01*
X105526978Y-51656606D01*
X105500134Y-51624159D01*
X105472751Y-51590389D01*
X105448039Y-51559290D01*
X105429205Y-51534857D01*
X105393264Y-51486935D01*
X105379995Y-51405974D01*
X105366727Y-51325013D01*
X105381077Y-51272558D01*
X105389176Y-51243326D01*
X105396099Y-51219949D01*
X105399379Y-51209884D01*
X105402677Y-51200597D01*
X105406098Y-51191860D01*
X105409746Y-51183443D01*
X105413723Y-51175119D01*
X105418135Y-51166658D01*
X105423086Y-51157833D01*
X105428680Y-51148414D01*
X105442211Y-51126882D01*
X105459563Y-51100235D01*
X105480287Y-51068342D01*
X105499491Y-51038307D01*
X105515035Y-51013507D01*
X105524778Y-50997319D01*
X105527827Y-50992080D01*
X105530797Y-50987190D01*
X105533612Y-50982757D01*
X105536199Y-50978888D01*
X105538485Y-50975690D01*
X105540395Y-50973270D01*
X105541187Y-50972385D01*
X105541856Y-50971735D01*
X105542395Y-50971333D01*
X105542793Y-50971192D01*
X105542952Y-50971333D01*
X105543105Y-50971753D01*
X105543389Y-50973407D01*
X105543646Y-50976098D01*
X105543874Y-50979769D01*
X105544243Y-50989834D01*
X105544491Y-51003154D01*
X105544611Y-51019283D01*
X105544598Y-51037774D01*
X105544445Y-51058181D01*
X105544148Y-51080058D01*
X105543569Y-51109347D01*
X105542847Y-51133671D01*
X105541936Y-51153530D01*
X105540790Y-51169424D01*
X105539364Y-51181852D01*
X105537612Y-51191314D01*
X105536599Y-51195089D01*
X105535487Y-51198310D01*
X105534271Y-51201039D01*
X105532944Y-51203340D01*
X105526857Y-51213728D01*
X105521169Y-51225606D01*
X105515907Y-51238785D01*
X105511099Y-51253077D01*
X105506771Y-51268294D01*
X105502950Y-51284248D01*
X105499663Y-51300749D01*
X105496938Y-51317610D01*
X105494801Y-51334642D01*
X105493279Y-51351657D01*
X105492400Y-51368467D01*
X105492190Y-51384882D01*
X105492676Y-51400715D01*
X105493886Y-51415778D01*
X105495846Y-51429882D01*
X105498583Y-51442838D01*
X105500852Y-51451164D01*
X105503439Y-51459187D01*
X105504916Y-51463169D01*
X105506550Y-51467176D01*
X105508368Y-51471242D01*
X105510394Y-51475402D01*
X105512655Y-51479688D01*
X105515177Y-51484134D01*
X105517985Y-51488775D01*
X105521107Y-51493643D01*
X105528392Y-51504200D01*
X105537239Y-51516073D01*
X105547857Y-51529534D01*
X105560451Y-51544852D01*
X105575231Y-51562298D01*
X105592403Y-51582142D01*
X105612175Y-51604654D01*
X105634755Y-51630103D01*
X105689167Y-51690898D01*
X105801828Y-51816367D01*
X105877367Y-51970043D01*
X105907232Y-52031411D01*
X105932708Y-52084897D01*
X105951093Y-52124755D01*
X105956783Y-52137776D01*
X105959686Y-52145234D01*
X105963392Y-52160633D01*
X105967990Y-52185212D01*
X105973112Y-52216399D01*
X105978388Y-52251626D01*
X105983448Y-52288320D01*
X105987923Y-52323911D01*
X105991444Y-52355829D01*
X105993641Y-52381503D01*
X105994073Y-52392208D01*
X105994240Y-52406333D01*
X105994154Y-52423275D01*
X105993829Y-52442426D01*
X105993277Y-52463183D01*
X105992511Y-52484939D01*
X105991544Y-52507091D01*
X105990390Y-52529032D01*
X105985851Y-52609641D01*
X105983415Y-52656148D01*
X105983357Y-52658944D01*
X105983431Y-52661749D01*
X105983638Y-52664562D01*
X105983978Y-52667384D01*
X105984450Y-52670217D01*
X105985054Y-52673061D01*
X105985792Y-52675916D01*
X105986663Y-52678783D01*
X105987667Y-52681664D01*
X105988804Y-52684558D01*
X105990075Y-52687467D01*
X105991479Y-52690390D01*
X105993017Y-52693330D01*
X105994689Y-52696286D01*
X105996495Y-52699259D01*
X105998435Y-52702251D01*
X106002866Y-52709431D01*
X106009359Y-52720738D01*
X106017606Y-52735595D01*
X106027295Y-52753425D01*
X106049754Y-52795693D01*
X106074249Y-52842926D01*
X106100873Y-52893715D01*
X106129127Y-52945665D01*
X106155638Y-52992680D01*
X106167185Y-53012433D01*
X106177033Y-53028667D01*
X106190397Y-53049864D01*
X106196267Y-53058890D01*
X106201733Y-53067021D01*
X106206897Y-53074374D01*
X106211862Y-53081064D01*
X106216732Y-53087207D01*
X106221609Y-53092919D01*
X106226595Y-53098315D01*
X106231794Y-53103512D01*
X106237308Y-53108626D01*
X106243241Y-53113771D01*
X106249694Y-53119065D01*
X106256772Y-53124622D01*
X106273210Y-53136991D01*
X106285902Y-53146062D01*
X106301605Y-53156767D01*
X106319697Y-53168711D01*
X106339560Y-53181500D01*
X106360574Y-53194739D01*
X106382119Y-53208033D01*
X106403575Y-53220989D01*
X106424323Y-53233211D01*
X106451579Y-53248801D01*
X106476478Y-53262485D01*
X106499818Y-53274637D01*
X106522396Y-53285631D01*
X106545009Y-53295840D01*
X106568454Y-53305640D01*
X106593529Y-53315404D01*
X106621029Y-53325505D01*
X106660177Y-53339326D01*
X106693710Y-53350749D01*
X106718064Y-53358587D01*
X106725684Y-53360792D01*
X106729673Y-53361655D01*
X106731213Y-53361535D01*
X106733772Y-53361046D01*
X106741708Y-53359032D01*
X106753015Y-53355761D01*
X106767225Y-53351378D01*
X106783869Y-53346033D01*
X106802479Y-53339873D01*
X106822588Y-53333044D01*
X106843728Y-53325694D01*
X106874018Y-53314835D01*
X106900545Y-53304794D01*
X106924502Y-53295015D01*
X106947083Y-53284940D01*
X106969479Y-53274013D01*
X106992883Y-53261675D01*
X107018488Y-53247371D01*
X107047487Y-53230544D01*
X107068514Y-53218022D01*
X107090133Y-53204848D01*
X107132680Y-53178128D01*
X107152376Y-53165370D01*
X107170198Y-53153541D01*
X107185530Y-53143035D01*
X107197756Y-53134247D01*
X107213435Y-53122347D01*
X107220205Y-53116967D01*
X107226398Y-53111810D01*
X107232112Y-53106762D01*
X107237450Y-53101704D01*
X107242512Y-53096521D01*
X107247400Y-53091096D01*
X107252213Y-53085313D01*
X107257052Y-53079054D01*
X107262019Y-53072205D01*
X107267215Y-53064647D01*
X107272740Y-53056265D01*
X107278695Y-53046942D01*
X107292298Y-53025008D01*
X107302318Y-53008274D01*
X107314031Y-52988055D01*
X107340830Y-52940249D01*
X107369294Y-52887764D01*
X107396019Y-52836779D01*
X107420489Y-52789639D01*
X107442809Y-52747626D01*
X107460517Y-52715317D01*
X107466871Y-52704232D01*
X107471147Y-52697289D01*
X107473507Y-52693699D01*
X107475598Y-52690352D01*
X107477432Y-52687194D01*
X107479018Y-52684172D01*
X107480368Y-52681232D01*
X107481493Y-52678320D01*
X107482402Y-52675382D01*
X107482779Y-52673886D01*
X107483106Y-52672364D01*
X107483616Y-52669212D01*
X107483942Y-52665874D01*
X107484096Y-52662294D01*
X107484087Y-52658418D01*
X107483926Y-52654195D01*
X107483624Y-52649568D01*
X107483192Y-52644485D01*
X107482639Y-52638892D01*
X107481817Y-52629148D01*
X107480911Y-52615086D01*
X107478966Y-52576661D01*
X107477037Y-52528922D01*
X107475359Y-52477176D01*
X107474493Y-52442350D01*
X107474048Y-52412380D01*
X107474052Y-52386410D01*
X107474534Y-52363585D01*
X107475524Y-52343048D01*
X107477053Y-52323945D01*
X107479149Y-52305420D01*
X107481841Y-52286617D01*
X107497183Y-52188264D01*
X107498473Y-52180515D01*
X107499928Y-52173020D01*
X107501655Y-52165531D01*
X107503762Y-52157799D01*
X107506355Y-52149577D01*
X107509543Y-52140617D01*
X107513431Y-52130669D01*
X107518129Y-52119488D01*
X107523742Y-52106823D01*
X107530378Y-52092428D01*
X107538144Y-52076054D01*
X107547148Y-52057453D01*
X107569298Y-52012578D01*
X107597685Y-51955819D01*
X107666505Y-51818654D01*
X107764858Y-51707750D01*
X107833667Y-51630020D01*
X107885276Y-51570699D01*
X107905423Y-51546718D01*
X107922221Y-51525870D01*
X107935987Y-51507667D01*
X107947039Y-51491618D01*
X107955692Y-51477233D01*
X107962264Y-51464024D01*
X107967071Y-51451501D01*
X107970432Y-51439174D01*
X107972663Y-51426553D01*
X107974080Y-51413150D01*
X107975743Y-51382036D01*
X107976093Y-51370036D01*
X107976091Y-51358330D01*
X107975731Y-51346893D01*
X107975009Y-51335703D01*
X107973919Y-51324739D01*
X107972456Y-51313978D01*
X107970614Y-51303397D01*
X107968389Y-51292975D01*
X107965774Y-51282688D01*
X107962766Y-51272516D01*
X107959357Y-51262434D01*
X107955544Y-51252422D01*
X107951321Y-51242456D01*
X107946682Y-51232515D01*
X107941623Y-51222576D01*
X107936138Y-51212617D01*
X107933610Y-51208126D01*
X107931391Y-51203942D01*
X107930392Y-51201909D01*
X107929464Y-51199885D01*
X107928604Y-51197849D01*
X107927810Y-51195777D01*
X107927080Y-51193648D01*
X107926413Y-51191440D01*
X107925805Y-51189128D01*
X107925255Y-51186693D01*
X107924760Y-51184110D01*
X107924318Y-51181358D01*
X107923928Y-51178414D01*
X107923587Y-51175257D01*
X107923292Y-51171863D01*
X107923042Y-51168210D01*
X107922666Y-51160038D01*
X107922443Y-51150564D01*
X107922355Y-51139607D01*
X107922385Y-51126989D01*
X107922514Y-51112532D01*
X107923004Y-51077381D01*
X107924694Y-50968072D01*
X107946210Y-51001779D01*
X107964310Y-51030246D01*
X107980841Y-51056593D01*
X108000476Y-51088325D01*
X108027891Y-51132951D01*
X108037738Y-51149404D01*
X108042131Y-51157099D01*
X108046210Y-51164534D01*
X108050008Y-51171783D01*
X108053553Y-51178916D01*
X108056877Y-51186005D01*
X108060011Y-51193123D01*
X108062984Y-51200342D01*
X108065828Y-51207732D01*
X108068574Y-51215367D01*
X108071251Y-51223319D01*
X108076524Y-51240457D01*
X108081893Y-51259722D01*
X108100319Y-51328491D01*
X108090728Y-51388017D01*
X108078020Y-51467080D01*
X108077563Y-51469183D01*
X108076811Y-51471596D01*
X108074442Y-51477327D01*
X108070950Y-51484223D01*
X108066372Y-51492232D01*
X108060746Y-51501303D01*
X108054109Y-51511385D01*
X108046498Y-51522426D01*
X108037950Y-51534376D01*
X108028503Y-51547184D01*
X108018194Y-51560797D01*
X107995139Y-51590238D01*
X107969084Y-51622289D01*
X107940325Y-51656543D01*
X107883312Y-51724576D01*
X107835112Y-51784906D01*
X107813867Y-51812887D01*
X107794287Y-51839787D01*
X107776191Y-51865890D01*
X107759399Y-51891477D01*
X107743733Y-51916830D01*
X107729013Y-51942230D01*
X107715058Y-51967960D01*
X107701689Y-51994302D01*
X107688727Y-52021538D01*
X107675991Y-52049949D01*
X107650482Y-52111425D01*
X107639171Y-52140220D01*
X107630209Y-52164156D01*
X107626473Y-52174822D01*
X107623160Y-52184898D01*
X107620216Y-52194591D01*
X107617587Y-52204109D01*
X107615218Y-52213660D01*
X107613055Y-52223452D01*
X107611043Y-52233693D01*
X107609128Y-52244591D01*
X107605370Y-52269189D01*
X107601344Y-52298911D01*
X107597297Y-52330229D01*
X107594391Y-52355031D01*
X107593363Y-52365637D01*
X107592615Y-52375393D01*
X107592147Y-52384558D01*
X107591956Y-52393392D01*
X107592041Y-52402156D01*
X107592401Y-52411108D01*
X107593033Y-52420508D01*
X107593937Y-52430616D01*
X107596552Y-52453995D01*
X107600234Y-52483323D01*
X107603996Y-52512544D01*
X107607023Y-52534538D01*
X107609620Y-52550306D01*
X107610851Y-52556168D01*
X107612089Y-52560850D01*
X107613370Y-52564476D01*
X107614734Y-52567171D01*
X107616219Y-52569062D01*
X107617861Y-52570273D01*
X107619700Y-52570929D01*
X107621772Y-52571156D01*
X107626772Y-52570823D01*
X107628540Y-52570502D01*
X107630697Y-52569888D01*
X107633213Y-52568996D01*
X107636057Y-52567842D01*
X107639200Y-52566444D01*
X107642613Y-52564815D01*
X107646264Y-52562974D01*
X107650125Y-52560936D01*
X107654166Y-52558716D01*
X107658356Y-52556332D01*
X107667067Y-52551132D01*
X107676018Y-52545466D01*
X107680509Y-52542498D01*
X107684971Y-52539461D01*
X108039389Y-52297104D01*
X108046929Y-52291856D01*
X108054502Y-52286331D01*
X108062171Y-52280473D01*
X108070000Y-52274221D01*
X108078051Y-52267516D01*
X108086386Y-52260301D01*
X108095069Y-52252515D01*
X108104162Y-52244101D01*
X108113729Y-52234998D01*
X108123831Y-52225149D01*
X108145894Y-52202973D01*
X108170854Y-52177102D01*
X108199213Y-52147065D01*
X108399267Y-51934013D01*
X108433879Y-51897509D01*
X108447728Y-51882700D01*
X108459727Y-51869343D01*
X108470217Y-51856806D01*
X108479539Y-51844455D01*
X108483868Y-51838152D01*
X108488033Y-51831658D01*
X108492076Y-51824894D01*
X108496040Y-51817782D01*
X108503901Y-51802194D01*
X108511956Y-51784262D01*
X108520547Y-51763352D01*
X108530015Y-51738832D01*
X108552940Y-51676432D01*
X108583460Y-51591999D01*
X108598071Y-51551322D01*
X108610043Y-51517003D01*
X108619697Y-51487940D01*
X108627355Y-51463036D01*
X108633337Y-51441189D01*
X108637964Y-51421300D01*
X108641557Y-51402270D01*
X108644437Y-51382999D01*
X108652543Y-51323871D01*
X108659964Y-51272352D01*
X108661455Y-51260377D01*
X108662730Y-51245950D01*
X108664637Y-51211104D01*
X108665696Y-51170538D01*
X108665920Y-51126978D01*
X108665320Y-51083149D01*
X108663907Y-51041775D01*
X108661693Y-51005581D01*
X108658689Y-50977292D01*
X108648871Y-50915058D01*
X108635712Y-50839239D01*
X108621077Y-50760220D01*
X108606831Y-50688380D01*
X108590341Y-50607028D01*
X108573062Y-50519336D01*
X108556866Y-50437061D01*
X108542971Y-50368733D01*
X108510922Y-50209167D01*
X108476053Y-50025961D01*
X108447058Y-49865844D01*
X108432628Y-49775542D01*
X108419778Y-49652600D01*
X108397349Y-49442282D01*
X108377925Y-49280445D01*
X108360714Y-49160998D01*
X108352690Y-49115267D01*
X108344922Y-49077850D01*
X108326159Y-48997346D01*
X108318666Y-48966829D01*
X108311881Y-48940763D01*
X108305392Y-48917618D01*
X108298786Y-48895864D01*
X108291651Y-48873971D01*
X108283574Y-48850409D01*
X108273302Y-48822669D01*
X108261516Y-48793704D01*
X108248789Y-48764693D01*
X108235694Y-48736814D01*
X108222804Y-48711246D01*
X108210691Y-48689167D01*
X108205106Y-48679804D01*
X108199929Y-48671755D01*
X108195234Y-48665168D01*
X108191091Y-48660190D01*
X108189820Y-48658880D01*
X108188305Y-48657415D01*
X108184628Y-48654084D01*
X108180217Y-48650323D01*
X108175229Y-48646258D01*
X108169822Y-48642015D01*
X108164155Y-48637720D01*
X108158384Y-48633499D01*
X108152666Y-48629478D01*
X108148003Y-48626300D01*
X108143746Y-48623502D01*
X108139779Y-48621059D01*
X108135986Y-48618946D01*
X108134119Y-48618007D01*
X108132252Y-48617141D01*
X108130371Y-48616346D01*
X108128461Y-48615619D01*
X108126507Y-48614957D01*
X108124496Y-48614356D01*
X108122412Y-48613814D01*
X108120242Y-48613328D01*
X108117970Y-48612895D01*
X108115583Y-48612511D01*
X108113065Y-48612175D01*
X108110403Y-48611882D01*
X108104586Y-48611416D01*
X108098017Y-48611089D01*
X108090580Y-48610877D01*
X108082158Y-48610756D01*
X108061898Y-48610693D01*
X108048025Y-48610887D01*
X108032900Y-48611433D01*
X108017011Y-48612293D01*
X108000844Y-48613430D01*
X107984886Y-48614806D01*
X107969624Y-48616381D01*
X107955546Y-48618119D01*
X107943138Y-48619981D01*
X107887814Y-48629247D01*
X107794095Y-48725999D01*
X107769039Y-48752220D01*
X107745836Y-48777293D01*
X107724009Y-48801784D01*
X107703083Y-48826261D01*
X107682585Y-48851292D01*
X107662039Y-48877444D01*
X107640970Y-48905284D01*
X107618903Y-48935381D01*
X107522064Y-49068709D01*
X107512217Y-49082170D01*
X107496766Y-49103526D01*
X107457520Y-49158176D01*
X107366829Y-49284446D01*
X107339246Y-49322379D01*
X107326554Y-49339293D01*
X107319270Y-49349019D01*
X107303365Y-49370802D01*
X107281184Y-49401419D01*
X107255072Y-49437646D01*
X107206862Y-49504199D01*
X107191046Y-49525663D01*
X107183872Y-49534994D01*
X107183527Y-49535218D01*
X107183009Y-49535342D01*
X107182325Y-49535368D01*
X107181478Y-49535298D01*
X107179316Y-49534881D01*
X107176559Y-49534106D01*
X107173246Y-49532990D01*
X107169413Y-49531548D01*
X107165097Y-49529797D01*
X107160337Y-49527753D01*
X107155168Y-49525432D01*
X107149629Y-49522851D01*
X107143756Y-49520026D01*
X107137587Y-49516974D01*
X107131159Y-49513709D01*
X107124510Y-49510250D01*
X107117675Y-49506611D01*
X107110693Y-49502809D01*
X107094841Y-49494453D01*
X107075871Y-49485072D01*
X107054499Y-49474986D01*
X107031438Y-49464513D01*
X107007403Y-49453971D01*
X106983107Y-49443679D01*
X106959265Y-49433957D01*
X106936590Y-49425121D01*
X106895147Y-49409896D01*
X106876496Y-49403479D01*
X106859027Y-49397823D01*
X106842592Y-49392899D01*
X106827041Y-49388681D01*
X106812225Y-49385141D01*
X106797996Y-49382252D01*
X106784204Y-49379986D01*
X106770700Y-49378317D01*
X106757336Y-49377215D01*
X106743963Y-49376656D01*
X106730432Y-49376609D01*
X106716593Y-49377050D01*
X106702298Y-49377949D01*
X106687398Y-49379280D01*
X106672825Y-49381272D01*
X106656392Y-49384463D01*
X106638274Y-49388788D01*
X106618642Y-49394180D01*
X106597669Y-49400572D01*
X106575528Y-49407898D01*
X106552391Y-49416091D01*
X106528431Y-49425084D01*
X106478734Y-49445207D01*
X106427816Y-49467733D01*
X106377060Y-49492130D01*
X106352175Y-49504865D01*
X106327847Y-49517867D01*
X106319446Y-49522391D01*
X106311536Y-49526516D01*
X106304297Y-49530159D01*
X106297907Y-49533236D01*
X106292544Y-49535664D01*
X106288386Y-49537360D01*
X106286814Y-49537907D01*
X106285611Y-49538239D01*
X106284798Y-49538347D01*
X106284545Y-49538313D01*
X106284398Y-49538219D01*
X106200381Y-49422087D01*
X106056344Y-49223252D01*
X106008039Y-49156543D01*
X105978719Y-49115679D01*
X105897114Y-49001600D01*
X105814215Y-48887292D01*
X105799136Y-48867101D01*
X105784908Y-48848772D01*
X105770423Y-48831054D01*
X105754574Y-48812694D01*
X105736253Y-48792442D01*
X105714353Y-48769045D01*
X105687766Y-48741253D01*
X105655384Y-48707812D01*
X105579527Y-48629759D01*
X105524234Y-48620216D01*
X105511830Y-48618299D01*
X105497754Y-48616511D01*
X105482492Y-48614891D01*
X105466532Y-48613477D01*
X105450360Y-48612309D01*
X105434464Y-48611427D01*
X105419331Y-48610869D01*
X105405449Y-48610674D01*
X105384430Y-48610719D01*
X105368228Y-48611037D01*
X105361579Y-48611383D01*
X105355710Y-48611899D01*
X105350478Y-48612618D01*
X105345743Y-48613576D01*
X105341363Y-48614806D01*
X105337196Y-48616341D01*
X105333100Y-48618217D01*
X105328935Y-48620466D01*
X105324557Y-48623123D01*
X105319827Y-48626221D01*
X105308740Y-48633880D01*
X105303838Y-48637380D01*
X105299256Y-48640825D01*
X105294952Y-48644264D01*
X105290885Y-48647748D01*
X105287015Y-48651327D01*
X105283300Y-48655052D01*
X105279698Y-48658974D01*
X105276169Y-48663143D01*
X105272672Y-48667610D01*
X105269166Y-48672425D01*
X105265609Y-48677638D01*
X105261960Y-48683300D01*
X105258179Y-48689462D01*
X105254224Y-48696174D01*
X105250053Y-48703486D01*
X105245627Y-48711450D01*
X105236744Y-48727994D01*
X105228236Y-48744657D01*
X105220073Y-48761525D01*
X105212225Y-48778682D01*
X105204665Y-48796213D01*
X105197361Y-48814202D01*
X105190285Y-48832733D01*
X105183407Y-48851892D01*
X105176698Y-48871763D01*
X105170128Y-48892431D01*
X105157289Y-48936493D01*
X105144653Y-48984755D01*
X105131986Y-49037895D01*
X105120662Y-49089652D01*
X105110492Y-49141838D01*
X105100964Y-49198206D01*
X105091564Y-49262508D01*
X105081780Y-49338497D01*
X105071098Y-49429926D01*
X105059004Y-49540548D01*
X105044987Y-49674116D01*
X105036004Y-49753541D01*
X105025726Y-49832216D01*
X105015002Y-49904070D01*
X105009738Y-49935540D01*
X105004679Y-49963027D01*
X104903839Y-50473234D01*
X104845400Y-50771308D01*
X104815377Y-50931190D01*
X104811907Y-50957265D01*
X104808365Y-50991206D01*
X104804963Y-51029964D01*
X104801913Y-51070493D01*
X104799425Y-51109745D01*
X104797713Y-51144672D01*
X104796986Y-51172228D01*
X104670895Y-51172228D01*
X104669136Y-51144155D01*
X104668152Y-51113048D01*
X104667807Y-51078719D01*
X104667899Y-51059256D01*
X104668277Y-51039279D01*
X104668912Y-51019357D01*
X104669775Y-51000056D01*
X104670836Y-50981944D01*
X104672065Y-50965587D01*
X104673433Y-50951553D01*
X104674910Y-50940410D01*
X104682064Y-50894307D01*
X104688870Y-50848205D01*
X104692955Y-50820227D01*
X104696988Y-50794366D01*
X104701184Y-50769499D01*
X104705755Y-50744504D01*
X104710914Y-50718255D01*
X104716875Y-50689631D01*
X104732055Y-50620763D01*
X104743756Y-50568513D01*
X104777994Y-50414837D01*
X104789453Y-50365660D01*
X104823518Y-50218131D01*
X104831347Y-50184514D01*
X104842278Y-50138219D01*
X104847588Y-50115525D01*
X104852345Y-50094632D01*
X104856031Y-50077860D01*
X104858125Y-50067528D01*
X104858729Y-50064238D01*
X104859412Y-50060776D01*
X104860922Y-50053754D01*
X104861700Y-50050401D01*
X104862462Y-50047291D01*
X104863182Y-50044530D01*
X104863838Y-50042220D01*
X104865618Y-50034212D01*
X104868691Y-50018230D01*
X104877343Y-49970186D01*
X104887042Y-49913773D01*
X104895036Y-49864675D01*
X104900731Y-49830520D01*
X104909724Y-49778616D01*
X104920002Y-49716355D01*
X104929818Y-49649438D01*
X104938735Y-49581030D01*
X104946314Y-49514292D01*
X104952736Y-49454262D01*
X104958724Y-49400572D01*
X104964778Y-49346881D01*
X104971363Y-49286851D01*
X104976118Y-49244483D01*
X104980784Y-49206462D01*
X104985436Y-49172331D01*
X104990148Y-49141633D01*
X104994994Y-49113911D01*
X105000051Y-49088710D01*
X105005392Y-49065573D01*
X105011092Y-49044042D01*
X105027388Y-48985107D01*
X105044601Y-48921101D01*
X105072220Y-48817247D01*
X105074623Y-48808950D01*
X105077723Y-48799244D01*
X105081391Y-48788483D01*
X105085497Y-48777018D01*
X105089913Y-48765204D01*
X105094509Y-48753392D01*
X105099155Y-48741935D01*
X105103723Y-48731187D01*
X105135842Y-48657189D01*
X105145696Y-48634686D01*
X105150144Y-48625032D01*
X105154393Y-48616272D01*
X105158534Y-48608280D01*
X105162656Y-48600928D01*
X105166851Y-48594088D01*
X105171209Y-48587632D01*
X105175819Y-48581434D01*
X105180773Y-48575366D01*
X105186161Y-48569299D01*
X105192072Y-48563108D01*
X105198598Y-48556663D01*
X105205829Y-48549838D01*
X105222767Y-48534538D01*
X105239428Y-48519869D01*
X105246462Y-48513833D01*
X105252793Y-48508571D01*
X105258542Y-48504015D01*
X105263831Y-48500097D01*
X105268780Y-48496750D01*
X105273511Y-48493906D01*
X105278145Y-48491495D01*
X105282804Y-48489451D01*
X105287607Y-48487706D01*
X105292677Y-48486191D01*
X105298135Y-48484838D01*
X105304102Y-48483580D01*
X105318046Y-48481076D01*
X105329485Y-48479447D01*
X105342601Y-48478149D01*
X105357321Y-48477184D01*
X105373573Y-48476554D01*
X105391281Y-48476260D01*
X105410373Y-48476304D01*
X105430776Y-48476689D01*
X105452415Y-48477415D01*
X105543472Y-48481116D01*
X105596871Y-48507469D01*
X105605556Y-48511824D01*
X105613642Y-48516054D01*
X105621293Y-48520295D01*
X105628677Y-48524684D01*
X105635960Y-48529357D01*
X105643307Y-48534448D01*
X105650884Y-48540095D01*
X105658859Y-48546433D01*
X105667398Y-48553597D01*
X105676665Y-48561725D01*
X105686829Y-48570951D01*
X105698054Y-48581412D01*
X105724355Y-48606582D01*
X105756899Y-48638322D01*
X105789971Y-48671021D01*
X105818347Y-48699958D01*
X105831421Y-48713776D01*
X105844097Y-48727564D01*
X105856633Y-48741627D01*
X105869288Y-48756268D01*
X105882321Y-48771791D01*
X105895990Y-48788500D01*
X105926273Y-48826689D01*
X105962204Y-48873264D01*
X106005855Y-48930657D01*
X106067908Y-49013128D01*
X106131653Y-49098823D01*
X106189595Y-49177615D01*
X106234240Y-49239372D01*
X106268199Y-49286322D01*
X106297045Y-49324796D01*
X106308597Y-49339613D01*
X106317726Y-49350822D01*
X106324053Y-49357925D01*
X106326045Y-49359783D01*
X106327194Y-49360428D01*
X106328211Y-49360266D01*
X106329817Y-49359759D01*
X106331978Y-49358923D01*
X106334660Y-49357776D01*
X106341447Y-49354619D01*
X106349899Y-49350428D01*
X106359739Y-49345345D01*
X106370690Y-49339509D01*
X106382474Y-49333062D01*
X106394812Y-49326145D01*
X106420638Y-49311994D01*
X106446415Y-49298874D01*
X106472122Y-49286791D01*
X106497738Y-49275750D01*
X106523239Y-49265756D01*
X106548605Y-49256816D01*
X106573813Y-49248934D01*
X106598842Y-49242117D01*
X106623669Y-49236369D01*
X106648273Y-49231697D01*
X106672633Y-49228105D01*
X106696725Y-49225599D01*
X106720529Y-49224185D01*
X106744022Y-49223869D01*
X106767183Y-49224655D01*
X106789989Y-49226549D01*
X106804694Y-49228458D01*
X106820168Y-49231068D01*
X106836322Y-49234349D01*
X106853068Y-49238269D01*
X106870317Y-49242798D01*
X106887982Y-49247905D01*
X106905974Y-49253558D01*
X106924204Y-49259727D01*
X106942586Y-49266382D01*
X106961029Y-49273490D01*
X106979447Y-49281021D01*
X106997750Y-49288944D01*
X107015851Y-49297229D01*
X107033660Y-49305844D01*
X107051091Y-49314758D01*
X107068055Y-49323941D01*
X107094065Y-49338175D01*
X107116255Y-49349832D01*
X107125181Y-49354318D01*
X107132270Y-49357708D01*
X107137228Y-49359853D01*
X107138815Y-49360411D01*
X107139759Y-49360601D01*
X107140173Y-49360447D01*
X107140802Y-49359987D01*
X107142679Y-49358186D01*
X107145346Y-49355258D01*
X107148754Y-49351264D01*
X107157610Y-49340321D01*
X107168875Y-49325842D01*
X107182176Y-49308311D01*
X107197141Y-49288216D01*
X107213396Y-49266040D01*
X107230570Y-49242270D01*
X107275287Y-49180803D01*
X107334288Y-49100917D01*
X107399899Y-49012948D01*
X107464444Y-48927234D01*
X107508400Y-48869436D01*
X107545156Y-48821761D01*
X107576375Y-48782225D01*
X107603719Y-48748846D01*
X107628850Y-48719643D01*
X107653430Y-48692633D01*
X107679121Y-48665833D01*
X107707584Y-48637263D01*
X107736079Y-48609215D01*
X107759501Y-48586688D01*
X107779057Y-48568701D01*
X107787762Y-48561103D01*
X107795952Y-48554274D01*
X107803779Y-48548089D01*
X107811394Y-48542427D01*
X107818947Y-48537165D01*
X107826588Y-48532180D01*
X107834470Y-48527350D01*
X107842741Y-48522553D01*
X107861059Y-48512567D01*
X107920378Y-48481134D01*
X108013331Y-48477309D01*
X108057480Y-48475991D01*
X108076841Y-48475859D01*
X108094566Y-48476111D01*
G37*
G36*
X106038635Y-50998754D02*
G01*
X106044272Y-50998955D01*
X106049669Y-50999329D01*
X106054914Y-50999889D01*
X106060097Y-51000646D01*
X106065305Y-51001611D01*
X106070628Y-51002796D01*
X106076155Y-51004211D01*
X106081975Y-51005869D01*
X106088177Y-51007781D01*
X106102080Y-51012409D01*
X106114201Y-51016744D01*
X106125222Y-51021097D01*
X106135252Y-51025594D01*
X106139930Y-51027936D01*
X106144401Y-51030362D01*
X106148679Y-51032887D01*
X106152777Y-51035526D01*
X106156709Y-51038297D01*
X106160490Y-51041213D01*
X106164131Y-51044292D01*
X106167648Y-51047550D01*
X106171054Y-51051000D01*
X106174362Y-51054661D01*
X106177586Y-51058546D01*
X106180739Y-51062673D01*
X106183836Y-51067056D01*
X106186890Y-51071712D01*
X106189914Y-51076656D01*
X106192923Y-51081904D01*
X106198948Y-51093376D01*
X106205074Y-51106253D01*
X106211409Y-51120662D01*
X106218064Y-51136729D01*
X106225147Y-51154579D01*
X106235260Y-51180960D01*
X106244549Y-51206130D01*
X106252855Y-51229605D01*
X106260021Y-51250901D01*
X106265889Y-51269535D01*
X106270301Y-51285023D01*
X106273099Y-51296881D01*
X106273843Y-51301298D01*
X106274124Y-51304627D01*
X106274045Y-51305181D01*
X106273793Y-51305693D01*
X106273378Y-51306164D01*
X106272808Y-51306594D01*
X106272091Y-51306983D01*
X106271237Y-51307332D01*
X106270253Y-51307640D01*
X106269147Y-51307908D01*
X106266606Y-51308327D01*
X106263680Y-51308588D01*
X106260438Y-51308696D01*
X106256946Y-51308652D01*
X106253271Y-51308458D01*
X106249482Y-51308118D01*
X106245644Y-51307632D01*
X106241826Y-51307003D01*
X106238095Y-51306234D01*
X106234518Y-51305327D01*
X106231162Y-51304283D01*
X106228095Y-51303107D01*
X106228093Y-51303087D01*
X106226472Y-51302544D01*
X106224172Y-51302013D01*
X106221236Y-51301496D01*
X106217707Y-51300995D01*
X106209041Y-51300058D01*
X106198515Y-51299223D01*
X106186473Y-51298515D01*
X106173256Y-51297955D01*
X106159206Y-51297567D01*
X106144666Y-51297374D01*
X106129390Y-51297178D01*
X106115250Y-51296756D01*
X106102139Y-51296079D01*
X106089952Y-51295116D01*
X106078583Y-51293839D01*
X106067927Y-51292218D01*
X106057877Y-51290223D01*
X106048329Y-51287826D01*
X106039177Y-51284997D01*
X106030315Y-51281706D01*
X106021637Y-51277924D01*
X106013038Y-51273622D01*
X106004412Y-51268770D01*
X105995654Y-51263338D01*
X105986657Y-51257298D01*
X105977317Y-51250620D01*
X105968963Y-51244012D01*
X105960214Y-51236211D01*
X105951188Y-51227378D01*
X105942000Y-51217672D01*
X105932767Y-51207255D01*
X105923607Y-51196286D01*
X105914635Y-51184926D01*
X105905969Y-51173335D01*
X105897724Y-51161673D01*
X105890018Y-51150102D01*
X105882967Y-51138782D01*
X105876689Y-51127872D01*
X105871298Y-51117533D01*
X105866913Y-51107926D01*
X105863650Y-51099211D01*
X105861625Y-51091549D01*
X105860871Y-51087508D01*
X105860257Y-51083870D01*
X105859798Y-51080594D01*
X105859504Y-51077639D01*
X105859389Y-51074964D01*
X105859464Y-51072529D01*
X105859577Y-51071389D01*
X105859742Y-51070293D01*
X105859961Y-51069237D01*
X105860235Y-51068215D01*
X105860566Y-51067223D01*
X105860955Y-51066255D01*
X105861404Y-51065306D01*
X105861915Y-51064371D01*
X105862489Y-51063445D01*
X105863127Y-51062523D01*
X105864603Y-51060670D01*
X105866355Y-51058772D01*
X105868396Y-51056787D01*
X105870738Y-51054676D01*
X105873393Y-51052396D01*
X105881064Y-51046101D01*
X105888623Y-51040279D01*
X105896108Y-51034914D01*
X105903556Y-51029993D01*
X105911004Y-51025499D01*
X105918491Y-51021417D01*
X105926054Y-51017733D01*
X105933730Y-51014432D01*
X105941556Y-51011497D01*
X105949572Y-51008915D01*
X105957813Y-51006669D01*
X105966318Y-51004746D01*
X105975125Y-51003129D01*
X105984270Y-51001803D01*
X105993791Y-51000755D01*
X106003727Y-50999967D01*
X106019390Y-50999084D01*
X106026282Y-50998831D01*
X106032668Y-50998717D01*
X106038635Y-50998754D01*
G37*
G36*
X105424546Y-48704122D02*
G01*
X105437395Y-48705215D01*
X105450635Y-48706883D01*
X105464205Y-48709131D01*
X105478043Y-48711963D01*
X105492089Y-48715385D01*
X105539616Y-48727892D01*
X105605608Y-48796832D01*
X105629422Y-48821887D01*
X105639976Y-48833317D01*
X105650214Y-48844792D01*
X105660575Y-48856892D01*
X105671497Y-48870201D01*
X105683422Y-48885299D01*
X105696786Y-48902769D01*
X105712031Y-48923192D01*
X105729595Y-48947150D01*
X105749917Y-48975225D01*
X105773436Y-49007998D01*
X105831826Y-49089968D01*
X105908277Y-49197714D01*
X106118347Y-49493551D01*
X106140668Y-49525438D01*
X106150431Y-49539793D01*
X106158948Y-49552609D01*
X106165983Y-49563527D01*
X106171300Y-49572186D01*
X106174663Y-49578228D01*
X106175538Y-49580154D01*
X106175837Y-49581291D01*
X106175770Y-49581720D01*
X106175573Y-49582281D01*
X106174802Y-49583782D01*
X106173547Y-49585762D01*
X106171835Y-49588192D01*
X106169693Y-49591039D01*
X106167145Y-49594274D01*
X106164219Y-49597866D01*
X106160940Y-49601784D01*
X106153427Y-49610475D01*
X106144815Y-49620101D01*
X106135311Y-49630415D01*
X106125123Y-49641173D01*
X106118483Y-49647966D01*
X106111540Y-49654823D01*
X106096700Y-49668767D01*
X106080518Y-49683073D01*
X106062912Y-49697809D01*
X106043797Y-49713045D01*
X106023089Y-49728848D01*
X106000703Y-49745288D01*
X105976556Y-49762433D01*
X105915628Y-49807652D01*
X105837889Y-49869301D01*
X105748548Y-49942914D01*
X105652816Y-50024020D01*
X105555903Y-50108150D01*
X105463019Y-50190837D01*
X105379374Y-50267612D01*
X105310178Y-50334005D01*
X105284054Y-50360195D01*
X105257701Y-50387163D01*
X105231836Y-50414135D01*
X105207178Y-50440341D01*
X105184445Y-50465010D01*
X105164357Y-50487369D01*
X105147631Y-50506648D01*
X105134987Y-50522075D01*
X105097128Y-50570230D01*
X105076675Y-50595839D01*
X105076065Y-50596510D01*
X105075490Y-50597031D01*
X105074949Y-50597393D01*
X105074691Y-50597512D01*
X105074442Y-50597588D01*
X105074200Y-50597620D01*
X105073967Y-50597608D01*
X105073742Y-50597549D01*
X105073525Y-50597444D01*
X105073317Y-50597290D01*
X105073116Y-50597088D01*
X105072923Y-50596835D01*
X105072739Y-50596531D01*
X105072393Y-50595764D01*
X105072078Y-50594780D01*
X105071794Y-50593570D01*
X105071540Y-50592125D01*
X105071316Y-50590437D01*
X105071122Y-50588497D01*
X105070957Y-50586298D01*
X105070821Y-50583829D01*
X105070713Y-50581084D01*
X105070634Y-50578053D01*
X105070556Y-50571100D01*
X105070586Y-50562904D01*
X105070720Y-50553396D01*
X105070955Y-50542508D01*
X105071287Y-50530174D01*
X105071714Y-50516324D01*
X105072233Y-50500891D01*
X105072233Y-50500892D01*
X105072234Y-50500892D01*
X105072235Y-50500893D01*
X105072235Y-50500894D01*
X105072236Y-50500894D01*
X105072236Y-50500895D01*
X105074085Y-50454499D01*
X105076461Y-50405424D01*
X105079054Y-50359518D01*
X105081553Y-50322630D01*
X105085186Y-50273454D01*
X105216510Y-50273454D01*
X105245915Y-50242499D01*
X105277515Y-50208956D01*
X105312199Y-50171780D01*
X105312181Y-50171778D01*
X105332962Y-50151038D01*
X105362892Y-50123525D01*
X105445084Y-50052273D01*
X105548533Y-49966205D01*
X105663015Y-49873500D01*
X105778309Y-49782340D01*
X105884189Y-49700904D01*
X105970433Y-49637374D01*
X106002997Y-49614879D01*
X106026819Y-49599929D01*
X106065326Y-49577994D01*
X105997450Y-49486210D01*
X105944129Y-49413588D01*
X105923719Y-49385426D01*
X105911246Y-49367875D01*
X105811767Y-49228635D01*
X105682792Y-49053436D01*
X105566937Y-48899559D01*
X105527248Y-48848517D01*
X105506821Y-48824287D01*
X105500020Y-48818059D01*
X105493643Y-48812520D01*
X105487633Y-48807652D01*
X105481931Y-48803438D01*
X105476482Y-48799863D01*
X105473834Y-48798309D01*
X105471227Y-48796908D01*
X105468655Y-48795658D01*
X105466109Y-48794557D01*
X105463584Y-48793603D01*
X105461071Y-48792793D01*
X105458564Y-48792126D01*
X105456056Y-48791600D01*
X105453539Y-48791212D01*
X105451006Y-48790960D01*
X105448450Y-48790842D01*
X105445864Y-48790857D01*
X105443241Y-48791001D01*
X105440573Y-48791273D01*
X105437853Y-48791671D01*
X105435075Y-48792192D01*
X105429313Y-48793598D01*
X105423229Y-48795472D01*
X105416767Y-48797799D01*
X105411136Y-48799915D01*
X105406211Y-48801856D01*
X105403978Y-48802852D01*
X105401877Y-48803914D01*
X105399894Y-48805077D01*
X105398013Y-48806380D01*
X105396222Y-48807858D01*
X105394503Y-48809547D01*
X105392844Y-48811485D01*
X105391229Y-48813707D01*
X105389642Y-48816250D01*
X105388071Y-48819150D01*
X105386499Y-48822444D01*
X105384912Y-48826169D01*
X105383295Y-48830361D01*
X105381634Y-48835056D01*
X105379914Y-48840292D01*
X105378119Y-48846103D01*
X105376236Y-48852527D01*
X105374249Y-48859601D01*
X105369905Y-48875842D01*
X105364970Y-48895118D01*
X105359326Y-48917720D01*
X105345436Y-48974072D01*
X105333655Y-49023882D01*
X105322247Y-49075979D01*
X105311408Y-49129281D01*
X105301334Y-49182705D01*
X105292222Y-49235170D01*
X105284267Y-49285592D01*
X105277666Y-49332891D01*
X105272614Y-49375983D01*
X105258511Y-49516552D01*
X105253397Y-49574904D01*
X105248971Y-49634129D01*
X105244780Y-49700850D01*
X105240371Y-49781688D01*
X105229087Y-50012204D01*
X105219635Y-50208910D01*
X105216510Y-50273454D01*
X105085186Y-50273454D01*
X105087536Y-50241643D01*
X105093929Y-50150513D01*
X105098583Y-50085746D01*
X105103628Y-50024721D01*
X105109951Y-49957436D01*
X105118439Y-49873895D01*
X105130852Y-49750954D01*
X105137290Y-49686947D01*
X105143414Y-49628012D01*
X105145951Y-49602173D01*
X105148492Y-49572716D01*
X105150746Y-49543269D01*
X105152417Y-49517459D01*
X105154013Y-49492674D01*
X105156064Y-49466377D01*
X105161226Y-49412158D01*
X105164182Y-49385691D01*
X105167286Y-49360621D01*
X105170461Y-49337677D01*
X105173628Y-49317586D01*
X105176422Y-49300578D01*
X105179770Y-49279263D01*
X105183251Y-49256362D01*
X105186445Y-49234600D01*
X105194827Y-49179757D01*
X105198953Y-49155289D01*
X105202950Y-49133249D01*
X105206752Y-49113981D01*
X105210294Y-49097829D01*
X105213511Y-49085138D01*
X105216339Y-49076252D01*
X105217574Y-49072868D01*
X105218614Y-49069712D01*
X105219445Y-49066852D01*
X105220053Y-49064356D01*
X105220268Y-49063267D01*
X105220423Y-49062295D01*
X105220514Y-49061449D01*
X105220540Y-49060737D01*
X105220499Y-49060169D01*
X105220390Y-49059752D01*
X105220309Y-49059603D01*
X105220211Y-49059495D01*
X105220094Y-49059430D01*
X105219959Y-49059408D01*
X105219825Y-49059388D01*
X105219708Y-49059327D01*
X105219608Y-49059226D01*
X105219525Y-49059088D01*
X105219458Y-49058912D01*
X105219408Y-49058700D01*
X105219373Y-49058452D01*
X105219355Y-49058170D01*
X105219352Y-49057855D01*
X105219364Y-49057508D01*
X105219435Y-49056720D01*
X105219566Y-49055815D01*
X105219755Y-49054801D01*
X105220000Y-49053686D01*
X105220300Y-49052477D01*
X105220653Y-49051184D01*
X105221058Y-49049814D01*
X105221513Y-49048375D01*
X105222017Y-49046875D01*
X105222568Y-49045322D01*
X105223164Y-49043725D01*
X105224428Y-49040214D01*
X105225729Y-49036243D01*
X105227029Y-49031948D01*
X105228292Y-49027466D01*
X105229481Y-49022933D01*
X105230559Y-49018486D01*
X105231489Y-49014262D01*
X105232233Y-49010397D01*
X105234991Y-48996705D01*
X105238841Y-48980472D01*
X105249241Y-48942113D01*
X105262277Y-48898780D01*
X105276791Y-48853933D01*
X105291625Y-48811035D01*
X105305621Y-48773544D01*
X105317623Y-48744924D01*
X105322514Y-48735021D01*
X105326472Y-48728633D01*
X105328594Y-48726115D01*
X105330990Y-48723726D01*
X105333651Y-48721468D01*
X105336570Y-48719340D01*
X105339740Y-48717345D01*
X105343152Y-48715481D01*
X105346800Y-48713750D01*
X105350675Y-48712152D01*
X105354771Y-48710688D01*
X105359078Y-48709359D01*
X105368300Y-48707106D01*
X105378278Y-48705399D01*
X105388953Y-48704242D01*
X105400264Y-48703640D01*
X105412148Y-48703598D01*
X105424546Y-48704122D01*
G37*
G36*
X108055715Y-48702540D02*
G01*
X108061304Y-48702831D01*
X108067175Y-48703304D01*
X108073428Y-48703953D01*
X108087473Y-48705746D01*
X108102423Y-48707874D01*
X108108561Y-48708848D01*
X108113916Y-48709819D01*
X108118570Y-48710828D01*
X108122604Y-48711919D01*
X108126101Y-48713135D01*
X108129141Y-48714517D01*
X108131807Y-48716108D01*
X108133025Y-48716996D01*
X108134179Y-48717952D01*
X108136341Y-48720090D01*
X108138372Y-48722564D01*
X108140356Y-48725419D01*
X108142373Y-48728695D01*
X108146834Y-48736685D01*
X108153369Y-48750033D01*
X108160656Y-48767263D01*
X108176964Y-48811570D01*
X108194727Y-48866003D01*
X108212912Y-48926956D01*
X108230486Y-48990825D01*
X108246416Y-49054007D01*
X108259671Y-49112897D01*
X108269218Y-49163891D01*
X108281552Y-49240744D01*
X108285315Y-49262796D01*
X108290174Y-49289921D01*
X108293608Y-49310115D01*
X108296975Y-49332898D01*
X108300262Y-49358152D01*
X108303455Y-49385758D01*
X108306542Y-49415600D01*
X108309510Y-49447560D01*
X108312346Y-49481520D01*
X108315037Y-49517362D01*
X108320549Y-49589738D01*
X108326580Y-49659316D01*
X108333081Y-49725547D01*
X108339999Y-49787879D01*
X108342465Y-49809656D01*
X108344872Y-49832561D01*
X108346947Y-49853871D01*
X108348415Y-49870865D01*
X108349930Y-49888097D01*
X108352121Y-49910058D01*
X108354698Y-49933926D01*
X108357369Y-49956877D01*
X108361633Y-49996418D01*
X108366306Y-50047469D01*
X108376082Y-50172957D01*
X108385107Y-50311040D01*
X108391788Y-50439422D01*
X108393381Y-50473724D01*
X108395181Y-50508048D01*
X108396967Y-50538410D01*
X108398521Y-50560826D01*
X108399081Y-50569155D01*
X108399408Y-50576914D01*
X108399509Y-50583933D01*
X108399389Y-50590045D01*
X108399055Y-50595080D01*
X108398810Y-50597141D01*
X108398514Y-50598869D01*
X108398167Y-50600243D01*
X108397770Y-50601242D01*
X108397324Y-50601846D01*
X108397083Y-50601992D01*
X108396831Y-50602032D01*
X108396515Y-50601938D01*
X108396087Y-50601692D01*
X108394908Y-50600755D01*
X108393317Y-50599251D01*
X108391341Y-50597211D01*
X108389005Y-50594666D01*
X108386335Y-50591646D01*
X108380094Y-50584305D01*
X108372823Y-50575434D01*
X108364726Y-50565278D01*
X108356008Y-50554084D01*
X108346872Y-50542097D01*
X108346875Y-50542098D01*
X108346878Y-50542099D01*
X108346880Y-50542100D01*
X108346882Y-50542100D01*
X108346883Y-50542101D01*
X108331432Y-50522408D01*
X108313136Y-50500489D01*
X108292216Y-50476564D01*
X108268895Y-50450851D01*
X108215933Y-50394939D01*
X108156020Y-50334505D01*
X108090929Y-50271302D01*
X108022431Y-50207080D01*
X107952298Y-50143594D01*
X107882301Y-50082595D01*
X107651786Y-49885403D01*
X107636734Y-49872763D01*
X107618910Y-49858326D01*
X107598974Y-49842597D01*
X107577587Y-49826081D01*
X107555409Y-49809283D01*
X107533101Y-49792709D01*
X107511324Y-49776862D01*
X107490738Y-49762249D01*
X107471494Y-49748491D01*
X107452352Y-49734235D01*
X107415068Y-49704886D01*
X107380275Y-49675517D01*
X107349364Y-49647445D01*
X107335798Y-49634306D01*
X107323724Y-49621985D01*
X107313315Y-49610646D01*
X107304746Y-49600454D01*
X107298189Y-49591573D01*
X107293819Y-49584167D01*
X107292509Y-49581069D01*
X107291810Y-49578401D01*
X107291774Y-49577198D01*
X107405272Y-49577198D01*
X107405311Y-49577449D01*
X107405431Y-49577737D01*
X107405629Y-49578062D01*
X107405904Y-49578423D01*
X107406252Y-49578817D01*
X107406673Y-49579244D01*
X107407723Y-49580190D01*
X107409039Y-49581251D01*
X107410603Y-49582416D01*
X107412400Y-49583675D01*
X107414415Y-49585017D01*
X107416630Y-49586432D01*
X107419030Y-49587910D01*
X107421600Y-49589439D01*
X107424323Y-49591010D01*
X107427182Y-49592612D01*
X107430163Y-49594235D01*
X107433249Y-49595867D01*
X107436424Y-49597500D01*
X107449445Y-49604858D01*
X107466636Y-49615790D01*
X107512132Y-49647298D01*
X107570125Y-49689872D01*
X107637826Y-49741362D01*
X107712446Y-49799619D01*
X107791197Y-49862491D01*
X107871291Y-49927829D01*
X107949938Y-49993482D01*
X108013005Y-50046427D01*
X108077377Y-50099949D01*
X108091532Y-50111970D01*
X108106742Y-50125478D01*
X108122532Y-50140015D01*
X108138425Y-50155119D01*
X108153945Y-50170332D01*
X108168616Y-50185194D01*
X108181960Y-50199245D01*
X108193503Y-50212026D01*
X108213434Y-50234611D01*
X108230130Y-50253122D01*
X108241843Y-50265648D01*
X108245283Y-50269069D01*
X108246303Y-50269965D01*
X108246821Y-50270277D01*
X108246942Y-50270165D01*
X108247051Y-50269819D01*
X108247232Y-50268451D01*
X108247454Y-50263169D01*
X108247492Y-50254802D01*
X108247354Y-50243722D01*
X108247047Y-50230302D01*
X108246577Y-50214913D01*
X108245951Y-50197926D01*
X108245176Y-50179714D01*
X108245161Y-50179711D01*
X108224567Y-49757459D01*
X108216982Y-49627246D01*
X108210883Y-49545027D01*
X108198474Y-49407748D01*
X108190738Y-49342178D01*
X108178444Y-49261706D01*
X108162872Y-49172695D01*
X108145302Y-49081506D01*
X108127014Y-48994502D01*
X108109289Y-48918044D01*
X108093408Y-48858495D01*
X108086558Y-48837050D01*
X108080649Y-48822217D01*
X108079607Y-48820227D01*
X108078402Y-48818271D01*
X108077043Y-48816353D01*
X108075538Y-48814476D01*
X108073893Y-48812644D01*
X108072118Y-48810858D01*
X108070220Y-48809122D01*
X108068205Y-48807440D01*
X108066083Y-48805815D01*
X108063861Y-48804250D01*
X108061546Y-48802747D01*
X108059146Y-48801310D01*
X108054122Y-48798648D01*
X108048852Y-48796288D01*
X108043396Y-48794256D01*
X108037816Y-48792576D01*
X108032175Y-48791274D01*
X108029350Y-48790773D01*
X108026532Y-48790375D01*
X108023730Y-48790085D01*
X108020951Y-48789904D01*
X108018203Y-48789838D01*
X108015492Y-48789887D01*
X108012828Y-48790057D01*
X108010218Y-48790349D01*
X108007669Y-48790768D01*
X108005189Y-48791315D01*
X108003226Y-48791900D01*
X108001129Y-48792700D01*
X107998904Y-48793709D01*
X107996556Y-48794922D01*
X107991514Y-48797940D01*
X107986046Y-48801711D01*
X107980196Y-48806193D01*
X107974008Y-48811344D01*
X107967525Y-48817122D01*
X107960790Y-48823485D01*
X107953847Y-48830390D01*
X107946740Y-48837795D01*
X107939511Y-48845658D01*
X107932205Y-48853937D01*
X107924865Y-48862590D01*
X107917535Y-48871574D01*
X107910258Y-48880847D01*
X107903077Y-48890367D01*
X107716865Y-49145303D01*
X107559557Y-49362220D01*
X107547891Y-49378587D01*
X107527952Y-49406064D01*
X107474426Y-49479014D01*
X107447580Y-49515743D01*
X107425593Y-49546497D01*
X107410734Y-49568056D01*
X107406686Y-49574380D01*
X107405632Y-49576253D01*
X107405272Y-49577198D01*
X107291774Y-49577198D01*
X107291744Y-49576185D01*
X107292334Y-49574440D01*
X107294382Y-49571349D01*
X107298364Y-49565556D01*
X107311187Y-49547204D01*
X107328923Y-49522063D01*
X107349690Y-49492813D01*
X107388568Y-49437744D01*
X107401800Y-49418658D01*
X107408330Y-49408877D01*
X107420212Y-49391649D01*
X107448031Y-49352290D01*
X107534862Y-49230576D01*
X107718268Y-48973476D01*
X107740939Y-48941652D01*
X107760241Y-48915154D01*
X107777496Y-48892379D01*
X107794026Y-48871726D01*
X107811153Y-48851593D01*
X107830200Y-48830377D01*
X107852487Y-48806476D01*
X107879339Y-48778288D01*
X107927828Y-48727681D01*
X107984652Y-48713536D01*
X108001842Y-48709376D01*
X108016213Y-48706246D01*
X108022588Y-48705049D01*
X108028555Y-48704087D01*
X108034211Y-48703352D01*
X108039657Y-48702838D01*
X108044990Y-48702536D01*
X108050310Y-48702439D01*
X108055715Y-48702540D01*
G37*
D11*
X102984649Y-48899931D02*
X103175125Y-48899931D01*
X103175125Y-48899931D02*
X103270363Y-48947550D01*
X103270363Y-48947550D02*
X103317982Y-48995169D01*
X103317982Y-48995169D02*
X103413220Y-49138026D01*
X103413220Y-49138026D02*
X103460839Y-49328502D01*
X103460839Y-49328502D02*
X103460839Y-49709454D01*
X103460839Y-49709454D02*
X103413220Y-49804692D01*
X103413220Y-49804692D02*
X103365601Y-49852312D01*
X103365601Y-49852312D02*
X103270363Y-49899931D01*
X103270363Y-49899931D02*
X103079887Y-49899931D01*
X103079887Y-49899931D02*
X102984649Y-49852312D01*
X102984649Y-49852312D02*
X102937030Y-49804692D01*
X102937030Y-49804692D02*
X102889411Y-49709454D01*
X102889411Y-49709454D02*
X102889411Y-49471359D01*
X102889411Y-49471359D02*
X102937030Y-49376121D01*
X102937030Y-49376121D02*
X102984649Y-49328502D01*
X102984649Y-49328502D02*
X103079887Y-49280883D01*
X103079887Y-49280883D02*
X103270363Y-49280883D01*
X103270363Y-49280883D02*
X103365601Y-49328502D01*
X103365601Y-49328502D02*
X103413220Y-49376121D01*
X103413220Y-49376121D02*
X103460839Y-49471359D01*
X102270363Y-48899931D02*
X102175125Y-48899931D01*
X102175125Y-48899931D02*
X102079887Y-48947550D01*
X102079887Y-48947550D02*
X102032268Y-48995169D01*
X102032268Y-48995169D02*
X101984649Y-49090407D01*
X101984649Y-49090407D02*
X101937030Y-49280883D01*
X101937030Y-49280883D02*
X101937030Y-49518978D01*
X101937030Y-49518978D02*
X101984649Y-49709454D01*
X101984649Y-49709454D02*
X102032268Y-49804692D01*
X102032268Y-49804692D02*
X102079887Y-49852312D01*
X102079887Y-49852312D02*
X102175125Y-49899931D01*
X102175125Y-49899931D02*
X102270363Y-49899931D01*
X102270363Y-49899931D02*
X102365601Y-49852312D01*
X102365601Y-49852312D02*
X102413220Y-49804692D01*
X102413220Y-49804692D02*
X102460839Y-49709454D01*
X102460839Y-49709454D02*
X102508458Y-49518978D01*
X102508458Y-49518978D02*
X102508458Y-49280883D01*
X102508458Y-49280883D02*
X102460839Y-49090407D01*
X102460839Y-49090407D02*
X102413220Y-48995169D01*
X102413220Y-48995169D02*
X102365601Y-48947550D01*
X102365601Y-48947550D02*
X102270363Y-48899931D01*
X100889410Y-49233264D02*
X100508458Y-49233264D01*
X100746553Y-48899931D02*
X100746553Y-49757073D01*
X100746553Y-49757073D02*
X100698934Y-49852312D01*
X100698934Y-49852312D02*
X100603696Y-49899931D01*
X100603696Y-49899931D02*
X100508458Y-49899931D01*
X100032267Y-49899931D02*
X100127505Y-49852312D01*
X100127505Y-49852312D02*
X100175124Y-49804692D01*
X100175124Y-49804692D02*
X100222743Y-49709454D01*
X100222743Y-49709454D02*
X100222743Y-49423740D01*
X100222743Y-49423740D02*
X100175124Y-49328502D01*
X100175124Y-49328502D02*
X100127505Y-49280883D01*
X100127505Y-49280883D02*
X100032267Y-49233264D01*
X100032267Y-49233264D02*
X99889410Y-49233264D01*
X99889410Y-49233264D02*
X99794172Y-49280883D01*
X99794172Y-49280883D02*
X99746553Y-49328502D01*
X99746553Y-49328502D02*
X99698934Y-49423740D01*
X99698934Y-49423740D02*
X99698934Y-49709454D01*
X99698934Y-49709454D02*
X99746553Y-49804692D01*
X99746553Y-49804692D02*
X99794172Y-49852312D01*
X99794172Y-49852312D02*
X99889410Y-49899931D01*
X99889410Y-49899931D02*
X100032267Y-49899931D01*
X97984648Y-49899931D02*
X98556076Y-49899931D01*
X98270362Y-49899931D02*
X98270362Y-48899931D01*
X98270362Y-48899931D02*
X98365600Y-49042788D01*
X98365600Y-49042788D02*
X98460838Y-49138026D01*
X98460838Y-49138026D02*
X98556076Y-49185645D01*
X97365600Y-48899931D02*
X97270362Y-48899931D01*
X97270362Y-48899931D02*
X97175124Y-48947550D01*
X97175124Y-48947550D02*
X97127505Y-48995169D01*
X97127505Y-48995169D02*
X97079886Y-49090407D01*
X97079886Y-49090407D02*
X97032267Y-49280883D01*
X97032267Y-49280883D02*
X97032267Y-49518978D01*
X97032267Y-49518978D02*
X97079886Y-49709454D01*
X97079886Y-49709454D02*
X97127505Y-49804692D01*
X97127505Y-49804692D02*
X97175124Y-49852312D01*
X97175124Y-49852312D02*
X97270362Y-49899931D01*
X97270362Y-49899931D02*
X97365600Y-49899931D01*
X97365600Y-49899931D02*
X97460838Y-49852312D01*
X97460838Y-49852312D02*
X97508457Y-49804692D01*
X97508457Y-49804692D02*
X97556076Y-49709454D01*
X97556076Y-49709454D02*
X97603695Y-49518978D01*
X97603695Y-49518978D02*
X97603695Y-49280883D01*
X97603695Y-49280883D02*
X97556076Y-49090407D01*
X97556076Y-49090407D02*
X97508457Y-48995169D01*
X97508457Y-48995169D02*
X97460838Y-48947550D01*
X97460838Y-48947550D02*
X97365600Y-48899931D01*
X95841790Y-49899931D02*
X95841790Y-48899931D01*
X95841790Y-48899931D02*
X95508457Y-49614216D01*
X95508457Y-49614216D02*
X95175124Y-48899931D01*
X95175124Y-48899931D02*
X95175124Y-49899931D01*
X94698933Y-49899931D02*
X94698933Y-48899931D01*
X94698933Y-49376121D02*
X94127505Y-49376121D01*
X94127505Y-49899931D02*
X94127505Y-48899931D01*
X93746552Y-49233264D02*
X93222743Y-49233264D01*
X93222743Y-49233264D02*
X93746552Y-49899931D01*
X93746552Y-49899931D02*
X93222743Y-49899931D01*
X103413220Y-51509875D02*
X103413220Y-50509875D01*
X103413220Y-50509875D02*
X103079887Y-51224160D01*
X103079887Y-51224160D02*
X102746554Y-50509875D01*
X102746554Y-50509875D02*
X102746554Y-51509875D01*
X102270363Y-51509875D02*
X102270363Y-50509875D01*
X101889411Y-50509875D02*
X101222745Y-51509875D01*
X101222745Y-50509875D02*
X101889411Y-51509875D01*
X99889411Y-50509875D02*
X99794173Y-50509875D01*
X99794173Y-50509875D02*
X99698935Y-50557494D01*
X99698935Y-50557494D02*
X99651316Y-50605113D01*
X99651316Y-50605113D02*
X99603697Y-50700351D01*
X99603697Y-50700351D02*
X99556078Y-50890827D01*
X99556078Y-50890827D02*
X99556078Y-51128922D01*
X99556078Y-51128922D02*
X99603697Y-51319398D01*
X99603697Y-51319398D02*
X99651316Y-51414636D01*
X99651316Y-51414636D02*
X99698935Y-51462256D01*
X99698935Y-51462256D02*
X99794173Y-51509875D01*
X99794173Y-51509875D02*
X99889411Y-51509875D01*
X99889411Y-51509875D02*
X99984649Y-51462256D01*
X99984649Y-51462256D02*
X100032268Y-51414636D01*
X100032268Y-51414636D02*
X100079887Y-51319398D01*
X100079887Y-51319398D02*
X100127506Y-51128922D01*
X100127506Y-51128922D02*
X100127506Y-50890827D01*
X100127506Y-50890827D02*
X100079887Y-50700351D01*
X100079887Y-50700351D02*
X100032268Y-50605113D01*
X100032268Y-50605113D02*
X99984649Y-50557494D01*
X99984649Y-50557494D02*
X99889411Y-50509875D01*
X99127506Y-51414636D02*
X99079887Y-51462256D01*
X99079887Y-51462256D02*
X99127506Y-51509875D01*
X99127506Y-51509875D02*
X99175125Y-51462256D01*
X99175125Y-51462256D02*
X99127506Y-51414636D01*
X99127506Y-51414636D02*
X99127506Y-51509875D01*
X98746554Y-50509875D02*
X98127507Y-50509875D01*
X98127507Y-50509875D02*
X98460840Y-50890827D01*
X98460840Y-50890827D02*
X98317983Y-50890827D01*
X98317983Y-50890827D02*
X98222745Y-50938446D01*
X98222745Y-50938446D02*
X98175126Y-50986065D01*
X98175126Y-50986065D02*
X98127507Y-51081303D01*
X98127507Y-51081303D02*
X98127507Y-51319398D01*
X98127507Y-51319398D02*
X98175126Y-51414636D01*
X98175126Y-51414636D02*
X98222745Y-51462256D01*
X98222745Y-51462256D02*
X98317983Y-51509875D01*
X98317983Y-51509875D02*
X98603697Y-51509875D01*
X98603697Y-51509875D02*
X98698935Y-51462256D01*
X98698935Y-51462256D02*
X98746554Y-51414636D01*
X103413220Y-53119819D02*
X103413220Y-52119819D01*
X103413220Y-52119819D02*
X103079887Y-52834104D01*
X103079887Y-52834104D02*
X102746554Y-52119819D01*
X102746554Y-52119819D02*
X102746554Y-53119819D01*
X101841792Y-53119819D02*
X101841792Y-52596009D01*
X101841792Y-52596009D02*
X101889411Y-52500771D01*
X101889411Y-52500771D02*
X101984649Y-52453152D01*
X101984649Y-52453152D02*
X102175125Y-52453152D01*
X102175125Y-52453152D02*
X102270363Y-52500771D01*
X101841792Y-53072200D02*
X101937030Y-53119819D01*
X101937030Y-53119819D02*
X102175125Y-53119819D01*
X102175125Y-53119819D02*
X102270363Y-53072200D01*
X102270363Y-53072200D02*
X102317982Y-52976961D01*
X102317982Y-52976961D02*
X102317982Y-52881723D01*
X102317982Y-52881723D02*
X102270363Y-52786485D01*
X102270363Y-52786485D02*
X102175125Y-52738866D01*
X102175125Y-52738866D02*
X101937030Y-52738866D01*
X101937030Y-52738866D02*
X101841792Y-52691247D01*
X101508458Y-52453152D02*
X101127506Y-52453152D01*
X101365601Y-52119819D02*
X101365601Y-52976961D01*
X101365601Y-52976961D02*
X101317982Y-53072200D01*
X101317982Y-53072200D02*
X101222744Y-53119819D01*
X101222744Y-53119819D02*
X101127506Y-53119819D01*
X100413220Y-53072200D02*
X100508458Y-53119819D01*
X100508458Y-53119819D02*
X100698934Y-53119819D01*
X100698934Y-53119819D02*
X100794172Y-53072200D01*
X100794172Y-53072200D02*
X100841791Y-52976961D01*
X100841791Y-52976961D02*
X100841791Y-52596009D01*
X100841791Y-52596009D02*
X100794172Y-52500771D01*
X100794172Y-52500771D02*
X100698934Y-52453152D01*
X100698934Y-52453152D02*
X100508458Y-52453152D01*
X100508458Y-52453152D02*
X100413220Y-52500771D01*
X100413220Y-52500771D02*
X100365601Y-52596009D01*
X100365601Y-52596009D02*
X100365601Y-52691247D01*
X100365601Y-52691247D02*
X100841791Y-52786485D01*
X99937029Y-52453152D02*
X99937029Y-53310295D01*
X99937029Y-53310295D02*
X99984648Y-53405533D01*
X99984648Y-53405533D02*
X100079886Y-53453152D01*
X100079886Y-53453152D02*
X100127505Y-53453152D01*
X99937029Y-52119819D02*
X99984648Y-52167438D01*
X99984648Y-52167438D02*
X99937029Y-52215057D01*
X99937029Y-52215057D02*
X99889410Y-52167438D01*
X99889410Y-52167438D02*
X99937029Y-52119819D01*
X99937029Y-52119819D02*
X99937029Y-52215057D01*
X98698934Y-53119819D02*
X98698934Y-52119819D01*
X98698934Y-52119819D02*
X98317982Y-52119819D01*
X98317982Y-52119819D02*
X98222744Y-52167438D01*
X98222744Y-52167438D02*
X98175125Y-52215057D01*
X98175125Y-52215057D02*
X98127506Y-52310295D01*
X98127506Y-52310295D02*
X98127506Y-52453152D01*
X98127506Y-52453152D02*
X98175125Y-52548390D01*
X98175125Y-52548390D02*
X98222744Y-52596009D01*
X98222744Y-52596009D02*
X98317982Y-52643628D01*
X98317982Y-52643628D02*
X98698934Y-52643628D01*
X97317982Y-53072200D02*
X97413220Y-53119819D01*
X97413220Y-53119819D02*
X97603696Y-53119819D01*
X97603696Y-53119819D02*
X97698934Y-53072200D01*
X97698934Y-53072200D02*
X97746553Y-52976961D01*
X97746553Y-52976961D02*
X97746553Y-52596009D01*
X97746553Y-52596009D02*
X97698934Y-52500771D01*
X97698934Y-52500771D02*
X97603696Y-52453152D01*
X97603696Y-52453152D02*
X97413220Y-52453152D01*
X97413220Y-52453152D02*
X97317982Y-52500771D01*
X97317982Y-52500771D02*
X97270363Y-52596009D01*
X97270363Y-52596009D02*
X97270363Y-52691247D01*
X97270363Y-52691247D02*
X97746553Y-52786485D01*
X96937029Y-52453152D02*
X96698934Y-53119819D01*
X96698934Y-53119819D02*
X96460839Y-52453152D01*
X95698934Y-53072200D02*
X95794172Y-53119819D01*
X95794172Y-53119819D02*
X95984648Y-53119819D01*
X95984648Y-53119819D02*
X96079886Y-53072200D01*
X96079886Y-53072200D02*
X96127505Y-52976961D01*
X96127505Y-52976961D02*
X96127505Y-52596009D01*
X96127505Y-52596009D02*
X96079886Y-52500771D01*
X96079886Y-52500771D02*
X95984648Y-52453152D01*
X95984648Y-52453152D02*
X95794172Y-52453152D01*
X95794172Y-52453152D02*
X95698934Y-52500771D01*
X95698934Y-52500771D02*
X95651315Y-52596009D01*
X95651315Y-52596009D02*
X95651315Y-52691247D01*
X95651315Y-52691247D02*
X96127505Y-52786485D01*
X94794172Y-53072200D02*
X94889410Y-53119819D01*
X94889410Y-53119819D02*
X95079886Y-53119819D01*
X95079886Y-53119819D02*
X95175124Y-53072200D01*
X95175124Y-53072200D02*
X95222743Y-53024580D01*
X95222743Y-53024580D02*
X95270362Y-52929342D01*
X95270362Y-52929342D02*
X95270362Y-52643628D01*
X95270362Y-52643628D02*
X95222743Y-52548390D01*
X95222743Y-52548390D02*
X95175124Y-52500771D01*
X95175124Y-52500771D02*
X95079886Y-52453152D01*
X95079886Y-52453152D02*
X94889410Y-52453152D01*
X94889410Y-52453152D02*
X94794172Y-52500771D01*
X84704819Y-62345238D02*
X85419104Y-62345238D01*
X85419104Y-62345238D02*
X85561961Y-62297619D01*
X85561961Y-62297619D02*
X85657200Y-62202381D01*
X85657200Y-62202381D02*
X85704819Y-62059524D01*
X85704819Y-62059524D02*
X85704819Y-61964286D01*
X85704819Y-62821429D02*
X84704819Y-62821429D01*
X84704819Y-62821429D02*
X84704819Y-63202381D01*
X84704819Y-63202381D02*
X84752438Y-63297619D01*
X84752438Y-63297619D02*
X84800057Y-63345238D01*
X84800057Y-63345238D02*
X84895295Y-63392857D01*
X84895295Y-63392857D02*
X85038152Y-63392857D01*
X85038152Y-63392857D02*
X85133390Y-63345238D01*
X85133390Y-63345238D02*
X85181009Y-63297619D01*
X85181009Y-63297619D02*
X85228628Y-63202381D01*
X85228628Y-63202381D02*
X85228628Y-62821429D01*
X84704819Y-63726191D02*
X85704819Y-63964286D01*
X85704819Y-63964286D02*
X84990533Y-64154762D01*
X84990533Y-64154762D02*
X85704819Y-64345238D01*
X85704819Y-64345238D02*
X84704819Y-64583334D01*
X85704819Y-65535714D02*
X85228628Y-65202381D01*
X85704819Y-64964286D02*
X84704819Y-64964286D01*
X84704819Y-64964286D02*
X84704819Y-65345238D01*
X84704819Y-65345238D02*
X84752438Y-65440476D01*
X84752438Y-65440476D02*
X84800057Y-65488095D01*
X84800057Y-65488095D02*
X84895295Y-65535714D01*
X84895295Y-65535714D02*
X85038152Y-65535714D01*
X85038152Y-65535714D02*
X85133390Y-65488095D01*
X85133390Y-65488095D02*
X85181009Y-65440476D01*
X85181009Y-65440476D02*
X85228628Y-65345238D01*
X85228628Y-65345238D02*
X85228628Y-64964286D01*
X85704819Y-66488095D02*
X85704819Y-65916667D01*
X85704819Y-66202381D02*
X84704819Y-66202381D01*
X84704819Y-66202381D02*
X84847676Y-66107143D01*
X84847676Y-66107143D02*
X84942914Y-66011905D01*
X84942914Y-66011905D02*
X84990533Y-65916667D01*
X83295180Y-51437030D02*
X83295180Y-51913220D01*
X83295180Y-51913220D02*
X84295180Y-51913220D01*
X84295180Y-50913220D02*
X84295180Y-50722744D01*
X84295180Y-50722744D02*
X84247561Y-50627506D01*
X84247561Y-50627506D02*
X84152323Y-50532268D01*
X84152323Y-50532268D02*
X83961847Y-50484649D01*
X83961847Y-50484649D02*
X83628514Y-50484649D01*
X83628514Y-50484649D02*
X83438038Y-50532268D01*
X83438038Y-50532268D02*
X83342800Y-50627506D01*
X83342800Y-50627506D02*
X83295180Y-50722744D01*
X83295180Y-50722744D02*
X83295180Y-50913220D01*
X83295180Y-50913220D02*
X83342800Y-51008458D01*
X83342800Y-51008458D02*
X83438038Y-51103696D01*
X83438038Y-51103696D02*
X83628514Y-51151315D01*
X83628514Y-51151315D02*
X83961847Y-51151315D01*
X83961847Y-51151315D02*
X84152323Y-51103696D01*
X84152323Y-51103696D02*
X84247561Y-51008458D01*
X84247561Y-51008458D02*
X84295180Y-50913220D01*
X83295180Y-49532268D02*
X83295180Y-50103696D01*
X83295180Y-49817982D02*
X84295180Y-49817982D01*
X84295180Y-49817982D02*
X84152323Y-49913220D01*
X84152323Y-49913220D02*
X84057085Y-50008458D01*
X84057085Y-50008458D02*
X84009466Y-50103696D01*
X83295180Y-72913220D02*
X84295180Y-72913220D01*
X83818990Y-72103697D02*
X83818990Y-72437030D01*
X83295180Y-72437030D02*
X84295180Y-72437030D01*
X84295180Y-72437030D02*
X84295180Y-71960840D01*
X84295180Y-71675125D02*
X84295180Y-71008459D01*
X84295180Y-71008459D02*
X83295180Y-71437030D01*
X84295180Y-70437030D02*
X84295180Y-70341792D01*
X84295180Y-70341792D02*
X84247561Y-70246554D01*
X84247561Y-70246554D02*
X84199942Y-70198935D01*
X84199942Y-70198935D02*
X84104704Y-70151316D01*
X84104704Y-70151316D02*
X83914228Y-70103697D01*
X83914228Y-70103697D02*
X83676133Y-70103697D01*
X83676133Y-70103697D02*
X83485657Y-70151316D01*
X83485657Y-70151316D02*
X83390419Y-70198935D01*
X83390419Y-70198935D02*
X83342800Y-70246554D01*
X83342800Y-70246554D02*
X83295180Y-70341792D01*
X83295180Y-70341792D02*
X83295180Y-70437030D01*
X83295180Y-70437030D02*
X83342800Y-70532268D01*
X83342800Y-70532268D02*
X83390419Y-70579887D01*
X83390419Y-70579887D02*
X83485657Y-70627506D01*
X83485657Y-70627506D02*
X83676133Y-70675125D01*
X83676133Y-70675125D02*
X83914228Y-70675125D01*
X83914228Y-70675125D02*
X84104704Y-70627506D01*
X84104704Y-70627506D02*
X84199942Y-70579887D01*
X84199942Y-70579887D02*
X84247561Y-70532268D01*
X84247561Y-70532268D02*
X84295180Y-70437030D01*
X105098683Y-47454819D02*
X105098683Y-46454819D01*
X104289160Y-46931009D02*
X104622493Y-46931009D01*
X104622493Y-47454819D02*
X104622493Y-46454819D01*
X104622493Y-46454819D02*
X104146303Y-46454819D01*
X103241541Y-47454819D02*
X103812969Y-47454819D01*
X103527255Y-47454819D02*
X103527255Y-46454819D01*
X103527255Y-46454819D02*
X103622493Y-46597676D01*
X103622493Y-46597676D02*
X103717731Y-46692914D01*
X103717731Y-46692914D02*
X103812969Y-46740533D01*
X102622493Y-46454819D02*
X102527255Y-46454819D01*
X102527255Y-46454819D02*
X102432017Y-46502438D01*
X102432017Y-46502438D02*
X102384398Y-46550057D01*
X102384398Y-46550057D02*
X102336779Y-46645295D01*
X102336779Y-46645295D02*
X102289160Y-46835771D01*
X102289160Y-46835771D02*
X102289160Y-47073866D01*
X102289160Y-47073866D02*
X102336779Y-47264342D01*
X102336779Y-47264342D02*
X102384398Y-47359580D01*
X102384398Y-47359580D02*
X102432017Y-47407200D01*
X102432017Y-47407200D02*
X102527255Y-47454819D01*
X102527255Y-47454819D02*
X102622493Y-47454819D01*
X102622493Y-47454819D02*
X102717731Y-47407200D01*
X102717731Y-47407200D02*
X102765350Y-47359580D01*
X102765350Y-47359580D02*
X102812969Y-47264342D01*
X102812969Y-47264342D02*
X102860588Y-47073866D01*
X102860588Y-47073866D02*
X102860588Y-46835771D01*
X102860588Y-46835771D02*
X102812969Y-46645295D01*
X102812969Y-46645295D02*
X102765350Y-46550057D01*
X102765350Y-46550057D02*
X102717731Y-46502438D01*
X102717731Y-46502438D02*
X102622493Y-46454819D01*
%LPC*%
D12*
X80000000Y-71750000D02*
X79500000Y-71750000D01*
X78250000Y-71750000D01*
X78250000Y-50750000D01*
X79500000Y-50750000D01*
X80000000Y-50750000D01*
X80000000Y-71750000D01*
G36*
X80000000Y-71750000D02*
G01*
X79500000Y-71750000D01*
X78250000Y-71750000D01*
X78250000Y-50750000D01*
X79500000Y-50750000D01*
X80000000Y-50750000D01*
X80000000Y-71750000D01*
G37*
X100250000Y-45250000D02*
X100250000Y-45750000D01*
X78750000Y-45750000D01*
X78250000Y-45250000D01*
X78250000Y-44000000D01*
X100250000Y-44000000D01*
X100250000Y-45250000D01*
G36*
X100250000Y-45250000D02*
G01*
X100250000Y-45750000D01*
X78750000Y-45750000D01*
X78250000Y-45250000D01*
X78250000Y-44000000D01*
X100250000Y-44000000D01*
X100250000Y-45250000D01*
G37*
X80000000Y-46250000D02*
X80000000Y-50750000D01*
X79500000Y-50750000D01*
X78250000Y-50750000D01*
X78250000Y-45250000D01*
X81000000Y-45250000D01*
X80000000Y-46250000D01*
G36*
X80000000Y-46250000D02*
G01*
X80000000Y-50750000D01*
X79500000Y-50750000D01*
X78250000Y-50750000D01*
X78250000Y-45250000D01*
X81000000Y-45250000D01*
X80000000Y-46250000D01*
G37*
X123500000Y-89250000D02*
X78250000Y-89250000D01*
X78250000Y-71750000D01*
X79500000Y-71750000D01*
X80000000Y-71750000D01*
X80000000Y-87000000D01*
X80500000Y-87500000D01*
X121250000Y-87500000D01*
X121750000Y-87000000D01*
X121750000Y-46250000D01*
X121250000Y-45750000D01*
X100250000Y-45750000D01*
X100250000Y-45250000D01*
X100250000Y-44000000D01*
X123500000Y-44000000D01*
X123500000Y-89250000D01*
G36*
X123500000Y-89250000D02*
G01*
X78250000Y-89250000D01*
X78250000Y-71750000D01*
X79500000Y-71750000D01*
X80000000Y-71750000D01*
X80000000Y-87000000D01*
X80500000Y-87500000D01*
X121250000Y-87500000D01*
X121750000Y-87000000D01*
X121750000Y-46250000D01*
X121250000Y-45750000D01*
X100250000Y-45750000D01*
X100250000Y-45250000D01*
X100250000Y-44000000D01*
X123500000Y-44000000D01*
X123500000Y-89250000D01*
G37*
D13*
X90500000Y-77500000D03*
X83500000Y-84500000D03*
X83500000Y-81000000D03*
X83500000Y-77500000D03*
D14*
X87000000Y-86000000D03*
D13*
X90500000Y-84500000D03*
X90500000Y-81000000D03*
D14*
X87000000Y-76000000D03*
D15*
X94040000Y-55000000D03*
X91500000Y-55000000D03*
X88960000Y-55000000D03*
D13*
X111500000Y-56500000D03*
X118500000Y-49500000D03*
X118500000Y-53000000D03*
X118500000Y-56500000D03*
D14*
X115000000Y-48000000D03*
D13*
X111500000Y-49500000D03*
X111500000Y-53000000D03*
D14*
X115000000Y-58000000D03*
D16*
X82750000Y-65525000D03*
D17*
X82750000Y-62985000D03*
D18*
X80750000Y-49250000D03*
D15*
X89500000Y-61460000D03*
X89500000Y-64000000D03*
X89500000Y-66540000D03*
D13*
X97500000Y-70500000D03*
X104500000Y-70500000D03*
D14*
X101000000Y-62000000D03*
D13*
X104500000Y-63500000D03*
X97500000Y-63500000D03*
X104500000Y-67000000D03*
X97500000Y-67000000D03*
D14*
X101000000Y-72000000D03*
D13*
X104500000Y-77500000D03*
X104500000Y-84500000D03*
D19*
X106000000Y-81000000D03*
D13*
X101000000Y-84500000D03*
X101000000Y-77500000D03*
X97500000Y-84500000D03*
X97500000Y-77500000D03*
D19*
X96000000Y-81000000D03*
D18*
X80750000Y-70250000D03*
D20*
X98750000Y-46500000D03*
D13*
X118500000Y-77500000D03*
X111500000Y-84500000D03*
D14*
X115000000Y-86000000D03*
D13*
X118500000Y-84500000D03*
X111500000Y-81000000D03*
X118500000Y-81000000D03*
X111500000Y-77500000D03*
D14*
X115000000Y-76000000D03*
D13*
X118500000Y-70500000D03*
X111500000Y-63500000D03*
D14*
X115000000Y-72000000D03*
D13*
X111500000Y-70500000D03*
X111500000Y-67000000D03*
X118500000Y-67000000D03*
X118500000Y-63500000D03*
D14*
X115000000Y-62000000D03*
%LPD*%
M02*
