%TF.GenerationSoftware,KiCad,Pcbnew,8.0.2*%
%TF.CreationDate,2024-06-05T16:45:07+02:00*%
%TF.ProjectId,IF to LOW_IF Mixer,49462074-6f20-44c4-9f57-5f4946204d69,rev?*%
%TF.SameCoordinates,Original*%
%TF.FileFunction,Drillmap*%
%TF.FilePolarity,Positive*%
%FSLAX45Y45*%
G04 Gerber Fmt 4.5, Leading zero omitted, Abs format (unit mm)*
G04 Created by KiCad (PCBNEW 8.0.2) date 2024-06-05 16:45:07*
%MOMM*%
%LPD*%
G01*
G04 APERTURE LIST*
%ADD10C,0.050000*%
%ADD11C,0.200000*%
G04 APERTURE END LIST*
D10*
X12250000Y-4400000D02*
X7925000Y-4400000D01*
X7925000Y-8925000D02*
X12250000Y-8925000D01*
X12350000Y-8825000D02*
X12350000Y-4500000D01*
X12350000Y-8825000D02*
G75*
G02*
X12250000Y-8925000I-100000J0D01*
G01*
X7825000Y-4500000D02*
X7825000Y-8825000D01*
X7825000Y-4500000D02*
G75*
G02*
X7925000Y-4400000I100000J0D01*
G01*
X7925000Y-8925000D02*
G75*
G02*
X7825000Y-8825000I0J100000D01*
G01*
X12250000Y-4400000D02*
G75*
G02*
X12350000Y-4500000I0J-100000D01*
G01*
D11*
X8083277Y-9238984D02*
X8083277Y-9038984D01*
X8083277Y-9038984D02*
X8130896Y-9038984D01*
X8130896Y-9038984D02*
X8159467Y-9048508D01*
X8159467Y-9048508D02*
X8178515Y-9067555D01*
X8178515Y-9067555D02*
X8188039Y-9086603D01*
X8188039Y-9086603D02*
X8197562Y-9124698D01*
X8197562Y-9124698D02*
X8197562Y-9153270D01*
X8197562Y-9153270D02*
X8188039Y-9191365D01*
X8188039Y-9191365D02*
X8178515Y-9210412D01*
X8178515Y-9210412D02*
X8159467Y-9229460D01*
X8159467Y-9229460D02*
X8130896Y-9238984D01*
X8130896Y-9238984D02*
X8083277Y-9238984D01*
X8283277Y-9238984D02*
X8283277Y-9105650D01*
X8283277Y-9143746D02*
X8292801Y-9124698D01*
X8292801Y-9124698D02*
X8302324Y-9115174D01*
X8302324Y-9115174D02*
X8321372Y-9105650D01*
X8321372Y-9105650D02*
X8340420Y-9105650D01*
X8407086Y-9238984D02*
X8407086Y-9105650D01*
X8407086Y-9038984D02*
X8397563Y-9048508D01*
X8397563Y-9048508D02*
X8407086Y-9058031D01*
X8407086Y-9058031D02*
X8416610Y-9048508D01*
X8416610Y-9048508D02*
X8407086Y-9038984D01*
X8407086Y-9038984D02*
X8407086Y-9058031D01*
X8530896Y-9238984D02*
X8511848Y-9229460D01*
X8511848Y-9229460D02*
X8502324Y-9210412D01*
X8502324Y-9210412D02*
X8502324Y-9038984D01*
X8635658Y-9238984D02*
X8616610Y-9229460D01*
X8616610Y-9229460D02*
X8607086Y-9210412D01*
X8607086Y-9210412D02*
X8607086Y-9038984D01*
X8864229Y-9238984D02*
X8864229Y-9038984D01*
X8864229Y-9038984D02*
X8930896Y-9181841D01*
X8930896Y-9181841D02*
X8997563Y-9038984D01*
X8997563Y-9038984D02*
X8997563Y-9238984D01*
X9178515Y-9238984D02*
X9178515Y-9134222D01*
X9178515Y-9134222D02*
X9168991Y-9115174D01*
X9168991Y-9115174D02*
X9149944Y-9105650D01*
X9149944Y-9105650D02*
X9111848Y-9105650D01*
X9111848Y-9105650D02*
X9092801Y-9115174D01*
X9178515Y-9229460D02*
X9159467Y-9238984D01*
X9159467Y-9238984D02*
X9111848Y-9238984D01*
X9111848Y-9238984D02*
X9092801Y-9229460D01*
X9092801Y-9229460D02*
X9083277Y-9210412D01*
X9083277Y-9210412D02*
X9083277Y-9191365D01*
X9083277Y-9191365D02*
X9092801Y-9172317D01*
X9092801Y-9172317D02*
X9111848Y-9162793D01*
X9111848Y-9162793D02*
X9159467Y-9162793D01*
X9159467Y-9162793D02*
X9178515Y-9153270D01*
X9273753Y-9105650D02*
X9273753Y-9305650D01*
X9273753Y-9115174D02*
X9292801Y-9105650D01*
X9292801Y-9105650D02*
X9330896Y-9105650D01*
X9330896Y-9105650D02*
X9349944Y-9115174D01*
X9349944Y-9115174D02*
X9359467Y-9124698D01*
X9359467Y-9124698D02*
X9368991Y-9143746D01*
X9368991Y-9143746D02*
X9368991Y-9200889D01*
X9368991Y-9200889D02*
X9359467Y-9219936D01*
X9359467Y-9219936D02*
X9349944Y-9229460D01*
X9349944Y-9229460D02*
X9330896Y-9238984D01*
X9330896Y-9238984D02*
X9292801Y-9238984D01*
X9292801Y-9238984D02*
X9273753Y-9229460D01*
X9454705Y-9219936D02*
X9464229Y-9229460D01*
X9464229Y-9229460D02*
X9454705Y-9238984D01*
X9454705Y-9238984D02*
X9445182Y-9229460D01*
X9445182Y-9229460D02*
X9454705Y-9219936D01*
X9454705Y-9219936D02*
X9454705Y-9238984D01*
X9454705Y-9115174D02*
X9464229Y-9124698D01*
X9464229Y-9124698D02*
X9454705Y-9134222D01*
X9454705Y-9134222D02*
X9445182Y-9124698D01*
X9445182Y-9124698D02*
X9454705Y-9115174D01*
X9454705Y-9115174D02*
X9454705Y-9134222D01*
M02*
