M48
; DRILL file {KiCad 8.0.2} date 2024-06-05T16:45:06+0200
; FORMAT={-:-/ absolute / metric / decimal}
; #@! TF.CreationDate,2024-06-05T16:45:06+02:00
; #@! TF.GenerationSoftware,Kicad,Pcbnew,8.0.2
; #@! TF.FileFunction,Plated,1,2,PTH
FMAT,2
METRIC
; #@! TA.AperFunction,Plated,PTH,ViaDrill
T1C0.600
; #@! TA.AperFunction,Plated,PTH,ComponentDrill
T2C0.740
; #@! TA.AperFunction,Plated,PTH,ComponentDrill
T3C0.900
; #@! TA.AperFunction,Plated,PTH,ComponentDrill
T4C1.000
; #@! TA.AperFunction,Plated,PTH,ComponentDrill
T5C1.200
%
G90
G05
T1
X79.25Y-46.0
X79.25Y-47.25
X79.25Y-51.0
X79.25Y-52.25
X79.25Y-53.5
X79.25Y-54.75
X79.25Y-56.0
X79.25Y-57.25
X79.25Y-58.5
X79.25Y-59.75
X79.25Y-61.0
X79.25Y-62.25
X79.25Y-63.5
X79.25Y-64.75
X79.25Y-66.0
X79.25Y-67.25
X79.25Y-68.5
X79.25Y-72.25
X79.25Y-73.5
X79.25Y-74.75
X79.25Y-76.0
X79.25Y-77.25
X79.25Y-78.5
X79.25Y-79.75
X79.25Y-81.0
X79.25Y-82.25
X79.25Y-83.5
X79.25Y-84.75
X79.25Y-86.0
X79.25Y-87.25
X80.25Y-45.0
X80.25Y-88.25
X80.5Y-51.0
X80.5Y-59.75
X81.0Y-72.25
X81.0Y-74.25
X81.5Y-45.0
X81.5Y-88.25
X81.75Y-68.0
X82.75Y-45.0
X82.75Y-47.25
X82.75Y-88.25
X83.75Y-69.0
X84.0Y-45.0
X84.0Y-88.25
X84.75Y-61.25
X85.0Y-47.25
X85.25Y-45.0
X85.25Y-67.25
X85.25Y-88.25
X86.5Y-45.0
X86.5Y-47.75
X86.5Y-53.75
X86.5Y-59.5
X86.5Y-62.25
X86.5Y-88.25
X87.75Y-45.0
X87.75Y-88.25
X88.5Y-69.25
X89.0Y-45.0
X89.0Y-88.25
X89.25Y-58.0
X90.25Y-45.0
X90.25Y-88.25
X91.5Y-45.0
X91.5Y-51.75
X91.5Y-69.25
X91.5Y-88.25
X91.75Y-46.75
X92.75Y-45.0
X92.75Y-54.0
X92.75Y-88.25
X93.75Y-58.0
X94.0Y-45.0
X94.0Y-81.75
X94.0Y-83.75
X94.0Y-86.0
X94.0Y-88.25
X95.0Y-46.5
X95.25Y-45.0
X95.25Y-88.25
X95.5Y-69.5
X96.0Y-51.75
X96.5Y-45.0
X96.5Y-88.25
X97.5Y-57.75
X97.5Y-60.5
X97.5Y-72.5
X97.75Y-88.25
X99.0Y-88.25
X99.25Y-52.0
X99.5Y-55.75
X100.25Y-88.25
X101.5Y-45.0
X101.5Y-88.25
X102.25Y-59.25
X102.5Y-56.0
X102.75Y-45.0
X102.75Y-88.25
X103.5Y-60.25
X104.0Y-45.0
X104.031Y-88.246
X104.25Y-50.25
X104.5Y-72.5
X105.25Y-45.0
X105.25Y-88.25
X106.5Y-54.75
X106.5Y-88.25
X106.531Y-44.996
X107.75Y-45.0
X107.75Y-88.25
X108.0Y-51.0
X108.0Y-60.0
X108.0Y-71.75
X109.0Y-45.0
X109.0Y-74.0
X109.0Y-88.25
X109.75Y-54.25
X110.25Y-45.0
X110.25Y-88.25
X111.5Y-45.0
X111.5Y-88.25
X112.75Y-45.0
X112.75Y-88.25
X114.0Y-45.0
X114.0Y-88.25
X115.25Y-45.0
X115.25Y-88.25
X116.5Y-45.0
X116.531Y-88.246
X117.75Y-45.0
X117.75Y-88.25
X118.0Y-60.0
X119.0Y-88.25
X119.031Y-44.996
X120.25Y-45.0
X120.25Y-60.0
X120.25Y-88.25
X121.5Y-45.0
X121.5Y-88.25
X122.5Y-46.0
X122.5Y-47.25
X122.5Y-48.5
X122.5Y-49.75
X122.5Y-51.0
X122.5Y-52.25
X122.5Y-53.5
X122.5Y-54.75
X122.5Y-56.0
X122.5Y-57.25
X122.5Y-58.5
X122.5Y-59.75
X122.5Y-61.0
X122.5Y-62.25
X122.5Y-63.5
X122.5Y-64.75
X122.5Y-66.0
X122.5Y-67.25
X122.5Y-68.5
X122.5Y-69.75
X122.5Y-71.0
X122.5Y-72.25
X122.5Y-73.5
X122.5Y-74.75
X122.5Y-76.0
X122.5Y-77.25
X122.5Y-78.5
X122.5Y-79.75
X122.5Y-81.0
X122.5Y-82.25
X122.5Y-83.5
X122.5Y-84.75
X122.5Y-86.0
X122.5Y-87.25
T2
X88.96Y-55.0
X89.5Y-61.46
X89.5Y-64.0
X89.5Y-66.54
X91.5Y-55.0
X94.04Y-55.0
T4
X82.75Y-62.985
X82.75Y-65.525
T5
X83.5Y-77.5
X83.5Y-81.0
X83.5Y-84.5
X90.5Y-77.5
X90.5Y-81.0
X90.5Y-84.5
X97.5Y-63.5
X97.5Y-67.0
X97.5Y-70.5
X97.5Y-77.5
X97.5Y-84.5
X101.0Y-77.5
X101.0Y-84.5
X104.5Y-63.5
X104.5Y-67.0
X104.5Y-70.5
X104.5Y-77.5
X104.5Y-84.5
X111.5Y-49.5
X111.5Y-53.0
X111.5Y-56.5
X111.5Y-63.5
X111.5Y-67.0
X111.5Y-70.5
X111.5Y-77.5
X111.5Y-81.0
X111.5Y-84.5
X118.5Y-49.5
X118.5Y-53.0
X118.5Y-56.5
X118.5Y-63.5
X118.5Y-67.0
X118.5Y-70.5
X118.5Y-77.5
X118.5Y-81.0
X118.5Y-84.5
T3
X86.325Y-76.0G85X87.675Y-76.0
G05
X86.325Y-86.0G85X87.675Y-86.0
G05
X96.0Y-81.675G85X96.0Y-80.325
G05
X101.675Y-62.0G85X100.325Y-62.0
G05
X101.675Y-72.0G85X100.325Y-72.0
G05
X106.0Y-81.675G85X106.0Y-80.325
G05
X115.675Y-48.0G85X114.325Y-48.0
G05
X115.675Y-58.0G85X114.325Y-58.0
G05
X114.325Y-62.0G85X115.675Y-62.0
G05
X114.325Y-72.0G85X115.675Y-72.0
G05
X114.325Y-76.0G85X115.675Y-76.0
G05
X114.325Y-86.0G85X115.675Y-86.0
G05
M30
