%TF.GenerationSoftware,KiCad,Pcbnew,8.0.2*%
%TF.CreationDate,2024-06-05T16:45:07+02:00*%
%TF.ProjectId,IF to LOW_IF Mixer,49462074-6f20-44c4-9f57-5f4946204d69,rev?*%
%TF.SameCoordinates,Original*%
%TF.FileFunction,Drillmap*%
%TF.FilePolarity,Positive*%
%FSLAX45Y45*%
G04 Gerber Fmt 4.5, Leading zero omitted, Abs format (unit mm)*
G04 Created by KiCad (PCBNEW 8.0.2) date 2024-06-05 16:45:07*
%MOMM*%
%LPD*%
G01*
G04 APERTURE LIST*
%ADD10C,0.050000*%
%ADD11C,0.200000*%
%ADD12C,0.100000*%
%ADD13C,0.120000*%
G04 APERTURE END LIST*
D10*
X12250000Y-4400000D02*
X7925000Y-4400000D01*
X7925000Y-8925000D02*
X12250000Y-8925000D01*
X12350000Y-8825000D02*
X12350000Y-4500000D01*
X12350000Y-8825000D02*
G75*
G02*
X12250000Y-8925000I-100000J0D01*
G01*
X7825000Y-4500000D02*
X7825000Y-8825000D01*
X7825000Y-4500000D02*
G75*
G02*
X7925000Y-4400000I100000J0D01*
G01*
X7925000Y-8925000D02*
G75*
G02*
X7825000Y-8825000I0J100000D01*
G01*
X12250000Y-4400000D02*
G75*
G02*
X12350000Y-4500000I0J-100000D01*
G01*
D11*
D12*
X7895000Y-4570000D02*
X7955000Y-4630000D01*
X7955000Y-4570000D02*
X7895000Y-4630000D01*
X7895000Y-4695000D02*
X7955000Y-4755000D01*
X7955000Y-4695000D02*
X7895000Y-4755000D01*
X7895000Y-5070000D02*
X7955000Y-5130000D01*
X7955000Y-5070000D02*
X7895000Y-5130000D01*
X7895000Y-5195000D02*
X7955000Y-5255000D01*
X7955000Y-5195000D02*
X7895000Y-5255000D01*
X7895000Y-5320000D02*
X7955000Y-5380000D01*
X7955000Y-5320000D02*
X7895000Y-5380000D01*
X7895000Y-5445000D02*
X7955000Y-5505000D01*
X7955000Y-5445000D02*
X7895000Y-5505000D01*
X7895000Y-5570000D02*
X7955000Y-5630000D01*
X7955000Y-5570000D02*
X7895000Y-5630000D01*
X7895000Y-5695000D02*
X7955000Y-5755000D01*
X7955000Y-5695000D02*
X7895000Y-5755000D01*
X7895000Y-5820000D02*
X7955000Y-5880000D01*
X7955000Y-5820000D02*
X7895000Y-5880000D01*
X7895000Y-5945000D02*
X7955000Y-6005000D01*
X7955000Y-5945000D02*
X7895000Y-6005000D01*
X7895000Y-6070000D02*
X7955000Y-6130000D01*
X7955000Y-6070000D02*
X7895000Y-6130000D01*
X7895000Y-6195000D02*
X7955000Y-6255000D01*
X7955000Y-6195000D02*
X7895000Y-6255000D01*
X7895000Y-6320000D02*
X7955000Y-6380000D01*
X7955000Y-6320000D02*
X7895000Y-6380000D01*
X7895000Y-6445000D02*
X7955000Y-6505000D01*
X7955000Y-6445000D02*
X7895000Y-6505000D01*
X7895000Y-6570000D02*
X7955000Y-6630000D01*
X7955000Y-6570000D02*
X7895000Y-6630000D01*
X7895000Y-6695000D02*
X7955000Y-6755000D01*
X7955000Y-6695000D02*
X7895000Y-6755000D01*
X7895000Y-6820000D02*
X7955000Y-6880000D01*
X7955000Y-6820000D02*
X7895000Y-6880000D01*
X7895000Y-7195000D02*
X7955000Y-7255000D01*
X7955000Y-7195000D02*
X7895000Y-7255000D01*
X7895000Y-7320000D02*
X7955000Y-7380000D01*
X7955000Y-7320000D02*
X7895000Y-7380000D01*
X7895000Y-7445000D02*
X7955000Y-7505000D01*
X7955000Y-7445000D02*
X7895000Y-7505000D01*
X7895000Y-7570000D02*
X7955000Y-7630000D01*
X7955000Y-7570000D02*
X7895000Y-7630000D01*
X7895000Y-7695000D02*
X7955000Y-7755000D01*
X7955000Y-7695000D02*
X7895000Y-7755000D01*
X7895000Y-7820000D02*
X7955000Y-7880000D01*
X7955000Y-7820000D02*
X7895000Y-7880000D01*
X7895000Y-7945000D02*
X7955000Y-8005000D01*
X7955000Y-7945000D02*
X7895000Y-8005000D01*
X7895000Y-8070000D02*
X7955000Y-8130000D01*
X7955000Y-8070000D02*
X7895000Y-8130000D01*
X7895000Y-8195000D02*
X7955000Y-8255000D01*
X7955000Y-8195000D02*
X7895000Y-8255000D01*
X7895000Y-8320000D02*
X7955000Y-8380000D01*
X7955000Y-8320000D02*
X7895000Y-8380000D01*
X7895000Y-8445000D02*
X7955000Y-8505000D01*
X7955000Y-8445000D02*
X7895000Y-8505000D01*
X7895000Y-8570000D02*
X7955000Y-8630000D01*
X7955000Y-8570000D02*
X7895000Y-8630000D01*
X7895000Y-8695000D02*
X7955000Y-8755000D01*
X7955000Y-8695000D02*
X7895000Y-8755000D01*
X7995000Y-4470000D02*
X8055000Y-4530000D01*
X8055000Y-4470000D02*
X7995000Y-4530000D01*
X7995000Y-8795000D02*
X8055000Y-8855000D01*
X8055000Y-8795000D02*
X7995000Y-8855000D01*
X8020000Y-5070000D02*
X8080000Y-5130000D01*
X8080000Y-5070000D02*
X8020000Y-5130000D01*
X8020000Y-5945000D02*
X8080000Y-6005000D01*
X8080000Y-5945000D02*
X8020000Y-6005000D01*
X8070000Y-7195000D02*
X8130000Y-7255000D01*
X8130000Y-7195000D02*
X8070000Y-7255000D01*
X8070000Y-7395000D02*
X8130000Y-7455000D01*
X8130000Y-7395000D02*
X8070000Y-7455000D01*
X8120000Y-4470000D02*
X8180000Y-4530000D01*
X8180000Y-4470000D02*
X8120000Y-4530000D01*
X8120000Y-8795000D02*
X8180000Y-8855000D01*
X8180000Y-8795000D02*
X8120000Y-8855000D01*
X8145000Y-6770000D02*
X8205000Y-6830000D01*
X8205000Y-6770000D02*
X8145000Y-6830000D01*
X8245000Y-4470000D02*
X8305000Y-4530000D01*
X8305000Y-4470000D02*
X8245000Y-4530000D01*
X8245000Y-4695000D02*
X8305000Y-4755000D01*
X8305000Y-4695000D02*
X8245000Y-4755000D01*
X8245000Y-8795000D02*
X8305000Y-8855000D01*
X8305000Y-8795000D02*
X8245000Y-8855000D01*
X8345000Y-6870000D02*
X8405000Y-6930000D01*
X8405000Y-6870000D02*
X8345000Y-6930000D01*
X8370000Y-4470000D02*
X8430000Y-4530000D01*
X8430000Y-4470000D02*
X8370000Y-4530000D01*
X8370000Y-8795000D02*
X8430000Y-8855000D01*
X8430000Y-8795000D02*
X8370000Y-8855000D01*
X8445000Y-6095000D02*
X8505000Y-6155000D01*
X8505000Y-6095000D02*
X8445000Y-6155000D01*
X8470000Y-4695000D02*
X8530000Y-4755000D01*
X8530000Y-4695000D02*
X8470000Y-4755000D01*
X8495000Y-4470000D02*
X8555000Y-4530000D01*
X8555000Y-4470000D02*
X8495000Y-4530000D01*
X8495000Y-6695000D02*
X8555000Y-6755000D01*
X8555000Y-6695000D02*
X8495000Y-6755000D01*
X8495000Y-8795000D02*
X8555000Y-8855000D01*
X8555000Y-8795000D02*
X8495000Y-8855000D01*
X8620000Y-4470000D02*
X8680000Y-4530000D01*
X8680000Y-4470000D02*
X8620000Y-4530000D01*
X8620000Y-4745000D02*
X8680000Y-4805000D01*
X8680000Y-4745000D02*
X8620000Y-4805000D01*
X8620000Y-5345000D02*
X8680000Y-5405000D01*
X8680000Y-5345000D02*
X8620000Y-5405000D01*
X8620000Y-5920000D02*
X8680000Y-5980000D01*
X8680000Y-5920000D02*
X8620000Y-5980000D01*
X8620000Y-6195000D02*
X8680000Y-6255000D01*
X8680000Y-6195000D02*
X8620000Y-6255000D01*
X8620000Y-8795000D02*
X8680000Y-8855000D01*
X8680000Y-8795000D02*
X8620000Y-8855000D01*
X8745000Y-4470000D02*
X8805000Y-4530000D01*
X8805000Y-4470000D02*
X8745000Y-4530000D01*
X8745000Y-8795000D02*
X8805000Y-8855000D01*
X8805000Y-8795000D02*
X8745000Y-8855000D01*
X8820000Y-6895000D02*
X8880000Y-6955000D01*
X8880000Y-6895000D02*
X8820000Y-6955000D01*
X8870000Y-4470000D02*
X8930000Y-4530000D01*
X8930000Y-4470000D02*
X8870000Y-4530000D01*
X8870000Y-8795000D02*
X8930000Y-8855000D01*
X8930000Y-8795000D02*
X8870000Y-8855000D01*
X8895000Y-5770000D02*
X8955000Y-5830000D01*
X8955000Y-5770000D02*
X8895000Y-5830000D01*
X8995000Y-4470000D02*
X9055000Y-4530000D01*
X9055000Y-4470000D02*
X8995000Y-4530000D01*
X8995000Y-8795000D02*
X9055000Y-8855000D01*
X9055000Y-8795000D02*
X8995000Y-8855000D01*
X9120000Y-4470000D02*
X9180000Y-4530000D01*
X9180000Y-4470000D02*
X9120000Y-4530000D01*
X9120000Y-5145000D02*
X9180000Y-5205000D01*
X9180000Y-5145000D02*
X9120000Y-5205000D01*
X9120000Y-6895000D02*
X9180000Y-6955000D01*
X9180000Y-6895000D02*
X9120000Y-6955000D01*
X9120000Y-8795000D02*
X9180000Y-8855000D01*
X9180000Y-8795000D02*
X9120000Y-8855000D01*
X9145000Y-4645000D02*
X9205000Y-4705000D01*
X9205000Y-4645000D02*
X9145000Y-4705000D01*
X9245000Y-4470000D02*
X9305000Y-4530000D01*
X9305000Y-4470000D02*
X9245000Y-4530000D01*
X9245000Y-5370000D02*
X9305000Y-5430000D01*
X9305000Y-5370000D02*
X9245000Y-5430000D01*
X9245000Y-8795000D02*
X9305000Y-8855000D01*
X9305000Y-8795000D02*
X9245000Y-8855000D01*
X9345000Y-5770000D02*
X9405000Y-5830000D01*
X9405000Y-5770000D02*
X9345000Y-5830000D01*
X9370000Y-4470000D02*
X9430000Y-4530000D01*
X9430000Y-4470000D02*
X9370000Y-4530000D01*
X9370000Y-8145000D02*
X9430000Y-8205000D01*
X9430000Y-8145000D02*
X9370000Y-8205000D01*
X9370000Y-8345000D02*
X9430000Y-8405000D01*
X9430000Y-8345000D02*
X9370000Y-8405000D01*
X9370000Y-8570000D02*
X9430000Y-8630000D01*
X9430000Y-8570000D02*
X9370000Y-8630000D01*
X9370000Y-8795000D02*
X9430000Y-8855000D01*
X9430000Y-8795000D02*
X9370000Y-8855000D01*
X9470000Y-4620000D02*
X9530000Y-4680000D01*
X9530000Y-4620000D02*
X9470000Y-4680000D01*
X9495000Y-4470000D02*
X9555000Y-4530000D01*
X9555000Y-4470000D02*
X9495000Y-4530000D01*
X9495000Y-8795000D02*
X9555000Y-8855000D01*
X9555000Y-8795000D02*
X9495000Y-8855000D01*
X9520000Y-6920000D02*
X9580000Y-6980000D01*
X9580000Y-6920000D02*
X9520000Y-6980000D01*
X9570000Y-5145000D02*
X9630000Y-5205000D01*
X9630000Y-5145000D02*
X9570000Y-5205000D01*
X9620000Y-4470000D02*
X9680000Y-4530000D01*
X9680000Y-4470000D02*
X9620000Y-4530000D01*
X9620000Y-8795000D02*
X9680000Y-8855000D01*
X9680000Y-8795000D02*
X9620000Y-8855000D01*
X9720000Y-5745000D02*
X9780000Y-5805000D01*
X9780000Y-5745000D02*
X9720000Y-5805000D01*
X9720000Y-6020000D02*
X9780000Y-6080000D01*
X9780000Y-6020000D02*
X9720000Y-6080000D01*
X9720000Y-7220000D02*
X9780000Y-7280000D01*
X9780000Y-7220000D02*
X9720000Y-7280000D01*
X9745000Y-8795000D02*
X9805000Y-8855000D01*
X9805000Y-8795000D02*
X9745000Y-8855000D01*
X9870000Y-8795000D02*
X9930000Y-8855000D01*
X9930000Y-8795000D02*
X9870000Y-8855000D01*
X9895000Y-5170000D02*
X9955000Y-5230000D01*
X9955000Y-5170000D02*
X9895000Y-5230000D01*
X9920000Y-5545000D02*
X9980000Y-5605000D01*
X9980000Y-5545000D02*
X9920000Y-5605000D01*
X9995000Y-8795000D02*
X10055000Y-8855000D01*
X10055000Y-8795000D02*
X9995000Y-8855000D01*
X10120000Y-4470000D02*
X10180000Y-4530000D01*
X10180000Y-4470000D02*
X10120000Y-4530000D01*
X10120000Y-8795000D02*
X10180000Y-8855000D01*
X10180000Y-8795000D02*
X10120000Y-8855000D01*
X10195000Y-5895000D02*
X10255000Y-5955000D01*
X10255000Y-5895000D02*
X10195000Y-5955000D01*
X10220000Y-5570000D02*
X10280000Y-5630000D01*
X10280000Y-5570000D02*
X10220000Y-5630000D01*
X10245000Y-4470000D02*
X10305000Y-4530000D01*
X10305000Y-4470000D02*
X10245000Y-4530000D01*
X10245000Y-8795000D02*
X10305000Y-8855000D01*
X10305000Y-8795000D02*
X10245000Y-8855000D01*
X10320000Y-5995000D02*
X10380000Y-6055000D01*
X10380000Y-5995000D02*
X10320000Y-6055000D01*
X10370000Y-4470000D02*
X10430000Y-4530000D01*
X10430000Y-4470000D02*
X10370000Y-4530000D01*
X10373060Y-8794617D02*
X10433060Y-8854617D01*
X10433060Y-8794617D02*
X10373060Y-8854617D01*
X10395000Y-4995000D02*
X10455000Y-5055000D01*
X10455000Y-4995000D02*
X10395000Y-5055000D01*
X10420000Y-7220000D02*
X10480000Y-7280000D01*
X10480000Y-7220000D02*
X10420000Y-7280000D01*
X10495000Y-4470000D02*
X10555000Y-4530000D01*
X10555000Y-4470000D02*
X10495000Y-4530000D01*
X10495000Y-8795000D02*
X10555000Y-8855000D01*
X10555000Y-8795000D02*
X10495000Y-8855000D01*
X10620000Y-5445000D02*
X10680000Y-5505000D01*
X10680000Y-5445000D02*
X10620000Y-5505000D01*
X10620000Y-8795000D02*
X10680000Y-8855000D01*
X10680000Y-8795000D02*
X10620000Y-8855000D01*
X10623060Y-4469617D02*
X10683060Y-4529617D01*
X10683060Y-4469617D02*
X10623060Y-4529617D01*
X10745000Y-4470000D02*
X10805000Y-4530000D01*
X10805000Y-4470000D02*
X10745000Y-4530000D01*
X10745000Y-8795000D02*
X10805000Y-8855000D01*
X10805000Y-8795000D02*
X10745000Y-8855000D01*
X10770000Y-5070000D02*
X10830000Y-5130000D01*
X10830000Y-5070000D02*
X10770000Y-5130000D01*
X10770000Y-5970000D02*
X10830000Y-6030000D01*
X10830000Y-5970000D02*
X10770000Y-6030000D01*
X10770000Y-7145000D02*
X10830000Y-7205000D01*
X10830000Y-7145000D02*
X10770000Y-7205000D01*
X10870000Y-4470000D02*
X10930000Y-4530000D01*
X10930000Y-4470000D02*
X10870000Y-4530000D01*
X10870000Y-7370000D02*
X10930000Y-7430000D01*
X10930000Y-7370000D02*
X10870000Y-7430000D01*
X10870000Y-8795000D02*
X10930000Y-8855000D01*
X10930000Y-8795000D02*
X10870000Y-8855000D01*
X10945000Y-5395000D02*
X11005000Y-5455000D01*
X11005000Y-5395000D02*
X10945000Y-5455000D01*
X10995000Y-4470000D02*
X11055000Y-4530000D01*
X11055000Y-4470000D02*
X10995000Y-4530000D01*
X10995000Y-8795000D02*
X11055000Y-8855000D01*
X11055000Y-8795000D02*
X10995000Y-8855000D01*
X11120000Y-4470000D02*
X11180000Y-4530000D01*
X11180000Y-4470000D02*
X11120000Y-4530000D01*
X11120000Y-8795000D02*
X11180000Y-8855000D01*
X11180000Y-8795000D02*
X11120000Y-8855000D01*
X11245000Y-4470000D02*
X11305000Y-4530000D01*
X11305000Y-4470000D02*
X11245000Y-4530000D01*
X11245000Y-8795000D02*
X11305000Y-8855000D01*
X11305000Y-8795000D02*
X11245000Y-8855000D01*
X11370000Y-4470000D02*
X11430000Y-4530000D01*
X11430000Y-4470000D02*
X11370000Y-4530000D01*
X11370000Y-8795000D02*
X11430000Y-8855000D01*
X11430000Y-8795000D02*
X11370000Y-8855000D01*
X11495000Y-4470000D02*
X11555000Y-4530000D01*
X11555000Y-4470000D02*
X11495000Y-4530000D01*
X11495000Y-8795000D02*
X11555000Y-8855000D01*
X11555000Y-8795000D02*
X11495000Y-8855000D01*
X11620000Y-4470000D02*
X11680000Y-4530000D01*
X11680000Y-4470000D02*
X11620000Y-4530000D01*
X11623060Y-8794617D02*
X11683060Y-8854617D01*
X11683060Y-8794617D02*
X11623060Y-8854617D01*
X11745000Y-4470000D02*
X11805000Y-4530000D01*
X11805000Y-4470000D02*
X11745000Y-4530000D01*
X11745000Y-8795000D02*
X11805000Y-8855000D01*
X11805000Y-8795000D02*
X11745000Y-8855000D01*
X11770000Y-5970000D02*
X11830000Y-6030000D01*
X11830000Y-5970000D02*
X11770000Y-6030000D01*
X11870000Y-8795000D02*
X11930000Y-8855000D01*
X11930000Y-8795000D02*
X11870000Y-8855000D01*
X11873060Y-4469617D02*
X11933060Y-4529617D01*
X11933060Y-4469617D02*
X11873060Y-4529617D01*
X11995000Y-4470000D02*
X12055000Y-4530000D01*
X12055000Y-4470000D02*
X11995000Y-4530000D01*
X11995000Y-5970000D02*
X12055000Y-6030000D01*
X12055000Y-5970000D02*
X11995000Y-6030000D01*
X11995000Y-8795000D02*
X12055000Y-8855000D01*
X12055000Y-8795000D02*
X11995000Y-8855000D01*
X12120000Y-4470000D02*
X12180000Y-4530000D01*
X12180000Y-4470000D02*
X12120000Y-4530000D01*
X12120000Y-8795000D02*
X12180000Y-8855000D01*
X12180000Y-8795000D02*
X12120000Y-8855000D01*
X12220000Y-4570000D02*
X12280000Y-4630000D01*
X12280000Y-4570000D02*
X12220000Y-4630000D01*
X12220000Y-4695000D02*
X12280000Y-4755000D01*
X12280000Y-4695000D02*
X12220000Y-4755000D01*
X12220000Y-4820000D02*
X12280000Y-4880000D01*
X12280000Y-4820000D02*
X12220000Y-4880000D01*
X12220000Y-4945000D02*
X12280000Y-5005000D01*
X12280000Y-4945000D02*
X12220000Y-5005000D01*
X12220000Y-5070000D02*
X12280000Y-5130000D01*
X12280000Y-5070000D02*
X12220000Y-5130000D01*
X12220000Y-5195000D02*
X12280000Y-5255000D01*
X12280000Y-5195000D02*
X12220000Y-5255000D01*
X12220000Y-5320000D02*
X12280000Y-5380000D01*
X12280000Y-5320000D02*
X12220000Y-5380000D01*
X12220000Y-5445000D02*
X12280000Y-5505000D01*
X12280000Y-5445000D02*
X12220000Y-5505000D01*
X12220000Y-5570000D02*
X12280000Y-5630000D01*
X12280000Y-5570000D02*
X12220000Y-5630000D01*
X12220000Y-5695000D02*
X12280000Y-5755000D01*
X12280000Y-5695000D02*
X12220000Y-5755000D01*
X12220000Y-5820000D02*
X12280000Y-5880000D01*
X12280000Y-5820000D02*
X12220000Y-5880000D01*
X12220000Y-5945000D02*
X12280000Y-6005000D01*
X12280000Y-5945000D02*
X12220000Y-6005000D01*
X12220000Y-6070000D02*
X12280000Y-6130000D01*
X12280000Y-6070000D02*
X12220000Y-6130000D01*
X12220000Y-6195000D02*
X12280000Y-6255000D01*
X12280000Y-6195000D02*
X12220000Y-6255000D01*
X12220000Y-6320000D02*
X12280000Y-6380000D01*
X12280000Y-6320000D02*
X12220000Y-6380000D01*
X12220000Y-6445000D02*
X12280000Y-6505000D01*
X12280000Y-6445000D02*
X12220000Y-6505000D01*
X12220000Y-6570000D02*
X12280000Y-6630000D01*
X12280000Y-6570000D02*
X12220000Y-6630000D01*
X12220000Y-6695000D02*
X12280000Y-6755000D01*
X12280000Y-6695000D02*
X12220000Y-6755000D01*
X12220000Y-6820000D02*
X12280000Y-6880000D01*
X12280000Y-6820000D02*
X12220000Y-6880000D01*
X12220000Y-6945000D02*
X12280000Y-7005000D01*
X12280000Y-6945000D02*
X12220000Y-7005000D01*
X12220000Y-7070000D02*
X12280000Y-7130000D01*
X12280000Y-7070000D02*
X12220000Y-7130000D01*
X12220000Y-7195000D02*
X12280000Y-7255000D01*
X12280000Y-7195000D02*
X12220000Y-7255000D01*
X12220000Y-7320000D02*
X12280000Y-7380000D01*
X12280000Y-7320000D02*
X12220000Y-7380000D01*
X12220000Y-7445000D02*
X12280000Y-7505000D01*
X12280000Y-7445000D02*
X12220000Y-7505000D01*
X12220000Y-7570000D02*
X12280000Y-7630000D01*
X12280000Y-7570000D02*
X12220000Y-7630000D01*
X12220000Y-7695000D02*
X12280000Y-7755000D01*
X12280000Y-7695000D02*
X12220000Y-7755000D01*
X12220000Y-7820000D02*
X12280000Y-7880000D01*
X12280000Y-7820000D02*
X12220000Y-7880000D01*
X12220000Y-7945000D02*
X12280000Y-8005000D01*
X12280000Y-7945000D02*
X12220000Y-8005000D01*
X12220000Y-8070000D02*
X12280000Y-8130000D01*
X12280000Y-8070000D02*
X12220000Y-8130000D01*
X12220000Y-8195000D02*
X12280000Y-8255000D01*
X12280000Y-8195000D02*
X12220000Y-8255000D01*
X12220000Y-8320000D02*
X12280000Y-8380000D01*
X12280000Y-8320000D02*
X12220000Y-8380000D01*
X12220000Y-8445000D02*
X12280000Y-8505000D01*
X12280000Y-8445000D02*
X12220000Y-8505000D01*
X12220000Y-8570000D02*
X12280000Y-8630000D01*
X12280000Y-8570000D02*
X12220000Y-8630000D01*
X12220000Y-8695000D02*
X12280000Y-8755000D01*
X12280000Y-8695000D02*
X12220000Y-8755000D01*
X8933000Y-5500000D02*
G75*
G02*
X8859000Y-5500000I-37000J0D01*
G01*
X8859000Y-5500000D02*
G75*
G02*
X8933000Y-5500000I37000J0D01*
G01*
X8987000Y-6146000D02*
G75*
G02*
X8913000Y-6146000I-37000J0D01*
G01*
X8913000Y-6146000D02*
G75*
G02*
X8987000Y-6146000I37000J0D01*
G01*
X8987000Y-6400000D02*
G75*
G02*
X8913000Y-6400000I-37000J0D01*
G01*
X8913000Y-6400000D02*
G75*
G02*
X8987000Y-6400000I37000J0D01*
G01*
X8987000Y-6654000D02*
G75*
G02*
X8913000Y-6654000I-37000J0D01*
G01*
X8913000Y-6654000D02*
G75*
G02*
X8987000Y-6654000I37000J0D01*
G01*
X9187000Y-5500000D02*
G75*
G02*
X9113000Y-5500000I-37000J0D01*
G01*
X9113000Y-5500000D02*
G75*
G02*
X9187000Y-5500000I37000J0D01*
G01*
X9441000Y-5500000D02*
G75*
G02*
X9367000Y-5500000I-37000J0D01*
G01*
X9367000Y-5500000D02*
G75*
G02*
X9441000Y-5500000I37000J0D01*
G01*
X8700000Y-7555000D02*
X8700000Y-7645000D01*
X8655000Y-7600000D02*
X8745000Y-7600000D01*
X8632500Y-7645000D02*
X8767500Y-7645000D01*
X8767500Y-7555000D02*
G75*
G02*
X8767500Y-7645000I0J-45000D01*
G01*
X8767500Y-7555000D02*
X8632500Y-7555000D01*
X8632500Y-7555000D02*
G75*
G03*
X8632500Y-7645000I0J-45000D01*
G01*
X8700000Y-8555000D02*
X8700000Y-8645000D01*
X8655000Y-8600000D02*
X8745000Y-8600000D01*
X8632500Y-8645000D02*
X8767500Y-8645000D01*
X8767500Y-8555000D02*
G75*
G02*
X8767500Y-8645000I0J-45000D01*
G01*
X8767500Y-8555000D02*
X8632500Y-8555000D01*
X8632500Y-8555000D02*
G75*
G03*
X8632500Y-8645000I0J-45000D01*
G01*
X9600000Y-8055000D02*
X9600000Y-8145000D01*
X9555000Y-8100000D02*
X9645000Y-8100000D01*
X9645000Y-8167500D02*
X9645000Y-8032500D01*
X9555000Y-8032500D02*
G75*
G02*
X9645000Y-8032500I45000J0D01*
G01*
X9555000Y-8032500D02*
X9555000Y-8167500D01*
X9555000Y-8167500D02*
G75*
G03*
X9645000Y-8167500I45000J0D01*
G01*
X10100000Y-6155000D02*
X10100000Y-6245000D01*
X10055000Y-6200000D02*
X10145000Y-6200000D01*
X10167500Y-6155000D02*
X10032500Y-6155000D01*
X10032500Y-6245000D02*
G75*
G02*
X10032500Y-6155000I0J45000D01*
G01*
X10032500Y-6245000D02*
X10167500Y-6245000D01*
X10167500Y-6245000D02*
G75*
G03*
X10167500Y-6155000I0J45000D01*
G01*
X10100000Y-7155000D02*
X10100000Y-7245000D01*
X10055000Y-7200000D02*
X10145000Y-7200000D01*
X10167500Y-7155000D02*
X10032500Y-7155000D01*
X10032500Y-7245000D02*
G75*
G02*
X10032500Y-7155000I0J45000D01*
G01*
X10032500Y-7245000D02*
X10167500Y-7245000D01*
X10167500Y-7245000D02*
G75*
G03*
X10167500Y-7155000I0J45000D01*
G01*
X10600000Y-8055000D02*
X10600000Y-8145000D01*
X10555000Y-8100000D02*
X10645000Y-8100000D01*
X10645000Y-8167500D02*
X10645000Y-8032500D01*
X10555000Y-8032500D02*
G75*
G02*
X10645000Y-8032500I45000J0D01*
G01*
X10555000Y-8032500D02*
X10555000Y-8167500D01*
X10555000Y-8167500D02*
G75*
G03*
X10645000Y-8167500I45000J0D01*
G01*
X11500000Y-4755000D02*
X11500000Y-4845000D01*
X11455000Y-4800000D02*
X11545000Y-4800000D01*
X11567500Y-4755000D02*
X11432500Y-4755000D01*
X11432500Y-4845000D02*
G75*
G02*
X11432500Y-4755000I0J45000D01*
G01*
X11432500Y-4845000D02*
X11567500Y-4845000D01*
X11567500Y-4845000D02*
G75*
G03*
X11567500Y-4755000I0J45000D01*
G01*
X11500000Y-5755000D02*
X11500000Y-5845000D01*
X11455000Y-5800000D02*
X11545000Y-5800000D01*
X11567500Y-5755000D02*
X11432500Y-5755000D01*
X11432500Y-5845000D02*
G75*
G02*
X11432500Y-5755000I0J45000D01*
G01*
X11432500Y-5845000D02*
X11567500Y-5845000D01*
X11567500Y-5845000D02*
G75*
G03*
X11567500Y-5755000I0J45000D01*
G01*
X11500000Y-6155000D02*
X11500000Y-6245000D01*
X11455000Y-6200000D02*
X11545000Y-6200000D01*
X11432500Y-6245000D02*
X11567500Y-6245000D01*
X11567500Y-6155000D02*
G75*
G02*
X11567500Y-6245000I0J-45000D01*
G01*
X11567500Y-6155000D02*
X11432500Y-6155000D01*
X11432500Y-6155000D02*
G75*
G03*
X11432500Y-6245000I0J-45000D01*
G01*
X11500000Y-7155000D02*
X11500000Y-7245000D01*
X11455000Y-7200000D02*
X11545000Y-7200000D01*
X11432500Y-7245000D02*
X11567500Y-7245000D01*
X11567500Y-7155000D02*
G75*
G02*
X11567500Y-7245000I0J-45000D01*
G01*
X11567500Y-7155000D02*
X11432500Y-7155000D01*
X11432500Y-7155000D02*
G75*
G03*
X11432500Y-7245000I0J-45000D01*
G01*
X11500000Y-7555000D02*
X11500000Y-7645000D01*
X11455000Y-7600000D02*
X11545000Y-7600000D01*
X11432500Y-7645000D02*
X11567500Y-7645000D01*
X11567500Y-7555000D02*
G75*
G02*
X11567500Y-7645000I0J-45000D01*
G01*
X11567500Y-7555000D02*
X11432500Y-7555000D01*
X11432500Y-7555000D02*
G75*
G03*
X11432500Y-7645000I0J-45000D01*
G01*
X11500000Y-8555000D02*
X11500000Y-8645000D01*
X11455000Y-8600000D02*
X11545000Y-8600000D01*
X11432500Y-8645000D02*
X11567500Y-8645000D01*
X11567500Y-8555000D02*
G75*
G02*
X11567500Y-8645000I0J-45000D01*
G01*
X11567500Y-8555000D02*
X11432500Y-8555000D01*
X11432500Y-8555000D02*
G75*
G03*
X11432500Y-8645000I0J-45000D01*
G01*
X8310356Y-6333856D02*
X8310356Y-6263144D01*
X8239644Y-6263144D01*
X8239644Y-6333856D01*
X8310356Y-6333856D01*
X8310356Y-6587856D02*
X8310356Y-6517144D01*
X8239644Y-6517144D01*
X8239644Y-6587856D01*
X8310356Y-6587856D01*
D13*
X8350000Y-7810000D02*
X8410000Y-7750000D01*
X8350000Y-7690000D01*
X8290000Y-7750000D01*
X8350000Y-7810000D01*
X8350000Y-8160000D02*
X8410000Y-8100000D01*
X8350000Y-8040000D01*
X8290000Y-8100000D01*
X8350000Y-8160000D01*
X8350000Y-8510000D02*
X8410000Y-8450000D01*
X8350000Y-8390000D01*
X8290000Y-8450000D01*
X8350000Y-8510000D01*
X9050000Y-7810000D02*
X9110000Y-7750000D01*
X9050000Y-7690000D01*
X8990000Y-7750000D01*
X9050000Y-7810000D01*
X9050000Y-8160000D02*
X9110000Y-8100000D01*
X9050000Y-8040000D01*
X8990000Y-8100000D01*
X9050000Y-8160000D01*
X9050000Y-8510000D02*
X9110000Y-8450000D01*
X9050000Y-8390000D01*
X8990000Y-8450000D01*
X9050000Y-8510000D01*
X9750000Y-6410000D02*
X9810000Y-6350000D01*
X9750000Y-6290000D01*
X9690000Y-6350000D01*
X9750000Y-6410000D01*
X9750000Y-6760000D02*
X9810000Y-6700000D01*
X9750000Y-6640000D01*
X9690000Y-6700000D01*
X9750000Y-6760000D01*
X9750000Y-7110000D02*
X9810000Y-7050000D01*
X9750000Y-6990000D01*
X9690000Y-7050000D01*
X9750000Y-7110000D01*
X9750000Y-7810000D02*
X9810000Y-7750000D01*
X9750000Y-7690000D01*
X9690000Y-7750000D01*
X9750000Y-7810000D01*
X9750000Y-8510000D02*
X9810000Y-8450000D01*
X9750000Y-8390000D01*
X9690000Y-8450000D01*
X9750000Y-8510000D01*
X10100000Y-7810000D02*
X10160000Y-7750000D01*
X10100000Y-7690000D01*
X10040000Y-7750000D01*
X10100000Y-7810000D01*
X10100000Y-8510000D02*
X10160000Y-8450000D01*
X10100000Y-8390000D01*
X10040000Y-8450000D01*
X10100000Y-8510000D01*
X10450000Y-6410000D02*
X10510000Y-6350000D01*
X10450000Y-6290000D01*
X10390000Y-6350000D01*
X10450000Y-6410000D01*
X10450000Y-6760000D02*
X10510000Y-6700000D01*
X10450000Y-6640000D01*
X10390000Y-6700000D01*
X10450000Y-6760000D01*
X10450000Y-7110000D02*
X10510000Y-7050000D01*
X10450000Y-6990000D01*
X10390000Y-7050000D01*
X10450000Y-7110000D01*
X10450000Y-7810000D02*
X10510000Y-7750000D01*
X10450000Y-7690000D01*
X10390000Y-7750000D01*
X10450000Y-7810000D01*
X10450000Y-8510000D02*
X10510000Y-8450000D01*
X10450000Y-8390000D01*
X10390000Y-8450000D01*
X10450000Y-8510000D01*
X11150000Y-5010000D02*
X11210000Y-4950000D01*
X11150000Y-4890000D01*
X11090000Y-4950000D01*
X11150000Y-5010000D01*
X11150000Y-5360000D02*
X11210000Y-5300000D01*
X11150000Y-5240000D01*
X11090000Y-5300000D01*
X11150000Y-5360000D01*
X11150000Y-5710000D02*
X11210000Y-5650000D01*
X11150000Y-5590000D01*
X11090000Y-5650000D01*
X11150000Y-5710000D01*
X11150000Y-6410000D02*
X11210000Y-6350000D01*
X11150000Y-6290000D01*
X11090000Y-6350000D01*
X11150000Y-6410000D01*
X11150000Y-6760000D02*
X11210000Y-6700000D01*
X11150000Y-6640000D01*
X11090000Y-6700000D01*
X11150000Y-6760000D01*
X11150000Y-7110000D02*
X11210000Y-7050000D01*
X11150000Y-6990000D01*
X11090000Y-7050000D01*
X11150000Y-7110000D01*
X11150000Y-7810000D02*
X11210000Y-7750000D01*
X11150000Y-7690000D01*
X11090000Y-7750000D01*
X11150000Y-7810000D01*
X11150000Y-8160000D02*
X11210000Y-8100000D01*
X11150000Y-8040000D01*
X11090000Y-8100000D01*
X11150000Y-8160000D01*
X11150000Y-8510000D02*
X11210000Y-8450000D01*
X11150000Y-8390000D01*
X11090000Y-8450000D01*
X11150000Y-8510000D01*
X11850000Y-5010000D02*
X11910000Y-4950000D01*
X11850000Y-4890000D01*
X11790000Y-4950000D01*
X11850000Y-5010000D01*
X11850000Y-5360000D02*
X11910000Y-5300000D01*
X11850000Y-5240000D01*
X11790000Y-5300000D01*
X11850000Y-5360000D01*
X11850000Y-5710000D02*
X11910000Y-5650000D01*
X11850000Y-5590000D01*
X11790000Y-5650000D01*
X11850000Y-5710000D01*
X11850000Y-6410000D02*
X11910000Y-6350000D01*
X11850000Y-6290000D01*
X11790000Y-6350000D01*
X11850000Y-6410000D01*
X11850000Y-6760000D02*
X11910000Y-6700000D01*
X11850000Y-6640000D01*
X11790000Y-6700000D01*
X11850000Y-6760000D01*
X11850000Y-7110000D02*
X11910000Y-7050000D01*
X11850000Y-6990000D01*
X11790000Y-7050000D01*
X11850000Y-7110000D01*
X11850000Y-7810000D02*
X11910000Y-7750000D01*
X11850000Y-7690000D01*
X11790000Y-7750000D01*
X11850000Y-7810000D01*
X11850000Y-8160000D02*
X11910000Y-8100000D01*
X11850000Y-8040000D01*
X11790000Y-8100000D01*
X11850000Y-8160000D01*
X11850000Y-8510000D02*
X11910000Y-8450000D01*
X11850000Y-8390000D01*
X11790000Y-8450000D01*
X11850000Y-8510000D01*
D11*
X8083277Y-9238984D02*
X8083277Y-9038984D01*
X8083277Y-9038984D02*
X8130896Y-9038984D01*
X8130896Y-9038984D02*
X8159467Y-9048508D01*
X8159467Y-9048508D02*
X8178515Y-9067555D01*
X8178515Y-9067555D02*
X8188039Y-9086603D01*
X8188039Y-9086603D02*
X8197562Y-9124698D01*
X8197562Y-9124698D02*
X8197562Y-9153270D01*
X8197562Y-9153270D02*
X8188039Y-9191365D01*
X8188039Y-9191365D02*
X8178515Y-9210412D01*
X8178515Y-9210412D02*
X8159467Y-9229460D01*
X8159467Y-9229460D02*
X8130896Y-9238984D01*
X8130896Y-9238984D02*
X8083277Y-9238984D01*
X8283277Y-9238984D02*
X8283277Y-9105650D01*
X8283277Y-9143746D02*
X8292801Y-9124698D01*
X8292801Y-9124698D02*
X8302324Y-9115174D01*
X8302324Y-9115174D02*
X8321372Y-9105650D01*
X8321372Y-9105650D02*
X8340420Y-9105650D01*
X8407086Y-9238984D02*
X8407086Y-9105650D01*
X8407086Y-9038984D02*
X8397563Y-9048508D01*
X8397563Y-9048508D02*
X8407086Y-9058031D01*
X8407086Y-9058031D02*
X8416610Y-9048508D01*
X8416610Y-9048508D02*
X8407086Y-9038984D01*
X8407086Y-9038984D02*
X8407086Y-9058031D01*
X8530896Y-9238984D02*
X8511848Y-9229460D01*
X8511848Y-9229460D02*
X8502324Y-9210412D01*
X8502324Y-9210412D02*
X8502324Y-9038984D01*
X8635658Y-9238984D02*
X8616610Y-9229460D01*
X8616610Y-9229460D02*
X8607086Y-9210412D01*
X8607086Y-9210412D02*
X8607086Y-9038984D01*
X8864229Y-9238984D02*
X8864229Y-9038984D01*
X8864229Y-9038984D02*
X8930896Y-9181841D01*
X8930896Y-9181841D02*
X8997563Y-9038984D01*
X8997563Y-9038984D02*
X8997563Y-9238984D01*
X9178515Y-9238984D02*
X9178515Y-9134222D01*
X9178515Y-9134222D02*
X9168991Y-9115174D01*
X9168991Y-9115174D02*
X9149944Y-9105650D01*
X9149944Y-9105650D02*
X9111848Y-9105650D01*
X9111848Y-9105650D02*
X9092801Y-9115174D01*
X9178515Y-9229460D02*
X9159467Y-9238984D01*
X9159467Y-9238984D02*
X9111848Y-9238984D01*
X9111848Y-9238984D02*
X9092801Y-9229460D01*
X9092801Y-9229460D02*
X9083277Y-9210412D01*
X9083277Y-9210412D02*
X9083277Y-9191365D01*
X9083277Y-9191365D02*
X9092801Y-9172317D01*
X9092801Y-9172317D02*
X9111848Y-9162793D01*
X9111848Y-9162793D02*
X9159467Y-9162793D01*
X9159467Y-9162793D02*
X9178515Y-9153270D01*
X9273753Y-9105650D02*
X9273753Y-9305650D01*
X9273753Y-9115174D02*
X9292801Y-9105650D01*
X9292801Y-9105650D02*
X9330896Y-9105650D01*
X9330896Y-9105650D02*
X9349944Y-9115174D01*
X9349944Y-9115174D02*
X9359467Y-9124698D01*
X9359467Y-9124698D02*
X9368991Y-9143746D01*
X9368991Y-9143746D02*
X9368991Y-9200889D01*
X9368991Y-9200889D02*
X9359467Y-9219936D01*
X9359467Y-9219936D02*
X9349944Y-9229460D01*
X9349944Y-9229460D02*
X9330896Y-9238984D01*
X9330896Y-9238984D02*
X9292801Y-9238984D01*
X9292801Y-9238984D02*
X9273753Y-9229460D01*
X9454705Y-9219936D02*
X9464229Y-9229460D01*
X9464229Y-9229460D02*
X9454705Y-9238984D01*
X9454705Y-9238984D02*
X9445182Y-9229460D01*
X9445182Y-9229460D02*
X9454705Y-9219936D01*
X9454705Y-9219936D02*
X9454705Y-9238984D01*
X9454705Y-9115174D02*
X9464229Y-9124698D01*
X9464229Y-9124698D02*
X9454705Y-9134222D01*
X9454705Y-9134222D02*
X9445182Y-9124698D01*
X9445182Y-9124698D02*
X9454705Y-9115174D01*
X9454705Y-9115174D02*
X9454705Y-9134222D01*
D12*
X7762500Y-9537500D02*
X7822500Y-9597500D01*
X7822500Y-9537500D02*
X7762500Y-9597500D01*
D11*
X8121372Y-9458984D02*
X8140420Y-9458984D01*
X8140420Y-9458984D02*
X8159467Y-9468508D01*
X8159467Y-9468508D02*
X8168991Y-9478031D01*
X8168991Y-9478031D02*
X8178515Y-9497079D01*
X8178515Y-9497079D02*
X8188039Y-9535174D01*
X8188039Y-9535174D02*
X8188039Y-9582793D01*
X8188039Y-9582793D02*
X8178515Y-9620889D01*
X8178515Y-9620889D02*
X8168991Y-9639936D01*
X8168991Y-9639936D02*
X8159467Y-9649460D01*
X8159467Y-9649460D02*
X8140420Y-9658984D01*
X8140420Y-9658984D02*
X8121372Y-9658984D01*
X8121372Y-9658984D02*
X8102324Y-9649460D01*
X8102324Y-9649460D02*
X8092801Y-9639936D01*
X8092801Y-9639936D02*
X8083277Y-9620889D01*
X8083277Y-9620889D02*
X8073753Y-9582793D01*
X8073753Y-9582793D02*
X8073753Y-9535174D01*
X8073753Y-9535174D02*
X8083277Y-9497079D01*
X8083277Y-9497079D02*
X8092801Y-9478031D01*
X8092801Y-9478031D02*
X8102324Y-9468508D01*
X8102324Y-9468508D02*
X8121372Y-9458984D01*
X8273753Y-9639936D02*
X8283277Y-9649460D01*
X8283277Y-9649460D02*
X8273753Y-9658984D01*
X8273753Y-9658984D02*
X8264229Y-9649460D01*
X8264229Y-9649460D02*
X8273753Y-9639936D01*
X8273753Y-9639936D02*
X8273753Y-9658984D01*
X8454705Y-9458984D02*
X8416610Y-9458984D01*
X8416610Y-9458984D02*
X8397563Y-9468508D01*
X8397563Y-9468508D02*
X8388039Y-9478031D01*
X8388039Y-9478031D02*
X8368991Y-9506603D01*
X8368991Y-9506603D02*
X8359467Y-9544698D01*
X8359467Y-9544698D02*
X8359467Y-9620889D01*
X8359467Y-9620889D02*
X8368991Y-9639936D01*
X8368991Y-9639936D02*
X8378515Y-9649460D01*
X8378515Y-9649460D02*
X8397563Y-9658984D01*
X8397563Y-9658984D02*
X8435658Y-9658984D01*
X8435658Y-9658984D02*
X8454705Y-9649460D01*
X8454705Y-9649460D02*
X8464229Y-9639936D01*
X8464229Y-9639936D02*
X8473753Y-9620889D01*
X8473753Y-9620889D02*
X8473753Y-9573270D01*
X8473753Y-9573270D02*
X8464229Y-9554222D01*
X8464229Y-9554222D02*
X8454705Y-9544698D01*
X8454705Y-9544698D02*
X8435658Y-9535174D01*
X8435658Y-9535174D02*
X8397563Y-9535174D01*
X8397563Y-9535174D02*
X8378515Y-9544698D01*
X8378515Y-9544698D02*
X8368991Y-9554222D01*
X8368991Y-9554222D02*
X8359467Y-9573270D01*
X8597563Y-9458984D02*
X8616610Y-9458984D01*
X8616610Y-9458984D02*
X8635658Y-9468508D01*
X8635658Y-9468508D02*
X8645182Y-9478031D01*
X8645182Y-9478031D02*
X8654705Y-9497079D01*
X8654705Y-9497079D02*
X8664229Y-9535174D01*
X8664229Y-9535174D02*
X8664229Y-9582793D01*
X8664229Y-9582793D02*
X8654705Y-9620889D01*
X8654705Y-9620889D02*
X8645182Y-9639936D01*
X8645182Y-9639936D02*
X8635658Y-9649460D01*
X8635658Y-9649460D02*
X8616610Y-9658984D01*
X8616610Y-9658984D02*
X8597563Y-9658984D01*
X8597563Y-9658984D02*
X8578515Y-9649460D01*
X8578515Y-9649460D02*
X8568991Y-9639936D01*
X8568991Y-9639936D02*
X8559467Y-9620889D01*
X8559467Y-9620889D02*
X8549944Y-9582793D01*
X8549944Y-9582793D02*
X8549944Y-9535174D01*
X8549944Y-9535174D02*
X8559467Y-9497079D01*
X8559467Y-9497079D02*
X8568991Y-9478031D01*
X8568991Y-9478031D02*
X8578515Y-9468508D01*
X8578515Y-9468508D02*
X8597563Y-9458984D01*
X8788039Y-9458984D02*
X8807086Y-9458984D01*
X8807086Y-9458984D02*
X8826134Y-9468508D01*
X8826134Y-9468508D02*
X8835658Y-9478031D01*
X8835658Y-9478031D02*
X8845182Y-9497079D01*
X8845182Y-9497079D02*
X8854705Y-9535174D01*
X8854705Y-9535174D02*
X8854705Y-9582793D01*
X8854705Y-9582793D02*
X8845182Y-9620889D01*
X8845182Y-9620889D02*
X8835658Y-9639936D01*
X8835658Y-9639936D02*
X8826134Y-9649460D01*
X8826134Y-9649460D02*
X8807086Y-9658984D01*
X8807086Y-9658984D02*
X8788039Y-9658984D01*
X8788039Y-9658984D02*
X8768991Y-9649460D01*
X8768991Y-9649460D02*
X8759467Y-9639936D01*
X8759467Y-9639936D02*
X8749944Y-9620889D01*
X8749944Y-9620889D02*
X8740420Y-9582793D01*
X8740420Y-9582793D02*
X8740420Y-9535174D01*
X8740420Y-9535174D02*
X8749944Y-9497079D01*
X8749944Y-9497079D02*
X8759467Y-9478031D01*
X8759467Y-9478031D02*
X8768991Y-9468508D01*
X8768991Y-9468508D02*
X8788039Y-9458984D01*
X8940420Y-9658984D02*
X8940420Y-9525650D01*
X8940420Y-9544698D02*
X8949944Y-9535174D01*
X8949944Y-9535174D02*
X8968991Y-9525650D01*
X8968991Y-9525650D02*
X8997563Y-9525650D01*
X8997563Y-9525650D02*
X9016610Y-9535174D01*
X9016610Y-9535174D02*
X9026134Y-9554222D01*
X9026134Y-9554222D02*
X9026134Y-9658984D01*
X9026134Y-9554222D02*
X9035658Y-9535174D01*
X9035658Y-9535174D02*
X9054705Y-9525650D01*
X9054705Y-9525650D02*
X9083277Y-9525650D01*
X9083277Y-9525650D02*
X9102325Y-9535174D01*
X9102325Y-9535174D02*
X9111848Y-9554222D01*
X9111848Y-9554222D02*
X9111848Y-9658984D01*
X9207086Y-9658984D02*
X9207086Y-9525650D01*
X9207086Y-9544698D02*
X9216610Y-9535174D01*
X9216610Y-9535174D02*
X9235658Y-9525650D01*
X9235658Y-9525650D02*
X9264229Y-9525650D01*
X9264229Y-9525650D02*
X9283277Y-9535174D01*
X9283277Y-9535174D02*
X9292801Y-9554222D01*
X9292801Y-9554222D02*
X9292801Y-9658984D01*
X9292801Y-9554222D02*
X9302325Y-9535174D01*
X9302325Y-9535174D02*
X9321372Y-9525650D01*
X9321372Y-9525650D02*
X9349944Y-9525650D01*
X9349944Y-9525650D02*
X9368991Y-9535174D01*
X9368991Y-9535174D02*
X9378515Y-9554222D01*
X9378515Y-9554222D02*
X9378515Y-9658984D01*
X9768991Y-9449460D02*
X9597563Y-9706603D01*
X10026134Y-9458984D02*
X10045182Y-9458984D01*
X10045182Y-9458984D02*
X10064229Y-9468508D01*
X10064229Y-9468508D02*
X10073753Y-9478031D01*
X10073753Y-9478031D02*
X10083277Y-9497079D01*
X10083277Y-9497079D02*
X10092801Y-9535174D01*
X10092801Y-9535174D02*
X10092801Y-9582793D01*
X10092801Y-9582793D02*
X10083277Y-9620889D01*
X10083277Y-9620889D02*
X10073753Y-9639936D01*
X10073753Y-9639936D02*
X10064229Y-9649460D01*
X10064229Y-9649460D02*
X10045182Y-9658984D01*
X10045182Y-9658984D02*
X10026134Y-9658984D01*
X10026134Y-9658984D02*
X10007087Y-9649460D01*
X10007087Y-9649460D02*
X9997563Y-9639936D01*
X9997563Y-9639936D02*
X9988039Y-9620889D01*
X9988039Y-9620889D02*
X9978515Y-9582793D01*
X9978515Y-9582793D02*
X9978515Y-9535174D01*
X9978515Y-9535174D02*
X9988039Y-9497079D01*
X9988039Y-9497079D02*
X9997563Y-9478031D01*
X9997563Y-9478031D02*
X10007087Y-9468508D01*
X10007087Y-9468508D02*
X10026134Y-9458984D01*
X10178515Y-9639936D02*
X10188039Y-9649460D01*
X10188039Y-9649460D02*
X10178515Y-9658984D01*
X10178515Y-9658984D02*
X10168991Y-9649460D01*
X10168991Y-9649460D02*
X10178515Y-9639936D01*
X10178515Y-9639936D02*
X10178515Y-9658984D01*
X10311848Y-9458984D02*
X10330896Y-9458984D01*
X10330896Y-9458984D02*
X10349944Y-9468508D01*
X10349944Y-9468508D02*
X10359468Y-9478031D01*
X10359468Y-9478031D02*
X10368991Y-9497079D01*
X10368991Y-9497079D02*
X10378515Y-9535174D01*
X10378515Y-9535174D02*
X10378515Y-9582793D01*
X10378515Y-9582793D02*
X10368991Y-9620889D01*
X10368991Y-9620889D02*
X10359468Y-9639936D01*
X10359468Y-9639936D02*
X10349944Y-9649460D01*
X10349944Y-9649460D02*
X10330896Y-9658984D01*
X10330896Y-9658984D02*
X10311848Y-9658984D01*
X10311848Y-9658984D02*
X10292801Y-9649460D01*
X10292801Y-9649460D02*
X10283277Y-9639936D01*
X10283277Y-9639936D02*
X10273753Y-9620889D01*
X10273753Y-9620889D02*
X10264229Y-9582793D01*
X10264229Y-9582793D02*
X10264229Y-9535174D01*
X10264229Y-9535174D02*
X10273753Y-9497079D01*
X10273753Y-9497079D02*
X10283277Y-9478031D01*
X10283277Y-9478031D02*
X10292801Y-9468508D01*
X10292801Y-9468508D02*
X10311848Y-9458984D01*
X10454706Y-9478031D02*
X10464229Y-9468508D01*
X10464229Y-9468508D02*
X10483277Y-9458984D01*
X10483277Y-9458984D02*
X10530896Y-9458984D01*
X10530896Y-9458984D02*
X10549944Y-9468508D01*
X10549944Y-9468508D02*
X10559468Y-9478031D01*
X10559468Y-9478031D02*
X10568991Y-9497079D01*
X10568991Y-9497079D02*
X10568991Y-9516127D01*
X10568991Y-9516127D02*
X10559468Y-9544698D01*
X10559468Y-9544698D02*
X10445182Y-9658984D01*
X10445182Y-9658984D02*
X10568991Y-9658984D01*
X10635658Y-9458984D02*
X10759468Y-9458984D01*
X10759468Y-9458984D02*
X10692801Y-9535174D01*
X10692801Y-9535174D02*
X10721372Y-9535174D01*
X10721372Y-9535174D02*
X10740420Y-9544698D01*
X10740420Y-9544698D02*
X10749944Y-9554222D01*
X10749944Y-9554222D02*
X10759468Y-9573270D01*
X10759468Y-9573270D02*
X10759468Y-9620889D01*
X10759468Y-9620889D02*
X10749944Y-9639936D01*
X10749944Y-9639936D02*
X10740420Y-9649460D01*
X10740420Y-9649460D02*
X10721372Y-9658984D01*
X10721372Y-9658984D02*
X10664229Y-9658984D01*
X10664229Y-9658984D02*
X10645182Y-9649460D01*
X10645182Y-9649460D02*
X10635658Y-9639936D01*
X10930896Y-9458984D02*
X10892801Y-9458984D01*
X10892801Y-9458984D02*
X10873753Y-9468508D01*
X10873753Y-9468508D02*
X10864229Y-9478031D01*
X10864229Y-9478031D02*
X10845182Y-9506603D01*
X10845182Y-9506603D02*
X10835658Y-9544698D01*
X10835658Y-9544698D02*
X10835658Y-9620889D01*
X10835658Y-9620889D02*
X10845182Y-9639936D01*
X10845182Y-9639936D02*
X10854706Y-9649460D01*
X10854706Y-9649460D02*
X10873753Y-9658984D01*
X10873753Y-9658984D02*
X10911849Y-9658984D01*
X10911849Y-9658984D02*
X10930896Y-9649460D01*
X10930896Y-9649460D02*
X10940420Y-9639936D01*
X10940420Y-9639936D02*
X10949944Y-9620889D01*
X10949944Y-9620889D02*
X10949944Y-9573270D01*
X10949944Y-9573270D02*
X10940420Y-9554222D01*
X10940420Y-9554222D02*
X10930896Y-9544698D01*
X10930896Y-9544698D02*
X10911849Y-9535174D01*
X10911849Y-9535174D02*
X10873753Y-9535174D01*
X10873753Y-9535174D02*
X10854706Y-9544698D01*
X10854706Y-9544698D02*
X10845182Y-9554222D01*
X10845182Y-9554222D02*
X10835658Y-9573270D01*
X11026134Y-9458984D02*
X11026134Y-9497079D01*
X11102325Y-9458984D02*
X11102325Y-9497079D01*
X11397563Y-9735174D02*
X11388039Y-9725650D01*
X11388039Y-9725650D02*
X11368991Y-9697079D01*
X11368991Y-9697079D02*
X11359468Y-9678031D01*
X11359468Y-9678031D02*
X11349944Y-9649460D01*
X11349944Y-9649460D02*
X11340420Y-9601841D01*
X11340420Y-9601841D02*
X11340420Y-9563746D01*
X11340420Y-9563746D02*
X11349944Y-9516127D01*
X11349944Y-9516127D02*
X11359468Y-9487555D01*
X11359468Y-9487555D02*
X11368991Y-9468508D01*
X11368991Y-9468508D02*
X11388039Y-9439936D01*
X11388039Y-9439936D02*
X11397563Y-9430412D01*
X11578515Y-9658984D02*
X11464229Y-9658984D01*
X11521372Y-9658984D02*
X11521372Y-9458984D01*
X11521372Y-9458984D02*
X11502325Y-9487555D01*
X11502325Y-9487555D02*
X11483277Y-9506603D01*
X11483277Y-9506603D02*
X11464229Y-9516127D01*
X11645182Y-9458984D02*
X11778515Y-9458984D01*
X11778515Y-9458984D02*
X11692801Y-9658984D01*
X11940420Y-9525650D02*
X11940420Y-9658984D01*
X11892801Y-9449460D02*
X11845182Y-9592317D01*
X11845182Y-9592317D02*
X11968991Y-9592317D01*
X12197563Y-9658984D02*
X12197563Y-9458984D01*
X12283277Y-9658984D02*
X12283277Y-9554222D01*
X12283277Y-9554222D02*
X12273753Y-9535174D01*
X12273753Y-9535174D02*
X12254706Y-9525650D01*
X12254706Y-9525650D02*
X12226134Y-9525650D01*
X12226134Y-9525650D02*
X12207087Y-9535174D01*
X12207087Y-9535174D02*
X12197563Y-9544698D01*
X12407087Y-9658984D02*
X12388039Y-9649460D01*
X12388039Y-9649460D02*
X12378515Y-9639936D01*
X12378515Y-9639936D02*
X12368991Y-9620889D01*
X12368991Y-9620889D02*
X12368991Y-9563746D01*
X12368991Y-9563746D02*
X12378515Y-9544698D01*
X12378515Y-9544698D02*
X12388039Y-9535174D01*
X12388039Y-9535174D02*
X12407087Y-9525650D01*
X12407087Y-9525650D02*
X12435658Y-9525650D01*
X12435658Y-9525650D02*
X12454706Y-9535174D01*
X12454706Y-9535174D02*
X12464230Y-9544698D01*
X12464230Y-9544698D02*
X12473753Y-9563746D01*
X12473753Y-9563746D02*
X12473753Y-9620889D01*
X12473753Y-9620889D02*
X12464230Y-9639936D01*
X12464230Y-9639936D02*
X12454706Y-9649460D01*
X12454706Y-9649460D02*
X12435658Y-9658984D01*
X12435658Y-9658984D02*
X12407087Y-9658984D01*
X12588039Y-9658984D02*
X12568991Y-9649460D01*
X12568991Y-9649460D02*
X12559468Y-9630412D01*
X12559468Y-9630412D02*
X12559468Y-9458984D01*
X12740420Y-9649460D02*
X12721372Y-9658984D01*
X12721372Y-9658984D02*
X12683277Y-9658984D01*
X12683277Y-9658984D02*
X12664230Y-9649460D01*
X12664230Y-9649460D02*
X12654706Y-9630412D01*
X12654706Y-9630412D02*
X12654706Y-9554222D01*
X12654706Y-9554222D02*
X12664230Y-9535174D01*
X12664230Y-9535174D02*
X12683277Y-9525650D01*
X12683277Y-9525650D02*
X12721372Y-9525650D01*
X12721372Y-9525650D02*
X12740420Y-9535174D01*
X12740420Y-9535174D02*
X12749944Y-9554222D01*
X12749944Y-9554222D02*
X12749944Y-9573270D01*
X12749944Y-9573270D02*
X12654706Y-9592317D01*
X12826134Y-9649460D02*
X12845182Y-9658984D01*
X12845182Y-9658984D02*
X12883277Y-9658984D01*
X12883277Y-9658984D02*
X12902325Y-9649460D01*
X12902325Y-9649460D02*
X12911849Y-9630412D01*
X12911849Y-9630412D02*
X12911849Y-9620889D01*
X12911849Y-9620889D02*
X12902325Y-9601841D01*
X12902325Y-9601841D02*
X12883277Y-9592317D01*
X12883277Y-9592317D02*
X12854706Y-9592317D01*
X12854706Y-9592317D02*
X12835658Y-9582793D01*
X12835658Y-9582793D02*
X12826134Y-9563746D01*
X12826134Y-9563746D02*
X12826134Y-9554222D01*
X12826134Y-9554222D02*
X12835658Y-9535174D01*
X12835658Y-9535174D02*
X12854706Y-9525650D01*
X12854706Y-9525650D02*
X12883277Y-9525650D01*
X12883277Y-9525650D02*
X12902325Y-9535174D01*
X12978515Y-9735174D02*
X12988039Y-9725650D01*
X12988039Y-9725650D02*
X13007087Y-9697079D01*
X13007087Y-9697079D02*
X13016611Y-9678031D01*
X13016611Y-9678031D02*
X13026134Y-9649460D01*
X13026134Y-9649460D02*
X13035658Y-9601841D01*
X13035658Y-9601841D02*
X13035658Y-9563746D01*
X13035658Y-9563746D02*
X13026134Y-9516127D01*
X13026134Y-9516127D02*
X13016611Y-9487555D01*
X13016611Y-9487555D02*
X13007087Y-9468508D01*
X13007087Y-9468508D02*
X12988039Y-9439936D01*
X12988039Y-9439936D02*
X12978515Y-9430412D01*
D12*
X7822500Y-9831500D02*
G75*
G02*
X7748500Y-9831500I-37000J0D01*
G01*
X7748500Y-9831500D02*
G75*
G02*
X7822500Y-9831500I37000J0D01*
G01*
D11*
X8121372Y-9722984D02*
X8140420Y-9722984D01*
X8140420Y-9722984D02*
X8159467Y-9732508D01*
X8159467Y-9732508D02*
X8168991Y-9742031D01*
X8168991Y-9742031D02*
X8178515Y-9761079D01*
X8178515Y-9761079D02*
X8188039Y-9799174D01*
X8188039Y-9799174D02*
X8188039Y-9846793D01*
X8188039Y-9846793D02*
X8178515Y-9884889D01*
X8178515Y-9884889D02*
X8168991Y-9903936D01*
X8168991Y-9903936D02*
X8159467Y-9913460D01*
X8159467Y-9913460D02*
X8140420Y-9922984D01*
X8140420Y-9922984D02*
X8121372Y-9922984D01*
X8121372Y-9922984D02*
X8102324Y-9913460D01*
X8102324Y-9913460D02*
X8092801Y-9903936D01*
X8092801Y-9903936D02*
X8083277Y-9884889D01*
X8083277Y-9884889D02*
X8073753Y-9846793D01*
X8073753Y-9846793D02*
X8073753Y-9799174D01*
X8073753Y-9799174D02*
X8083277Y-9761079D01*
X8083277Y-9761079D02*
X8092801Y-9742031D01*
X8092801Y-9742031D02*
X8102324Y-9732508D01*
X8102324Y-9732508D02*
X8121372Y-9722984D01*
X8273753Y-9903936D02*
X8283277Y-9913460D01*
X8283277Y-9913460D02*
X8273753Y-9922984D01*
X8273753Y-9922984D02*
X8264229Y-9913460D01*
X8264229Y-9913460D02*
X8273753Y-9903936D01*
X8273753Y-9903936D02*
X8273753Y-9922984D01*
X8349943Y-9722984D02*
X8483277Y-9722984D01*
X8483277Y-9722984D02*
X8397563Y-9922984D01*
X8645182Y-9789650D02*
X8645182Y-9922984D01*
X8597563Y-9713460D02*
X8549944Y-9856317D01*
X8549944Y-9856317D02*
X8673753Y-9856317D01*
X8788039Y-9722984D02*
X8807086Y-9722984D01*
X8807086Y-9722984D02*
X8826134Y-9732508D01*
X8826134Y-9732508D02*
X8835658Y-9742031D01*
X8835658Y-9742031D02*
X8845182Y-9761079D01*
X8845182Y-9761079D02*
X8854705Y-9799174D01*
X8854705Y-9799174D02*
X8854705Y-9846793D01*
X8854705Y-9846793D02*
X8845182Y-9884889D01*
X8845182Y-9884889D02*
X8835658Y-9903936D01*
X8835658Y-9903936D02*
X8826134Y-9913460D01*
X8826134Y-9913460D02*
X8807086Y-9922984D01*
X8807086Y-9922984D02*
X8788039Y-9922984D01*
X8788039Y-9922984D02*
X8768991Y-9913460D01*
X8768991Y-9913460D02*
X8759467Y-9903936D01*
X8759467Y-9903936D02*
X8749944Y-9884889D01*
X8749944Y-9884889D02*
X8740420Y-9846793D01*
X8740420Y-9846793D02*
X8740420Y-9799174D01*
X8740420Y-9799174D02*
X8749944Y-9761079D01*
X8749944Y-9761079D02*
X8759467Y-9742031D01*
X8759467Y-9742031D02*
X8768991Y-9732508D01*
X8768991Y-9732508D02*
X8788039Y-9722984D01*
X8940420Y-9922984D02*
X8940420Y-9789650D01*
X8940420Y-9808698D02*
X8949944Y-9799174D01*
X8949944Y-9799174D02*
X8968991Y-9789650D01*
X8968991Y-9789650D02*
X8997563Y-9789650D01*
X8997563Y-9789650D02*
X9016610Y-9799174D01*
X9016610Y-9799174D02*
X9026134Y-9818222D01*
X9026134Y-9818222D02*
X9026134Y-9922984D01*
X9026134Y-9818222D02*
X9035658Y-9799174D01*
X9035658Y-9799174D02*
X9054705Y-9789650D01*
X9054705Y-9789650D02*
X9083277Y-9789650D01*
X9083277Y-9789650D02*
X9102325Y-9799174D01*
X9102325Y-9799174D02*
X9111848Y-9818222D01*
X9111848Y-9818222D02*
X9111848Y-9922984D01*
X9207086Y-9922984D02*
X9207086Y-9789650D01*
X9207086Y-9808698D02*
X9216610Y-9799174D01*
X9216610Y-9799174D02*
X9235658Y-9789650D01*
X9235658Y-9789650D02*
X9264229Y-9789650D01*
X9264229Y-9789650D02*
X9283277Y-9799174D01*
X9283277Y-9799174D02*
X9292801Y-9818222D01*
X9292801Y-9818222D02*
X9292801Y-9922984D01*
X9292801Y-9818222D02*
X9302325Y-9799174D01*
X9302325Y-9799174D02*
X9321372Y-9789650D01*
X9321372Y-9789650D02*
X9349944Y-9789650D01*
X9349944Y-9789650D02*
X9368991Y-9799174D01*
X9368991Y-9799174D02*
X9378515Y-9818222D01*
X9378515Y-9818222D02*
X9378515Y-9922984D01*
X9768991Y-9713460D02*
X9597563Y-9970603D01*
X10026134Y-9722984D02*
X10045182Y-9722984D01*
X10045182Y-9722984D02*
X10064229Y-9732508D01*
X10064229Y-9732508D02*
X10073753Y-9742031D01*
X10073753Y-9742031D02*
X10083277Y-9761079D01*
X10083277Y-9761079D02*
X10092801Y-9799174D01*
X10092801Y-9799174D02*
X10092801Y-9846793D01*
X10092801Y-9846793D02*
X10083277Y-9884889D01*
X10083277Y-9884889D02*
X10073753Y-9903936D01*
X10073753Y-9903936D02*
X10064229Y-9913460D01*
X10064229Y-9913460D02*
X10045182Y-9922984D01*
X10045182Y-9922984D02*
X10026134Y-9922984D01*
X10026134Y-9922984D02*
X10007087Y-9913460D01*
X10007087Y-9913460D02*
X9997563Y-9903936D01*
X9997563Y-9903936D02*
X9988039Y-9884889D01*
X9988039Y-9884889D02*
X9978515Y-9846793D01*
X9978515Y-9846793D02*
X9978515Y-9799174D01*
X9978515Y-9799174D02*
X9988039Y-9761079D01*
X9988039Y-9761079D02*
X9997563Y-9742031D01*
X9997563Y-9742031D02*
X10007087Y-9732508D01*
X10007087Y-9732508D02*
X10026134Y-9722984D01*
X10178515Y-9903936D02*
X10188039Y-9913460D01*
X10188039Y-9913460D02*
X10178515Y-9922984D01*
X10178515Y-9922984D02*
X10168991Y-9913460D01*
X10168991Y-9913460D02*
X10178515Y-9903936D01*
X10178515Y-9903936D02*
X10178515Y-9922984D01*
X10311848Y-9722984D02*
X10330896Y-9722984D01*
X10330896Y-9722984D02*
X10349944Y-9732508D01*
X10349944Y-9732508D02*
X10359468Y-9742031D01*
X10359468Y-9742031D02*
X10368991Y-9761079D01*
X10368991Y-9761079D02*
X10378515Y-9799174D01*
X10378515Y-9799174D02*
X10378515Y-9846793D01*
X10378515Y-9846793D02*
X10368991Y-9884889D01*
X10368991Y-9884889D02*
X10359468Y-9903936D01*
X10359468Y-9903936D02*
X10349944Y-9913460D01*
X10349944Y-9913460D02*
X10330896Y-9922984D01*
X10330896Y-9922984D02*
X10311848Y-9922984D01*
X10311848Y-9922984D02*
X10292801Y-9913460D01*
X10292801Y-9913460D02*
X10283277Y-9903936D01*
X10283277Y-9903936D02*
X10273753Y-9884889D01*
X10273753Y-9884889D02*
X10264229Y-9846793D01*
X10264229Y-9846793D02*
X10264229Y-9799174D01*
X10264229Y-9799174D02*
X10273753Y-9761079D01*
X10273753Y-9761079D02*
X10283277Y-9742031D01*
X10283277Y-9742031D02*
X10292801Y-9732508D01*
X10292801Y-9732508D02*
X10311848Y-9722984D01*
X10454706Y-9742031D02*
X10464229Y-9732508D01*
X10464229Y-9732508D02*
X10483277Y-9722984D01*
X10483277Y-9722984D02*
X10530896Y-9722984D01*
X10530896Y-9722984D02*
X10549944Y-9732508D01*
X10549944Y-9732508D02*
X10559468Y-9742031D01*
X10559468Y-9742031D02*
X10568991Y-9761079D01*
X10568991Y-9761079D02*
X10568991Y-9780127D01*
X10568991Y-9780127D02*
X10559468Y-9808698D01*
X10559468Y-9808698D02*
X10445182Y-9922984D01*
X10445182Y-9922984D02*
X10568991Y-9922984D01*
X10664229Y-9922984D02*
X10702325Y-9922984D01*
X10702325Y-9922984D02*
X10721372Y-9913460D01*
X10721372Y-9913460D02*
X10730896Y-9903936D01*
X10730896Y-9903936D02*
X10749944Y-9875365D01*
X10749944Y-9875365D02*
X10759468Y-9837270D01*
X10759468Y-9837270D02*
X10759468Y-9761079D01*
X10759468Y-9761079D02*
X10749944Y-9742031D01*
X10749944Y-9742031D02*
X10740420Y-9732508D01*
X10740420Y-9732508D02*
X10721372Y-9722984D01*
X10721372Y-9722984D02*
X10683277Y-9722984D01*
X10683277Y-9722984D02*
X10664229Y-9732508D01*
X10664229Y-9732508D02*
X10654706Y-9742031D01*
X10654706Y-9742031D02*
X10645182Y-9761079D01*
X10645182Y-9761079D02*
X10645182Y-9808698D01*
X10645182Y-9808698D02*
X10654706Y-9827746D01*
X10654706Y-9827746D02*
X10664229Y-9837270D01*
X10664229Y-9837270D02*
X10683277Y-9846793D01*
X10683277Y-9846793D02*
X10721372Y-9846793D01*
X10721372Y-9846793D02*
X10740420Y-9837270D01*
X10740420Y-9837270D02*
X10749944Y-9827746D01*
X10749944Y-9827746D02*
X10759468Y-9808698D01*
X10949944Y-9922984D02*
X10835658Y-9922984D01*
X10892801Y-9922984D02*
X10892801Y-9722984D01*
X10892801Y-9722984D02*
X10873753Y-9751555D01*
X10873753Y-9751555D02*
X10854706Y-9770603D01*
X10854706Y-9770603D02*
X10835658Y-9780127D01*
X11026134Y-9722984D02*
X11026134Y-9761079D01*
X11102325Y-9722984D02*
X11102325Y-9761079D01*
X11397563Y-9999174D02*
X11388039Y-9989650D01*
X11388039Y-9989650D02*
X11368991Y-9961079D01*
X11368991Y-9961079D02*
X11359468Y-9942031D01*
X11359468Y-9942031D02*
X11349944Y-9913460D01*
X11349944Y-9913460D02*
X11340420Y-9865841D01*
X11340420Y-9865841D02*
X11340420Y-9827746D01*
X11340420Y-9827746D02*
X11349944Y-9780127D01*
X11349944Y-9780127D02*
X11359468Y-9751555D01*
X11359468Y-9751555D02*
X11368991Y-9732508D01*
X11368991Y-9732508D02*
X11388039Y-9703936D01*
X11388039Y-9703936D02*
X11397563Y-9694412D01*
X11559468Y-9722984D02*
X11521372Y-9722984D01*
X11521372Y-9722984D02*
X11502325Y-9732508D01*
X11502325Y-9732508D02*
X11492801Y-9742031D01*
X11492801Y-9742031D02*
X11473753Y-9770603D01*
X11473753Y-9770603D02*
X11464229Y-9808698D01*
X11464229Y-9808698D02*
X11464229Y-9884889D01*
X11464229Y-9884889D02*
X11473753Y-9903936D01*
X11473753Y-9903936D02*
X11483277Y-9913460D01*
X11483277Y-9913460D02*
X11502325Y-9922984D01*
X11502325Y-9922984D02*
X11540420Y-9922984D01*
X11540420Y-9922984D02*
X11559468Y-9913460D01*
X11559468Y-9913460D02*
X11568991Y-9903936D01*
X11568991Y-9903936D02*
X11578515Y-9884889D01*
X11578515Y-9884889D02*
X11578515Y-9837270D01*
X11578515Y-9837270D02*
X11568991Y-9818222D01*
X11568991Y-9818222D02*
X11559468Y-9808698D01*
X11559468Y-9808698D02*
X11540420Y-9799174D01*
X11540420Y-9799174D02*
X11502325Y-9799174D01*
X11502325Y-9799174D02*
X11483277Y-9808698D01*
X11483277Y-9808698D02*
X11473753Y-9818222D01*
X11473753Y-9818222D02*
X11464229Y-9837270D01*
X11816610Y-9922984D02*
X11816610Y-9722984D01*
X11902325Y-9922984D02*
X11902325Y-9818222D01*
X11902325Y-9818222D02*
X11892801Y-9799174D01*
X11892801Y-9799174D02*
X11873753Y-9789650D01*
X11873753Y-9789650D02*
X11845182Y-9789650D01*
X11845182Y-9789650D02*
X11826134Y-9799174D01*
X11826134Y-9799174D02*
X11816610Y-9808698D01*
X12026134Y-9922984D02*
X12007087Y-9913460D01*
X12007087Y-9913460D02*
X11997563Y-9903936D01*
X11997563Y-9903936D02*
X11988039Y-9884889D01*
X11988039Y-9884889D02*
X11988039Y-9827746D01*
X11988039Y-9827746D02*
X11997563Y-9808698D01*
X11997563Y-9808698D02*
X12007087Y-9799174D01*
X12007087Y-9799174D02*
X12026134Y-9789650D01*
X12026134Y-9789650D02*
X12054706Y-9789650D01*
X12054706Y-9789650D02*
X12073753Y-9799174D01*
X12073753Y-9799174D02*
X12083277Y-9808698D01*
X12083277Y-9808698D02*
X12092801Y-9827746D01*
X12092801Y-9827746D02*
X12092801Y-9884889D01*
X12092801Y-9884889D02*
X12083277Y-9903936D01*
X12083277Y-9903936D02*
X12073753Y-9913460D01*
X12073753Y-9913460D02*
X12054706Y-9922984D01*
X12054706Y-9922984D02*
X12026134Y-9922984D01*
X12207087Y-9922984D02*
X12188039Y-9913460D01*
X12188039Y-9913460D02*
X12178515Y-9894412D01*
X12178515Y-9894412D02*
X12178515Y-9722984D01*
X12359468Y-9913460D02*
X12340420Y-9922984D01*
X12340420Y-9922984D02*
X12302325Y-9922984D01*
X12302325Y-9922984D02*
X12283277Y-9913460D01*
X12283277Y-9913460D02*
X12273753Y-9894412D01*
X12273753Y-9894412D02*
X12273753Y-9818222D01*
X12273753Y-9818222D02*
X12283277Y-9799174D01*
X12283277Y-9799174D02*
X12302325Y-9789650D01*
X12302325Y-9789650D02*
X12340420Y-9789650D01*
X12340420Y-9789650D02*
X12359468Y-9799174D01*
X12359468Y-9799174D02*
X12368991Y-9818222D01*
X12368991Y-9818222D02*
X12368991Y-9837270D01*
X12368991Y-9837270D02*
X12273753Y-9856317D01*
X12445182Y-9913460D02*
X12464230Y-9922984D01*
X12464230Y-9922984D02*
X12502325Y-9922984D01*
X12502325Y-9922984D02*
X12521372Y-9913460D01*
X12521372Y-9913460D02*
X12530896Y-9894412D01*
X12530896Y-9894412D02*
X12530896Y-9884889D01*
X12530896Y-9884889D02*
X12521372Y-9865841D01*
X12521372Y-9865841D02*
X12502325Y-9856317D01*
X12502325Y-9856317D02*
X12473753Y-9856317D01*
X12473753Y-9856317D02*
X12454706Y-9846793D01*
X12454706Y-9846793D02*
X12445182Y-9827746D01*
X12445182Y-9827746D02*
X12445182Y-9818222D01*
X12445182Y-9818222D02*
X12454706Y-9799174D01*
X12454706Y-9799174D02*
X12473753Y-9789650D01*
X12473753Y-9789650D02*
X12502325Y-9789650D01*
X12502325Y-9789650D02*
X12521372Y-9799174D01*
X12597563Y-9999174D02*
X12607087Y-9989650D01*
X12607087Y-9989650D02*
X12626134Y-9961079D01*
X12626134Y-9961079D02*
X12635658Y-9942031D01*
X12635658Y-9942031D02*
X12645182Y-9913460D01*
X12645182Y-9913460D02*
X12654706Y-9865841D01*
X12654706Y-9865841D02*
X12654706Y-9827746D01*
X12654706Y-9827746D02*
X12645182Y-9780127D01*
X12645182Y-9780127D02*
X12635658Y-9751555D01*
X12635658Y-9751555D02*
X12626134Y-9732508D01*
X12626134Y-9732508D02*
X12607087Y-9703936D01*
X12607087Y-9703936D02*
X12597563Y-9694412D01*
D12*
X7777500Y-10050500D02*
X7777500Y-10140500D01*
X7732500Y-10095500D02*
X7822500Y-10095500D01*
D11*
X8121372Y-9986984D02*
X8140420Y-9986984D01*
X8140420Y-9986984D02*
X8159467Y-9996508D01*
X8159467Y-9996508D02*
X8168991Y-10006031D01*
X8168991Y-10006031D02*
X8178515Y-10025079D01*
X8178515Y-10025079D02*
X8188039Y-10063174D01*
X8188039Y-10063174D02*
X8188039Y-10110793D01*
X8188039Y-10110793D02*
X8178515Y-10148889D01*
X8178515Y-10148889D02*
X8168991Y-10167936D01*
X8168991Y-10167936D02*
X8159467Y-10177460D01*
X8159467Y-10177460D02*
X8140420Y-10186984D01*
X8140420Y-10186984D02*
X8121372Y-10186984D01*
X8121372Y-10186984D02*
X8102324Y-10177460D01*
X8102324Y-10177460D02*
X8092801Y-10167936D01*
X8092801Y-10167936D02*
X8083277Y-10148889D01*
X8083277Y-10148889D02*
X8073753Y-10110793D01*
X8073753Y-10110793D02*
X8073753Y-10063174D01*
X8073753Y-10063174D02*
X8083277Y-10025079D01*
X8083277Y-10025079D02*
X8092801Y-10006031D01*
X8092801Y-10006031D02*
X8102324Y-9996508D01*
X8102324Y-9996508D02*
X8121372Y-9986984D01*
X8273753Y-10167936D02*
X8283277Y-10177460D01*
X8283277Y-10177460D02*
X8273753Y-10186984D01*
X8273753Y-10186984D02*
X8264229Y-10177460D01*
X8264229Y-10177460D02*
X8273753Y-10167936D01*
X8273753Y-10167936D02*
X8273753Y-10186984D01*
X8378515Y-10186984D02*
X8416610Y-10186984D01*
X8416610Y-10186984D02*
X8435658Y-10177460D01*
X8435658Y-10177460D02*
X8445182Y-10167936D01*
X8445182Y-10167936D02*
X8464229Y-10139365D01*
X8464229Y-10139365D02*
X8473753Y-10101270D01*
X8473753Y-10101270D02*
X8473753Y-10025079D01*
X8473753Y-10025079D02*
X8464229Y-10006031D01*
X8464229Y-10006031D02*
X8454705Y-9996508D01*
X8454705Y-9996508D02*
X8435658Y-9986984D01*
X8435658Y-9986984D02*
X8397563Y-9986984D01*
X8397563Y-9986984D02*
X8378515Y-9996508D01*
X8378515Y-9996508D02*
X8368991Y-10006031D01*
X8368991Y-10006031D02*
X8359467Y-10025079D01*
X8359467Y-10025079D02*
X8359467Y-10072698D01*
X8359467Y-10072698D02*
X8368991Y-10091746D01*
X8368991Y-10091746D02*
X8378515Y-10101270D01*
X8378515Y-10101270D02*
X8397563Y-10110793D01*
X8397563Y-10110793D02*
X8435658Y-10110793D01*
X8435658Y-10110793D02*
X8454705Y-10101270D01*
X8454705Y-10101270D02*
X8464229Y-10091746D01*
X8464229Y-10091746D02*
X8473753Y-10072698D01*
X8597563Y-9986984D02*
X8616610Y-9986984D01*
X8616610Y-9986984D02*
X8635658Y-9996508D01*
X8635658Y-9996508D02*
X8645182Y-10006031D01*
X8645182Y-10006031D02*
X8654705Y-10025079D01*
X8654705Y-10025079D02*
X8664229Y-10063174D01*
X8664229Y-10063174D02*
X8664229Y-10110793D01*
X8664229Y-10110793D02*
X8654705Y-10148889D01*
X8654705Y-10148889D02*
X8645182Y-10167936D01*
X8645182Y-10167936D02*
X8635658Y-10177460D01*
X8635658Y-10177460D02*
X8616610Y-10186984D01*
X8616610Y-10186984D02*
X8597563Y-10186984D01*
X8597563Y-10186984D02*
X8578515Y-10177460D01*
X8578515Y-10177460D02*
X8568991Y-10167936D01*
X8568991Y-10167936D02*
X8559467Y-10148889D01*
X8559467Y-10148889D02*
X8549944Y-10110793D01*
X8549944Y-10110793D02*
X8549944Y-10063174D01*
X8549944Y-10063174D02*
X8559467Y-10025079D01*
X8559467Y-10025079D02*
X8568991Y-10006031D01*
X8568991Y-10006031D02*
X8578515Y-9996508D01*
X8578515Y-9996508D02*
X8597563Y-9986984D01*
X8788039Y-9986984D02*
X8807086Y-9986984D01*
X8807086Y-9986984D02*
X8826134Y-9996508D01*
X8826134Y-9996508D02*
X8835658Y-10006031D01*
X8835658Y-10006031D02*
X8845182Y-10025079D01*
X8845182Y-10025079D02*
X8854705Y-10063174D01*
X8854705Y-10063174D02*
X8854705Y-10110793D01*
X8854705Y-10110793D02*
X8845182Y-10148889D01*
X8845182Y-10148889D02*
X8835658Y-10167936D01*
X8835658Y-10167936D02*
X8826134Y-10177460D01*
X8826134Y-10177460D02*
X8807086Y-10186984D01*
X8807086Y-10186984D02*
X8788039Y-10186984D01*
X8788039Y-10186984D02*
X8768991Y-10177460D01*
X8768991Y-10177460D02*
X8759467Y-10167936D01*
X8759467Y-10167936D02*
X8749944Y-10148889D01*
X8749944Y-10148889D02*
X8740420Y-10110793D01*
X8740420Y-10110793D02*
X8740420Y-10063174D01*
X8740420Y-10063174D02*
X8749944Y-10025079D01*
X8749944Y-10025079D02*
X8759467Y-10006031D01*
X8759467Y-10006031D02*
X8768991Y-9996508D01*
X8768991Y-9996508D02*
X8788039Y-9986984D01*
X8940420Y-10186984D02*
X8940420Y-10053650D01*
X8940420Y-10072698D02*
X8949944Y-10063174D01*
X8949944Y-10063174D02*
X8968991Y-10053650D01*
X8968991Y-10053650D02*
X8997563Y-10053650D01*
X8997563Y-10053650D02*
X9016610Y-10063174D01*
X9016610Y-10063174D02*
X9026134Y-10082222D01*
X9026134Y-10082222D02*
X9026134Y-10186984D01*
X9026134Y-10082222D02*
X9035658Y-10063174D01*
X9035658Y-10063174D02*
X9054705Y-10053650D01*
X9054705Y-10053650D02*
X9083277Y-10053650D01*
X9083277Y-10053650D02*
X9102325Y-10063174D01*
X9102325Y-10063174D02*
X9111848Y-10082222D01*
X9111848Y-10082222D02*
X9111848Y-10186984D01*
X9207086Y-10186984D02*
X9207086Y-10053650D01*
X9207086Y-10072698D02*
X9216610Y-10063174D01*
X9216610Y-10063174D02*
X9235658Y-10053650D01*
X9235658Y-10053650D02*
X9264229Y-10053650D01*
X9264229Y-10053650D02*
X9283277Y-10063174D01*
X9283277Y-10063174D02*
X9292801Y-10082222D01*
X9292801Y-10082222D02*
X9292801Y-10186984D01*
X9292801Y-10082222D02*
X9302325Y-10063174D01*
X9302325Y-10063174D02*
X9321372Y-10053650D01*
X9321372Y-10053650D02*
X9349944Y-10053650D01*
X9349944Y-10053650D02*
X9368991Y-10063174D01*
X9368991Y-10063174D02*
X9378515Y-10082222D01*
X9378515Y-10082222D02*
X9378515Y-10186984D01*
X9768991Y-9977460D02*
X9597563Y-10234603D01*
X10026134Y-9986984D02*
X10045182Y-9986984D01*
X10045182Y-9986984D02*
X10064229Y-9996508D01*
X10064229Y-9996508D02*
X10073753Y-10006031D01*
X10073753Y-10006031D02*
X10083277Y-10025079D01*
X10083277Y-10025079D02*
X10092801Y-10063174D01*
X10092801Y-10063174D02*
X10092801Y-10110793D01*
X10092801Y-10110793D02*
X10083277Y-10148889D01*
X10083277Y-10148889D02*
X10073753Y-10167936D01*
X10073753Y-10167936D02*
X10064229Y-10177460D01*
X10064229Y-10177460D02*
X10045182Y-10186984D01*
X10045182Y-10186984D02*
X10026134Y-10186984D01*
X10026134Y-10186984D02*
X10007087Y-10177460D01*
X10007087Y-10177460D02*
X9997563Y-10167936D01*
X9997563Y-10167936D02*
X9988039Y-10148889D01*
X9988039Y-10148889D02*
X9978515Y-10110793D01*
X9978515Y-10110793D02*
X9978515Y-10063174D01*
X9978515Y-10063174D02*
X9988039Y-10025079D01*
X9988039Y-10025079D02*
X9997563Y-10006031D01*
X9997563Y-10006031D02*
X10007087Y-9996508D01*
X10007087Y-9996508D02*
X10026134Y-9986984D01*
X10178515Y-10167936D02*
X10188039Y-10177460D01*
X10188039Y-10177460D02*
X10178515Y-10186984D01*
X10178515Y-10186984D02*
X10168991Y-10177460D01*
X10168991Y-10177460D02*
X10178515Y-10167936D01*
X10178515Y-10167936D02*
X10178515Y-10186984D01*
X10311848Y-9986984D02*
X10330896Y-9986984D01*
X10330896Y-9986984D02*
X10349944Y-9996508D01*
X10349944Y-9996508D02*
X10359468Y-10006031D01*
X10359468Y-10006031D02*
X10368991Y-10025079D01*
X10368991Y-10025079D02*
X10378515Y-10063174D01*
X10378515Y-10063174D02*
X10378515Y-10110793D01*
X10378515Y-10110793D02*
X10368991Y-10148889D01*
X10368991Y-10148889D02*
X10359468Y-10167936D01*
X10359468Y-10167936D02*
X10349944Y-10177460D01*
X10349944Y-10177460D02*
X10330896Y-10186984D01*
X10330896Y-10186984D02*
X10311848Y-10186984D01*
X10311848Y-10186984D02*
X10292801Y-10177460D01*
X10292801Y-10177460D02*
X10283277Y-10167936D01*
X10283277Y-10167936D02*
X10273753Y-10148889D01*
X10273753Y-10148889D02*
X10264229Y-10110793D01*
X10264229Y-10110793D02*
X10264229Y-10063174D01*
X10264229Y-10063174D02*
X10273753Y-10025079D01*
X10273753Y-10025079D02*
X10283277Y-10006031D01*
X10283277Y-10006031D02*
X10292801Y-9996508D01*
X10292801Y-9996508D02*
X10311848Y-9986984D01*
X10445182Y-9986984D02*
X10568991Y-9986984D01*
X10568991Y-9986984D02*
X10502325Y-10063174D01*
X10502325Y-10063174D02*
X10530896Y-10063174D01*
X10530896Y-10063174D02*
X10549944Y-10072698D01*
X10549944Y-10072698D02*
X10559468Y-10082222D01*
X10559468Y-10082222D02*
X10568991Y-10101270D01*
X10568991Y-10101270D02*
X10568991Y-10148889D01*
X10568991Y-10148889D02*
X10559468Y-10167936D01*
X10559468Y-10167936D02*
X10549944Y-10177460D01*
X10549944Y-10177460D02*
X10530896Y-10186984D01*
X10530896Y-10186984D02*
X10473753Y-10186984D01*
X10473753Y-10186984D02*
X10454706Y-10177460D01*
X10454706Y-10177460D02*
X10445182Y-10167936D01*
X10749944Y-9986984D02*
X10654706Y-9986984D01*
X10654706Y-9986984D02*
X10645182Y-10082222D01*
X10645182Y-10082222D02*
X10654706Y-10072698D01*
X10654706Y-10072698D02*
X10673753Y-10063174D01*
X10673753Y-10063174D02*
X10721372Y-10063174D01*
X10721372Y-10063174D02*
X10740420Y-10072698D01*
X10740420Y-10072698D02*
X10749944Y-10082222D01*
X10749944Y-10082222D02*
X10759468Y-10101270D01*
X10759468Y-10101270D02*
X10759468Y-10148889D01*
X10759468Y-10148889D02*
X10749944Y-10167936D01*
X10749944Y-10167936D02*
X10740420Y-10177460D01*
X10740420Y-10177460D02*
X10721372Y-10186984D01*
X10721372Y-10186984D02*
X10673753Y-10186984D01*
X10673753Y-10186984D02*
X10654706Y-10177460D01*
X10654706Y-10177460D02*
X10645182Y-10167936D01*
X10930896Y-10053650D02*
X10930896Y-10186984D01*
X10883277Y-9977460D02*
X10835658Y-10120317D01*
X10835658Y-10120317D02*
X10959468Y-10120317D01*
X11026134Y-9986984D02*
X11026134Y-10025079D01*
X11102325Y-9986984D02*
X11102325Y-10025079D01*
X11397563Y-10263174D02*
X11388039Y-10253650D01*
X11388039Y-10253650D02*
X11368991Y-10225079D01*
X11368991Y-10225079D02*
X11359468Y-10206031D01*
X11359468Y-10206031D02*
X11349944Y-10177460D01*
X11349944Y-10177460D02*
X11340420Y-10129841D01*
X11340420Y-10129841D02*
X11340420Y-10091746D01*
X11340420Y-10091746D02*
X11349944Y-10044127D01*
X11349944Y-10044127D02*
X11359468Y-10015555D01*
X11359468Y-10015555D02*
X11368991Y-9996508D01*
X11368991Y-9996508D02*
X11388039Y-9967936D01*
X11388039Y-9967936D02*
X11397563Y-9958412D01*
X11511848Y-9986984D02*
X11530896Y-9986984D01*
X11530896Y-9986984D02*
X11549944Y-9996508D01*
X11549944Y-9996508D02*
X11559468Y-10006031D01*
X11559468Y-10006031D02*
X11568991Y-10025079D01*
X11568991Y-10025079D02*
X11578515Y-10063174D01*
X11578515Y-10063174D02*
X11578515Y-10110793D01*
X11578515Y-10110793D02*
X11568991Y-10148889D01*
X11568991Y-10148889D02*
X11559468Y-10167936D01*
X11559468Y-10167936D02*
X11549944Y-10177460D01*
X11549944Y-10177460D02*
X11530896Y-10186984D01*
X11530896Y-10186984D02*
X11511848Y-10186984D01*
X11511848Y-10186984D02*
X11492801Y-10177460D01*
X11492801Y-10177460D02*
X11483277Y-10167936D01*
X11483277Y-10167936D02*
X11473753Y-10148889D01*
X11473753Y-10148889D02*
X11464229Y-10110793D01*
X11464229Y-10110793D02*
X11464229Y-10063174D01*
X11464229Y-10063174D02*
X11473753Y-10025079D01*
X11473753Y-10025079D02*
X11483277Y-10006031D01*
X11483277Y-10006031D02*
X11492801Y-9996508D01*
X11492801Y-9996508D02*
X11511848Y-9986984D01*
X11816610Y-10186984D02*
X11816610Y-9986984D01*
X11902325Y-10186984D02*
X11902325Y-10082222D01*
X11902325Y-10082222D02*
X11892801Y-10063174D01*
X11892801Y-10063174D02*
X11873753Y-10053650D01*
X11873753Y-10053650D02*
X11845182Y-10053650D01*
X11845182Y-10053650D02*
X11826134Y-10063174D01*
X11826134Y-10063174D02*
X11816610Y-10072698D01*
X12026134Y-10186984D02*
X12007087Y-10177460D01*
X12007087Y-10177460D02*
X11997563Y-10167936D01*
X11997563Y-10167936D02*
X11988039Y-10148889D01*
X11988039Y-10148889D02*
X11988039Y-10091746D01*
X11988039Y-10091746D02*
X11997563Y-10072698D01*
X11997563Y-10072698D02*
X12007087Y-10063174D01*
X12007087Y-10063174D02*
X12026134Y-10053650D01*
X12026134Y-10053650D02*
X12054706Y-10053650D01*
X12054706Y-10053650D02*
X12073753Y-10063174D01*
X12073753Y-10063174D02*
X12083277Y-10072698D01*
X12083277Y-10072698D02*
X12092801Y-10091746D01*
X12092801Y-10091746D02*
X12092801Y-10148889D01*
X12092801Y-10148889D02*
X12083277Y-10167936D01*
X12083277Y-10167936D02*
X12073753Y-10177460D01*
X12073753Y-10177460D02*
X12054706Y-10186984D01*
X12054706Y-10186984D02*
X12026134Y-10186984D01*
X12207087Y-10186984D02*
X12188039Y-10177460D01*
X12188039Y-10177460D02*
X12178515Y-10158412D01*
X12178515Y-10158412D02*
X12178515Y-9986984D01*
X12359468Y-10177460D02*
X12340420Y-10186984D01*
X12340420Y-10186984D02*
X12302325Y-10186984D01*
X12302325Y-10186984D02*
X12283277Y-10177460D01*
X12283277Y-10177460D02*
X12273753Y-10158412D01*
X12273753Y-10158412D02*
X12273753Y-10082222D01*
X12273753Y-10082222D02*
X12283277Y-10063174D01*
X12283277Y-10063174D02*
X12302325Y-10053650D01*
X12302325Y-10053650D02*
X12340420Y-10053650D01*
X12340420Y-10053650D02*
X12359468Y-10063174D01*
X12359468Y-10063174D02*
X12368991Y-10082222D01*
X12368991Y-10082222D02*
X12368991Y-10101270D01*
X12368991Y-10101270D02*
X12273753Y-10120317D01*
X12445182Y-10177460D02*
X12464230Y-10186984D01*
X12464230Y-10186984D02*
X12502325Y-10186984D01*
X12502325Y-10186984D02*
X12521372Y-10177460D01*
X12521372Y-10177460D02*
X12530896Y-10158412D01*
X12530896Y-10158412D02*
X12530896Y-10148889D01*
X12530896Y-10148889D02*
X12521372Y-10129841D01*
X12521372Y-10129841D02*
X12502325Y-10120317D01*
X12502325Y-10120317D02*
X12473753Y-10120317D01*
X12473753Y-10120317D02*
X12454706Y-10110793D01*
X12454706Y-10110793D02*
X12445182Y-10091746D01*
X12445182Y-10091746D02*
X12445182Y-10082222D01*
X12445182Y-10082222D02*
X12454706Y-10063174D01*
X12454706Y-10063174D02*
X12473753Y-10053650D01*
X12473753Y-10053650D02*
X12502325Y-10053650D01*
X12502325Y-10053650D02*
X12521372Y-10063174D01*
X12768992Y-10110793D02*
X12921373Y-10110793D01*
X12845182Y-10186984D02*
X12845182Y-10034603D01*
X13273753Y-10186984D02*
X13159468Y-10186984D01*
X13216611Y-10186984D02*
X13216611Y-9986984D01*
X13216611Y-9986984D02*
X13197563Y-10015555D01*
X13197563Y-10015555D02*
X13178515Y-10034603D01*
X13178515Y-10034603D02*
X13159468Y-10044127D01*
X13349944Y-10006031D02*
X13359468Y-9996508D01*
X13359468Y-9996508D02*
X13378515Y-9986984D01*
X13378515Y-9986984D02*
X13426134Y-9986984D01*
X13426134Y-9986984D02*
X13445182Y-9996508D01*
X13445182Y-9996508D02*
X13454706Y-10006031D01*
X13454706Y-10006031D02*
X13464230Y-10025079D01*
X13464230Y-10025079D02*
X13464230Y-10044127D01*
X13464230Y-10044127D02*
X13454706Y-10072698D01*
X13454706Y-10072698D02*
X13340420Y-10186984D01*
X13340420Y-10186984D02*
X13464230Y-10186984D01*
X13692801Y-10177460D02*
X13711849Y-10186984D01*
X13711849Y-10186984D02*
X13749944Y-10186984D01*
X13749944Y-10186984D02*
X13768992Y-10177460D01*
X13768992Y-10177460D02*
X13778515Y-10158412D01*
X13778515Y-10158412D02*
X13778515Y-10148889D01*
X13778515Y-10148889D02*
X13768992Y-10129841D01*
X13768992Y-10129841D02*
X13749944Y-10120317D01*
X13749944Y-10120317D02*
X13721373Y-10120317D01*
X13721373Y-10120317D02*
X13702325Y-10110793D01*
X13702325Y-10110793D02*
X13692801Y-10091746D01*
X13692801Y-10091746D02*
X13692801Y-10082222D01*
X13692801Y-10082222D02*
X13702325Y-10063174D01*
X13702325Y-10063174D02*
X13721373Y-10053650D01*
X13721373Y-10053650D02*
X13749944Y-10053650D01*
X13749944Y-10053650D02*
X13768992Y-10063174D01*
X13892801Y-10186984D02*
X13873754Y-10177460D01*
X13873754Y-10177460D02*
X13864230Y-10158412D01*
X13864230Y-10158412D02*
X13864230Y-9986984D01*
X13997563Y-10186984D02*
X13978515Y-10177460D01*
X13978515Y-10177460D02*
X13968992Y-10167936D01*
X13968992Y-10167936D02*
X13959468Y-10148889D01*
X13959468Y-10148889D02*
X13959468Y-10091746D01*
X13959468Y-10091746D02*
X13968992Y-10072698D01*
X13968992Y-10072698D02*
X13978515Y-10063174D01*
X13978515Y-10063174D02*
X13997563Y-10053650D01*
X13997563Y-10053650D02*
X14026135Y-10053650D01*
X14026135Y-10053650D02*
X14045182Y-10063174D01*
X14045182Y-10063174D02*
X14054706Y-10072698D01*
X14054706Y-10072698D02*
X14064230Y-10091746D01*
X14064230Y-10091746D02*
X14064230Y-10148889D01*
X14064230Y-10148889D02*
X14054706Y-10167936D01*
X14054706Y-10167936D02*
X14045182Y-10177460D01*
X14045182Y-10177460D02*
X14026135Y-10186984D01*
X14026135Y-10186984D02*
X13997563Y-10186984D01*
X14121373Y-10053650D02*
X14197563Y-10053650D01*
X14149944Y-9986984D02*
X14149944Y-10158412D01*
X14149944Y-10158412D02*
X14159468Y-10177460D01*
X14159468Y-10177460D02*
X14178515Y-10186984D01*
X14178515Y-10186984D02*
X14197563Y-10186984D01*
X14254706Y-10177460D02*
X14273754Y-10186984D01*
X14273754Y-10186984D02*
X14311849Y-10186984D01*
X14311849Y-10186984D02*
X14330896Y-10177460D01*
X14330896Y-10177460D02*
X14340420Y-10158412D01*
X14340420Y-10158412D02*
X14340420Y-10148889D01*
X14340420Y-10148889D02*
X14330896Y-10129841D01*
X14330896Y-10129841D02*
X14311849Y-10120317D01*
X14311849Y-10120317D02*
X14283277Y-10120317D01*
X14283277Y-10120317D02*
X14264230Y-10110793D01*
X14264230Y-10110793D02*
X14254706Y-10091746D01*
X14254706Y-10091746D02*
X14254706Y-10082222D01*
X14254706Y-10082222D02*
X14264230Y-10063174D01*
X14264230Y-10063174D02*
X14283277Y-10053650D01*
X14283277Y-10053650D02*
X14311849Y-10053650D01*
X14311849Y-10053650D02*
X14330896Y-10063174D01*
X14407087Y-10263174D02*
X14416611Y-10253650D01*
X14416611Y-10253650D02*
X14435658Y-10225079D01*
X14435658Y-10225079D02*
X14445182Y-10206031D01*
X14445182Y-10206031D02*
X14454706Y-10177460D01*
X14454706Y-10177460D02*
X14464230Y-10129841D01*
X14464230Y-10129841D02*
X14464230Y-10091746D01*
X14464230Y-10091746D02*
X14454706Y-10044127D01*
X14454706Y-10044127D02*
X14445182Y-10015555D01*
X14445182Y-10015555D02*
X14435658Y-9996508D01*
X14435658Y-9996508D02*
X14416611Y-9967936D01*
X14416611Y-9967936D02*
X14407087Y-9958412D01*
D12*
X7807856Y-10394856D02*
X7807856Y-10324144D01*
X7737144Y-10324144D01*
X7737144Y-10394856D01*
X7807856Y-10394856D01*
D11*
X8188039Y-10450984D02*
X8073753Y-10450984D01*
X8130896Y-10450984D02*
X8130896Y-10250984D01*
X8130896Y-10250984D02*
X8111848Y-10279555D01*
X8111848Y-10279555D02*
X8092801Y-10298603D01*
X8092801Y-10298603D02*
X8073753Y-10308127D01*
X8273753Y-10431936D02*
X8283277Y-10441460D01*
X8283277Y-10441460D02*
X8273753Y-10450984D01*
X8273753Y-10450984D02*
X8264229Y-10441460D01*
X8264229Y-10441460D02*
X8273753Y-10431936D01*
X8273753Y-10431936D02*
X8273753Y-10450984D01*
X8407086Y-10250984D02*
X8426134Y-10250984D01*
X8426134Y-10250984D02*
X8445182Y-10260508D01*
X8445182Y-10260508D02*
X8454705Y-10270031D01*
X8454705Y-10270031D02*
X8464229Y-10289079D01*
X8464229Y-10289079D02*
X8473753Y-10327174D01*
X8473753Y-10327174D02*
X8473753Y-10374793D01*
X8473753Y-10374793D02*
X8464229Y-10412889D01*
X8464229Y-10412889D02*
X8454705Y-10431936D01*
X8454705Y-10431936D02*
X8445182Y-10441460D01*
X8445182Y-10441460D02*
X8426134Y-10450984D01*
X8426134Y-10450984D02*
X8407086Y-10450984D01*
X8407086Y-10450984D02*
X8388039Y-10441460D01*
X8388039Y-10441460D02*
X8378515Y-10431936D01*
X8378515Y-10431936D02*
X8368991Y-10412889D01*
X8368991Y-10412889D02*
X8359467Y-10374793D01*
X8359467Y-10374793D02*
X8359467Y-10327174D01*
X8359467Y-10327174D02*
X8368991Y-10289079D01*
X8368991Y-10289079D02*
X8378515Y-10270031D01*
X8378515Y-10270031D02*
X8388039Y-10260508D01*
X8388039Y-10260508D02*
X8407086Y-10250984D01*
X8597563Y-10250984D02*
X8616610Y-10250984D01*
X8616610Y-10250984D02*
X8635658Y-10260508D01*
X8635658Y-10260508D02*
X8645182Y-10270031D01*
X8645182Y-10270031D02*
X8654705Y-10289079D01*
X8654705Y-10289079D02*
X8664229Y-10327174D01*
X8664229Y-10327174D02*
X8664229Y-10374793D01*
X8664229Y-10374793D02*
X8654705Y-10412889D01*
X8654705Y-10412889D02*
X8645182Y-10431936D01*
X8645182Y-10431936D02*
X8635658Y-10441460D01*
X8635658Y-10441460D02*
X8616610Y-10450984D01*
X8616610Y-10450984D02*
X8597563Y-10450984D01*
X8597563Y-10450984D02*
X8578515Y-10441460D01*
X8578515Y-10441460D02*
X8568991Y-10431936D01*
X8568991Y-10431936D02*
X8559467Y-10412889D01*
X8559467Y-10412889D02*
X8549944Y-10374793D01*
X8549944Y-10374793D02*
X8549944Y-10327174D01*
X8549944Y-10327174D02*
X8559467Y-10289079D01*
X8559467Y-10289079D02*
X8568991Y-10270031D01*
X8568991Y-10270031D02*
X8578515Y-10260508D01*
X8578515Y-10260508D02*
X8597563Y-10250984D01*
X8788039Y-10250984D02*
X8807086Y-10250984D01*
X8807086Y-10250984D02*
X8826134Y-10260508D01*
X8826134Y-10260508D02*
X8835658Y-10270031D01*
X8835658Y-10270031D02*
X8845182Y-10289079D01*
X8845182Y-10289079D02*
X8854705Y-10327174D01*
X8854705Y-10327174D02*
X8854705Y-10374793D01*
X8854705Y-10374793D02*
X8845182Y-10412889D01*
X8845182Y-10412889D02*
X8835658Y-10431936D01*
X8835658Y-10431936D02*
X8826134Y-10441460D01*
X8826134Y-10441460D02*
X8807086Y-10450984D01*
X8807086Y-10450984D02*
X8788039Y-10450984D01*
X8788039Y-10450984D02*
X8768991Y-10441460D01*
X8768991Y-10441460D02*
X8759467Y-10431936D01*
X8759467Y-10431936D02*
X8749944Y-10412889D01*
X8749944Y-10412889D02*
X8740420Y-10374793D01*
X8740420Y-10374793D02*
X8740420Y-10327174D01*
X8740420Y-10327174D02*
X8749944Y-10289079D01*
X8749944Y-10289079D02*
X8759467Y-10270031D01*
X8759467Y-10270031D02*
X8768991Y-10260508D01*
X8768991Y-10260508D02*
X8788039Y-10250984D01*
X8940420Y-10450984D02*
X8940420Y-10317650D01*
X8940420Y-10336698D02*
X8949944Y-10327174D01*
X8949944Y-10327174D02*
X8968991Y-10317650D01*
X8968991Y-10317650D02*
X8997563Y-10317650D01*
X8997563Y-10317650D02*
X9016610Y-10327174D01*
X9016610Y-10327174D02*
X9026134Y-10346222D01*
X9026134Y-10346222D02*
X9026134Y-10450984D01*
X9026134Y-10346222D02*
X9035658Y-10327174D01*
X9035658Y-10327174D02*
X9054705Y-10317650D01*
X9054705Y-10317650D02*
X9083277Y-10317650D01*
X9083277Y-10317650D02*
X9102325Y-10327174D01*
X9102325Y-10327174D02*
X9111848Y-10346222D01*
X9111848Y-10346222D02*
X9111848Y-10450984D01*
X9207086Y-10450984D02*
X9207086Y-10317650D01*
X9207086Y-10336698D02*
X9216610Y-10327174D01*
X9216610Y-10327174D02*
X9235658Y-10317650D01*
X9235658Y-10317650D02*
X9264229Y-10317650D01*
X9264229Y-10317650D02*
X9283277Y-10327174D01*
X9283277Y-10327174D02*
X9292801Y-10346222D01*
X9292801Y-10346222D02*
X9292801Y-10450984D01*
X9292801Y-10346222D02*
X9302325Y-10327174D01*
X9302325Y-10327174D02*
X9321372Y-10317650D01*
X9321372Y-10317650D02*
X9349944Y-10317650D01*
X9349944Y-10317650D02*
X9368991Y-10327174D01*
X9368991Y-10327174D02*
X9378515Y-10346222D01*
X9378515Y-10346222D02*
X9378515Y-10450984D01*
X9768991Y-10241460D02*
X9597563Y-10498603D01*
X10026134Y-10250984D02*
X10045182Y-10250984D01*
X10045182Y-10250984D02*
X10064229Y-10260508D01*
X10064229Y-10260508D02*
X10073753Y-10270031D01*
X10073753Y-10270031D02*
X10083277Y-10289079D01*
X10083277Y-10289079D02*
X10092801Y-10327174D01*
X10092801Y-10327174D02*
X10092801Y-10374793D01*
X10092801Y-10374793D02*
X10083277Y-10412889D01*
X10083277Y-10412889D02*
X10073753Y-10431936D01*
X10073753Y-10431936D02*
X10064229Y-10441460D01*
X10064229Y-10441460D02*
X10045182Y-10450984D01*
X10045182Y-10450984D02*
X10026134Y-10450984D01*
X10026134Y-10450984D02*
X10007087Y-10441460D01*
X10007087Y-10441460D02*
X9997563Y-10431936D01*
X9997563Y-10431936D02*
X9988039Y-10412889D01*
X9988039Y-10412889D02*
X9978515Y-10374793D01*
X9978515Y-10374793D02*
X9978515Y-10327174D01*
X9978515Y-10327174D02*
X9988039Y-10289079D01*
X9988039Y-10289079D02*
X9997563Y-10270031D01*
X9997563Y-10270031D02*
X10007087Y-10260508D01*
X10007087Y-10260508D02*
X10026134Y-10250984D01*
X10178515Y-10431936D02*
X10188039Y-10441460D01*
X10188039Y-10441460D02*
X10178515Y-10450984D01*
X10178515Y-10450984D02*
X10168991Y-10441460D01*
X10168991Y-10441460D02*
X10178515Y-10431936D01*
X10178515Y-10431936D02*
X10178515Y-10450984D01*
X10311848Y-10250984D02*
X10330896Y-10250984D01*
X10330896Y-10250984D02*
X10349944Y-10260508D01*
X10349944Y-10260508D02*
X10359468Y-10270031D01*
X10359468Y-10270031D02*
X10368991Y-10289079D01*
X10368991Y-10289079D02*
X10378515Y-10327174D01*
X10378515Y-10327174D02*
X10378515Y-10374793D01*
X10378515Y-10374793D02*
X10368991Y-10412889D01*
X10368991Y-10412889D02*
X10359468Y-10431936D01*
X10359468Y-10431936D02*
X10349944Y-10441460D01*
X10349944Y-10441460D02*
X10330896Y-10450984D01*
X10330896Y-10450984D02*
X10311848Y-10450984D01*
X10311848Y-10450984D02*
X10292801Y-10441460D01*
X10292801Y-10441460D02*
X10283277Y-10431936D01*
X10283277Y-10431936D02*
X10273753Y-10412889D01*
X10273753Y-10412889D02*
X10264229Y-10374793D01*
X10264229Y-10374793D02*
X10264229Y-10327174D01*
X10264229Y-10327174D02*
X10273753Y-10289079D01*
X10273753Y-10289079D02*
X10283277Y-10270031D01*
X10283277Y-10270031D02*
X10292801Y-10260508D01*
X10292801Y-10260508D02*
X10311848Y-10250984D01*
X10445182Y-10250984D02*
X10568991Y-10250984D01*
X10568991Y-10250984D02*
X10502325Y-10327174D01*
X10502325Y-10327174D02*
X10530896Y-10327174D01*
X10530896Y-10327174D02*
X10549944Y-10336698D01*
X10549944Y-10336698D02*
X10559468Y-10346222D01*
X10559468Y-10346222D02*
X10568991Y-10365270D01*
X10568991Y-10365270D02*
X10568991Y-10412889D01*
X10568991Y-10412889D02*
X10559468Y-10431936D01*
X10559468Y-10431936D02*
X10549944Y-10441460D01*
X10549944Y-10441460D02*
X10530896Y-10450984D01*
X10530896Y-10450984D02*
X10473753Y-10450984D01*
X10473753Y-10450984D02*
X10454706Y-10441460D01*
X10454706Y-10441460D02*
X10445182Y-10431936D01*
X10664229Y-10450984D02*
X10702325Y-10450984D01*
X10702325Y-10450984D02*
X10721372Y-10441460D01*
X10721372Y-10441460D02*
X10730896Y-10431936D01*
X10730896Y-10431936D02*
X10749944Y-10403365D01*
X10749944Y-10403365D02*
X10759468Y-10365270D01*
X10759468Y-10365270D02*
X10759468Y-10289079D01*
X10759468Y-10289079D02*
X10749944Y-10270031D01*
X10749944Y-10270031D02*
X10740420Y-10260508D01*
X10740420Y-10260508D02*
X10721372Y-10250984D01*
X10721372Y-10250984D02*
X10683277Y-10250984D01*
X10683277Y-10250984D02*
X10664229Y-10260508D01*
X10664229Y-10260508D02*
X10654706Y-10270031D01*
X10654706Y-10270031D02*
X10645182Y-10289079D01*
X10645182Y-10289079D02*
X10645182Y-10336698D01*
X10645182Y-10336698D02*
X10654706Y-10355746D01*
X10654706Y-10355746D02*
X10664229Y-10365270D01*
X10664229Y-10365270D02*
X10683277Y-10374793D01*
X10683277Y-10374793D02*
X10721372Y-10374793D01*
X10721372Y-10374793D02*
X10740420Y-10365270D01*
X10740420Y-10365270D02*
X10749944Y-10355746D01*
X10749944Y-10355746D02*
X10759468Y-10336698D01*
X10930896Y-10317650D02*
X10930896Y-10450984D01*
X10883277Y-10241460D02*
X10835658Y-10384317D01*
X10835658Y-10384317D02*
X10959468Y-10384317D01*
X11026134Y-10250984D02*
X11026134Y-10289079D01*
X11102325Y-10250984D02*
X11102325Y-10289079D01*
X11397563Y-10527174D02*
X11388039Y-10517650D01*
X11388039Y-10517650D02*
X11368991Y-10489079D01*
X11368991Y-10489079D02*
X11359468Y-10470031D01*
X11359468Y-10470031D02*
X11349944Y-10441460D01*
X11349944Y-10441460D02*
X11340420Y-10393841D01*
X11340420Y-10393841D02*
X11340420Y-10355746D01*
X11340420Y-10355746D02*
X11349944Y-10308127D01*
X11349944Y-10308127D02*
X11359468Y-10279555D01*
X11359468Y-10279555D02*
X11368991Y-10260508D01*
X11368991Y-10260508D02*
X11388039Y-10231936D01*
X11388039Y-10231936D02*
X11397563Y-10222412D01*
X11464229Y-10270031D02*
X11473753Y-10260508D01*
X11473753Y-10260508D02*
X11492801Y-10250984D01*
X11492801Y-10250984D02*
X11540420Y-10250984D01*
X11540420Y-10250984D02*
X11559468Y-10260508D01*
X11559468Y-10260508D02*
X11568991Y-10270031D01*
X11568991Y-10270031D02*
X11578515Y-10289079D01*
X11578515Y-10289079D02*
X11578515Y-10308127D01*
X11578515Y-10308127D02*
X11568991Y-10336698D01*
X11568991Y-10336698D02*
X11454706Y-10450984D01*
X11454706Y-10450984D02*
X11578515Y-10450984D01*
X11816610Y-10450984D02*
X11816610Y-10250984D01*
X11902325Y-10450984D02*
X11902325Y-10346222D01*
X11902325Y-10346222D02*
X11892801Y-10327174D01*
X11892801Y-10327174D02*
X11873753Y-10317650D01*
X11873753Y-10317650D02*
X11845182Y-10317650D01*
X11845182Y-10317650D02*
X11826134Y-10327174D01*
X11826134Y-10327174D02*
X11816610Y-10336698D01*
X12026134Y-10450984D02*
X12007087Y-10441460D01*
X12007087Y-10441460D02*
X11997563Y-10431936D01*
X11997563Y-10431936D02*
X11988039Y-10412889D01*
X11988039Y-10412889D02*
X11988039Y-10355746D01*
X11988039Y-10355746D02*
X11997563Y-10336698D01*
X11997563Y-10336698D02*
X12007087Y-10327174D01*
X12007087Y-10327174D02*
X12026134Y-10317650D01*
X12026134Y-10317650D02*
X12054706Y-10317650D01*
X12054706Y-10317650D02*
X12073753Y-10327174D01*
X12073753Y-10327174D02*
X12083277Y-10336698D01*
X12083277Y-10336698D02*
X12092801Y-10355746D01*
X12092801Y-10355746D02*
X12092801Y-10412889D01*
X12092801Y-10412889D02*
X12083277Y-10431936D01*
X12083277Y-10431936D02*
X12073753Y-10441460D01*
X12073753Y-10441460D02*
X12054706Y-10450984D01*
X12054706Y-10450984D02*
X12026134Y-10450984D01*
X12207087Y-10450984D02*
X12188039Y-10441460D01*
X12188039Y-10441460D02*
X12178515Y-10422412D01*
X12178515Y-10422412D02*
X12178515Y-10250984D01*
X12359468Y-10441460D02*
X12340420Y-10450984D01*
X12340420Y-10450984D02*
X12302325Y-10450984D01*
X12302325Y-10450984D02*
X12283277Y-10441460D01*
X12283277Y-10441460D02*
X12273753Y-10422412D01*
X12273753Y-10422412D02*
X12273753Y-10346222D01*
X12273753Y-10346222D02*
X12283277Y-10327174D01*
X12283277Y-10327174D02*
X12302325Y-10317650D01*
X12302325Y-10317650D02*
X12340420Y-10317650D01*
X12340420Y-10317650D02*
X12359468Y-10327174D01*
X12359468Y-10327174D02*
X12368991Y-10346222D01*
X12368991Y-10346222D02*
X12368991Y-10365270D01*
X12368991Y-10365270D02*
X12273753Y-10384317D01*
X12445182Y-10441460D02*
X12464230Y-10450984D01*
X12464230Y-10450984D02*
X12502325Y-10450984D01*
X12502325Y-10450984D02*
X12521372Y-10441460D01*
X12521372Y-10441460D02*
X12530896Y-10422412D01*
X12530896Y-10422412D02*
X12530896Y-10412889D01*
X12530896Y-10412889D02*
X12521372Y-10393841D01*
X12521372Y-10393841D02*
X12502325Y-10384317D01*
X12502325Y-10384317D02*
X12473753Y-10384317D01*
X12473753Y-10384317D02*
X12454706Y-10374793D01*
X12454706Y-10374793D02*
X12445182Y-10355746D01*
X12445182Y-10355746D02*
X12445182Y-10346222D01*
X12445182Y-10346222D02*
X12454706Y-10327174D01*
X12454706Y-10327174D02*
X12473753Y-10317650D01*
X12473753Y-10317650D02*
X12502325Y-10317650D01*
X12502325Y-10317650D02*
X12521372Y-10327174D01*
X12597563Y-10527174D02*
X12607087Y-10517650D01*
X12607087Y-10517650D02*
X12626134Y-10489079D01*
X12626134Y-10489079D02*
X12635658Y-10470031D01*
X12635658Y-10470031D02*
X12645182Y-10441460D01*
X12645182Y-10441460D02*
X12654706Y-10393841D01*
X12654706Y-10393841D02*
X12654706Y-10355746D01*
X12654706Y-10355746D02*
X12645182Y-10308127D01*
X12645182Y-10308127D02*
X12635658Y-10279555D01*
X12635658Y-10279555D02*
X12626134Y-10260508D01*
X12626134Y-10260508D02*
X12607087Y-10231936D01*
X12607087Y-10231936D02*
X12597563Y-10222412D01*
D13*
X7762500Y-10683500D02*
X7822500Y-10623500D01*
X7762500Y-10563500D01*
X7702500Y-10623500D01*
X7762500Y-10683500D01*
D11*
X8188039Y-10714984D02*
X8073753Y-10714984D01*
X8130896Y-10714984D02*
X8130896Y-10514984D01*
X8130896Y-10514984D02*
X8111848Y-10543555D01*
X8111848Y-10543555D02*
X8092801Y-10562603D01*
X8092801Y-10562603D02*
X8073753Y-10572127D01*
X8273753Y-10695936D02*
X8283277Y-10705460D01*
X8283277Y-10705460D02*
X8273753Y-10714984D01*
X8273753Y-10714984D02*
X8264229Y-10705460D01*
X8264229Y-10705460D02*
X8273753Y-10695936D01*
X8273753Y-10695936D02*
X8273753Y-10714984D01*
X8359467Y-10534031D02*
X8368991Y-10524508D01*
X8368991Y-10524508D02*
X8388039Y-10514984D01*
X8388039Y-10514984D02*
X8435658Y-10514984D01*
X8435658Y-10514984D02*
X8454705Y-10524508D01*
X8454705Y-10524508D02*
X8464229Y-10534031D01*
X8464229Y-10534031D02*
X8473753Y-10553079D01*
X8473753Y-10553079D02*
X8473753Y-10572127D01*
X8473753Y-10572127D02*
X8464229Y-10600698D01*
X8464229Y-10600698D02*
X8349943Y-10714984D01*
X8349943Y-10714984D02*
X8473753Y-10714984D01*
X8597563Y-10514984D02*
X8616610Y-10514984D01*
X8616610Y-10514984D02*
X8635658Y-10524508D01*
X8635658Y-10524508D02*
X8645182Y-10534031D01*
X8645182Y-10534031D02*
X8654705Y-10553079D01*
X8654705Y-10553079D02*
X8664229Y-10591174D01*
X8664229Y-10591174D02*
X8664229Y-10638793D01*
X8664229Y-10638793D02*
X8654705Y-10676889D01*
X8654705Y-10676889D02*
X8645182Y-10695936D01*
X8645182Y-10695936D02*
X8635658Y-10705460D01*
X8635658Y-10705460D02*
X8616610Y-10714984D01*
X8616610Y-10714984D02*
X8597563Y-10714984D01*
X8597563Y-10714984D02*
X8578515Y-10705460D01*
X8578515Y-10705460D02*
X8568991Y-10695936D01*
X8568991Y-10695936D02*
X8559467Y-10676889D01*
X8559467Y-10676889D02*
X8549944Y-10638793D01*
X8549944Y-10638793D02*
X8549944Y-10591174D01*
X8549944Y-10591174D02*
X8559467Y-10553079D01*
X8559467Y-10553079D02*
X8568991Y-10534031D01*
X8568991Y-10534031D02*
X8578515Y-10524508D01*
X8578515Y-10524508D02*
X8597563Y-10514984D01*
X8788039Y-10514984D02*
X8807086Y-10514984D01*
X8807086Y-10514984D02*
X8826134Y-10524508D01*
X8826134Y-10524508D02*
X8835658Y-10534031D01*
X8835658Y-10534031D02*
X8845182Y-10553079D01*
X8845182Y-10553079D02*
X8854705Y-10591174D01*
X8854705Y-10591174D02*
X8854705Y-10638793D01*
X8854705Y-10638793D02*
X8845182Y-10676889D01*
X8845182Y-10676889D02*
X8835658Y-10695936D01*
X8835658Y-10695936D02*
X8826134Y-10705460D01*
X8826134Y-10705460D02*
X8807086Y-10714984D01*
X8807086Y-10714984D02*
X8788039Y-10714984D01*
X8788039Y-10714984D02*
X8768991Y-10705460D01*
X8768991Y-10705460D02*
X8759467Y-10695936D01*
X8759467Y-10695936D02*
X8749944Y-10676889D01*
X8749944Y-10676889D02*
X8740420Y-10638793D01*
X8740420Y-10638793D02*
X8740420Y-10591174D01*
X8740420Y-10591174D02*
X8749944Y-10553079D01*
X8749944Y-10553079D02*
X8759467Y-10534031D01*
X8759467Y-10534031D02*
X8768991Y-10524508D01*
X8768991Y-10524508D02*
X8788039Y-10514984D01*
X8940420Y-10714984D02*
X8940420Y-10581650D01*
X8940420Y-10600698D02*
X8949944Y-10591174D01*
X8949944Y-10591174D02*
X8968991Y-10581650D01*
X8968991Y-10581650D02*
X8997563Y-10581650D01*
X8997563Y-10581650D02*
X9016610Y-10591174D01*
X9016610Y-10591174D02*
X9026134Y-10610222D01*
X9026134Y-10610222D02*
X9026134Y-10714984D01*
X9026134Y-10610222D02*
X9035658Y-10591174D01*
X9035658Y-10591174D02*
X9054705Y-10581650D01*
X9054705Y-10581650D02*
X9083277Y-10581650D01*
X9083277Y-10581650D02*
X9102325Y-10591174D01*
X9102325Y-10591174D02*
X9111848Y-10610222D01*
X9111848Y-10610222D02*
X9111848Y-10714984D01*
X9207086Y-10714984D02*
X9207086Y-10581650D01*
X9207086Y-10600698D02*
X9216610Y-10591174D01*
X9216610Y-10591174D02*
X9235658Y-10581650D01*
X9235658Y-10581650D02*
X9264229Y-10581650D01*
X9264229Y-10581650D02*
X9283277Y-10591174D01*
X9283277Y-10591174D02*
X9292801Y-10610222D01*
X9292801Y-10610222D02*
X9292801Y-10714984D01*
X9292801Y-10610222D02*
X9302325Y-10591174D01*
X9302325Y-10591174D02*
X9321372Y-10581650D01*
X9321372Y-10581650D02*
X9349944Y-10581650D01*
X9349944Y-10581650D02*
X9368991Y-10591174D01*
X9368991Y-10591174D02*
X9378515Y-10610222D01*
X9378515Y-10610222D02*
X9378515Y-10714984D01*
X9768991Y-10505460D02*
X9597563Y-10762603D01*
X10026134Y-10514984D02*
X10045182Y-10514984D01*
X10045182Y-10514984D02*
X10064229Y-10524508D01*
X10064229Y-10524508D02*
X10073753Y-10534031D01*
X10073753Y-10534031D02*
X10083277Y-10553079D01*
X10083277Y-10553079D02*
X10092801Y-10591174D01*
X10092801Y-10591174D02*
X10092801Y-10638793D01*
X10092801Y-10638793D02*
X10083277Y-10676889D01*
X10083277Y-10676889D02*
X10073753Y-10695936D01*
X10073753Y-10695936D02*
X10064229Y-10705460D01*
X10064229Y-10705460D02*
X10045182Y-10714984D01*
X10045182Y-10714984D02*
X10026134Y-10714984D01*
X10026134Y-10714984D02*
X10007087Y-10705460D01*
X10007087Y-10705460D02*
X9997563Y-10695936D01*
X9997563Y-10695936D02*
X9988039Y-10676889D01*
X9988039Y-10676889D02*
X9978515Y-10638793D01*
X9978515Y-10638793D02*
X9978515Y-10591174D01*
X9978515Y-10591174D02*
X9988039Y-10553079D01*
X9988039Y-10553079D02*
X9997563Y-10534031D01*
X9997563Y-10534031D02*
X10007087Y-10524508D01*
X10007087Y-10524508D02*
X10026134Y-10514984D01*
X10178515Y-10695936D02*
X10188039Y-10705460D01*
X10188039Y-10705460D02*
X10178515Y-10714984D01*
X10178515Y-10714984D02*
X10168991Y-10705460D01*
X10168991Y-10705460D02*
X10178515Y-10695936D01*
X10178515Y-10695936D02*
X10178515Y-10714984D01*
X10311848Y-10514984D02*
X10330896Y-10514984D01*
X10330896Y-10514984D02*
X10349944Y-10524508D01*
X10349944Y-10524508D02*
X10359468Y-10534031D01*
X10359468Y-10534031D02*
X10368991Y-10553079D01*
X10368991Y-10553079D02*
X10378515Y-10591174D01*
X10378515Y-10591174D02*
X10378515Y-10638793D01*
X10378515Y-10638793D02*
X10368991Y-10676889D01*
X10368991Y-10676889D02*
X10359468Y-10695936D01*
X10359468Y-10695936D02*
X10349944Y-10705460D01*
X10349944Y-10705460D02*
X10330896Y-10714984D01*
X10330896Y-10714984D02*
X10311848Y-10714984D01*
X10311848Y-10714984D02*
X10292801Y-10705460D01*
X10292801Y-10705460D02*
X10283277Y-10695936D01*
X10283277Y-10695936D02*
X10273753Y-10676889D01*
X10273753Y-10676889D02*
X10264229Y-10638793D01*
X10264229Y-10638793D02*
X10264229Y-10591174D01*
X10264229Y-10591174D02*
X10273753Y-10553079D01*
X10273753Y-10553079D02*
X10283277Y-10534031D01*
X10283277Y-10534031D02*
X10292801Y-10524508D01*
X10292801Y-10524508D02*
X10311848Y-10514984D01*
X10549944Y-10581650D02*
X10549944Y-10714984D01*
X10502325Y-10505460D02*
X10454706Y-10648317D01*
X10454706Y-10648317D02*
X10578515Y-10648317D01*
X10635658Y-10514984D02*
X10768991Y-10514984D01*
X10768991Y-10514984D02*
X10683277Y-10714984D01*
X10835658Y-10534031D02*
X10845182Y-10524508D01*
X10845182Y-10524508D02*
X10864229Y-10514984D01*
X10864229Y-10514984D02*
X10911849Y-10514984D01*
X10911849Y-10514984D02*
X10930896Y-10524508D01*
X10930896Y-10524508D02*
X10940420Y-10534031D01*
X10940420Y-10534031D02*
X10949944Y-10553079D01*
X10949944Y-10553079D02*
X10949944Y-10572127D01*
X10949944Y-10572127D02*
X10940420Y-10600698D01*
X10940420Y-10600698D02*
X10826134Y-10714984D01*
X10826134Y-10714984D02*
X10949944Y-10714984D01*
X11026134Y-10514984D02*
X11026134Y-10553079D01*
X11102325Y-10514984D02*
X11102325Y-10553079D01*
X11397563Y-10791174D02*
X11388039Y-10781650D01*
X11388039Y-10781650D02*
X11368991Y-10753079D01*
X11368991Y-10753079D02*
X11359468Y-10734031D01*
X11359468Y-10734031D02*
X11349944Y-10705460D01*
X11349944Y-10705460D02*
X11340420Y-10657841D01*
X11340420Y-10657841D02*
X11340420Y-10619746D01*
X11340420Y-10619746D02*
X11349944Y-10572127D01*
X11349944Y-10572127D02*
X11359468Y-10543555D01*
X11359468Y-10543555D02*
X11368991Y-10524508D01*
X11368991Y-10524508D02*
X11388039Y-10495936D01*
X11388039Y-10495936D02*
X11397563Y-10486412D01*
X11454706Y-10514984D02*
X11578515Y-10514984D01*
X11578515Y-10514984D02*
X11511848Y-10591174D01*
X11511848Y-10591174D02*
X11540420Y-10591174D01*
X11540420Y-10591174D02*
X11559468Y-10600698D01*
X11559468Y-10600698D02*
X11568991Y-10610222D01*
X11568991Y-10610222D02*
X11578515Y-10629270D01*
X11578515Y-10629270D02*
X11578515Y-10676889D01*
X11578515Y-10676889D02*
X11568991Y-10695936D01*
X11568991Y-10695936D02*
X11559468Y-10705460D01*
X11559468Y-10705460D02*
X11540420Y-10714984D01*
X11540420Y-10714984D02*
X11483277Y-10714984D01*
X11483277Y-10714984D02*
X11464229Y-10705460D01*
X11464229Y-10705460D02*
X11454706Y-10695936D01*
X11749944Y-10514984D02*
X11711848Y-10514984D01*
X11711848Y-10514984D02*
X11692801Y-10524508D01*
X11692801Y-10524508D02*
X11683277Y-10534031D01*
X11683277Y-10534031D02*
X11664229Y-10562603D01*
X11664229Y-10562603D02*
X11654706Y-10600698D01*
X11654706Y-10600698D02*
X11654706Y-10676889D01*
X11654706Y-10676889D02*
X11664229Y-10695936D01*
X11664229Y-10695936D02*
X11673753Y-10705460D01*
X11673753Y-10705460D02*
X11692801Y-10714984D01*
X11692801Y-10714984D02*
X11730896Y-10714984D01*
X11730896Y-10714984D02*
X11749944Y-10705460D01*
X11749944Y-10705460D02*
X11759468Y-10695936D01*
X11759468Y-10695936D02*
X11768991Y-10676889D01*
X11768991Y-10676889D02*
X11768991Y-10629270D01*
X11768991Y-10629270D02*
X11759468Y-10610222D01*
X11759468Y-10610222D02*
X11749944Y-10600698D01*
X11749944Y-10600698D02*
X11730896Y-10591174D01*
X11730896Y-10591174D02*
X11692801Y-10591174D01*
X11692801Y-10591174D02*
X11673753Y-10600698D01*
X11673753Y-10600698D02*
X11664229Y-10610222D01*
X11664229Y-10610222D02*
X11654706Y-10629270D01*
X12007087Y-10714984D02*
X12007087Y-10514984D01*
X12092801Y-10714984D02*
X12092801Y-10610222D01*
X12092801Y-10610222D02*
X12083277Y-10591174D01*
X12083277Y-10591174D02*
X12064230Y-10581650D01*
X12064230Y-10581650D02*
X12035658Y-10581650D01*
X12035658Y-10581650D02*
X12016610Y-10591174D01*
X12016610Y-10591174D02*
X12007087Y-10600698D01*
X12216610Y-10714984D02*
X12197563Y-10705460D01*
X12197563Y-10705460D02*
X12188039Y-10695936D01*
X12188039Y-10695936D02*
X12178515Y-10676889D01*
X12178515Y-10676889D02*
X12178515Y-10619746D01*
X12178515Y-10619746D02*
X12188039Y-10600698D01*
X12188039Y-10600698D02*
X12197563Y-10591174D01*
X12197563Y-10591174D02*
X12216610Y-10581650D01*
X12216610Y-10581650D02*
X12245182Y-10581650D01*
X12245182Y-10581650D02*
X12264230Y-10591174D01*
X12264230Y-10591174D02*
X12273753Y-10600698D01*
X12273753Y-10600698D02*
X12283277Y-10619746D01*
X12283277Y-10619746D02*
X12283277Y-10676889D01*
X12283277Y-10676889D02*
X12273753Y-10695936D01*
X12273753Y-10695936D02*
X12264230Y-10705460D01*
X12264230Y-10705460D02*
X12245182Y-10714984D01*
X12245182Y-10714984D02*
X12216610Y-10714984D01*
X12397563Y-10714984D02*
X12378515Y-10705460D01*
X12378515Y-10705460D02*
X12368991Y-10686412D01*
X12368991Y-10686412D02*
X12368991Y-10514984D01*
X12549944Y-10705460D02*
X12530896Y-10714984D01*
X12530896Y-10714984D02*
X12492801Y-10714984D01*
X12492801Y-10714984D02*
X12473753Y-10705460D01*
X12473753Y-10705460D02*
X12464230Y-10686412D01*
X12464230Y-10686412D02*
X12464230Y-10610222D01*
X12464230Y-10610222D02*
X12473753Y-10591174D01*
X12473753Y-10591174D02*
X12492801Y-10581650D01*
X12492801Y-10581650D02*
X12530896Y-10581650D01*
X12530896Y-10581650D02*
X12549944Y-10591174D01*
X12549944Y-10591174D02*
X12559468Y-10610222D01*
X12559468Y-10610222D02*
X12559468Y-10629270D01*
X12559468Y-10629270D02*
X12464230Y-10648317D01*
X12635658Y-10705460D02*
X12654706Y-10714984D01*
X12654706Y-10714984D02*
X12692801Y-10714984D01*
X12692801Y-10714984D02*
X12711849Y-10705460D01*
X12711849Y-10705460D02*
X12721372Y-10686412D01*
X12721372Y-10686412D02*
X12721372Y-10676889D01*
X12721372Y-10676889D02*
X12711849Y-10657841D01*
X12711849Y-10657841D02*
X12692801Y-10648317D01*
X12692801Y-10648317D02*
X12664230Y-10648317D01*
X12664230Y-10648317D02*
X12645182Y-10638793D01*
X12645182Y-10638793D02*
X12635658Y-10619746D01*
X12635658Y-10619746D02*
X12635658Y-10610222D01*
X12635658Y-10610222D02*
X12645182Y-10591174D01*
X12645182Y-10591174D02*
X12664230Y-10581650D01*
X12664230Y-10581650D02*
X12692801Y-10581650D01*
X12692801Y-10581650D02*
X12711849Y-10591174D01*
X12788039Y-10791174D02*
X12797563Y-10781650D01*
X12797563Y-10781650D02*
X12816611Y-10753079D01*
X12816611Y-10753079D02*
X12826134Y-10734031D01*
X12826134Y-10734031D02*
X12835658Y-10705460D01*
X12835658Y-10705460D02*
X12845182Y-10657841D01*
X12845182Y-10657841D02*
X12845182Y-10619746D01*
X12845182Y-10619746D02*
X12835658Y-10572127D01*
X12835658Y-10572127D02*
X12826134Y-10543555D01*
X12826134Y-10543555D02*
X12816611Y-10524508D01*
X12816611Y-10524508D02*
X12797563Y-10495936D01*
X12797563Y-10495936D02*
X12788039Y-10486412D01*
M02*
