G04 #@! TF.GenerationSoftware,KiCad,Pcbnew,8.0.2*
G04 #@! TF.CreationDate,2024-06-05T16:45:05+02:00*
G04 #@! TF.ProjectId,IF to LOW_IF Mixer,49462074-6f20-44c4-9f57-5f4946204d69,rev?*
G04 #@! TF.SameCoordinates,Original*
G04 #@! TF.FileFunction,Legend,Top*
G04 #@! TF.FilePolarity,Positive*
%FSLAX46Y46*%
G04 Gerber Fmt 4.6, Leading zero omitted, Abs format (unit mm)*
G04 Created by KiCad (PCBNEW 8.0.2) date 2024-06-05 16:45:05*
%MOMM*%
%LPD*%
G01*
G04 APERTURE LIST*
G04 Aperture macros list*
%AMRoundRect*
0 Rectangle with rounded corners*
0 $1 Rounding radius*
0 $2 $3 $4 $5 $6 $7 $8 $9 X,Y pos of 4 corners*
0 Add a 4 corners polygon primitive as box body*
4,1,4,$2,$3,$4,$5,$6,$7,$8,$9,$2,$3,0*
0 Add four circle primitives for the rounded corners*
1,1,$1+$1,$2,$3*
1,1,$1+$1,$4,$5*
1,1,$1+$1,$6,$7*
1,1,$1+$1,$8,$9*
0 Add four rect primitives between the rounded corners*
20,1,$1+$1,$2,$3,$4,$5,0*
20,1,$1+$1,$4,$5,$6,$7,0*
20,1,$1+$1,$6,$7,$8,$9,0*
20,1,$1+$1,$8,$9,$2,$3,0*%
G04 Aperture macros list end*
%ADD10C,0.254000*%
%ADD11C,0.150000*%
%ADD12C,0.100000*%
%ADD13C,0.120000*%
%ADD14C,0.200000*%
%ADD15R,0.900000X1.200000*%
%ADD16R,0.900000X0.800000*%
%ADD17RoundRect,0.225000X0.250000X-0.225000X0.250000X0.225000X-0.250000X0.225000X-0.250000X-0.225000X0*%
%ADD18RoundRect,0.225000X-0.250000X0.225000X-0.250000X-0.225000X0.250000X-0.225000X0.250000X0.225000X0*%
%ADD19C,2.200000*%
%ADD20O,3.250000X1.900000*%
%ADD21RoundRect,0.250000X0.400000X1.450000X-0.400000X1.450000X-0.400000X-1.450000X0.400000X-1.450000X0*%
%ADD22C,1.200000*%
%ADD23RoundRect,0.225000X0.225000X0.250000X-0.225000X0.250000X-0.225000X-0.250000X0.225000X-0.250000X0*%
%ADD24RoundRect,0.225000X-0.225000X-0.250000X0.225000X-0.250000X0.225000X0.250000X-0.225000X0.250000X0*%
%ADD25RoundRect,0.200000X-0.275000X0.200000X-0.275000X-0.200000X0.275000X-0.200000X0.275000X0.200000X0*%
%ADD26RoundRect,0.200000X0.275000X-0.200000X0.275000X0.200000X-0.275000X0.200000X-0.275000X-0.200000X0*%
%ADD27R,1.700000X1.700000*%
%ADD28O,1.700000X1.700000*%
%ADD29RoundRect,0.200000X0.200000X0.275000X-0.200000X0.275000X-0.200000X-0.275000X0.200000X-0.275000X0*%
%ADD30R,0.800000X0.600000*%
%ADD31R,0.650000X0.600000*%
%ADD32RoundRect,0.250000X-0.400000X-1.450000X0.400000X-1.450000X0.400000X1.450000X-0.400000X1.450000X0*%
%ADD33R,3.000000X1.750000*%
%ADD34O,1.900000X3.250000*%
%ADD35RoundRect,0.200000X-0.200000X-0.275000X0.200000X-0.275000X0.200000X0.275000X-0.200000X0.275000X0*%
%ADD36R,1.750000X3.000000*%
%ADD37RoundRect,0.250001X-0.462499X-1.074999X0.462499X-1.074999X0.462499X1.074999X-0.462499X1.074999X0*%
%ADD38RoundRect,0.250001X0.499999X0.924999X-0.499999X0.924999X-0.499999X-0.924999X0.499999X-0.924999X0*%
%ADD39RoundRect,0.250000X1.450000X-0.400000X1.450000X0.400000X-1.450000X0.400000X-1.450000X-0.400000X0*%
G04 APERTURE END LIST*
D10*
X100720270Y-58370952D02*
X100659794Y-58491904D01*
X100659794Y-58491904D02*
X100538842Y-58612857D01*
X100538842Y-58612857D02*
X100357413Y-58794285D01*
X100357413Y-58794285D02*
X100296937Y-58915238D01*
X100296937Y-58915238D02*
X100296937Y-59036190D01*
X100599318Y-58975714D02*
X100538842Y-59096666D01*
X100538842Y-59096666D02*
X100417889Y-59217619D01*
X100417889Y-59217619D02*
X100175984Y-59278095D01*
X100175984Y-59278095D02*
X99752651Y-59278095D01*
X99752651Y-59278095D02*
X99510746Y-59217619D01*
X99510746Y-59217619D02*
X99389794Y-59096666D01*
X99389794Y-59096666D02*
X99329318Y-58975714D01*
X99329318Y-58975714D02*
X99329318Y-58733809D01*
X99329318Y-58733809D02*
X99389794Y-58612857D01*
X99389794Y-58612857D02*
X99510746Y-58491904D01*
X99510746Y-58491904D02*
X99752651Y-58431428D01*
X99752651Y-58431428D02*
X100175984Y-58431428D01*
X100175984Y-58431428D02*
X100417889Y-58491904D01*
X100417889Y-58491904D02*
X100538842Y-58612857D01*
X100538842Y-58612857D02*
X100599318Y-58733809D01*
X100599318Y-58733809D02*
X100599318Y-58975714D01*
X99450270Y-57947619D02*
X99389794Y-57887143D01*
X99389794Y-57887143D02*
X99329318Y-57766190D01*
X99329318Y-57766190D02*
X99329318Y-57463809D01*
X99329318Y-57463809D02*
X99389794Y-57342857D01*
X99389794Y-57342857D02*
X99450270Y-57282381D01*
X99450270Y-57282381D02*
X99571222Y-57221904D01*
X99571222Y-57221904D02*
X99692175Y-57221904D01*
X99692175Y-57221904D02*
X99873603Y-57282381D01*
X99873603Y-57282381D02*
X100599318Y-58008095D01*
X100599318Y-58008095D02*
X100599318Y-57221904D01*
X91095270Y-72320952D02*
X91034794Y-72441904D01*
X91034794Y-72441904D02*
X90913842Y-72562857D01*
X90913842Y-72562857D02*
X90732413Y-72744285D01*
X90732413Y-72744285D02*
X90671937Y-72865238D01*
X90671937Y-72865238D02*
X90671937Y-72986190D01*
X90974318Y-72925714D02*
X90913842Y-73046666D01*
X90913842Y-73046666D02*
X90792889Y-73167619D01*
X90792889Y-73167619D02*
X90550984Y-73228095D01*
X90550984Y-73228095D02*
X90127651Y-73228095D01*
X90127651Y-73228095D02*
X89885746Y-73167619D01*
X89885746Y-73167619D02*
X89764794Y-73046666D01*
X89764794Y-73046666D02*
X89704318Y-72925714D01*
X89704318Y-72925714D02*
X89704318Y-72683809D01*
X89704318Y-72683809D02*
X89764794Y-72562857D01*
X89764794Y-72562857D02*
X89885746Y-72441904D01*
X89885746Y-72441904D02*
X90127651Y-72381428D01*
X90127651Y-72381428D02*
X90550984Y-72381428D01*
X90550984Y-72381428D02*
X90792889Y-72441904D01*
X90792889Y-72441904D02*
X90913842Y-72562857D01*
X90913842Y-72562857D02*
X90974318Y-72683809D01*
X90974318Y-72683809D02*
X90974318Y-72925714D01*
X90974318Y-71171904D02*
X90974318Y-71897619D01*
X90974318Y-71534762D02*
X89704318Y-71534762D01*
X89704318Y-71534762D02*
X89885746Y-71655714D01*
X89885746Y-71655714D02*
X90006699Y-71776666D01*
X90006699Y-71776666D02*
X90067175Y-71897619D01*
D11*
X109857142Y-86609580D02*
X109809523Y-86657200D01*
X109809523Y-86657200D02*
X109666666Y-86704819D01*
X109666666Y-86704819D02*
X109571428Y-86704819D01*
X109571428Y-86704819D02*
X109428571Y-86657200D01*
X109428571Y-86657200D02*
X109333333Y-86561961D01*
X109333333Y-86561961D02*
X109285714Y-86466723D01*
X109285714Y-86466723D02*
X109238095Y-86276247D01*
X109238095Y-86276247D02*
X109238095Y-86133390D01*
X109238095Y-86133390D02*
X109285714Y-85942914D01*
X109285714Y-85942914D02*
X109333333Y-85847676D01*
X109333333Y-85847676D02*
X109428571Y-85752438D01*
X109428571Y-85752438D02*
X109571428Y-85704819D01*
X109571428Y-85704819D02*
X109666666Y-85704819D01*
X109666666Y-85704819D02*
X109809523Y-85752438D01*
X109809523Y-85752438D02*
X109857142Y-85800057D01*
X110238095Y-85800057D02*
X110285714Y-85752438D01*
X110285714Y-85752438D02*
X110380952Y-85704819D01*
X110380952Y-85704819D02*
X110619047Y-85704819D01*
X110619047Y-85704819D02*
X110714285Y-85752438D01*
X110714285Y-85752438D02*
X110761904Y-85800057D01*
X110761904Y-85800057D02*
X110809523Y-85895295D01*
X110809523Y-85895295D02*
X110809523Y-85990533D01*
X110809523Y-85990533D02*
X110761904Y-86133390D01*
X110761904Y-86133390D02*
X110190476Y-86704819D01*
X110190476Y-86704819D02*
X110809523Y-86704819D01*
X111285714Y-86704819D02*
X111476190Y-86704819D01*
X111476190Y-86704819D02*
X111571428Y-86657200D01*
X111571428Y-86657200D02*
X111619047Y-86609580D01*
X111619047Y-86609580D02*
X111714285Y-86466723D01*
X111714285Y-86466723D02*
X111761904Y-86276247D01*
X111761904Y-86276247D02*
X111761904Y-85895295D01*
X111761904Y-85895295D02*
X111714285Y-85800057D01*
X111714285Y-85800057D02*
X111666666Y-85752438D01*
X111666666Y-85752438D02*
X111571428Y-85704819D01*
X111571428Y-85704819D02*
X111380952Y-85704819D01*
X111380952Y-85704819D02*
X111285714Y-85752438D01*
X111285714Y-85752438D02*
X111238095Y-85800057D01*
X111238095Y-85800057D02*
X111190476Y-85895295D01*
X111190476Y-85895295D02*
X111190476Y-86133390D01*
X111190476Y-86133390D02*
X111238095Y-86228628D01*
X111238095Y-86228628D02*
X111285714Y-86276247D01*
X111285714Y-86276247D02*
X111380952Y-86323866D01*
X111380952Y-86323866D02*
X111571428Y-86323866D01*
X111571428Y-86323866D02*
X111666666Y-86276247D01*
X111666666Y-86276247D02*
X111714285Y-86228628D01*
X111714285Y-86228628D02*
X111761904Y-86133390D01*
X108359580Y-79892857D02*
X108407200Y-79940476D01*
X108407200Y-79940476D02*
X108454819Y-80083333D01*
X108454819Y-80083333D02*
X108454819Y-80178571D01*
X108454819Y-80178571D02*
X108407200Y-80321428D01*
X108407200Y-80321428D02*
X108311961Y-80416666D01*
X108311961Y-80416666D02*
X108216723Y-80464285D01*
X108216723Y-80464285D02*
X108026247Y-80511904D01*
X108026247Y-80511904D02*
X107883390Y-80511904D01*
X107883390Y-80511904D02*
X107692914Y-80464285D01*
X107692914Y-80464285D02*
X107597676Y-80416666D01*
X107597676Y-80416666D02*
X107502438Y-80321428D01*
X107502438Y-80321428D02*
X107454819Y-80178571D01*
X107454819Y-80178571D02*
X107454819Y-80083333D01*
X107454819Y-80083333D02*
X107502438Y-79940476D01*
X107502438Y-79940476D02*
X107550057Y-79892857D01*
X107550057Y-79511904D02*
X107502438Y-79464285D01*
X107502438Y-79464285D02*
X107454819Y-79369047D01*
X107454819Y-79369047D02*
X107454819Y-79130952D01*
X107454819Y-79130952D02*
X107502438Y-79035714D01*
X107502438Y-79035714D02*
X107550057Y-78988095D01*
X107550057Y-78988095D02*
X107645295Y-78940476D01*
X107645295Y-78940476D02*
X107740533Y-78940476D01*
X107740533Y-78940476D02*
X107883390Y-78988095D01*
X107883390Y-78988095D02*
X108454819Y-79559523D01*
X108454819Y-79559523D02*
X108454819Y-78940476D01*
X107454819Y-78607142D02*
X107454819Y-77940476D01*
X107454819Y-77940476D02*
X108454819Y-78369047D01*
X86833333Y-81454819D02*
X86357143Y-81454819D01*
X86357143Y-81454819D02*
X86357143Y-80454819D01*
X87214286Y-81454819D02*
X87404762Y-81454819D01*
X87404762Y-81454819D02*
X87500000Y-81407200D01*
X87500000Y-81407200D02*
X87547619Y-81359580D01*
X87547619Y-81359580D02*
X87642857Y-81216723D01*
X87642857Y-81216723D02*
X87690476Y-81026247D01*
X87690476Y-81026247D02*
X87690476Y-80645295D01*
X87690476Y-80645295D02*
X87642857Y-80550057D01*
X87642857Y-80550057D02*
X87595238Y-80502438D01*
X87595238Y-80502438D02*
X87500000Y-80454819D01*
X87500000Y-80454819D02*
X87309524Y-80454819D01*
X87309524Y-80454819D02*
X87214286Y-80502438D01*
X87214286Y-80502438D02*
X87166667Y-80550057D01*
X87166667Y-80550057D02*
X87119048Y-80645295D01*
X87119048Y-80645295D02*
X87119048Y-80883390D01*
X87119048Y-80883390D02*
X87166667Y-80978628D01*
X87166667Y-80978628D02*
X87214286Y-81026247D01*
X87214286Y-81026247D02*
X87309524Y-81073866D01*
X87309524Y-81073866D02*
X87500000Y-81073866D01*
X87500000Y-81073866D02*
X87595238Y-81026247D01*
X87595238Y-81026247D02*
X87642857Y-80978628D01*
X87642857Y-80978628D02*
X87690476Y-80883390D01*
X93007142Y-52159580D02*
X92959523Y-52207200D01*
X92959523Y-52207200D02*
X92816666Y-52254819D01*
X92816666Y-52254819D02*
X92721428Y-52254819D01*
X92721428Y-52254819D02*
X92578571Y-52207200D01*
X92578571Y-52207200D02*
X92483333Y-52111961D01*
X92483333Y-52111961D02*
X92435714Y-52016723D01*
X92435714Y-52016723D02*
X92388095Y-51826247D01*
X92388095Y-51826247D02*
X92388095Y-51683390D01*
X92388095Y-51683390D02*
X92435714Y-51492914D01*
X92435714Y-51492914D02*
X92483333Y-51397676D01*
X92483333Y-51397676D02*
X92578571Y-51302438D01*
X92578571Y-51302438D02*
X92721428Y-51254819D01*
X92721428Y-51254819D02*
X92816666Y-51254819D01*
X92816666Y-51254819D02*
X92959523Y-51302438D01*
X92959523Y-51302438D02*
X93007142Y-51350057D01*
X93959523Y-52254819D02*
X93388095Y-52254819D01*
X93673809Y-52254819D02*
X93673809Y-51254819D01*
X93673809Y-51254819D02*
X93578571Y-51397676D01*
X93578571Y-51397676D02*
X93483333Y-51492914D01*
X93483333Y-51492914D02*
X93388095Y-51540533D01*
X94435714Y-52254819D02*
X94626190Y-52254819D01*
X94626190Y-52254819D02*
X94721428Y-52207200D01*
X94721428Y-52207200D02*
X94769047Y-52159580D01*
X94769047Y-52159580D02*
X94864285Y-52016723D01*
X94864285Y-52016723D02*
X94911904Y-51826247D01*
X94911904Y-51826247D02*
X94911904Y-51445295D01*
X94911904Y-51445295D02*
X94864285Y-51350057D01*
X94864285Y-51350057D02*
X94816666Y-51302438D01*
X94816666Y-51302438D02*
X94721428Y-51254819D01*
X94721428Y-51254819D02*
X94530952Y-51254819D01*
X94530952Y-51254819D02*
X94435714Y-51302438D01*
X94435714Y-51302438D02*
X94388095Y-51350057D01*
X94388095Y-51350057D02*
X94340476Y-51445295D01*
X94340476Y-51445295D02*
X94340476Y-51683390D01*
X94340476Y-51683390D02*
X94388095Y-51778628D01*
X94388095Y-51778628D02*
X94435714Y-51826247D01*
X94435714Y-51826247D02*
X94530952Y-51873866D01*
X94530952Y-51873866D02*
X94721428Y-51873866D01*
X94721428Y-51873866D02*
X94816666Y-51826247D01*
X94816666Y-51826247D02*
X94864285Y-51778628D01*
X94864285Y-51778628D02*
X94911904Y-51683390D01*
X97583333Y-56454819D02*
X97107143Y-56454819D01*
X97107143Y-56454819D02*
X97107143Y-55454819D01*
X97821429Y-55454819D02*
X98488095Y-55454819D01*
X98488095Y-55454819D02*
X98059524Y-56454819D01*
X84359580Y-73642857D02*
X84407200Y-73690476D01*
X84407200Y-73690476D02*
X84454819Y-73833333D01*
X84454819Y-73833333D02*
X84454819Y-73928571D01*
X84454819Y-73928571D02*
X84407200Y-74071428D01*
X84407200Y-74071428D02*
X84311961Y-74166666D01*
X84311961Y-74166666D02*
X84216723Y-74214285D01*
X84216723Y-74214285D02*
X84026247Y-74261904D01*
X84026247Y-74261904D02*
X83883390Y-74261904D01*
X83883390Y-74261904D02*
X83692914Y-74214285D01*
X83692914Y-74214285D02*
X83597676Y-74166666D01*
X83597676Y-74166666D02*
X83502438Y-74071428D01*
X83502438Y-74071428D02*
X83454819Y-73928571D01*
X83454819Y-73928571D02*
X83454819Y-73833333D01*
X83454819Y-73833333D02*
X83502438Y-73690476D01*
X83502438Y-73690476D02*
X83550057Y-73642857D01*
X83550057Y-73261904D02*
X83502438Y-73214285D01*
X83502438Y-73214285D02*
X83454819Y-73119047D01*
X83454819Y-73119047D02*
X83454819Y-72880952D01*
X83454819Y-72880952D02*
X83502438Y-72785714D01*
X83502438Y-72785714D02*
X83550057Y-72738095D01*
X83550057Y-72738095D02*
X83645295Y-72690476D01*
X83645295Y-72690476D02*
X83740533Y-72690476D01*
X83740533Y-72690476D02*
X83883390Y-72738095D01*
X83883390Y-72738095D02*
X84454819Y-73309523D01*
X84454819Y-73309523D02*
X84454819Y-72690476D01*
X83550057Y-72309523D02*
X83502438Y-72261904D01*
X83502438Y-72261904D02*
X83454819Y-72166666D01*
X83454819Y-72166666D02*
X83454819Y-71928571D01*
X83454819Y-71928571D02*
X83502438Y-71833333D01*
X83502438Y-71833333D02*
X83550057Y-71785714D01*
X83550057Y-71785714D02*
X83645295Y-71738095D01*
X83645295Y-71738095D02*
X83740533Y-71738095D01*
X83740533Y-71738095D02*
X83883390Y-71785714D01*
X83883390Y-71785714D02*
X84454819Y-72357142D01*
X84454819Y-72357142D02*
X84454819Y-71738095D01*
X90781761Y-58704819D02*
X90448428Y-58228628D01*
X90210333Y-58704819D02*
X90210333Y-57704819D01*
X90210333Y-57704819D02*
X90591285Y-57704819D01*
X90591285Y-57704819D02*
X90686523Y-57752438D01*
X90686523Y-57752438D02*
X90734142Y-57800057D01*
X90734142Y-57800057D02*
X90781761Y-57895295D01*
X90781761Y-57895295D02*
X90781761Y-58038152D01*
X90781761Y-58038152D02*
X90734142Y-58133390D01*
X90734142Y-58133390D02*
X90686523Y-58181009D01*
X90686523Y-58181009D02*
X90591285Y-58228628D01*
X90591285Y-58228628D02*
X90210333Y-58228628D01*
X91067476Y-57704819D02*
X91400809Y-58704819D01*
X91400809Y-58704819D02*
X91734142Y-57704819D01*
X92019857Y-57800057D02*
X92067476Y-57752438D01*
X92067476Y-57752438D02*
X92162714Y-57704819D01*
X92162714Y-57704819D02*
X92400809Y-57704819D01*
X92400809Y-57704819D02*
X92496047Y-57752438D01*
X92496047Y-57752438D02*
X92543666Y-57800057D01*
X92543666Y-57800057D02*
X92591285Y-57895295D01*
X92591285Y-57895295D02*
X92591285Y-57990533D01*
X92591285Y-57990533D02*
X92543666Y-58133390D01*
X92543666Y-58133390D02*
X91972238Y-58704819D01*
X91972238Y-58704819D02*
X92591285Y-58704819D01*
X109857142Y-62109580D02*
X109809523Y-62157200D01*
X109809523Y-62157200D02*
X109666666Y-62204819D01*
X109666666Y-62204819D02*
X109571428Y-62204819D01*
X109571428Y-62204819D02*
X109428571Y-62157200D01*
X109428571Y-62157200D02*
X109333333Y-62061961D01*
X109333333Y-62061961D02*
X109285714Y-61966723D01*
X109285714Y-61966723D02*
X109238095Y-61776247D01*
X109238095Y-61776247D02*
X109238095Y-61633390D01*
X109238095Y-61633390D02*
X109285714Y-61442914D01*
X109285714Y-61442914D02*
X109333333Y-61347676D01*
X109333333Y-61347676D02*
X109428571Y-61252438D01*
X109428571Y-61252438D02*
X109571428Y-61204819D01*
X109571428Y-61204819D02*
X109666666Y-61204819D01*
X109666666Y-61204819D02*
X109809523Y-61252438D01*
X109809523Y-61252438D02*
X109857142Y-61300057D01*
X110809523Y-62204819D02*
X110238095Y-62204819D01*
X110523809Y-62204819D02*
X110523809Y-61204819D01*
X110523809Y-61204819D02*
X110428571Y-61347676D01*
X110428571Y-61347676D02*
X110333333Y-61442914D01*
X110333333Y-61442914D02*
X110238095Y-61490533D01*
X111761904Y-62204819D02*
X111190476Y-62204819D01*
X111476190Y-62204819D02*
X111476190Y-61204819D01*
X111476190Y-61204819D02*
X111380952Y-61347676D01*
X111380952Y-61347676D02*
X111285714Y-61442914D01*
X111285714Y-61442914D02*
X111190476Y-61490533D01*
X104857142Y-62109580D02*
X104809523Y-62157200D01*
X104809523Y-62157200D02*
X104666666Y-62204819D01*
X104666666Y-62204819D02*
X104571428Y-62204819D01*
X104571428Y-62204819D02*
X104428571Y-62157200D01*
X104428571Y-62157200D02*
X104333333Y-62061961D01*
X104333333Y-62061961D02*
X104285714Y-61966723D01*
X104285714Y-61966723D02*
X104238095Y-61776247D01*
X104238095Y-61776247D02*
X104238095Y-61633390D01*
X104238095Y-61633390D02*
X104285714Y-61442914D01*
X104285714Y-61442914D02*
X104333333Y-61347676D01*
X104333333Y-61347676D02*
X104428571Y-61252438D01*
X104428571Y-61252438D02*
X104571428Y-61204819D01*
X104571428Y-61204819D02*
X104666666Y-61204819D01*
X104666666Y-61204819D02*
X104809523Y-61252438D01*
X104809523Y-61252438D02*
X104857142Y-61300057D01*
X105809523Y-62204819D02*
X105238095Y-62204819D01*
X105523809Y-62204819D02*
X105523809Y-61204819D01*
X105523809Y-61204819D02*
X105428571Y-61347676D01*
X105428571Y-61347676D02*
X105333333Y-61442914D01*
X105333333Y-61442914D02*
X105238095Y-61490533D01*
X106190476Y-61300057D02*
X106238095Y-61252438D01*
X106238095Y-61252438D02*
X106333333Y-61204819D01*
X106333333Y-61204819D02*
X106571428Y-61204819D01*
X106571428Y-61204819D02*
X106666666Y-61252438D01*
X106666666Y-61252438D02*
X106714285Y-61300057D01*
X106714285Y-61300057D02*
X106761904Y-61395295D01*
X106761904Y-61395295D02*
X106761904Y-61490533D01*
X106761904Y-61490533D02*
X106714285Y-61633390D01*
X106714285Y-61633390D02*
X106142857Y-62204819D01*
X106142857Y-62204819D02*
X106761904Y-62204819D01*
X114833333Y-53454819D02*
X114357143Y-53454819D01*
X114357143Y-53454819D02*
X114357143Y-52454819D01*
X115119048Y-52550057D02*
X115166667Y-52502438D01*
X115166667Y-52502438D02*
X115261905Y-52454819D01*
X115261905Y-52454819D02*
X115500000Y-52454819D01*
X115500000Y-52454819D02*
X115595238Y-52502438D01*
X115595238Y-52502438D02*
X115642857Y-52550057D01*
X115642857Y-52550057D02*
X115690476Y-52645295D01*
X115690476Y-52645295D02*
X115690476Y-52740533D01*
X115690476Y-52740533D02*
X115642857Y-52883390D01*
X115642857Y-52883390D02*
X115071429Y-53454819D01*
X115071429Y-53454819D02*
X115690476Y-53454819D01*
X93204819Y-71666666D02*
X92728628Y-71999999D01*
X93204819Y-72238094D02*
X92204819Y-72238094D01*
X92204819Y-72238094D02*
X92204819Y-71857142D01*
X92204819Y-71857142D02*
X92252438Y-71761904D01*
X92252438Y-71761904D02*
X92300057Y-71714285D01*
X92300057Y-71714285D02*
X92395295Y-71666666D01*
X92395295Y-71666666D02*
X92538152Y-71666666D01*
X92538152Y-71666666D02*
X92633390Y-71714285D01*
X92633390Y-71714285D02*
X92681009Y-71761904D01*
X92681009Y-71761904D02*
X92728628Y-71857142D01*
X92728628Y-71857142D02*
X92728628Y-72238094D01*
X93204819Y-71190475D02*
X93204819Y-70999999D01*
X93204819Y-70999999D02*
X93157200Y-70904761D01*
X93157200Y-70904761D02*
X93109580Y-70857142D01*
X93109580Y-70857142D02*
X92966723Y-70761904D01*
X92966723Y-70761904D02*
X92776247Y-70714285D01*
X92776247Y-70714285D02*
X92395295Y-70714285D01*
X92395295Y-70714285D02*
X92300057Y-70761904D01*
X92300057Y-70761904D02*
X92252438Y-70809523D01*
X92252438Y-70809523D02*
X92204819Y-70904761D01*
X92204819Y-70904761D02*
X92204819Y-71095237D01*
X92204819Y-71095237D02*
X92252438Y-71190475D01*
X92252438Y-71190475D02*
X92300057Y-71238094D01*
X92300057Y-71238094D02*
X92395295Y-71285713D01*
X92395295Y-71285713D02*
X92633390Y-71285713D01*
X92633390Y-71285713D02*
X92728628Y-71238094D01*
X92728628Y-71238094D02*
X92776247Y-71190475D01*
X92776247Y-71190475D02*
X92823866Y-71095237D01*
X92823866Y-71095237D02*
X92823866Y-70904761D01*
X92823866Y-70904761D02*
X92776247Y-70809523D01*
X92776247Y-70809523D02*
X92728628Y-70761904D01*
X92728628Y-70761904D02*
X92633390Y-70714285D01*
X86083333Y-69609580D02*
X86035714Y-69657200D01*
X86035714Y-69657200D02*
X85892857Y-69704819D01*
X85892857Y-69704819D02*
X85797619Y-69704819D01*
X85797619Y-69704819D02*
X85654762Y-69657200D01*
X85654762Y-69657200D02*
X85559524Y-69561961D01*
X85559524Y-69561961D02*
X85511905Y-69466723D01*
X85511905Y-69466723D02*
X85464286Y-69276247D01*
X85464286Y-69276247D02*
X85464286Y-69133390D01*
X85464286Y-69133390D02*
X85511905Y-68942914D01*
X85511905Y-68942914D02*
X85559524Y-68847676D01*
X85559524Y-68847676D02*
X85654762Y-68752438D01*
X85654762Y-68752438D02*
X85797619Y-68704819D01*
X85797619Y-68704819D02*
X85892857Y-68704819D01*
X85892857Y-68704819D02*
X86035714Y-68752438D01*
X86035714Y-68752438D02*
X86083333Y-68800057D01*
X86940476Y-69038152D02*
X86940476Y-69704819D01*
X86702381Y-68657200D02*
X86464286Y-69371485D01*
X86464286Y-69371485D02*
X87083333Y-69371485D01*
X110107142Y-74359580D02*
X110059523Y-74407200D01*
X110059523Y-74407200D02*
X109916666Y-74454819D01*
X109916666Y-74454819D02*
X109821428Y-74454819D01*
X109821428Y-74454819D02*
X109678571Y-74407200D01*
X109678571Y-74407200D02*
X109583333Y-74311961D01*
X109583333Y-74311961D02*
X109535714Y-74216723D01*
X109535714Y-74216723D02*
X109488095Y-74026247D01*
X109488095Y-74026247D02*
X109488095Y-73883390D01*
X109488095Y-73883390D02*
X109535714Y-73692914D01*
X109535714Y-73692914D02*
X109583333Y-73597676D01*
X109583333Y-73597676D02*
X109678571Y-73502438D01*
X109678571Y-73502438D02*
X109821428Y-73454819D01*
X109821428Y-73454819D02*
X109916666Y-73454819D01*
X109916666Y-73454819D02*
X110059523Y-73502438D01*
X110059523Y-73502438D02*
X110107142Y-73550057D01*
X110440476Y-73454819D02*
X111059523Y-73454819D01*
X111059523Y-73454819D02*
X110726190Y-73835771D01*
X110726190Y-73835771D02*
X110869047Y-73835771D01*
X110869047Y-73835771D02*
X110964285Y-73883390D01*
X110964285Y-73883390D02*
X111011904Y-73931009D01*
X111011904Y-73931009D02*
X111059523Y-74026247D01*
X111059523Y-74026247D02*
X111059523Y-74264342D01*
X111059523Y-74264342D02*
X111011904Y-74359580D01*
X111011904Y-74359580D02*
X110964285Y-74407200D01*
X110964285Y-74407200D02*
X110869047Y-74454819D01*
X110869047Y-74454819D02*
X110583333Y-74454819D01*
X110583333Y-74454819D02*
X110488095Y-74407200D01*
X110488095Y-74407200D02*
X110440476Y-74359580D01*
X112011904Y-74454819D02*
X111440476Y-74454819D01*
X111726190Y-74454819D02*
X111726190Y-73454819D01*
X111726190Y-73454819D02*
X111630952Y-73597676D01*
X111630952Y-73597676D02*
X111535714Y-73692914D01*
X111535714Y-73692914D02*
X111440476Y-73740533D01*
X116083333Y-60359580D02*
X116035714Y-60407200D01*
X116035714Y-60407200D02*
X115892857Y-60454819D01*
X115892857Y-60454819D02*
X115797619Y-60454819D01*
X115797619Y-60454819D02*
X115654762Y-60407200D01*
X115654762Y-60407200D02*
X115559524Y-60311961D01*
X115559524Y-60311961D02*
X115511905Y-60216723D01*
X115511905Y-60216723D02*
X115464286Y-60026247D01*
X115464286Y-60026247D02*
X115464286Y-59883390D01*
X115464286Y-59883390D02*
X115511905Y-59692914D01*
X115511905Y-59692914D02*
X115559524Y-59597676D01*
X115559524Y-59597676D02*
X115654762Y-59502438D01*
X115654762Y-59502438D02*
X115797619Y-59454819D01*
X115797619Y-59454819D02*
X115892857Y-59454819D01*
X115892857Y-59454819D02*
X116035714Y-59502438D01*
X116035714Y-59502438D02*
X116083333Y-59550057D01*
X116559524Y-60454819D02*
X116750000Y-60454819D01*
X116750000Y-60454819D02*
X116845238Y-60407200D01*
X116845238Y-60407200D02*
X116892857Y-60359580D01*
X116892857Y-60359580D02*
X116988095Y-60216723D01*
X116988095Y-60216723D02*
X117035714Y-60026247D01*
X117035714Y-60026247D02*
X117035714Y-59645295D01*
X117035714Y-59645295D02*
X116988095Y-59550057D01*
X116988095Y-59550057D02*
X116940476Y-59502438D01*
X116940476Y-59502438D02*
X116845238Y-59454819D01*
X116845238Y-59454819D02*
X116654762Y-59454819D01*
X116654762Y-59454819D02*
X116559524Y-59502438D01*
X116559524Y-59502438D02*
X116511905Y-59550057D01*
X116511905Y-59550057D02*
X116464286Y-59645295D01*
X116464286Y-59645295D02*
X116464286Y-59883390D01*
X116464286Y-59883390D02*
X116511905Y-59978628D01*
X116511905Y-59978628D02*
X116559524Y-60026247D01*
X116559524Y-60026247D02*
X116654762Y-60073866D01*
X116654762Y-60073866D02*
X116845238Y-60073866D01*
X116845238Y-60073866D02*
X116940476Y-60026247D01*
X116940476Y-60026247D02*
X116988095Y-59978628D01*
X116988095Y-59978628D02*
X117035714Y-59883390D01*
X103607142Y-47109580D02*
X103559523Y-47157200D01*
X103559523Y-47157200D02*
X103416666Y-47204819D01*
X103416666Y-47204819D02*
X103321428Y-47204819D01*
X103321428Y-47204819D02*
X103178571Y-47157200D01*
X103178571Y-47157200D02*
X103083333Y-47061961D01*
X103083333Y-47061961D02*
X103035714Y-46966723D01*
X103035714Y-46966723D02*
X102988095Y-46776247D01*
X102988095Y-46776247D02*
X102988095Y-46633390D01*
X102988095Y-46633390D02*
X103035714Y-46442914D01*
X103035714Y-46442914D02*
X103083333Y-46347676D01*
X103083333Y-46347676D02*
X103178571Y-46252438D01*
X103178571Y-46252438D02*
X103321428Y-46204819D01*
X103321428Y-46204819D02*
X103416666Y-46204819D01*
X103416666Y-46204819D02*
X103559523Y-46252438D01*
X103559523Y-46252438D02*
X103607142Y-46300057D01*
X104559523Y-47204819D02*
X103988095Y-47204819D01*
X104273809Y-47204819D02*
X104273809Y-46204819D01*
X104273809Y-46204819D02*
X104178571Y-46347676D01*
X104178571Y-46347676D02*
X104083333Y-46442914D01*
X104083333Y-46442914D02*
X103988095Y-46490533D01*
X105416666Y-46204819D02*
X105226190Y-46204819D01*
X105226190Y-46204819D02*
X105130952Y-46252438D01*
X105130952Y-46252438D02*
X105083333Y-46300057D01*
X105083333Y-46300057D02*
X104988095Y-46442914D01*
X104988095Y-46442914D02*
X104940476Y-46633390D01*
X104940476Y-46633390D02*
X104940476Y-47014342D01*
X104940476Y-47014342D02*
X104988095Y-47109580D01*
X104988095Y-47109580D02*
X105035714Y-47157200D01*
X105035714Y-47157200D02*
X105130952Y-47204819D01*
X105130952Y-47204819D02*
X105321428Y-47204819D01*
X105321428Y-47204819D02*
X105416666Y-47157200D01*
X105416666Y-47157200D02*
X105464285Y-47109580D01*
X105464285Y-47109580D02*
X105511904Y-47014342D01*
X105511904Y-47014342D02*
X105511904Y-46776247D01*
X105511904Y-46776247D02*
X105464285Y-46681009D01*
X105464285Y-46681009D02*
X105416666Y-46633390D01*
X105416666Y-46633390D02*
X105321428Y-46585771D01*
X105321428Y-46585771D02*
X105130952Y-46585771D01*
X105130952Y-46585771D02*
X105035714Y-46633390D01*
X105035714Y-46633390D02*
X104988095Y-46681009D01*
X104988095Y-46681009D02*
X104940476Y-46776247D01*
X93204819Y-66142857D02*
X92728628Y-66476190D01*
X93204819Y-66714285D02*
X92204819Y-66714285D01*
X92204819Y-66714285D02*
X92204819Y-66333333D01*
X92204819Y-66333333D02*
X92252438Y-66238095D01*
X92252438Y-66238095D02*
X92300057Y-66190476D01*
X92300057Y-66190476D02*
X92395295Y-66142857D01*
X92395295Y-66142857D02*
X92538152Y-66142857D01*
X92538152Y-66142857D02*
X92633390Y-66190476D01*
X92633390Y-66190476D02*
X92681009Y-66238095D01*
X92681009Y-66238095D02*
X92728628Y-66333333D01*
X92728628Y-66333333D02*
X92728628Y-66714285D01*
X93204819Y-65190476D02*
X93204819Y-65761904D01*
X93204819Y-65476190D02*
X92204819Y-65476190D01*
X92204819Y-65476190D02*
X92347676Y-65571428D01*
X92347676Y-65571428D02*
X92442914Y-65666666D01*
X92442914Y-65666666D02*
X92490533Y-65761904D01*
X93204819Y-64238095D02*
X93204819Y-64809523D01*
X93204819Y-64523809D02*
X92204819Y-64523809D01*
X92204819Y-64523809D02*
X92347676Y-64619047D01*
X92347676Y-64619047D02*
X92442914Y-64714285D01*
X92442914Y-64714285D02*
X92490533Y-64809523D01*
X95333333Y-58704819D02*
X95000000Y-58228628D01*
X94761905Y-58704819D02*
X94761905Y-57704819D01*
X94761905Y-57704819D02*
X95142857Y-57704819D01*
X95142857Y-57704819D02*
X95238095Y-57752438D01*
X95238095Y-57752438D02*
X95285714Y-57800057D01*
X95285714Y-57800057D02*
X95333333Y-57895295D01*
X95333333Y-57895295D02*
X95333333Y-58038152D01*
X95333333Y-58038152D02*
X95285714Y-58133390D01*
X95285714Y-58133390D02*
X95238095Y-58181009D01*
X95238095Y-58181009D02*
X95142857Y-58228628D01*
X95142857Y-58228628D02*
X94761905Y-58228628D01*
X95904762Y-58133390D02*
X95809524Y-58085771D01*
X95809524Y-58085771D02*
X95761905Y-58038152D01*
X95761905Y-58038152D02*
X95714286Y-57942914D01*
X95714286Y-57942914D02*
X95714286Y-57895295D01*
X95714286Y-57895295D02*
X95761905Y-57800057D01*
X95761905Y-57800057D02*
X95809524Y-57752438D01*
X95809524Y-57752438D02*
X95904762Y-57704819D01*
X95904762Y-57704819D02*
X96095238Y-57704819D01*
X96095238Y-57704819D02*
X96190476Y-57752438D01*
X96190476Y-57752438D02*
X96238095Y-57800057D01*
X96238095Y-57800057D02*
X96285714Y-57895295D01*
X96285714Y-57895295D02*
X96285714Y-57942914D01*
X96285714Y-57942914D02*
X96238095Y-58038152D01*
X96238095Y-58038152D02*
X96190476Y-58085771D01*
X96190476Y-58085771D02*
X96095238Y-58133390D01*
X96095238Y-58133390D02*
X95904762Y-58133390D01*
X95904762Y-58133390D02*
X95809524Y-58181009D01*
X95809524Y-58181009D02*
X95761905Y-58228628D01*
X95761905Y-58228628D02*
X95714286Y-58323866D01*
X95714286Y-58323866D02*
X95714286Y-58514342D01*
X95714286Y-58514342D02*
X95761905Y-58609580D01*
X95761905Y-58609580D02*
X95809524Y-58657200D01*
X95809524Y-58657200D02*
X95904762Y-58704819D01*
X95904762Y-58704819D02*
X96095238Y-58704819D01*
X96095238Y-58704819D02*
X96190476Y-58657200D01*
X96190476Y-58657200D02*
X96238095Y-58609580D01*
X96238095Y-58609580D02*
X96285714Y-58514342D01*
X96285714Y-58514342D02*
X96285714Y-58323866D01*
X96285714Y-58323866D02*
X96238095Y-58228628D01*
X96238095Y-58228628D02*
X96190476Y-58181009D01*
X96190476Y-58181009D02*
X96095238Y-58133390D01*
X108359580Y-76892857D02*
X108407200Y-76940476D01*
X108407200Y-76940476D02*
X108454819Y-77083333D01*
X108454819Y-77083333D02*
X108454819Y-77178571D01*
X108454819Y-77178571D02*
X108407200Y-77321428D01*
X108407200Y-77321428D02*
X108311961Y-77416666D01*
X108311961Y-77416666D02*
X108216723Y-77464285D01*
X108216723Y-77464285D02*
X108026247Y-77511904D01*
X108026247Y-77511904D02*
X107883390Y-77511904D01*
X107883390Y-77511904D02*
X107692914Y-77464285D01*
X107692914Y-77464285D02*
X107597676Y-77416666D01*
X107597676Y-77416666D02*
X107502438Y-77321428D01*
X107502438Y-77321428D02*
X107454819Y-77178571D01*
X107454819Y-77178571D02*
X107454819Y-77083333D01*
X107454819Y-77083333D02*
X107502438Y-76940476D01*
X107502438Y-76940476D02*
X107550057Y-76892857D01*
X107550057Y-76511904D02*
X107502438Y-76464285D01*
X107502438Y-76464285D02*
X107454819Y-76369047D01*
X107454819Y-76369047D02*
X107454819Y-76130952D01*
X107454819Y-76130952D02*
X107502438Y-76035714D01*
X107502438Y-76035714D02*
X107550057Y-75988095D01*
X107550057Y-75988095D02*
X107645295Y-75940476D01*
X107645295Y-75940476D02*
X107740533Y-75940476D01*
X107740533Y-75940476D02*
X107883390Y-75988095D01*
X107883390Y-75988095D02*
X108454819Y-76559523D01*
X108454819Y-76559523D02*
X108454819Y-75940476D01*
X107454819Y-75083333D02*
X107454819Y-75273809D01*
X107454819Y-75273809D02*
X107502438Y-75369047D01*
X107502438Y-75369047D02*
X107550057Y-75416666D01*
X107550057Y-75416666D02*
X107692914Y-75511904D01*
X107692914Y-75511904D02*
X107883390Y-75559523D01*
X107883390Y-75559523D02*
X108264342Y-75559523D01*
X108264342Y-75559523D02*
X108359580Y-75511904D01*
X108359580Y-75511904D02*
X108407200Y-75464285D01*
X108407200Y-75464285D02*
X108454819Y-75369047D01*
X108454819Y-75369047D02*
X108454819Y-75178571D01*
X108454819Y-75178571D02*
X108407200Y-75083333D01*
X108407200Y-75083333D02*
X108359580Y-75035714D01*
X108359580Y-75035714D02*
X108264342Y-74988095D01*
X108264342Y-74988095D02*
X108026247Y-74988095D01*
X108026247Y-74988095D02*
X107931009Y-75035714D01*
X107931009Y-75035714D02*
X107883390Y-75083333D01*
X107883390Y-75083333D02*
X107835771Y-75178571D01*
X107835771Y-75178571D02*
X107835771Y-75369047D01*
X107835771Y-75369047D02*
X107883390Y-75464285D01*
X107883390Y-75464285D02*
X107931009Y-75511904D01*
X107931009Y-75511904D02*
X108026247Y-75559523D01*
X84833333Y-60609580D02*
X84785714Y-60657200D01*
X84785714Y-60657200D02*
X84642857Y-60704819D01*
X84642857Y-60704819D02*
X84547619Y-60704819D01*
X84547619Y-60704819D02*
X84404762Y-60657200D01*
X84404762Y-60657200D02*
X84309524Y-60561961D01*
X84309524Y-60561961D02*
X84261905Y-60466723D01*
X84261905Y-60466723D02*
X84214286Y-60276247D01*
X84214286Y-60276247D02*
X84214286Y-60133390D01*
X84214286Y-60133390D02*
X84261905Y-59942914D01*
X84261905Y-59942914D02*
X84309524Y-59847676D01*
X84309524Y-59847676D02*
X84404762Y-59752438D01*
X84404762Y-59752438D02*
X84547619Y-59704819D01*
X84547619Y-59704819D02*
X84642857Y-59704819D01*
X84642857Y-59704819D02*
X84785714Y-59752438D01*
X84785714Y-59752438D02*
X84833333Y-59800057D01*
X85785714Y-60704819D02*
X85214286Y-60704819D01*
X85500000Y-60704819D02*
X85500000Y-59704819D01*
X85500000Y-59704819D02*
X85404762Y-59847676D01*
X85404762Y-59847676D02*
X85309524Y-59942914D01*
X85309524Y-59942914D02*
X85214286Y-59990533D01*
X93083333Y-47204819D02*
X92607143Y-47204819D01*
X92607143Y-47204819D02*
X92607143Y-46204819D01*
X93559524Y-46633390D02*
X93464286Y-46585771D01*
X93464286Y-46585771D02*
X93416667Y-46538152D01*
X93416667Y-46538152D02*
X93369048Y-46442914D01*
X93369048Y-46442914D02*
X93369048Y-46395295D01*
X93369048Y-46395295D02*
X93416667Y-46300057D01*
X93416667Y-46300057D02*
X93464286Y-46252438D01*
X93464286Y-46252438D02*
X93559524Y-46204819D01*
X93559524Y-46204819D02*
X93750000Y-46204819D01*
X93750000Y-46204819D02*
X93845238Y-46252438D01*
X93845238Y-46252438D02*
X93892857Y-46300057D01*
X93892857Y-46300057D02*
X93940476Y-46395295D01*
X93940476Y-46395295D02*
X93940476Y-46442914D01*
X93940476Y-46442914D02*
X93892857Y-46538152D01*
X93892857Y-46538152D02*
X93845238Y-46585771D01*
X93845238Y-46585771D02*
X93750000Y-46633390D01*
X93750000Y-46633390D02*
X93559524Y-46633390D01*
X93559524Y-46633390D02*
X93464286Y-46681009D01*
X93464286Y-46681009D02*
X93416667Y-46728628D01*
X93416667Y-46728628D02*
X93369048Y-46823866D01*
X93369048Y-46823866D02*
X93369048Y-47014342D01*
X93369048Y-47014342D02*
X93416667Y-47109580D01*
X93416667Y-47109580D02*
X93464286Y-47157200D01*
X93464286Y-47157200D02*
X93559524Y-47204819D01*
X93559524Y-47204819D02*
X93750000Y-47204819D01*
X93750000Y-47204819D02*
X93845238Y-47157200D01*
X93845238Y-47157200D02*
X93892857Y-47109580D01*
X93892857Y-47109580D02*
X93940476Y-47014342D01*
X93940476Y-47014342D02*
X93940476Y-46823866D01*
X93940476Y-46823866D02*
X93892857Y-46728628D01*
X93892857Y-46728628D02*
X93845238Y-46681009D01*
X93845238Y-46681009D02*
X93750000Y-46633390D01*
X109833333Y-58704819D02*
X109500000Y-58228628D01*
X109261905Y-58704819D02*
X109261905Y-57704819D01*
X109261905Y-57704819D02*
X109642857Y-57704819D01*
X109642857Y-57704819D02*
X109738095Y-57752438D01*
X109738095Y-57752438D02*
X109785714Y-57800057D01*
X109785714Y-57800057D02*
X109833333Y-57895295D01*
X109833333Y-57895295D02*
X109833333Y-58038152D01*
X109833333Y-58038152D02*
X109785714Y-58133390D01*
X109785714Y-58133390D02*
X109738095Y-58181009D01*
X109738095Y-58181009D02*
X109642857Y-58228628D01*
X109642857Y-58228628D02*
X109261905Y-58228628D01*
X110690476Y-57704819D02*
X110500000Y-57704819D01*
X110500000Y-57704819D02*
X110404762Y-57752438D01*
X110404762Y-57752438D02*
X110357143Y-57800057D01*
X110357143Y-57800057D02*
X110261905Y-57942914D01*
X110261905Y-57942914D02*
X110214286Y-58133390D01*
X110214286Y-58133390D02*
X110214286Y-58514342D01*
X110214286Y-58514342D02*
X110261905Y-58609580D01*
X110261905Y-58609580D02*
X110309524Y-58657200D01*
X110309524Y-58657200D02*
X110404762Y-58704819D01*
X110404762Y-58704819D02*
X110595238Y-58704819D01*
X110595238Y-58704819D02*
X110690476Y-58657200D01*
X110690476Y-58657200D02*
X110738095Y-58609580D01*
X110738095Y-58609580D02*
X110785714Y-58514342D01*
X110785714Y-58514342D02*
X110785714Y-58276247D01*
X110785714Y-58276247D02*
X110738095Y-58181009D01*
X110738095Y-58181009D02*
X110690476Y-58133390D01*
X110690476Y-58133390D02*
X110595238Y-58085771D01*
X110595238Y-58085771D02*
X110404762Y-58085771D01*
X110404762Y-58085771D02*
X110309524Y-58133390D01*
X110309524Y-58133390D02*
X110261905Y-58181009D01*
X110261905Y-58181009D02*
X110214286Y-58276247D01*
X86704819Y-64845238D02*
X86228628Y-65178571D01*
X86704819Y-65416666D02*
X85704819Y-65416666D01*
X85704819Y-65416666D02*
X85704819Y-65035714D01*
X85704819Y-65035714D02*
X85752438Y-64940476D01*
X85752438Y-64940476D02*
X85800057Y-64892857D01*
X85800057Y-64892857D02*
X85895295Y-64845238D01*
X85895295Y-64845238D02*
X86038152Y-64845238D01*
X86038152Y-64845238D02*
X86133390Y-64892857D01*
X86133390Y-64892857D02*
X86181009Y-64940476D01*
X86181009Y-64940476D02*
X86228628Y-65035714D01*
X86228628Y-65035714D02*
X86228628Y-65416666D01*
X85704819Y-64559523D02*
X86704819Y-64226190D01*
X86704819Y-64226190D02*
X85704819Y-63892857D01*
X85704819Y-63654761D02*
X85704819Y-63035714D01*
X85704819Y-63035714D02*
X86085771Y-63369047D01*
X86085771Y-63369047D02*
X86085771Y-63226190D01*
X86085771Y-63226190D02*
X86133390Y-63130952D01*
X86133390Y-63130952D02*
X86181009Y-63083333D01*
X86181009Y-63083333D02*
X86276247Y-63035714D01*
X86276247Y-63035714D02*
X86514342Y-63035714D01*
X86514342Y-63035714D02*
X86609580Y-63083333D01*
X86609580Y-63083333D02*
X86657200Y-63130952D01*
X86657200Y-63130952D02*
X86704819Y-63226190D01*
X86704819Y-63226190D02*
X86704819Y-63511904D01*
X86704819Y-63511904D02*
X86657200Y-63607142D01*
X86657200Y-63607142D02*
X86609580Y-63654761D01*
X100357142Y-67454819D02*
X99880952Y-67454819D01*
X99880952Y-67454819D02*
X99880952Y-66454819D01*
X101214285Y-67454819D02*
X100642857Y-67454819D01*
X100928571Y-67454819D02*
X100928571Y-66454819D01*
X100928571Y-66454819D02*
X100833333Y-66597676D01*
X100833333Y-66597676D02*
X100738095Y-66692914D01*
X100738095Y-66692914D02*
X100642857Y-66740533D01*
X101833333Y-66454819D02*
X101928571Y-66454819D01*
X101928571Y-66454819D02*
X102023809Y-66502438D01*
X102023809Y-66502438D02*
X102071428Y-66550057D01*
X102071428Y-66550057D02*
X102119047Y-66645295D01*
X102119047Y-66645295D02*
X102166666Y-66835771D01*
X102166666Y-66835771D02*
X102166666Y-67073866D01*
X102166666Y-67073866D02*
X102119047Y-67264342D01*
X102119047Y-67264342D02*
X102071428Y-67359580D01*
X102071428Y-67359580D02*
X102023809Y-67407200D01*
X102023809Y-67407200D02*
X101928571Y-67454819D01*
X101928571Y-67454819D02*
X101833333Y-67454819D01*
X101833333Y-67454819D02*
X101738095Y-67407200D01*
X101738095Y-67407200D02*
X101690476Y-67359580D01*
X101690476Y-67359580D02*
X101642857Y-67264342D01*
X101642857Y-67264342D02*
X101595238Y-67073866D01*
X101595238Y-67073866D02*
X101595238Y-66835771D01*
X101595238Y-66835771D02*
X101642857Y-66645295D01*
X101642857Y-66645295D02*
X101690476Y-66550057D01*
X101690476Y-66550057D02*
X101738095Y-66502438D01*
X101738095Y-66502438D02*
X101833333Y-66454819D01*
X110109580Y-52892857D02*
X110157200Y-52940476D01*
X110157200Y-52940476D02*
X110204819Y-53083333D01*
X110204819Y-53083333D02*
X110204819Y-53178571D01*
X110204819Y-53178571D02*
X110157200Y-53321428D01*
X110157200Y-53321428D02*
X110061961Y-53416666D01*
X110061961Y-53416666D02*
X109966723Y-53464285D01*
X109966723Y-53464285D02*
X109776247Y-53511904D01*
X109776247Y-53511904D02*
X109633390Y-53511904D01*
X109633390Y-53511904D02*
X109442914Y-53464285D01*
X109442914Y-53464285D02*
X109347676Y-53416666D01*
X109347676Y-53416666D02*
X109252438Y-53321428D01*
X109252438Y-53321428D02*
X109204819Y-53178571D01*
X109204819Y-53178571D02*
X109204819Y-53083333D01*
X109204819Y-53083333D02*
X109252438Y-52940476D01*
X109252438Y-52940476D02*
X109300057Y-52892857D01*
X110204819Y-51940476D02*
X110204819Y-52511904D01*
X110204819Y-52226190D02*
X109204819Y-52226190D01*
X109204819Y-52226190D02*
X109347676Y-52321428D01*
X109347676Y-52321428D02*
X109442914Y-52416666D01*
X109442914Y-52416666D02*
X109490533Y-52511904D01*
X109204819Y-51035714D02*
X109204819Y-51511904D01*
X109204819Y-51511904D02*
X109681009Y-51559523D01*
X109681009Y-51559523D02*
X109633390Y-51511904D01*
X109633390Y-51511904D02*
X109585771Y-51416666D01*
X109585771Y-51416666D02*
X109585771Y-51178571D01*
X109585771Y-51178571D02*
X109633390Y-51083333D01*
X109633390Y-51083333D02*
X109681009Y-51035714D01*
X109681009Y-51035714D02*
X109776247Y-50988095D01*
X109776247Y-50988095D02*
X110014342Y-50988095D01*
X110014342Y-50988095D02*
X110109580Y-51035714D01*
X110109580Y-51035714D02*
X110157200Y-51083333D01*
X110157200Y-51083333D02*
X110204819Y-51178571D01*
X110204819Y-51178571D02*
X110204819Y-51416666D01*
X110204819Y-51416666D02*
X110157200Y-51511904D01*
X110157200Y-51511904D02*
X110109580Y-51559523D01*
X84833333Y-48704819D02*
X84500000Y-48228628D01*
X84261905Y-48704819D02*
X84261905Y-47704819D01*
X84261905Y-47704819D02*
X84642857Y-47704819D01*
X84642857Y-47704819D02*
X84738095Y-47752438D01*
X84738095Y-47752438D02*
X84785714Y-47800057D01*
X84785714Y-47800057D02*
X84833333Y-47895295D01*
X84833333Y-47895295D02*
X84833333Y-48038152D01*
X84833333Y-48038152D02*
X84785714Y-48133390D01*
X84785714Y-48133390D02*
X84738095Y-48181009D01*
X84738095Y-48181009D02*
X84642857Y-48228628D01*
X84642857Y-48228628D02*
X84261905Y-48228628D01*
X85214286Y-47800057D02*
X85261905Y-47752438D01*
X85261905Y-47752438D02*
X85357143Y-47704819D01*
X85357143Y-47704819D02*
X85595238Y-47704819D01*
X85595238Y-47704819D02*
X85690476Y-47752438D01*
X85690476Y-47752438D02*
X85738095Y-47800057D01*
X85738095Y-47800057D02*
X85785714Y-47895295D01*
X85785714Y-47895295D02*
X85785714Y-47990533D01*
X85785714Y-47990533D02*
X85738095Y-48133390D01*
X85738095Y-48133390D02*
X85166667Y-48704819D01*
X85166667Y-48704819D02*
X85785714Y-48704819D01*
X94359580Y-80142857D02*
X94407200Y-80190476D01*
X94407200Y-80190476D02*
X94454819Y-80333333D01*
X94454819Y-80333333D02*
X94454819Y-80428571D01*
X94454819Y-80428571D02*
X94407200Y-80571428D01*
X94407200Y-80571428D02*
X94311961Y-80666666D01*
X94311961Y-80666666D02*
X94216723Y-80714285D01*
X94216723Y-80714285D02*
X94026247Y-80761904D01*
X94026247Y-80761904D02*
X93883390Y-80761904D01*
X93883390Y-80761904D02*
X93692914Y-80714285D01*
X93692914Y-80714285D02*
X93597676Y-80666666D01*
X93597676Y-80666666D02*
X93502438Y-80571428D01*
X93502438Y-80571428D02*
X93454819Y-80428571D01*
X93454819Y-80428571D02*
X93454819Y-80333333D01*
X93454819Y-80333333D02*
X93502438Y-80190476D01*
X93502438Y-80190476D02*
X93550057Y-80142857D01*
X93550057Y-79761904D02*
X93502438Y-79714285D01*
X93502438Y-79714285D02*
X93454819Y-79619047D01*
X93454819Y-79619047D02*
X93454819Y-79380952D01*
X93454819Y-79380952D02*
X93502438Y-79285714D01*
X93502438Y-79285714D02*
X93550057Y-79238095D01*
X93550057Y-79238095D02*
X93645295Y-79190476D01*
X93645295Y-79190476D02*
X93740533Y-79190476D01*
X93740533Y-79190476D02*
X93883390Y-79238095D01*
X93883390Y-79238095D02*
X94454819Y-79809523D01*
X94454819Y-79809523D02*
X94454819Y-79190476D01*
X93454819Y-78857142D02*
X93454819Y-78238095D01*
X93454819Y-78238095D02*
X93835771Y-78571428D01*
X93835771Y-78571428D02*
X93835771Y-78428571D01*
X93835771Y-78428571D02*
X93883390Y-78333333D01*
X93883390Y-78333333D02*
X93931009Y-78285714D01*
X93931009Y-78285714D02*
X94026247Y-78238095D01*
X94026247Y-78238095D02*
X94264342Y-78238095D01*
X94264342Y-78238095D02*
X94359580Y-78285714D01*
X94359580Y-78285714D02*
X94407200Y-78333333D01*
X94407200Y-78333333D02*
X94454819Y-78428571D01*
X94454819Y-78428571D02*
X94454819Y-78714285D01*
X94454819Y-78714285D02*
X94407200Y-78809523D01*
X94407200Y-78809523D02*
X94359580Y-78857142D01*
X87083333Y-46954819D02*
X86750000Y-46478628D01*
X86511905Y-46954819D02*
X86511905Y-45954819D01*
X86511905Y-45954819D02*
X86892857Y-45954819D01*
X86892857Y-45954819D02*
X86988095Y-46002438D01*
X86988095Y-46002438D02*
X87035714Y-46050057D01*
X87035714Y-46050057D02*
X87083333Y-46145295D01*
X87083333Y-46145295D02*
X87083333Y-46288152D01*
X87083333Y-46288152D02*
X87035714Y-46383390D01*
X87035714Y-46383390D02*
X86988095Y-46431009D01*
X86988095Y-46431009D02*
X86892857Y-46478628D01*
X86892857Y-46478628D02*
X86511905Y-46478628D01*
X87416667Y-45954819D02*
X88083333Y-45954819D01*
X88083333Y-45954819D02*
X87654762Y-46954819D01*
X100357142Y-81454819D02*
X99880952Y-81454819D01*
X99880952Y-81454819D02*
X99880952Y-80454819D01*
X101214285Y-81454819D02*
X100642857Y-81454819D01*
X100928571Y-81454819D02*
X100928571Y-80454819D01*
X100928571Y-80454819D02*
X100833333Y-80597676D01*
X100833333Y-80597676D02*
X100738095Y-80692914D01*
X100738095Y-80692914D02*
X100642857Y-80740533D01*
X102166666Y-81454819D02*
X101595238Y-81454819D01*
X101880952Y-81454819D02*
X101880952Y-80454819D01*
X101880952Y-80454819D02*
X101785714Y-80597676D01*
X101785714Y-80597676D02*
X101690476Y-80692914D01*
X101690476Y-80692914D02*
X101595238Y-80740533D01*
X97107142Y-74454819D02*
X96773809Y-73978628D01*
X96535714Y-74454819D02*
X96535714Y-73454819D01*
X96535714Y-73454819D02*
X96916666Y-73454819D01*
X96916666Y-73454819D02*
X97011904Y-73502438D01*
X97011904Y-73502438D02*
X97059523Y-73550057D01*
X97059523Y-73550057D02*
X97107142Y-73645295D01*
X97107142Y-73645295D02*
X97107142Y-73788152D01*
X97107142Y-73788152D02*
X97059523Y-73883390D01*
X97059523Y-73883390D02*
X97011904Y-73931009D01*
X97011904Y-73931009D02*
X96916666Y-73978628D01*
X96916666Y-73978628D02*
X96535714Y-73978628D01*
X98059523Y-74454819D02*
X97488095Y-74454819D01*
X97773809Y-74454819D02*
X97773809Y-73454819D01*
X97773809Y-73454819D02*
X97678571Y-73597676D01*
X97678571Y-73597676D02*
X97583333Y-73692914D01*
X97583333Y-73692914D02*
X97488095Y-73740533D01*
X98678571Y-73454819D02*
X98773809Y-73454819D01*
X98773809Y-73454819D02*
X98869047Y-73502438D01*
X98869047Y-73502438D02*
X98916666Y-73550057D01*
X98916666Y-73550057D02*
X98964285Y-73645295D01*
X98964285Y-73645295D02*
X99011904Y-73835771D01*
X99011904Y-73835771D02*
X99011904Y-74073866D01*
X99011904Y-74073866D02*
X98964285Y-74264342D01*
X98964285Y-74264342D02*
X98916666Y-74359580D01*
X98916666Y-74359580D02*
X98869047Y-74407200D01*
X98869047Y-74407200D02*
X98773809Y-74454819D01*
X98773809Y-74454819D02*
X98678571Y-74454819D01*
X98678571Y-74454819D02*
X98583333Y-74407200D01*
X98583333Y-74407200D02*
X98535714Y-74359580D01*
X98535714Y-74359580D02*
X98488095Y-74264342D01*
X98488095Y-74264342D02*
X98440476Y-74073866D01*
X98440476Y-74073866D02*
X98440476Y-73835771D01*
X98440476Y-73835771D02*
X98488095Y-73645295D01*
X98488095Y-73645295D02*
X98535714Y-73550057D01*
X98535714Y-73550057D02*
X98583333Y-73502438D01*
X98583333Y-73502438D02*
X98678571Y-73454819D01*
X117607142Y-72609580D02*
X117559523Y-72657200D01*
X117559523Y-72657200D02*
X117416666Y-72704819D01*
X117416666Y-72704819D02*
X117321428Y-72704819D01*
X117321428Y-72704819D02*
X117178571Y-72657200D01*
X117178571Y-72657200D02*
X117083333Y-72561961D01*
X117083333Y-72561961D02*
X117035714Y-72466723D01*
X117035714Y-72466723D02*
X116988095Y-72276247D01*
X116988095Y-72276247D02*
X116988095Y-72133390D01*
X116988095Y-72133390D02*
X117035714Y-71942914D01*
X117035714Y-71942914D02*
X117083333Y-71847676D01*
X117083333Y-71847676D02*
X117178571Y-71752438D01*
X117178571Y-71752438D02*
X117321428Y-71704819D01*
X117321428Y-71704819D02*
X117416666Y-71704819D01*
X117416666Y-71704819D02*
X117559523Y-71752438D01*
X117559523Y-71752438D02*
X117607142Y-71800057D01*
X117940476Y-71704819D02*
X118559523Y-71704819D01*
X118559523Y-71704819D02*
X118226190Y-72085771D01*
X118226190Y-72085771D02*
X118369047Y-72085771D01*
X118369047Y-72085771D02*
X118464285Y-72133390D01*
X118464285Y-72133390D02*
X118511904Y-72181009D01*
X118511904Y-72181009D02*
X118559523Y-72276247D01*
X118559523Y-72276247D02*
X118559523Y-72514342D01*
X118559523Y-72514342D02*
X118511904Y-72609580D01*
X118511904Y-72609580D02*
X118464285Y-72657200D01*
X118464285Y-72657200D02*
X118369047Y-72704819D01*
X118369047Y-72704819D02*
X118083333Y-72704819D01*
X118083333Y-72704819D02*
X117988095Y-72657200D01*
X117988095Y-72657200D02*
X117940476Y-72609580D01*
X119178571Y-71704819D02*
X119273809Y-71704819D01*
X119273809Y-71704819D02*
X119369047Y-71752438D01*
X119369047Y-71752438D02*
X119416666Y-71800057D01*
X119416666Y-71800057D02*
X119464285Y-71895295D01*
X119464285Y-71895295D02*
X119511904Y-72085771D01*
X119511904Y-72085771D02*
X119511904Y-72323866D01*
X119511904Y-72323866D02*
X119464285Y-72514342D01*
X119464285Y-72514342D02*
X119416666Y-72609580D01*
X119416666Y-72609580D02*
X119369047Y-72657200D01*
X119369047Y-72657200D02*
X119273809Y-72704819D01*
X119273809Y-72704819D02*
X119178571Y-72704819D01*
X119178571Y-72704819D02*
X119083333Y-72657200D01*
X119083333Y-72657200D02*
X119035714Y-72609580D01*
X119035714Y-72609580D02*
X118988095Y-72514342D01*
X118988095Y-72514342D02*
X118940476Y-72323866D01*
X118940476Y-72323866D02*
X118940476Y-72085771D01*
X118940476Y-72085771D02*
X118988095Y-71895295D01*
X118988095Y-71895295D02*
X119035714Y-71800057D01*
X119035714Y-71800057D02*
X119083333Y-71752438D01*
X119083333Y-71752438D02*
X119178571Y-71704819D01*
X89107142Y-46859580D02*
X89059523Y-46907200D01*
X89059523Y-46907200D02*
X88916666Y-46954819D01*
X88916666Y-46954819D02*
X88821428Y-46954819D01*
X88821428Y-46954819D02*
X88678571Y-46907200D01*
X88678571Y-46907200D02*
X88583333Y-46811961D01*
X88583333Y-46811961D02*
X88535714Y-46716723D01*
X88535714Y-46716723D02*
X88488095Y-46526247D01*
X88488095Y-46526247D02*
X88488095Y-46383390D01*
X88488095Y-46383390D02*
X88535714Y-46192914D01*
X88535714Y-46192914D02*
X88583333Y-46097676D01*
X88583333Y-46097676D02*
X88678571Y-46002438D01*
X88678571Y-46002438D02*
X88821428Y-45954819D01*
X88821428Y-45954819D02*
X88916666Y-45954819D01*
X88916666Y-45954819D02*
X89059523Y-46002438D01*
X89059523Y-46002438D02*
X89107142Y-46050057D01*
X90059523Y-46954819D02*
X89488095Y-46954819D01*
X89773809Y-46954819D02*
X89773809Y-45954819D01*
X89773809Y-45954819D02*
X89678571Y-46097676D01*
X89678571Y-46097676D02*
X89583333Y-46192914D01*
X89583333Y-46192914D02*
X89488095Y-46240533D01*
X90392857Y-45954819D02*
X91059523Y-45954819D01*
X91059523Y-45954819D02*
X90630952Y-46954819D01*
X110109580Y-49392857D02*
X110157200Y-49440476D01*
X110157200Y-49440476D02*
X110204819Y-49583333D01*
X110204819Y-49583333D02*
X110204819Y-49678571D01*
X110204819Y-49678571D02*
X110157200Y-49821428D01*
X110157200Y-49821428D02*
X110061961Y-49916666D01*
X110061961Y-49916666D02*
X109966723Y-49964285D01*
X109966723Y-49964285D02*
X109776247Y-50011904D01*
X109776247Y-50011904D02*
X109633390Y-50011904D01*
X109633390Y-50011904D02*
X109442914Y-49964285D01*
X109442914Y-49964285D02*
X109347676Y-49916666D01*
X109347676Y-49916666D02*
X109252438Y-49821428D01*
X109252438Y-49821428D02*
X109204819Y-49678571D01*
X109204819Y-49678571D02*
X109204819Y-49583333D01*
X109204819Y-49583333D02*
X109252438Y-49440476D01*
X109252438Y-49440476D02*
X109300057Y-49392857D01*
X110204819Y-48440476D02*
X110204819Y-49011904D01*
X110204819Y-48726190D02*
X109204819Y-48726190D01*
X109204819Y-48726190D02*
X109347676Y-48821428D01*
X109347676Y-48821428D02*
X109442914Y-48916666D01*
X109442914Y-48916666D02*
X109490533Y-49011904D01*
X109538152Y-47583333D02*
X110204819Y-47583333D01*
X109157200Y-47821428D02*
X109871485Y-48059523D01*
X109871485Y-48059523D02*
X109871485Y-47440476D01*
X120609580Y-77142857D02*
X120657200Y-77190476D01*
X120657200Y-77190476D02*
X120704819Y-77333333D01*
X120704819Y-77333333D02*
X120704819Y-77428571D01*
X120704819Y-77428571D02*
X120657200Y-77571428D01*
X120657200Y-77571428D02*
X120561961Y-77666666D01*
X120561961Y-77666666D02*
X120466723Y-77714285D01*
X120466723Y-77714285D02*
X120276247Y-77761904D01*
X120276247Y-77761904D02*
X120133390Y-77761904D01*
X120133390Y-77761904D02*
X119942914Y-77714285D01*
X119942914Y-77714285D02*
X119847676Y-77666666D01*
X119847676Y-77666666D02*
X119752438Y-77571428D01*
X119752438Y-77571428D02*
X119704819Y-77428571D01*
X119704819Y-77428571D02*
X119704819Y-77333333D01*
X119704819Y-77333333D02*
X119752438Y-77190476D01*
X119752438Y-77190476D02*
X119800057Y-77142857D01*
X119800057Y-76761904D02*
X119752438Y-76714285D01*
X119752438Y-76714285D02*
X119704819Y-76619047D01*
X119704819Y-76619047D02*
X119704819Y-76380952D01*
X119704819Y-76380952D02*
X119752438Y-76285714D01*
X119752438Y-76285714D02*
X119800057Y-76238095D01*
X119800057Y-76238095D02*
X119895295Y-76190476D01*
X119895295Y-76190476D02*
X119990533Y-76190476D01*
X119990533Y-76190476D02*
X120133390Y-76238095D01*
X120133390Y-76238095D02*
X120704819Y-76809523D01*
X120704819Y-76809523D02*
X120704819Y-76190476D01*
X120133390Y-75619047D02*
X120085771Y-75714285D01*
X120085771Y-75714285D02*
X120038152Y-75761904D01*
X120038152Y-75761904D02*
X119942914Y-75809523D01*
X119942914Y-75809523D02*
X119895295Y-75809523D01*
X119895295Y-75809523D02*
X119800057Y-75761904D01*
X119800057Y-75761904D02*
X119752438Y-75714285D01*
X119752438Y-75714285D02*
X119704819Y-75619047D01*
X119704819Y-75619047D02*
X119704819Y-75428571D01*
X119704819Y-75428571D02*
X119752438Y-75333333D01*
X119752438Y-75333333D02*
X119800057Y-75285714D01*
X119800057Y-75285714D02*
X119895295Y-75238095D01*
X119895295Y-75238095D02*
X119942914Y-75238095D01*
X119942914Y-75238095D02*
X120038152Y-75285714D01*
X120038152Y-75285714D02*
X120085771Y-75333333D01*
X120085771Y-75333333D02*
X120133390Y-75428571D01*
X120133390Y-75428571D02*
X120133390Y-75619047D01*
X120133390Y-75619047D02*
X120181009Y-75714285D01*
X120181009Y-75714285D02*
X120228628Y-75761904D01*
X120228628Y-75761904D02*
X120323866Y-75809523D01*
X120323866Y-75809523D02*
X120514342Y-75809523D01*
X120514342Y-75809523D02*
X120609580Y-75761904D01*
X120609580Y-75761904D02*
X120657200Y-75714285D01*
X120657200Y-75714285D02*
X120704819Y-75619047D01*
X120704819Y-75619047D02*
X120704819Y-75428571D01*
X120704819Y-75428571D02*
X120657200Y-75333333D01*
X120657200Y-75333333D02*
X120609580Y-75285714D01*
X120609580Y-75285714D02*
X120514342Y-75238095D01*
X120514342Y-75238095D02*
X120323866Y-75238095D01*
X120323866Y-75238095D02*
X120228628Y-75285714D01*
X120228628Y-75285714D02*
X120181009Y-75333333D01*
X120181009Y-75333333D02*
X120133390Y-75428571D01*
X82859580Y-73667857D02*
X82907200Y-73715476D01*
X82907200Y-73715476D02*
X82954819Y-73858333D01*
X82954819Y-73858333D02*
X82954819Y-73953571D01*
X82954819Y-73953571D02*
X82907200Y-74096428D01*
X82907200Y-74096428D02*
X82811961Y-74191666D01*
X82811961Y-74191666D02*
X82716723Y-74239285D01*
X82716723Y-74239285D02*
X82526247Y-74286904D01*
X82526247Y-74286904D02*
X82383390Y-74286904D01*
X82383390Y-74286904D02*
X82192914Y-74239285D01*
X82192914Y-74239285D02*
X82097676Y-74191666D01*
X82097676Y-74191666D02*
X82002438Y-74096428D01*
X82002438Y-74096428D02*
X81954819Y-73953571D01*
X81954819Y-73953571D02*
X81954819Y-73858333D01*
X81954819Y-73858333D02*
X82002438Y-73715476D01*
X82002438Y-73715476D02*
X82050057Y-73667857D01*
X82050057Y-73286904D02*
X82002438Y-73239285D01*
X82002438Y-73239285D02*
X81954819Y-73144047D01*
X81954819Y-73144047D02*
X81954819Y-72905952D01*
X81954819Y-72905952D02*
X82002438Y-72810714D01*
X82002438Y-72810714D02*
X82050057Y-72763095D01*
X82050057Y-72763095D02*
X82145295Y-72715476D01*
X82145295Y-72715476D02*
X82240533Y-72715476D01*
X82240533Y-72715476D02*
X82383390Y-72763095D01*
X82383390Y-72763095D02*
X82954819Y-73334523D01*
X82954819Y-73334523D02*
X82954819Y-72715476D01*
X82954819Y-71763095D02*
X82954819Y-72334523D01*
X82954819Y-72048809D02*
X81954819Y-72048809D01*
X81954819Y-72048809D02*
X82097676Y-72144047D01*
X82097676Y-72144047D02*
X82192914Y-72239285D01*
X82192914Y-72239285D02*
X82240533Y-72334523D01*
X106583333Y-47204819D02*
X106107143Y-47204819D01*
X106107143Y-47204819D02*
X106107143Y-46204819D01*
X107345238Y-46204819D02*
X107154762Y-46204819D01*
X107154762Y-46204819D02*
X107059524Y-46252438D01*
X107059524Y-46252438D02*
X107011905Y-46300057D01*
X107011905Y-46300057D02*
X106916667Y-46442914D01*
X106916667Y-46442914D02*
X106869048Y-46633390D01*
X106869048Y-46633390D02*
X106869048Y-47014342D01*
X106869048Y-47014342D02*
X106916667Y-47109580D01*
X106916667Y-47109580D02*
X106964286Y-47157200D01*
X106964286Y-47157200D02*
X107059524Y-47204819D01*
X107059524Y-47204819D02*
X107250000Y-47204819D01*
X107250000Y-47204819D02*
X107345238Y-47157200D01*
X107345238Y-47157200D02*
X107392857Y-47109580D01*
X107392857Y-47109580D02*
X107440476Y-47014342D01*
X107440476Y-47014342D02*
X107440476Y-46776247D01*
X107440476Y-46776247D02*
X107392857Y-46681009D01*
X107392857Y-46681009D02*
X107345238Y-46633390D01*
X107345238Y-46633390D02*
X107250000Y-46585771D01*
X107250000Y-46585771D02*
X107059524Y-46585771D01*
X107059524Y-46585771D02*
X106964286Y-46633390D01*
X106964286Y-46633390D02*
X106916667Y-46681009D01*
X106916667Y-46681009D02*
X106869048Y-46776247D01*
X100107142Y-74359580D02*
X100059523Y-74407200D01*
X100059523Y-74407200D02*
X99916666Y-74454819D01*
X99916666Y-74454819D02*
X99821428Y-74454819D01*
X99821428Y-74454819D02*
X99678571Y-74407200D01*
X99678571Y-74407200D02*
X99583333Y-74311961D01*
X99583333Y-74311961D02*
X99535714Y-74216723D01*
X99535714Y-74216723D02*
X99488095Y-74026247D01*
X99488095Y-74026247D02*
X99488095Y-73883390D01*
X99488095Y-73883390D02*
X99535714Y-73692914D01*
X99535714Y-73692914D02*
X99583333Y-73597676D01*
X99583333Y-73597676D02*
X99678571Y-73502438D01*
X99678571Y-73502438D02*
X99821428Y-73454819D01*
X99821428Y-73454819D02*
X99916666Y-73454819D01*
X99916666Y-73454819D02*
X100059523Y-73502438D01*
X100059523Y-73502438D02*
X100107142Y-73550057D01*
X100488095Y-73550057D02*
X100535714Y-73502438D01*
X100535714Y-73502438D02*
X100630952Y-73454819D01*
X100630952Y-73454819D02*
X100869047Y-73454819D01*
X100869047Y-73454819D02*
X100964285Y-73502438D01*
X100964285Y-73502438D02*
X101011904Y-73550057D01*
X101011904Y-73550057D02*
X101059523Y-73645295D01*
X101059523Y-73645295D02*
X101059523Y-73740533D01*
X101059523Y-73740533D02*
X101011904Y-73883390D01*
X101011904Y-73883390D02*
X100440476Y-74454819D01*
X100440476Y-74454819D02*
X101059523Y-74454819D01*
X101964285Y-73454819D02*
X101488095Y-73454819D01*
X101488095Y-73454819D02*
X101440476Y-73931009D01*
X101440476Y-73931009D02*
X101488095Y-73883390D01*
X101488095Y-73883390D02*
X101583333Y-73835771D01*
X101583333Y-73835771D02*
X101821428Y-73835771D01*
X101821428Y-73835771D02*
X101916666Y-73883390D01*
X101916666Y-73883390D02*
X101964285Y-73931009D01*
X101964285Y-73931009D02*
X102011904Y-74026247D01*
X102011904Y-74026247D02*
X102011904Y-74264342D01*
X102011904Y-74264342D02*
X101964285Y-74359580D01*
X101964285Y-74359580D02*
X101916666Y-74407200D01*
X101916666Y-74407200D02*
X101821428Y-74454819D01*
X101821428Y-74454819D02*
X101583333Y-74454819D01*
X101583333Y-74454819D02*
X101488095Y-74407200D01*
X101488095Y-74407200D02*
X101440476Y-74359580D01*
X100607142Y-47109580D02*
X100559523Y-47157200D01*
X100559523Y-47157200D02*
X100416666Y-47204819D01*
X100416666Y-47204819D02*
X100321428Y-47204819D01*
X100321428Y-47204819D02*
X100178571Y-47157200D01*
X100178571Y-47157200D02*
X100083333Y-47061961D01*
X100083333Y-47061961D02*
X100035714Y-46966723D01*
X100035714Y-46966723D02*
X99988095Y-46776247D01*
X99988095Y-46776247D02*
X99988095Y-46633390D01*
X99988095Y-46633390D02*
X100035714Y-46442914D01*
X100035714Y-46442914D02*
X100083333Y-46347676D01*
X100083333Y-46347676D02*
X100178571Y-46252438D01*
X100178571Y-46252438D02*
X100321428Y-46204819D01*
X100321428Y-46204819D02*
X100416666Y-46204819D01*
X100416666Y-46204819D02*
X100559523Y-46252438D01*
X100559523Y-46252438D02*
X100607142Y-46300057D01*
X101559523Y-47204819D02*
X100988095Y-47204819D01*
X101273809Y-47204819D02*
X101273809Y-46204819D01*
X101273809Y-46204819D02*
X101178571Y-46347676D01*
X101178571Y-46347676D02*
X101083333Y-46442914D01*
X101083333Y-46442914D02*
X100988095Y-46490533D01*
X102130952Y-46633390D02*
X102035714Y-46585771D01*
X102035714Y-46585771D02*
X101988095Y-46538152D01*
X101988095Y-46538152D02*
X101940476Y-46442914D01*
X101940476Y-46442914D02*
X101940476Y-46395295D01*
X101940476Y-46395295D02*
X101988095Y-46300057D01*
X101988095Y-46300057D02*
X102035714Y-46252438D01*
X102035714Y-46252438D02*
X102130952Y-46204819D01*
X102130952Y-46204819D02*
X102321428Y-46204819D01*
X102321428Y-46204819D02*
X102416666Y-46252438D01*
X102416666Y-46252438D02*
X102464285Y-46300057D01*
X102464285Y-46300057D02*
X102511904Y-46395295D01*
X102511904Y-46395295D02*
X102511904Y-46442914D01*
X102511904Y-46442914D02*
X102464285Y-46538152D01*
X102464285Y-46538152D02*
X102416666Y-46585771D01*
X102416666Y-46585771D02*
X102321428Y-46633390D01*
X102321428Y-46633390D02*
X102130952Y-46633390D01*
X102130952Y-46633390D02*
X102035714Y-46681009D01*
X102035714Y-46681009D02*
X101988095Y-46728628D01*
X101988095Y-46728628D02*
X101940476Y-46823866D01*
X101940476Y-46823866D02*
X101940476Y-47014342D01*
X101940476Y-47014342D02*
X101988095Y-47109580D01*
X101988095Y-47109580D02*
X102035714Y-47157200D01*
X102035714Y-47157200D02*
X102130952Y-47204819D01*
X102130952Y-47204819D02*
X102321428Y-47204819D01*
X102321428Y-47204819D02*
X102416666Y-47157200D01*
X102416666Y-47157200D02*
X102464285Y-47109580D01*
X102464285Y-47109580D02*
X102511904Y-47014342D01*
X102511904Y-47014342D02*
X102511904Y-46823866D01*
X102511904Y-46823866D02*
X102464285Y-46728628D01*
X102464285Y-46728628D02*
X102416666Y-46681009D01*
X102416666Y-46681009D02*
X102321428Y-46633390D01*
X102333333Y-57704819D02*
X102000000Y-57228628D01*
X101761905Y-57704819D02*
X101761905Y-56704819D01*
X101761905Y-56704819D02*
X102142857Y-56704819D01*
X102142857Y-56704819D02*
X102238095Y-56752438D01*
X102238095Y-56752438D02*
X102285714Y-56800057D01*
X102285714Y-56800057D02*
X102333333Y-56895295D01*
X102333333Y-56895295D02*
X102333333Y-57038152D01*
X102333333Y-57038152D02*
X102285714Y-57133390D01*
X102285714Y-57133390D02*
X102238095Y-57181009D01*
X102238095Y-57181009D02*
X102142857Y-57228628D01*
X102142857Y-57228628D02*
X101761905Y-57228628D01*
X103238095Y-56704819D02*
X102761905Y-56704819D01*
X102761905Y-56704819D02*
X102714286Y-57181009D01*
X102714286Y-57181009D02*
X102761905Y-57133390D01*
X102761905Y-57133390D02*
X102857143Y-57085771D01*
X102857143Y-57085771D02*
X103095238Y-57085771D01*
X103095238Y-57085771D02*
X103190476Y-57133390D01*
X103190476Y-57133390D02*
X103238095Y-57181009D01*
X103238095Y-57181009D02*
X103285714Y-57276247D01*
X103285714Y-57276247D02*
X103285714Y-57514342D01*
X103285714Y-57514342D02*
X103238095Y-57609580D01*
X103238095Y-57609580D02*
X103190476Y-57657200D01*
X103190476Y-57657200D02*
X103095238Y-57704819D01*
X103095238Y-57704819D02*
X102857143Y-57704819D01*
X102857143Y-57704819D02*
X102761905Y-57657200D01*
X102761905Y-57657200D02*
X102714286Y-57609580D01*
X114357142Y-81454819D02*
X113880952Y-81454819D01*
X113880952Y-81454819D02*
X113880952Y-80454819D01*
X115214285Y-81454819D02*
X114642857Y-81454819D01*
X114928571Y-81454819D02*
X114928571Y-80454819D01*
X114928571Y-80454819D02*
X114833333Y-80597676D01*
X114833333Y-80597676D02*
X114738095Y-80692914D01*
X114738095Y-80692914D02*
X114642857Y-80740533D01*
X115595238Y-80550057D02*
X115642857Y-80502438D01*
X115642857Y-80502438D02*
X115738095Y-80454819D01*
X115738095Y-80454819D02*
X115976190Y-80454819D01*
X115976190Y-80454819D02*
X116071428Y-80502438D01*
X116071428Y-80502438D02*
X116119047Y-80550057D01*
X116119047Y-80550057D02*
X116166666Y-80645295D01*
X116166666Y-80645295D02*
X116166666Y-80740533D01*
X116166666Y-80740533D02*
X116119047Y-80883390D01*
X116119047Y-80883390D02*
X115547619Y-81454819D01*
X115547619Y-81454819D02*
X116166666Y-81454819D01*
X110109580Y-56892857D02*
X110157200Y-56940476D01*
X110157200Y-56940476D02*
X110204819Y-57083333D01*
X110204819Y-57083333D02*
X110204819Y-57178571D01*
X110204819Y-57178571D02*
X110157200Y-57321428D01*
X110157200Y-57321428D02*
X110061961Y-57416666D01*
X110061961Y-57416666D02*
X109966723Y-57464285D01*
X109966723Y-57464285D02*
X109776247Y-57511904D01*
X109776247Y-57511904D02*
X109633390Y-57511904D01*
X109633390Y-57511904D02*
X109442914Y-57464285D01*
X109442914Y-57464285D02*
X109347676Y-57416666D01*
X109347676Y-57416666D02*
X109252438Y-57321428D01*
X109252438Y-57321428D02*
X109204819Y-57178571D01*
X109204819Y-57178571D02*
X109204819Y-57083333D01*
X109204819Y-57083333D02*
X109252438Y-56940476D01*
X109252438Y-56940476D02*
X109300057Y-56892857D01*
X110204819Y-55940476D02*
X110204819Y-56511904D01*
X110204819Y-56226190D02*
X109204819Y-56226190D01*
X109204819Y-56226190D02*
X109347676Y-56321428D01*
X109347676Y-56321428D02*
X109442914Y-56416666D01*
X109442914Y-56416666D02*
X109490533Y-56511904D01*
X109204819Y-55607142D02*
X109204819Y-54988095D01*
X109204819Y-54988095D02*
X109585771Y-55321428D01*
X109585771Y-55321428D02*
X109585771Y-55178571D01*
X109585771Y-55178571D02*
X109633390Y-55083333D01*
X109633390Y-55083333D02*
X109681009Y-55035714D01*
X109681009Y-55035714D02*
X109776247Y-54988095D01*
X109776247Y-54988095D02*
X110014342Y-54988095D01*
X110014342Y-54988095D02*
X110109580Y-55035714D01*
X110109580Y-55035714D02*
X110157200Y-55083333D01*
X110157200Y-55083333D02*
X110204819Y-55178571D01*
X110204819Y-55178571D02*
X110204819Y-55464285D01*
X110204819Y-55464285D02*
X110157200Y-55559523D01*
X110157200Y-55559523D02*
X110109580Y-55607142D01*
X83083333Y-50109580D02*
X83035714Y-50157200D01*
X83035714Y-50157200D02*
X82892857Y-50204819D01*
X82892857Y-50204819D02*
X82797619Y-50204819D01*
X82797619Y-50204819D02*
X82654762Y-50157200D01*
X82654762Y-50157200D02*
X82559524Y-50061961D01*
X82559524Y-50061961D02*
X82511905Y-49966723D01*
X82511905Y-49966723D02*
X82464286Y-49776247D01*
X82464286Y-49776247D02*
X82464286Y-49633390D01*
X82464286Y-49633390D02*
X82511905Y-49442914D01*
X82511905Y-49442914D02*
X82559524Y-49347676D01*
X82559524Y-49347676D02*
X82654762Y-49252438D01*
X82654762Y-49252438D02*
X82797619Y-49204819D01*
X82797619Y-49204819D02*
X82892857Y-49204819D01*
X82892857Y-49204819D02*
X83035714Y-49252438D01*
X83035714Y-49252438D02*
X83083333Y-49300057D01*
X83416667Y-49204819D02*
X84035714Y-49204819D01*
X84035714Y-49204819D02*
X83702381Y-49585771D01*
X83702381Y-49585771D02*
X83845238Y-49585771D01*
X83845238Y-49585771D02*
X83940476Y-49633390D01*
X83940476Y-49633390D02*
X83988095Y-49681009D01*
X83988095Y-49681009D02*
X84035714Y-49776247D01*
X84035714Y-49776247D02*
X84035714Y-50014342D01*
X84035714Y-50014342D02*
X83988095Y-50109580D01*
X83988095Y-50109580D02*
X83940476Y-50157200D01*
X83940476Y-50157200D02*
X83845238Y-50204819D01*
X83845238Y-50204819D02*
X83559524Y-50204819D01*
X83559524Y-50204819D02*
X83464286Y-50157200D01*
X83464286Y-50157200D02*
X83416667Y-50109580D01*
X108359580Y-69392857D02*
X108407200Y-69440476D01*
X108407200Y-69440476D02*
X108454819Y-69583333D01*
X108454819Y-69583333D02*
X108454819Y-69678571D01*
X108454819Y-69678571D02*
X108407200Y-69821428D01*
X108407200Y-69821428D02*
X108311961Y-69916666D01*
X108311961Y-69916666D02*
X108216723Y-69964285D01*
X108216723Y-69964285D02*
X108026247Y-70011904D01*
X108026247Y-70011904D02*
X107883390Y-70011904D01*
X107883390Y-70011904D02*
X107692914Y-69964285D01*
X107692914Y-69964285D02*
X107597676Y-69916666D01*
X107597676Y-69916666D02*
X107502438Y-69821428D01*
X107502438Y-69821428D02*
X107454819Y-69678571D01*
X107454819Y-69678571D02*
X107454819Y-69583333D01*
X107454819Y-69583333D02*
X107502438Y-69440476D01*
X107502438Y-69440476D02*
X107550057Y-69392857D01*
X107454819Y-69059523D02*
X107454819Y-68440476D01*
X107454819Y-68440476D02*
X107835771Y-68773809D01*
X107835771Y-68773809D02*
X107835771Y-68630952D01*
X107835771Y-68630952D02*
X107883390Y-68535714D01*
X107883390Y-68535714D02*
X107931009Y-68488095D01*
X107931009Y-68488095D02*
X108026247Y-68440476D01*
X108026247Y-68440476D02*
X108264342Y-68440476D01*
X108264342Y-68440476D02*
X108359580Y-68488095D01*
X108359580Y-68488095D02*
X108407200Y-68535714D01*
X108407200Y-68535714D02*
X108454819Y-68630952D01*
X108454819Y-68630952D02*
X108454819Y-68916666D01*
X108454819Y-68916666D02*
X108407200Y-69011904D01*
X108407200Y-69011904D02*
X108359580Y-69059523D01*
X107550057Y-68059523D02*
X107502438Y-68011904D01*
X107502438Y-68011904D02*
X107454819Y-67916666D01*
X107454819Y-67916666D02*
X107454819Y-67678571D01*
X107454819Y-67678571D02*
X107502438Y-67583333D01*
X107502438Y-67583333D02*
X107550057Y-67535714D01*
X107550057Y-67535714D02*
X107645295Y-67488095D01*
X107645295Y-67488095D02*
X107740533Y-67488095D01*
X107740533Y-67488095D02*
X107883390Y-67535714D01*
X107883390Y-67535714D02*
X108454819Y-68107142D01*
X108454819Y-68107142D02*
X108454819Y-67488095D01*
X84833333Y-59454819D02*
X84357143Y-59454819D01*
X84357143Y-59454819D02*
X84357143Y-58454819D01*
X85690476Y-59454819D02*
X85119048Y-59454819D01*
X85404762Y-59454819D02*
X85404762Y-58454819D01*
X85404762Y-58454819D02*
X85309524Y-58597676D01*
X85309524Y-58597676D02*
X85214286Y-58692914D01*
X85214286Y-58692914D02*
X85119048Y-58740533D01*
X89833333Y-52204819D02*
X89500000Y-51728628D01*
X89261905Y-52204819D02*
X89261905Y-51204819D01*
X89261905Y-51204819D02*
X89642857Y-51204819D01*
X89642857Y-51204819D02*
X89738095Y-51252438D01*
X89738095Y-51252438D02*
X89785714Y-51300057D01*
X89785714Y-51300057D02*
X89833333Y-51395295D01*
X89833333Y-51395295D02*
X89833333Y-51538152D01*
X89833333Y-51538152D02*
X89785714Y-51633390D01*
X89785714Y-51633390D02*
X89738095Y-51681009D01*
X89738095Y-51681009D02*
X89642857Y-51728628D01*
X89642857Y-51728628D02*
X89261905Y-51728628D01*
X90690476Y-51538152D02*
X90690476Y-52204819D01*
X90452381Y-51157200D02*
X90214286Y-51871485D01*
X90214286Y-51871485D02*
X90833333Y-51871485D01*
X106704819Y-63416666D02*
X106228628Y-63749999D01*
X106704819Y-63988094D02*
X105704819Y-63988094D01*
X105704819Y-63988094D02*
X105704819Y-63607142D01*
X105704819Y-63607142D02*
X105752438Y-63511904D01*
X105752438Y-63511904D02*
X105800057Y-63464285D01*
X105800057Y-63464285D02*
X105895295Y-63416666D01*
X105895295Y-63416666D02*
X106038152Y-63416666D01*
X106038152Y-63416666D02*
X106133390Y-63464285D01*
X106133390Y-63464285D02*
X106181009Y-63511904D01*
X106181009Y-63511904D02*
X106228628Y-63607142D01*
X106228628Y-63607142D02*
X106228628Y-63988094D01*
X105704819Y-63083332D02*
X105704819Y-62464285D01*
X105704819Y-62464285D02*
X106085771Y-62797618D01*
X106085771Y-62797618D02*
X106085771Y-62654761D01*
X106085771Y-62654761D02*
X106133390Y-62559523D01*
X106133390Y-62559523D02*
X106181009Y-62511904D01*
X106181009Y-62511904D02*
X106276247Y-62464285D01*
X106276247Y-62464285D02*
X106514342Y-62464285D01*
X106514342Y-62464285D02*
X106609580Y-62511904D01*
X106609580Y-62511904D02*
X106657200Y-62559523D01*
X106657200Y-62559523D02*
X106704819Y-62654761D01*
X106704819Y-62654761D02*
X106704819Y-62940475D01*
X106704819Y-62940475D02*
X106657200Y-63035713D01*
X106657200Y-63035713D02*
X106609580Y-63083332D01*
X114357142Y-67454819D02*
X113880952Y-67454819D01*
X113880952Y-67454819D02*
X113880952Y-66454819D01*
X115214285Y-67454819D02*
X114642857Y-67454819D01*
X114928571Y-67454819D02*
X114928571Y-66454819D01*
X114928571Y-66454819D02*
X114833333Y-66597676D01*
X114833333Y-66597676D02*
X114738095Y-66692914D01*
X114738095Y-66692914D02*
X114642857Y-66740533D01*
X115547619Y-66454819D02*
X116166666Y-66454819D01*
X116166666Y-66454819D02*
X115833333Y-66835771D01*
X115833333Y-66835771D02*
X115976190Y-66835771D01*
X115976190Y-66835771D02*
X116071428Y-66883390D01*
X116071428Y-66883390D02*
X116119047Y-66931009D01*
X116119047Y-66931009D02*
X116166666Y-67026247D01*
X116166666Y-67026247D02*
X116166666Y-67264342D01*
X116166666Y-67264342D02*
X116119047Y-67359580D01*
X116119047Y-67359580D02*
X116071428Y-67407200D01*
X116071428Y-67407200D02*
X115976190Y-67454819D01*
X115976190Y-67454819D02*
X115690476Y-67454819D01*
X115690476Y-67454819D02*
X115595238Y-67407200D01*
X115595238Y-67407200D02*
X115547619Y-67359580D01*
X93204819Y-63142857D02*
X92728628Y-63476190D01*
X93204819Y-63714285D02*
X92204819Y-63714285D01*
X92204819Y-63714285D02*
X92204819Y-63333333D01*
X92204819Y-63333333D02*
X92252438Y-63238095D01*
X92252438Y-63238095D02*
X92300057Y-63190476D01*
X92300057Y-63190476D02*
X92395295Y-63142857D01*
X92395295Y-63142857D02*
X92538152Y-63142857D01*
X92538152Y-63142857D02*
X92633390Y-63190476D01*
X92633390Y-63190476D02*
X92681009Y-63238095D01*
X92681009Y-63238095D02*
X92728628Y-63333333D01*
X92728628Y-63333333D02*
X92728628Y-63714285D01*
X93204819Y-62190476D02*
X93204819Y-62761904D01*
X93204819Y-62476190D02*
X92204819Y-62476190D01*
X92204819Y-62476190D02*
X92347676Y-62571428D01*
X92347676Y-62571428D02*
X92442914Y-62666666D01*
X92442914Y-62666666D02*
X92490533Y-62761904D01*
X92300057Y-61809523D02*
X92252438Y-61761904D01*
X92252438Y-61761904D02*
X92204819Y-61666666D01*
X92204819Y-61666666D02*
X92204819Y-61428571D01*
X92204819Y-61428571D02*
X92252438Y-61333333D01*
X92252438Y-61333333D02*
X92300057Y-61285714D01*
X92300057Y-61285714D02*
X92395295Y-61238095D01*
X92395295Y-61238095D02*
X92490533Y-61238095D01*
X92490533Y-61238095D02*
X92633390Y-61285714D01*
X92633390Y-61285714D02*
X93204819Y-61857142D01*
X93204819Y-61857142D02*
X93204819Y-61238095D01*
X83609580Y-53666666D02*
X83657200Y-53714285D01*
X83657200Y-53714285D02*
X83704819Y-53857142D01*
X83704819Y-53857142D02*
X83704819Y-53952380D01*
X83704819Y-53952380D02*
X83657200Y-54095237D01*
X83657200Y-54095237D02*
X83561961Y-54190475D01*
X83561961Y-54190475D02*
X83466723Y-54238094D01*
X83466723Y-54238094D02*
X83276247Y-54285713D01*
X83276247Y-54285713D02*
X83133390Y-54285713D01*
X83133390Y-54285713D02*
X82942914Y-54238094D01*
X82942914Y-54238094D02*
X82847676Y-54190475D01*
X82847676Y-54190475D02*
X82752438Y-54095237D01*
X82752438Y-54095237D02*
X82704819Y-53952380D01*
X82704819Y-53952380D02*
X82704819Y-53857142D01*
X82704819Y-53857142D02*
X82752438Y-53714285D01*
X82752438Y-53714285D02*
X82800057Y-53666666D01*
X82800057Y-53285713D02*
X82752438Y-53238094D01*
X82752438Y-53238094D02*
X82704819Y-53142856D01*
X82704819Y-53142856D02*
X82704819Y-52904761D01*
X82704819Y-52904761D02*
X82752438Y-52809523D01*
X82752438Y-52809523D02*
X82800057Y-52761904D01*
X82800057Y-52761904D02*
X82895295Y-52714285D01*
X82895295Y-52714285D02*
X82990533Y-52714285D01*
X82990533Y-52714285D02*
X83133390Y-52761904D01*
X83133390Y-52761904D02*
X83704819Y-53333332D01*
X83704819Y-53333332D02*
X83704819Y-52714285D01*
X105083333Y-54954819D02*
X104607143Y-54954819D01*
X104607143Y-54954819D02*
X104607143Y-53954819D01*
X105892857Y-53954819D02*
X105416667Y-53954819D01*
X105416667Y-53954819D02*
X105369048Y-54431009D01*
X105369048Y-54431009D02*
X105416667Y-54383390D01*
X105416667Y-54383390D02*
X105511905Y-54335771D01*
X105511905Y-54335771D02*
X105750000Y-54335771D01*
X105750000Y-54335771D02*
X105845238Y-54383390D01*
X105845238Y-54383390D02*
X105892857Y-54431009D01*
X105892857Y-54431009D02*
X105940476Y-54526247D01*
X105940476Y-54526247D02*
X105940476Y-54764342D01*
X105940476Y-54764342D02*
X105892857Y-54859580D01*
X105892857Y-54859580D02*
X105845238Y-54907200D01*
X105845238Y-54907200D02*
X105750000Y-54954819D01*
X105750000Y-54954819D02*
X105511905Y-54954819D01*
X105511905Y-54954819D02*
X105416667Y-54907200D01*
X105416667Y-54907200D02*
X105369048Y-54859580D01*
X93109580Y-69142857D02*
X93157200Y-69190476D01*
X93157200Y-69190476D02*
X93204819Y-69333333D01*
X93204819Y-69333333D02*
X93204819Y-69428571D01*
X93204819Y-69428571D02*
X93157200Y-69571428D01*
X93157200Y-69571428D02*
X93061961Y-69666666D01*
X93061961Y-69666666D02*
X92966723Y-69714285D01*
X92966723Y-69714285D02*
X92776247Y-69761904D01*
X92776247Y-69761904D02*
X92633390Y-69761904D01*
X92633390Y-69761904D02*
X92442914Y-69714285D01*
X92442914Y-69714285D02*
X92347676Y-69666666D01*
X92347676Y-69666666D02*
X92252438Y-69571428D01*
X92252438Y-69571428D02*
X92204819Y-69428571D01*
X92204819Y-69428571D02*
X92204819Y-69333333D01*
X92204819Y-69333333D02*
X92252438Y-69190476D01*
X92252438Y-69190476D02*
X92300057Y-69142857D01*
X92300057Y-68761904D02*
X92252438Y-68714285D01*
X92252438Y-68714285D02*
X92204819Y-68619047D01*
X92204819Y-68619047D02*
X92204819Y-68380952D01*
X92204819Y-68380952D02*
X92252438Y-68285714D01*
X92252438Y-68285714D02*
X92300057Y-68238095D01*
X92300057Y-68238095D02*
X92395295Y-68190476D01*
X92395295Y-68190476D02*
X92490533Y-68190476D01*
X92490533Y-68190476D02*
X92633390Y-68238095D01*
X92633390Y-68238095D02*
X93204819Y-68809523D01*
X93204819Y-68809523D02*
X93204819Y-68190476D01*
X92538152Y-67333333D02*
X93204819Y-67333333D01*
X92157200Y-67571428D02*
X92871485Y-67809523D01*
X92871485Y-67809523D02*
X92871485Y-67190476D01*
D12*
X99475000Y-59700000D02*
X100275000Y-59700000D01*
X101575000Y-59150000D02*
X101575000Y-59150000D01*
X101575000Y-59050000D02*
X101575000Y-59050000D01*
X99225000Y-58650000D02*
X99225000Y-57850000D01*
X100525000Y-58250000D02*
X100525000Y-57850000D01*
X99475000Y-56800000D02*
X100275000Y-56800000D01*
X100275000Y-56800000D02*
X100275000Y-56800000D01*
X101575000Y-59150000D02*
G75*
G02*
X101575000Y-59050000I0J50000D01*
G01*
X101575000Y-59050000D02*
G75*
G02*
X101575000Y-59150000I0J-50000D01*
G01*
X89850000Y-73650000D02*
X90650000Y-73650000D01*
X91950000Y-73100000D02*
X91950000Y-73100000D01*
X91950000Y-73000000D02*
X91950000Y-73000000D01*
X89600000Y-72600000D02*
X89600000Y-71800000D01*
X90900000Y-72200000D02*
X90900000Y-71800000D01*
X89850000Y-70750000D02*
X90650000Y-70750000D01*
X90650000Y-70750000D02*
X90650000Y-70750000D01*
X91950000Y-73100000D02*
G75*
G02*
X91950000Y-73000000I0J50000D01*
G01*
X91950000Y-73000000D02*
G75*
G02*
X91950000Y-73100000I0J-50000D01*
G01*
D13*
X107490000Y-85640580D02*
X107490000Y-85359420D01*
X108510000Y-85640580D02*
X108510000Y-85359420D01*
X107490000Y-82085420D02*
X107490000Y-82366580D01*
X108510000Y-82085420D02*
X108510000Y-82366580D01*
D12*
X81000000Y-87000000D02*
X93000000Y-87000000D01*
X93000000Y-75000000D01*
X81000000Y-75000000D01*
X81000000Y-87000000D01*
D13*
X96740000Y-49615580D02*
X96740000Y-49334420D01*
X97760000Y-49615580D02*
X97760000Y-49334420D01*
X101386252Y-51540000D02*
X98613748Y-51540000D01*
X101386252Y-54960000D02*
X98613748Y-54960000D01*
X84990000Y-72884420D02*
X84990000Y-73165580D01*
X86010000Y-72884420D02*
X86010000Y-73165580D01*
D14*
X86930000Y-52590000D02*
X95824000Y-52590000D01*
X86930000Y-57389000D02*
X86930000Y-52590000D01*
X93940000Y-51849000D02*
X93940000Y-51849000D01*
X94140000Y-51849000D02*
X94140000Y-51849000D01*
X95824000Y-52590000D02*
X95824000Y-57389000D01*
X95824000Y-57389000D02*
X86930000Y-57389000D01*
X93940000Y-51849000D02*
G75*
G02*
X94140000Y-51849000I100000J0D01*
G01*
X94140000Y-51849000D02*
G75*
G02*
X93940000Y-51849000I-100000J0D01*
G01*
D13*
X110640580Y-59490000D02*
X110359420Y-59490000D01*
X110640580Y-60510000D02*
X110359420Y-60510000D01*
X105609420Y-59490000D02*
X105890580Y-59490000D01*
X105609420Y-60510000D02*
X105890580Y-60510000D01*
D12*
X121000000Y-47000000D02*
X109000000Y-47000000D01*
X109000000Y-59000000D01*
X121000000Y-59000000D01*
X121000000Y-47000000D01*
D13*
X93477500Y-71262742D02*
X93477500Y-71737258D01*
X94522500Y-71262742D02*
X94522500Y-71737258D01*
X86390580Y-69990000D02*
X86109420Y-69990000D01*
X86390580Y-71010000D02*
X86109420Y-71010000D01*
X113715580Y-73490000D02*
X113434420Y-73490000D01*
X113715580Y-74510000D02*
X113434420Y-74510000D01*
X113890580Y-59490000D02*
X113609420Y-59490000D01*
X113890580Y-60510000D02*
X113609420Y-60510000D01*
X99740000Y-49334420D02*
X99740000Y-49615580D01*
X100760000Y-49334420D02*
X100760000Y-49615580D01*
X93477500Y-65737258D02*
X93477500Y-65262742D01*
X94522500Y-65737258D02*
X94522500Y-65262742D01*
X84080000Y-66855000D02*
X82750000Y-66855000D01*
X84080000Y-65525000D02*
X84080000Y-66855000D01*
X84080000Y-64255000D02*
X84080000Y-61655000D01*
X84080000Y-64255000D02*
X81420000Y-64255000D01*
X84080000Y-61655000D02*
X81420000Y-61655000D01*
X81420000Y-64255000D02*
X81420000Y-61655000D01*
X95737258Y-58977500D02*
X95262742Y-58977500D01*
X95737258Y-60022500D02*
X95262742Y-60022500D01*
X106859420Y-73490000D02*
X107140580Y-73490000D01*
X106859420Y-74510000D02*
X107140580Y-74510000D01*
D12*
X81900000Y-60900000D02*
X81900000Y-60900000D01*
X82000000Y-60900000D02*
X82000000Y-60900000D01*
X81900000Y-60900000D02*
G75*
G02*
X82000000Y-60900000I50000J0D01*
G01*
X82000000Y-60900000D02*
G75*
G02*
X81900000Y-60900000I-50000J0D01*
G01*
D13*
X91863748Y-47540000D02*
X94636252Y-47540000D01*
X91863748Y-50960000D02*
X94636252Y-50960000D01*
X107487258Y-57977500D02*
X107012742Y-57977500D01*
X107487258Y-59022500D02*
X107012742Y-59022500D01*
D14*
X86349000Y-61360000D02*
X86349000Y-61360000D01*
X86349000Y-61560000D02*
X86349000Y-61560000D01*
X87090000Y-59676000D02*
X91889000Y-59676000D01*
X87090000Y-68570000D02*
X87090000Y-59676000D01*
X91889000Y-59676000D02*
X91889000Y-68570000D01*
X91889000Y-68570000D02*
X87090000Y-68570000D01*
X86349000Y-61360000D02*
G75*
G02*
X86349000Y-61560000I0J-100000D01*
G01*
X86349000Y-61560000D02*
G75*
G02*
X86349000Y-61360000I0J100000D01*
G01*
D12*
X107000000Y-61000000D02*
X95000000Y-61000000D01*
X95000000Y-73000000D01*
X107000000Y-73000000D01*
X107000000Y-61000000D01*
D13*
X107490000Y-53390580D02*
X107490000Y-53109420D01*
X108510000Y-53390580D02*
X108510000Y-53109420D01*
X84477500Y-50487258D02*
X84477500Y-50012742D01*
X85522500Y-50487258D02*
X85522500Y-50012742D01*
X93490000Y-76359420D02*
X93490000Y-76640580D01*
X94510000Y-76359420D02*
X94510000Y-76640580D01*
X87227500Y-48737258D02*
X87227500Y-48262742D01*
X88272500Y-48737258D02*
X88272500Y-48262742D01*
D12*
X107000000Y-87000000D02*
X95000000Y-87000000D01*
X95000000Y-75000000D01*
X107000000Y-75000000D01*
X107000000Y-87000000D01*
D13*
X94512742Y-73477500D02*
X94987258Y-73477500D01*
X94512742Y-74522500D02*
X94987258Y-74522500D01*
X116715580Y-73490000D02*
X116434420Y-73490000D01*
X116715580Y-74510000D02*
X116434420Y-74510000D01*
X88740000Y-48640580D02*
X88740000Y-48359420D01*
X89760000Y-48640580D02*
X89760000Y-48359420D01*
X107740000Y-48890580D02*
X107740000Y-48609420D01*
X108760000Y-48890580D02*
X108760000Y-48609420D01*
X119434420Y-73490000D02*
X119715580Y-73490000D01*
X119434420Y-74510000D02*
X119715580Y-74510000D01*
X86490000Y-73165580D02*
X86490000Y-72884420D01*
X87510000Y-73165580D02*
X87510000Y-72884420D01*
X105636252Y-47540000D02*
X102863748Y-47540000D01*
X105636252Y-50960000D02*
X102863748Y-50960000D01*
X103609420Y-73490000D02*
X103890580Y-73490000D01*
X103609420Y-74510000D02*
X103890580Y-74510000D01*
X98240000Y-49334420D02*
X98240000Y-49615580D01*
X99260000Y-49334420D02*
X99260000Y-49615580D01*
X104012742Y-57977500D02*
X104487258Y-57977500D01*
X104012742Y-59022500D02*
X104487258Y-59022500D01*
D12*
X109000000Y-87000000D02*
X121000000Y-87000000D01*
X121000000Y-75000000D01*
X109000000Y-75000000D01*
X109000000Y-87000000D01*
D13*
X107490000Y-56109420D02*
X107490000Y-56390580D01*
X108510000Y-56109420D02*
X108510000Y-56390580D01*
X82890580Y-50490000D02*
X82609420Y-50490000D01*
X82890580Y-51510000D02*
X82609420Y-51510000D01*
X107490000Y-65890580D02*
X107490000Y-65609420D01*
X108510000Y-65890580D02*
X108510000Y-65609420D01*
X82647936Y-55390000D02*
X83852064Y-55390000D01*
X82647936Y-58110000D02*
X83852064Y-58110000D01*
X87987258Y-50227500D02*
X87512742Y-50227500D01*
X87987258Y-51272500D02*
X87512742Y-51272500D01*
X107477500Y-62012742D02*
X107477500Y-62487258D01*
X108522500Y-62012742D02*
X108522500Y-62487258D01*
D12*
X109000000Y-73000000D02*
X121000000Y-73000000D01*
X121000000Y-61000000D01*
X109000000Y-61000000D01*
X109000000Y-73000000D01*
D13*
X93477500Y-62262742D02*
X93477500Y-62737258D01*
X94522500Y-62262742D02*
X94522500Y-62737258D01*
X81500000Y-55010000D02*
X85885000Y-55010000D01*
X85885000Y-51990000D02*
X81500000Y-51990000D01*
X85885000Y-55010000D02*
X85885000Y-51990000D01*
X103540000Y-55886252D02*
X103540000Y-53113748D01*
X106960000Y-55886252D02*
X106960000Y-53113748D01*
X93490000Y-68359420D02*
X93490000Y-68640580D01*
X94510000Y-68359420D02*
X94510000Y-68640580D01*
%LPC*%
D14*
X80000000Y-46250000D02*
X80000000Y-47250000D01*
X79500000Y-47750000D01*
X78250000Y-47750000D01*
X78250000Y-45250000D01*
X81000000Y-45250000D01*
X80000000Y-46250000D01*
G36*
X80000000Y-46250000D02*
G01*
X80000000Y-47250000D01*
X79500000Y-47750000D01*
X78250000Y-47750000D01*
X78250000Y-45250000D01*
X81000000Y-45250000D01*
X80000000Y-46250000D01*
G37*
X97250000Y-45250000D02*
X96750000Y-45750000D01*
X78750000Y-45750000D01*
X78250000Y-45250000D01*
X78250000Y-44000000D01*
X97250000Y-44000000D01*
X97250000Y-45250000D01*
G36*
X97250000Y-45250000D02*
G01*
X96750000Y-45750000D01*
X78750000Y-45750000D01*
X78250000Y-45250000D01*
X78250000Y-44000000D01*
X97250000Y-44000000D01*
X97250000Y-45250000D01*
G37*
X123500000Y-89250000D02*
X78250000Y-89250000D01*
X78250000Y-71750000D01*
X79500000Y-71750000D01*
X80000000Y-72250000D01*
X80000000Y-87000000D01*
X80500000Y-87500000D01*
X121250000Y-87500000D01*
X121750000Y-87000000D01*
X121750000Y-46250000D01*
X121250000Y-45750000D01*
X100750000Y-45750000D01*
X100250000Y-45250000D01*
X100250000Y-44000000D01*
X123500000Y-44000000D01*
X123500000Y-89250000D01*
G36*
X123500000Y-89250000D02*
G01*
X78250000Y-89250000D01*
X78250000Y-71750000D01*
X79500000Y-71750000D01*
X80000000Y-72250000D01*
X80000000Y-87000000D01*
X80500000Y-87500000D01*
X121250000Y-87500000D01*
X121750000Y-87000000D01*
X121750000Y-46250000D01*
X121250000Y-45750000D01*
X100750000Y-45750000D01*
X100250000Y-45250000D01*
X100250000Y-44000000D01*
X123500000Y-44000000D01*
X123500000Y-89250000D01*
G37*
X80000000Y-51250000D02*
X80000000Y-68250000D01*
X79500000Y-68750000D01*
X78250000Y-68750000D01*
X78250000Y-50750000D01*
X79500000Y-50750000D01*
X80000000Y-51250000D01*
G36*
X80000000Y-51250000D02*
G01*
X80000000Y-68250000D01*
X79500000Y-68750000D01*
X78250000Y-68750000D01*
X78250000Y-50750000D01*
X79500000Y-50750000D01*
X80000000Y-51250000D01*
G37*
D15*
X100875000Y-59050000D03*
D16*
X100875000Y-57250000D03*
X98875000Y-57250000D03*
X98875000Y-59250000D03*
D15*
X91250000Y-73000000D03*
D16*
X91250000Y-71200000D03*
X89250000Y-71200000D03*
X89250000Y-73200000D03*
D17*
X108000000Y-86275000D03*
X108000000Y-84725000D03*
D18*
X108000000Y-81451000D03*
X108000000Y-83001000D03*
D19*
X90500000Y-77500000D03*
X83500000Y-84500000D03*
X83500000Y-81000000D03*
X83500000Y-77500000D03*
D20*
X87000000Y-86000000D03*
D19*
X90500000Y-84500000D03*
X90500000Y-81000000D03*
D20*
X87000000Y-76000000D03*
D17*
X97250000Y-50250000D03*
X97250000Y-48700000D03*
D21*
X102225000Y-53250000D03*
X97775000Y-53250000D03*
D18*
X85500000Y-72250000D03*
X85500000Y-73800000D03*
D22*
X94040000Y-55000000D03*
X91500000Y-55000000D03*
X88960000Y-55000000D03*
D23*
X111275000Y-60000000D03*
X109725000Y-60000000D03*
D24*
X104975000Y-60000000D03*
X106525000Y-60000000D03*
D19*
X111500000Y-56500000D03*
X118500000Y-49500000D03*
X118500000Y-53000000D03*
X118500000Y-56500000D03*
D20*
X115000000Y-48000000D03*
D19*
X111500000Y-49500000D03*
X111500000Y-53000000D03*
D20*
X115000000Y-58000000D03*
D25*
X94000000Y-70675000D03*
X94000000Y-72325000D03*
D23*
X87025000Y-70500000D03*
X85475000Y-70500000D03*
X114350000Y-74000000D03*
X112800000Y-74000000D03*
X114525000Y-60000000D03*
X112975000Y-60000000D03*
D18*
X100250000Y-48700000D03*
X100250000Y-50250000D03*
D26*
X94000000Y-66325000D03*
X94000000Y-64675000D03*
D27*
X82750000Y-65525000D03*
D28*
X82750000Y-62985000D03*
D29*
X96325000Y-59500000D03*
X94675000Y-59500000D03*
D24*
X106225000Y-74000000D03*
X107775000Y-74000000D03*
D30*
X82750000Y-60750000D03*
D31*
X82125000Y-59750000D03*
X83375000Y-59750000D03*
D30*
X82750000Y-58750000D03*
D32*
X91025000Y-49250000D03*
X95475000Y-49250000D03*
D33*
X80250000Y-49250000D03*
D29*
X108075000Y-58500000D03*
X106425000Y-58500000D03*
D22*
X89500000Y-61460000D03*
X89500000Y-64000000D03*
X89500000Y-66540000D03*
D19*
X97500000Y-70500000D03*
X104500000Y-70500000D03*
D20*
X101000000Y-62000000D03*
D19*
X104500000Y-63500000D03*
X97500000Y-63500000D03*
X104500000Y-67000000D03*
X97500000Y-67000000D03*
D20*
X101000000Y-72000000D03*
D17*
X108000000Y-54025000D03*
X108000000Y-52475000D03*
D26*
X85000000Y-51075000D03*
X85000000Y-49425000D03*
D18*
X94000000Y-75725000D03*
X94000000Y-77275000D03*
D26*
X87750000Y-49325000D03*
X87750000Y-47675000D03*
D19*
X104500000Y-77500000D03*
X104500000Y-84500000D03*
D34*
X106000000Y-81000000D03*
D19*
X101000000Y-84500000D03*
X101000000Y-77500000D03*
X97500000Y-84500000D03*
X97500000Y-77500000D03*
D34*
X96000000Y-81000000D03*
D35*
X93925000Y-74000000D03*
X95575000Y-74000000D03*
D23*
X117350000Y-74000000D03*
X115800000Y-74000000D03*
D17*
X89250000Y-49275000D03*
X89250000Y-47725000D03*
X108250000Y-49525000D03*
X108250000Y-47975000D03*
D24*
X118800000Y-74000000D03*
X120350000Y-74000000D03*
D17*
X87000000Y-73800000D03*
X87000000Y-72250000D03*
D21*
X106475000Y-49250000D03*
X102025000Y-49250000D03*
D33*
X80250000Y-70250000D03*
D24*
X102975000Y-74000000D03*
X104525000Y-74000000D03*
D18*
X98750000Y-48700000D03*
X98750000Y-50250000D03*
D35*
X103425000Y-58500000D03*
X105075000Y-58500000D03*
D36*
X98750000Y-46000000D03*
D19*
X118500000Y-77500000D03*
X111500000Y-84500000D03*
D20*
X115000000Y-86000000D03*
D19*
X118500000Y-84500000D03*
X111500000Y-81000000D03*
X118500000Y-81000000D03*
X111500000Y-77500000D03*
D20*
X115000000Y-76000000D03*
D18*
X108000000Y-55475000D03*
X108000000Y-57025000D03*
D23*
X83525000Y-51000000D03*
X81975000Y-51000000D03*
D17*
X108000000Y-66525000D03*
X108000000Y-64975000D03*
D37*
X81762500Y-56750000D03*
X84737500Y-56750000D03*
D29*
X88575000Y-50750000D03*
X86925000Y-50750000D03*
D25*
X108000000Y-61425000D03*
X108000000Y-63075000D03*
D19*
X118500000Y-70500000D03*
X111500000Y-63500000D03*
D20*
X115000000Y-72000000D03*
D19*
X111500000Y-70500000D03*
X111500000Y-67000000D03*
X118500000Y-67000000D03*
X118500000Y-63500000D03*
D20*
X115000000Y-62000000D03*
D25*
X94000000Y-61675000D03*
X94000000Y-63325000D03*
D38*
X84875000Y-53500000D03*
X81625000Y-53500000D03*
D39*
X105250000Y-56725000D03*
X105250000Y-52275000D03*
D18*
X94000000Y-67725000D03*
X94000000Y-69275000D03*
%LPD*%
M02*
